<?xml version="1.0" encoding="utf-8"?>
<!-- Generator: Adobe Illustrator 24.3.0, SVG Export Plug-In . SVG Version: 6.00 Build 0)  -->
<svg version="1.1" xmlns="http://www.w3.org/2000/svg" xmlns:xlink="http://www.w3.org/1999/xlink" x="0px" y="0px"
	 viewBox="0 0 841.9 595.3" style="enable-background:new 0 0 841.9 595.3;" xml:space="preserve">
<style type="text/css">
	
		.st0{fill:#C8A339;fill-opacity:0;stroke:#C8A339;stroke-width:0.5669;stroke-linecap:round;stroke-linejoin:round;stroke-miterlimit:10;}
</style>
<g id="Layer_2">
</g>
<g id="Layer_1" xmlns:svg="http://www.w3.org/2000/svg">
	<desc>Picture generated by PCBNEW</desc>
	<g transform="translate(0 0) scale(1 1)">
	</g>
	<g>
		<g>
			<desc></desc>
		</g>
	</g>
	<g>
		<g>
			<desc></desc>
		</g>
	</g>
	<g>
		<g>
			<desc></desc>
		</g>
	</g>
	<g>
		<g>
			<desc></desc>
		</g>
	</g>
	<g>
		<g>
			<desc></desc>
		</g>
	</g>
	<path class="st0" d="M17.4,278.8V23.1l0,0c0-3.1,2.5-5.7,5.7-5.7l21.8,0c0.4,4.4,4.3,7.7,8.8,7.3c3.9-0.4,6.9-3.4,7.3-7.2
		c0,0,145.1-0.3,145.1-0.3c0.8,4.9,5.3,8.3,10.3,7.5c3.8-0.6,6.9-3.6,7.5-7.4c0,0,188.4,0.2,188.4,0.2c0,4.5,3.7,8.2,8.2,8.2
		c4.5,0,8.2-3.7,8.2-8.2c0,0,0,0,0,0l189.7-0.1c0,5.1,4.1,9.2,9.2,9.2s9.2-4.1,9.2-9.2c0,0,0,0,0,0l145.4,0.2c0,4.2,3.4,7.7,7.6,7.7
		c4.2,0,7.7-3.4,7.7-7.6c0,0,0-0.1,0-0.1c0,0,21.4-0.1,21.4-0.1l0,0c3.1,0,5.7,2.5,5.7,5.7v255.7l0,0c0,3.1-2.5,5.7-5.7,5.7
		l-20.9-0.1c0-5.4-4.3-9.7-9.7-9.7c-5.3,0-9.6,4.2-9.7,9.5l-203.4,0.2c-0.1-4.5-3.8-8.2-8.4-8.1c-4.4,0.1-8,3.7-8.1,8.1l-274.9-0.1
		c0-5.1-4.2-9.2-9.2-9.2c-5.1,0-9.2,4.1-9.2,9.2l-201.5,0c0-5.3-4.3-9.7-9.7-9.7s-9.7,4.3-9.7,9.7l-21.4,0l0,0
		C20,284.5,17.4,282,17.4,278.8z"/>
</g>
</svg>
