M48
; DRILL file {KiCad (5.99.0-4079-gfad0916f0)} date 12/09/20 17:55:06
; FORMAT={-:-/ absolute / inch / decimal}
; #@! TF.CreationDate,2020-12-09T17:55:06-05:00
; #@! TF.GenerationSoftware,Kicad,Pcbnew,(5.99.0-4079-gfad0916f0)
FMAT,2
INCH
T1C0.0157
T2C0.0335
T3C0.0394
T4C0.0590
T5C0.0670
T6C0.1200
T7C0.1570
%
G90
G05
T1
X0.0731Y-0.8025
X0.1046Y-0.8025
X0.1331Y-0.9025
X0.1331Y-1.4925
X0.1431Y-0.8025
X0.1731Y-1.4925
X0.2131Y-1.4925
X0.2531Y-1.4925
X2.5034Y-0.8247
X2.5313Y-0.7969
X2.5591Y-0.769
X2.7891Y-2.0156
X2.8359Y-3.3047
X2.8631Y-3.4725
X2.8828Y-3.3047
X2.9297Y-3.3047
X2.9766Y-2.8828
X3.6131Y-2.8525
X3.6131Y-2.9925
X3.6797Y-2.8754
X3.7031Y-2.8125
X3.7031Y-3.3281
X3.7031Y-3.4219
X3.7731Y-3.5855
X3.8731Y-2.7525
X3.8906Y-0.5391
X3.9682Y-3.4874
X4.0215Y-3.4704
X4.0547Y-2.7891
X4.0547Y-3.4688
X4.0781Y-3.4453
X4.1016Y-3.4219
X4.1091Y-2.7891
X4.1638Y-2.7891
X4.1646Y-3.2506
X4.1953Y-1.2891
X4.2231Y-1.4425
X4.3125Y-3.2813
X4.3209Y-2.7593
X4.3594Y-2.1094
X4.3594Y-3.3738
X4.3731Y-2.9425
X4.4297Y-3.5391
X4.4731Y-3.3492
X4.5131Y-3.2325
X4.6172Y-2.9766
X4.6209Y-3.3
X5.8125Y-3.4691
X5.8359Y-2.7656
X6.5859Y-2.7891
X7.3125Y-2.8124
X10.3831Y-0.6225
X10.4481Y-2.841
T2
X4.5172Y-3.4891
X4.5172Y-3.5891
X4.6172Y-3.4891
X4.6172Y-3.5891
X4.7172Y-3.4891
X4.7172Y-3.5891
T3
X4.0078Y-3.6563
X3.8906Y-3.6563
X3.7734Y-3.6563
T4
X10.2562Y-1.775
X10.5062Y-1.675
X0.225Y-0.275
X0.475Y-0.175
X3.6Y-1.025
X3.85Y-0.925
X6.225Y-0.275
X6.475Y-0.175
X8.2875Y-1.775
X8.5375Y-1.675
X10.725Y-0.275
X10.975Y-0.175
X0.3187Y-3.275
X0.5687Y-3.175
X0.4125Y-1.025
X0.6625Y-0.925
X3.975Y-0.275
X4.225Y-0.175
X10.725Y-2.525
X10.975Y-2.425
X2.85Y-1.025
X3.1Y-0.925
X0.3187Y-2.525
X0.5687Y-2.425
X1.35Y-1.025
X1.6Y-0.925
X0.6937Y-2.525
X0.9437Y-2.425
X6.975Y-0.275
X7.225Y-0.175
X9.6937Y-3.275
X9.9437Y-3.175
X2.1938Y-3.275
X2.4438Y-3.175
X9.975Y-0.275
X10.225Y-0.175
X7.35Y-1.025
X7.6Y-0.925
X8.7562Y-3.275
X9.0062Y-3.175
X2.2875Y-1.775
X2.5375Y-1.675
X10.5375Y-3.275
X10.7875Y-3.175
X7.725Y-0.275
X7.975Y-0.175
X3.7875Y-1.775
X4.0375Y-1.675
X7.1625Y-2.525
X7.4125Y-2.425
X5.2875Y-1.775
X5.5375Y-1.675
X4.35Y-1.025
X4.6Y-0.925
X8.6625Y-2.525
X8.9125Y-2.425
X7.5375Y-1.775
X7.7875Y-1.675
X7.9125Y-2.525
X8.1625Y-2.425
X5.0062Y-3.275
X5.2562Y-3.175
X9.0375Y-1.775
X9.2875Y-1.675
X10.35Y-0.275
X10.6Y-0.175
X2.475Y-0.275
X2.725Y-0.175
X10.5375Y-1.025
X10.7875Y-0.925
X1.9125Y-2.525
X2.1625Y-2.425
X5.475Y-3.275
X5.725Y-3.175
X8.475Y-0.275
X8.725Y-0.175
X9.7875Y-1.775
X10.0375Y-1.675
X4.5375Y-1.775
X4.7875Y-1.675
X10.6313Y-1.4
X10.8813Y-1.3
X1.1625Y-2.525
X1.4125Y-2.425
X5.1Y-1.025
X5.35Y-0.925
X0.975Y-0.275
X1.225Y-0.175
X8.1Y-1.025
X8.35Y-0.925
X5.6625Y-2.525
X5.9125Y-2.425
X3.225Y-0.275
X3.475Y-0.175
X10.0688Y-2.525
X10.3188Y-2.425
X2.2875Y-3.275
X2.5375Y-3.175
X1.725Y-0.275
X1.975Y-0.175
X3.4125Y-2.525
X3.6625Y-2.425
X9.6938Y-2.525
X9.9438Y-2.425
X0.5062Y-1.775
X0.7562Y-1.675
X9.6Y-1.025
X9.85Y-0.925
X2.1Y-1.025
X2.35Y-0.925
X1.2562Y-3.275
X1.5062Y-3.175
X9.225Y-0.275
X9.475Y-0.175
X8.85Y-1.025
X9.1Y-0.925
X0.4125Y-3.275
X0.6625Y-3.175
X6.0375Y-1.775
X6.2875Y-1.675
X6.6Y-1.025
X6.85Y-0.925
X4.9125Y-2.525
X5.1625Y-2.425
X5.475Y-0.275
X5.725Y-0.175
X4.725Y-0.275
X4.975Y-0.175
X6.7875Y-1.775
X7.0375Y-1.675
X10.6312Y-3.275
X10.8812Y-3.175
X8.6625Y-3.275
X8.9125Y-3.175
X3.0375Y-1.775
X3.2875Y-1.675
X6.4125Y-2.525
X6.6625Y-2.425
X4.1625Y-2.525
X4.4125Y-2.425
X1.35Y-3.275
X1.6Y-3.175
X1.5375Y-1.775
X1.7875Y-1.675
X7.8187Y-3.275
X8.0687Y-3.175
X5.85Y-1.025
X6.1Y-0.925
X9.6Y-3.275
X9.85Y-3.175
X0.3187Y-1.775
X0.5687Y-1.675
X2.6625Y-2.525
X2.9125Y-2.425
T5
X2.2375Y-3.375
X2.6375Y-3.375
X1.675Y-0.375
X2.075Y-0.375
X3.3625Y-2.625
X3.7625Y-2.625
X9.6438Y-2.625
X10.0438Y-2.625
X0.4562Y-1.875
X0.8562Y-1.875
X9.55Y-1.125
X9.95Y-1.125
X2.05Y-1.125
X2.45Y-1.125
X1.2063Y-3.375
X1.6062Y-3.375
X9.175Y-0.375
X9.575Y-0.375
X8.8Y-1.125
X9.2Y-1.125
X0.3625Y-3.375
X0.7625Y-3.375
X5.9875Y-1.875
X6.3875Y-1.875
X6.55Y-1.125
X6.95Y-1.125
X4.8625Y-2.625
X5.2625Y-2.625
X5.425Y-0.375
X5.825Y-0.375
X4.675Y-0.375
X5.075Y-0.375
X6.7375Y-1.875
X7.1375Y-1.875
X10.5812Y-3.375
X10.9812Y-3.375
X8.6125Y-3.375
X9.0125Y-3.375
X2.9875Y-1.875
X3.3875Y-1.875
X6.3625Y-2.625
X6.7625Y-2.625
X4.1125Y-2.625
X4.5125Y-2.625
X1.3Y-3.375
X1.7Y-3.375
X1.4875Y-1.875
X1.8875Y-1.875
X7.7687Y-3.375
X8.1687Y-3.375
X5.8Y-1.125
X6.2Y-1.125
X9.55Y-3.375
X9.95Y-3.375
X0.2687Y-1.875
X0.6687Y-1.875
X2.6125Y-2.625
X3.0125Y-2.625
X10.2062Y-1.875
X10.6062Y-1.875
X0.175Y-0.375
X0.575Y-0.375
X3.55Y-1.125
X3.95Y-1.125
X6.175Y-0.375
X6.575Y-0.375
X8.2375Y-1.875
X8.6375Y-1.875
X10.675Y-0.375
X11.075Y-0.375
X0.2687Y-3.375
X0.6687Y-3.375
X0.3625Y-1.125
X0.7625Y-1.125
X3.925Y-0.375
X4.325Y-0.375
X10.675Y-2.625
X11.075Y-2.625
X2.8Y-1.125
X3.2Y-1.125
X0.2687Y-2.625
X0.6687Y-2.625
X1.3Y-1.125
X1.7Y-1.125
X0.6437Y-2.625
X1.0437Y-2.625
X6.925Y-0.375
X7.325Y-0.375
X9.6437Y-3.375
X10.0437Y-3.375
X2.1437Y-3.375
X2.5437Y-3.375
X9.925Y-0.375
X10.325Y-0.375
X7.3Y-1.125
X7.7Y-1.125
X8.7062Y-3.375
X9.1062Y-3.375
X2.2375Y-1.875
X2.6375Y-1.875
X10.4875Y-3.375
X10.8875Y-3.375
X7.675Y-0.375
X8.075Y-0.375
X3.7375Y-1.875
X4.1375Y-1.875
X7.1125Y-2.625
X7.5125Y-2.625
X5.2375Y-1.875
X5.6375Y-1.875
X4.3Y-1.125
X4.7Y-1.125
X8.6125Y-2.625
X9.0125Y-2.625
X7.4875Y-1.875
X7.8875Y-1.875
X7.8625Y-2.625
X8.2625Y-2.625
X4.9562Y-3.375
X5.3563Y-3.375
X8.9875Y-1.875
X9.3875Y-1.875
X10.3Y-0.375
X10.7Y-0.375
X2.425Y-0.375
X2.825Y-0.375
X10.4875Y-1.125
X10.8875Y-1.125
X1.8625Y-2.625
X2.2625Y-2.625
X5.425Y-3.375
X5.825Y-3.375
X8.425Y-0.375
X8.825Y-0.375
X9.7375Y-1.875
X10.1375Y-1.875
X4.4875Y-1.875
X4.8875Y-1.875
X10.5813Y-1.5
X10.9813Y-1.5
X1.1125Y-2.625
X1.5125Y-2.625
X5.05Y-1.125
X5.45Y-1.125
X0.925Y-0.375
X1.325Y-0.375
X8.05Y-1.125
X8.45Y-1.125
X5.6125Y-2.625
X6.0125Y-2.625
X3.175Y-0.375
X3.575Y-0.375
X10.0188Y-2.625
X10.4188Y-2.625
T6
X9.7488Y-2.35
X10.6888Y-2.35
X9.9362Y-1.6
X10.8763Y-1.6
X0.3737Y-2.35
X1.3137Y-2.35
X3.1862Y-3.65
X7.1262Y-3.65
X10.03Y-0.1
X10.97Y-0.1
X3.3737Y-3.65
X7.8762Y-3.65
X11.0563Y-1.03
X11.0563Y-1.97
T7
X0.6562Y-1.875
X9.75Y-1.125
X2.25Y-1.125
X1.4062Y-3.375
X9.375Y-0.375
X9.0Y-1.125
X0.5625Y-3.375
X6.1875Y-1.875
X6.75Y-1.125
X5.0625Y-2.625
X5.625Y-0.375
X4.875Y-0.375
X6.9375Y-1.875
X10.7812Y-3.375
X8.8125Y-3.375
X3.1875Y-1.875
X6.5625Y-2.625
X4.3125Y-2.625
X1.5Y-3.375
X1.6875Y-1.875
X7.9688Y-3.375
X6.0Y-1.125
X9.75Y-3.375
X0.4688Y-1.875
X2.8125Y-2.625
X9.9362Y-2.2
X10.4062Y-1.875
X10.8763Y-2.2
X0.375Y-0.375
X3.75Y-1.125
X6.375Y-0.375
X8.4375Y-1.875
X10.875Y-0.375
X0.4688Y-3.375
X0.5625Y-1.125
X4.125Y-0.375
X10.875Y-2.625
X3.0Y-1.125
X0.4688Y-2.625
X1.5Y-1.125
X0.3737Y-2.95
X0.8438Y-2.625
X1.3137Y-2.95
X7.125Y-0.375
X9.8438Y-3.375
X2.3438Y-3.375
X10.125Y-0.375
X7.5Y-1.125
X8.9062Y-3.375
X2.4375Y-1.875
X10.6875Y-3.375
X7.875Y-0.375
X3.9375Y-1.875
X7.3125Y-2.625
X5.4375Y-1.875
X4.5Y-1.125
X8.8125Y-2.625
X7.6875Y-1.875
X8.0625Y-2.625
X3.1862Y-3.05
X5.1562Y-3.375
X7.1262Y-3.05
X9.1875Y-1.875
X10.03Y-0.7
X10.5Y-0.375
X10.97Y-0.7
X2.625Y-0.375
X10.6875Y-1.125
X2.0625Y-2.625
X3.3737Y-3.05
X5.625Y-3.375
X7.8762Y-3.05
X8.625Y-0.375
X9.9375Y-1.875
X4.6875Y-1.875
X10.4563Y-1.03
X10.4563Y-1.97
X10.7813Y-1.5
X1.3125Y-2.625
X5.25Y-1.125
X1.125Y-0.375
X8.25Y-1.125
X5.8125Y-2.625
X3.375Y-0.375
X9.7488Y-2.95
X10.2188Y-2.625
X10.6888Y-2.95
X2.4375Y-3.375
X1.875Y-0.375
X3.5625Y-2.625
X9.8438Y-2.625
T0
M30
