G04 #@! TF.GenerationSoftware,KiCad,Pcbnew,(5.99.0-4079-gfad0916f0)*
G04 #@! TF.CreationDate,2020-12-09T17:53:41-05:00*
G04 #@! TF.ProjectId,plain60-c,706c6169-6e36-4302-9d63-2e6b69636164,rev?*
G04 #@! TF.SameCoordinates,Original*
G04 #@! TF.FileFunction,Legend,Bot*
G04 #@! TF.FilePolarity,Positive*
%FSLAX46Y46*%
G04 Gerber Fmt 4.6, Leading zero omitted, Abs format (unit mm)*
G04 Created by KiCad (PCBNEW (5.99.0-4079-gfad0916f0)) date 2020-12-09 17:53:41*
%MOMM*%
%LPD*%
G01*
G04 APERTURE LIST*
%ADD10C,0.400000*%
%ADD11C,0.150000*%
%ADD12C,0.120000*%
%ADD13C,0.010000*%
G04 APERTURE END LIST*
D10*
X175619263Y-79962321D02*
X175619263Y-77962321D01*
X174857358Y-77962321D01*
X174666882Y-78057560D01*
X174571644Y-78152798D01*
X174476406Y-78343274D01*
X174476406Y-78628988D01*
X174571644Y-78819464D01*
X174666882Y-78914702D01*
X174857358Y-79009940D01*
X175619263Y-79009940D01*
X173333549Y-79962321D02*
X173524025Y-79867083D01*
X173619263Y-79676607D01*
X173619263Y-77962321D01*
X171714501Y-79962321D02*
X171714501Y-78914702D01*
X171809739Y-78724226D01*
X172000215Y-78628988D01*
X172381168Y-78628988D01*
X172571644Y-78724226D01*
X171714501Y-79867083D02*
X171904977Y-79962321D01*
X172381168Y-79962321D01*
X172571644Y-79867083D01*
X172666882Y-79676607D01*
X172666882Y-79486131D01*
X172571644Y-79295655D01*
X172381168Y-79200417D01*
X171904977Y-79200417D01*
X171714501Y-79105179D01*
X170762120Y-79962321D02*
X170762120Y-78628988D01*
X170762120Y-77962321D02*
X170857358Y-78057560D01*
X170762120Y-78152798D01*
X170666882Y-78057560D01*
X170762120Y-77962321D01*
X170762120Y-78152798D01*
X169809739Y-78628988D02*
X169809739Y-79962321D01*
X169809739Y-78819464D02*
X169714501Y-78724226D01*
X169524025Y-78628988D01*
X169238311Y-78628988D01*
X169047834Y-78724226D01*
X168952596Y-78914702D01*
X168952596Y-79962321D01*
X167143073Y-77962321D02*
X167524025Y-77962321D01*
X167714501Y-78057560D01*
X167809739Y-78152798D01*
X168000215Y-78438512D01*
X168095454Y-78819464D01*
X168095454Y-79581369D01*
X168000215Y-79771845D01*
X167904977Y-79867083D01*
X167714501Y-79962321D01*
X167333549Y-79962321D01*
X167143073Y-79867083D01*
X167047834Y-79771845D01*
X166952596Y-79581369D01*
X166952596Y-79105179D01*
X167047834Y-78914702D01*
X167143073Y-78819464D01*
X167333549Y-78724226D01*
X167714501Y-78724226D01*
X167904977Y-78819464D01*
X168000215Y-78914702D01*
X168095454Y-79105179D01*
X165714501Y-77962321D02*
X165524025Y-77962321D01*
X165333549Y-78057560D01*
X165238311Y-78152798D01*
X165143073Y-78343274D01*
X165047834Y-78724226D01*
X165047834Y-79200417D01*
X165143073Y-79581369D01*
X165238311Y-79771845D01*
X165333549Y-79867083D01*
X165524025Y-79962321D01*
X165714501Y-79962321D01*
X165904977Y-79867083D01*
X166000215Y-79771845D01*
X166095454Y-79581369D01*
X166190692Y-79200417D01*
X166190692Y-78724226D01*
X166095454Y-78343274D01*
X166000215Y-78152798D01*
X165904977Y-78057560D01*
X165714501Y-77962321D01*
X164190692Y-79200417D02*
X162666882Y-79200417D01*
X160571644Y-79771845D02*
X160666882Y-79867083D01*
X160952596Y-79962321D01*
X161143073Y-79962321D01*
X161428787Y-79867083D01*
X161619263Y-79676607D01*
X161714501Y-79486131D01*
X161809739Y-79105179D01*
X161809739Y-78819464D01*
X161714501Y-78438512D01*
X161619263Y-78248036D01*
X161428787Y-78057560D01*
X161143073Y-77962321D01*
X160952596Y-77962321D01*
X160666882Y-78057560D01*
X160571644Y-78152798D01*
D11*
X6445168Y-34059940D02*
X6445168Y-34869464D01*
X6397549Y-34964702D01*
X6349930Y-35012321D01*
X6254692Y-35059940D01*
X6064215Y-35059940D01*
X5968977Y-35012321D01*
X5921358Y-34964702D01*
X5873739Y-34869464D01*
X5873739Y-34059940D01*
X5397549Y-35059940D02*
X5397549Y-34059940D01*
X5159454Y-34059940D01*
X5016596Y-34107560D01*
X4921358Y-34202798D01*
X4873739Y-34298036D01*
X4826120Y-34488512D01*
X4826120Y-34631369D01*
X4873739Y-34821845D01*
X4921358Y-34917083D01*
X5016596Y-35012321D01*
X5159454Y-35059940D01*
X5397549Y-35059940D01*
X4064215Y-34536131D02*
X3921358Y-34583750D01*
X3873739Y-34631369D01*
X3826120Y-34726607D01*
X3826120Y-34869464D01*
X3873739Y-34964702D01*
X3921358Y-35012321D01*
X4016596Y-35059940D01*
X4397549Y-35059940D01*
X4397549Y-34059940D01*
X4064215Y-34059940D01*
X3968977Y-34107560D01*
X3921358Y-34155179D01*
X3873739Y-34250417D01*
X3873739Y-34345655D01*
X3921358Y-34440893D01*
X3968977Y-34488512D01*
X4064215Y-34536131D01*
X4397549Y-34536131D01*
X121122079Y-73540165D02*
X121522079Y-73540165D01*
X121322079Y-73540165D02*
X121322079Y-72840165D01*
X121388746Y-72940165D01*
X121455413Y-73006832D01*
X121522079Y-73040165D01*
X120688746Y-72840165D02*
X120622079Y-72840165D01*
X120555413Y-72873499D01*
X120522079Y-72906832D01*
X120488746Y-72973499D01*
X120455413Y-73106832D01*
X120455413Y-73273499D01*
X120488746Y-73406832D01*
X120522079Y-73473499D01*
X120555413Y-73506832D01*
X120622079Y-73540165D01*
X120688746Y-73540165D01*
X120755413Y-73506832D01*
X120788746Y-73473499D01*
X120822079Y-73406832D01*
X120855413Y-73273499D01*
X120855413Y-73106832D01*
X120822079Y-72973499D01*
X120788746Y-72906832D01*
X120755413Y-72873499D01*
X120688746Y-72840165D01*
X120155413Y-73540165D02*
X120155413Y-72840165D01*
X120088746Y-73273499D02*
X119888746Y-73540165D01*
X119888746Y-73073499D02*
X120155413Y-73340165D01*
X98893386Y-88271099D02*
X98893386Y-89033004D01*
X99274338Y-88652051D02*
X98512434Y-88652051D01*
X98274338Y-89985385D02*
X98274338Y-89509194D01*
X98750529Y-89461575D01*
X98702910Y-89509194D01*
X98655291Y-89604432D01*
X98655291Y-89842527D01*
X98702910Y-89937765D01*
X98750529Y-89985385D01*
X98845767Y-90033004D01*
X99083862Y-90033004D01*
X99179100Y-89985385D01*
X99226719Y-89937765D01*
X99274338Y-89842527D01*
X99274338Y-89604432D01*
X99226719Y-89509194D01*
X99179100Y-89461575D01*
X98607672Y-90366337D02*
X99274338Y-90604432D01*
X98607672Y-90842527D01*
X101727094Y-89604432D02*
X101774713Y-89747289D01*
X101822332Y-89794908D01*
X101917570Y-89842527D01*
X102060427Y-89842527D01*
X102155665Y-89794908D01*
X102203284Y-89747289D01*
X102250903Y-89652051D01*
X102250903Y-89271099D01*
X101250903Y-89271099D01*
X101250903Y-89604432D01*
X101298523Y-89699670D01*
X101346142Y-89747289D01*
X101441380Y-89794908D01*
X101536618Y-89794908D01*
X101631856Y-89747289D01*
X101679475Y-89699670D01*
X101727094Y-89604432D01*
X101727094Y-89271099D01*
X101250903Y-90461575D02*
X101250903Y-90556813D01*
X101298523Y-90652051D01*
X101346142Y-90699670D01*
X101441380Y-90747289D01*
X101631856Y-90794908D01*
X101869951Y-90794908D01*
X102060427Y-90747289D01*
X102155665Y-90699670D01*
X102203284Y-90652051D01*
X102250903Y-90556813D01*
X102250903Y-90461575D01*
X102203284Y-90366337D01*
X102155665Y-90318718D01*
X102060427Y-90271099D01*
X101869951Y-90223480D01*
X101631856Y-90223480D01*
X101441380Y-90271099D01*
X101346142Y-90318718D01*
X101298523Y-90366337D01*
X101250903Y-90461575D01*
X12383333Y-20222085D02*
X12350000Y-20255418D01*
X12316666Y-20322085D01*
X12316666Y-20488752D01*
X12350000Y-20555418D01*
X12383333Y-20588752D01*
X12450000Y-20622085D01*
X12516666Y-20622085D01*
X12616666Y-20588752D01*
X13016666Y-20188752D01*
X13016666Y-20622085D01*
X12383333Y-20888752D02*
X12350000Y-20922085D01*
X12316666Y-20988752D01*
X12316666Y-21155418D01*
X12350000Y-21222085D01*
X12383333Y-21255418D01*
X12450000Y-21288752D01*
X12516666Y-21288752D01*
X12616666Y-21255418D01*
X13016666Y-20855418D01*
X13016666Y-21288752D01*
X121755413Y-82365173D02*
X121688746Y-82365173D01*
X121622079Y-82398507D01*
X121588746Y-82431840D01*
X121555413Y-82498507D01*
X121522079Y-82631840D01*
X121522079Y-82798507D01*
X121555413Y-82931840D01*
X121588746Y-82998507D01*
X121622079Y-83031840D01*
X121688746Y-83065173D01*
X121755413Y-83065173D01*
X121822079Y-83031840D01*
X121855413Y-82998507D01*
X121888746Y-82931840D01*
X121922079Y-82798507D01*
X121922079Y-82631840D01*
X121888746Y-82498507D01*
X121855413Y-82431840D01*
X121822079Y-82398507D01*
X121755413Y-82365173D01*
X121222079Y-82998507D02*
X121188746Y-83031840D01*
X121222079Y-83065173D01*
X121255413Y-83031840D01*
X121222079Y-82998507D01*
X121222079Y-83065173D01*
X120522079Y-83065173D02*
X120922079Y-83065173D01*
X120722079Y-83065173D02*
X120722079Y-82365173D01*
X120788746Y-82465173D01*
X120855413Y-82531840D01*
X120922079Y-82565173D01*
X119922079Y-82598507D02*
X119922079Y-83065173D01*
X120222079Y-82598507D02*
X120222079Y-82965173D01*
X120188746Y-83031840D01*
X120122079Y-83065173D01*
X120022079Y-83065173D01*
X119955413Y-83031840D01*
X119922079Y-82998507D01*
X121755413Y-75221417D02*
X121688746Y-75221417D01*
X121622079Y-75254751D01*
X121588746Y-75288084D01*
X121555413Y-75354751D01*
X121522079Y-75488084D01*
X121522079Y-75654751D01*
X121555413Y-75788084D01*
X121588746Y-75854751D01*
X121622079Y-75888084D01*
X121688746Y-75921417D01*
X121755413Y-75921417D01*
X121822079Y-75888084D01*
X121855413Y-75854751D01*
X121888746Y-75788084D01*
X121922079Y-75654751D01*
X121922079Y-75488084D01*
X121888746Y-75354751D01*
X121855413Y-75288084D01*
X121822079Y-75254751D01*
X121755413Y-75221417D01*
X121222079Y-75854751D02*
X121188746Y-75888084D01*
X121222079Y-75921417D01*
X121255413Y-75888084D01*
X121222079Y-75854751D01*
X121222079Y-75921417D01*
X120522079Y-75921417D02*
X120922079Y-75921417D01*
X120722079Y-75921417D02*
X120722079Y-75221417D01*
X120788746Y-75321417D01*
X120855413Y-75388084D01*
X120922079Y-75421417D01*
X119922079Y-75454751D02*
X119922079Y-75921417D01*
X120222079Y-75454751D02*
X120222079Y-75821417D01*
X120188746Y-75888084D01*
X120122079Y-75921417D01*
X120022079Y-75921417D01*
X119955413Y-75888084D01*
X119922079Y-75854751D01*
X6292061Y-17376666D02*
X6292061Y-17143333D01*
X6658727Y-17143333D02*
X5958727Y-17143333D01*
X5958727Y-17476666D01*
X6658727Y-18110000D02*
X6658727Y-17710000D01*
X6658727Y-17910000D02*
X5958727Y-17910000D01*
X6058727Y-17843333D01*
X6125394Y-17776666D01*
X6158727Y-17710000D01*
X10097333Y-20222085D02*
X10064000Y-20255418D01*
X10030666Y-20322085D01*
X10030666Y-20488752D01*
X10064000Y-20555418D01*
X10097333Y-20588752D01*
X10164000Y-20622085D01*
X10230666Y-20622085D01*
X10330666Y-20588752D01*
X10730666Y-20188752D01*
X10730666Y-20622085D01*
X10097333Y-20888752D02*
X10064000Y-20922085D01*
X10030666Y-20988752D01*
X10030666Y-21155418D01*
X10064000Y-21222085D01*
X10097333Y-21255418D01*
X10164000Y-21288752D01*
X10230666Y-21288752D01*
X10330666Y-21255418D01*
X10730666Y-20855418D01*
X10730666Y-21288752D01*
X91047368Y-87232364D02*
X91447368Y-87232364D01*
X91247368Y-87232364D02*
X91247368Y-86532364D01*
X91314035Y-86632364D01*
X91380702Y-86699031D01*
X91447368Y-86732364D01*
X90447368Y-86765698D02*
X90447368Y-87232364D01*
X90747368Y-86765698D02*
X90747368Y-87132364D01*
X90714035Y-87199031D01*
X90647368Y-87232364D01*
X90547368Y-87232364D01*
X90480702Y-87199031D01*
X90447368Y-87165698D01*
X91280702Y-84151112D02*
X91214035Y-84151112D01*
X91147368Y-84184446D01*
X91114035Y-84217779D01*
X91080702Y-84284446D01*
X91047368Y-84417779D01*
X91047368Y-84584446D01*
X91080702Y-84717779D01*
X91114035Y-84784446D01*
X91147368Y-84817779D01*
X91214035Y-84851112D01*
X91280702Y-84851112D01*
X91347368Y-84817779D01*
X91380702Y-84784446D01*
X91414035Y-84717779D01*
X91447368Y-84584446D01*
X91447368Y-84417779D01*
X91414035Y-84284446D01*
X91380702Y-84217779D01*
X91347368Y-84184446D01*
X91280702Y-84151112D01*
X90747368Y-84784446D02*
X90714035Y-84817779D01*
X90747368Y-84851112D01*
X90780702Y-84817779D01*
X90747368Y-84784446D01*
X90747368Y-84851112D01*
X90047368Y-84851112D02*
X90447368Y-84851112D01*
X90247368Y-84851112D02*
X90247368Y-84151112D01*
X90314035Y-84251112D01*
X90380702Y-84317779D01*
X90447368Y-84351112D01*
X89447368Y-84384446D02*
X89447368Y-84851112D01*
X89747368Y-84384446D02*
X89747368Y-84751112D01*
X89714035Y-84817779D01*
X89647368Y-84851112D01*
X89547368Y-84851112D01*
X89480702Y-84817779D01*
X89447368Y-84784446D01*
X121122079Y-85446425D02*
X121522079Y-85446425D01*
X121322079Y-85446425D02*
X121322079Y-84746425D01*
X121388746Y-84846425D01*
X121455413Y-84913092D01*
X121522079Y-84946425D01*
X120688746Y-84746425D02*
X120622079Y-84746425D01*
X120555413Y-84779759D01*
X120522079Y-84813092D01*
X120488746Y-84879759D01*
X120455413Y-85013092D01*
X120455413Y-85179759D01*
X120488746Y-85313092D01*
X120522079Y-85379759D01*
X120555413Y-85413092D01*
X120622079Y-85446425D01*
X120688746Y-85446425D01*
X120755413Y-85413092D01*
X120788746Y-85379759D01*
X120822079Y-85313092D01*
X120855413Y-85179759D01*
X120855413Y-85013092D01*
X120822079Y-84879759D01*
X120788746Y-84813092D01*
X120755413Y-84779759D01*
X120688746Y-84746425D01*
X120155413Y-85446425D02*
X120155413Y-84746425D01*
X120088746Y-85179759D02*
X119888746Y-85446425D01*
X119888746Y-84979759D02*
X120155413Y-85246425D01*
X95345393Y-88699674D02*
X95297773Y-88604436D01*
X95297773Y-88461579D01*
X95345393Y-88318722D01*
X95440631Y-88223484D01*
X95535869Y-88175865D01*
X95726345Y-88128246D01*
X95869202Y-88128246D01*
X96059678Y-88175865D01*
X96154916Y-88223484D01*
X96250154Y-88318722D01*
X96297773Y-88461579D01*
X96297773Y-88556817D01*
X96250154Y-88699674D01*
X96202535Y-88747293D01*
X95869202Y-88747293D01*
X95869202Y-88556817D01*
X96297773Y-89175865D02*
X95297773Y-89175865D01*
X96297773Y-89747293D01*
X95297773Y-89747293D01*
X96297773Y-90223484D02*
X95297773Y-90223484D01*
X95297773Y-90461579D01*
X95345393Y-90604436D01*
X95440631Y-90699674D01*
X95535869Y-90747293D01*
X95726345Y-90794912D01*
X95869202Y-90794912D01*
X96059678Y-90747293D01*
X96154916Y-90699674D01*
X96250154Y-90604436D01*
X96297773Y-90461579D01*
X96297773Y-90223484D01*
X122599041Y-88916072D02*
X121599041Y-88916072D01*
X122551422Y-89344643D02*
X122599041Y-89487501D01*
X122599041Y-89725596D01*
X122551422Y-89820834D01*
X122503803Y-89868453D01*
X122408565Y-89916072D01*
X122313327Y-89916072D01*
X122218089Y-89868453D01*
X122170470Y-89820834D01*
X122122851Y-89725596D01*
X122075232Y-89535120D01*
X122027613Y-89439882D01*
X121979994Y-89392263D01*
X121884756Y-89344643D01*
X121789518Y-89344643D01*
X121694280Y-89392263D01*
X121646661Y-89439882D01*
X121599041Y-89535120D01*
X121599041Y-89773215D01*
X121646661Y-89916072D01*
X122599041Y-90344643D02*
X121599041Y-90344643D01*
X121599041Y-90725596D01*
X121646661Y-90820834D01*
X121694280Y-90868453D01*
X121789518Y-90916072D01*
X121932375Y-90916072D01*
X122027613Y-90868453D01*
X122075232Y-90820834D01*
X122122851Y-90725596D01*
X122122851Y-90344643D01*
X112649041Y-88907977D02*
X112649041Y-88336548D01*
X112649041Y-88622263D02*
X111649041Y-88622263D01*
X111791899Y-88527024D01*
X111887137Y-88431786D01*
X111934756Y-88336548D01*
X110220925Y-90932889D02*
X110220925Y-91399555D01*
X110387592Y-90666222D02*
X110554258Y-91166222D01*
X110120925Y-91166222D01*
X109854258Y-91332889D02*
X109820925Y-91366222D01*
X109854258Y-91399555D01*
X109887592Y-91366222D01*
X109854258Y-91332889D01*
X109854258Y-91399555D01*
X109587592Y-90699555D02*
X109120925Y-90699555D01*
X109420925Y-91399555D01*
X108554258Y-90932889D02*
X108554258Y-91399555D01*
X108854258Y-90932889D02*
X108854258Y-91299555D01*
X108820925Y-91366222D01*
X108754258Y-91399555D01*
X108654258Y-91399555D01*
X108587592Y-91366222D01*
X108554258Y-91332889D01*
X91280702Y-71054226D02*
X91214035Y-71054226D01*
X91147368Y-71087560D01*
X91114035Y-71120893D01*
X91080702Y-71187560D01*
X91047368Y-71320893D01*
X91047368Y-71487560D01*
X91080702Y-71620893D01*
X91114035Y-71687560D01*
X91147368Y-71720893D01*
X91214035Y-71754226D01*
X91280702Y-71754226D01*
X91347368Y-71720893D01*
X91380702Y-71687560D01*
X91414035Y-71620893D01*
X91447368Y-71487560D01*
X91447368Y-71320893D01*
X91414035Y-71187560D01*
X91380702Y-71120893D01*
X91347368Y-71087560D01*
X91280702Y-71054226D01*
X90747368Y-71687560D02*
X90714035Y-71720893D01*
X90747368Y-71754226D01*
X90780702Y-71720893D01*
X90747368Y-71687560D01*
X90747368Y-71754226D01*
X90047368Y-71754226D02*
X90447368Y-71754226D01*
X90247368Y-71754226D02*
X90247368Y-71054226D01*
X90314035Y-71154226D01*
X90380702Y-71220893D01*
X90447368Y-71254226D01*
X89447368Y-71287560D02*
X89447368Y-71754226D01*
X89747368Y-71287560D02*
X89747368Y-71654226D01*
X89714035Y-71720893D01*
X89647368Y-71754226D01*
X89547368Y-71754226D01*
X89480702Y-71720893D01*
X89447368Y-71687560D01*
X238811139Y-84715698D02*
X238811139Y-89115698D01*
X241011139Y-89115698D02*
X241011139Y-89215698D01*
X241011139Y-89315698D02*
X241011139Y-89415698D01*
X241011139Y-89215698D02*
X238811139Y-89215698D01*
X241011139Y-89415698D02*
X241011139Y-89115698D01*
X241011139Y-89415698D02*
X238811139Y-89415698D01*
X238811139Y-88915698D02*
X238811139Y-89415698D01*
X238811139Y-89415698D02*
X238811139Y-88915698D01*
X238811139Y-89415698D02*
X241011139Y-89415698D01*
X241011139Y-84715698D02*
X238811139Y-84715698D01*
X238811139Y-89215698D02*
X238811139Y-89315698D01*
X238811139Y-89115698D02*
X241011139Y-89115698D01*
X241011139Y-89115698D02*
X241011139Y-84715698D01*
X238811139Y-89315698D02*
X241011139Y-89315698D01*
X217198619Y-89115698D02*
X217198619Y-89215698D01*
X214998619Y-89115698D02*
X217198619Y-89115698D01*
X217198619Y-89415698D02*
X214998619Y-89415698D01*
X214998619Y-89315698D02*
X217198619Y-89315698D01*
X217198619Y-89215698D02*
X214998619Y-89215698D01*
X214998619Y-89215698D02*
X214998619Y-89315698D01*
X214998619Y-88915698D02*
X214998619Y-89415698D01*
X217198619Y-89315698D02*
X217198619Y-89415698D01*
X217198619Y-89115698D02*
X217198619Y-84715698D01*
X217198619Y-89415698D02*
X217198619Y-89115698D01*
X214998619Y-89415698D02*
X214998619Y-88915698D01*
X214998619Y-89415698D02*
X217198619Y-89415698D01*
X217198619Y-84715698D02*
X214998619Y-84715698D01*
X214998619Y-84715698D02*
X214998619Y-89115698D01*
X211245489Y-89115698D02*
X211245489Y-89215698D01*
X209045489Y-89215698D02*
X209045489Y-89315698D01*
X211245489Y-89415698D02*
X209045489Y-89415698D01*
X209045489Y-84715698D02*
X209045489Y-89115698D01*
X211245489Y-89415698D02*
X211245489Y-89115698D01*
X211245489Y-84715698D02*
X209045489Y-84715698D01*
X209045489Y-89115698D02*
X211245489Y-89115698D01*
X209045489Y-89415698D02*
X209045489Y-88915698D01*
X209045489Y-89315698D02*
X211245489Y-89315698D01*
X209045489Y-88915698D02*
X209045489Y-89415698D01*
X211245489Y-89315698D02*
X211245489Y-89415698D01*
X209045489Y-89415698D02*
X211245489Y-89415698D01*
X211245489Y-89115698D02*
X211245489Y-84715698D01*
X211245489Y-89215698D02*
X209045489Y-89215698D01*
X151714189Y-89115698D02*
X151714189Y-89215698D01*
X151714189Y-89215698D02*
X149514189Y-89215698D01*
X149514189Y-89215698D02*
X149514189Y-89315698D01*
X151714189Y-89115698D02*
X151714189Y-84715698D01*
X151714189Y-89415698D02*
X151714189Y-89115698D01*
X149514189Y-89415698D02*
X151714189Y-89415698D01*
X151714189Y-84715698D02*
X149514189Y-84715698D01*
X149514189Y-89415698D02*
X149514189Y-88915698D01*
X151714189Y-89415698D02*
X149514189Y-89415698D01*
X149514189Y-84715698D02*
X149514189Y-89115698D01*
X149514189Y-88915698D02*
X149514189Y-89415698D01*
X151714189Y-89315698D02*
X151714189Y-89415698D01*
X149514189Y-89115698D02*
X151714189Y-89115698D01*
X149514189Y-89315698D02*
X151714189Y-89315698D01*
X68551621Y-89415698D02*
X68551621Y-88915698D01*
X68551621Y-84715698D02*
X68551621Y-89115698D01*
X70751621Y-89315698D02*
X70751621Y-89415698D01*
X70751621Y-89115698D02*
X70751621Y-89215698D01*
X68551621Y-89415698D02*
X70751621Y-89415698D01*
X70751621Y-89415698D02*
X68551621Y-89415698D01*
X70751621Y-89115698D02*
X70751621Y-84715698D01*
X68551621Y-88915698D02*
X68551621Y-89415698D01*
X70751621Y-84715698D02*
X68551621Y-84715698D01*
X68551621Y-89115698D02*
X70751621Y-89115698D01*
X68551621Y-89315698D02*
X70751621Y-89315698D01*
X70751621Y-89415698D02*
X70751621Y-89115698D01*
X68551621Y-89215698D02*
X68551621Y-89315698D01*
X70751621Y-89215698D02*
X68551621Y-89215698D01*
X269586163Y-70365682D02*
X269586163Y-70065682D01*
X269586163Y-70065682D02*
X269586163Y-70165682D01*
X267386163Y-70265682D02*
X269586163Y-70265682D01*
X267386163Y-69865682D02*
X267386163Y-70365682D01*
X267386163Y-70065682D02*
X269586163Y-70065682D01*
X267386163Y-65665682D02*
X267386163Y-70065682D01*
X267386163Y-70365682D02*
X267386163Y-69865682D01*
X269586163Y-65665682D02*
X267386163Y-65665682D01*
X269586163Y-70265682D02*
X269586163Y-70365682D01*
X269586163Y-70065682D02*
X269586163Y-65665682D01*
X269586163Y-70165682D02*
X267386163Y-70165682D01*
X269586163Y-70365682D02*
X267386163Y-70365682D01*
X267386163Y-70365682D02*
X269586163Y-70365682D01*
X267386163Y-70165682D02*
X267386163Y-70265682D01*
X241192391Y-70165682D02*
X241192391Y-70265682D01*
X241192391Y-70265682D02*
X243392391Y-70265682D01*
X243392391Y-70065682D02*
X243392391Y-70165682D01*
X241192391Y-70065682D02*
X243392391Y-70065682D01*
X243392391Y-65665682D02*
X241192391Y-65665682D01*
X241192391Y-65665682D02*
X241192391Y-70065682D01*
X241192391Y-70365682D02*
X243392391Y-70365682D01*
X243392391Y-70365682D02*
X241192391Y-70365682D01*
X241192391Y-69865682D02*
X241192391Y-70365682D01*
X243392391Y-70065682D02*
X243392391Y-65665682D01*
X243392391Y-70365682D02*
X243392391Y-70065682D01*
X243392391Y-70265682D02*
X243392391Y-70365682D01*
X243392391Y-70165682D02*
X241192391Y-70165682D01*
X241192391Y-70365682D02*
X241192391Y-69865682D01*
X217198619Y-70165682D02*
X214998619Y-70165682D01*
X214998619Y-70365682D02*
X214998619Y-69865682D01*
X214998619Y-70065682D02*
X217198619Y-70065682D01*
X214998619Y-69865682D02*
X214998619Y-70365682D01*
X214998619Y-65665682D02*
X214998619Y-70065682D01*
X214998619Y-70365682D02*
X217198619Y-70365682D01*
X214998619Y-70165682D02*
X214998619Y-70265682D01*
X214998619Y-70265682D02*
X217198619Y-70265682D01*
X217198619Y-70365682D02*
X214998619Y-70365682D01*
X217198619Y-70265682D02*
X217198619Y-70365682D01*
X217198619Y-70065682D02*
X217198619Y-70165682D01*
X217198619Y-65665682D02*
X214998619Y-65665682D01*
X217198619Y-70065682D02*
X217198619Y-65665682D01*
X217198619Y-70365682D02*
X217198619Y-70065682D01*
X198148603Y-65665682D02*
X195948603Y-65665682D01*
X198148603Y-70365682D02*
X195948603Y-70365682D01*
X195948603Y-65665682D02*
X195948603Y-70065682D01*
X195948603Y-70165682D02*
X195948603Y-70265682D01*
X198148603Y-70365682D02*
X198148603Y-70065682D01*
X198148603Y-70165682D02*
X195948603Y-70165682D01*
X195948603Y-69865682D02*
X195948603Y-70365682D01*
X195948603Y-70365682D02*
X198148603Y-70365682D01*
X195948603Y-70265682D02*
X198148603Y-70265682D01*
X195948603Y-70365682D02*
X195948603Y-69865682D01*
X198148603Y-70265682D02*
X198148603Y-70365682D01*
X198148603Y-70065682D02*
X198148603Y-70165682D01*
X195948603Y-70065682D02*
X198148603Y-70065682D01*
X198148603Y-70065682D02*
X198148603Y-65665682D01*
X140998555Y-70365682D02*
X140998555Y-70065682D01*
X138798555Y-70365682D02*
X138798555Y-69865682D01*
X140998555Y-70265682D02*
X140998555Y-70365682D01*
X138798555Y-65665682D02*
X138798555Y-70065682D01*
X138798555Y-70265682D02*
X140998555Y-70265682D01*
X140998555Y-70365682D02*
X138798555Y-70365682D01*
X140998555Y-65665682D02*
X138798555Y-65665682D01*
X138798555Y-70165682D02*
X138798555Y-70265682D01*
X138798555Y-70065682D02*
X140998555Y-70065682D01*
X138798555Y-70365682D02*
X140998555Y-70365682D01*
X140998555Y-70065682D02*
X140998555Y-65665682D01*
X140998555Y-70065682D02*
X140998555Y-70165682D01*
X138798555Y-69865682D02*
X138798555Y-70365682D01*
X140998555Y-70165682D02*
X138798555Y-70165682D01*
X100698523Y-69865682D02*
X100698523Y-70365682D01*
X102898523Y-70365682D02*
X102898523Y-70065682D01*
X100698523Y-70065682D02*
X102898523Y-70065682D01*
X102898523Y-65665682D02*
X100698523Y-65665682D01*
X100698523Y-70365682D02*
X100698523Y-69865682D01*
X100698523Y-70265682D02*
X102898523Y-70265682D01*
X102898523Y-70165682D02*
X100698523Y-70165682D01*
X102898523Y-70265682D02*
X102898523Y-70365682D01*
X102898523Y-70365682D02*
X100698523Y-70365682D01*
X100698523Y-65665682D02*
X100698523Y-70065682D01*
X100698523Y-70365682D02*
X102898523Y-70365682D01*
X100698523Y-70165682D02*
X100698523Y-70265682D01*
X102898523Y-70065682D02*
X102898523Y-70165682D01*
X102898523Y-70065682D02*
X102898523Y-65665682D01*
X81648507Y-70165682D02*
X81648507Y-70265682D01*
X83848507Y-65665682D02*
X81648507Y-65665682D01*
X81648507Y-70365682D02*
X83848507Y-70365682D01*
X81648507Y-69865682D02*
X81648507Y-70365682D01*
X83848507Y-70065682D02*
X83848507Y-70165682D01*
X83848507Y-70365682D02*
X83848507Y-70065682D01*
X83848507Y-70265682D02*
X83848507Y-70365682D01*
X81648507Y-65665682D02*
X81648507Y-70065682D01*
X83848507Y-70165682D02*
X81648507Y-70165682D01*
X81648507Y-70265682D02*
X83848507Y-70265682D01*
X83848507Y-70065682D02*
X83848507Y-65665682D01*
X81648507Y-70065682D02*
X83848507Y-70065682D01*
X81648507Y-70365682D02*
X81648507Y-69865682D01*
X83848507Y-70365682D02*
X81648507Y-70365682D01*
X219761123Y-31765650D02*
X219761123Y-32265650D01*
X221961123Y-32165650D02*
X221961123Y-32265650D01*
X219761123Y-32065650D02*
X219761123Y-32165650D01*
X219761123Y-32265650D02*
X219761123Y-31765650D01*
X221961123Y-27565650D02*
X219761123Y-27565650D01*
X219761123Y-32165650D02*
X221961123Y-32165650D01*
X221961123Y-31965650D02*
X221961123Y-32065650D01*
X219761123Y-31965650D02*
X221961123Y-31965650D01*
X219761123Y-27565650D02*
X219761123Y-31965650D01*
X221961123Y-31965650D02*
X221961123Y-27565650D01*
X219761123Y-32265650D02*
X221961123Y-32265650D01*
X221961123Y-32265650D02*
X219761123Y-32265650D01*
X221961123Y-32265650D02*
X221961123Y-31965650D01*
X221961123Y-32065650D02*
X219761123Y-32065650D01*
X224523627Y-51315666D02*
X226723627Y-51315666D01*
X224523627Y-51015666D02*
X226723627Y-51015666D01*
X226723627Y-51315666D02*
X224523627Y-51315666D01*
X226723627Y-51015666D02*
X226723627Y-51115666D01*
X224523627Y-51215666D02*
X226723627Y-51215666D01*
X226723627Y-51015666D02*
X226723627Y-46615666D01*
X224523627Y-46615666D02*
X224523627Y-51015666D01*
X226723627Y-51315666D02*
X226723627Y-51015666D01*
X226723627Y-51215666D02*
X226723627Y-51315666D01*
X224523627Y-50815666D02*
X224523627Y-51315666D01*
X224523627Y-51115666D02*
X224523627Y-51215666D01*
X226723627Y-51115666D02*
X224523627Y-51115666D01*
X226723627Y-46615666D02*
X224523627Y-46615666D01*
X224523627Y-51315666D02*
X224523627Y-50815666D01*
X48310979Y-32065650D02*
X48310979Y-32165650D01*
X48310979Y-31965650D02*
X50510979Y-31965650D01*
X50510979Y-32265650D02*
X48310979Y-32265650D01*
X48310979Y-32265650D02*
X48310979Y-31765650D01*
X50510979Y-31965650D02*
X50510979Y-32065650D01*
X48310979Y-27565650D02*
X48310979Y-31965650D01*
X48310979Y-31765650D02*
X48310979Y-32265650D01*
X50510979Y-32165650D02*
X50510979Y-32265650D01*
X50510979Y-31965650D02*
X50510979Y-27565650D01*
X50510979Y-32065650D02*
X48310979Y-32065650D01*
X50510979Y-27565650D02*
X48310979Y-27565650D01*
X48310979Y-32165650D02*
X50510979Y-32165650D01*
X50510979Y-32265650D02*
X50510979Y-31965650D01*
X48310979Y-32265650D02*
X50510979Y-32265650D01*
X181661091Y-32065650D02*
X181661091Y-32165650D01*
X183861091Y-32065650D02*
X181661091Y-32065650D01*
X183861091Y-31965650D02*
X183861091Y-27565650D01*
X181661091Y-27565650D02*
X181661091Y-31965650D01*
X183861091Y-32265650D02*
X183861091Y-31965650D01*
X181661091Y-31965650D02*
X183861091Y-31965650D01*
X181661091Y-31765650D02*
X181661091Y-32265650D01*
X183861091Y-32265650D02*
X181661091Y-32265650D01*
X181661091Y-32265650D02*
X181661091Y-31765650D01*
X181661091Y-32165650D02*
X183861091Y-32165650D01*
X183861091Y-32165650D02*
X183861091Y-32265650D01*
X183861091Y-27565650D02*
X181661091Y-27565650D01*
X181661091Y-32265650D02*
X183861091Y-32265650D01*
X183861091Y-31965650D02*
X183861091Y-32065650D01*
X207673611Y-51315666D02*
X205473611Y-51315666D01*
X205473611Y-51315666D02*
X207673611Y-51315666D01*
X207673611Y-46615666D02*
X205473611Y-46615666D01*
X205473611Y-50815666D02*
X205473611Y-51315666D01*
X207673611Y-51015666D02*
X207673611Y-51115666D01*
X207673611Y-51015666D02*
X207673611Y-46615666D01*
X205473611Y-51015666D02*
X207673611Y-51015666D01*
X205473611Y-51315666D02*
X205473611Y-50815666D01*
X205473611Y-51115666D02*
X205473611Y-51215666D01*
X207673611Y-51115666D02*
X205473611Y-51115666D01*
X207673611Y-51215666D02*
X207673611Y-51315666D01*
X205473611Y-46615666D02*
X205473611Y-51015666D01*
X205473611Y-51215666D02*
X207673611Y-51215666D01*
X207673611Y-51315666D02*
X207673611Y-51015666D01*
X112423531Y-51015666D02*
X112423531Y-51115666D01*
X112423531Y-51015666D02*
X112423531Y-46615666D01*
X110223531Y-46615666D02*
X110223531Y-51015666D01*
X112423531Y-51315666D02*
X110223531Y-51315666D01*
X112423531Y-51315666D02*
X112423531Y-51015666D01*
X110223531Y-50815666D02*
X110223531Y-51315666D01*
X110223531Y-51015666D02*
X112423531Y-51015666D01*
X110223531Y-51215666D02*
X112423531Y-51215666D01*
X112423531Y-51215666D02*
X112423531Y-51315666D01*
X112423531Y-46615666D02*
X110223531Y-46615666D01*
X110223531Y-51315666D02*
X110223531Y-50815666D01*
X110223531Y-51115666D02*
X110223531Y-51215666D01*
X112423531Y-51115666D02*
X110223531Y-51115666D01*
X110223531Y-51315666D02*
X112423531Y-51315666D01*
X23307833Y-51115666D02*
X23307833Y-51215666D01*
X23307833Y-51015666D02*
X25507833Y-51015666D01*
X25507833Y-51315666D02*
X25507833Y-51015666D01*
X25507833Y-51015666D02*
X25507833Y-51115666D01*
X25507833Y-51215666D02*
X25507833Y-51315666D01*
X23307833Y-51315666D02*
X25507833Y-51315666D01*
X25507833Y-51315666D02*
X23307833Y-51315666D01*
X23307833Y-46615666D02*
X23307833Y-51015666D01*
X23307833Y-50815666D02*
X23307833Y-51315666D01*
X23307833Y-51215666D02*
X25507833Y-51215666D01*
X25507833Y-51115666D02*
X23307833Y-51115666D01*
X23307833Y-51315666D02*
X23307833Y-50815666D01*
X25507833Y-46615666D02*
X23307833Y-46615666D01*
X25507833Y-51015666D02*
X25507833Y-46615666D01*
X188623595Y-51015666D02*
X188623595Y-51115666D01*
X186423595Y-51015666D02*
X188623595Y-51015666D01*
X188623595Y-51315666D02*
X188623595Y-51015666D01*
X188623595Y-46615666D02*
X186423595Y-46615666D01*
X186423595Y-51315666D02*
X186423595Y-50815666D01*
X186423595Y-51215666D02*
X188623595Y-51215666D01*
X186423595Y-46615666D02*
X186423595Y-51015666D01*
X186423595Y-50815666D02*
X186423595Y-51315666D01*
X188623595Y-51115666D02*
X186423595Y-51115666D01*
X186423595Y-51115666D02*
X186423595Y-51215666D01*
X188623595Y-51215666D02*
X188623595Y-51315666D01*
X186423595Y-51315666D02*
X188623595Y-51315666D01*
X188623595Y-51015666D02*
X188623595Y-46615666D01*
X188623595Y-51315666D02*
X186423595Y-51315666D01*
X144751685Y-51215666D02*
X146951685Y-51215666D01*
X146951685Y-46615666D02*
X144751685Y-46615666D01*
X146951685Y-51115666D02*
X144751685Y-51115666D01*
X146951685Y-51015666D02*
X146951685Y-51115666D01*
X144751685Y-50815666D02*
X144751685Y-51315666D01*
X144751685Y-51015666D02*
X146951685Y-51015666D01*
X146951685Y-51215666D02*
X146951685Y-51315666D01*
X144751685Y-51115666D02*
X144751685Y-51215666D01*
X144751685Y-51315666D02*
X144751685Y-50815666D01*
X146951685Y-51015666D02*
X146951685Y-46615666D01*
X144751685Y-46615666D02*
X144751685Y-51015666D01*
X146951685Y-51315666D02*
X144751685Y-51315666D01*
X146951685Y-51315666D02*
X146951685Y-51015666D01*
X144751685Y-51315666D02*
X146951685Y-51315666D01*
X49501605Y-46615666D02*
X49501605Y-51015666D01*
X51701605Y-51015666D02*
X51701605Y-46615666D01*
X51701605Y-51115666D02*
X49501605Y-51115666D01*
X51701605Y-51315666D02*
X51701605Y-51015666D01*
X51701605Y-51215666D02*
X51701605Y-51315666D01*
X49501605Y-51315666D02*
X49501605Y-50815666D01*
X51701605Y-51315666D02*
X49501605Y-51315666D01*
X49501605Y-51215666D02*
X51701605Y-51215666D01*
X49501605Y-50815666D02*
X49501605Y-51315666D01*
X49501605Y-51015666D02*
X51701605Y-51015666D01*
X51701605Y-46615666D02*
X49501605Y-46615666D01*
X49501605Y-51115666D02*
X49501605Y-51215666D01*
X49501605Y-51315666D02*
X51701605Y-51315666D01*
X51701605Y-51015666D02*
X51701605Y-51115666D01*
X72123499Y-51115666D02*
X72123499Y-51215666D01*
X74323499Y-51315666D02*
X74323499Y-51015666D01*
X72123499Y-50815666D02*
X72123499Y-51315666D01*
X74323499Y-51115666D02*
X72123499Y-51115666D01*
X74323499Y-46615666D02*
X72123499Y-46615666D01*
X72123499Y-51315666D02*
X74323499Y-51315666D01*
X72123499Y-51315666D02*
X72123499Y-50815666D01*
X72123499Y-46615666D02*
X72123499Y-51015666D01*
X74323499Y-51215666D02*
X74323499Y-51315666D01*
X74323499Y-51015666D02*
X74323499Y-46615666D01*
X74323499Y-51015666D02*
X74323499Y-51115666D01*
X72123499Y-51215666D02*
X74323499Y-51215666D01*
X74323499Y-51315666D02*
X72123499Y-51315666D01*
X72123499Y-51015666D02*
X74323499Y-51015666D01*
X105461027Y-27565650D02*
X105461027Y-31965650D01*
X105461027Y-32265650D02*
X107661027Y-32265650D01*
X105461027Y-32265650D02*
X105461027Y-31765650D01*
X105461027Y-32065650D02*
X105461027Y-32165650D01*
X107661027Y-31965650D02*
X107661027Y-27565650D01*
X107661027Y-32265650D02*
X107661027Y-31965650D01*
X107661027Y-32065650D02*
X105461027Y-32065650D01*
X107661027Y-32265650D02*
X105461027Y-32265650D01*
X105461027Y-32165650D02*
X107661027Y-32165650D01*
X107661027Y-31965650D02*
X107661027Y-32065650D01*
X105461027Y-31765650D02*
X105461027Y-32265650D01*
X105461027Y-31965650D02*
X107661027Y-31965650D01*
X107661027Y-27565650D02*
X105461027Y-27565650D01*
X107661027Y-32165650D02*
X107661027Y-32265650D01*
X202911107Y-32065650D02*
X200711107Y-32065650D01*
X200711107Y-27565650D02*
X200711107Y-31965650D01*
X200711107Y-31765650D02*
X200711107Y-32265650D01*
X202911107Y-32265650D02*
X200711107Y-32265650D01*
X202911107Y-31965650D02*
X202911107Y-27565650D01*
X202911107Y-32265650D02*
X202911107Y-31965650D01*
X202911107Y-31965650D02*
X202911107Y-32065650D01*
X200711107Y-31965650D02*
X202911107Y-31965650D01*
X200711107Y-32165650D02*
X202911107Y-32165650D01*
X200711107Y-32265650D02*
X202911107Y-32265650D01*
X200711107Y-32265650D02*
X200711107Y-31765650D01*
X202911107Y-27565650D02*
X200711107Y-27565650D01*
X200711107Y-32065650D02*
X200711107Y-32165650D01*
X202911107Y-32165650D02*
X202911107Y-32265650D01*
X126711043Y-32165650D02*
X126711043Y-32265650D01*
X124511043Y-32265650D02*
X126711043Y-32265650D01*
X126711043Y-32065650D02*
X124511043Y-32065650D01*
X124511043Y-32065650D02*
X124511043Y-32165650D01*
X124511043Y-27565650D02*
X124511043Y-31965650D01*
X124511043Y-32165650D02*
X126711043Y-32165650D01*
X126711043Y-31965650D02*
X126711043Y-27565650D01*
X124511043Y-31765650D02*
X124511043Y-32265650D01*
X124511043Y-31965650D02*
X126711043Y-31965650D01*
X126711043Y-27565650D02*
X124511043Y-27565650D01*
X126711043Y-32265650D02*
X126711043Y-31965650D01*
X126711043Y-32265650D02*
X124511043Y-32265650D01*
X124511043Y-32265650D02*
X124511043Y-31765650D01*
X126711043Y-31965650D02*
X126711043Y-32065650D01*
X164811075Y-31965650D02*
X164811075Y-32065650D01*
X162611075Y-32165650D02*
X164811075Y-32165650D01*
X164811075Y-27565650D02*
X162611075Y-27565650D01*
X164811075Y-31965650D02*
X164811075Y-27565650D01*
X162611075Y-27565650D02*
X162611075Y-31965650D01*
X162611075Y-32265650D02*
X164811075Y-32265650D01*
X164811075Y-32165650D02*
X164811075Y-32265650D01*
X162611075Y-31965650D02*
X164811075Y-31965650D01*
X164811075Y-32265650D02*
X162611075Y-32265650D01*
X164811075Y-32065650D02*
X162611075Y-32065650D01*
X162611075Y-32265650D02*
X162611075Y-31765650D01*
X164811075Y-32265650D02*
X164811075Y-31965650D01*
X162611075Y-31765650D02*
X162611075Y-32265650D01*
X162611075Y-32065650D02*
X162611075Y-32165650D01*
X245773643Y-51015666D02*
X245773643Y-51115666D01*
X243573643Y-51015666D02*
X245773643Y-51015666D01*
X245773643Y-51215666D02*
X245773643Y-51315666D01*
X243573643Y-51215666D02*
X245773643Y-51215666D01*
X243573643Y-46615666D02*
X243573643Y-51015666D01*
X243573643Y-51115666D02*
X243573643Y-51215666D01*
X243573643Y-50815666D02*
X243573643Y-51315666D01*
X245773643Y-51315666D02*
X245773643Y-51015666D01*
X243573643Y-51315666D02*
X243573643Y-50815666D01*
X245773643Y-51315666D02*
X243573643Y-51315666D01*
X245773643Y-46615666D02*
X243573643Y-46615666D01*
X245773643Y-51115666D02*
X243573643Y-51115666D01*
X243573643Y-51315666D02*
X245773643Y-51315666D01*
X245773643Y-51015666D02*
X245773643Y-46615666D01*
X150523563Y-51215666D02*
X150523563Y-51315666D01*
X148323563Y-51315666D02*
X148323563Y-50815666D01*
X150523563Y-51115666D02*
X148323563Y-51115666D01*
X148323563Y-51215666D02*
X150523563Y-51215666D01*
X150523563Y-51015666D02*
X150523563Y-46615666D01*
X150523563Y-51015666D02*
X150523563Y-51115666D01*
X150523563Y-51315666D02*
X150523563Y-51015666D01*
X148323563Y-51115666D02*
X148323563Y-51215666D01*
X148323563Y-50815666D02*
X148323563Y-51315666D01*
X148323563Y-51315666D02*
X150523563Y-51315666D01*
X148323563Y-51015666D02*
X150523563Y-51015666D01*
X148323563Y-46615666D02*
X148323563Y-51015666D01*
X150523563Y-51315666D02*
X148323563Y-51315666D01*
X150523563Y-46615666D02*
X148323563Y-46615666D01*
X93373515Y-51315666D02*
X91173515Y-51315666D01*
X91173515Y-46615666D02*
X91173515Y-51015666D01*
X93373515Y-51015666D02*
X93373515Y-51115666D01*
X93373515Y-51215666D02*
X93373515Y-51315666D01*
X91173515Y-51315666D02*
X91173515Y-50815666D01*
X91173515Y-50815666D02*
X91173515Y-51315666D01*
X93373515Y-51315666D02*
X93373515Y-51015666D01*
X93373515Y-46615666D02*
X91173515Y-46615666D01*
X91173515Y-51115666D02*
X91173515Y-51215666D01*
X91173515Y-51215666D02*
X93373515Y-51215666D01*
X93373515Y-51015666D02*
X93373515Y-46615666D01*
X91173515Y-51315666D02*
X93373515Y-51315666D01*
X91173515Y-51015666D02*
X93373515Y-51015666D01*
X93373515Y-51115666D02*
X91173515Y-51115666D01*
X61226613Y-65665682D02*
X59026613Y-65665682D01*
X61226613Y-70165682D02*
X59026613Y-70165682D01*
X59026613Y-70065682D02*
X61226613Y-70065682D01*
X61226613Y-70365682D02*
X59026613Y-70365682D01*
X59026613Y-65665682D02*
X59026613Y-70065682D01*
X61226613Y-70065682D02*
X61226613Y-65665682D01*
X59026613Y-70365682D02*
X59026613Y-69865682D01*
X61226613Y-70365682D02*
X61226613Y-70065682D01*
X61226613Y-70065682D02*
X61226613Y-70165682D01*
X59026613Y-69865682D02*
X59026613Y-70365682D01*
X59026613Y-70365682D02*
X61226613Y-70365682D01*
X59026613Y-70165682D02*
X59026613Y-70265682D01*
X61226613Y-70265682D02*
X61226613Y-70365682D01*
X59026613Y-70265682D02*
X61226613Y-70265682D01*
X157848571Y-70365682D02*
X160048571Y-70365682D01*
X160048571Y-70365682D02*
X160048571Y-70065682D01*
X157848571Y-70265682D02*
X160048571Y-70265682D01*
X160048571Y-70165682D02*
X157848571Y-70165682D01*
X160048571Y-70065682D02*
X160048571Y-70165682D01*
X157848571Y-65665682D02*
X157848571Y-70065682D01*
X160048571Y-70365682D02*
X157848571Y-70365682D01*
X157848571Y-69865682D02*
X157848571Y-70365682D01*
X160048571Y-65665682D02*
X157848571Y-65665682D01*
X160048571Y-70265682D02*
X160048571Y-70365682D01*
X157848571Y-70365682D02*
X157848571Y-69865682D01*
X157848571Y-70165682D02*
X157848571Y-70265682D01*
X160048571Y-70065682D02*
X160048571Y-65665682D01*
X157848571Y-70065682D02*
X160048571Y-70065682D01*
X273158041Y-51015666D02*
X273158041Y-51115666D01*
X270958041Y-51315666D02*
X273158041Y-51315666D01*
X273158041Y-51015666D02*
X273158041Y-46615666D01*
X270958041Y-51015666D02*
X273158041Y-51015666D01*
X273158041Y-51215666D02*
X273158041Y-51315666D01*
X273158041Y-51315666D02*
X273158041Y-51015666D01*
X273158041Y-46615666D02*
X270958041Y-46615666D01*
X270958041Y-51315666D02*
X270958041Y-50815666D01*
X270958041Y-51115666D02*
X270958041Y-51215666D01*
X273158041Y-51115666D02*
X270958041Y-51115666D01*
X273158041Y-51315666D02*
X270958041Y-51315666D01*
X270958041Y-46615666D02*
X270958041Y-51015666D01*
X270958041Y-51215666D02*
X273158041Y-51215666D01*
X270958041Y-50815666D02*
X270958041Y-51315666D01*
X50692231Y-89315698D02*
X52892231Y-89315698D01*
X52892231Y-89315698D02*
X52892231Y-89415698D01*
X50692231Y-88915698D02*
X50692231Y-89415698D01*
X50692231Y-89415698D02*
X52892231Y-89415698D01*
X50692231Y-89115698D02*
X52892231Y-89115698D01*
X52892231Y-89115698D02*
X52892231Y-84715698D01*
X52892231Y-89415698D02*
X52892231Y-89115698D01*
X50692231Y-89415698D02*
X50692231Y-88915698D01*
X52892231Y-84715698D02*
X50692231Y-84715698D01*
X52892231Y-89215698D02*
X50692231Y-89215698D01*
X50692231Y-89215698D02*
X50692231Y-89315698D01*
X50692231Y-84715698D02*
X50692231Y-89115698D01*
X52892231Y-89415698D02*
X50692231Y-89415698D01*
X52892231Y-89115698D02*
X52892231Y-89215698D01*
X169573579Y-51215666D02*
X169573579Y-51315666D01*
X167373579Y-51215666D02*
X169573579Y-51215666D01*
X167373579Y-46615666D02*
X167373579Y-51015666D01*
X169573579Y-51115666D02*
X167373579Y-51115666D01*
X169573579Y-51015666D02*
X169573579Y-46615666D01*
X169573579Y-51015666D02*
X169573579Y-51115666D01*
X167373579Y-51015666D02*
X169573579Y-51015666D01*
X167373579Y-51115666D02*
X167373579Y-51215666D01*
X169573579Y-51315666D02*
X167373579Y-51315666D01*
X167373579Y-50815666D02*
X167373579Y-51315666D01*
X169573579Y-46615666D02*
X167373579Y-46615666D01*
X169573579Y-51315666D02*
X169573579Y-51015666D01*
X167373579Y-51315666D02*
X167373579Y-50815666D01*
X167373579Y-51315666D02*
X169573579Y-51315666D01*
X88611011Y-32165650D02*
X88611011Y-32265650D01*
X88611011Y-32265650D02*
X88611011Y-31965650D01*
X86411011Y-32265650D02*
X88611011Y-32265650D01*
X86411011Y-32165650D02*
X88611011Y-32165650D01*
X86411011Y-31765650D02*
X86411011Y-32265650D01*
X86411011Y-27565650D02*
X86411011Y-31965650D01*
X88611011Y-31965650D02*
X88611011Y-32065650D01*
X86411011Y-32265650D02*
X86411011Y-31765650D01*
X88611011Y-32265650D02*
X86411011Y-32265650D01*
X88611011Y-31965650D02*
X88611011Y-27565650D01*
X86411011Y-32065650D02*
X86411011Y-32165650D01*
X86411011Y-31965650D02*
X88611011Y-31965650D01*
X88611011Y-27565650D02*
X86411011Y-27565650D01*
X88611011Y-32065650D02*
X86411011Y-32065650D01*
X241011139Y-32165650D02*
X241011139Y-32265650D01*
X238811139Y-32265650D02*
X238811139Y-31765650D01*
X241011139Y-31965650D02*
X241011139Y-32065650D01*
X238811139Y-32165650D02*
X241011139Y-32165650D01*
X238811139Y-32265650D02*
X241011139Y-32265650D01*
X238811139Y-32065650D02*
X238811139Y-32165650D01*
X241011139Y-32265650D02*
X241011139Y-31965650D01*
X241011139Y-31965650D02*
X241011139Y-27565650D01*
X241011139Y-32065650D02*
X238811139Y-32065650D01*
X241011139Y-32265650D02*
X238811139Y-32265650D01*
X238811139Y-31965650D02*
X241011139Y-31965650D01*
X241011139Y-27565650D02*
X238811139Y-27565650D01*
X238811139Y-31765650D02*
X238811139Y-32265650D01*
X238811139Y-27565650D02*
X238811139Y-31965650D01*
X53073483Y-50815666D02*
X53073483Y-51315666D01*
X55273483Y-51015666D02*
X55273483Y-51115666D01*
X55273483Y-51015666D02*
X55273483Y-46615666D01*
X53073483Y-51015666D02*
X55273483Y-51015666D01*
X55273483Y-51315666D02*
X55273483Y-51015666D01*
X53073483Y-51115666D02*
X53073483Y-51215666D01*
X55273483Y-46615666D02*
X53073483Y-46615666D01*
X53073483Y-51215666D02*
X55273483Y-51215666D01*
X55273483Y-51115666D02*
X53073483Y-51115666D01*
X53073483Y-51315666D02*
X53073483Y-50815666D01*
X55273483Y-51315666D02*
X53073483Y-51315666D01*
X55273483Y-51215666D02*
X55273483Y-51315666D01*
X53073483Y-46615666D02*
X53073483Y-51015666D01*
X53073483Y-51315666D02*
X55273483Y-51315666D01*
X143561059Y-32265650D02*
X145761059Y-32265650D01*
X145761059Y-31965650D02*
X145761059Y-32065650D01*
X143561059Y-32165650D02*
X145761059Y-32165650D01*
X145761059Y-32265650D02*
X145761059Y-31965650D01*
X143561059Y-31965650D02*
X145761059Y-31965650D01*
X143561059Y-27565650D02*
X143561059Y-31965650D01*
X145761059Y-32165650D02*
X145761059Y-32265650D01*
X145761059Y-27565650D02*
X143561059Y-27565650D01*
X145761059Y-32265650D02*
X143561059Y-32265650D01*
X143561059Y-32065650D02*
X143561059Y-32165650D01*
X145761059Y-32065650D02*
X143561059Y-32065650D01*
X143561059Y-31765650D02*
X143561059Y-32265650D01*
X145761059Y-31965650D02*
X145761059Y-27565650D01*
X143561059Y-32265650D02*
X143561059Y-31765650D01*
X179098587Y-70265682D02*
X179098587Y-70365682D01*
X176898587Y-65665682D02*
X176898587Y-70065682D01*
X176898587Y-70365682D02*
X179098587Y-70365682D01*
X176898587Y-69865682D02*
X176898587Y-70365682D01*
X176898587Y-70265682D02*
X179098587Y-70265682D01*
X179098587Y-70365682D02*
X179098587Y-70065682D01*
X179098587Y-70065682D02*
X179098587Y-70165682D01*
X179098587Y-70165682D02*
X176898587Y-70165682D01*
X179098587Y-70365682D02*
X176898587Y-70365682D01*
X179098587Y-70065682D02*
X179098587Y-65665682D01*
X176898587Y-70365682D02*
X176898587Y-69865682D01*
X179098587Y-65665682D02*
X176898587Y-65665682D01*
X176898587Y-70165682D02*
X176898587Y-70265682D01*
X176898587Y-70065682D02*
X179098587Y-70065682D01*
X119748539Y-65665682D02*
X119748539Y-70065682D01*
X119748539Y-69865682D02*
X119748539Y-70365682D01*
X121948539Y-70265682D02*
X121948539Y-70365682D01*
X119748539Y-70065682D02*
X121948539Y-70065682D01*
X119748539Y-70365682D02*
X121948539Y-70365682D01*
X121948539Y-70365682D02*
X121948539Y-70065682D01*
X121948539Y-65665682D02*
X119748539Y-65665682D01*
X119748539Y-70365682D02*
X119748539Y-69865682D01*
X121948539Y-70165682D02*
X119748539Y-70165682D01*
X119748539Y-70165682D02*
X119748539Y-70265682D01*
X119748539Y-70265682D02*
X121948539Y-70265682D01*
X121948539Y-70065682D02*
X121948539Y-70165682D01*
X121948539Y-70365682D02*
X119748539Y-70365682D01*
X121948539Y-70065682D02*
X121948539Y-65665682D01*
X67360995Y-32065650D02*
X67360995Y-32165650D01*
X69560995Y-32065650D02*
X67360995Y-32065650D01*
X67360995Y-27565650D02*
X67360995Y-31965650D01*
X67360995Y-31765650D02*
X67360995Y-32265650D01*
X69560995Y-31965650D02*
X69560995Y-32065650D01*
X67360995Y-32265650D02*
X69560995Y-32265650D01*
X67360995Y-32165650D02*
X69560995Y-32165650D01*
X69560995Y-32265650D02*
X69560995Y-31965650D01*
X69560995Y-32265650D02*
X67360995Y-32265650D01*
X69560995Y-27565650D02*
X67360995Y-27565650D01*
X67360995Y-32265650D02*
X67360995Y-31765650D01*
X69560995Y-32165650D02*
X69560995Y-32265650D01*
X69560995Y-31965650D02*
X69560995Y-27565650D01*
X67360995Y-31965650D02*
X69560995Y-31965650D01*
X100790714Y-74596942D02*
X100790714Y-75271942D01*
X100790714Y-84946942D02*
X101465714Y-84946942D01*
X111140714Y-84946942D02*
X111140714Y-84271942D01*
X111140714Y-84946942D02*
X110565714Y-84946942D01*
X111807714Y-85740942D02*
X111807714Y-85613942D01*
X111140714Y-74596942D02*
X111140714Y-75271942D01*
X100790714Y-84946942D02*
X100790714Y-84271942D01*
X111140714Y-74596942D02*
X110465714Y-74596942D01*
X100790714Y-74596942D02*
X101465714Y-74596942D01*
X112209323Y-85613942D02*
G75*
G03*
X112209323Y-85613942I-401609J0D01*
G01*
X112061714Y-85613942D02*
G75*
G03*
X112061714Y-85613942I-254000J0D01*
G01*
X112331348Y-85613942D02*
G75*
G03*
X112331348Y-85613942I-523634J0D01*
G01*
X112091695Y-85613942D02*
G75*
G03*
X112091695Y-85613942I-283981J0D01*
G01*
X111934714Y-85613942D02*
G75*
G03*
X111934714Y-85613942I-127000J0D01*
G01*
D12*
X92859454Y-80826629D02*
X92859454Y-80676629D01*
X92859454Y-80826629D02*
X94859454Y-80826629D01*
X94859454Y-77526629D02*
X92859454Y-77526629D01*
X94859454Y-77326629D02*
X95259454Y-77326629D01*
X95259454Y-80826629D02*
X95259454Y-80676629D01*
X95259454Y-77526629D02*
X95259454Y-77676629D01*
X94859454Y-77526629D02*
X95259454Y-77526629D01*
X94859454Y-80826629D02*
X95259454Y-80826629D01*
X92859454Y-77326629D02*
X94859454Y-77326629D01*
X92859454Y-77526629D02*
X92859454Y-77676629D01*
X32206276Y-44875040D02*
X29706276Y-44875040D01*
X32656276Y-49925040D02*
X32206276Y-50375040D01*
X33706276Y-46625040D02*
X33706276Y-48625040D01*
X32656276Y-45325040D02*
X32206276Y-44875040D01*
X29256276Y-45325040D02*
X29706276Y-44875040D01*
X29256276Y-49925040D02*
X29706276Y-50375040D01*
X28206276Y-46625040D02*
X28206276Y-48625040D01*
X32206276Y-50375040D02*
X29706276Y-50375040D01*
X117876661Y-72343499D02*
X116676661Y-72343499D01*
X116676661Y-74103499D02*
X117876661Y-74103499D01*
D11*
X174336083Y-12915634D02*
X174336083Y-13015634D01*
X174336083Y-12915634D02*
X174336083Y-8515634D01*
X172136083Y-13215634D02*
X174336083Y-13215634D01*
X172136083Y-13115634D02*
X174336083Y-13115634D01*
X174336083Y-13215634D02*
X174336083Y-12915634D01*
X174336083Y-13215634D02*
X172136083Y-13215634D01*
X174336083Y-13115634D02*
X174336083Y-13215634D01*
X172136083Y-8515634D02*
X172136083Y-12915634D01*
X172136083Y-13215634D02*
X172136083Y-12715634D01*
X174336083Y-13015634D02*
X172136083Y-13015634D01*
X172136083Y-12715634D02*
X172136083Y-13215634D01*
X172136083Y-12915634D02*
X174336083Y-12915634D01*
X174336083Y-8515634D02*
X172136083Y-8515634D01*
X172136083Y-13015634D02*
X172136083Y-13115634D01*
X248336147Y-13215634D02*
X248336147Y-12715634D01*
X250536147Y-13115634D02*
X250536147Y-13215634D01*
X250536147Y-13215634D02*
X248336147Y-13215634D01*
X248336147Y-8515634D02*
X248336147Y-12915634D01*
X248336147Y-13115634D02*
X250536147Y-13115634D01*
X250536147Y-12915634D02*
X250536147Y-8515634D01*
X248336147Y-12715634D02*
X248336147Y-13215634D01*
X250536147Y-12915634D02*
X250536147Y-13015634D01*
X248336147Y-12915634D02*
X250536147Y-12915634D01*
X250536147Y-8515634D02*
X248336147Y-8515634D01*
X250536147Y-13015634D02*
X248336147Y-13015634D01*
X248336147Y-13015634D02*
X248336147Y-13115634D01*
X248336147Y-13215634D02*
X250536147Y-13215634D01*
X250536147Y-13215634D02*
X250536147Y-12915634D01*
X153086067Y-8515634D02*
X153086067Y-12915634D01*
X155286067Y-12915634D02*
X155286067Y-13015634D01*
X153086067Y-13215634D02*
X155286067Y-13215634D01*
X155286067Y-13215634D02*
X155286067Y-12915634D01*
X153086067Y-13115634D02*
X155286067Y-13115634D01*
X155286067Y-13215634D02*
X153086067Y-13215634D01*
X153086067Y-13215634D02*
X153086067Y-12715634D01*
X153086067Y-12915634D02*
X155286067Y-12915634D01*
X155286067Y-8515634D02*
X153086067Y-8515634D01*
X155286067Y-13115634D02*
X155286067Y-13215634D01*
X155286067Y-13015634D02*
X153086067Y-13015634D01*
X153086067Y-12715634D02*
X153086067Y-13215634D01*
X155286067Y-12915634D02*
X155286067Y-8515634D01*
X153086067Y-13015634D02*
X153086067Y-13115634D01*
X231486131Y-13115634D02*
X231486131Y-13215634D01*
X231486131Y-12915634D02*
X231486131Y-8515634D01*
X231486131Y-13215634D02*
X229286131Y-13215634D01*
X231486131Y-13215634D02*
X231486131Y-12915634D01*
X229286131Y-13215634D02*
X231486131Y-13215634D01*
X229286131Y-13215634D02*
X229286131Y-12715634D01*
X229286131Y-8515634D02*
X229286131Y-12915634D01*
X231486131Y-8515634D02*
X229286131Y-8515634D01*
X229286131Y-12915634D02*
X231486131Y-12915634D01*
X231486131Y-12915634D02*
X231486131Y-13015634D01*
X231486131Y-13015634D02*
X229286131Y-13015634D01*
X229286131Y-12715634D02*
X229286131Y-13215634D01*
X229286131Y-13115634D02*
X231486131Y-13115634D01*
X229286131Y-13015634D02*
X229286131Y-13115634D01*
X191186099Y-12915634D02*
X193386099Y-12915634D01*
X191186099Y-12715634D02*
X191186099Y-13215634D01*
X191186099Y-13215634D02*
X191186099Y-12715634D01*
X193386099Y-13215634D02*
X191186099Y-13215634D01*
X193386099Y-13215634D02*
X193386099Y-12915634D01*
X193386099Y-12915634D02*
X193386099Y-8515634D01*
X191186099Y-8515634D02*
X191186099Y-12915634D01*
X193386099Y-13115634D02*
X193386099Y-13215634D01*
X191186099Y-13115634D02*
X193386099Y-13115634D01*
X191186099Y-13215634D02*
X193386099Y-13215634D01*
X191186099Y-13015634D02*
X191186099Y-13115634D01*
X193386099Y-12915634D02*
X193386099Y-13015634D01*
X193386099Y-13015634D02*
X191186099Y-13015634D01*
X193386099Y-8515634D02*
X191186099Y-8515634D01*
X244764269Y-13215634D02*
X244764269Y-12715634D01*
X246964269Y-8515634D02*
X244764269Y-8515634D01*
X246964269Y-13215634D02*
X244764269Y-13215634D01*
X244764269Y-12915634D02*
X246964269Y-12915634D01*
X246964269Y-13115634D02*
X246964269Y-13215634D01*
X244764269Y-13115634D02*
X246964269Y-13115634D01*
X246964269Y-12915634D02*
X246964269Y-13015634D01*
X244764269Y-12715634D02*
X244764269Y-13215634D01*
X244764269Y-8515634D02*
X244764269Y-12915634D01*
X246964269Y-12915634D02*
X246964269Y-8515634D01*
X246964269Y-13215634D02*
X246964269Y-12915634D01*
X246964269Y-13015634D02*
X244764269Y-13015634D01*
X244764269Y-13215634D02*
X246964269Y-13215634D01*
X244764269Y-13015634D02*
X244764269Y-13115634D01*
X44739101Y-32265650D02*
X44739101Y-31765650D01*
X44739101Y-27565650D02*
X44739101Y-31965650D01*
X44739101Y-32065650D02*
X44739101Y-32165650D01*
X44739101Y-31765650D02*
X44739101Y-32265650D01*
X44739101Y-32265650D02*
X46939101Y-32265650D01*
X46939101Y-32265650D02*
X44739101Y-32265650D01*
X46939101Y-32165650D02*
X46939101Y-32265650D01*
X46939101Y-31965650D02*
X46939101Y-27565650D01*
X46939101Y-27565650D02*
X44739101Y-27565650D01*
X46939101Y-32265650D02*
X46939101Y-31965650D01*
X46939101Y-32065650D02*
X44739101Y-32065650D01*
X44739101Y-32165650D02*
X46939101Y-32165650D01*
X44739101Y-31965650D02*
X46939101Y-31965650D01*
X46939101Y-31965650D02*
X46939101Y-32065650D01*
X5448443Y-32065650D02*
X5448443Y-32165650D01*
X5448443Y-31765650D02*
X5448443Y-32265650D01*
X5448443Y-32265650D02*
X7648443Y-32265650D01*
X7648443Y-32265650D02*
X5448443Y-32265650D01*
X7648443Y-27565650D02*
X5448443Y-27565650D01*
X7648443Y-32265650D02*
X7648443Y-31965650D01*
X7648443Y-31965650D02*
X7648443Y-27565650D01*
X5448443Y-27565650D02*
X5448443Y-31965650D01*
X5448443Y-31965650D02*
X7648443Y-31965650D01*
X7648443Y-32065650D02*
X5448443Y-32065650D01*
X5448443Y-32165650D02*
X7648443Y-32165650D01*
X5448443Y-32265650D02*
X5448443Y-31765650D01*
X7648443Y-32165650D02*
X7648443Y-32265650D01*
X7648443Y-31965650D02*
X7648443Y-32065650D01*
X212436115Y-13115634D02*
X212436115Y-13215634D01*
X210236115Y-13015634D02*
X210236115Y-13115634D01*
X212436115Y-8515634D02*
X210236115Y-8515634D01*
X210236115Y-8515634D02*
X210236115Y-12915634D01*
X210236115Y-13215634D02*
X210236115Y-12715634D01*
X212436115Y-13215634D02*
X212436115Y-12915634D01*
X212436115Y-12915634D02*
X212436115Y-8515634D01*
X210236115Y-12715634D02*
X210236115Y-13215634D01*
X210236115Y-13115634D02*
X212436115Y-13115634D01*
X212436115Y-13215634D02*
X210236115Y-13215634D01*
X210236115Y-13215634D02*
X212436115Y-13215634D01*
X210236115Y-12915634D02*
X212436115Y-12915634D01*
X212436115Y-13015634D02*
X210236115Y-13015634D01*
X212436115Y-12915634D02*
X212436115Y-13015634D01*
X114986035Y-12715634D02*
X114986035Y-13215634D01*
X117186035Y-13215634D02*
X117186035Y-12915634D01*
X117186035Y-12915634D02*
X117186035Y-13015634D01*
X117186035Y-8515634D02*
X114986035Y-8515634D01*
X114986035Y-13215634D02*
X114986035Y-12715634D01*
X117186035Y-13115634D02*
X117186035Y-13215634D01*
X114986035Y-12915634D02*
X117186035Y-12915634D01*
X117186035Y-13015634D02*
X114986035Y-13015634D01*
X114986035Y-13015634D02*
X114986035Y-13115634D01*
X114986035Y-13215634D02*
X117186035Y-13215634D01*
X114986035Y-8515634D02*
X114986035Y-12915634D01*
X117186035Y-13215634D02*
X114986035Y-13215634D01*
X114986035Y-13115634D02*
X117186035Y-13115634D01*
X117186035Y-12915634D02*
X117186035Y-8515634D01*
X56464109Y-13115634D02*
X56464109Y-13215634D01*
X54264109Y-13215634D02*
X56464109Y-13215634D01*
X56464109Y-13215634D02*
X54264109Y-13215634D01*
X56464109Y-12915634D02*
X56464109Y-13015634D01*
X54264109Y-8515634D02*
X54264109Y-12915634D01*
X56464109Y-13215634D02*
X56464109Y-12915634D01*
X56464109Y-12915634D02*
X56464109Y-8515634D01*
X54264109Y-12915634D02*
X56464109Y-12915634D01*
X56464109Y-8515634D02*
X54264109Y-8515634D01*
X56464109Y-13015634D02*
X54264109Y-13015634D01*
X54264109Y-12715634D02*
X54264109Y-13215634D01*
X54264109Y-13115634D02*
X56464109Y-13115634D01*
X54264109Y-13215634D02*
X54264109Y-12715634D01*
X54264109Y-13015634D02*
X54264109Y-13115634D01*
X79086003Y-12915634D02*
X79086003Y-13015634D01*
X76886003Y-8515634D02*
X76886003Y-12915634D01*
X76886003Y-13215634D02*
X79086003Y-13215634D01*
X79086003Y-13015634D02*
X76886003Y-13015634D01*
X76886003Y-13215634D02*
X76886003Y-12715634D01*
X76886003Y-13015634D02*
X76886003Y-13115634D01*
X79086003Y-8515634D02*
X76886003Y-8515634D01*
X76886003Y-12915634D02*
X79086003Y-12915634D01*
X79086003Y-13215634D02*
X76886003Y-13215634D01*
X76886003Y-12715634D02*
X76886003Y-13215634D01*
X76886003Y-13115634D02*
X79086003Y-13115634D01*
X79086003Y-12915634D02*
X79086003Y-8515634D01*
X79086003Y-13115634D02*
X79086003Y-13215634D01*
X79086003Y-13215634D02*
X79086003Y-12915634D01*
X134036051Y-13215634D02*
X134036051Y-12715634D01*
X136236051Y-13215634D02*
X136236051Y-12915634D01*
X134036051Y-13215634D02*
X136236051Y-13215634D01*
X134036051Y-8515634D02*
X134036051Y-12915634D01*
X134036051Y-12715634D02*
X134036051Y-13215634D01*
X134036051Y-12915634D02*
X136236051Y-12915634D01*
X136236051Y-12915634D02*
X136236051Y-8515634D01*
X134036051Y-13115634D02*
X136236051Y-13115634D01*
X136236051Y-12915634D02*
X136236051Y-13015634D01*
X136236051Y-13115634D02*
X136236051Y-13215634D01*
X136236051Y-13015634D02*
X134036051Y-13015634D01*
X134036051Y-13015634D02*
X134036051Y-13115634D01*
X136236051Y-13215634D02*
X134036051Y-13215634D01*
X136236051Y-8515634D02*
X134036051Y-8515634D01*
X95936019Y-12715634D02*
X95936019Y-13215634D01*
X98136019Y-12915634D02*
X98136019Y-13015634D01*
X95936019Y-12915634D02*
X98136019Y-12915634D01*
X98136019Y-8515634D02*
X95936019Y-8515634D01*
X98136019Y-12915634D02*
X98136019Y-8515634D01*
X95936019Y-13215634D02*
X95936019Y-12715634D01*
X98136019Y-13115634D02*
X98136019Y-13215634D01*
X95936019Y-8515634D02*
X95936019Y-12915634D01*
X98136019Y-13015634D02*
X95936019Y-13015634D01*
X98136019Y-13215634D02*
X98136019Y-12915634D01*
X95936019Y-13115634D02*
X98136019Y-13115634D01*
X95936019Y-13015634D02*
X95936019Y-13115634D01*
X98136019Y-13215634D02*
X95936019Y-13215634D01*
X95936019Y-13215634D02*
X98136019Y-13215634D01*
X60035987Y-13215634D02*
X57835987Y-13215634D01*
X57835987Y-12715634D02*
X57835987Y-13215634D01*
X60035987Y-13115634D02*
X60035987Y-13215634D01*
X57835987Y-12915634D02*
X60035987Y-12915634D01*
X57835987Y-13115634D02*
X60035987Y-13115634D01*
X60035987Y-8515634D02*
X57835987Y-8515634D01*
X60035987Y-13015634D02*
X57835987Y-13015634D01*
X57835987Y-13215634D02*
X57835987Y-12715634D01*
X60035987Y-12915634D02*
X60035987Y-13015634D01*
X57835987Y-13215634D02*
X60035987Y-13215634D01*
X60035987Y-13215634D02*
X60035987Y-12915634D01*
X57835987Y-13015634D02*
X57835987Y-13115634D01*
X57835987Y-8515634D02*
X57835987Y-12915634D01*
X60035987Y-12915634D02*
X60035987Y-8515634D01*
G36*
X160471822Y-88154994D02*
G01*
X160470489Y-88197531D01*
X160459200Y-88276940D01*
X160436572Y-88344355D01*
X160402808Y-88399494D01*
X160358107Y-88442072D01*
X160302668Y-88471805D01*
X160236694Y-88488410D01*
X160182770Y-88492273D01*
X160108269Y-88484722D01*
X160039387Y-88462030D01*
X159977859Y-88424624D01*
X159960690Y-88410669D01*
X159944742Y-88396169D01*
X159938587Y-88388309D01*
X159938654Y-88387944D01*
X159945746Y-88379083D01*
X159962240Y-88362905D01*
X159984880Y-88342623D01*
X160031173Y-88302657D01*
X160065742Y-88327699D01*
X160079978Y-88337161D01*
X160126911Y-88358085D01*
X160174722Y-88366007D01*
X160220765Y-88361785D01*
X160262393Y-88346278D01*
X160296960Y-88320344D01*
X160321817Y-88284841D01*
X160334320Y-88240627D01*
X160338723Y-88201560D01*
X159921654Y-88201560D01*
X159921654Y-88131372D01*
X159925710Y-88074288D01*
X160057121Y-88074288D01*
X160057510Y-88079426D01*
X160060412Y-88084346D01*
X160068238Y-88087708D01*
X160083390Y-88089808D01*
X160108270Y-88090941D01*
X160145280Y-88091405D01*
X160196821Y-88091494D01*
X160336521Y-88091494D01*
X160336521Y-88067887D01*
X160331144Y-88038924D01*
X160315952Y-88004881D01*
X160294762Y-87974200D01*
X160271415Y-87953623D01*
X160256437Y-87946528D01*
X160214812Y-87937779D01*
X160170804Y-87940763D01*
X160129913Y-87954687D01*
X160097640Y-87978753D01*
X160087798Y-87992058D01*
X160072957Y-88020063D01*
X160061631Y-88050069D01*
X160057121Y-88074288D01*
X159925710Y-88074288D01*
X159927457Y-88049705D01*
X159944976Y-87979791D01*
X159974203Y-87922084D01*
X160015131Y-87876604D01*
X160050842Y-87850894D01*
X160108755Y-87823940D01*
X160169360Y-87810819D01*
X160230140Y-87811147D01*
X160288579Y-87824537D01*
X160342161Y-87850607D01*
X160388368Y-87888970D01*
X160424684Y-87939241D01*
X160443964Y-87979532D01*
X160460156Y-88030291D01*
X160466059Y-88067887D01*
X160469074Y-88087092D01*
X160471822Y-88154994D01*
G37*
D13*
X160471822Y-88154994D02*
X160470489Y-88197531D01*
X160459200Y-88276940D01*
X160436572Y-88344355D01*
X160402808Y-88399494D01*
X160358107Y-88442072D01*
X160302668Y-88471805D01*
X160236694Y-88488410D01*
X160182770Y-88492273D01*
X160108269Y-88484722D01*
X160039387Y-88462030D01*
X159977859Y-88424624D01*
X159960690Y-88410669D01*
X159944742Y-88396169D01*
X159938587Y-88388309D01*
X159938654Y-88387944D01*
X159945746Y-88379083D01*
X159962240Y-88362905D01*
X159984880Y-88342623D01*
X160031173Y-88302657D01*
X160065742Y-88327699D01*
X160079978Y-88337161D01*
X160126911Y-88358085D01*
X160174722Y-88366007D01*
X160220765Y-88361785D01*
X160262393Y-88346278D01*
X160296960Y-88320344D01*
X160321817Y-88284841D01*
X160334320Y-88240627D01*
X160338723Y-88201560D01*
X159921654Y-88201560D01*
X159921654Y-88131372D01*
X159925710Y-88074288D01*
X160057121Y-88074288D01*
X160057510Y-88079426D01*
X160060412Y-88084346D01*
X160068238Y-88087708D01*
X160083390Y-88089808D01*
X160108270Y-88090941D01*
X160145280Y-88091405D01*
X160196821Y-88091494D01*
X160336521Y-88091494D01*
X160336521Y-88067887D01*
X160331144Y-88038924D01*
X160315952Y-88004881D01*
X160294762Y-87974200D01*
X160271415Y-87953623D01*
X160256437Y-87946528D01*
X160214812Y-87937779D01*
X160170804Y-87940763D01*
X160129913Y-87954687D01*
X160097640Y-87978753D01*
X160087798Y-87992058D01*
X160072957Y-88020063D01*
X160061631Y-88050069D01*
X160057121Y-88074288D01*
X159925710Y-88074288D01*
X159927457Y-88049705D01*
X159944976Y-87979791D01*
X159974203Y-87922084D01*
X160015131Y-87876604D01*
X160050842Y-87850894D01*
X160108755Y-87823940D01*
X160169360Y-87810819D01*
X160230140Y-87811147D01*
X160288579Y-87824537D01*
X160342161Y-87850607D01*
X160388368Y-87888970D01*
X160424684Y-87939241D01*
X160443964Y-87979532D01*
X160460156Y-88030291D01*
X160466059Y-88067887D01*
X160469074Y-88087092D01*
X160471822Y-88154994D01*
G36*
X163165702Y-82782897D02*
G01*
X163245613Y-82783006D01*
X163310587Y-82783310D01*
X163362220Y-82783872D01*
X163402109Y-82784756D01*
X163431851Y-82786025D01*
X163453043Y-82787740D01*
X163467281Y-82789966D01*
X163476162Y-82792764D01*
X163481283Y-82796198D01*
X163489239Y-82805456D01*
X163494587Y-82816015D01*
X163494620Y-82816410D01*
X163496549Y-82828195D01*
X163501207Y-82854497D01*
X163508255Y-82893457D01*
X163517354Y-82943217D01*
X163528164Y-83001921D01*
X163540346Y-83067712D01*
X163553560Y-83138731D01*
X163561755Y-83182466D01*
X163576959Y-83262123D01*
X163589779Y-83326869D01*
X163600488Y-83377915D01*
X163609358Y-83416474D01*
X163616659Y-83443757D01*
X163622664Y-83460977D01*
X163627643Y-83469345D01*
X163634234Y-83473901D01*
X163655674Y-83485085D01*
X163688437Y-83500262D01*
X163730080Y-83518462D01*
X163778159Y-83538711D01*
X163830231Y-83560037D01*
X163883854Y-83581468D01*
X163936584Y-83602033D01*
X163985977Y-83620758D01*
X164029592Y-83636673D01*
X164064985Y-83648804D01*
X164089712Y-83656180D01*
X164101331Y-83657828D01*
X164101873Y-83657598D01*
X164113764Y-83650576D01*
X164137770Y-83635172D01*
X164172256Y-83612475D01*
X164215588Y-83583572D01*
X164266133Y-83549554D01*
X164322257Y-83511509D01*
X164382327Y-83470526D01*
X164390173Y-83465159D01*
X164449727Y-83424593D01*
X164505062Y-83387197D01*
X164554555Y-83354044D01*
X164596589Y-83326208D01*
X164629542Y-83304763D01*
X164651795Y-83290783D01*
X164661727Y-83285341D01*
X164662731Y-83285364D01*
X164674455Y-83292404D01*
X164695892Y-83309909D01*
X164725473Y-83336296D01*
X164761626Y-83369986D01*
X164802781Y-83409399D01*
X164847366Y-83452953D01*
X164893812Y-83499069D01*
X164940548Y-83546165D01*
X164986003Y-83592661D01*
X165028606Y-83636976D01*
X165066787Y-83677531D01*
X165098975Y-83712744D01*
X165123600Y-83741034D01*
X165139090Y-83760822D01*
X165143875Y-83770526D01*
X165143754Y-83770898D01*
X165137360Y-83782369D01*
X165122506Y-83805975D01*
X165100278Y-83840076D01*
X165071766Y-83883030D01*
X165038057Y-83933198D01*
X165000239Y-83988939D01*
X164959402Y-84048614D01*
X164949188Y-84063493D01*
X164896603Y-84140774D01*
X164853950Y-84204746D01*
X164821081Y-84255643D01*
X164797845Y-84293703D01*
X164784095Y-84319159D01*
X164779681Y-84332247D01*
X164780691Y-84337629D01*
X164787408Y-84358440D01*
X164799512Y-84390885D01*
X164815940Y-84432477D01*
X164835630Y-84480730D01*
X164857519Y-84533157D01*
X164880545Y-84587271D01*
X164903644Y-84640587D01*
X164925756Y-84690617D01*
X164945816Y-84734876D01*
X164962762Y-84770877D01*
X164975532Y-84796134D01*
X164983064Y-84808160D01*
X164991875Y-84812955D01*
X165012054Y-84819493D01*
X165044276Y-84827702D01*
X165089475Y-84837791D01*
X165148585Y-84849969D01*
X165222542Y-84864442D01*
X165312279Y-84881419D01*
X165321155Y-84883079D01*
X165391638Y-84896370D01*
X165456764Y-84908842D01*
X165514648Y-84920120D01*
X165563410Y-84929829D01*
X165601165Y-84937595D01*
X165626032Y-84943044D01*
X165636129Y-84945802D01*
X165637323Y-84948016D01*
X165639735Y-84964151D01*
X165641692Y-84995896D01*
X165643203Y-85043516D01*
X165644273Y-85107274D01*
X165644910Y-85187433D01*
X165645121Y-85284256D01*
X165645072Y-85350724D01*
X165644828Y-85425104D01*
X165644333Y-85485144D01*
X165643537Y-85532322D01*
X165642388Y-85568116D01*
X165640834Y-85594005D01*
X165638825Y-85611466D01*
X165636310Y-85621977D01*
X165633236Y-85627017D01*
X165633209Y-85627039D01*
X165622260Y-85630832D01*
X165596605Y-85637239D01*
X165558182Y-85645850D01*
X165508929Y-85656257D01*
X165450782Y-85668049D01*
X165385678Y-85680817D01*
X165315556Y-85694152D01*
X165280997Y-85700669D01*
X165201779Y-85715994D01*
X165133958Y-85729696D01*
X165078596Y-85741544D01*
X165036753Y-85751306D01*
X165009491Y-85758749D01*
X164997871Y-85763642D01*
X164991668Y-85774009D01*
X164980164Y-85798295D01*
X164964625Y-85833783D01*
X164946011Y-85878038D01*
X164925280Y-85928627D01*
X164903394Y-85983117D01*
X164881312Y-86039072D01*
X164859994Y-86094060D01*
X164840399Y-86145646D01*
X164823488Y-86191397D01*
X164810220Y-86228878D01*
X164801556Y-86255657D01*
X164798454Y-86269298D01*
X164799641Y-86275172D01*
X164807497Y-86292769D01*
X164823098Y-86320406D01*
X164846896Y-86358806D01*
X164879347Y-86408691D01*
X164920904Y-86470786D01*
X164972021Y-86545812D01*
X165010603Y-86602415D01*
X165047357Y-86657029D01*
X165079846Y-86706012D01*
X165106991Y-86747710D01*
X165127715Y-86780465D01*
X165140940Y-86802622D01*
X165145587Y-86812524D01*
X165145180Y-86813733D01*
X165136425Y-86825417D01*
X165117235Y-86847262D01*
X165088902Y-86877905D01*
X165052719Y-86915982D01*
X165009977Y-86960129D01*
X164961971Y-87008982D01*
X164909990Y-87061177D01*
X164876520Y-87094519D01*
X164820831Y-87149674D01*
X164775361Y-87194148D01*
X164739062Y-87228896D01*
X164710887Y-87254871D01*
X164689789Y-87273027D01*
X164674719Y-87284317D01*
X164664630Y-87289695D01*
X164658474Y-87290114D01*
X164650656Y-87285685D01*
X164629881Y-87272464D01*
X164598315Y-87251707D01*
X164557674Y-87224561D01*
X164509670Y-87192172D01*
X164456020Y-87155686D01*
X164398436Y-87116250D01*
X164350141Y-87083299D01*
X164295636Y-87046705D01*
X164246405Y-87014291D01*
X164204170Y-86987160D01*
X164170652Y-86966414D01*
X164147573Y-86953158D01*
X164136655Y-86948493D01*
X164132423Y-86949247D01*
X164113450Y-86956174D01*
X164084110Y-86969186D01*
X164047526Y-86986856D01*
X164006821Y-87007760D01*
X163988210Y-87017501D01*
X163949691Y-87037054D01*
X163917141Y-87052766D01*
X163893532Y-87063227D01*
X163881838Y-87067027D01*
X163877910Y-87064709D01*
X163866989Y-87048798D01*
X163850997Y-87017586D01*
X163829813Y-86970828D01*
X163803316Y-86908277D01*
X163790712Y-86877833D01*
X163769376Y-86826313D01*
X163743342Y-86763460D01*
X163713619Y-86691709D01*
X163681214Y-86613493D01*
X163647137Y-86531246D01*
X163612394Y-86447402D01*
X163577996Y-86364396D01*
X163574009Y-86354770D01*
X163542642Y-86278718D01*
X163513428Y-86207321D01*
X163486993Y-86142147D01*
X163463962Y-86084762D01*
X163444961Y-86036734D01*
X163430615Y-85999628D01*
X163421549Y-85975012D01*
X163418387Y-85964453D01*
X163420322Y-85958388D01*
X163433043Y-85943197D01*
X163453794Y-85927288D01*
X163473940Y-85914323D01*
X163570194Y-85843974D01*
X163650817Y-85769099D01*
X163716659Y-85688522D01*
X163768569Y-85601066D01*
X163807398Y-85505555D01*
X163833994Y-85400811D01*
X163835353Y-85392945D01*
X163840026Y-85341392D01*
X163840115Y-85280681D01*
X163835972Y-85216762D01*
X163827949Y-85155581D01*
X163816397Y-85103088D01*
X163794782Y-85039027D01*
X163748745Y-84943187D01*
X163689904Y-84856834D01*
X163619603Y-84780983D01*
X163539186Y-84716648D01*
X163449995Y-84664844D01*
X163353376Y-84626585D01*
X163250669Y-84602885D01*
X163143221Y-84594760D01*
X163075792Y-84597939D01*
X162971140Y-84615887D01*
X162872068Y-84648776D01*
X162779920Y-84695594D01*
X162696037Y-84755324D01*
X162621765Y-84826953D01*
X162558447Y-84909467D01*
X162507425Y-85001849D01*
X162470044Y-85103088D01*
X162467715Y-85111650D01*
X162456774Y-85166151D01*
X162449425Y-85228266D01*
X162446020Y-85292046D01*
X162446910Y-85351544D01*
X162452447Y-85400811D01*
X162456603Y-85421498D01*
X162485461Y-85524395D01*
X162526712Y-85618284D01*
X162581206Y-85704340D01*
X162649794Y-85783742D01*
X162733324Y-85857666D01*
X162832647Y-85927288D01*
X162844223Y-85935405D01*
X162861340Y-85951532D01*
X162868054Y-85964453D01*
X162868005Y-85964942D01*
X162864081Y-85977320D01*
X162854330Y-86003561D01*
X162839376Y-86042099D01*
X162819844Y-86091366D01*
X162796360Y-86149796D01*
X162769548Y-86215823D01*
X162740035Y-86287878D01*
X162708445Y-86364396D01*
X162681998Y-86428216D01*
X162647246Y-86512082D01*
X162612927Y-86594910D01*
X162580049Y-86674265D01*
X162549622Y-86747713D01*
X162522654Y-86812821D01*
X162500152Y-86867153D01*
X162483126Y-86908277D01*
X162467715Y-86945055D01*
X162444191Y-86998786D01*
X162425911Y-87036861D01*
X162412756Y-87059526D01*
X162404604Y-87067027D01*
X162400973Y-87066221D01*
X162383514Y-87059229D01*
X162355487Y-87046216D01*
X162319865Y-87028589D01*
X162279621Y-87007760D01*
X162261569Y-86998341D01*
X162222277Y-86978672D01*
X162188467Y-86962857D01*
X162163262Y-86952322D01*
X162149787Y-86948493D01*
X162141557Y-86951765D01*
X162120368Y-86963679D01*
X162088455Y-86983263D01*
X162047541Y-87009416D01*
X161999347Y-87041034D01*
X161945595Y-87077013D01*
X161888006Y-87116250D01*
X161840009Y-87149139D01*
X161785567Y-87186209D01*
X161736479Y-87219378D01*
X161694461Y-87247499D01*
X161661227Y-87269426D01*
X161638491Y-87284013D01*
X161627968Y-87290114D01*
X161625181Y-87290455D01*
X161617104Y-87287567D01*
X161604546Y-87279223D01*
X161586461Y-87264469D01*
X161561800Y-87242352D01*
X161529517Y-87211917D01*
X161488563Y-87172213D01*
X161437890Y-87122284D01*
X161376452Y-87061177D01*
X161362565Y-87047299D01*
X161311498Y-86995846D01*
X161264741Y-86948090D01*
X161223588Y-86905397D01*
X161189331Y-86869130D01*
X161163261Y-86840653D01*
X161146671Y-86821330D01*
X161140854Y-86812524D01*
X161145205Y-86803155D01*
X161158164Y-86781377D01*
X161178657Y-86748945D01*
X161205607Y-86707517D01*
X161237936Y-86658747D01*
X161274567Y-86604294D01*
X161314421Y-86545812D01*
X161345138Y-86500857D01*
X161390678Y-86433389D01*
X161426920Y-86378435D01*
X161454318Y-86335272D01*
X161473326Y-86303177D01*
X161484398Y-86281427D01*
X161487987Y-86269298D01*
X161485340Y-86257223D01*
X161477074Y-86231381D01*
X161464131Y-86194645D01*
X161447469Y-86149452D01*
X161428049Y-86098233D01*
X161406831Y-86043423D01*
X161384773Y-85987455D01*
X161362838Y-85932764D01*
X161341983Y-85881784D01*
X161323169Y-85836947D01*
X161307355Y-85800689D01*
X161295503Y-85775443D01*
X161288570Y-85763642D01*
X161285877Y-85762010D01*
X161267887Y-85756072D01*
X161234679Y-85747675D01*
X161187313Y-85737053D01*
X161126852Y-85724437D01*
X161054355Y-85710059D01*
X160970885Y-85694152D01*
X160970224Y-85694028D01*
X160900139Y-85680697D01*
X160835091Y-85667935D01*
X160777017Y-85656154D01*
X160727854Y-85645762D01*
X160689539Y-85637169D01*
X160664011Y-85630784D01*
X160653206Y-85627017D01*
X160650834Y-85623667D01*
X160648186Y-85614639D01*
X160646057Y-85599024D01*
X160644396Y-85575345D01*
X160643153Y-85542124D01*
X160642274Y-85497883D01*
X160641710Y-85441143D01*
X160641410Y-85370427D01*
X160641321Y-85284256D01*
X160641361Y-85240017D01*
X160641756Y-85150485D01*
X160642581Y-85077502D01*
X160643842Y-85020806D01*
X160645547Y-84980133D01*
X160647701Y-84955219D01*
X160650313Y-84945802D01*
X160650691Y-84945622D01*
X160662690Y-84942516D01*
X160689231Y-84936764D01*
X160728430Y-84928740D01*
X160778406Y-84918820D01*
X160837275Y-84907377D01*
X160903155Y-84894785D01*
X160974163Y-84881419D01*
X161058762Y-84865428D01*
X161133678Y-84850804D01*
X161193689Y-84838489D01*
X161239730Y-84828275D01*
X161272736Y-84819955D01*
X161293640Y-84813319D01*
X161303378Y-84808160D01*
X161306555Y-84803744D01*
X161316929Y-84784563D01*
X161331992Y-84753437D01*
X161350682Y-84712854D01*
X161371936Y-84665298D01*
X161394691Y-84613258D01*
X161417885Y-84559219D01*
X161440456Y-84505667D01*
X161461340Y-84455089D01*
X161479475Y-84409972D01*
X161493799Y-84372802D01*
X161503248Y-84346064D01*
X161506761Y-84332247D01*
X161506648Y-84330787D01*
X161500569Y-84315508D01*
X161485142Y-84287851D01*
X161460214Y-84247573D01*
X161425634Y-84194435D01*
X161381248Y-84128196D01*
X161326903Y-84048614D01*
X161323559Y-84043749D01*
X161282854Y-83984136D01*
X161245276Y-83928394D01*
X161211915Y-83878193D01*
X161183863Y-83835204D01*
X161162212Y-83801099D01*
X161148053Y-83777549D01*
X161142477Y-83766225D01*
X161142829Y-83760087D01*
X161146961Y-83750833D01*
X161155993Y-83737722D01*
X161170957Y-83719616D01*
X161192884Y-83695378D01*
X161222807Y-83663870D01*
X161261757Y-83623953D01*
X161310767Y-83574489D01*
X161370867Y-83514341D01*
X161382110Y-83503134D01*
X161433427Y-83452368D01*
X161481074Y-83405850D01*
X161523676Y-83364879D01*
X161559862Y-83330753D01*
X161588257Y-83304771D01*
X161607488Y-83288229D01*
X161616183Y-83282427D01*
X161616774Y-83282531D01*
X161628366Y-83288521D01*
X161652023Y-83302968D01*
X161686141Y-83324820D01*
X161729114Y-83353026D01*
X161779339Y-83386535D01*
X161835210Y-83424294D01*
X161895124Y-83465252D01*
X161902656Y-83470427D01*
X161962573Y-83511429D01*
X162018531Y-83549437D01*
X162068868Y-83583343D01*
X162111925Y-83612039D01*
X162146042Y-83634419D01*
X162169556Y-83649374D01*
X162180810Y-83655798D01*
X162181975Y-83656198D01*
X162191443Y-83656954D01*
X162206387Y-83654481D01*
X162228489Y-83648206D01*
X162259430Y-83637557D01*
X162300893Y-83621961D01*
X162354559Y-83600845D01*
X162422110Y-83573638D01*
X162429200Y-83570757D01*
X162486918Y-83546994D01*
X162539743Y-83524705D01*
X162585507Y-83504846D01*
X162622041Y-83488372D01*
X162647176Y-83476238D01*
X162658743Y-83469401D01*
X162660897Y-83466604D01*
X162666320Y-83454253D01*
X162672913Y-83432388D01*
X162680945Y-83399812D01*
X162690685Y-83355325D01*
X162702399Y-83297731D01*
X162716357Y-83225829D01*
X162732827Y-83138422D01*
X162734879Y-83127411D01*
X162747961Y-83057035D01*
X162759961Y-82992183D01*
X162770538Y-82934709D01*
X162779356Y-82886465D01*
X162786073Y-82849305D01*
X162790352Y-82825083D01*
X162791854Y-82815651D01*
X162794524Y-82809298D01*
X162805159Y-82796198D01*
X162806173Y-82795277D01*
X162812084Y-82792008D01*
X162822153Y-82789359D01*
X162837979Y-82787266D01*
X162861157Y-82785668D01*
X162893284Y-82784502D01*
X162935957Y-82783704D01*
X162990773Y-82783212D01*
X163059329Y-82782963D01*
X163143221Y-82782894D01*
X163165702Y-82782897D01*
G37*
X163165702Y-82782897D02*
X163245613Y-82783006D01*
X163310587Y-82783310D01*
X163362220Y-82783872D01*
X163402109Y-82784756D01*
X163431851Y-82786025D01*
X163453043Y-82787740D01*
X163467281Y-82789966D01*
X163476162Y-82792764D01*
X163481283Y-82796198D01*
X163489239Y-82805456D01*
X163494587Y-82816015D01*
X163494620Y-82816410D01*
X163496549Y-82828195D01*
X163501207Y-82854497D01*
X163508255Y-82893457D01*
X163517354Y-82943217D01*
X163528164Y-83001921D01*
X163540346Y-83067712D01*
X163553560Y-83138731D01*
X163561755Y-83182466D01*
X163576959Y-83262123D01*
X163589779Y-83326869D01*
X163600488Y-83377915D01*
X163609358Y-83416474D01*
X163616659Y-83443757D01*
X163622664Y-83460977D01*
X163627643Y-83469345D01*
X163634234Y-83473901D01*
X163655674Y-83485085D01*
X163688437Y-83500262D01*
X163730080Y-83518462D01*
X163778159Y-83538711D01*
X163830231Y-83560037D01*
X163883854Y-83581468D01*
X163936584Y-83602033D01*
X163985977Y-83620758D01*
X164029592Y-83636673D01*
X164064985Y-83648804D01*
X164089712Y-83656180D01*
X164101331Y-83657828D01*
X164101873Y-83657598D01*
X164113764Y-83650576D01*
X164137770Y-83635172D01*
X164172256Y-83612475D01*
X164215588Y-83583572D01*
X164266133Y-83549554D01*
X164322257Y-83511509D01*
X164382327Y-83470526D01*
X164390173Y-83465159D01*
X164449727Y-83424593D01*
X164505062Y-83387197D01*
X164554555Y-83354044D01*
X164596589Y-83326208D01*
X164629542Y-83304763D01*
X164651795Y-83290783D01*
X164661727Y-83285341D01*
X164662731Y-83285364D01*
X164674455Y-83292404D01*
X164695892Y-83309909D01*
X164725473Y-83336296D01*
X164761626Y-83369986D01*
X164802781Y-83409399D01*
X164847366Y-83452953D01*
X164893812Y-83499069D01*
X164940548Y-83546165D01*
X164986003Y-83592661D01*
X165028606Y-83636976D01*
X165066787Y-83677531D01*
X165098975Y-83712744D01*
X165123600Y-83741034D01*
X165139090Y-83760822D01*
X165143875Y-83770526D01*
X165143754Y-83770898D01*
X165137360Y-83782369D01*
X165122506Y-83805975D01*
X165100278Y-83840076D01*
X165071766Y-83883030D01*
X165038057Y-83933198D01*
X165000239Y-83988939D01*
X164959402Y-84048614D01*
X164949188Y-84063493D01*
X164896603Y-84140774D01*
X164853950Y-84204746D01*
X164821081Y-84255643D01*
X164797845Y-84293703D01*
X164784095Y-84319159D01*
X164779681Y-84332247D01*
X164780691Y-84337629D01*
X164787408Y-84358440D01*
X164799512Y-84390885D01*
X164815940Y-84432477D01*
X164835630Y-84480730D01*
X164857519Y-84533157D01*
X164880545Y-84587271D01*
X164903644Y-84640587D01*
X164925756Y-84690617D01*
X164945816Y-84734876D01*
X164962762Y-84770877D01*
X164975532Y-84796134D01*
X164983064Y-84808160D01*
X164991875Y-84812955D01*
X165012054Y-84819493D01*
X165044276Y-84827702D01*
X165089475Y-84837791D01*
X165148585Y-84849969D01*
X165222542Y-84864442D01*
X165312279Y-84881419D01*
X165321155Y-84883079D01*
X165391638Y-84896370D01*
X165456764Y-84908842D01*
X165514648Y-84920120D01*
X165563410Y-84929829D01*
X165601165Y-84937595D01*
X165626032Y-84943044D01*
X165636129Y-84945802D01*
X165637323Y-84948016D01*
X165639735Y-84964151D01*
X165641692Y-84995896D01*
X165643203Y-85043516D01*
X165644273Y-85107274D01*
X165644910Y-85187433D01*
X165645121Y-85284256D01*
X165645072Y-85350724D01*
X165644828Y-85425104D01*
X165644333Y-85485144D01*
X165643537Y-85532322D01*
X165642388Y-85568116D01*
X165640834Y-85594005D01*
X165638825Y-85611466D01*
X165636310Y-85621977D01*
X165633236Y-85627017D01*
X165633209Y-85627039D01*
X165622260Y-85630832D01*
X165596605Y-85637239D01*
X165558182Y-85645850D01*
X165508929Y-85656257D01*
X165450782Y-85668049D01*
X165385678Y-85680817D01*
X165315556Y-85694152D01*
X165280997Y-85700669D01*
X165201779Y-85715994D01*
X165133958Y-85729696D01*
X165078596Y-85741544D01*
X165036753Y-85751306D01*
X165009491Y-85758749D01*
X164997871Y-85763642D01*
X164991668Y-85774009D01*
X164980164Y-85798295D01*
X164964625Y-85833783D01*
X164946011Y-85878038D01*
X164925280Y-85928627D01*
X164903394Y-85983117D01*
X164881312Y-86039072D01*
X164859994Y-86094060D01*
X164840399Y-86145646D01*
X164823488Y-86191397D01*
X164810220Y-86228878D01*
X164801556Y-86255657D01*
X164798454Y-86269298D01*
X164799641Y-86275172D01*
X164807497Y-86292769D01*
X164823098Y-86320406D01*
X164846896Y-86358806D01*
X164879347Y-86408691D01*
X164920904Y-86470786D01*
X164972021Y-86545812D01*
X165010603Y-86602415D01*
X165047357Y-86657029D01*
X165079846Y-86706012D01*
X165106991Y-86747710D01*
X165127715Y-86780465D01*
X165140940Y-86802622D01*
X165145587Y-86812524D01*
X165145180Y-86813733D01*
X165136425Y-86825417D01*
X165117235Y-86847262D01*
X165088902Y-86877905D01*
X165052719Y-86915982D01*
X165009977Y-86960129D01*
X164961971Y-87008982D01*
X164909990Y-87061177D01*
X164876520Y-87094519D01*
X164820831Y-87149674D01*
X164775361Y-87194148D01*
X164739062Y-87228896D01*
X164710887Y-87254871D01*
X164689789Y-87273027D01*
X164674719Y-87284317D01*
X164664630Y-87289695D01*
X164658474Y-87290114D01*
X164650656Y-87285685D01*
X164629881Y-87272464D01*
X164598315Y-87251707D01*
X164557674Y-87224561D01*
X164509670Y-87192172D01*
X164456020Y-87155686D01*
X164398436Y-87116250D01*
X164350141Y-87083299D01*
X164295636Y-87046705D01*
X164246405Y-87014291D01*
X164204170Y-86987160D01*
X164170652Y-86966414D01*
X164147573Y-86953158D01*
X164136655Y-86948493D01*
X164132423Y-86949247D01*
X164113450Y-86956174D01*
X164084110Y-86969186D01*
X164047526Y-86986856D01*
X164006821Y-87007760D01*
X163988210Y-87017501D01*
X163949691Y-87037054D01*
X163917141Y-87052766D01*
X163893532Y-87063227D01*
X163881838Y-87067027D01*
X163877910Y-87064709D01*
X163866989Y-87048798D01*
X163850997Y-87017586D01*
X163829813Y-86970828D01*
X163803316Y-86908277D01*
X163790712Y-86877833D01*
X163769376Y-86826313D01*
X163743342Y-86763460D01*
X163713619Y-86691709D01*
X163681214Y-86613493D01*
X163647137Y-86531246D01*
X163612394Y-86447402D01*
X163577996Y-86364396D01*
X163574009Y-86354770D01*
X163542642Y-86278718D01*
X163513428Y-86207321D01*
X163486993Y-86142147D01*
X163463962Y-86084762D01*
X163444961Y-86036734D01*
X163430615Y-85999628D01*
X163421549Y-85975012D01*
X163418387Y-85964453D01*
X163420322Y-85958388D01*
X163433043Y-85943197D01*
X163453794Y-85927288D01*
X163473940Y-85914323D01*
X163570194Y-85843974D01*
X163650817Y-85769099D01*
X163716659Y-85688522D01*
X163768569Y-85601066D01*
X163807398Y-85505555D01*
X163833994Y-85400811D01*
X163835353Y-85392945D01*
X163840026Y-85341392D01*
X163840115Y-85280681D01*
X163835972Y-85216762D01*
X163827949Y-85155581D01*
X163816397Y-85103088D01*
X163794782Y-85039027D01*
X163748745Y-84943187D01*
X163689904Y-84856834D01*
X163619603Y-84780983D01*
X163539186Y-84716648D01*
X163449995Y-84664844D01*
X163353376Y-84626585D01*
X163250669Y-84602885D01*
X163143221Y-84594760D01*
X163075792Y-84597939D01*
X162971140Y-84615887D01*
X162872068Y-84648776D01*
X162779920Y-84695594D01*
X162696037Y-84755324D01*
X162621765Y-84826953D01*
X162558447Y-84909467D01*
X162507425Y-85001849D01*
X162470044Y-85103088D01*
X162467715Y-85111650D01*
X162456774Y-85166151D01*
X162449425Y-85228266D01*
X162446020Y-85292046D01*
X162446910Y-85351544D01*
X162452447Y-85400811D01*
X162456603Y-85421498D01*
X162485461Y-85524395D01*
X162526712Y-85618284D01*
X162581206Y-85704340D01*
X162649794Y-85783742D01*
X162733324Y-85857666D01*
X162832647Y-85927288D01*
X162844223Y-85935405D01*
X162861340Y-85951532D01*
X162868054Y-85964453D01*
X162868005Y-85964942D01*
X162864081Y-85977320D01*
X162854330Y-86003561D01*
X162839376Y-86042099D01*
X162819844Y-86091366D01*
X162796360Y-86149796D01*
X162769548Y-86215823D01*
X162740035Y-86287878D01*
X162708445Y-86364396D01*
X162681998Y-86428216D01*
X162647246Y-86512082D01*
X162612927Y-86594910D01*
X162580049Y-86674265D01*
X162549622Y-86747713D01*
X162522654Y-86812821D01*
X162500152Y-86867153D01*
X162483126Y-86908277D01*
X162467715Y-86945055D01*
X162444191Y-86998786D01*
X162425911Y-87036861D01*
X162412756Y-87059526D01*
X162404604Y-87067027D01*
X162400973Y-87066221D01*
X162383514Y-87059229D01*
X162355487Y-87046216D01*
X162319865Y-87028589D01*
X162279621Y-87007760D01*
X162261569Y-86998341D01*
X162222277Y-86978672D01*
X162188467Y-86962857D01*
X162163262Y-86952322D01*
X162149787Y-86948493D01*
X162141557Y-86951765D01*
X162120368Y-86963679D01*
X162088455Y-86983263D01*
X162047541Y-87009416D01*
X161999347Y-87041034D01*
X161945595Y-87077013D01*
X161888006Y-87116250D01*
X161840009Y-87149139D01*
X161785567Y-87186209D01*
X161736479Y-87219378D01*
X161694461Y-87247499D01*
X161661227Y-87269426D01*
X161638491Y-87284013D01*
X161627968Y-87290114D01*
X161625181Y-87290455D01*
X161617104Y-87287567D01*
X161604546Y-87279223D01*
X161586461Y-87264469D01*
X161561800Y-87242352D01*
X161529517Y-87211917D01*
X161488563Y-87172213D01*
X161437890Y-87122284D01*
X161376452Y-87061177D01*
X161362565Y-87047299D01*
X161311498Y-86995846D01*
X161264741Y-86948090D01*
X161223588Y-86905397D01*
X161189331Y-86869130D01*
X161163261Y-86840653D01*
X161146671Y-86821330D01*
X161140854Y-86812524D01*
X161145205Y-86803155D01*
X161158164Y-86781377D01*
X161178657Y-86748945D01*
X161205607Y-86707517D01*
X161237936Y-86658747D01*
X161274567Y-86604294D01*
X161314421Y-86545812D01*
X161345138Y-86500857D01*
X161390678Y-86433389D01*
X161426920Y-86378435D01*
X161454318Y-86335272D01*
X161473326Y-86303177D01*
X161484398Y-86281427D01*
X161487987Y-86269298D01*
X161485340Y-86257223D01*
X161477074Y-86231381D01*
X161464131Y-86194645D01*
X161447469Y-86149452D01*
X161428049Y-86098233D01*
X161406831Y-86043423D01*
X161384773Y-85987455D01*
X161362838Y-85932764D01*
X161341983Y-85881784D01*
X161323169Y-85836947D01*
X161307355Y-85800689D01*
X161295503Y-85775443D01*
X161288570Y-85763642D01*
X161285877Y-85762010D01*
X161267887Y-85756072D01*
X161234679Y-85747675D01*
X161187313Y-85737053D01*
X161126852Y-85724437D01*
X161054355Y-85710059D01*
X160970885Y-85694152D01*
X160970224Y-85694028D01*
X160900139Y-85680697D01*
X160835091Y-85667935D01*
X160777017Y-85656154D01*
X160727854Y-85645762D01*
X160689539Y-85637169D01*
X160664011Y-85630784D01*
X160653206Y-85627017D01*
X160650834Y-85623667D01*
X160648186Y-85614639D01*
X160646057Y-85599024D01*
X160644396Y-85575345D01*
X160643153Y-85542124D01*
X160642274Y-85497883D01*
X160641710Y-85441143D01*
X160641410Y-85370427D01*
X160641321Y-85284256D01*
X160641361Y-85240017D01*
X160641756Y-85150485D01*
X160642581Y-85077502D01*
X160643842Y-85020806D01*
X160645547Y-84980133D01*
X160647701Y-84955219D01*
X160650313Y-84945802D01*
X160650691Y-84945622D01*
X160662690Y-84942516D01*
X160689231Y-84936764D01*
X160728430Y-84928740D01*
X160778406Y-84918820D01*
X160837275Y-84907377D01*
X160903155Y-84894785D01*
X160974163Y-84881419D01*
X161058762Y-84865428D01*
X161133678Y-84850804D01*
X161193689Y-84838489D01*
X161239730Y-84828275D01*
X161272736Y-84819955D01*
X161293640Y-84813319D01*
X161303378Y-84808160D01*
X161306555Y-84803744D01*
X161316929Y-84784563D01*
X161331992Y-84753437D01*
X161350682Y-84712854D01*
X161371936Y-84665298D01*
X161394691Y-84613258D01*
X161417885Y-84559219D01*
X161440456Y-84505667D01*
X161461340Y-84455089D01*
X161479475Y-84409972D01*
X161493799Y-84372802D01*
X161503248Y-84346064D01*
X161506761Y-84332247D01*
X161506648Y-84330787D01*
X161500569Y-84315508D01*
X161485142Y-84287851D01*
X161460214Y-84247573D01*
X161425634Y-84194435D01*
X161381248Y-84128196D01*
X161326903Y-84048614D01*
X161323559Y-84043749D01*
X161282854Y-83984136D01*
X161245276Y-83928394D01*
X161211915Y-83878193D01*
X161183863Y-83835204D01*
X161162212Y-83801099D01*
X161148053Y-83777549D01*
X161142477Y-83766225D01*
X161142829Y-83760087D01*
X161146961Y-83750833D01*
X161155993Y-83737722D01*
X161170957Y-83719616D01*
X161192884Y-83695378D01*
X161222807Y-83663870D01*
X161261757Y-83623953D01*
X161310767Y-83574489D01*
X161370867Y-83514341D01*
X161382110Y-83503134D01*
X161433427Y-83452368D01*
X161481074Y-83405850D01*
X161523676Y-83364879D01*
X161559862Y-83330753D01*
X161588257Y-83304771D01*
X161607488Y-83288229D01*
X161616183Y-83282427D01*
X161616774Y-83282531D01*
X161628366Y-83288521D01*
X161652023Y-83302968D01*
X161686141Y-83324820D01*
X161729114Y-83353026D01*
X161779339Y-83386535D01*
X161835210Y-83424294D01*
X161895124Y-83465252D01*
X161902656Y-83470427D01*
X161962573Y-83511429D01*
X162018531Y-83549437D01*
X162068868Y-83583343D01*
X162111925Y-83612039D01*
X162146042Y-83634419D01*
X162169556Y-83649374D01*
X162180810Y-83655798D01*
X162181975Y-83656198D01*
X162191443Y-83656954D01*
X162206387Y-83654481D01*
X162228489Y-83648206D01*
X162259430Y-83637557D01*
X162300893Y-83621961D01*
X162354559Y-83600845D01*
X162422110Y-83573638D01*
X162429200Y-83570757D01*
X162486918Y-83546994D01*
X162539743Y-83524705D01*
X162585507Y-83504846D01*
X162622041Y-83488372D01*
X162647176Y-83476238D01*
X162658743Y-83469401D01*
X162660897Y-83466604D01*
X162666320Y-83454253D01*
X162672913Y-83432388D01*
X162680945Y-83399812D01*
X162690685Y-83355325D01*
X162702399Y-83297731D01*
X162716357Y-83225829D01*
X162732827Y-83138422D01*
X162734879Y-83127411D01*
X162747961Y-83057035D01*
X162759961Y-82992183D01*
X162770538Y-82934709D01*
X162779356Y-82886465D01*
X162786073Y-82849305D01*
X162790352Y-82825083D01*
X162791854Y-82815651D01*
X162794524Y-82809298D01*
X162805159Y-82796198D01*
X162806173Y-82795277D01*
X162812084Y-82792008D01*
X162822153Y-82789359D01*
X162837979Y-82787266D01*
X162861157Y-82785668D01*
X162893284Y-82784502D01*
X162935957Y-82783704D01*
X162990773Y-82783212D01*
X163059329Y-82782963D01*
X163143221Y-82782894D01*
X163165702Y-82782897D01*
G36*
X166359103Y-88223927D02*
G01*
X166353927Y-88274166D01*
X166345781Y-88312779D01*
X166329755Y-88351403D01*
X166294730Y-88401760D01*
X166248429Y-88443033D01*
X166193753Y-88472817D01*
X166133603Y-88488706D01*
X166071729Y-88492081D01*
X166016252Y-88483822D01*
X165960726Y-88462921D01*
X165911276Y-88432163D01*
X165868125Y-88387084D01*
X165835106Y-88328834D01*
X165829978Y-88315693D01*
X165825142Y-88297749D01*
X165821885Y-88275420D01*
X165819916Y-88245569D01*
X165818946Y-88205061D01*
X165818689Y-88151083D01*
X165950107Y-88151083D01*
X165950339Y-88190522D01*
X165951739Y-88223739D01*
X165954917Y-88247957D01*
X165960464Y-88267416D01*
X165968971Y-88286356D01*
X165975316Y-88297430D01*
X165994178Y-88321816D01*
X166013421Y-88337995D01*
X166045254Y-88351463D01*
X166090727Y-88357907D01*
X166133906Y-88350569D01*
X166171796Y-88330619D01*
X166201403Y-88299223D01*
X166219730Y-88257551D01*
X166225426Y-88223148D01*
X166228539Y-88177137D01*
X166228687Y-88127676D01*
X166225859Y-88081469D01*
X166220045Y-88045223D01*
X166203520Y-88006509D01*
X166175929Y-87975536D01*
X166140973Y-87954875D01*
X166101813Y-87944863D01*
X166061609Y-87945838D01*
X166023520Y-87958139D01*
X165990708Y-87982104D01*
X165966331Y-88018070D01*
X165964458Y-88022356D01*
X165957517Y-88043376D01*
X165953140Y-88069135D01*
X165950835Y-88103686D01*
X165950107Y-88151083D01*
X165818689Y-88151083D01*
X165818687Y-88150760D01*
X165818843Y-88106598D01*
X165819639Y-88063458D01*
X165821375Y-88031632D01*
X165824338Y-88007985D01*
X165828819Y-87989382D01*
X165835106Y-87972686D01*
X165846380Y-87949585D01*
X165884467Y-87896055D01*
X165932796Y-87854452D01*
X165989289Y-87825650D01*
X166051866Y-87810521D01*
X166118449Y-87809941D01*
X166186957Y-87824783D01*
X166195905Y-87828038D01*
X166243551Y-87854409D01*
X166287147Y-87892514D01*
X166322427Y-87937994D01*
X166345126Y-87986488D01*
X166350316Y-88007535D01*
X166356916Y-88053864D01*
X166360588Y-88108733D01*
X166360826Y-88127676D01*
X166361320Y-88167102D01*
X166359103Y-88223927D01*
G37*
X166359103Y-88223927D02*
X166353927Y-88274166D01*
X166345781Y-88312779D01*
X166329755Y-88351403D01*
X166294730Y-88401760D01*
X166248429Y-88443033D01*
X166193753Y-88472817D01*
X166133603Y-88488706D01*
X166071729Y-88492081D01*
X166016252Y-88483822D01*
X165960726Y-88462921D01*
X165911276Y-88432163D01*
X165868125Y-88387084D01*
X165835106Y-88328834D01*
X165829978Y-88315693D01*
X165825142Y-88297749D01*
X165821885Y-88275420D01*
X165819916Y-88245569D01*
X165818946Y-88205061D01*
X165818689Y-88151083D01*
X165950107Y-88151083D01*
X165950339Y-88190522D01*
X165951739Y-88223739D01*
X165954917Y-88247957D01*
X165960464Y-88267416D01*
X165968971Y-88286356D01*
X165975316Y-88297430D01*
X165994178Y-88321816D01*
X166013421Y-88337995D01*
X166045254Y-88351463D01*
X166090727Y-88357907D01*
X166133906Y-88350569D01*
X166171796Y-88330619D01*
X166201403Y-88299223D01*
X166219730Y-88257551D01*
X166225426Y-88223148D01*
X166228539Y-88177137D01*
X166228687Y-88127676D01*
X166225859Y-88081469D01*
X166220045Y-88045223D01*
X166203520Y-88006509D01*
X166175929Y-87975536D01*
X166140973Y-87954875D01*
X166101813Y-87944863D01*
X166061609Y-87945838D01*
X166023520Y-87958139D01*
X165990708Y-87982104D01*
X165966331Y-88018070D01*
X165964458Y-88022356D01*
X165957517Y-88043376D01*
X165953140Y-88069135D01*
X165950835Y-88103686D01*
X165950107Y-88151083D01*
X165818689Y-88151083D01*
X165818687Y-88150760D01*
X165818843Y-88106598D01*
X165819639Y-88063458D01*
X165821375Y-88031632D01*
X165824338Y-88007985D01*
X165828819Y-87989382D01*
X165835106Y-87972686D01*
X165846380Y-87949585D01*
X165884467Y-87896055D01*
X165932796Y-87854452D01*
X165989289Y-87825650D01*
X166051866Y-87810521D01*
X166118449Y-87809941D01*
X166186957Y-87824783D01*
X166195905Y-87828038D01*
X166243551Y-87854409D01*
X166287147Y-87892514D01*
X166322427Y-87937994D01*
X166345126Y-87986488D01*
X166350316Y-88007535D01*
X166356916Y-88053864D01*
X166360588Y-88108733D01*
X166360826Y-88127676D01*
X166361320Y-88167102D01*
X166359103Y-88223927D01*
G36*
X162837657Y-88229183D02*
G01*
X162836039Y-88264450D01*
X162833214Y-88290687D01*
X162828910Y-88311016D01*
X162822852Y-88328560D01*
X162814431Y-88346984D01*
X162779266Y-88399416D01*
X162733059Y-88442109D01*
X162678795Y-88472708D01*
X162619466Y-88488856D01*
X162548395Y-88492049D01*
X162484520Y-88480955D01*
X162427673Y-88455059D01*
X162376643Y-88413988D01*
X162372463Y-88409741D01*
X162345113Y-88378497D01*
X162324972Y-88346856D01*
X162311043Y-88311540D01*
X162302329Y-88269270D01*
X162297832Y-88216770D01*
X162296554Y-88150760D01*
X162296557Y-88149128D01*
X162427835Y-88149128D01*
X162428728Y-88184665D01*
X162436249Y-88245517D01*
X162451624Y-88292101D01*
X162475102Y-88325036D01*
X162506933Y-88344940D01*
X162530708Y-88352340D01*
X162580290Y-88357321D01*
X162624986Y-88347503D01*
X162662745Y-88323539D01*
X162691512Y-88286086D01*
X162696731Y-88274849D01*
X162701926Y-88256711D01*
X162705125Y-88232363D01*
X162706741Y-88198235D01*
X162707188Y-88150760D01*
X162706997Y-88124864D01*
X162704773Y-88075258D01*
X162699340Y-88038090D01*
X162689805Y-88010294D01*
X162675280Y-87988804D01*
X162654873Y-87970554D01*
X162630010Y-87956305D01*
X162587888Y-87945592D01*
X162544141Y-87947246D01*
X162503556Y-87960864D01*
X162470921Y-87986042D01*
X162467454Y-87990101D01*
X162448637Y-88018414D01*
X162436435Y-88051808D01*
X162429837Y-88094104D01*
X162427835Y-88149128D01*
X162296557Y-88149128D01*
X162296574Y-88141204D01*
X162298217Y-88077156D01*
X162303211Y-88026185D01*
X162312554Y-87985016D01*
X162327242Y-87950369D01*
X162348272Y-87918967D01*
X162376643Y-87887533D01*
X162414578Y-87854514D01*
X162461082Y-87828262D01*
X162513786Y-87813883D01*
X162576876Y-87809751D01*
X162631300Y-87815299D01*
X162692979Y-87835638D01*
X162746836Y-87869606D01*
X162790813Y-87915835D01*
X162822852Y-87972960D01*
X162826286Y-87982067D01*
X162831383Y-88000692D01*
X162834872Y-88023752D01*
X162837026Y-88054367D01*
X162838118Y-88095662D01*
X162838421Y-88150760D01*
X162838342Y-88181762D01*
X162837657Y-88229183D01*
G37*
X162837657Y-88229183D02*
X162836039Y-88264450D01*
X162833214Y-88290687D01*
X162828910Y-88311016D01*
X162822852Y-88328560D01*
X162814431Y-88346984D01*
X162779266Y-88399416D01*
X162733059Y-88442109D01*
X162678795Y-88472708D01*
X162619466Y-88488856D01*
X162548395Y-88492049D01*
X162484520Y-88480955D01*
X162427673Y-88455059D01*
X162376643Y-88413988D01*
X162372463Y-88409741D01*
X162345113Y-88378497D01*
X162324972Y-88346856D01*
X162311043Y-88311540D01*
X162302329Y-88269270D01*
X162297832Y-88216770D01*
X162296554Y-88150760D01*
X162296557Y-88149128D01*
X162427835Y-88149128D01*
X162428728Y-88184665D01*
X162436249Y-88245517D01*
X162451624Y-88292101D01*
X162475102Y-88325036D01*
X162506933Y-88344940D01*
X162530708Y-88352340D01*
X162580290Y-88357321D01*
X162624986Y-88347503D01*
X162662745Y-88323539D01*
X162691512Y-88286086D01*
X162696731Y-88274849D01*
X162701926Y-88256711D01*
X162705125Y-88232363D01*
X162706741Y-88198235D01*
X162707188Y-88150760D01*
X162706997Y-88124864D01*
X162704773Y-88075258D01*
X162699340Y-88038090D01*
X162689805Y-88010294D01*
X162675280Y-87988804D01*
X162654873Y-87970554D01*
X162630010Y-87956305D01*
X162587888Y-87945592D01*
X162544141Y-87947246D01*
X162503556Y-87960864D01*
X162470921Y-87986042D01*
X162467454Y-87990101D01*
X162448637Y-88018414D01*
X162436435Y-88051808D01*
X162429837Y-88094104D01*
X162427835Y-88149128D01*
X162296557Y-88149128D01*
X162296574Y-88141204D01*
X162298217Y-88077156D01*
X162303211Y-88026185D01*
X162312554Y-87985016D01*
X162327242Y-87950369D01*
X162348272Y-87918967D01*
X162376643Y-87887533D01*
X162414578Y-87854514D01*
X162461082Y-87828262D01*
X162513786Y-87813883D01*
X162576876Y-87809751D01*
X162631300Y-87815299D01*
X162692979Y-87835638D01*
X162746836Y-87869606D01*
X162790813Y-87915835D01*
X162822852Y-87972960D01*
X162826286Y-87982067D01*
X162831383Y-88000692D01*
X162834872Y-88023752D01*
X162837026Y-88054367D01*
X162838118Y-88095662D01*
X162838421Y-88150760D01*
X162838342Y-88181762D01*
X162837657Y-88229183D01*
G36*
X165065584Y-88195843D02*
G01*
X165054341Y-88271908D01*
X165031132Y-88338201D01*
X164996445Y-88393878D01*
X164950764Y-88438095D01*
X164894578Y-88470006D01*
X164828373Y-88488767D01*
X164820273Y-88490028D01*
X164746961Y-88492731D01*
X164676825Y-88479974D01*
X164612252Y-88452439D01*
X164555628Y-88410808D01*
X164528701Y-88385649D01*
X164575804Y-88345455D01*
X164622907Y-88305260D01*
X164663717Y-88330629D01*
X164704896Y-88351530D01*
X164756778Y-88365044D01*
X164805650Y-88364274D01*
X164849465Y-88349966D01*
X164886173Y-88322871D01*
X164913727Y-88283736D01*
X164930079Y-88233310D01*
X164935805Y-88201560D01*
X164508014Y-88201560D01*
X164513415Y-88113297D01*
X164515077Y-88091494D01*
X164648328Y-88091494D01*
X164935805Y-88091494D01*
X164929990Y-88059744D01*
X164929902Y-88059263D01*
X164913794Y-88012034D01*
X164886296Y-87974652D01*
X164849878Y-87948872D01*
X164807010Y-87936449D01*
X164760163Y-87939137D01*
X164731699Y-87948307D01*
X164695298Y-87972664D01*
X164669691Y-88009563D01*
X164654229Y-88059744D01*
X164648328Y-88091494D01*
X164515077Y-88091494D01*
X164515666Y-88083778D01*
X164524489Y-88022610D01*
X164539086Y-87972979D01*
X164560679Y-87931415D01*
X164590488Y-87894449D01*
X164634341Y-87855899D01*
X164684433Y-87828770D01*
X164742601Y-87813621D01*
X164745624Y-87813160D01*
X164815338Y-87810180D01*
X164878323Y-87822328D01*
X164933700Y-87848858D01*
X164980590Y-87889026D01*
X165018111Y-87942084D01*
X165045385Y-88007288D01*
X165061531Y-88083892D01*
X165062333Y-88091494D01*
X165064375Y-88110853D01*
X165065584Y-88195843D01*
G37*
X165065584Y-88195843D02*
X165054341Y-88271908D01*
X165031132Y-88338201D01*
X164996445Y-88393878D01*
X164950764Y-88438095D01*
X164894578Y-88470006D01*
X164828373Y-88488767D01*
X164820273Y-88490028D01*
X164746961Y-88492731D01*
X164676825Y-88479974D01*
X164612252Y-88452439D01*
X164555628Y-88410808D01*
X164528701Y-88385649D01*
X164575804Y-88345455D01*
X164622907Y-88305260D01*
X164663717Y-88330629D01*
X164704896Y-88351530D01*
X164756778Y-88365044D01*
X164805650Y-88364274D01*
X164849465Y-88349966D01*
X164886173Y-88322871D01*
X164913727Y-88283736D01*
X164930079Y-88233310D01*
X164935805Y-88201560D01*
X164508014Y-88201560D01*
X164513415Y-88113297D01*
X164515077Y-88091494D01*
X164648328Y-88091494D01*
X164935805Y-88091494D01*
X164929990Y-88059744D01*
X164929902Y-88059263D01*
X164913794Y-88012034D01*
X164886296Y-87974652D01*
X164849878Y-87948872D01*
X164807010Y-87936449D01*
X164760163Y-87939137D01*
X164731699Y-87948307D01*
X164695298Y-87972664D01*
X164669691Y-88009563D01*
X164654229Y-88059744D01*
X164648328Y-88091494D01*
X164515077Y-88091494D01*
X164515666Y-88083778D01*
X164524489Y-88022610D01*
X164539086Y-87972979D01*
X164560679Y-87931415D01*
X164590488Y-87894449D01*
X164634341Y-87855899D01*
X164684433Y-87828770D01*
X164742601Y-87813621D01*
X164745624Y-87813160D01*
X164815338Y-87810180D01*
X164878323Y-87822328D01*
X164933700Y-87848858D01*
X164980590Y-87889026D01*
X165018111Y-87942084D01*
X165045385Y-88007288D01*
X165061531Y-88083892D01*
X165062333Y-88091494D01*
X165064375Y-88110853D01*
X165065584Y-88195843D01*
G36*
X165560454Y-89547760D02*
G01*
X165560454Y-89329421D01*
X165560447Y-89300553D01*
X165560312Y-89240017D01*
X165559874Y-89193217D01*
X165558965Y-89157874D01*
X165557413Y-89131711D01*
X165555051Y-89112450D01*
X165551708Y-89097814D01*
X165547216Y-89085524D01*
X165541404Y-89073304D01*
X165522801Y-89046122D01*
X165490338Y-89020752D01*
X165452151Y-89007385D01*
X165411773Y-89006013D01*
X165372736Y-89016629D01*
X165338573Y-89039226D01*
X165312817Y-89073796D01*
X165309903Y-89080201D01*
X165305990Y-89092414D01*
X165303025Y-89108652D01*
X165300882Y-89131066D01*
X165299435Y-89161808D01*
X165298557Y-89203028D01*
X165298121Y-89256879D01*
X165298001Y-89325510D01*
X165297987Y-89547760D01*
X165162521Y-89547760D01*
X165162604Y-89295877D01*
X165162611Y-89275761D01*
X165162700Y-89207776D01*
X165162990Y-89154080D01*
X165163625Y-89112570D01*
X165164749Y-89081142D01*
X165166505Y-89057695D01*
X165169038Y-89040126D01*
X165172491Y-89026332D01*
X165177008Y-89014211D01*
X165182733Y-89001660D01*
X165197741Y-88974752D01*
X165234920Y-88930835D01*
X165280434Y-88898354D01*
X165331543Y-88877883D01*
X165385510Y-88869993D01*
X165439596Y-88875259D01*
X165491062Y-88894251D01*
X165537171Y-88927543D01*
X165560454Y-88949795D01*
X165560454Y-88685245D01*
X165560432Y-88651093D01*
X165560183Y-88581407D01*
X165559611Y-88526638D01*
X165558658Y-88485369D01*
X165557266Y-88456183D01*
X165555376Y-88437661D01*
X165552930Y-88428387D01*
X165549871Y-88426944D01*
X165548646Y-88427685D01*
X165533687Y-88437586D01*
X165513888Y-88451490D01*
X165471474Y-88475229D01*
X165418347Y-88489783D01*
X165364167Y-88490885D01*
X165311629Y-88479503D01*
X165263426Y-88456606D01*
X165222252Y-88423162D01*
X165190801Y-88380140D01*
X165171767Y-88328507D01*
X165171027Y-88324735D01*
X165167357Y-88293999D01*
X165164761Y-88251212D01*
X165163241Y-88200509D01*
X165162835Y-88150760D01*
X165298359Y-88150760D01*
X165298402Y-88162018D01*
X165300641Y-88221645D01*
X165306738Y-88267095D01*
X165317322Y-88300486D01*
X165333024Y-88323937D01*
X165354472Y-88339567D01*
X165375672Y-88348295D01*
X165421615Y-88357153D01*
X165465757Y-88354028D01*
X165472646Y-88352187D01*
X165506841Y-88334449D01*
X165532325Y-88304017D01*
X165549348Y-88260297D01*
X165558156Y-88202694D01*
X165558999Y-88130613D01*
X165555922Y-88086213D01*
X165546354Y-88032649D01*
X165530060Y-87993077D01*
X165506180Y-87966243D01*
X165473854Y-87950895D01*
X165432223Y-87945778D01*
X165407225Y-87946545D01*
X165369745Y-87953665D01*
X165341347Y-87969484D01*
X165321022Y-87995554D01*
X165307757Y-88033424D01*
X165300540Y-88084643D01*
X165298359Y-88150760D01*
X165162835Y-88150760D01*
X165162796Y-88146026D01*
X165163426Y-88091900D01*
X165165131Y-88042265D01*
X165167912Y-88001257D01*
X165171767Y-87973013D01*
X165172967Y-87967770D01*
X165193747Y-87916143D01*
X165227631Y-87872857D01*
X165272260Y-87839711D01*
X165325272Y-87818504D01*
X165384307Y-87811035D01*
X165431705Y-87814562D01*
X165484017Y-87830034D01*
X165532482Y-87859353D01*
X165560454Y-87880689D01*
X165560454Y-87812094D01*
X165695921Y-87812094D01*
X165695921Y-89547760D01*
X165560454Y-89547760D01*
G37*
X165560454Y-89547760D02*
X165560454Y-89329421D01*
X165560447Y-89300553D01*
X165560312Y-89240017D01*
X165559874Y-89193217D01*
X165558965Y-89157874D01*
X165557413Y-89131711D01*
X165555051Y-89112450D01*
X165551708Y-89097814D01*
X165547216Y-89085524D01*
X165541404Y-89073304D01*
X165522801Y-89046122D01*
X165490338Y-89020752D01*
X165452151Y-89007385D01*
X165411773Y-89006013D01*
X165372736Y-89016629D01*
X165338573Y-89039226D01*
X165312817Y-89073796D01*
X165309903Y-89080201D01*
X165305990Y-89092414D01*
X165303025Y-89108652D01*
X165300882Y-89131066D01*
X165299435Y-89161808D01*
X165298557Y-89203028D01*
X165298121Y-89256879D01*
X165298001Y-89325510D01*
X165297987Y-89547760D01*
X165162521Y-89547760D01*
X165162604Y-89295877D01*
X165162611Y-89275761D01*
X165162700Y-89207776D01*
X165162990Y-89154080D01*
X165163625Y-89112570D01*
X165164749Y-89081142D01*
X165166505Y-89057695D01*
X165169038Y-89040126D01*
X165172491Y-89026332D01*
X165177008Y-89014211D01*
X165182733Y-89001660D01*
X165197741Y-88974752D01*
X165234920Y-88930835D01*
X165280434Y-88898354D01*
X165331543Y-88877883D01*
X165385510Y-88869993D01*
X165439596Y-88875259D01*
X165491062Y-88894251D01*
X165537171Y-88927543D01*
X165560454Y-88949795D01*
X165560454Y-88685245D01*
X165560432Y-88651093D01*
X165560183Y-88581407D01*
X165559611Y-88526638D01*
X165558658Y-88485369D01*
X165557266Y-88456183D01*
X165555376Y-88437661D01*
X165552930Y-88428387D01*
X165549871Y-88426944D01*
X165548646Y-88427685D01*
X165533687Y-88437586D01*
X165513888Y-88451490D01*
X165471474Y-88475229D01*
X165418347Y-88489783D01*
X165364167Y-88490885D01*
X165311629Y-88479503D01*
X165263426Y-88456606D01*
X165222252Y-88423162D01*
X165190801Y-88380140D01*
X165171767Y-88328507D01*
X165171027Y-88324735D01*
X165167357Y-88293999D01*
X165164761Y-88251212D01*
X165163241Y-88200509D01*
X165162835Y-88150760D01*
X165298359Y-88150760D01*
X165298402Y-88162018D01*
X165300641Y-88221645D01*
X165306738Y-88267095D01*
X165317322Y-88300486D01*
X165333024Y-88323937D01*
X165354472Y-88339567D01*
X165375672Y-88348295D01*
X165421615Y-88357153D01*
X165465757Y-88354028D01*
X165472646Y-88352187D01*
X165506841Y-88334449D01*
X165532325Y-88304017D01*
X165549348Y-88260297D01*
X165558156Y-88202694D01*
X165558999Y-88130613D01*
X165555922Y-88086213D01*
X165546354Y-88032649D01*
X165530060Y-87993077D01*
X165506180Y-87966243D01*
X165473854Y-87950895D01*
X165432223Y-87945778D01*
X165407225Y-87946545D01*
X165369745Y-87953665D01*
X165341347Y-87969484D01*
X165321022Y-87995554D01*
X165307757Y-88033424D01*
X165300540Y-88084643D01*
X165298359Y-88150760D01*
X165162835Y-88150760D01*
X165162796Y-88146026D01*
X165163426Y-88091900D01*
X165165131Y-88042265D01*
X165167912Y-88001257D01*
X165171767Y-87973013D01*
X165172967Y-87967770D01*
X165193747Y-87916143D01*
X165227631Y-87872857D01*
X165272260Y-87839711D01*
X165325272Y-87818504D01*
X165384307Y-87811035D01*
X165431705Y-87814562D01*
X165484017Y-87830034D01*
X165532482Y-87859353D01*
X165560454Y-87880689D01*
X165560454Y-87812094D01*
X165695921Y-87812094D01*
X165695921Y-89547760D01*
X165560454Y-89547760D01*
G36*
X163913179Y-89302026D02*
G01*
X163910811Y-89348610D01*
X163907261Y-89386109D01*
X163902509Y-89411175D01*
X163899488Y-89419807D01*
X163877888Y-89457696D01*
X163845701Y-89493861D01*
X163807679Y-89523650D01*
X163768568Y-89542410D01*
X163723162Y-89552250D01*
X163661776Y-89552211D01*
X163604279Y-89536515D01*
X163552684Y-89505504D01*
X163519987Y-89479229D01*
X163519987Y-89547760D01*
X163384521Y-89547760D01*
X163384521Y-89209094D01*
X163524221Y-89209094D01*
X163524982Y-89257992D01*
X163528582Y-89307083D01*
X163535892Y-89343898D01*
X163547734Y-89370962D01*
X163564931Y-89390798D01*
X163588302Y-89405930D01*
X163590621Y-89407062D01*
X163620370Y-89416755D01*
X163651221Y-89420734D01*
X163651920Y-89420732D01*
X163695771Y-89413208D01*
X163733585Y-89392677D01*
X163760999Y-89361493D01*
X163764826Y-89354483D01*
X163770686Y-89340015D01*
X163774566Y-89322015D01*
X163776856Y-89297132D01*
X163777945Y-89262019D01*
X163778221Y-89213327D01*
X163778219Y-89208493D01*
X163777792Y-89159802D01*
X163776391Y-89124528D01*
X163773682Y-89099442D01*
X163769328Y-89081310D01*
X163762993Y-89066902D01*
X163739484Y-89037929D01*
X163704298Y-89016238D01*
X163663333Y-89005709D01*
X163621017Y-89007429D01*
X163581782Y-89022484D01*
X163561013Y-89037324D01*
X163545410Y-89055140D01*
X163534813Y-89078358D01*
X163528339Y-89109845D01*
X163525103Y-89152468D01*
X163524221Y-89209094D01*
X163384521Y-89209094D01*
X163384521Y-88607960D01*
X163519987Y-88607960D01*
X163519987Y-88948132D01*
X163547441Y-88925032D01*
X163560124Y-88915063D01*
X163612225Y-88886334D01*
X163667528Y-88872477D01*
X163723400Y-88872892D01*
X163777205Y-88886980D01*
X163826309Y-88914140D01*
X163868079Y-88953772D01*
X163899879Y-89005278D01*
X163903813Y-89019260D01*
X163908072Y-89050035D01*
X163911282Y-89091815D01*
X163913419Y-89141252D01*
X163914462Y-89194999D01*
X163914437Y-89213327D01*
X163914389Y-89249707D01*
X163913179Y-89302026D01*
G37*
X163913179Y-89302026D02*
X163910811Y-89348610D01*
X163907261Y-89386109D01*
X163902509Y-89411175D01*
X163899488Y-89419807D01*
X163877888Y-89457696D01*
X163845701Y-89493861D01*
X163807679Y-89523650D01*
X163768568Y-89542410D01*
X163723162Y-89552250D01*
X163661776Y-89552211D01*
X163604279Y-89536515D01*
X163552684Y-89505504D01*
X163519987Y-89479229D01*
X163519987Y-89547760D01*
X163384521Y-89547760D01*
X163384521Y-89209094D01*
X163524221Y-89209094D01*
X163524982Y-89257992D01*
X163528582Y-89307083D01*
X163535892Y-89343898D01*
X163547734Y-89370962D01*
X163564931Y-89390798D01*
X163588302Y-89405930D01*
X163590621Y-89407062D01*
X163620370Y-89416755D01*
X163651221Y-89420734D01*
X163651920Y-89420732D01*
X163695771Y-89413208D01*
X163733585Y-89392677D01*
X163760999Y-89361493D01*
X163764826Y-89354483D01*
X163770686Y-89340015D01*
X163774566Y-89322015D01*
X163776856Y-89297132D01*
X163777945Y-89262019D01*
X163778221Y-89213327D01*
X163778219Y-89208493D01*
X163777792Y-89159802D01*
X163776391Y-89124528D01*
X163773682Y-89099442D01*
X163769328Y-89081310D01*
X163762993Y-89066902D01*
X163739484Y-89037929D01*
X163704298Y-89016238D01*
X163663333Y-89005709D01*
X163621017Y-89007429D01*
X163581782Y-89022484D01*
X163561013Y-89037324D01*
X163545410Y-89055140D01*
X163534813Y-89078358D01*
X163528339Y-89109845D01*
X163525103Y-89152468D01*
X163524221Y-89209094D01*
X163384521Y-89209094D01*
X163384521Y-88607960D01*
X163519987Y-88607960D01*
X163519987Y-88948132D01*
X163547441Y-88925032D01*
X163560124Y-88915063D01*
X163612225Y-88886334D01*
X163667528Y-88872477D01*
X163723400Y-88872892D01*
X163777205Y-88886980D01*
X163826309Y-88914140D01*
X163868079Y-88953772D01*
X163899879Y-89005278D01*
X163903813Y-89019260D01*
X163908072Y-89050035D01*
X163911282Y-89091815D01*
X163913419Y-89141252D01*
X163914462Y-89194999D01*
X163914437Y-89213327D01*
X163914389Y-89249707D01*
X163913179Y-89302026D01*
G36*
X162344642Y-89377906D02*
G01*
X162330890Y-89432456D01*
X162302906Y-89477882D01*
X162260840Y-89513981D01*
X162204839Y-89540554D01*
X162157098Y-89552189D01*
X162102924Y-89555712D01*
X162050843Y-89550133D01*
X162005200Y-89535950D01*
X161970340Y-89513663D01*
X161945187Y-89490166D01*
X161945187Y-89547760D01*
X161809721Y-89547760D01*
X161809721Y-89296859D01*
X161809728Y-89283770D01*
X161809872Y-89257607D01*
X161945187Y-89257607D01*
X161945187Y-89304054D01*
X161945190Y-89305580D01*
X161949247Y-89354979D01*
X161961196Y-89390111D01*
X161981322Y-89411820D01*
X161990065Y-89415937D01*
X162018521Y-89422645D01*
X162055459Y-89426240D01*
X162095271Y-89426566D01*
X162132349Y-89423468D01*
X162161087Y-89416791D01*
X162169854Y-89413529D01*
X162188767Y-89406724D01*
X162197503Y-89403954D01*
X162198086Y-89403540D01*
X162203680Y-89393705D01*
X162212131Y-89374916D01*
X162213905Y-89370515D01*
X162219790Y-89344818D01*
X162215014Y-89319626D01*
X162210404Y-89308700D01*
X162197447Y-89291522D01*
X162177220Y-89279065D01*
X162147322Y-89270490D01*
X162105351Y-89264959D01*
X162048904Y-89261633D01*
X161945187Y-89257607D01*
X161809872Y-89257607D01*
X161810208Y-89197022D01*
X161811437Y-89126386D01*
X161813408Y-89072063D01*
X161816113Y-89034254D01*
X161819547Y-89013162D01*
X161823715Y-89001309D01*
X161848546Y-88959152D01*
X161885291Y-88922550D01*
X161930003Y-88895699D01*
X161934470Y-88893844D01*
X161978939Y-88881206D01*
X162032938Y-88873438D01*
X162090414Y-88870848D01*
X162145317Y-88873743D01*
X162191593Y-88882429D01*
X162201486Y-88885775D01*
X162229450Y-88898646D01*
X162258271Y-88915582D01*
X162283887Y-88933802D01*
X162302235Y-88950525D01*
X162309254Y-88962971D01*
X162309087Y-88963639D01*
X162301057Y-88973002D01*
X162283374Y-88989047D01*
X162259364Y-89008725D01*
X162251401Y-89014952D01*
X162228430Y-89032026D01*
X162214129Y-89039970D01*
X162205110Y-89040182D01*
X162197981Y-89034062D01*
X162190981Y-89027032D01*
X162162919Y-89011105D01*
X162126050Y-89001158D01*
X162084509Y-88997115D01*
X162042432Y-88998902D01*
X162003954Y-89006442D01*
X161973210Y-89019663D01*
X161954336Y-89038487D01*
X161951046Y-89047731D01*
X161946835Y-89072281D01*
X161945187Y-89101656D01*
X161945187Y-89147731D01*
X162070071Y-89151617D01*
X162126769Y-89154081D01*
X162174580Y-89158328D01*
X162211406Y-89164993D01*
X162240325Y-89174869D01*
X162264412Y-89188750D01*
X162286746Y-89207426D01*
X162315892Y-89242030D01*
X162338526Y-89291744D01*
X162345567Y-89344818D01*
X162346147Y-89349191D01*
X162344642Y-89377906D01*
G37*
X162344642Y-89377906D02*
X162330890Y-89432456D01*
X162302906Y-89477882D01*
X162260840Y-89513981D01*
X162204839Y-89540554D01*
X162157098Y-89552189D01*
X162102924Y-89555712D01*
X162050843Y-89550133D01*
X162005200Y-89535950D01*
X161970340Y-89513663D01*
X161945187Y-89490166D01*
X161945187Y-89547760D01*
X161809721Y-89547760D01*
X161809721Y-89296859D01*
X161809728Y-89283770D01*
X161809872Y-89257607D01*
X161945187Y-89257607D01*
X161945187Y-89304054D01*
X161945190Y-89305580D01*
X161949247Y-89354979D01*
X161961196Y-89390111D01*
X161981322Y-89411820D01*
X161990065Y-89415937D01*
X162018521Y-89422645D01*
X162055459Y-89426240D01*
X162095271Y-89426566D01*
X162132349Y-89423468D01*
X162161087Y-89416791D01*
X162169854Y-89413529D01*
X162188767Y-89406724D01*
X162197503Y-89403954D01*
X162198086Y-89403540D01*
X162203680Y-89393705D01*
X162212131Y-89374916D01*
X162213905Y-89370515D01*
X162219790Y-89344818D01*
X162215014Y-89319626D01*
X162210404Y-89308700D01*
X162197447Y-89291522D01*
X162177220Y-89279065D01*
X162147322Y-89270490D01*
X162105351Y-89264959D01*
X162048904Y-89261633D01*
X161945187Y-89257607D01*
X161809872Y-89257607D01*
X161810208Y-89197022D01*
X161811437Y-89126386D01*
X161813408Y-89072063D01*
X161816113Y-89034254D01*
X161819547Y-89013162D01*
X161823715Y-89001309D01*
X161848546Y-88959152D01*
X161885291Y-88922550D01*
X161930003Y-88895699D01*
X161934470Y-88893844D01*
X161978939Y-88881206D01*
X162032938Y-88873438D01*
X162090414Y-88870848D01*
X162145317Y-88873743D01*
X162191593Y-88882429D01*
X162201486Y-88885775D01*
X162229450Y-88898646D01*
X162258271Y-88915582D01*
X162283887Y-88933802D01*
X162302235Y-88950525D01*
X162309254Y-88962971D01*
X162309087Y-88963639D01*
X162301057Y-88973002D01*
X162283374Y-88989047D01*
X162259364Y-89008725D01*
X162251401Y-89014952D01*
X162228430Y-89032026D01*
X162214129Y-89039970D01*
X162205110Y-89040182D01*
X162197981Y-89034062D01*
X162190981Y-89027032D01*
X162162919Y-89011105D01*
X162126050Y-89001158D01*
X162084509Y-88997115D01*
X162042432Y-88998902D01*
X162003954Y-89006442D01*
X161973210Y-89019663D01*
X161954336Y-89038487D01*
X161951046Y-89047731D01*
X161946835Y-89072281D01*
X161945187Y-89101656D01*
X161945187Y-89147731D01*
X162070071Y-89151617D01*
X162126769Y-89154081D01*
X162174580Y-89158328D01*
X162211406Y-89164993D01*
X162240325Y-89174869D01*
X162264412Y-89188750D01*
X162286746Y-89207426D01*
X162315892Y-89242030D01*
X162338526Y-89291744D01*
X162345567Y-89344818D01*
X162346147Y-89349191D01*
X162344642Y-89377906D01*
G36*
X161199920Y-89213327D02*
G01*
X161198816Y-89256273D01*
X161190164Y-89329078D01*
X161172362Y-89389946D01*
X161144750Y-89440795D01*
X161106666Y-89483544D01*
X161102320Y-89487397D01*
X161047614Y-89524667D01*
X160984221Y-89548159D01*
X160959328Y-89552888D01*
X160899993Y-89554820D01*
X160838240Y-89546076D01*
X160778654Y-89527880D01*
X160725817Y-89501456D01*
X160684314Y-89468030D01*
X160664837Y-89447297D01*
X160696473Y-89419212D01*
X160700897Y-89415291D01*
X160728603Y-89391684D01*
X160748301Y-89378464D01*
X160763795Y-89374540D01*
X160778890Y-89378816D01*
X160797391Y-89390198D01*
X160803366Y-89394111D01*
X160853050Y-89417297D01*
X160904943Y-89426888D01*
X160955320Y-89422627D01*
X161000459Y-89404256D01*
X161012989Y-89394949D01*
X161039104Y-89364474D01*
X161057620Y-89327362D01*
X161064654Y-89290491D01*
X161064654Y-89259894D01*
X160649787Y-89259894D01*
X160649787Y-89196810D01*
X160649796Y-89193070D01*
X160652623Y-89149827D01*
X160783137Y-89149827D01*
X161064654Y-89149827D01*
X161064654Y-89127100D01*
X161063311Y-89111995D01*
X161050373Y-89074458D01*
X161026733Y-89040063D01*
X160996134Y-89014936D01*
X160962563Y-89002464D01*
X160920738Y-88998409D01*
X160880018Y-89004258D01*
X160846867Y-89019799D01*
X160822971Y-89044934D01*
X160801887Y-89081662D01*
X160788605Y-89122488D01*
X160783137Y-89149827D01*
X160652623Y-89149827D01*
X160654855Y-89115693D01*
X160669614Y-89050751D01*
X160694655Y-88996472D01*
X160730561Y-88951084D01*
X160766248Y-88921296D01*
X160821261Y-88891782D01*
X160880958Y-88875060D01*
X160942310Y-88871235D01*
X161002287Y-88880410D01*
X161057859Y-88902690D01*
X161105996Y-88938179D01*
X161123371Y-88956472D01*
X161157908Y-89005991D01*
X161181713Y-89063945D01*
X161194423Y-89127100D01*
X161195484Y-89132375D01*
X161199920Y-89213327D01*
G37*
X161199920Y-89213327D02*
X161198816Y-89256273D01*
X161190164Y-89329078D01*
X161172362Y-89389946D01*
X161144750Y-89440795D01*
X161106666Y-89483544D01*
X161102320Y-89487397D01*
X161047614Y-89524667D01*
X160984221Y-89548159D01*
X160959328Y-89552888D01*
X160899993Y-89554820D01*
X160838240Y-89546076D01*
X160778654Y-89527880D01*
X160725817Y-89501456D01*
X160684314Y-89468030D01*
X160664837Y-89447297D01*
X160696473Y-89419212D01*
X160700897Y-89415291D01*
X160728603Y-89391684D01*
X160748301Y-89378464D01*
X160763795Y-89374540D01*
X160778890Y-89378816D01*
X160797391Y-89390198D01*
X160803366Y-89394111D01*
X160853050Y-89417297D01*
X160904943Y-89426888D01*
X160955320Y-89422627D01*
X161000459Y-89404256D01*
X161012989Y-89394949D01*
X161039104Y-89364474D01*
X161057620Y-89327362D01*
X161064654Y-89290491D01*
X161064654Y-89259894D01*
X160649787Y-89259894D01*
X160649787Y-89196810D01*
X160649796Y-89193070D01*
X160652623Y-89149827D01*
X160783137Y-89149827D01*
X161064654Y-89149827D01*
X161064654Y-89127100D01*
X161063311Y-89111995D01*
X161050373Y-89074458D01*
X161026733Y-89040063D01*
X160996134Y-89014936D01*
X160962563Y-89002464D01*
X160920738Y-88998409D01*
X160880018Y-89004258D01*
X160846867Y-89019799D01*
X160822971Y-89044934D01*
X160801887Y-89081662D01*
X160788605Y-89122488D01*
X160783137Y-89149827D01*
X160652623Y-89149827D01*
X160654855Y-89115693D01*
X160669614Y-89050751D01*
X160694655Y-88996472D01*
X160730561Y-88951084D01*
X160766248Y-88921296D01*
X160821261Y-88891782D01*
X160880958Y-88875060D01*
X160942310Y-88871235D01*
X161002287Y-88880410D01*
X161057859Y-88902690D01*
X161105996Y-88938179D01*
X161123371Y-88956472D01*
X161157908Y-89005991D01*
X161181713Y-89063945D01*
X161194423Y-89127100D01*
X161195484Y-89132375D01*
X161199920Y-89213327D01*
G36*
X161386992Y-88873329D02*
G01*
X161440573Y-88889022D01*
X161487633Y-88918654D01*
X161521854Y-88947946D01*
X161521854Y-88878894D01*
X161657321Y-88878894D01*
X161657321Y-89547760D01*
X161521854Y-89547760D01*
X161521823Y-89321277D01*
X161521815Y-89300114D01*
X161521678Y-89236258D01*
X161521261Y-89186592D01*
X161520423Y-89148985D01*
X161519023Y-89121304D01*
X161516919Y-89101418D01*
X161513969Y-89087193D01*
X161510032Y-89076498D01*
X161504967Y-89067199D01*
X161495003Y-89053116D01*
X161461739Y-89024485D01*
X161421063Y-89008795D01*
X161376544Y-89007013D01*
X161331748Y-89020111D01*
X161325638Y-89022923D01*
X161307797Y-89029752D01*
X161299348Y-89030694D01*
X161298363Y-89029441D01*
X161289065Y-89018240D01*
X161272434Y-88998479D01*
X161251217Y-88973428D01*
X161230450Y-88948153D01*
X161217503Y-88929542D01*
X161213717Y-88918249D01*
X161217713Y-88911734D01*
X161219253Y-88910712D01*
X161273120Y-88884091D01*
X161330104Y-88871658D01*
X161386992Y-88873329D01*
G37*
X161386992Y-88873329D02*
X161440573Y-88889022D01*
X161487633Y-88918654D01*
X161521854Y-88947946D01*
X161521854Y-88878894D01*
X161657321Y-88878894D01*
X161657321Y-89547760D01*
X161521854Y-89547760D01*
X161521823Y-89321277D01*
X161521815Y-89300114D01*
X161521678Y-89236258D01*
X161521261Y-89186592D01*
X161520423Y-89148985D01*
X161519023Y-89121304D01*
X161516919Y-89101418D01*
X161513969Y-89087193D01*
X161510032Y-89076498D01*
X161504967Y-89067199D01*
X161495003Y-89053116D01*
X161461739Y-89024485D01*
X161421063Y-89008795D01*
X161376544Y-89007013D01*
X161331748Y-89020111D01*
X161325638Y-89022923D01*
X161307797Y-89029752D01*
X161299348Y-89030694D01*
X161298363Y-89029441D01*
X161289065Y-89018240D01*
X161272434Y-88998479D01*
X161251217Y-88973428D01*
X161230450Y-88948153D01*
X161217503Y-88929542D01*
X161213717Y-88918249D01*
X161217713Y-88911734D01*
X161219253Y-88910712D01*
X161273120Y-88884091D01*
X161330104Y-88871658D01*
X161386992Y-88873329D01*
G36*
X162173416Y-88063621D02*
G01*
X162173337Y-88102365D01*
X162172942Y-88172846D01*
X162172018Y-88229423D01*
X162170291Y-88274150D01*
X162167492Y-88309084D01*
X162163350Y-88336282D01*
X162157593Y-88357798D01*
X162149950Y-88375690D01*
X162140152Y-88392012D01*
X162127926Y-88408822D01*
X162122237Y-88415789D01*
X162086308Y-88447688D01*
X162041578Y-88473355D01*
X161994745Y-88488768D01*
X161968415Y-88492393D01*
X161909799Y-88489555D01*
X161855406Y-88472085D01*
X161808614Y-88440853D01*
X161775854Y-88411256D01*
X161775854Y-88489427D01*
X161640387Y-88489427D01*
X161640387Y-87812094D01*
X161775854Y-87812094D01*
X161775854Y-88030433D01*
X161775862Y-88059782D01*
X161775997Y-88120198D01*
X161776435Y-88166889D01*
X161777345Y-88202126D01*
X161778896Y-88228182D01*
X161781259Y-88247330D01*
X161784601Y-88261843D01*
X161789093Y-88273993D01*
X161794904Y-88286054D01*
X161805960Y-88305558D01*
X161831435Y-88335250D01*
X161862983Y-88351563D01*
X161904312Y-88356899D01*
X161951347Y-88351344D01*
X161989575Y-88332438D01*
X162018123Y-88299896D01*
X162022670Y-88291174D01*
X162026590Y-88279564D01*
X162029672Y-88263588D01*
X162032083Y-88241153D01*
X162033987Y-88210164D01*
X162035550Y-88168527D01*
X162036940Y-88114146D01*
X162038321Y-88044927D01*
X162042554Y-87816327D01*
X162173788Y-87811381D01*
X162173416Y-88063621D01*
G37*
X162173416Y-88063621D02*
X162173337Y-88102365D01*
X162172942Y-88172846D01*
X162172018Y-88229423D01*
X162170291Y-88274150D01*
X162167492Y-88309084D01*
X162163350Y-88336282D01*
X162157593Y-88357798D01*
X162149950Y-88375690D01*
X162140152Y-88392012D01*
X162127926Y-88408822D01*
X162122237Y-88415789D01*
X162086308Y-88447688D01*
X162041578Y-88473355D01*
X161994745Y-88488768D01*
X161968415Y-88492393D01*
X161909799Y-88489555D01*
X161855406Y-88472085D01*
X161808614Y-88440853D01*
X161775854Y-88411256D01*
X161775854Y-88489427D01*
X161640387Y-88489427D01*
X161640387Y-87812094D01*
X161775854Y-87812094D01*
X161775854Y-88030433D01*
X161775862Y-88059782D01*
X161775997Y-88120198D01*
X161776435Y-88166889D01*
X161777345Y-88202126D01*
X161778896Y-88228182D01*
X161781259Y-88247330D01*
X161784601Y-88261843D01*
X161789093Y-88273993D01*
X161794904Y-88286054D01*
X161805960Y-88305558D01*
X161831435Y-88335250D01*
X161862983Y-88351563D01*
X161904312Y-88356899D01*
X161951347Y-88351344D01*
X161989575Y-88332438D01*
X162018123Y-88299896D01*
X162022670Y-88291174D01*
X162026590Y-88279564D01*
X162029672Y-88263588D01*
X162032083Y-88241153D01*
X162033987Y-88210164D01*
X162035550Y-88168527D01*
X162036940Y-88114146D01*
X162038321Y-88044927D01*
X162042554Y-87816327D01*
X162173788Y-87811381D01*
X162173416Y-88063621D01*
G36*
X164118407Y-88876471D02*
G01*
X164171035Y-88895375D01*
X164216371Y-88927543D01*
X164239654Y-88949795D01*
X164239654Y-88878894D01*
X164375121Y-88878894D01*
X164375121Y-89547760D01*
X164239654Y-89547760D01*
X164239641Y-89325510D01*
X164239639Y-89317577D01*
X164239423Y-89245322D01*
X164238562Y-89187762D01*
X164236663Y-89142858D01*
X164233327Y-89108574D01*
X164228160Y-89082871D01*
X164220765Y-89063711D01*
X164210746Y-89049057D01*
X164197707Y-89036870D01*
X164181252Y-89025112D01*
X164163855Y-89016088D01*
X164126152Y-89007036D01*
X164086851Y-89007745D01*
X164053387Y-89018594D01*
X164036648Y-89026861D01*
X164023116Y-89030993D01*
X164020893Y-89030224D01*
X164008781Y-89020175D01*
X163990398Y-89000916D01*
X163968766Y-88975529D01*
X163947089Y-88947865D01*
X163934884Y-88929279D01*
X163931484Y-88918007D01*
X163935538Y-88911444D01*
X163951581Y-88901334D01*
X164005198Y-88879251D01*
X164061968Y-88871030D01*
X164118407Y-88876471D01*
G37*
X164118407Y-88876471D02*
X164171035Y-88895375D01*
X164216371Y-88927543D01*
X164239654Y-88949795D01*
X164239654Y-88878894D01*
X164375121Y-88878894D01*
X164375121Y-89547760D01*
X164239654Y-89547760D01*
X164239641Y-89325510D01*
X164239639Y-89317577D01*
X164239423Y-89245322D01*
X164238562Y-89187762D01*
X164236663Y-89142858D01*
X164233327Y-89108574D01*
X164228160Y-89082871D01*
X164220765Y-89063711D01*
X164210746Y-89049057D01*
X164197707Y-89036870D01*
X164181252Y-89025112D01*
X164163855Y-89016088D01*
X164126152Y-89007036D01*
X164086851Y-89007745D01*
X164053387Y-89018594D01*
X164036648Y-89026861D01*
X164023116Y-89030993D01*
X164020893Y-89030224D01*
X164008781Y-89020175D01*
X163990398Y-89000916D01*
X163968766Y-88975529D01*
X163947089Y-88947865D01*
X163934884Y-88929279D01*
X163931484Y-88918007D01*
X163935538Y-88911444D01*
X163951581Y-88901334D01*
X164005198Y-88879251D01*
X164061968Y-88871030D01*
X164118407Y-88876471D01*
G36*
X160793810Y-87812314D02*
G01*
X160857320Y-87827106D01*
X160915401Y-87854413D01*
X160964728Y-87893912D01*
X160988391Y-87922738D01*
X161019657Y-87979574D01*
X161040979Y-88045112D01*
X161051934Y-88115949D01*
X161052099Y-88188680D01*
X161041053Y-88259901D01*
X161018373Y-88326210D01*
X161016647Y-88329926D01*
X160980047Y-88388781D01*
X160932177Y-88435629D01*
X160874566Y-88469285D01*
X160808739Y-88488567D01*
X160806263Y-88488975D01*
X160733379Y-88492525D01*
X160663447Y-88479625D01*
X160597758Y-88450668D01*
X160537604Y-88406047D01*
X160533988Y-88402650D01*
X160519990Y-88387701D01*
X160514321Y-88378431D01*
X160514350Y-88378184D01*
X160521084Y-88369396D01*
X160537352Y-88353345D01*
X160559839Y-88333315D01*
X160605358Y-88294428D01*
X160647746Y-88322953D01*
X160683241Y-88342482D01*
X160733347Y-88356746D01*
X160782074Y-88356478D01*
X160826920Y-88342180D01*
X160865380Y-88314351D01*
X160894952Y-88273494D01*
X160899255Y-88264882D01*
X160908192Y-88243132D01*
X160913422Y-88220401D01*
X160915876Y-88191380D01*
X160916487Y-88150760D01*
X160916421Y-88134468D01*
X160915254Y-88098635D01*
X160911907Y-88072490D01*
X160905451Y-88050723D01*
X160894952Y-88028026D01*
X160870907Y-87993294D01*
X160833742Y-87963727D01*
X160789723Y-87947243D01*
X160741520Y-87944338D01*
X160691804Y-87955509D01*
X160643243Y-87981252D01*
X160605911Y-88007566D01*
X160560116Y-87968442D01*
X160558257Y-87966848D01*
X160536051Y-87946946D01*
X160520304Y-87931269D01*
X160514321Y-87923090D01*
X160514463Y-87922147D01*
X160522371Y-87910876D01*
X160539587Y-87893882D01*
X160562197Y-87874755D01*
X160586287Y-87857084D01*
X160603963Y-87846262D01*
X160663807Y-87821568D01*
X160728197Y-87810360D01*
X160793810Y-87812314D01*
G37*
X160793810Y-87812314D02*
X160857320Y-87827106D01*
X160915401Y-87854413D01*
X160964728Y-87893912D01*
X160988391Y-87922738D01*
X161019657Y-87979574D01*
X161040979Y-88045112D01*
X161051934Y-88115949D01*
X161052099Y-88188680D01*
X161041053Y-88259901D01*
X161018373Y-88326210D01*
X161016647Y-88329926D01*
X160980047Y-88388781D01*
X160932177Y-88435629D01*
X160874566Y-88469285D01*
X160808739Y-88488567D01*
X160806263Y-88488975D01*
X160733379Y-88492525D01*
X160663447Y-88479625D01*
X160597758Y-88450668D01*
X160537604Y-88406047D01*
X160533988Y-88402650D01*
X160519990Y-88387701D01*
X160514321Y-88378431D01*
X160514350Y-88378184D01*
X160521084Y-88369396D01*
X160537352Y-88353345D01*
X160559839Y-88333315D01*
X160605358Y-88294428D01*
X160647746Y-88322953D01*
X160683241Y-88342482D01*
X160733347Y-88356746D01*
X160782074Y-88356478D01*
X160826920Y-88342180D01*
X160865380Y-88314351D01*
X160894952Y-88273494D01*
X160899255Y-88264882D01*
X160908192Y-88243132D01*
X160913422Y-88220401D01*
X160915876Y-88191380D01*
X160916487Y-88150760D01*
X160916421Y-88134468D01*
X160915254Y-88098635D01*
X160911907Y-88072490D01*
X160905451Y-88050723D01*
X160894952Y-88028026D01*
X160870907Y-87993294D01*
X160833742Y-87963727D01*
X160789723Y-87947243D01*
X160741520Y-87944338D01*
X160691804Y-87955509D01*
X160643243Y-87981252D01*
X160605911Y-88007566D01*
X160560116Y-87968442D01*
X160558257Y-87966848D01*
X160536051Y-87946946D01*
X160520304Y-87931269D01*
X160514321Y-87923090D01*
X160514463Y-87922147D01*
X160522371Y-87910876D01*
X160539587Y-87893882D01*
X160562197Y-87874755D01*
X160586287Y-87857084D01*
X160603963Y-87846262D01*
X160663807Y-87821568D01*
X160728197Y-87810360D01*
X160793810Y-87812314D01*
G36*
X164096909Y-87810577D02*
G01*
X164148948Y-87816421D01*
X164192684Y-87833090D01*
X164233920Y-87862711D01*
X164265054Y-87890048D01*
X164265054Y-87812094D01*
X164400521Y-87812094D01*
X164400521Y-88489427D01*
X164266064Y-88489427D01*
X164263442Y-88262944D01*
X164263242Y-88245868D01*
X164262368Y-88181039D01*
X164261375Y-88130502D01*
X164260097Y-88092111D01*
X164258366Y-88063715D01*
X164256017Y-88043167D01*
X164252882Y-88028319D01*
X164248794Y-88017021D01*
X164243588Y-88007126D01*
X164229631Y-87987774D01*
X164196802Y-87961182D01*
X164158111Y-87946862D01*
X164117128Y-87944751D01*
X164077421Y-87954788D01*
X164042559Y-87976912D01*
X164016113Y-88011060D01*
X164015117Y-88012982D01*
X164009916Y-88024332D01*
X164005859Y-88037096D01*
X164002769Y-88053490D01*
X164000468Y-88075733D01*
X163998779Y-88106040D01*
X163997524Y-88146629D01*
X163996528Y-88199717D01*
X163995611Y-88267522D01*
X163992868Y-88490117D01*
X163927878Y-88487655D01*
X163862887Y-88485194D01*
X163863020Y-88235427D01*
X163863027Y-88221842D01*
X163863124Y-88152832D01*
X163863416Y-88098253D01*
X163864047Y-88055973D01*
X163865164Y-88023860D01*
X163866912Y-87999780D01*
X163869438Y-87981601D01*
X163872888Y-87967191D01*
X163877406Y-87954418D01*
X163883139Y-87941149D01*
X163892578Y-87922475D01*
X163928440Y-87875259D01*
X163974992Y-87839950D01*
X164030058Y-87817912D01*
X164091464Y-87810509D01*
X164096909Y-87810577D01*
G37*
X164096909Y-87810577D02*
X164148948Y-87816421D01*
X164192684Y-87833090D01*
X164233920Y-87862711D01*
X164265054Y-87890048D01*
X164265054Y-87812094D01*
X164400521Y-87812094D01*
X164400521Y-88489427D01*
X164266064Y-88489427D01*
X164263442Y-88262944D01*
X164263242Y-88245868D01*
X164262368Y-88181039D01*
X164261375Y-88130502D01*
X164260097Y-88092111D01*
X164258366Y-88063715D01*
X164256017Y-88043167D01*
X164252882Y-88028319D01*
X164248794Y-88017021D01*
X164243588Y-88007126D01*
X164229631Y-87987774D01*
X164196802Y-87961182D01*
X164158111Y-87946862D01*
X164117128Y-87944751D01*
X164077421Y-87954788D01*
X164042559Y-87976912D01*
X164016113Y-88011060D01*
X164015117Y-88012982D01*
X164009916Y-88024332D01*
X164005859Y-88037096D01*
X164002769Y-88053490D01*
X164000468Y-88075733D01*
X163998779Y-88106040D01*
X163997524Y-88146629D01*
X163996528Y-88199717D01*
X163995611Y-88267522D01*
X163992868Y-88490117D01*
X163927878Y-88487655D01*
X163862887Y-88485194D01*
X163863020Y-88235427D01*
X163863027Y-88221842D01*
X163863124Y-88152832D01*
X163863416Y-88098253D01*
X163864047Y-88055973D01*
X163865164Y-88023860D01*
X163866912Y-87999780D01*
X163869438Y-87981601D01*
X163872888Y-87967191D01*
X163877406Y-87954418D01*
X163883139Y-87941149D01*
X163892578Y-87922475D01*
X163928440Y-87875259D01*
X163974992Y-87839950D01*
X164030058Y-87817912D01*
X164091464Y-87810509D01*
X164096909Y-87810577D01*
G36*
X162958823Y-89107494D02*
G01*
X162962495Y-89118786D01*
X162981530Y-89176736D01*
X162998912Y-89228698D01*
X163013940Y-89272642D01*
X163025911Y-89306541D01*
X163034126Y-89328367D01*
X163037882Y-89336093D01*
X163038111Y-89335929D01*
X163042067Y-89325937D01*
X163049695Y-89301951D01*
X163060390Y-89266041D01*
X163073545Y-89220281D01*
X163088554Y-89166741D01*
X163104809Y-89107494D01*
X163166886Y-88878894D01*
X163238174Y-88878894D01*
X163271081Y-88879054D01*
X163292556Y-88880142D01*
X163303079Y-88883054D01*
X163305732Y-88888689D01*
X163303600Y-88897944D01*
X163303212Y-88899197D01*
X163297232Y-88918194D01*
X163286141Y-88953102D01*
X163270000Y-89003733D01*
X163248869Y-89069900D01*
X163222808Y-89151415D01*
X163191876Y-89248090D01*
X163156134Y-89359738D01*
X163095697Y-89548483D01*
X163035788Y-89546005D01*
X162975878Y-89543527D01*
X162905883Y-89310693D01*
X162890674Y-89260315D01*
X162873087Y-89202997D01*
X162859260Y-89159494D01*
X162848663Y-89128374D01*
X162840770Y-89108201D01*
X162835052Y-89097542D01*
X162830983Y-89094962D01*
X162828035Y-89099027D01*
X162824264Y-89110511D01*
X162816182Y-89136637D01*
X162804722Y-89174454D01*
X162790611Y-89221549D01*
X162774573Y-89275514D01*
X162757335Y-89333937D01*
X162694488Y-89547680D01*
X162572922Y-89547760D01*
X162559638Y-89503310D01*
X162555296Y-89489189D01*
X162545855Y-89459118D01*
X162532499Y-89416934D01*
X162515928Y-89364833D01*
X162496839Y-89305012D01*
X162475931Y-89239667D01*
X162453903Y-89170994D01*
X162361452Y-88883127D01*
X162429538Y-88880651D01*
X162438892Y-88880348D01*
X162469494Y-88879922D01*
X162491766Y-88880488D01*
X162501418Y-88881968D01*
X162502568Y-88884657D01*
X162507792Y-88901055D01*
X162516394Y-88930224D01*
X162527694Y-88969799D01*
X162541012Y-89017417D01*
X162555668Y-89070711D01*
X162561429Y-89091807D01*
X162576754Y-89147747D01*
X162591111Y-89199897D01*
X162603629Y-89245118D01*
X162613443Y-89280274D01*
X162619684Y-89302227D01*
X162633244Y-89348793D01*
X162644343Y-89314927D01*
X162647781Y-89304377D01*
X162656549Y-89277331D01*
X162669048Y-89238696D01*
X162684414Y-89191144D01*
X162701784Y-89137347D01*
X162720293Y-89079977D01*
X162785143Y-88878894D01*
X162884614Y-88878894D01*
X162958823Y-89107494D01*
G37*
X162958823Y-89107494D02*
X162962495Y-89118786D01*
X162981530Y-89176736D01*
X162998912Y-89228698D01*
X163013940Y-89272642D01*
X163025911Y-89306541D01*
X163034126Y-89328367D01*
X163037882Y-89336093D01*
X163038111Y-89335929D01*
X163042067Y-89325937D01*
X163049695Y-89301951D01*
X163060390Y-89266041D01*
X163073545Y-89220281D01*
X163088554Y-89166741D01*
X163104809Y-89107494D01*
X163166886Y-88878894D01*
X163238174Y-88878894D01*
X163271081Y-88879054D01*
X163292556Y-88880142D01*
X163303079Y-88883054D01*
X163305732Y-88888689D01*
X163303600Y-88897944D01*
X163303212Y-88899197D01*
X163297232Y-88918194D01*
X163286141Y-88953102D01*
X163270000Y-89003733D01*
X163248869Y-89069900D01*
X163222808Y-89151415D01*
X163191876Y-89248090D01*
X163156134Y-89359738D01*
X163095697Y-89548483D01*
X163035788Y-89546005D01*
X162975878Y-89543527D01*
X162905883Y-89310693D01*
X162890674Y-89260315D01*
X162873087Y-89202997D01*
X162859260Y-89159494D01*
X162848663Y-89128374D01*
X162840770Y-89108201D01*
X162835052Y-89097542D01*
X162830983Y-89094962D01*
X162828035Y-89099027D01*
X162824264Y-89110511D01*
X162816182Y-89136637D01*
X162804722Y-89174454D01*
X162790611Y-89221549D01*
X162774573Y-89275514D01*
X162757335Y-89333937D01*
X162694488Y-89547680D01*
X162572922Y-89547760D01*
X162559638Y-89503310D01*
X162555296Y-89489189D01*
X162545855Y-89459118D01*
X162532499Y-89416934D01*
X162515928Y-89364833D01*
X162496839Y-89305012D01*
X162475931Y-89239667D01*
X162453903Y-89170994D01*
X162361452Y-88883127D01*
X162429538Y-88880651D01*
X162438892Y-88880348D01*
X162469494Y-88879922D01*
X162491766Y-88880488D01*
X162501418Y-88881968D01*
X162502568Y-88884657D01*
X162507792Y-88901055D01*
X162516394Y-88930224D01*
X162527694Y-88969799D01*
X162541012Y-89017417D01*
X162555668Y-89070711D01*
X162561429Y-89091807D01*
X162576754Y-89147747D01*
X162591111Y-89199897D01*
X162603629Y-89245118D01*
X162613443Y-89280274D01*
X162619684Y-89302227D01*
X162633244Y-89348793D01*
X162644343Y-89314927D01*
X162647781Y-89304377D01*
X162656549Y-89277331D01*
X162669048Y-89238696D01*
X162684414Y-89191144D01*
X162701784Y-89137347D01*
X162720293Y-89079977D01*
X162785143Y-88878894D01*
X162884614Y-88878894D01*
X162958823Y-89107494D01*
G36*
X161182744Y-87810405D02*
G01*
X161225232Y-87814975D01*
X161268128Y-87826738D01*
X161305661Y-87843652D01*
X161332063Y-87863676D01*
X161340314Y-87872060D01*
X161352541Y-87878654D01*
X161359062Y-87870067D01*
X161360987Y-87845604D01*
X161360987Y-87811381D01*
X161492221Y-87816327D01*
X161494440Y-88142270D01*
X161494529Y-88155927D01*
X161494879Y-88228063D01*
X161495002Y-88294708D01*
X161494909Y-88353954D01*
X161494611Y-88403895D01*
X161494118Y-88442625D01*
X161493441Y-88468235D01*
X161492589Y-88478820D01*
X161486088Y-88483859D01*
X161463826Y-88488051D01*
X161425470Y-88489427D01*
X161362421Y-88489427D01*
X161359588Y-88262944D01*
X161359380Y-88246600D01*
X161358445Y-88181602D01*
X161357404Y-88130919D01*
X161356090Y-88092402D01*
X161354334Y-88063903D01*
X161351968Y-88043275D01*
X161348823Y-88028368D01*
X161344730Y-88017034D01*
X161339521Y-88007126D01*
X161315648Y-87978426D01*
X161280354Y-87955974D01*
X161240183Y-87944709D01*
X161199563Y-87945801D01*
X161162921Y-87960422D01*
X161138421Y-87976502D01*
X161113614Y-87947214D01*
X161109061Y-87941816D01*
X161085941Y-87913973D01*
X161063874Y-87886877D01*
X161038940Y-87855826D01*
X161085363Y-87833113D01*
X161096352Y-87827973D01*
X161137514Y-87814359D01*
X161181466Y-87810400D01*
X161182744Y-87810405D01*
G37*
X161182744Y-87810405D02*
X161225232Y-87814975D01*
X161268128Y-87826738D01*
X161305661Y-87843652D01*
X161332063Y-87863676D01*
X161340314Y-87872060D01*
X161352541Y-87878654D01*
X161359062Y-87870067D01*
X161360987Y-87845604D01*
X161360987Y-87811381D01*
X161492221Y-87816327D01*
X161494440Y-88142270D01*
X161494529Y-88155927D01*
X161494879Y-88228063D01*
X161495002Y-88294708D01*
X161494909Y-88353954D01*
X161494611Y-88403895D01*
X161494118Y-88442625D01*
X161493441Y-88468235D01*
X161492589Y-88478820D01*
X161486088Y-88483859D01*
X161463826Y-88488051D01*
X161425470Y-88489427D01*
X161362421Y-88489427D01*
X161359588Y-88262944D01*
X161359380Y-88246600D01*
X161358445Y-88181602D01*
X161357404Y-88130919D01*
X161356090Y-88092402D01*
X161354334Y-88063903D01*
X161351968Y-88043275D01*
X161348823Y-88028368D01*
X161344730Y-88017034D01*
X161339521Y-88007126D01*
X161315648Y-87978426D01*
X161280354Y-87955974D01*
X161240183Y-87944709D01*
X161199563Y-87945801D01*
X161162921Y-87960422D01*
X161138421Y-87976502D01*
X161113614Y-87947214D01*
X161109061Y-87941816D01*
X161085941Y-87913973D01*
X161063874Y-87886877D01*
X161038940Y-87855826D01*
X161085363Y-87833113D01*
X161096352Y-87827973D01*
X161137514Y-87814359D01*
X161181466Y-87810400D01*
X161182744Y-87810405D01*
G36*
X163260068Y-87813458D02*
G01*
X163295751Y-87819353D01*
X163352558Y-87842174D01*
X163397526Y-87875974D01*
X163429372Y-87919390D01*
X163447171Y-87971156D01*
X163449994Y-88030005D01*
X163449819Y-88032086D01*
X163439866Y-88083140D01*
X163419112Y-88124623D01*
X163386534Y-88157294D01*
X163341107Y-88181914D01*
X163281807Y-88199244D01*
X163207611Y-88210044D01*
X163201093Y-88210671D01*
X163149549Y-88216549D01*
X163112428Y-88223340D01*
X163087467Y-88232175D01*
X163072403Y-88244182D01*
X163064974Y-88260489D01*
X163062917Y-88282226D01*
X163063920Y-88295772D01*
X163076673Y-88325861D01*
X163103663Y-88347591D01*
X163144358Y-88360637D01*
X163198226Y-88364674D01*
X163254775Y-88359846D01*
X163307964Y-88343912D01*
X163359346Y-88314911D01*
X163403468Y-88284561D01*
X163449309Y-88329832D01*
X163495150Y-88375104D01*
X163467352Y-88398654D01*
X163458096Y-88406185D01*
X163398382Y-88444019D01*
X163329651Y-88472497D01*
X163257521Y-88489194D01*
X163193366Y-88493011D01*
X163128249Y-88486896D01*
X163068120Y-88471428D01*
X163016515Y-88447529D01*
X162976971Y-88416119D01*
X162972670Y-88411387D01*
X162945896Y-88373939D01*
X162931740Y-88333655D01*
X162927965Y-88284531D01*
X162928615Y-88264596D01*
X162935060Y-88218344D01*
X162949594Y-88181515D01*
X162973825Y-88149373D01*
X162995872Y-88129366D01*
X163025168Y-88111794D01*
X163061760Y-88098977D01*
X163108839Y-88089838D01*
X163169592Y-88083300D01*
X163206846Y-88079805D01*
X163250156Y-88073448D01*
X163280348Y-88064793D01*
X163299707Y-88052756D01*
X163310520Y-88036249D01*
X163315072Y-88014188D01*
X163314520Y-87998796D01*
X163302781Y-87972951D01*
X163278957Y-87953758D01*
X163245538Y-87941637D01*
X163205012Y-87937005D01*
X163159869Y-87940281D01*
X163112596Y-87951884D01*
X163065684Y-87972234D01*
X163021697Y-87996059D01*
X162982975Y-87951208D01*
X162982091Y-87950182D01*
X162962996Y-87927020D01*
X162949421Y-87908702D01*
X162944254Y-87899114D01*
X162949806Y-87891182D01*
X162967457Y-87878001D01*
X162993369Y-87862520D01*
X163023581Y-87846914D01*
X163054131Y-87833358D01*
X163081057Y-87824027D01*
X163117059Y-87816980D01*
X163164412Y-87812408D01*
X163214185Y-87811189D01*
X163260068Y-87813458D01*
G37*
X163260068Y-87813458D02*
X163295751Y-87819353D01*
X163352558Y-87842174D01*
X163397526Y-87875974D01*
X163429372Y-87919390D01*
X163447171Y-87971156D01*
X163449994Y-88030005D01*
X163449819Y-88032086D01*
X163439866Y-88083140D01*
X163419112Y-88124623D01*
X163386534Y-88157294D01*
X163341107Y-88181914D01*
X163281807Y-88199244D01*
X163207611Y-88210044D01*
X163201093Y-88210671D01*
X163149549Y-88216549D01*
X163112428Y-88223340D01*
X163087467Y-88232175D01*
X163072403Y-88244182D01*
X163064974Y-88260489D01*
X163062917Y-88282226D01*
X163063920Y-88295772D01*
X163076673Y-88325861D01*
X163103663Y-88347591D01*
X163144358Y-88360637D01*
X163198226Y-88364674D01*
X163254775Y-88359846D01*
X163307964Y-88343912D01*
X163359346Y-88314911D01*
X163403468Y-88284561D01*
X163449309Y-88329832D01*
X163495150Y-88375104D01*
X163467352Y-88398654D01*
X163458096Y-88406185D01*
X163398382Y-88444019D01*
X163329651Y-88472497D01*
X163257521Y-88489194D01*
X163193366Y-88493011D01*
X163128249Y-88486896D01*
X163068120Y-88471428D01*
X163016515Y-88447529D01*
X162976971Y-88416119D01*
X162972670Y-88411387D01*
X162945896Y-88373939D01*
X162931740Y-88333655D01*
X162927965Y-88284531D01*
X162928615Y-88264596D01*
X162935060Y-88218344D01*
X162949594Y-88181515D01*
X162973825Y-88149373D01*
X162995872Y-88129366D01*
X163025168Y-88111794D01*
X163061760Y-88098977D01*
X163108839Y-88089838D01*
X163169592Y-88083300D01*
X163206846Y-88079805D01*
X163250156Y-88073448D01*
X163280348Y-88064793D01*
X163299707Y-88052756D01*
X163310520Y-88036249D01*
X163315072Y-88014188D01*
X163314520Y-87998796D01*
X163302781Y-87972951D01*
X163278957Y-87953758D01*
X163245538Y-87941637D01*
X163205012Y-87937005D01*
X163159869Y-87940281D01*
X163112596Y-87951884D01*
X163065684Y-87972234D01*
X163021697Y-87996059D01*
X162982975Y-87951208D01*
X162982091Y-87950182D01*
X162962996Y-87927020D01*
X162949421Y-87908702D01*
X162944254Y-87899114D01*
X162949806Y-87891182D01*
X162967457Y-87878001D01*
X162993369Y-87862520D01*
X163023581Y-87846914D01*
X163054131Y-87833358D01*
X163081057Y-87824027D01*
X163117059Y-87816980D01*
X163164412Y-87812408D01*
X163214185Y-87811189D01*
X163260068Y-87813458D01*
G36*
X165059388Y-89374516D02*
G01*
X165046061Y-89430598D01*
X165018736Y-89477219D01*
X164977729Y-89513937D01*
X164923357Y-89540311D01*
X164885055Y-89550525D01*
X164829135Y-89556285D01*
X164774861Y-89552338D01*
X164726583Y-89539116D01*
X164688650Y-89517049D01*
X164662988Y-89495455D01*
X164662988Y-89547760D01*
X164527521Y-89547760D01*
X164527521Y-89259894D01*
X164662988Y-89259894D01*
X164662988Y-89317276D01*
X164663009Y-89322054D01*
X164666061Y-89362897D01*
X164675486Y-89390824D01*
X164693017Y-89408949D01*
X164720387Y-89420384D01*
X164734133Y-89423478D01*
X164776549Y-89427743D01*
X164822952Y-89426876D01*
X164864624Y-89420850D01*
X164870038Y-89419440D01*
X164904100Y-89402859D01*
X164926109Y-89377113D01*
X164933921Y-89344560D01*
X164930840Y-89320742D01*
X164918012Y-89297699D01*
X164893971Y-89280711D01*
X164857389Y-89269195D01*
X164806942Y-89262572D01*
X164741304Y-89260262D01*
X164662988Y-89259894D01*
X164527521Y-89259894D01*
X164527521Y-89026152D01*
X164548691Y-88984273D01*
X164574625Y-88945953D01*
X164617082Y-88910763D01*
X164672117Y-88886682D01*
X164739559Y-88873780D01*
X164819239Y-88872130D01*
X164861816Y-88875358D01*
X164903636Y-88882707D01*
X164938154Y-88894684D01*
X164949897Y-88900394D01*
X164977556Y-88916814D01*
X165002345Y-88935027D01*
X165020199Y-88951856D01*
X165027054Y-88964127D01*
X165027019Y-88964381D01*
X165019895Y-88972609D01*
X165002796Y-88987539D01*
X164979189Y-89006131D01*
X164960833Y-89019596D01*
X164940686Y-89032132D01*
X164927502Y-89035897D01*
X164917806Y-89032378D01*
X164906525Y-89024640D01*
X164871495Y-89007657D01*
X164831202Y-88999459D01*
X164780402Y-88998761D01*
X164770345Y-88999278D01*
X164726997Y-89004013D01*
X164697337Y-89013697D01*
X164678788Y-89030439D01*
X164668774Y-89056352D01*
X164664717Y-89093547D01*
X164662214Y-89149827D01*
X164762084Y-89149959D01*
X164796673Y-89150615D01*
X164842024Y-89153074D01*
X164882181Y-89156921D01*
X164911277Y-89161696D01*
X164949357Y-89174087D01*
X164996704Y-89202638D01*
X165031737Y-89242079D01*
X165053424Y-89291119D01*
X165060237Y-89344560D01*
X165060735Y-89348471D01*
X165059388Y-89374516D01*
G37*
X165059388Y-89374516D02*
X165046061Y-89430598D01*
X165018736Y-89477219D01*
X164977729Y-89513937D01*
X164923357Y-89540311D01*
X164885055Y-89550525D01*
X164829135Y-89556285D01*
X164774861Y-89552338D01*
X164726583Y-89539116D01*
X164688650Y-89517049D01*
X164662988Y-89495455D01*
X164662988Y-89547760D01*
X164527521Y-89547760D01*
X164527521Y-89259894D01*
X164662988Y-89259894D01*
X164662988Y-89317276D01*
X164663009Y-89322054D01*
X164666061Y-89362897D01*
X164675486Y-89390824D01*
X164693017Y-89408949D01*
X164720387Y-89420384D01*
X164734133Y-89423478D01*
X164776549Y-89427743D01*
X164822952Y-89426876D01*
X164864624Y-89420850D01*
X164870038Y-89419440D01*
X164904100Y-89402859D01*
X164926109Y-89377113D01*
X164933921Y-89344560D01*
X164930840Y-89320742D01*
X164918012Y-89297699D01*
X164893971Y-89280711D01*
X164857389Y-89269195D01*
X164806942Y-89262572D01*
X164741304Y-89260262D01*
X164662988Y-89259894D01*
X164527521Y-89259894D01*
X164527521Y-89026152D01*
X164548691Y-88984273D01*
X164574625Y-88945953D01*
X164617082Y-88910763D01*
X164672117Y-88886682D01*
X164739559Y-88873780D01*
X164819239Y-88872130D01*
X164861816Y-88875358D01*
X164903636Y-88882707D01*
X164938154Y-88894684D01*
X164949897Y-88900394D01*
X164977556Y-88916814D01*
X165002345Y-88935027D01*
X165020199Y-88951856D01*
X165027054Y-88964127D01*
X165027019Y-88964381D01*
X165019895Y-88972609D01*
X165002796Y-88987539D01*
X164979189Y-89006131D01*
X164960833Y-89019596D01*
X164940686Y-89032132D01*
X164927502Y-89035897D01*
X164917806Y-89032378D01*
X164906525Y-89024640D01*
X164871495Y-89007657D01*
X164831202Y-88999459D01*
X164780402Y-88998761D01*
X164770345Y-88999278D01*
X164726997Y-89004013D01*
X164697337Y-89013697D01*
X164678788Y-89030439D01*
X164668774Y-89056352D01*
X164664717Y-89093547D01*
X164662214Y-89149827D01*
X164762084Y-89149959D01*
X164796673Y-89150615D01*
X164842024Y-89153074D01*
X164882181Y-89156921D01*
X164911277Y-89161696D01*
X164949357Y-89174087D01*
X164996704Y-89202638D01*
X165031737Y-89242079D01*
X165053424Y-89291119D01*
X165060237Y-89344560D01*
X165060735Y-89348471D01*
X165059388Y-89374516D01*
D11*
X235058009Y-89415698D02*
X235058009Y-89115698D01*
X232858009Y-89215698D02*
X232858009Y-89315698D01*
X235058009Y-89115698D02*
X235058009Y-84715698D01*
X232858009Y-89415698D02*
X235058009Y-89415698D01*
X232858009Y-84715698D02*
X232858009Y-89115698D01*
X235058009Y-89115698D02*
X235058009Y-89215698D01*
X235058009Y-84715698D02*
X232858009Y-84715698D01*
X232858009Y-89315698D02*
X235058009Y-89315698D01*
X232858009Y-89415698D02*
X232858009Y-88915698D01*
X232858009Y-88915698D02*
X232858009Y-89415698D01*
X235058009Y-89315698D02*
X235058009Y-89415698D01*
X235058009Y-89415698D02*
X232858009Y-89415698D01*
X232858009Y-89115698D02*
X235058009Y-89115698D01*
X235058009Y-89215698D02*
X232858009Y-89215698D01*
D12*
X11820000Y-17010000D02*
X11820000Y-18210000D01*
X13580000Y-18210000D02*
X13580000Y-17010000D01*
D11*
X62598491Y-69865682D02*
X62598491Y-70365682D01*
X64798491Y-70365682D02*
X64798491Y-70065682D01*
X62598491Y-70365682D02*
X62598491Y-69865682D01*
X62598491Y-70165682D02*
X62598491Y-70265682D01*
X62598491Y-70065682D02*
X64798491Y-70065682D01*
X62598491Y-70365682D02*
X64798491Y-70365682D01*
X62598491Y-70265682D02*
X64798491Y-70265682D01*
X64798491Y-65665682D02*
X62598491Y-65665682D01*
X64798491Y-70065682D02*
X64798491Y-70165682D01*
X62598491Y-65665682D02*
X62598491Y-70065682D01*
X64798491Y-70165682D02*
X62598491Y-70165682D01*
X64798491Y-70365682D02*
X62598491Y-70365682D01*
X64798491Y-70265682D02*
X64798491Y-70365682D01*
X64798491Y-70065682D02*
X64798491Y-65665682D01*
D12*
X116776661Y-81898507D02*
X117776661Y-81898507D01*
X117776661Y-83598507D02*
X116776661Y-83598507D01*
X116776661Y-74754751D02*
X117776661Y-74754751D01*
X117776661Y-76454751D02*
X116776661Y-76454751D01*
D11*
X42176597Y-70165682D02*
X39976597Y-70165682D01*
X39976597Y-70365682D02*
X42176597Y-70365682D01*
X42176597Y-70065682D02*
X42176597Y-70165682D01*
X42176597Y-70365682D02*
X39976597Y-70365682D01*
X42176597Y-65665682D02*
X39976597Y-65665682D01*
X39976597Y-70265682D02*
X42176597Y-70265682D01*
X39976597Y-70165682D02*
X39976597Y-70265682D01*
X39976597Y-69865682D02*
X39976597Y-70365682D01*
X39976597Y-65665682D02*
X39976597Y-70065682D01*
X39976597Y-70365682D02*
X39976597Y-69865682D01*
X42176597Y-70065682D02*
X42176597Y-65665682D01*
X42176597Y-70365682D02*
X42176597Y-70065682D01*
X39976597Y-70065682D02*
X42176597Y-70065682D01*
X42176597Y-70265682D02*
X42176597Y-70365682D01*
X235239261Y-27565650D02*
X235239261Y-31965650D01*
X237439261Y-31965650D02*
X237439261Y-32065650D01*
X235239261Y-32265650D02*
X235239261Y-31765650D01*
X237439261Y-27565650D02*
X235239261Y-27565650D01*
X235239261Y-32065650D02*
X235239261Y-32165650D01*
X235239261Y-31965650D02*
X237439261Y-31965650D01*
X237439261Y-32065650D02*
X235239261Y-32065650D01*
X235239261Y-31765650D02*
X235239261Y-32265650D01*
X237439261Y-32265650D02*
X235239261Y-32265650D01*
X237439261Y-31965650D02*
X237439261Y-27565650D01*
X237439261Y-32165650D02*
X237439261Y-32265650D01*
X235239261Y-32265650D02*
X237439261Y-32265650D01*
X235239261Y-32165650D02*
X237439261Y-32165650D01*
X237439261Y-32265650D02*
X237439261Y-31965650D01*
D12*
X7248000Y-17010000D02*
X7248000Y-18210000D01*
X9008000Y-18210000D02*
X9008000Y-17010000D01*
D11*
X35214093Y-13215634D02*
X35214093Y-12715634D01*
X35214093Y-8515634D02*
X35214093Y-12915634D01*
X35214093Y-13015634D02*
X35214093Y-13115634D01*
X35214093Y-12715634D02*
X35214093Y-13215634D01*
X35214093Y-13215634D02*
X37414093Y-13215634D01*
X37414093Y-13215634D02*
X37414093Y-12915634D01*
X37414093Y-13215634D02*
X35214093Y-13215634D01*
X37414093Y-13015634D02*
X35214093Y-13015634D01*
X35214093Y-12915634D02*
X37414093Y-12915634D01*
X37414093Y-12915634D02*
X37414093Y-13015634D01*
X35214093Y-13115634D02*
X37414093Y-13115634D01*
X37414093Y-13115634D02*
X37414093Y-13215634D01*
X37414093Y-12915634D02*
X37414093Y-8515634D01*
X37414093Y-8515634D02*
X35214093Y-8515634D01*
X45748475Y-70365682D02*
X43548475Y-70365682D01*
X45748475Y-65665682D02*
X43548475Y-65665682D01*
X43548475Y-70065682D02*
X45748475Y-70065682D01*
X45748475Y-70065682D02*
X45748475Y-70165682D01*
X43548475Y-70365682D02*
X43548475Y-69865682D01*
X45748475Y-70365682D02*
X45748475Y-70065682D01*
X43548475Y-70365682D02*
X45748475Y-70365682D01*
X45748475Y-70165682D02*
X43548475Y-70165682D01*
X43548475Y-65665682D02*
X43548475Y-70065682D01*
X43548475Y-70165682D02*
X43548475Y-70265682D01*
X45748475Y-70265682D02*
X45748475Y-70365682D01*
X43548475Y-69865682D02*
X43548475Y-70365682D01*
X45748475Y-70065682D02*
X45748475Y-65665682D01*
X43548475Y-70265682D02*
X45748475Y-70265682D01*
D12*
X11294000Y-18210000D02*
X11294000Y-17010000D01*
X9534000Y-17010000D02*
X9534000Y-18210000D01*
X93559454Y-86065698D02*
X94559454Y-86065698D01*
X94559454Y-87765698D02*
X93559454Y-87765698D01*
X93559454Y-83684446D02*
X94559454Y-83684446D01*
X94559454Y-85384446D02*
X93559454Y-85384446D01*
X117876661Y-84249759D02*
X116676661Y-84249759D01*
X116676661Y-86009759D02*
X117876661Y-86009759D01*
D11*
X38785971Y-13215634D02*
X38785971Y-12715634D01*
X40985971Y-13015634D02*
X38785971Y-13015634D01*
X38785971Y-12915634D02*
X40985971Y-12915634D01*
X38785971Y-8515634D02*
X38785971Y-12915634D01*
X40985971Y-12915634D02*
X40985971Y-8515634D01*
X40985971Y-13115634D02*
X40985971Y-13215634D01*
X38785971Y-13015634D02*
X38785971Y-13115634D01*
X38785971Y-12715634D02*
X38785971Y-13215634D01*
X38785971Y-13115634D02*
X40985971Y-13115634D01*
X40985971Y-8515634D02*
X38785971Y-8515634D01*
X40985971Y-13215634D02*
X40985971Y-12915634D01*
X40985971Y-12915634D02*
X40985971Y-13015634D01*
X38785971Y-13215634D02*
X40985971Y-13215634D01*
X40985971Y-13215634D02*
X38785971Y-13215634D01*
X46939101Y-84715698D02*
X44739101Y-84715698D01*
X44739101Y-89415698D02*
X44739101Y-88915698D01*
X44739101Y-89415698D02*
X46939101Y-89415698D01*
X46939101Y-89315698D02*
X46939101Y-89415698D01*
X46939101Y-89115698D02*
X46939101Y-84715698D01*
X44739101Y-88915698D02*
X44739101Y-89415698D01*
X46939101Y-89115698D02*
X46939101Y-89215698D01*
X44739101Y-89315698D02*
X46939101Y-89315698D01*
X44739101Y-89115698D02*
X46939101Y-89115698D01*
X46939101Y-89215698D02*
X44739101Y-89215698D01*
X44739101Y-89215698D02*
X44739101Y-89315698D01*
X44739101Y-84715698D02*
X44739101Y-89115698D01*
X46939101Y-89415698D02*
X46939101Y-89115698D01*
X46939101Y-89415698D02*
X44739101Y-89415698D01*
D12*
X2012000Y-18560000D02*
X2012000Y-16760000D01*
X5232000Y-16760000D02*
X5232000Y-19210000D01*
X113406661Y-87292263D02*
X113406661Y-88622263D01*
X121146661Y-87292263D02*
X121146661Y-92492263D01*
X114736661Y-87292263D02*
X113406661Y-87292263D01*
X113406661Y-89892263D02*
X113406661Y-92492263D01*
X113406661Y-92492263D02*
X121146661Y-92492263D01*
X116006661Y-87292263D02*
X116006661Y-89892263D01*
X116006661Y-89892263D02*
X113406661Y-89892263D01*
X116006661Y-87292263D02*
X121146661Y-87292263D01*
X8190000Y-37385000D02*
X8190000Y-39885000D01*
X3140000Y-35415000D02*
X7020000Y-35415000D01*
X8190000Y-39885000D02*
X7140000Y-39885000D01*
X1970000Y-39885000D02*
X3020000Y-39885000D01*
X1970000Y-37385000D02*
X1970000Y-39885000D01*
X3020000Y-39885000D02*
X3020000Y-40875000D01*
X110037592Y-90146950D02*
X109037592Y-90146950D01*
X109037592Y-88446950D02*
X110037592Y-88446950D01*
X93559454Y-70587560D02*
X94559454Y-70587560D01*
X94559454Y-72287560D02*
X93559454Y-72287560D01*
M02*
