G04 #@! TF.GenerationSoftware,KiCad,Pcbnew,(5.99.0-4079-gfad0916f0)*
G04 #@! TF.CreationDate,2020-12-09T17:53:41-05:00*
G04 #@! TF.ProjectId,plain60-c,706c6169-6e36-4302-9d63-2e6b69636164,rev?*
G04 #@! TF.SameCoordinates,Original*
G04 #@! TF.FileFunction,Copper,L1,Top*
G04 #@! TF.FilePolarity,Positive*
%FSLAX46Y46*%
G04 Gerber Fmt 4.6, Leading zero omitted, Abs format (unit mm)*
G04 Created by KiCad (PCBNEW (5.99.0-4079-gfad0916f0)) date 2020-12-09 17:53:41*
%MOMM*%
%LPD*%
G01*
G04 APERTURE LIST*
G04 #@! TA.AperFunction,ComponentPad*
%ADD10C,2.286000*%
G04 #@! TD*
G04 #@! TA.AperFunction,ComponentPad*
%ADD11C,2.000000*%
G04 #@! TD*
G04 #@! TA.AperFunction,ComponentPad*
%ADD12R,1.700000X1.700000*%
G04 #@! TD*
G04 #@! TA.AperFunction,ComponentPad*
%ADD13O,1.700000X1.700000*%
G04 #@! TD*
G04 #@! TA.AperFunction,ViaPad*
%ADD14C,0.600000*%
G04 #@! TD*
G04 #@! TA.AperFunction,Conductor*
%ADD15C,0.250000*%
G04 #@! TD*
G04 #@! TA.AperFunction,Conductor*
%ADD16C,0.500000*%
G04 #@! TD*
G04 #@! TA.AperFunction,Conductor*
%ADD17C,0.200000*%
G04 #@! TD*
G04 APERTURE END LIST*
G36*
X155102556Y-85002033D02*
G01*
X155105677Y-84861825D01*
X155110897Y-84732765D01*
X155118215Y-84620479D01*
X155127631Y-84530594D01*
X155128206Y-84526433D01*
X155194346Y-84145239D01*
X155283706Y-83779778D01*
X155396946Y-83428511D01*
X155534729Y-83089898D01*
X155697717Y-82762397D01*
X155886572Y-82444469D01*
X156101955Y-82134573D01*
X156223662Y-81977334D01*
X156291671Y-81896745D01*
X156376205Y-81803265D01*
X156471986Y-81702217D01*
X156573734Y-81598927D01*
X156676170Y-81498718D01*
X156774016Y-81406915D01*
X156861993Y-81328842D01*
X156889724Y-81305541D01*
X157185079Y-81079565D01*
X157495657Y-80875897D01*
X157819271Y-80695587D01*
X158153734Y-80539685D01*
X158496861Y-80409242D01*
X158846466Y-80305306D01*
X159087261Y-80250210D01*
X159215406Y-80225088D01*
X159327378Y-80204954D01*
X159428998Y-80189278D01*
X159526085Y-80177531D01*
X159624461Y-80169183D01*
X159729944Y-80163704D01*
X159848355Y-80160566D01*
X159985514Y-80159239D01*
X160088771Y-80159098D01*
X160243150Y-80159791D01*
X160374923Y-80161961D01*
X160489877Y-80166140D01*
X160593803Y-80172860D01*
X160692490Y-80182653D01*
X160791726Y-80196052D01*
X160897300Y-80213587D01*
X161015002Y-80235792D01*
X161092771Y-80251357D01*
X161438269Y-80335338D01*
X161783533Y-80446632D01*
X162125680Y-80584267D01*
X162256250Y-80644209D01*
X162434914Y-80729114D01*
X162572917Y-80659834D01*
X162887317Y-80517260D01*
X163219277Y-80396172D01*
X163567260Y-80297025D01*
X163929730Y-80220268D01*
X164215561Y-80176982D01*
X164295876Y-80169462D01*
X164398935Y-80163822D01*
X164519142Y-80160030D01*
X164650906Y-80158054D01*
X164788633Y-80157861D01*
X164926730Y-80159419D01*
X165059602Y-80162694D01*
X165181659Y-80167655D01*
X165287304Y-80174268D01*
X165370947Y-80182502D01*
X165380438Y-80183762D01*
X165753491Y-80247618D01*
X166112063Y-80333895D01*
X166454871Y-80442209D01*
X166780633Y-80572174D01*
X166967330Y-80660364D01*
X167106599Y-80730252D01*
X167205962Y-80680137D01*
X167530400Y-80531773D01*
X167869583Y-80405923D01*
X168219579Y-80303691D01*
X168576458Y-80226181D01*
X168936288Y-80174497D01*
X169043307Y-80164270D01*
X169147987Y-80157911D01*
X169272280Y-80154376D01*
X169409485Y-80153521D01*
X169552901Y-80155202D01*
X169695827Y-80159277D01*
X169831562Y-80165601D01*
X169953405Y-80174030D01*
X170054655Y-80184422D01*
X170068357Y-80186238D01*
X170440524Y-80249904D01*
X170797893Y-80336248D01*
X171139413Y-80444954D01*
X171464030Y-80575709D01*
X171620867Y-80649851D01*
X171788309Y-80733174D01*
X171954703Y-80649881D01*
X172261986Y-80511069D01*
X172586417Y-80393259D01*
X172925208Y-80297215D01*
X173275569Y-80223697D01*
X173634711Y-80173469D01*
X173733458Y-80163944D01*
X173831776Y-80157839D01*
X173950578Y-80154413D01*
X174083248Y-80153520D01*
X174223173Y-80155018D01*
X174363739Y-80158762D01*
X174498333Y-80164608D01*
X174620341Y-80172413D01*
X174723149Y-80182032D01*
X174756277Y-80186198D01*
X175139115Y-80252394D01*
X175508501Y-80343571D01*
X175864827Y-80459904D01*
X176208483Y-80601562D01*
X176539860Y-80768719D01*
X176859350Y-80961545D01*
X177167344Y-81180212D01*
X177345533Y-81322842D01*
X177569422Y-81523831D01*
X177788467Y-81747670D01*
X177997722Y-81988796D01*
X178192239Y-82241647D01*
X178297513Y-82393214D01*
X178362252Y-82492127D01*
X178411577Y-82572417D01*
X178447338Y-82638024D01*
X178471387Y-82692891D01*
X178485572Y-82740959D01*
X178491746Y-82786169D01*
X178492406Y-82808356D01*
X178490244Y-82848211D01*
X178482559Y-82888060D01*
X178467556Y-82931607D01*
X178443440Y-82982555D01*
X178408413Y-83044608D01*
X178360682Y-83121470D01*
X178298450Y-83216843D01*
X178283208Y-83239814D01*
X178129655Y-83455663D01*
X177956876Y-83671775D01*
X177770516Y-83881945D01*
X177576220Y-84079966D01*
X177379633Y-84259634D01*
X177280429Y-84342103D01*
X177112580Y-84476713D01*
X177188092Y-84510308D01*
X177230748Y-84527680D01*
X177292504Y-84550771D01*
X177365384Y-84576685D01*
X177441412Y-84602527D01*
X177448279Y-84604797D01*
X177787891Y-84702142D01*
X178130243Y-84771328D01*
X178474468Y-84812376D01*
X178819701Y-84825308D01*
X179165075Y-84810147D01*
X179509725Y-84766913D01*
X179852784Y-84695631D01*
X180193385Y-84596320D01*
X180378131Y-84530228D01*
X180509437Y-84480136D01*
X180392337Y-84388653D01*
X180112227Y-84151827D01*
X179849674Y-83892844D01*
X179605226Y-83612306D01*
X179379432Y-83310815D01*
X179294433Y-83184444D01*
X179228431Y-83080316D01*
X179178954Y-82994484D01*
X179144711Y-82923113D01*
X179124413Y-82862366D01*
X179116771Y-82808405D01*
X179116840Y-82807457D01*
X179809331Y-82807457D01*
X179873300Y-82903382D01*
X179986255Y-83061266D01*
X180118392Y-83226509D01*
X180263953Y-83392859D01*
X180417181Y-83554066D01*
X180572317Y-83703879D01*
X180723603Y-83836047D01*
X180758234Y-83864077D01*
X181043235Y-84073092D01*
X181342439Y-84258024D01*
X181654309Y-84418120D01*
X181977309Y-84552631D01*
X182309905Y-84660805D01*
X182476554Y-84704121D01*
X182592115Y-84729946D01*
X182713405Y-84753940D01*
X182833546Y-84774965D01*
X182945657Y-84791881D01*
X183042862Y-84803552D01*
X183106876Y-84808421D01*
X183154176Y-84810549D01*
X183144879Y-84714660D01*
X183107023Y-84433790D01*
X183048317Y-84148171D01*
X182970627Y-83863760D01*
X182875821Y-83586511D01*
X182765765Y-83322379D01*
X182642326Y-83077320D01*
X182618329Y-83034822D01*
X182586040Y-82977363D01*
X182565679Y-82935230D01*
X182554483Y-82899430D01*
X182549691Y-82860970D01*
X182548542Y-82810856D01*
X182548529Y-82807529D01*
X182548986Y-82760443D01*
X182552350Y-82723923D01*
X182561052Y-82690433D01*
X182577520Y-82652436D01*
X182604185Y-82602397D01*
X182628730Y-82558797D01*
X182752879Y-82317381D01*
X182864176Y-82055893D01*
X182960704Y-81780485D01*
X183040548Y-81497306D01*
X183101790Y-81212507D01*
X183142516Y-80932240D01*
X183146026Y-80898268D01*
X183155680Y-80800249D01*
X183043702Y-80810077D01*
X182735636Y-80850619D01*
X182424608Y-80917885D01*
X182113531Y-81010802D01*
X181805321Y-81128294D01*
X181502893Y-81269290D01*
X181209162Y-81432716D01*
X181013259Y-81557876D01*
X180829253Y-81692216D01*
X180641902Y-81847973D01*
X180456594Y-82019727D01*
X180278717Y-82202058D01*
X180113660Y-82389549D01*
X179966811Y-82576779D01*
X179887311Y-82690295D01*
X179809331Y-82807457D01*
X179116840Y-82807457D01*
X179120497Y-82757394D01*
X179133903Y-82706657D01*
X179150733Y-82669314D01*
X179181314Y-82613308D01*
X179222883Y-82543093D01*
X179272674Y-82463124D01*
X179327921Y-82377855D01*
X179385859Y-82291740D01*
X179436131Y-82219838D01*
X179619723Y-81980887D01*
X179825217Y-81746440D01*
X180046932Y-81522181D01*
X180279183Y-81313791D01*
X180516286Y-81126953D01*
X180562699Y-81093447D01*
X180882092Y-80882889D01*
X181029721Y-80800061D01*
X183816282Y-80800061D01*
X183825985Y-80891071D01*
X183877317Y-81245123D01*
X183954782Y-81588359D01*
X184058663Y-81921750D01*
X184189241Y-82246265D01*
X184267679Y-82411614D01*
X184436876Y-82719110D01*
X184628209Y-83009456D01*
X184840520Y-83281775D01*
X185072653Y-83535187D01*
X185323451Y-83768812D01*
X185591755Y-83981771D01*
X185876410Y-84173184D01*
X186176258Y-84342171D01*
X186490142Y-84487854D01*
X186816906Y-84609353D01*
X187155391Y-84705788D01*
X187339437Y-84746494D01*
X187414694Y-84760430D01*
X187499421Y-84774387D01*
X187586093Y-84787301D01*
X187667184Y-84798104D01*
X187735169Y-84805731D01*
X187781418Y-84809086D01*
X187829547Y-84810549D01*
X187819889Y-84700454D01*
X187779828Y-84396127D01*
X187713468Y-84088632D01*
X187622170Y-83781293D01*
X187507297Y-83477438D01*
X187370208Y-83180391D01*
X187212264Y-82893480D01*
X187034828Y-82620030D01*
X186888344Y-82423972D01*
X186825024Y-82348364D01*
X186745756Y-82260102D01*
X186655504Y-82164190D01*
X186559229Y-82065630D01*
X186461895Y-81969424D01*
X186368465Y-81880575D01*
X186283901Y-81804086D01*
X186220371Y-81750660D01*
X186055676Y-81627151D01*
X185872551Y-81503718D01*
X185678781Y-81384978D01*
X185482150Y-81275543D01*
X185290446Y-81180030D01*
X185162037Y-81123379D01*
X184948642Y-81042119D01*
X184724127Y-80969665D01*
X184495725Y-80907857D01*
X184270670Y-80858532D01*
X184056195Y-80823528D01*
X183926285Y-80809359D01*
X183816282Y-80800061D01*
X181029721Y-80800061D01*
X181211123Y-80698285D01*
X181548814Y-80540062D01*
X181894190Y-80408650D01*
X182246271Y-80304478D01*
X182484241Y-80250373D01*
X182612326Y-80225384D01*
X182724538Y-80205347D01*
X182826702Y-80189729D01*
X182924644Y-80178000D01*
X183024190Y-80169630D01*
X183131164Y-80164087D01*
X183251393Y-80160841D01*
X183390702Y-80159360D01*
X183485751Y-80159098D01*
X183638416Y-80159523D01*
X183768504Y-80161410D01*
X183881836Y-80165289D01*
X183984232Y-80171690D01*
X184081512Y-80181141D01*
X184179495Y-80194173D01*
X184284003Y-80211315D01*
X184400854Y-80233097D01*
X184487261Y-80250210D01*
X184815215Y-80327805D01*
X185132818Y-80427166D01*
X185446349Y-80550437D01*
X185673447Y-80655373D01*
X185962716Y-80807094D01*
X186229834Y-80968673D01*
X186480461Y-81144147D01*
X186720255Y-81337554D01*
X186954875Y-81552932D01*
X187016218Y-81613519D01*
X187273330Y-81889836D01*
X187505391Y-82178883D01*
X187713501Y-82482290D01*
X187898760Y-82801683D01*
X188062271Y-83138690D01*
X188088587Y-83199261D01*
X188197336Y-83480338D01*
X188290233Y-83775409D01*
X188366024Y-84078518D01*
X188423454Y-84383707D01*
X188461269Y-84685021D01*
X188478213Y-84976502D01*
X188479047Y-85052677D01*
X188478815Y-85126996D01*
X188477266Y-85179590D01*
X188473190Y-85217146D01*
X188465379Y-85246350D01*
X188452625Y-85273889D01*
X188433717Y-85306448D01*
X188432927Y-85307764D01*
X188393976Y-85362729D01*
X188349260Y-85401685D01*
X188310555Y-85424334D01*
X188272286Y-85442836D01*
X188237933Y-85454509D01*
X188198987Y-85460881D01*
X188146941Y-85463481D01*
X188090365Y-85463870D01*
X187779140Y-85451290D01*
X187459127Y-85414952D01*
X187135162Y-85356030D01*
X186812085Y-85275697D01*
X186494732Y-85175126D01*
X186187942Y-85055490D01*
X185948648Y-84944486D01*
X185687507Y-84805755D01*
X185446635Y-84660202D01*
X185219999Y-84503460D01*
X185001568Y-84331161D01*
X184785307Y-84138940D01*
X184635965Y-83994172D01*
X184457937Y-83809509D01*
X184300063Y-83630722D01*
X184157063Y-83451023D01*
X184023656Y-83263626D01*
X183894563Y-83061743D01*
X183841315Y-82972626D01*
X183794563Y-82889123D01*
X183741702Y-82788410D01*
X183686438Y-82678113D01*
X183632476Y-82565858D01*
X183583522Y-82459272D01*
X183543281Y-82365982D01*
X183528069Y-82327957D01*
X183488266Y-82224838D01*
X183421822Y-82384780D01*
X183387758Y-82464176D01*
X183349176Y-82550035D01*
X183311699Y-82630009D01*
X183290217Y-82673739D01*
X183225055Y-82802757D01*
X183302450Y-82961513D01*
X183452908Y-83302130D01*
X183577169Y-83652426D01*
X183674665Y-84010386D01*
X183744827Y-84373992D01*
X183779341Y-84651013D01*
X183796931Y-84835521D01*
X183918354Y-84845028D01*
X184105876Y-84864987D01*
X184309588Y-84896076D01*
X184520359Y-84936539D01*
X184729056Y-84984622D01*
X184926548Y-85038572D01*
X184927641Y-85038898D01*
X185271995Y-85156269D01*
X185607203Y-85299574D01*
X185931510Y-85467472D01*
X186243160Y-85658622D01*
X186540396Y-85871681D01*
X186821462Y-86105310D01*
X187084603Y-86358165D01*
X187328061Y-86628905D01*
X187550082Y-86916190D01*
X187720783Y-87172632D01*
X187771593Y-87256472D01*
X187808148Y-87322071D01*
X187832393Y-87374531D01*
X187846273Y-87418953D01*
X187851731Y-87460439D01*
X187850713Y-87504089D01*
X187850063Y-87511793D01*
X187844350Y-87552451D01*
X187833258Y-87591462D01*
X187813964Y-87635554D01*
X187783642Y-87691455D01*
X187752423Y-87744418D01*
X187561812Y-88035476D01*
X187346606Y-88315903D01*
X187109476Y-88583049D01*
X186853096Y-88834266D01*
X186580136Y-89066905D01*
X186293269Y-89278315D01*
X186046398Y-89435840D01*
X185744551Y-89602291D01*
X185436976Y-89745541D01*
X185120389Y-89866711D01*
X184791503Y-89966919D01*
X184447033Y-90047284D01*
X184083694Y-90108925D01*
X184061086Y-90112071D01*
X183989408Y-90119240D01*
X183894528Y-90124720D01*
X183781604Y-90128543D01*
X183655794Y-90130742D01*
X183522254Y-90131349D01*
X183386144Y-90130397D01*
X183252620Y-90127919D01*
X183126840Y-90123946D01*
X183013962Y-90118512D01*
X182919144Y-90111649D01*
X182854840Y-90104468D01*
X182477234Y-90037980D01*
X182113236Y-89948086D01*
X181764040Y-89835151D01*
X181430841Y-89699539D01*
X181258067Y-89617050D01*
X181147051Y-89561139D01*
X180981054Y-89641898D01*
X180657018Y-89785518D01*
X180323994Y-89905083D01*
X179978940Y-90001522D01*
X179618812Y-90075760D01*
X179486814Y-90096943D01*
X179384935Y-90109197D01*
X179261211Y-90119377D01*
X179122144Y-90127323D01*
X178974234Y-90132874D01*
X178823985Y-90135871D01*
X178677898Y-90136153D01*
X178542473Y-90133561D01*
X178424214Y-90127934D01*
X178377058Y-90124255D01*
X178019231Y-90078777D01*
X177664976Y-90008057D01*
X177318041Y-89913151D01*
X176982176Y-89795114D01*
X176661131Y-89655002D01*
X176595963Y-89622882D01*
X176468143Y-89558564D01*
X176333155Y-89626219D01*
X176013034Y-89771412D01*
X175677699Y-89894255D01*
X175330663Y-89993760D01*
X174975441Y-90068941D01*
X174615549Y-90118811D01*
X174559097Y-90124255D01*
X174450994Y-90131341D01*
X174322713Y-90135319D01*
X174180757Y-90136349D01*
X174031627Y-90134589D01*
X173881826Y-90130202D01*
X173737854Y-90123345D01*
X173606214Y-90114181D01*
X173493407Y-90102868D01*
X173449341Y-90096943D01*
X173073602Y-90027825D01*
X172709822Y-89934461D01*
X172359587Y-89817335D01*
X172024481Y-89676929D01*
X171939973Y-89636644D01*
X171787261Y-89561948D01*
X171634548Y-89636644D01*
X171303725Y-89782881D01*
X170956672Y-89905947D01*
X170593754Y-90005731D01*
X170215333Y-90082127D01*
X170066804Y-90105108D01*
X169991653Y-90113225D01*
X169893932Y-90119898D01*
X169778866Y-90125096D01*
X169651680Y-90128790D01*
X169517600Y-90130947D01*
X169381852Y-90131539D01*
X169249661Y-90130534D01*
X169126253Y-90127902D01*
X169016854Y-90123613D01*
X168926689Y-90117636D01*
X168875069Y-90112059D01*
X168504425Y-90050302D01*
X168153670Y-89969461D01*
X167821231Y-89869067D01*
X167505535Y-89748656D01*
X167247069Y-89629158D01*
X167109505Y-89560099D01*
X166957542Y-89635169D01*
X166620807Y-89785698D01*
X166272800Y-89910227D01*
X165914034Y-90008612D01*
X165545020Y-90080704D01*
X165275623Y-90116002D01*
X165199995Y-90122131D01*
X165103128Y-90127246D01*
X164991309Y-90131264D01*
X164870823Y-90134100D01*
X164747957Y-90135672D01*
X164628996Y-90135894D01*
X164520228Y-90134683D01*
X164427938Y-90131954D01*
X164364722Y-90128179D01*
X163994858Y-90083215D01*
X163631628Y-90011518D01*
X163276439Y-89913908D01*
X162930692Y-89791206D01*
X162595794Y-89644231D01*
X162273147Y-89473804D01*
X161964156Y-89280745D01*
X161670225Y-89065874D01*
X161392758Y-88830012D01*
X161133160Y-88573978D01*
X160892834Y-88298594D01*
X160673185Y-88004680D01*
X160636062Y-87950035D01*
X160432765Y-87622360D01*
X160256974Y-87287788D01*
X160108531Y-86945888D01*
X159987276Y-86596229D01*
X159893051Y-86238383D01*
X159825697Y-85871920D01*
X159803481Y-85698413D01*
X159794916Y-85623849D01*
X159786989Y-85559852D01*
X159780372Y-85511478D01*
X159775736Y-85483783D01*
X159774373Y-85479274D01*
X159759059Y-85478719D01*
X159720831Y-85481375D01*
X159664946Y-85486770D01*
X159596663Y-85494436D01*
X159573677Y-85497215D01*
X159224069Y-85554234D01*
X158883482Y-85637877D01*
X158553089Y-85747465D01*
X158234059Y-85882315D01*
X157927565Y-86041748D01*
X157634777Y-86225081D01*
X157356866Y-86431635D01*
X157095005Y-86660729D01*
X156850363Y-86911681D01*
X156624112Y-87183811D01*
X156586155Y-87234018D01*
X156533128Y-87307235D01*
X156478138Y-87386631D01*
X156427608Y-87462737D01*
X156387958Y-87526086D01*
X156387274Y-87527237D01*
X156339451Y-87605756D01*
X156300821Y-87663624D01*
X156267526Y-87705427D01*
X156235708Y-87735750D01*
X156201507Y-87759179D01*
X156183936Y-87768892D01*
X156109386Y-87793946D01*
X156025223Y-87800067D01*
X155943010Y-87787263D01*
X155895878Y-87768681D01*
X155858658Y-87745996D01*
X155824533Y-87717044D01*
X155790795Y-87678134D01*
X155754738Y-87625574D01*
X155713653Y-87555672D01*
X155664835Y-87464738D01*
X155645265Y-87426958D01*
X155501198Y-87123722D01*
X155379829Y-86816874D01*
X155279715Y-86501778D01*
X155199418Y-86173800D01*
X155137496Y-85828304D01*
X155127973Y-85762339D01*
X155118477Y-85673387D01*
X155111086Y-85561828D01*
X155105799Y-85433287D01*
X155102616Y-85293390D01*
X155101582Y-85153984D01*
X155736770Y-85153984D01*
X155739952Y-85302934D01*
X155746180Y-85449917D01*
X155755252Y-85587673D01*
X155766965Y-85708940D01*
X155775600Y-85773544D01*
X155810784Y-85976377D01*
X155853200Y-86169265D01*
X155905034Y-86360102D01*
X155968471Y-86556785D01*
X156045696Y-86767207D01*
X156062799Y-86811155D01*
X156069643Y-86824423D01*
X156078706Y-86827220D01*
X156093474Y-86816745D01*
X156117433Y-86790201D01*
X156154069Y-86744788D01*
X156168956Y-86725920D01*
X156213956Y-86670418D01*
X156271438Y-86601939D01*
X156334644Y-86528411D01*
X156396819Y-86457765D01*
X156409159Y-86443987D01*
X156640288Y-86206432D01*
X156894668Y-85981292D01*
X157169019Y-85770821D01*
X157460060Y-85577272D01*
X157638358Y-85475151D01*
X160420180Y-85475151D01*
X160429675Y-85558370D01*
X160469575Y-85847942D01*
X160521661Y-86117373D01*
X160587810Y-86372993D01*
X160669896Y-86621136D01*
X160769793Y-86868133D01*
X160889377Y-87120316D01*
X160895919Y-87133200D01*
X161066733Y-87437715D01*
X161260010Y-87725415D01*
X161474643Y-87995349D01*
X161709523Y-88246563D01*
X161963543Y-88478107D01*
X162235595Y-88689028D01*
X162524570Y-88878374D01*
X162829361Y-89045193D01*
X163148859Y-89188532D01*
X163391991Y-89278216D01*
X163519136Y-89318162D01*
X163656514Y-89356349D01*
X163798582Y-89391607D01*
X163939798Y-89422764D01*
X164074618Y-89448649D01*
X164197500Y-89468090D01*
X164302901Y-89479918D01*
X164361170Y-89483003D01*
X164428648Y-89484263D01*
X164428648Y-89425711D01*
X165110527Y-89425711D01*
X165111830Y-89462804D01*
X165120640Y-89479554D01*
X165144306Y-89484029D01*
X165163799Y-89484186D01*
X165197768Y-89482098D01*
X165252663Y-89476443D01*
X165321338Y-89468046D01*
X165396648Y-89457728D01*
X165408905Y-89455944D01*
X165749170Y-89391772D01*
X166081870Y-89300722D01*
X166405503Y-89183671D01*
X166462202Y-89157922D01*
X167751370Y-89157922D01*
X167819567Y-89187162D01*
X167974477Y-89247066D01*
X168151030Y-89304071D01*
X168342487Y-89356558D01*
X168542109Y-89402909D01*
X168743155Y-89441506D01*
X168938886Y-89470730D01*
X169052641Y-89483249D01*
X169134314Y-89488500D01*
X169237552Y-89491513D01*
X169355939Y-89492421D01*
X169483060Y-89491359D01*
X169612501Y-89488461D01*
X169737846Y-89483862D01*
X169852681Y-89477695D01*
X169950592Y-89470094D01*
X170011534Y-89463195D01*
X170315199Y-89411950D01*
X170604985Y-89343287D01*
X170891244Y-89254623D01*
X170992721Y-89218311D01*
X171050524Y-89196213D01*
X171096864Y-89177123D01*
X171126226Y-89163401D01*
X171133793Y-89157968D01*
X171132010Y-89156035D01*
X172444209Y-89156035D01*
X172455057Y-89164860D01*
X172488323Y-89180745D01*
X172539413Y-89201939D01*
X172603732Y-89226691D01*
X172676687Y-89253251D01*
X172753685Y-89279868D01*
X172830132Y-89304791D01*
X172854154Y-89312254D01*
X173052014Y-89366422D01*
X173266990Y-89413770D01*
X173488187Y-89452205D01*
X173704705Y-89479637D01*
X173747644Y-89483722D01*
X173844394Y-89490087D01*
X173960647Y-89494157D01*
X174087816Y-89495934D01*
X174217311Y-89495417D01*
X174340541Y-89492609D01*
X174448919Y-89487512D01*
X174500572Y-89483599D01*
X174710492Y-89459587D01*
X174924878Y-89425804D01*
X175129819Y-89384540D01*
X175194688Y-89369259D01*
X175272336Y-89348796D01*
X175361225Y-89323097D01*
X175455410Y-89294113D01*
X175548943Y-89263796D01*
X175635877Y-89234099D01*
X175710267Y-89206973D01*
X175766165Y-89184371D01*
X175785345Y-89175364D01*
X175827110Y-89154009D01*
X175785345Y-89123806D01*
X175725513Y-89078090D01*
X175651014Y-89017430D01*
X175567499Y-88946741D01*
X175480617Y-88870943D01*
X175396017Y-88794951D01*
X175319350Y-88723683D01*
X175265420Y-88671274D01*
X175036631Y-88424807D01*
X174821370Y-88157557D01*
X174622548Y-87874010D01*
X174443080Y-87578651D01*
X174285878Y-87275965D01*
X174153856Y-86970437D01*
X174143936Y-86944603D01*
X174136182Y-86927158D01*
X174128743Y-86923614D01*
X174118805Y-86937341D01*
X174103555Y-86971706D01*
X174087102Y-87012636D01*
X174011730Y-87188042D01*
X173920960Y-87375549D01*
X173819210Y-87566897D01*
X173710897Y-87753826D01*
X173600439Y-87928076D01*
X173585701Y-87950035D01*
X173437643Y-88154950D01*
X173270047Y-88362153D01*
X173088908Y-88565092D01*
X172900225Y-88757214D01*
X172709994Y-88931967D01*
X172611198Y-89014814D01*
X172553501Y-89061894D01*
X172504245Y-89102829D01*
X172467412Y-89134252D01*
X172446985Y-89152795D01*
X172444209Y-89156035D01*
X171132010Y-89156035D01*
X171123313Y-89146607D01*
X171094562Y-89121096D01*
X171051576Y-89084882D01*
X170998390Y-89041412D01*
X170981081Y-89027498D01*
X170708608Y-88791325D01*
X170452930Y-88533191D01*
X170215528Y-88255064D01*
X169997881Y-87958914D01*
X169801469Y-87646708D01*
X169627772Y-87320417D01*
X169520100Y-87083762D01*
X169488636Y-87011295D01*
X169465688Y-86962954D01*
X169449831Y-86936250D01*
X169439638Y-86928695D01*
X169434663Y-86934601D01*
X169356249Y-87129587D01*
X169259594Y-87336329D01*
X169148154Y-87548238D01*
X169025383Y-87758725D01*
X168902304Y-87950035D01*
X168681640Y-88251513D01*
X168439421Y-88534630D01*
X168175312Y-88799747D01*
X167893698Y-89043438D01*
X167751370Y-89157922D01*
X166462202Y-89157922D01*
X166718571Y-89041497D01*
X167019574Y-88875077D01*
X167307014Y-88685290D01*
X167579390Y-88473012D01*
X167835204Y-88239123D01*
X168072956Y-87984499D01*
X168211822Y-87815080D01*
X168342592Y-87635049D01*
X168471303Y-87434928D01*
X168593700Y-87222443D01*
X168705532Y-87005322D01*
X168802544Y-86791291D01*
X168868668Y-86621791D01*
X168909954Y-86498164D01*
X168951522Y-86358990D01*
X168990948Y-86213454D01*
X169025811Y-86070743D01*
X169053691Y-85940041D01*
X169065272Y-85875986D01*
X169077385Y-85798583D01*
X169088515Y-85719519D01*
X169098072Y-85643993D01*
X169105468Y-85577202D01*
X169110115Y-85524344D01*
X169111425Y-85490617D01*
X169109969Y-85481094D01*
X169094451Y-85480573D01*
X169056254Y-85483377D01*
X169000848Y-85489002D01*
X168933705Y-85496944D01*
X168922073Y-85498418D01*
X168569086Y-85557333D01*
X168226881Y-85642497D01*
X167895257Y-85753994D01*
X167574012Y-85891909D01*
X167262945Y-86056324D01*
X166961856Y-86247325D01*
X166744568Y-86406440D01*
X166661139Y-86475100D01*
X166565097Y-86560677D01*
X166461672Y-86657978D01*
X166356093Y-86761810D01*
X166253592Y-86866980D01*
X166159398Y-86968296D01*
X166078742Y-87060566D01*
X166048310Y-87097686D01*
X165870454Y-87338886D01*
X165705209Y-87600001D01*
X165555756Y-87874899D01*
X165425279Y-88157450D01*
X165316962Y-88441523D01*
X165265158Y-88605905D01*
X165234875Y-88717486D01*
X165205678Y-88838070D01*
X165178599Y-88962189D01*
X165154668Y-89084374D01*
X165134917Y-89199156D01*
X165120379Y-89301068D01*
X165112083Y-89384639D01*
X165110527Y-89425711D01*
X164428648Y-89425711D01*
X164425697Y-89372754D01*
X164417477Y-89298338D01*
X164404938Y-89208729D01*
X164389027Y-89110190D01*
X164370695Y-89008988D01*
X164350890Y-88911385D01*
X164350359Y-88908927D01*
X164283180Y-88638328D01*
X164200498Y-88379141D01*
X164099036Y-88121911D01*
X164010644Y-87928726D01*
X163845760Y-87618892D01*
X163757598Y-87480875D01*
X164509469Y-87480875D01*
X164594761Y-87662183D01*
X164630343Y-87738970D01*
X164665632Y-87817125D01*
X164696737Y-87887909D01*
X164719769Y-87942585D01*
X164721269Y-87946308D01*
X164741520Y-87994726D01*
X164758247Y-88030881D01*
X164768455Y-88048401D01*
X164769588Y-88049125D01*
X164777820Y-88036932D01*
X164793278Y-88004601D01*
X164812967Y-87958503D01*
X164817906Y-87946308D01*
X164840048Y-87893452D01*
X164870604Y-87823726D01*
X164905682Y-87745868D01*
X164941392Y-87668616D01*
X164944406Y-87662200D01*
X165029690Y-87480909D01*
X164928051Y-87269809D01*
X164894112Y-87198873D01*
X164864982Y-87137136D01*
X164842714Y-87089017D01*
X164829358Y-87058933D01*
X164826411Y-87050963D01*
X164821232Y-87034582D01*
X164807953Y-87000964D01*
X164796822Y-86974563D01*
X164767232Y-86905907D01*
X164719677Y-87023399D01*
X164694066Y-87084118D01*
X164660466Y-87160182D01*
X164623428Y-87241442D01*
X164590796Y-87310883D01*
X164509469Y-87480875D01*
X163757598Y-87480875D01*
X163658925Y-87326406D01*
X163451277Y-87052064D01*
X163223959Y-86796663D01*
X162978109Y-86560998D01*
X162714867Y-86345866D01*
X162435375Y-86152063D01*
X162140772Y-85980384D01*
X161832198Y-85831626D01*
X161510794Y-85706585D01*
X161177699Y-85606056D01*
X160834054Y-85530837D01*
X160510180Y-85484737D01*
X160420180Y-85475151D01*
X157638358Y-85475151D01*
X157764510Y-85402897D01*
X158079090Y-85249951D01*
X158256221Y-85175389D01*
X158559505Y-85066025D01*
X158869099Y-84977285D01*
X159190363Y-84907851D01*
X159528659Y-84856405D01*
X159577362Y-84850600D01*
X159654851Y-84843969D01*
X159754674Y-84838916D01*
X159870799Y-84835442D01*
X159997191Y-84833545D01*
X160127816Y-84833227D01*
X160256642Y-84834487D01*
X160377636Y-84837324D01*
X160484762Y-84841740D01*
X160571989Y-84847735D01*
X160600180Y-84850600D01*
X160982859Y-84908356D01*
X161355059Y-84991851D01*
X161715884Y-85100594D01*
X162064435Y-85234094D01*
X162399813Y-85391861D01*
X162721122Y-85573403D01*
X163027463Y-85778230D01*
X163317938Y-86005850D01*
X163591649Y-86255773D01*
X163847698Y-86527507D01*
X163998619Y-86708525D01*
X164038038Y-86757178D01*
X164071100Y-86796253D01*
X164093825Y-86821152D01*
X164101852Y-86827775D01*
X164109963Y-86815101D01*
X164125257Y-86780306D01*
X164145962Y-86728235D01*
X164170305Y-86663728D01*
X164196512Y-86591630D01*
X164222810Y-86516783D01*
X164247427Y-86444029D01*
X164268590Y-86378212D01*
X164278684Y-86344778D01*
X164332956Y-86141176D01*
X164374877Y-85941897D01*
X164405540Y-85739422D01*
X164426037Y-85526238D01*
X164437460Y-85294828D01*
X164438819Y-85242732D01*
X164439796Y-85130180D01*
X165094001Y-85130180D01*
X165103772Y-85450388D01*
X165134074Y-85756114D01*
X165185806Y-86053418D01*
X165259870Y-86348357D01*
X165289938Y-86448026D01*
X165314642Y-86523662D01*
X165341246Y-86600052D01*
X165367908Y-86672457D01*
X165392786Y-86736141D01*
X165414038Y-86786367D01*
X165429822Y-86818396D01*
X165437593Y-86827775D01*
X165450222Y-86817289D01*
X165476245Y-86788845D01*
X165511686Y-86746972D01*
X165546820Y-86703474D01*
X165785206Y-86425143D01*
X166043578Y-86166161D01*
X166320351Y-85927388D01*
X166613939Y-85709682D01*
X166922757Y-85513904D01*
X167245218Y-85340912D01*
X167383985Y-85278959D01*
X169772584Y-85278959D01*
X169796440Y-85624579D01*
X169847332Y-85967420D01*
X169876815Y-86110097D01*
X169965669Y-86441925D01*
X170080933Y-86764826D01*
X170221599Y-87077322D01*
X170386658Y-87377934D01*
X170575102Y-87665182D01*
X170785922Y-87937588D01*
X171018110Y-88193673D01*
X171270658Y-88431957D01*
X171542558Y-88650963D01*
X171672592Y-88743958D01*
X171720358Y-88776124D01*
X171759251Y-88800991D01*
X171783439Y-88814889D01*
X171788044Y-88816590D01*
X171802747Y-88808873D01*
X171836001Y-88787747D01*
X171883184Y-88756250D01*
X171939679Y-88717416D01*
X171952432Y-88708516D01*
X172228354Y-88498325D01*
X172486053Y-88267134D01*
X172724316Y-88016572D01*
X172941926Y-87748264D01*
X173137668Y-87463837D01*
X173310325Y-87164918D01*
X173458683Y-86853134D01*
X173581524Y-86530112D01*
X173582366Y-86527592D01*
X173636022Y-86352650D01*
X173684315Y-86167565D01*
X173725517Y-85980448D01*
X173757903Y-85799414D01*
X173779746Y-85632578D01*
X173784807Y-85576116D01*
X173794165Y-85453818D01*
X173675025Y-85443898D01*
X173342502Y-85403275D01*
X173006449Y-85337189D01*
X172672276Y-85247145D01*
X172394328Y-85151489D01*
X174454493Y-85151489D01*
X174467857Y-85503410D01*
X174507171Y-85844679D01*
X174572875Y-86176950D01*
X174665406Y-86501882D01*
X174785201Y-86821129D01*
X174932697Y-87136347D01*
X175022998Y-87303670D01*
X175201952Y-87591998D01*
X175403742Y-87864792D01*
X175626673Y-88120849D01*
X175869050Y-88358971D01*
X176129179Y-88577957D01*
X176405365Y-88776606D01*
X176695913Y-88953719D01*
X176999129Y-89108094D01*
X177313318Y-89238531D01*
X177636785Y-89343831D01*
X177967835Y-89422792D01*
X178031646Y-89434753D01*
X178224139Y-89463224D01*
X178433991Y-89483579D01*
X178652521Y-89495530D01*
X178871049Y-89498788D01*
X179080893Y-89493065D01*
X179273373Y-89478074D01*
X179287932Y-89476446D01*
X179636969Y-89422388D01*
X179977340Y-89341615D01*
X180307865Y-89234820D01*
X180494616Y-89157591D01*
X181802362Y-89157591D01*
X181815183Y-89167346D01*
X181850697Y-89183952D01*
X181904476Y-89205785D01*
X181972094Y-89231222D01*
X182049124Y-89258642D01*
X182131139Y-89286421D01*
X182213713Y-89312937D01*
X182283841Y-89334088D01*
X182491077Y-89387603D01*
X182716225Y-89433586D01*
X182949355Y-89470176D01*
X183109297Y-89488935D01*
X183144914Y-89492872D01*
X183166545Y-89495933D01*
X183167712Y-89496195D01*
X183172931Y-89484283D01*
X183174933Y-89473184D01*
X183819588Y-89473184D01*
X183833295Y-89481392D01*
X183873833Y-89483341D01*
X183940330Y-89479066D01*
X184031910Y-89468603D01*
X184075292Y-89462704D01*
X184424895Y-89399198D01*
X184766562Y-89308592D01*
X185099106Y-89191305D01*
X185421343Y-89047762D01*
X185732087Y-88878382D01*
X185751579Y-88866658D01*
X186025459Y-88685133D01*
X186288525Y-88479159D01*
X186537640Y-88251640D01*
X186769666Y-88005480D01*
X186981466Y-87743585D01*
X187017683Y-87694330D01*
X187070862Y-87621255D01*
X187109210Y-87566901D01*
X187133624Y-87526330D01*
X187145000Y-87494602D01*
X187144236Y-87466779D01*
X187132229Y-87437920D01*
X187109875Y-87403087D01*
X187078715Y-87358277D01*
X186910470Y-87131433D01*
X186721197Y-86908973D01*
X186516373Y-86696484D01*
X186301478Y-86499551D01*
X186081992Y-86323763D01*
X186019969Y-86278744D01*
X185721932Y-86084586D01*
X185412102Y-85916089D01*
X185091417Y-85773618D01*
X184760816Y-85657540D01*
X184421238Y-85568221D01*
X184073621Y-85506027D01*
X184021131Y-85499097D01*
X183951007Y-85490875D01*
X183891457Y-85485056D01*
X183847909Y-85482083D01*
X183825786Y-85482399D01*
X183824269Y-85483011D01*
X183822384Y-85500473D01*
X183824835Y-85541130D01*
X183830970Y-85600206D01*
X183840133Y-85672929D01*
X183851672Y-85754521D01*
X183864932Y-85840210D01*
X183879259Y-85925220D01*
X183893999Y-86004776D01*
X183899504Y-86032250D01*
X183959679Y-86281616D01*
X184037930Y-86536064D01*
X184131203Y-86787361D01*
X184236444Y-87027273D01*
X184349867Y-87246276D01*
X184384357Y-87309445D01*
X184406491Y-87357251D01*
X184419276Y-87398231D01*
X184425717Y-87440922D01*
X184427579Y-87467037D01*
X184429035Y-87500096D01*
X184428181Y-87528086D01*
X184423345Y-87555742D01*
X184412855Y-87587802D01*
X184395041Y-87629002D01*
X184368231Y-87684078D01*
X184330752Y-87757767D01*
X184312268Y-87793771D01*
X184182988Y-88062851D01*
X184075765Y-88325309D01*
X183987939Y-88588532D01*
X183916848Y-88859904D01*
X183899167Y-88940302D01*
X183887184Y-89001662D01*
X183873946Y-89076971D01*
X183860374Y-89160070D01*
X183847387Y-89244800D01*
X183835904Y-89325002D01*
X183826846Y-89394518D01*
X183821133Y-89447188D01*
X183819588Y-89473184D01*
X183174933Y-89473184D01*
X183178999Y-89450649D01*
X183184790Y-89401913D01*
X183186043Y-89388374D01*
X183230402Y-89036373D01*
X183301470Y-88682916D01*
X183398105Y-88332151D01*
X183519163Y-87988225D01*
X183663501Y-87655289D01*
X183664045Y-87654148D01*
X183747676Y-87479010D01*
X183672195Y-87327414D01*
X183634896Y-87250293D01*
X183595650Y-87165527D01*
X183560197Y-87085664D01*
X183542660Y-87044171D01*
X183519613Y-86989461D01*
X183500524Y-86946797D01*
X183487848Y-86921518D01*
X183484137Y-86916992D01*
X183477208Y-86931144D01*
X183461915Y-86965990D01*
X183440676Y-87015936D01*
X183421095Y-87062845D01*
X183272925Y-87385412D01*
X183099919Y-87699289D01*
X182904229Y-88001583D01*
X182688005Y-88289400D01*
X182453400Y-88559850D01*
X182202565Y-88810038D01*
X181974968Y-89007224D01*
X181915855Y-89055694D01*
X181865462Y-89098260D01*
X181827568Y-89131629D01*
X181805952Y-89152509D01*
X181802362Y-89157591D01*
X180494616Y-89157591D01*
X180627361Y-89102696D01*
X180934649Y-88945936D01*
X181228545Y-88765234D01*
X181507870Y-88561282D01*
X181771441Y-88334774D01*
X182018078Y-88086403D01*
X182246598Y-87816862D01*
X182349536Y-87680124D01*
X182530022Y-87407520D01*
X182690657Y-87116957D01*
X182830091Y-86812042D01*
X182946973Y-86496380D01*
X183039953Y-86173576D01*
X183107679Y-85847235D01*
X183145819Y-85554621D01*
X183155227Y-85453447D01*
X183029270Y-85443196D01*
X182734959Y-85408118D01*
X182431891Y-85350958D01*
X182126620Y-85273567D01*
X181825698Y-85177797D01*
X181535679Y-85065498D01*
X181288473Y-84951363D01*
X181148894Y-84881319D01*
X181006151Y-84952951D01*
X180682423Y-85099666D01*
X180343130Y-85222775D01*
X179988700Y-85322152D01*
X179619561Y-85397674D01*
X179337652Y-85438073D01*
X179262177Y-85444735D01*
X179164630Y-85449906D01*
X179050698Y-85453585D01*
X178926066Y-85455770D01*
X178796419Y-85456461D01*
X178667442Y-85455654D01*
X178544822Y-85453348D01*
X178434243Y-85449542D01*
X178341392Y-85444235D01*
X178279319Y-85438377D01*
X177916763Y-85382982D01*
X177572579Y-85308376D01*
X177243143Y-85213331D01*
X176924832Y-85096619D01*
X176614023Y-84957013D01*
X176307092Y-84793286D01*
X176214630Y-84738922D01*
X175977267Y-84584952D01*
X175739984Y-84409185D01*
X175508507Y-84216633D01*
X175288563Y-84012310D01*
X175085877Y-83801228D01*
X174919181Y-83604880D01*
X174874250Y-83548755D01*
X174836036Y-83501916D01*
X174807747Y-83468227D01*
X174792591Y-83451551D01*
X174790945Y-83450476D01*
X174782448Y-83468217D01*
X174766963Y-83507773D01*
X174746311Y-83563945D01*
X174722311Y-83631534D01*
X174696782Y-83705343D01*
X174671544Y-83780173D01*
X174648416Y-83850826D01*
X174629217Y-83912104D01*
X174628165Y-83915583D01*
X174555655Y-84188677D01*
X174503319Y-84462444D01*
X174470236Y-84743425D01*
X174455488Y-85038162D01*
X174454493Y-85151489D01*
X172394328Y-85151489D01*
X172345393Y-85134648D01*
X172031210Y-85001203D01*
X171958675Y-84966412D01*
X171644587Y-84800251D01*
X171350980Y-84619624D01*
X171072064Y-84420891D01*
X170992283Y-84358703D01*
X170923613Y-84300952D01*
X170840986Y-84226393D01*
X170748843Y-84139482D01*
X170651623Y-84044674D01*
X170553765Y-83946424D01*
X170459710Y-83849187D01*
X170373896Y-83757419D01*
X170300765Y-83675575D01*
X170246359Y-83610158D01*
X170203245Y-83555388D01*
X170166162Y-83508446D01*
X170138817Y-83474013D01*
X170124917Y-83456769D01*
X170124395Y-83456155D01*
X170115241Y-83463085D01*
X170099089Y-83493105D01*
X170077484Y-83542209D01*
X170051969Y-83606388D01*
X170024089Y-83681636D01*
X169995387Y-83763945D01*
X169967408Y-83849308D01*
X169945916Y-83919353D01*
X169862429Y-84250757D01*
X169805659Y-84589515D01*
X169775684Y-84933093D01*
X169772584Y-85278959D01*
X167383985Y-85278959D01*
X167579739Y-85191565D01*
X167924733Y-85066723D01*
X168278615Y-84967244D01*
X168639800Y-84893989D01*
X168963855Y-84851759D01*
X169144979Y-84834280D01*
X169144979Y-84766894D01*
X169147619Y-84709704D01*
X169154994Y-84630773D01*
X169166284Y-84536222D01*
X169180669Y-84432174D01*
X169197331Y-84324750D01*
X169215451Y-84220074D01*
X169224682Y-84171288D01*
X169308190Y-83817299D01*
X169418639Y-83469358D01*
X169554847Y-83129541D01*
X169711623Y-82808139D01*
X170450771Y-82808139D01*
X170535762Y-82932135D01*
X170740050Y-83205562D01*
X170965985Y-83462294D01*
X171211616Y-83700913D01*
X171474987Y-83920001D01*
X171754147Y-84118138D01*
X172047141Y-84293908D01*
X172352018Y-84445890D01*
X172666822Y-84572668D01*
X172897505Y-84647246D01*
X173020004Y-84680522D01*
X173151713Y-84712230D01*
X173286763Y-84741266D01*
X173419285Y-84766524D01*
X173543407Y-84786900D01*
X173653261Y-84801289D01*
X173742977Y-84808587D01*
X173757448Y-84809086D01*
X173816952Y-84810549D01*
X173824020Y-84750175D01*
X173849609Y-84545246D01*
X173875987Y-84363142D01*
X173904214Y-84198274D01*
X173935348Y-84045058D01*
X173970447Y-83897904D01*
X174010570Y-83751229D01*
X174018236Y-83725025D01*
X174063143Y-83582341D01*
X174114101Y-83436742D01*
X174169570Y-83291540D01*
X174228011Y-83150048D01*
X174287885Y-83015579D01*
X174347651Y-82891445D01*
X174405771Y-82780959D01*
X174460706Y-82687434D01*
X174510916Y-82614183D01*
X174554862Y-82564518D01*
X174559316Y-82560579D01*
X174634293Y-82513725D01*
X174717154Y-82491057D01*
X174802442Y-82491678D01*
X174884701Y-82514689D01*
X174958473Y-82559191D01*
X175018303Y-82624287D01*
X175026830Y-82637559D01*
X175230371Y-82948426D01*
X175449560Y-83235646D01*
X175684550Y-83499385D01*
X175935495Y-83739811D01*
X176202548Y-83957091D01*
X176310226Y-84034982D01*
X176464902Y-84143179D01*
X176509107Y-84115288D01*
X176675833Y-84001526D01*
X176849277Y-83867446D01*
X177023688Y-83718264D01*
X177193316Y-83559192D01*
X177352410Y-83395442D01*
X177495220Y-83232230D01*
X177528528Y-83191086D01*
X177586051Y-83117334D01*
X177641624Y-83043478D01*
X177692556Y-82973362D01*
X177736156Y-82910830D01*
X177769731Y-82859728D01*
X177790592Y-82823899D01*
X177796321Y-82808575D01*
X177787965Y-82787385D01*
X177764545Y-82747473D01*
X177728533Y-82692469D01*
X177682405Y-82626003D01*
X177628632Y-82551707D01*
X177569687Y-82473211D01*
X177553683Y-82452384D01*
X177482713Y-82365815D01*
X177394731Y-82266874D01*
X177294978Y-82160851D01*
X177188696Y-82053038D01*
X177081125Y-81948725D01*
X176977507Y-81853203D01*
X176883083Y-81771763D01*
X176864193Y-81756365D01*
X176579276Y-81544883D01*
X176281377Y-81358572D01*
X175971279Y-81197749D01*
X175649768Y-81062732D01*
X175317630Y-80953839D01*
X174975649Y-80871387D01*
X174624611Y-80815695D01*
X174509922Y-80803523D01*
X174396634Y-80796049D01*
X174263598Y-80792376D01*
X174118234Y-80792302D01*
X173967962Y-80795624D01*
X173820201Y-80802141D01*
X173682372Y-80811649D01*
X173561896Y-80823947D01*
X173512820Y-80830719D01*
X173157391Y-80898814D01*
X172814963Y-80992139D01*
X172485163Y-81110854D01*
X172167619Y-81255124D01*
X171861959Y-81425109D01*
X171567809Y-81620971D01*
X171396601Y-81751047D01*
X171239806Y-81884452D01*
X171079324Y-82036710D01*
X170921168Y-82201325D01*
X170771347Y-82371800D01*
X170635875Y-82541639D01*
X170536863Y-82680103D01*
X170450771Y-82808139D01*
X169711623Y-82808139D01*
X169715631Y-82799924D01*
X169899810Y-82482585D01*
X170106202Y-82179598D01*
X170333623Y-81893041D01*
X170580893Y-81624990D01*
X170783807Y-81432746D01*
X170850466Y-81374016D01*
X170917759Y-81316048D01*
X170979369Y-81264194D01*
X171028982Y-81223808D01*
X171045007Y-81211337D01*
X171086828Y-81178242D01*
X171118052Y-81151101D01*
X171133172Y-81134770D01*
X171133793Y-81133025D01*
X171120999Y-81124010D01*
X171085641Y-81108087D01*
X171032256Y-81086879D01*
X170965379Y-81062010D01*
X170889549Y-81035102D01*
X170809300Y-81007779D01*
X170729170Y-80981664D01*
X170653695Y-80958381D01*
X170611770Y-80946231D01*
X170494214Y-80915974D01*
X170357743Y-80885417D01*
X170211768Y-80856461D01*
X170065699Y-80831006D01*
X169968916Y-80816357D01*
X169896479Y-80809059D01*
X169796836Y-80803606D01*
X169671138Y-80800038D01*
X169520534Y-80798392D01*
X169429095Y-80798316D01*
X169262392Y-80799834D01*
X169117626Y-80804092D01*
X168988394Y-80811856D01*
X168868291Y-80823890D01*
X168750911Y-80840961D01*
X168629850Y-80863835D01*
X168498704Y-80893276D01*
X168371922Y-80924700D01*
X168035756Y-81025089D01*
X167711098Y-81151116D01*
X167399096Y-81301962D01*
X167100897Y-81476808D01*
X166817649Y-81674836D01*
X166550500Y-81895228D01*
X166300598Y-82137164D01*
X166069090Y-82399828D01*
X165857125Y-82682399D01*
X165810870Y-82750706D01*
X165629038Y-83049873D01*
X165473194Y-83360161D01*
X165343656Y-83680514D01*
X165240742Y-84009873D01*
X165164772Y-84347179D01*
X165116064Y-84691377D01*
X165094937Y-85041406D01*
X165094001Y-85130180D01*
X164439796Y-85130180D01*
X164440545Y-85044007D01*
X164435776Y-84864834D01*
X164423822Y-84696953D01*
X164403993Y-84532103D01*
X164375597Y-84362024D01*
X164357512Y-84270207D01*
X164273289Y-83930390D01*
X164162937Y-83600718D01*
X164027317Y-83282469D01*
X163867293Y-82976920D01*
X163683726Y-82685349D01*
X163477478Y-82409032D01*
X163249413Y-82149248D01*
X163000392Y-81907274D01*
X162731278Y-81684386D01*
X162500420Y-81519556D01*
X162198787Y-81335137D01*
X161886972Y-81177174D01*
X161769435Y-81129143D01*
X163089789Y-81129143D01*
X163096524Y-81141173D01*
X163122113Y-81167356D01*
X163162988Y-81204389D01*
X163215583Y-81248972D01*
X163246053Y-81273780D01*
X163497346Y-81492211D01*
X163738855Y-81735236D01*
X163968064Y-81999985D01*
X164182455Y-82283584D01*
X164345272Y-82527931D01*
X164391896Y-82606088D01*
X164445498Y-82702383D01*
X164502812Y-82810349D01*
X164560575Y-82923521D01*
X164615523Y-83035432D01*
X164664390Y-83139614D01*
X164703914Y-83229602D01*
X164721332Y-83272907D01*
X164741010Y-83319882D01*
X164758092Y-83352703D01*
X164769555Y-83365774D01*
X164771245Y-83365245D01*
X164780615Y-83348585D01*
X164798351Y-83311263D01*
X164821890Y-83258843D01*
X164848120Y-83198189D01*
X165001284Y-82871704D01*
X165178113Y-82555958D01*
X165376702Y-82253480D01*
X165595150Y-81966802D01*
X165831552Y-81698453D01*
X166084005Y-81450965D01*
X166302699Y-81264535D01*
X166358111Y-81219086D01*
X166403443Y-81179508D01*
X166435015Y-81149209D01*
X166449145Y-81131593D01*
X166449206Y-81128963D01*
X166428263Y-81116881D01*
X166385372Y-81098261D01*
X166325720Y-81074988D01*
X166254495Y-81048945D01*
X166176884Y-81022018D01*
X166098073Y-80996090D01*
X166023250Y-80973047D01*
X166006864Y-80968270D01*
X165797115Y-80912098D01*
X165599300Y-80868554D01*
X165405538Y-80836561D01*
X165207949Y-80815041D01*
X164998652Y-80802916D01*
X164769768Y-80799111D01*
X164769588Y-80799111D01*
X164540686Y-80802911D01*
X164331378Y-80815028D01*
X164133782Y-80836541D01*
X163940020Y-80868526D01*
X163742211Y-80912061D01*
X163532475Y-80968223D01*
X163532312Y-80968270D01*
X163458826Y-80990471D01*
X163380248Y-81015974D01*
X163301758Y-81042896D01*
X163228537Y-81069354D01*
X163165764Y-81093464D01*
X163118621Y-81113344D01*
X163092287Y-81127110D01*
X163089789Y-81129143D01*
X161769435Y-81129143D01*
X161565678Y-81045879D01*
X161235611Y-80941467D01*
X160897475Y-80864150D01*
X160551973Y-80814141D01*
X160199811Y-80791653D01*
X160088771Y-80790303D01*
X159734956Y-80803958D01*
X159388649Y-80844956D01*
X159049691Y-80913347D01*
X158717921Y-81009180D01*
X158393182Y-81132505D01*
X158075311Y-81283371D01*
X157764151Y-81461828D01*
X157616279Y-81557876D01*
X157435822Y-81689551D01*
X157251364Y-81842547D01*
X157068370Y-82011399D01*
X156892307Y-82190641D01*
X156728640Y-82374807D01*
X156582836Y-82558431D01*
X156502261Y-82671894D01*
X156310864Y-82979292D01*
X156146942Y-83293671D01*
X156010293Y-83615591D01*
X155900715Y-83945612D01*
X155818006Y-84284298D01*
X155761963Y-84632208D01*
X155747527Y-84767932D01*
X155740354Y-84879222D01*
X155736836Y-85010327D01*
X155736770Y-85153984D01*
X155101582Y-85153984D01*
X155101535Y-85147763D01*
X155102556Y-85002033D01*
G37*
D10*
X78740000Y-23495000D03*
X72390000Y-26035000D03*
X97790000Y-23495000D03*
X91440000Y-26035000D03*
X154940000Y-23495000D03*
X148590000Y-26035000D03*
X173990000Y-23495000D03*
X167640000Y-26035000D03*
X40640000Y-23495000D03*
X34290000Y-26035000D03*
X135890000Y-23495000D03*
X129540000Y-26035000D03*
X116840000Y-23495000D03*
X110490000Y-26035000D03*
X59690000Y-23495000D03*
X53340000Y-26035000D03*
X16827500Y-23495000D03*
X10477500Y-26035000D03*
X269240000Y-4445000D03*
X262890000Y-6985000D03*
X145415000Y-4445000D03*
X139065000Y-6985000D03*
X183515000Y-4445000D03*
X177165000Y-6985000D03*
X259715000Y-4445000D03*
X253365000Y-6985000D03*
X88265000Y-4445000D03*
X81915000Y-6985000D03*
X240665000Y-4445000D03*
X234315000Y-6985000D03*
X221615000Y-4445000D03*
X215265000Y-6985000D03*
X202565000Y-4445000D03*
X196215000Y-6985000D03*
X164465000Y-4445000D03*
X158115000Y-6985000D03*
X126365000Y-4445000D03*
X120015000Y-6985000D03*
X107315000Y-4445000D03*
X100965000Y-6985000D03*
X69215000Y-4445000D03*
X62865000Y-6985000D03*
X31115000Y-4445000D03*
X24765000Y-6985000D03*
X12065000Y-4445000D03*
X5715000Y-6985000D03*
X50165000Y-4445000D03*
X43815000Y-6985000D03*
X40640000Y-80645000D03*
X34290000Y-83185000D03*
X204946250Y-80645000D03*
X198596250Y-83185000D03*
X150177500Y-61595000D03*
X143827500Y-64135000D03*
X252571460Y-61595056D03*
X246221460Y-64135056D03*
X14446250Y-42545000D03*
X8096250Y-45085000D03*
X226377500Y-61595000D03*
X220027500Y-64135000D03*
X169227500Y-61595000D03*
X162877500Y-64135000D03*
X207327500Y-61595000D03*
X200977500Y-64135000D03*
X131127500Y-61595000D03*
X124777500Y-64135000D03*
X188277500Y-61595000D03*
X181927500Y-64135000D03*
X16827500Y-80645000D03*
X10477500Y-83185000D03*
X14446250Y-61595000D03*
X8096250Y-64135000D03*
X278765000Y-4445000D03*
X272415000Y-6985000D03*
X276383750Y-80645072D03*
X270033750Y-83185072D03*
X252571250Y-80645000D03*
X246221250Y-83185000D03*
X250190000Y-23495000D03*
X243840000Y-26035000D03*
X54927500Y-61595000D03*
X48577500Y-64135000D03*
X193040000Y-23495000D03*
X186690000Y-26035000D03*
X121602500Y-42545000D03*
X115252500Y-45085000D03*
X64452500Y-42545000D03*
X58102500Y-45085000D03*
X62071250Y-80645000D03*
X55721250Y-83185000D03*
X266858750Y-42545000D03*
X260508750Y-45085000D03*
X228758750Y-80645000D03*
X222408750Y-83185000D03*
X278765000Y-61595000D03*
X272415000Y-64135000D03*
X178752500Y-42545000D03*
X172402500Y-45085000D03*
X14446250Y-80645000D03*
X8096250Y-83185000D03*
X274002500Y-23495000D03*
X267652500Y-26035000D03*
X231140000Y-23495000D03*
X224790000Y-26035000D03*
X64452500Y-80645000D03*
X58102500Y-83185000D03*
X93027500Y-61595000D03*
X86677500Y-64135000D03*
X83502500Y-42545000D03*
X77152500Y-45085000D03*
X35877500Y-61595000D03*
X29527500Y-64135000D03*
X254952500Y-42545000D03*
X248602500Y-45085000D03*
X159702500Y-42545000D03*
X153352500Y-45085000D03*
X102552500Y-42545000D03*
X96202500Y-45085000D03*
X45402500Y-42545000D03*
X39052500Y-45085000D03*
X197802500Y-42545000D03*
X191452500Y-45085000D03*
X23971250Y-61595000D03*
X17621250Y-64135000D03*
X235902500Y-42545000D03*
X229552500Y-45085000D03*
X216852500Y-42545000D03*
X210502500Y-45085000D03*
X212090000Y-23495000D03*
X205740000Y-26035000D03*
X140652500Y-42545000D03*
X134302500Y-45085000D03*
X19208750Y-42545000D03*
X12858750Y-45085000D03*
X112077500Y-61595000D03*
X105727500Y-64135000D03*
X250190000Y-80645000D03*
X243840000Y-83185000D03*
X38258750Y-80645000D03*
X31908750Y-83185000D03*
X73977500Y-61595000D03*
X67627500Y-64135000D03*
X226377500Y-80645000D03*
X220027500Y-83185000D03*
X274002728Y-80645072D03*
X267652728Y-83185072D03*
X262096468Y-61595000D03*
X255746468Y-64135000D03*
X133508750Y-80645000D03*
X127158750Y-83185000D03*
X145415000Y-80645000D03*
X139065000Y-83185000D03*
X276383980Y-33020000D03*
X270033980Y-35560000D03*
D11*
X98821958Y-92868828D03*
X101798523Y-92868828D03*
X95845393Y-92868828D03*
D12*
X114736661Y-88622263D03*
D13*
X114736661Y-91162263D03*
X117276661Y-88622263D03*
X117276661Y-91162263D03*
X119816661Y-88622263D03*
X119816661Y-91162263D03*
D14*
X107267454Y-36639560D03*
X98377454Y-69913560D03*
X91773454Y-72453560D03*
X112514157Y-89892263D03*
X6429454Y-37909560D03*
X114633454Y-82105560D03*
X3635454Y-20383560D03*
X100793008Y-88580006D03*
X95837454Y-91071969D03*
X91773454Y-76009560D03*
X111077454Y-74739560D03*
X117276661Y-75604751D03*
X94059454Y-71437560D03*
X117371974Y-83819943D03*
X63586696Y-20947750D03*
X94059454Y-84534446D03*
X72032873Y-83939133D03*
X105781339Y-82564132D03*
X109537592Y-83343820D03*
X105759599Y-70842247D03*
X98821958Y-13692199D03*
X104370398Y-70842247D03*
X106561027Y-32742215D03*
X102989149Y-70842247D03*
X110728218Y-53578170D03*
X110728218Y-85694944D03*
X72723454Y-88201560D03*
X147637624Y-88115698D03*
X75604751Y-73223499D03*
X93464141Y-73034408D03*
X109751596Y-70086060D03*
X148232937Y-70246934D03*
X167282953Y-70842247D03*
X185737656Y-71436090D03*
X265381381Y-72161090D03*
X263731454Y-15811560D03*
X2657457Y-20383560D03*
X4397454Y-37909560D03*
X3381454Y-22923560D03*
X5413454Y-37909560D03*
X94059454Y-86915698D03*
X113617287Y-85069944D03*
X70842247Y-51196918D03*
X102989149Y-88106324D03*
X104179775Y-86915698D03*
X103584462Y-87511011D03*
X102147205Y-88148265D03*
X3381454Y-37909560D03*
X1857454Y-20383560D03*
X65000912Y-19533534D03*
X74414125Y-83939133D03*
X73223499Y-83939133D03*
X64293804Y-20240642D03*
D15*
X104727454Y-57467560D02*
X104727454Y-55943560D01*
X107775454Y-52895560D02*
X107775454Y-37147560D01*
X98377454Y-62293560D02*
X107775454Y-52895560D01*
X107267454Y-74739560D02*
X91773454Y-74739560D01*
X114633454Y-82105560D02*
X109045454Y-76517560D01*
X109045454Y-76517560D02*
X108537454Y-76009560D01*
X91773454Y-76009560D02*
X91773454Y-74739560D01*
X4143454Y-21653560D02*
X4143454Y-35623560D01*
X98377454Y-69913560D02*
X98377454Y-62293560D01*
X109807454Y-76009560D02*
X108537454Y-76009560D01*
X4143454Y-35623560D02*
X6429454Y-37909560D01*
X3635454Y-20383560D02*
X3635454Y-21145560D01*
X98301045Y-91071969D02*
X100793008Y-88580006D01*
X91773454Y-74739560D02*
X91773454Y-72453560D01*
X111077454Y-74739560D02*
X109807454Y-76009560D01*
X95837454Y-91071969D02*
X98301045Y-91071969D01*
X108537454Y-76009560D02*
X107267454Y-74739560D01*
X3635454Y-21145560D02*
X4143454Y-21653560D01*
X107775454Y-37147560D02*
X107267454Y-36639560D01*
D16*
X67631010Y-52888793D02*
X67835702Y-52598153D01*
X113652270Y-71980360D02*
X117276661Y-75604751D01*
X64163989Y-76055443D02*
X63885356Y-75732430D01*
X110013715Y-83819943D02*
X117371974Y-83819943D01*
X66434627Y-39789508D02*
X66298166Y-39595747D01*
X63765437Y-57009346D02*
X64049756Y-56645025D01*
X117371974Y-83819943D02*
X117848097Y-83343820D01*
X62746996Y-73934765D02*
X62574127Y-73544778D01*
X64070216Y-21431270D02*
X63586696Y-20947750D01*
X65536690Y-37621695D02*
X65507679Y-37386486D01*
X66580431Y-39976339D02*
X66434627Y-39789508D01*
X68504994Y-42713456D02*
X68360936Y-42388467D01*
X67835702Y-41461299D02*
X67631010Y-41170659D01*
X68201105Y-42070938D02*
X68025887Y-41761633D01*
X62079550Y-71914374D02*
X62006620Y-71494071D01*
X61912552Y-62618114D02*
X61923892Y-62156120D01*
X65276519Y-23443865D02*
X65202179Y-23218835D01*
X68839254Y-50334176D02*
X68917142Y-49987327D01*
X66898643Y-40327431D02*
X66934987Y-40363775D01*
X62462939Y-59446149D02*
X62629258Y-59014983D01*
X64534231Y-21969192D02*
X64388427Y-21782361D01*
X65478613Y-24608564D02*
X65461179Y-24372215D01*
X68360936Y-51670985D02*
X68504994Y-51345996D01*
X65339728Y-23672271D02*
X65276519Y-23443865D01*
X68632932Y-43045123D02*
X68504994Y-42713456D01*
X67412303Y-53169040D02*
X67631010Y-52888793D01*
X68744442Y-43382668D02*
X68632932Y-43045123D01*
X62629258Y-59014983D02*
X62816533Y-58592497D01*
X61923892Y-62156120D02*
X61957889Y-61695240D01*
X62006620Y-71494071D02*
X61954402Y-71070695D01*
X94602254Y-71980360D02*
X113652270Y-71980360D01*
X68025887Y-41761633D02*
X67835702Y-41461299D01*
X64388427Y-21782361D02*
X64233631Y-21602909D01*
X65484430Y-24845484D02*
X65484430Y-36913218D01*
X65391653Y-23903504D02*
X65339728Y-23672271D01*
X64797482Y-22363175D02*
X64670693Y-22162953D01*
X69021432Y-49284260D02*
X69047583Y-48929737D01*
X117848097Y-76176187D02*
X117276661Y-75604751D01*
X63252098Y-57777613D02*
X63499337Y-57387179D01*
X62173015Y-72330593D02*
X62079550Y-71914374D01*
X65507679Y-37386486D02*
X65490245Y-37150137D01*
X66054564Y-39189322D02*
X65948010Y-38977636D01*
X68744441Y-50676785D02*
X68839254Y-50334176D01*
X65484430Y-24845484D02*
X65478613Y-24608564D01*
X100792272Y-82564132D02*
X105781339Y-82564132D01*
X68632932Y-51014330D02*
X68744441Y-50676785D01*
X65948010Y-38977636D02*
X65851971Y-38760976D01*
X65202179Y-23218835D02*
X65116887Y-22997724D01*
X62014459Y-61236582D02*
X62093466Y-60781254D01*
X66735228Y-40155790D02*
X66580431Y-39976339D01*
X66898643Y-40327431D02*
X66735228Y-40155790D01*
X64670693Y-22162953D02*
X64534231Y-21969192D01*
X69047583Y-48929737D02*
X69056308Y-48574358D01*
X108757904Y-82564132D02*
X109537592Y-83343820D01*
X67835702Y-52598153D02*
X68025886Y-52297819D01*
X65461179Y-24372215D02*
X65432169Y-24137006D01*
X69056308Y-45485096D02*
X69056308Y-48574358D01*
X64233631Y-21602909D02*
X64070216Y-21431270D01*
X64458136Y-76364396D02*
X64163989Y-76055443D01*
X64914295Y-22569378D02*
X64797482Y-22363175D01*
X63622908Y-75396134D02*
X63377277Y-75047366D01*
X64458136Y-76364396D02*
X72032873Y-83939133D01*
X65692340Y-38314836D02*
X65629131Y-38086429D01*
X67412303Y-40890412D02*
X67180109Y-40621234D01*
X65490245Y-37150137D02*
X65484430Y-36913218D01*
X65432169Y-24137006D02*
X65391653Y-23903504D01*
X61957889Y-61695240D02*
X62014459Y-61236582D01*
X66934987Y-53695678D02*
X64670268Y-55960397D01*
X69047583Y-45129716D02*
X69021432Y-44775192D01*
X65116887Y-22997724D02*
X65020849Y-22781065D01*
X63024313Y-58179709D02*
X63252098Y-57777613D01*
X68839255Y-43725277D02*
X68744442Y-43382668D01*
X67180109Y-53438217D02*
X67412303Y-53169040D01*
X68977917Y-44422379D02*
X68917142Y-44072126D01*
X94059454Y-84534446D02*
X98821958Y-84534446D01*
X62816533Y-58592497D02*
X63024313Y-58179709D01*
X68917142Y-44072126D02*
X68839255Y-43725277D01*
X67631010Y-41170659D02*
X67412303Y-40890412D01*
X66298166Y-39595747D02*
X66171376Y-39395525D01*
X61912552Y-62618114D02*
X61912552Y-70218812D01*
X66934987Y-53695678D02*
X67180109Y-53438217D01*
X61954402Y-71070695D02*
X61923020Y-70645267D01*
X62574127Y-73544778D02*
X62420602Y-73146778D01*
X68360936Y-42388467D02*
X68201105Y-42070938D01*
X62093466Y-60781254D02*
X62194720Y-60330350D01*
X68977916Y-49637074D02*
X69021432Y-49284260D01*
X110013715Y-83819943D02*
X109537592Y-83343820D01*
X61923020Y-70645267D02*
X61912552Y-70218812D01*
X68025886Y-52297819D02*
X68201105Y-51988514D01*
X117848097Y-83343820D02*
X117848097Y-76176187D01*
X63885356Y-75732430D02*
X63622908Y-75396134D01*
X63499337Y-57387179D02*
X63765437Y-57009346D01*
X65766679Y-38539865D02*
X65692340Y-38314836D01*
X98821958Y-84534446D02*
X100792272Y-82564132D01*
X68504994Y-51345996D02*
X68632932Y-51014330D01*
X69021432Y-44775192D02*
X68977917Y-44422379D01*
X69056308Y-45485096D02*
X69047583Y-45129716D01*
X68917142Y-49987327D02*
X68977916Y-49637074D01*
X68201105Y-51988514D02*
X68360936Y-51670985D01*
X62194720Y-60330350D02*
X62317976Y-59884957D01*
X94602254Y-71980360D02*
X94059454Y-71437560D01*
X64351608Y-56295095D02*
X64670268Y-55960397D01*
X105781339Y-82564132D02*
X108757904Y-82564132D01*
X67180109Y-40621234D02*
X66934987Y-40363775D01*
X62420602Y-73146778D02*
X62286790Y-72741724D01*
X64049756Y-56645025D02*
X64351608Y-56295095D01*
X65020849Y-22781065D02*
X64914295Y-22569378D01*
X62286790Y-72741724D02*
X62173015Y-72330593D01*
X65577206Y-37855197D02*
X65536690Y-37621695D01*
X63377277Y-75047366D02*
X63149056Y-74686965D01*
X63149056Y-74686965D02*
X62938793Y-74315800D01*
X62317976Y-59884957D02*
X62462939Y-59446149D01*
X62938793Y-74315800D02*
X62746996Y-73934765D01*
X65851971Y-38760976D02*
X65766679Y-38539865D01*
X65629131Y-38086429D02*
X65577206Y-37855197D01*
X66171376Y-39395525D02*
X66054564Y-39189322D01*
D15*
X102989149Y-63103178D02*
X102989149Y-68071797D01*
X108044099Y-34820600D02*
X112514157Y-39290658D01*
X102989149Y-68071797D02*
X105759599Y-70842247D01*
X112514157Y-53578170D02*
X102989149Y-63103178D01*
X98821958Y-13692199D02*
X108044099Y-22914340D01*
X112514157Y-39290658D02*
X112514157Y-53578170D01*
X108044099Y-22914340D02*
X108044099Y-34820600D01*
X111918844Y-39331755D02*
X106561027Y-33973938D01*
X111918844Y-53537073D02*
X111918844Y-39331755D01*
X106561027Y-33973938D02*
X106561027Y-32742215D01*
X102393836Y-68865685D02*
X102393836Y-63062081D01*
X102393836Y-68865685D02*
X104370398Y-70842247D01*
X102393836Y-63062081D02*
X111918844Y-53537073D01*
X101943827Y-62362561D02*
X101943827Y-69796925D01*
X101943827Y-62362561D02*
X110728218Y-53578170D01*
X102989149Y-70842247D02*
X101943827Y-69796925D01*
X110728218Y-85694944D02*
X122604350Y-85694944D01*
X110728218Y-85694944D02*
X102689588Y-85694944D01*
X102689588Y-85694944D02*
X100690972Y-87693560D01*
X147628250Y-88106324D02*
X147637624Y-88115698D01*
X87651464Y-74681570D02*
X78623444Y-74681570D01*
X90503454Y-77533560D02*
X87651464Y-74681570D01*
X90503454Y-85407560D02*
X90503454Y-77533560D01*
X76279454Y-84645560D02*
X72723454Y-88201560D01*
X76279454Y-81597560D02*
X76279454Y-84137560D01*
X76279454Y-77025560D02*
X76279454Y-81597560D01*
X100690972Y-87693560D02*
X92789454Y-87693560D01*
X76279454Y-84137560D02*
X76279454Y-84645560D01*
X125015730Y-88106324D02*
X147628250Y-88106324D01*
X122604350Y-85694944D02*
X125015730Y-88106324D01*
X92789454Y-87693560D02*
X90503454Y-85407560D01*
X78623444Y-74681570D02*
X76279454Y-77025560D01*
X62071250Y-80645000D02*
X64452500Y-80645000D01*
X10477500Y-80010076D02*
X18764249Y-71723327D01*
X16827500Y-23495000D02*
X16827500Y-36353750D01*
X17621250Y-60483786D02*
X17621250Y-64135000D01*
X8096250Y-64135000D02*
X17621250Y-64135000D01*
X8096250Y-83185000D02*
X10477500Y-83185000D01*
X5715000Y-12382500D02*
X16827500Y-23495000D01*
X8096250Y-45085000D02*
X12858750Y-45085000D01*
X10477500Y-80010076D02*
X10477500Y-83185000D01*
X16827500Y-36353750D02*
X8096250Y-45085000D01*
X18764249Y-65277999D02*
X18764249Y-71723327D01*
X17621250Y-64135000D02*
X18764249Y-65277999D01*
X8096250Y-45085000D02*
X8096250Y-50958786D01*
X8096250Y-50958786D02*
X17621250Y-60483786D01*
X5715000Y-6985000D02*
X5715000Y-12382500D01*
X35652276Y-80645000D02*
X40640000Y-80645000D01*
X39052500Y-51270228D02*
X29527500Y-60795228D01*
X34290000Y-26035000D02*
X34290000Y-40322500D01*
X29527500Y-74520224D02*
X35652276Y-80645000D01*
X34290000Y-24418554D02*
X24765000Y-14893554D01*
X24765000Y-14893554D02*
X24765000Y-6985000D01*
X29527500Y-60795228D02*
X29527500Y-64135000D01*
X34290000Y-40322500D02*
X39052500Y-45085000D01*
X34290000Y-26035000D02*
X34290000Y-24418554D01*
X39052500Y-45085000D02*
X39052500Y-51270228D01*
X29527500Y-64135000D02*
X29527500Y-74520224D01*
X48577500Y-64135000D02*
X48577500Y-76041250D01*
X59690000Y-23495000D02*
X59690000Y-37782500D01*
X43815000Y-9146974D02*
X57020027Y-22352001D01*
X57020027Y-22352001D02*
X58547001Y-22352001D01*
X64452500Y-49529988D02*
X49847488Y-64135000D01*
X43815000Y-6985000D02*
X43815000Y-9146974D01*
X49847488Y-64135000D02*
X48577500Y-64135000D01*
X64452500Y-42545000D02*
X64452500Y-49529988D01*
X58547001Y-22352001D02*
X59690000Y-23495000D01*
X59690000Y-37782500D02*
X64452500Y-42545000D01*
X48577500Y-76041250D02*
X55721250Y-83185000D01*
X69215000Y-4445000D02*
X69215000Y-13970000D01*
X78740000Y-39930000D02*
X81355000Y-42545000D01*
X75604751Y-73223499D02*
X73977500Y-71596248D01*
X83502500Y-52070000D02*
X73977500Y-61595000D01*
X83502500Y-42545000D02*
X83502500Y-52070000D01*
X73977500Y-71596248D02*
X73977500Y-61595000D01*
X78740000Y-23495000D02*
X78740000Y-39930000D01*
X81355000Y-42545000D02*
X83502500Y-42545000D01*
X69215000Y-13970000D02*
X78740000Y-23495000D01*
X88265000Y-4445000D02*
X88265000Y-13970000D01*
X102552500Y-42545000D02*
X102552500Y-52070000D01*
X93027500Y-61595000D02*
X93027500Y-72597767D01*
X97790000Y-23495000D02*
X97790000Y-37782500D01*
X93027500Y-72597767D02*
X93464141Y-73034408D01*
X97790000Y-37782500D02*
X102552500Y-42545000D01*
X102552500Y-52070000D02*
X93027500Y-61595000D01*
X88265000Y-13970000D02*
X97790000Y-23495000D01*
X112077500Y-61595000D02*
X112077500Y-67760156D01*
X121602500Y-42545000D02*
X121602500Y-52070000D01*
X121602500Y-52070000D02*
X112077500Y-61595000D01*
X107315000Y-13970000D02*
X116840000Y-23495000D01*
X112077500Y-67760156D02*
X109751596Y-70086060D01*
X107315000Y-4445000D02*
X107315000Y-13970000D01*
X116840000Y-37782500D02*
X121602500Y-42545000D01*
X116840000Y-23495000D02*
X116840000Y-37782500D01*
X127158750Y-83185000D02*
X139065000Y-83185000D01*
X131127500Y-61595000D02*
X131127500Y-79216250D01*
X135890000Y-43497500D02*
X134302500Y-45085000D01*
X131127500Y-79216250D02*
X127158750Y-83185000D01*
X126365000Y-13970000D02*
X135890000Y-23495000D01*
X134302500Y-58420000D02*
X131127500Y-61595000D01*
X126365000Y-4445000D02*
X126365000Y-13970000D01*
X135890000Y-23495000D02*
X135890000Y-43497500D01*
X134302500Y-45085000D02*
X134302500Y-58420000D01*
X145415000Y-4445000D02*
X145415000Y-13970000D01*
X154940000Y-23495000D02*
X154940000Y-37782500D01*
X150177500Y-68302371D02*
X150177500Y-61595000D01*
X145415000Y-13970000D02*
X154940000Y-23495000D01*
X150177500Y-61595000D02*
X159702500Y-52070000D01*
X159702500Y-42545000D02*
X159702500Y-52070000D01*
X148232937Y-70246934D02*
X150177500Y-68302371D01*
X154940000Y-37782500D02*
X159702500Y-42545000D01*
X178752500Y-52070000D02*
X169227500Y-61595000D01*
X164465000Y-13970000D02*
X173990000Y-23495000D01*
X169227500Y-68897700D02*
X167282953Y-70842247D01*
X164465000Y-4445000D02*
X164465000Y-13970000D01*
X173990000Y-37782500D02*
X178752500Y-42545000D01*
X169227500Y-61595000D02*
X169227500Y-68897700D01*
X173990000Y-23495000D02*
X173990000Y-37782500D01*
X178752500Y-42545000D02*
X178752500Y-52070000D01*
X188277500Y-68897716D02*
X188277500Y-61595000D01*
X185737656Y-71436090D02*
X187522125Y-69651621D01*
X183515000Y-13970000D02*
X193040000Y-23495000D01*
X197802500Y-52070000D02*
X188277500Y-61595000D01*
X197802500Y-42545000D02*
X197802500Y-52070000D01*
X187523595Y-69651621D02*
X188277500Y-68897716D01*
X193040000Y-23495000D02*
X193040000Y-37782500D01*
X187522125Y-69651621D02*
X187523595Y-69651621D01*
X193040000Y-37782500D02*
X197802500Y-42545000D01*
X183515000Y-4445000D02*
X183515000Y-13970000D01*
X202565000Y-13970000D02*
X212090000Y-23495000D01*
X198961454Y-74231560D02*
X205279546Y-74231560D01*
X212090000Y-37782500D02*
X216852500Y-42545000D01*
X216852500Y-42545000D02*
X216852500Y-52070000D01*
X202565000Y-4445000D02*
X202565000Y-13970000D01*
X207327500Y-72183606D02*
X207327500Y-61595000D01*
X216852500Y-52070000D02*
X207327500Y-61595000D01*
X205279546Y-74231560D02*
X207327500Y-72183606D01*
X212090000Y-23495000D02*
X212090000Y-37782500D01*
X197183454Y-76009560D02*
X198961454Y-74231560D01*
X197183454Y-81772204D02*
X197183454Y-76009560D01*
X198596250Y-83185000D02*
X197183454Y-81772204D01*
X221615000Y-13970000D02*
X231140000Y-23495000D01*
X235902500Y-42545000D02*
X235902500Y-52070000D01*
X221615000Y-4445000D02*
X221615000Y-13970000D01*
X226377500Y-80645000D02*
X228758750Y-80645000D01*
X235902500Y-52070000D02*
X226377500Y-61595000D01*
X231140000Y-23495000D02*
X231140000Y-37782500D01*
X226377500Y-61595000D02*
X226377500Y-80645000D01*
X231140000Y-37782500D02*
X235902500Y-42545000D01*
X262096468Y-61595000D02*
X262096468Y-71119782D01*
X240665000Y-13970000D02*
X250190000Y-23495000D01*
X262096468Y-61595000D02*
X252571516Y-61595000D01*
X254952500Y-28257500D02*
X254952500Y-42545000D01*
X254952500Y-42545000D02*
X254952500Y-54451032D01*
X250190000Y-80645000D02*
X252571250Y-80645000D01*
X240665000Y-4445000D02*
X240665000Y-13970000D01*
X250190000Y-23495000D02*
X254952500Y-28257500D01*
X262096468Y-71119782D02*
X252571250Y-80645000D01*
X254952500Y-54451032D02*
X262096468Y-61595000D01*
X260508750Y-42912588D02*
X260508750Y-45085000D01*
X274002500Y-30638520D02*
X276383980Y-33020000D01*
X270401338Y-33020000D02*
X260508750Y-42912588D01*
X260508750Y-45085000D02*
X260508750Y-51440804D01*
X276383750Y-80645072D02*
X274002728Y-80645072D01*
X270662946Y-61595000D02*
X278765000Y-61595000D01*
X259715000Y-10823946D02*
X272386054Y-23495000D01*
X278765000Y-78263822D02*
X276383750Y-80645072D01*
X278765000Y-61595000D02*
X278765000Y-78263822D01*
X274002500Y-23495000D02*
X274002500Y-30638520D01*
X259715000Y-4445000D02*
X259715000Y-10823946D01*
X272386054Y-23495000D02*
X274002500Y-23495000D01*
X260508750Y-51440804D02*
X270662946Y-61595000D01*
X276383980Y-33020000D02*
X270401338Y-33020000D01*
X263223454Y-15811560D02*
X263731454Y-15811560D01*
X261290000Y-35670000D02*
X260420000Y-34800000D01*
X266700224Y-70842247D02*
X266700224Y-61317239D01*
X260420000Y-18615014D02*
X263223454Y-15811560D01*
X260420000Y-34800000D02*
X260420000Y-18615014D01*
X261290000Y-40605014D02*
X261290000Y-35670000D01*
X256316599Y-45578415D02*
X261290000Y-40605014D01*
X256316599Y-50933614D02*
X256316599Y-45578415D01*
X265381381Y-72161090D02*
X266700224Y-70842247D01*
X266700224Y-61317239D02*
X256316599Y-50933614D01*
X278765000Y-4445000D02*
X269240000Y-4445000D01*
D17*
X2657457Y-36169563D02*
X4397454Y-37909560D01*
X2657457Y-20383560D02*
X2657457Y-35915563D01*
X2657457Y-35915563D02*
X2657457Y-36169563D01*
X3381454Y-22923560D02*
X3381454Y-35877560D01*
X3381454Y-35877560D02*
X5413454Y-37909560D01*
D15*
X91011454Y-85153560D02*
X92773592Y-86915698D01*
X91011454Y-76263560D02*
X91011454Y-85153560D01*
X63847424Y-59890051D02*
X63731683Y-60240404D01*
X64477444Y-58557990D02*
X64295584Y-58879018D01*
X63489376Y-61319456D02*
X63444213Y-61685634D01*
X64129706Y-59208562D02*
X63980195Y-59545855D01*
X64295584Y-58879018D02*
X64129706Y-59208562D01*
X63633286Y-60595964D02*
X63552452Y-60955940D01*
X92773592Y-86915698D02*
X94551592Y-86915698D01*
X63444213Y-61685634D02*
X63417074Y-62053563D01*
X63407885Y-62427894D02*
X63407885Y-69015702D01*
X65613425Y-57103246D02*
X65355224Y-57374443D01*
X63980195Y-59545855D02*
X63847424Y-59890051D01*
X64674813Y-58246309D02*
X64477444Y-58557990D01*
X68369743Y-73977560D02*
X63407885Y-69015702D01*
X65114243Y-57653806D02*
X64887266Y-57944650D01*
X63417074Y-62053563D02*
X63407885Y-62427894D01*
X102678178Y-85069944D02*
X100832424Y-86915698D01*
X65355224Y-57374443D02*
X65114243Y-57653806D01*
X94059454Y-86915698D02*
X94551592Y-86915698D01*
X70842247Y-51874425D02*
X65613425Y-57103246D01*
X64887266Y-57944650D02*
X64674813Y-58246309D01*
X78311454Y-73977560D02*
X88725454Y-73977560D01*
X113617287Y-85069944D02*
X102678178Y-85069944D01*
X63552452Y-60955940D02*
X63489376Y-61319456D01*
X70842247Y-51196918D02*
X70842247Y-51874425D01*
X63731683Y-60240404D02*
X63633286Y-60595964D01*
X94551592Y-86915698D02*
X100832424Y-86915698D01*
X78311454Y-73977560D02*
X68369743Y-73977560D01*
X88725454Y-73977560D02*
X91011454Y-76263560D01*
X103505088Y-88622263D02*
X114736661Y-88622263D01*
X102989149Y-88106324D02*
X103505088Y-88622263D01*
X117276661Y-87420182D02*
X116772177Y-86915698D01*
X116772177Y-86915698D02*
X104179775Y-86915698D01*
X117276661Y-88622263D02*
X117276661Y-87420182D01*
X116101660Y-87702260D02*
X116101660Y-89987262D01*
X116101660Y-89987262D02*
X117276661Y-91162263D01*
X103884461Y-87811010D02*
X113259480Y-87811010D01*
X115765107Y-87365707D02*
X116101660Y-87702260D01*
X113704783Y-87365707D02*
X115765107Y-87365707D01*
X103584462Y-87511011D02*
X103884461Y-87811010D01*
X113259480Y-87811010D02*
X113704783Y-87365707D01*
X102147205Y-88148265D02*
X102147205Y-90240945D01*
X101798523Y-92868828D02*
X101798523Y-90589627D01*
X101798523Y-90589627D02*
X102147205Y-90240945D01*
X1857454Y-36385560D02*
X3381454Y-37909560D01*
X1857454Y-20383560D02*
X1857454Y-36385560D01*
X65115539Y-19648161D02*
X65000912Y-19533534D01*
X63722782Y-72589173D02*
X63564319Y-72231685D01*
X66162210Y-21214615D02*
X66066172Y-20997956D01*
X63423587Y-59738417D02*
X63564319Y-59373584D01*
X67405311Y-39378745D02*
X67296954Y-39253129D01*
X63300926Y-71495553D02*
X63196632Y-71118682D01*
X68128826Y-40167203D02*
X67850193Y-39844189D01*
X68762083Y-52919130D02*
X68989868Y-52517035D01*
X65842805Y-20580066D02*
X65716016Y-20379844D01*
X67519702Y-39498894D02*
X67405311Y-39378745D01*
X64300540Y-73609057D02*
X64091337Y-73278690D01*
X62996237Y-69963776D02*
X62967471Y-69573800D01*
X69075388Y-41583833D02*
X68865126Y-41212668D01*
X63044104Y-70351870D02*
X62996237Y-69963776D01*
X65959618Y-20786269D02*
X65842805Y-20580066D01*
X69819461Y-50366394D02*
X69920715Y-49915490D01*
X70056292Y-49001504D02*
X70090289Y-48540624D01*
X68248744Y-53687397D02*
X68514843Y-53309564D01*
X69440055Y-42354856D02*
X69267185Y-41964868D01*
X68391274Y-40503499D02*
X68128826Y-40167203D01*
X69727392Y-43157909D02*
X69593580Y-42752856D01*
X66523936Y-22825455D02*
X66506502Y-22589106D01*
X70007562Y-44405563D02*
X69934632Y-43985259D01*
X67662572Y-54401648D02*
X67964425Y-54051717D01*
X65021692Y-57072139D02*
X65291327Y-56788934D01*
X63110956Y-70737148D02*
X63044104Y-70351870D01*
X70090289Y-48540624D02*
X70101631Y-48078631D01*
X63423587Y-71866852D02*
X63300926Y-71495553D01*
X64766278Y-57368235D02*
X65021692Y-57072139D01*
X66787032Y-38402376D02*
X66727327Y-38247598D01*
X64300539Y-57996211D02*
X64525701Y-57676506D01*
X62957875Y-62422387D02*
X62967471Y-62031469D01*
X65433750Y-19999252D02*
X65278954Y-19819800D01*
X69696205Y-50811786D02*
X69819461Y-50366394D01*
X66321842Y-21660756D02*
X66247502Y-21435726D01*
X67194891Y-39122348D02*
X67099368Y-38986715D01*
X62967471Y-62031469D02*
X62996237Y-61641493D01*
X67850193Y-39844189D02*
X67556046Y-39535238D01*
X68514843Y-53309564D02*
X68762083Y-52919130D01*
X69999722Y-49460161D02*
X70056292Y-49001504D01*
X67964425Y-54051717D02*
X68248744Y-53687397D01*
X64091337Y-73278690D02*
X63898596Y-72938455D01*
X70059780Y-44828939D02*
X70007562Y-44405563D01*
X67010615Y-38846559D02*
X66928846Y-38702218D01*
X65291327Y-74816335D02*
X65021692Y-74533128D01*
X66436976Y-22120395D02*
X66385051Y-21889162D01*
X66529753Y-23062375D02*
X66523936Y-22825455D01*
X63196632Y-60486586D02*
X63300926Y-60109716D01*
X64525701Y-57676506D02*
X64766278Y-57368235D01*
X67519702Y-39498894D02*
X67556046Y-39535238D01*
X67343914Y-54736347D02*
X65291327Y-56788934D01*
X63300926Y-60109716D02*
X63423587Y-59738417D01*
X69551242Y-51250594D02*
X69696205Y-50811786D01*
X69267185Y-41964868D02*
X69075388Y-41583833D01*
X66066172Y-20997956D02*
X65959618Y-20786269D01*
X63044104Y-61253399D02*
X63110956Y-60868120D01*
X63564319Y-72231685D02*
X63423587Y-71866852D01*
X65278954Y-19819800D02*
X65115539Y-19648161D01*
X63110956Y-60868120D02*
X63196632Y-60486586D01*
X66529753Y-23062375D02*
X66529753Y-37108945D01*
X67343914Y-54736347D02*
X67662572Y-54401648D01*
X67296954Y-39253129D02*
X67194891Y-39122348D01*
X70101631Y-45680823D02*
X70091162Y-45254367D01*
X67099368Y-38986715D02*
X67010615Y-38846559D01*
X68865126Y-41212668D02*
X68636904Y-40852267D01*
X66594696Y-37768330D02*
X66566335Y-37604879D01*
X63196632Y-71118682D02*
X63110956Y-70737148D01*
X66631044Y-37930193D02*
X66594696Y-37768330D01*
X66675289Y-38090077D02*
X66631044Y-37930193D01*
X63898596Y-72938455D02*
X63722782Y-72589173D01*
X69920715Y-49915490D02*
X69999722Y-49460161D01*
X65579554Y-20186083D02*
X65433750Y-19999252D01*
X66533823Y-37274788D02*
X66529753Y-37108945D01*
X66854259Y-38554037D02*
X66787032Y-38402376D01*
X62967471Y-69573800D02*
X62957875Y-69182883D01*
X65716016Y-20379844D02*
X65579554Y-20186083D01*
X62957875Y-62422387D02*
X62957875Y-69182883D01*
X69841167Y-43569040D02*
X69727392Y-43157909D01*
X66385051Y-21889162D02*
X66321842Y-21660756D01*
X66477492Y-22353897D02*
X66436976Y-22120395D01*
X66928846Y-38702218D02*
X66854259Y-38554037D01*
X68989868Y-52517035D02*
X69197648Y-52104247D01*
X65021692Y-74533128D02*
X64766278Y-74237033D01*
X66546027Y-37440232D02*
X66533823Y-37274788D01*
X65291327Y-74816335D02*
X74414125Y-83939133D01*
X63722782Y-59016095D02*
X63898596Y-58666813D01*
X64766278Y-74237033D02*
X64525701Y-73928762D01*
X63564319Y-59373584D02*
X63722782Y-59016095D01*
X69934632Y-43985259D02*
X69841167Y-43569040D01*
X66727327Y-38247598D02*
X66675289Y-38090077D01*
X63898596Y-58666813D02*
X64091337Y-58326578D01*
X64525701Y-73928762D02*
X64300540Y-73609057D01*
X69593580Y-42752856D02*
X69440055Y-42354856D01*
X68636904Y-40852267D02*
X68391274Y-40503499D01*
X70091162Y-45254367D02*
X70059780Y-44828939D01*
X69197648Y-52104247D02*
X69384923Y-51681760D01*
X66247502Y-21435726D02*
X66162210Y-21214615D01*
X66566335Y-37604879D02*
X66546027Y-37440232D01*
X69384923Y-51681760D02*
X69551242Y-51250594D01*
X70101631Y-45680823D02*
X70101631Y-48078631D01*
X66506502Y-22589106D02*
X66477492Y-22353897D01*
X64091337Y-58326578D02*
X64300539Y-57996211D01*
X62996237Y-61641493D02*
X63044104Y-61253399D01*
X69609770Y-49044114D02*
X69641151Y-48618686D01*
X68415115Y-52660384D02*
X68625378Y-52289219D01*
X66079743Y-24026581D02*
X66079743Y-36995345D01*
X65616162Y-21962162D02*
X65509608Y-21750475D01*
X68886712Y-42160931D02*
X68710898Y-41811649D01*
X66079743Y-24026581D02*
X66073926Y-23789661D01*
X64480668Y-57022367D02*
X64759301Y-56699353D01*
X67587802Y-40216975D02*
X67318168Y-39933770D01*
X66084686Y-37196726D02*
X66079743Y-36995345D01*
X62507865Y-62535987D02*
X62507865Y-69623499D01*
X69651621Y-45567223D02*
X69651621Y-48192231D01*
X63744369Y-58067832D02*
X63972590Y-57707431D01*
X68308955Y-41141047D02*
X68083793Y-40821342D01*
X66202739Y-37992575D02*
X66158603Y-37796027D01*
X65509608Y-21750475D02*
X65392795Y-21544272D01*
X66663647Y-39105306D02*
X66564356Y-38930033D01*
X66771418Y-39275495D02*
X66663647Y-39105306D01*
X68625378Y-52289219D02*
X68817175Y-51908184D01*
X69391157Y-50304012D02*
X69484622Y-49887793D01*
X66256466Y-38186720D02*
X66202739Y-37992575D01*
X64983740Y-20963458D02*
X64828944Y-20784006D01*
X65129544Y-21150289D02*
X64983740Y-20963458D01*
X65986966Y-23084601D02*
X65935041Y-22853368D01*
X65871832Y-22624962D02*
X65797492Y-22399932D01*
X65712200Y-22178821D02*
X65616162Y-21962162D01*
X64759302Y-75460130D02*
X64480669Y-75137117D01*
X69308568Y-43254552D02*
X69185908Y-42883253D01*
X63015915Y-72551465D02*
X62882103Y-72146411D01*
X62882103Y-72146411D02*
X62768328Y-71735280D01*
X65053449Y-75769083D02*
X73223499Y-83939133D01*
X64828944Y-20784006D02*
X64665529Y-20612367D01*
X62549714Y-61684103D02*
X62601933Y-61260727D01*
X63534106Y-58438997D02*
X63744369Y-58067832D01*
X67843216Y-40513071D02*
X67587802Y-40216975D01*
X68817175Y-51908184D02*
X68990044Y-51518197D01*
X68518158Y-41471414D02*
X68308955Y-41141047D01*
X62518333Y-62109531D02*
X62549714Y-61684103D01*
X63744369Y-74091652D02*
X63534106Y-73720487D01*
X68186894Y-53020785D02*
X68415115Y-52660384D01*
X69412862Y-43631422D02*
X69308568Y-43254552D01*
X66158603Y-37796027D02*
X66124164Y-37597550D01*
X62518333Y-70049954D02*
X62507865Y-69623499D01*
X64218220Y-57358663D02*
X64480668Y-57022367D01*
X66319655Y-38377995D02*
X66256466Y-38186720D01*
X67281824Y-39897426D02*
X67318168Y-39933770D01*
X67941263Y-53369553D02*
X68186894Y-53020785D01*
X63342309Y-73339452D02*
X63169440Y-72949465D01*
X63972590Y-57707431D02*
X64218220Y-57358663D01*
X68083793Y-40821342D02*
X67843216Y-40513071D01*
X67678815Y-53705849D02*
X67941263Y-53369553D01*
X66056492Y-23553312D02*
X66027482Y-23318103D01*
X62549715Y-70475382D02*
X62518333Y-70049954D01*
X67106036Y-54337815D02*
X67400182Y-54028862D01*
X63169440Y-59210020D02*
X63342309Y-58820033D01*
X66099505Y-37397623D02*
X66084686Y-37196726D01*
X69185908Y-42883253D02*
X69045176Y-42518420D01*
X69651621Y-45567223D02*
X69642024Y-45176305D01*
X67142921Y-39751531D02*
X67011344Y-39598998D01*
X69143570Y-51120197D02*
X69277381Y-50715143D01*
X69498539Y-44012956D02*
X69412862Y-43631422D01*
X64480669Y-75137117D02*
X64218221Y-74800821D01*
X69045176Y-42518420D02*
X68886712Y-42160931D01*
X67106036Y-54337815D02*
X65053449Y-56390402D01*
X65266006Y-21344050D02*
X65129544Y-21150289D01*
X69641151Y-48618686D02*
X69651621Y-48192231D01*
X62882103Y-60013073D02*
X63015914Y-59608020D01*
X63534106Y-73720487D02*
X63342309Y-73339452D01*
X69613258Y-44786329D02*
X69565391Y-44398235D01*
X66027482Y-23318103D02*
X65986966Y-23084601D01*
X65935041Y-22853368D02*
X65871832Y-22624962D01*
X66124164Y-37597550D02*
X66099505Y-37397623D01*
X63015914Y-59608020D02*
X63169440Y-59210020D01*
X62507865Y-62535987D02*
X62518333Y-62109531D01*
X62601933Y-70898758D02*
X62549715Y-70475382D01*
X69484622Y-49887793D02*
X69557551Y-49467490D01*
X62674863Y-71319061D02*
X62601933Y-70898758D01*
X67400182Y-54028862D02*
X67678815Y-53705849D01*
X66473786Y-38750100D02*
X66392153Y-38565939D01*
X68710898Y-41811649D02*
X68518158Y-41471414D01*
X66887410Y-39440191D02*
X66771418Y-39275495D01*
X65797492Y-22399932D02*
X65712200Y-22178821D01*
X69565391Y-44398235D02*
X69498539Y-44012956D01*
X63169440Y-72949465D02*
X63015915Y-72551465D01*
X66564356Y-38930033D02*
X66473786Y-38750100D01*
X64665529Y-20612367D02*
X64293804Y-20240642D01*
X62674862Y-60840423D02*
X62768327Y-60424205D01*
X66392153Y-38565939D02*
X66319655Y-38377995D01*
X64218221Y-74800821D02*
X63972590Y-74452053D01*
X68990044Y-51518197D02*
X69143570Y-51120197D01*
X69642024Y-45176305D02*
X69613258Y-44786329D01*
X62768328Y-71735280D02*
X62674863Y-71319061D01*
X67281824Y-39897426D02*
X67142921Y-39751531D01*
X65053449Y-75769083D02*
X64759302Y-75460130D01*
X62768327Y-60424205D02*
X62882103Y-60013073D01*
X65392795Y-21544272D02*
X65266006Y-21344050D01*
X63342309Y-58820033D02*
X63534106Y-58438997D01*
X69557551Y-49467490D02*
X69609770Y-49044114D01*
X69277381Y-50715143D02*
X69391157Y-50304012D01*
X67011344Y-39598998D02*
X66887410Y-39440191D01*
X64759301Y-56699353D02*
X65053449Y-56390402D01*
X63972590Y-74452053D02*
X63744369Y-74091652D01*
X62601933Y-61260727D02*
X62674862Y-60840423D01*
X66073926Y-23789661D02*
X66056492Y-23553312D01*
G04 #@! TA.AperFunction,NonConductor*
G36*
X280907419Y-4655562D02*
G01*
X280953912Y-4709218D01*
X280965298Y-4761560D01*
X280965298Y-8112290D01*
X280945296Y-8180411D01*
X280885579Y-8229482D01*
X280703527Y-8301378D01*
X280703525Y-8301379D01*
X280698562Y-8303339D01*
X280669659Y-8320878D01*
X280505956Y-8420215D01*
X280505953Y-8420217D01*
X280501395Y-8422983D01*
X280327206Y-8574137D01*
X280301144Y-8605922D01*
X280184358Y-8748351D01*
X280184354Y-8748357D01*
X280180974Y-8752479D01*
X280066882Y-8952909D01*
X279988192Y-9169698D01*
X279987243Y-9174947D01*
X279987242Y-9174950D01*
X279965498Y-9295197D01*
X279947153Y-9396646D01*
X279944939Y-9627263D01*
X279981614Y-9854957D01*
X280056128Y-10073217D01*
X280166351Y-10275801D01*
X280169655Y-10279992D01*
X280305829Y-10452728D01*
X280305833Y-10452732D01*
X280309132Y-10456917D01*
X280480387Y-10611387D01*
X280675221Y-10734794D01*
X280680154Y-10736852D01*
X280680155Y-10736853D01*
X280887820Y-10823508D01*
X280942985Y-10868200D01*
X280965298Y-10939790D01*
X280965298Y-15177560D01*
X280945296Y-15245681D01*
X280891640Y-15292174D01*
X280839298Y-15303560D01*
X279005291Y-15303560D01*
X278989499Y-15302566D01*
X278984644Y-15301953D01*
X278795410Y-15278047D01*
X278480590Y-15278047D01*
X278291356Y-15301953D01*
X278286501Y-15302566D01*
X278270709Y-15303560D01*
X276581011Y-15303560D01*
X276512890Y-15283558D01*
X276466397Y-15229902D01*
X276455011Y-15177560D01*
X276455011Y-12128865D01*
X276475013Y-12060744D01*
X276528669Y-12014251D01*
X276565219Y-12003859D01*
X276576568Y-12002425D01*
X276694746Y-11987496D01*
X276999675Y-11909204D01*
X277292386Y-11793311D01*
X277568264Y-11641646D01*
X277822958Y-11456600D01*
X278052451Y-11241091D01*
X278253125Y-10998519D01*
X278255246Y-10995177D01*
X278255251Y-10995170D01*
X278419689Y-10736055D01*
X278419689Y-10736054D01*
X278421813Y-10732708D01*
X278423497Y-10729129D01*
X278423501Y-10729122D01*
X278554168Y-10451441D01*
X278554170Y-10451437D01*
X278555857Y-10447851D01*
X278653141Y-10148441D01*
X278712132Y-9839198D01*
X278731900Y-9525000D01*
X278712132Y-9210802D01*
X278653141Y-8901559D01*
X278555857Y-8602149D01*
X278554168Y-8598559D01*
X278423501Y-8320878D01*
X278423497Y-8320871D01*
X278421813Y-8317292D01*
X278386285Y-8261308D01*
X278255251Y-8054830D01*
X278255246Y-8054823D01*
X278253125Y-8051481D01*
X278052451Y-7808909D01*
X277822958Y-7593400D01*
X277568264Y-7408354D01*
X277292386Y-7256689D01*
X276999675Y-7140796D01*
X276694746Y-7062504D01*
X276565219Y-7046141D01*
X276500142Y-7017759D01*
X276460741Y-6958700D01*
X276455011Y-6921135D01*
X276455011Y-5204500D01*
X276475013Y-5136379D01*
X276528669Y-5089886D01*
X276581011Y-5078500D01*
X277156298Y-5078500D01*
X277224419Y-5098502D01*
X277272707Y-5156283D01*
X277287596Y-5192230D01*
X277287598Y-5192234D01*
X277289493Y-5196808D01*
X277425268Y-5418372D01*
X277594031Y-5615969D01*
X277791628Y-5784732D01*
X278013192Y-5920507D01*
X278017762Y-5922400D01*
X278017766Y-5922402D01*
X278248695Y-6018056D01*
X278253268Y-6019950D01*
X278340368Y-6040861D01*
X278501132Y-6079457D01*
X278501138Y-6079458D01*
X278505945Y-6080612D01*
X278765000Y-6101000D01*
X279024055Y-6080612D01*
X279028862Y-6079458D01*
X279028868Y-6079457D01*
X279189632Y-6040861D01*
X279276732Y-6019950D01*
X279281305Y-6018056D01*
X279512234Y-5922402D01*
X279512238Y-5922400D01*
X279516808Y-5920507D01*
X279738372Y-5784732D01*
X279935969Y-5615969D01*
X280104732Y-5418372D01*
X280240507Y-5196808D01*
X280242404Y-5192230D01*
X280338056Y-4961305D01*
X280338057Y-4961303D01*
X280339950Y-4956732D01*
X280393868Y-4732146D01*
X280429220Y-4670577D01*
X280516387Y-4635560D01*
X280839298Y-4635560D01*
X280907419Y-4655562D01*
G37*
G04 #@! TD.AperFunction*
G04 #@! TA.AperFunction,NonConductor*
G36*
X79826058Y-79717802D02*
G01*
X79834093Y-79722219D01*
X79863364Y-79738311D01*
X80156075Y-79854204D01*
X80461004Y-79932496D01*
X80773340Y-79971953D01*
X81088160Y-79971953D01*
X81400496Y-79932496D01*
X81705425Y-79854204D01*
X81998136Y-79738311D01*
X82027408Y-79722219D01*
X82035442Y-79717802D01*
X82096143Y-79702217D01*
X84527857Y-79702217D01*
X84588558Y-79717802D01*
X84596593Y-79722219D01*
X84625864Y-79738311D01*
X84918575Y-79854204D01*
X85223504Y-79932496D01*
X85535840Y-79971953D01*
X85850660Y-79971953D01*
X86162996Y-79932496D01*
X86467925Y-79854204D01*
X86760636Y-79738311D01*
X86789908Y-79722219D01*
X86797942Y-79717802D01*
X86858643Y-79702217D01*
X87837454Y-79702217D01*
X87905575Y-79722219D01*
X87952068Y-79775875D01*
X87963454Y-79828217D01*
X87963454Y-90615560D01*
X87943452Y-90683681D01*
X87889796Y-90730174D01*
X87837454Y-90741560D01*
X86213299Y-90741560D01*
X86182817Y-90737817D01*
X86117605Y-90721558D01*
X86046971Y-90703947D01*
X86042601Y-90703488D01*
X86042597Y-90703487D01*
X85768709Y-90674700D01*
X85768706Y-90674700D01*
X85764340Y-90674241D01*
X85759952Y-90674394D01*
X85759946Y-90674394D01*
X85484723Y-90684005D01*
X85484717Y-90684006D01*
X85480326Y-90684159D01*
X85476002Y-90684922D01*
X85475997Y-90684922D01*
X85204786Y-90732744D01*
X85204782Y-90732745D01*
X85200455Y-90733508D01*
X85194650Y-90735394D01*
X85193307Y-90735607D01*
X85192007Y-90735931D01*
X85191979Y-90735817D01*
X85155718Y-90741560D01*
X81450799Y-90741560D01*
X81420317Y-90737817D01*
X81355105Y-90721558D01*
X81284471Y-90703947D01*
X81280101Y-90703488D01*
X81280097Y-90703487D01*
X81006209Y-90674700D01*
X81006206Y-90674700D01*
X81001840Y-90674241D01*
X80997452Y-90674394D01*
X80997446Y-90674394D01*
X80722223Y-90684005D01*
X80722217Y-90684006D01*
X80717826Y-90684159D01*
X80713502Y-90684922D01*
X80713497Y-90684922D01*
X80442286Y-90732744D01*
X80442282Y-90732745D01*
X80437955Y-90733508D01*
X80432150Y-90735394D01*
X80430807Y-90735607D01*
X80429507Y-90735931D01*
X80429479Y-90735817D01*
X80393218Y-90741560D01*
X78437454Y-90741560D01*
X78369333Y-90721558D01*
X78322840Y-90667902D01*
X78311454Y-90615560D01*
X78311454Y-79828217D01*
X78331456Y-79760096D01*
X78385112Y-79713603D01*
X78437454Y-79702217D01*
X79765357Y-79702217D01*
X79826058Y-79717802D01*
G37*
G04 #@! TD.AperFunction*
G04 #@! TA.AperFunction,NonConductor*
G36*
X8659722Y-61544312D02*
G01*
X8726212Y-61576741D01*
X8726217Y-61576743D01*
X8730176Y-61578674D01*
X9000455Y-61666492D01*
X9126995Y-61688805D01*
X9275997Y-61715078D01*
X9276002Y-61715078D01*
X9280326Y-61715841D01*
X9284717Y-61715994D01*
X9284723Y-61715995D01*
X9559946Y-61725606D01*
X9559952Y-61725606D01*
X9564340Y-61725759D01*
X9568706Y-61725300D01*
X9568709Y-61725300D01*
X9842597Y-61696513D01*
X9842601Y-61696512D01*
X9846971Y-61696053D01*
X10001359Y-61657560D01*
X10118443Y-61628368D01*
X10118445Y-61628367D01*
X10122718Y-61627302D01*
X10310180Y-61551562D01*
X10336978Y-61540735D01*
X10384179Y-61531560D01*
X11420325Y-61531560D01*
X11488446Y-61551562D01*
X11534939Y-61605218D01*
X11546325Y-61657560D01*
X11546325Y-63375500D01*
X11526323Y-63443621D01*
X11472667Y-63490114D01*
X11420325Y-63501500D01*
X9704952Y-63501500D01*
X9636831Y-63481498D01*
X9588543Y-63423717D01*
X9573654Y-63387770D01*
X9573650Y-63387762D01*
X9571757Y-63383192D01*
X9435982Y-63161628D01*
X9267219Y-62964031D01*
X9069622Y-62795268D01*
X8848058Y-62659493D01*
X8843488Y-62657600D01*
X8843484Y-62657598D01*
X8612555Y-62561944D01*
X8612553Y-62561943D01*
X8607982Y-62560050D01*
X8473284Y-62527712D01*
X8360118Y-62500543D01*
X8360112Y-62500542D01*
X8355305Y-62499388D01*
X8096250Y-62479000D01*
X7837195Y-62499388D01*
X7832388Y-62500542D01*
X7832382Y-62500543D01*
X7719216Y-62527712D01*
X7584518Y-62560050D01*
X7579949Y-62561942D01*
X7578704Y-62562347D01*
X7507737Y-62564375D01*
X7446939Y-62527712D01*
X7413768Y-62442514D01*
X7413768Y-61657560D01*
X7433770Y-61589439D01*
X7487426Y-61542946D01*
X7539768Y-61531560D01*
X8604488Y-61531560D01*
X8659722Y-61544312D01*
G37*
G04 #@! TD.AperFunction*
G04 #@! TA.AperFunction,NonConductor*
G36*
X10036677Y-64788502D02*
G01*
X10083170Y-64842158D01*
X10093274Y-64912432D01*
X10065641Y-64974815D01*
X9878125Y-65201481D01*
X9876004Y-65204823D01*
X9875999Y-65204830D01*
X9811815Y-65305969D01*
X9709437Y-65467292D01*
X9707753Y-65470871D01*
X9707749Y-65470878D01*
X9595250Y-65709950D01*
X9575393Y-65752149D01*
X9478109Y-66051559D01*
X9419118Y-66360802D01*
X9399350Y-66675000D01*
X9419118Y-66989198D01*
X9478109Y-67298441D01*
X9575393Y-67597851D01*
X9577080Y-67601437D01*
X9577082Y-67601441D01*
X9707749Y-67879122D01*
X9707753Y-67879129D01*
X9709437Y-67882708D01*
X9711561Y-67886054D01*
X9711561Y-67886055D01*
X9875999Y-68145170D01*
X9876004Y-68145177D01*
X9878125Y-68148519D01*
X10078799Y-68391091D01*
X10308292Y-68606600D01*
X10562986Y-68791646D01*
X10838864Y-68943311D01*
X11131575Y-69059204D01*
X11135397Y-69060185D01*
X11135396Y-69060185D01*
X11432671Y-69136512D01*
X11432673Y-69136512D01*
X11436504Y-69137496D01*
X11440439Y-69137993D01*
X11443926Y-69138658D01*
X11507094Y-69171066D01*
X11546325Y-69262428D01*
X11546325Y-72327560D01*
X11526323Y-72395681D01*
X11472667Y-72442174D01*
X11420325Y-72453560D01*
X9860541Y-72453560D01*
X9844749Y-72452566D01*
X9839894Y-72451953D01*
X9650660Y-72428047D01*
X9335840Y-72428047D01*
X9146606Y-72451953D01*
X9141751Y-72452566D01*
X9125959Y-72453560D01*
X7539768Y-72453560D01*
X7471647Y-72433558D01*
X7425154Y-72379902D01*
X7413768Y-72327560D01*
X7413768Y-67979434D01*
X7433770Y-67911313D01*
X7484827Y-67866043D01*
X7522579Y-67847753D01*
X7588944Y-67800328D01*
X7705875Y-67716768D01*
X7705877Y-67716766D01*
X7710221Y-67713662D01*
X7872587Y-67549873D01*
X8005034Y-67361069D01*
X8103777Y-67152648D01*
X8165992Y-66930569D01*
X8189899Y-66701183D01*
X8190150Y-66675000D01*
X8170651Y-66445197D01*
X8112711Y-66221965D01*
X8017988Y-66011687D01*
X8001353Y-65986978D01*
X7979903Y-65919299D01*
X7998447Y-65850767D01*
X8051099Y-65803141D01*
X8096390Y-65792781D01*
X8096250Y-65791000D01*
X8355305Y-65770612D01*
X8360112Y-65769458D01*
X8360118Y-65769457D01*
X8520882Y-65730861D01*
X8607982Y-65709950D01*
X8612555Y-65708056D01*
X8843484Y-65612402D01*
X8843488Y-65612400D01*
X8848058Y-65610507D01*
X9069622Y-65474732D01*
X9267219Y-65305969D01*
X9435982Y-65108372D01*
X9571757Y-64886808D01*
X9573650Y-64882238D01*
X9573654Y-64882230D01*
X9588543Y-64846283D01*
X9633090Y-64791002D01*
X9704952Y-64768500D01*
X9968556Y-64768500D01*
X10036677Y-64788502D01*
G37*
G04 #@! TD.AperFunction*
G04 #@! TA.AperFunction,NonConductor*
G36*
X253269234Y-42755562D02*
G01*
X253323632Y-42832146D01*
X253377550Y-43056732D01*
X253476993Y-43296808D01*
X253612768Y-43518372D01*
X253781531Y-43715969D01*
X253979128Y-43884732D01*
X254200692Y-44020507D01*
X254205262Y-44022400D01*
X254205270Y-44022404D01*
X254241217Y-44037293D01*
X254296498Y-44081840D01*
X254319000Y-44153702D01*
X254319000Y-45691972D01*
X254298998Y-45760093D01*
X254245342Y-45806586D01*
X254175068Y-45816690D01*
X254106747Y-45783822D01*
X254081479Y-45760093D01*
X254010458Y-45693400D01*
X253755764Y-45508354D01*
X253479886Y-45356689D01*
X253187175Y-45240796D01*
X252882246Y-45162504D01*
X252569910Y-45123047D01*
X252255090Y-45123047D01*
X251942754Y-45162504D01*
X251637825Y-45240796D01*
X251345114Y-45356689D01*
X251069236Y-45508354D01*
X250814542Y-45693400D01*
X250585049Y-45908909D01*
X250384375Y-46151481D01*
X250382254Y-46154823D01*
X250382249Y-46154830D01*
X250223651Y-46404743D01*
X250170262Y-46451542D01*
X250100047Y-46462047D01*
X250035299Y-46432923D01*
X249996575Y-46373418D01*
X249991266Y-46337229D01*
X249991266Y-46013893D01*
X250009833Y-45948058D01*
X250075421Y-45841028D01*
X250078007Y-45836808D01*
X250086341Y-45816690D01*
X250175556Y-45601305D01*
X250175557Y-45601303D01*
X250177450Y-45596732D01*
X250238112Y-45344055D01*
X250258500Y-45085000D01*
X250238112Y-44825945D01*
X250177450Y-44573268D01*
X250078007Y-44333192D01*
X250009833Y-44221942D01*
X249991266Y-44156107D01*
X249991266Y-42861560D01*
X250011268Y-42793439D01*
X250064924Y-42746946D01*
X250117266Y-42735560D01*
X253201113Y-42735560D01*
X253269234Y-42755562D01*
G37*
G04 #@! TD.AperFunction*
G04 #@! TA.AperFunction,NonConductor*
G36*
X250199778Y-48817547D02*
G01*
X250223651Y-48845257D01*
X250382249Y-49095170D01*
X250382254Y-49095177D01*
X250384375Y-49098519D01*
X250585049Y-49341091D01*
X250814542Y-49556600D01*
X251069236Y-49741646D01*
X251345114Y-49893311D01*
X251637825Y-50009204D01*
X251942754Y-50087496D01*
X252255090Y-50126953D01*
X252569910Y-50126953D01*
X252882246Y-50087496D01*
X253187175Y-50009204D01*
X253479886Y-49893311D01*
X253755764Y-49741646D01*
X254010458Y-49556600D01*
X254106749Y-49466177D01*
X254170098Y-49434126D01*
X254240720Y-49441413D01*
X254296191Y-49485723D01*
X254319001Y-49558027D01*
X254319001Y-53277560D01*
X254298999Y-53345681D01*
X254245343Y-53392174D01*
X254193001Y-53403560D01*
X252748041Y-53403560D01*
X252732249Y-53402566D01*
X252727394Y-53401953D01*
X252538160Y-53378047D01*
X252223340Y-53378047D01*
X252034106Y-53401953D01*
X252029251Y-53402566D01*
X252013459Y-53403560D01*
X250117266Y-53403560D01*
X250049145Y-53383558D01*
X250002652Y-53329902D01*
X249991266Y-53277560D01*
X249991266Y-48912771D01*
X250011268Y-48844650D01*
X250064924Y-48798157D01*
X250135198Y-48788053D01*
X250199778Y-48817547D01*
G37*
G04 #@! TD.AperFunction*
G04 #@! TA.AperFunction,NonConductor*
G36*
X278527093Y-47581562D02*
G01*
X278573586Y-47635218D01*
X278584972Y-47687560D01*
X278584972Y-53291922D01*
X278564970Y-53360043D01*
X278511314Y-53406536D01*
X278458972Y-53417922D01*
X276737728Y-53417922D01*
X276721936Y-53416928D01*
X276414160Y-53378047D01*
X276099340Y-53378047D01*
X275791564Y-53416928D01*
X275775772Y-53417922D01*
X268429454Y-53417922D01*
X268361333Y-53397920D01*
X268314840Y-53344264D01*
X268303454Y-53291922D01*
X268303454Y-48750568D01*
X268323456Y-48682447D01*
X268377112Y-48635954D01*
X268447386Y-48625850D01*
X268513846Y-48657006D01*
X268570166Y-48707806D01*
X268570172Y-48707810D01*
X268574137Y-48711387D01*
X268768971Y-48834794D01*
X268981812Y-48923609D01*
X268987015Y-48924805D01*
X268987020Y-48924807D01*
X269201372Y-48974097D01*
X269201377Y-48974098D01*
X269206575Y-48975293D01*
X269211903Y-48975596D01*
X269211906Y-48975596D01*
X269369098Y-48984522D01*
X269436832Y-48988368D01*
X269442139Y-48987768D01*
X269442141Y-48987768D01*
X269563066Y-48974097D01*
X269666001Y-48962460D01*
X269671116Y-48960979D01*
X269671120Y-48960978D01*
X269882405Y-48899794D01*
X269882410Y-48899792D01*
X269887528Y-48898310D01*
X270095079Y-48797753D01*
X270211937Y-48714245D01*
X270278375Y-48666768D01*
X270278377Y-48666766D01*
X270282721Y-48663662D01*
X270445087Y-48499873D01*
X270577534Y-48311069D01*
X270676277Y-48102648D01*
X270738492Y-47880569D01*
X270759969Y-47674499D01*
X270786925Y-47608818D01*
X270845111Y-47568138D01*
X270885290Y-47561560D01*
X278458972Y-47561560D01*
X278527093Y-47581562D01*
G37*
G04 #@! TD.AperFunction*
G04 #@! TA.AperFunction,NonConductor*
G36*
X257026003Y-4655562D02*
G01*
X257072496Y-4709218D01*
X257083882Y-4761560D01*
X257083882Y-6903589D01*
X257063880Y-6971710D01*
X257010224Y-7018203D01*
X256973675Y-7028595D01*
X256705254Y-7062504D01*
X256400325Y-7140796D01*
X256107614Y-7256689D01*
X255831736Y-7408354D01*
X255577042Y-7593400D01*
X255347549Y-7808909D01*
X255146875Y-8051481D01*
X255144754Y-8054823D01*
X255144749Y-8054830D01*
X255080565Y-8155969D01*
X254978187Y-8317292D01*
X254976503Y-8320871D01*
X254976499Y-8320878D01*
X254864000Y-8559950D01*
X254844143Y-8602149D01*
X254746859Y-8901559D01*
X254687868Y-9210802D01*
X254668100Y-9525000D01*
X254687868Y-9839198D01*
X254746859Y-10148441D01*
X254844143Y-10447851D01*
X254845830Y-10451437D01*
X254845832Y-10451441D01*
X254976499Y-10729122D01*
X254976503Y-10729129D01*
X254978187Y-10732708D01*
X254980311Y-10736054D01*
X254980311Y-10736055D01*
X255144749Y-10995170D01*
X255144754Y-10995177D01*
X255146875Y-10998519D01*
X255347549Y-11241091D01*
X255577042Y-11456600D01*
X255831736Y-11641646D01*
X256107614Y-11793311D01*
X256400325Y-11909204D01*
X256705254Y-11987496D01*
X256973674Y-12021405D01*
X257038751Y-12049787D01*
X257078152Y-12108846D01*
X257083882Y-12146411D01*
X257083882Y-15177560D01*
X257063880Y-15245681D01*
X257010224Y-15292174D01*
X256957882Y-15303560D01*
X255129291Y-15303560D01*
X255113499Y-15302566D01*
X255108644Y-15301953D01*
X254919410Y-15278047D01*
X254604590Y-15278047D01*
X254415356Y-15301953D01*
X254410501Y-15302566D01*
X254394709Y-15303560D01*
X252649266Y-15303560D01*
X252581145Y-15283558D01*
X252534652Y-15229902D01*
X252523266Y-15177560D01*
X252523266Y-10906591D01*
X252543268Y-10838470D01*
X252594328Y-10793199D01*
X252786524Y-10700081D01*
X252791329Y-10697753D01*
X252857694Y-10650328D01*
X252974625Y-10566768D01*
X252974627Y-10566766D01*
X252978971Y-10563662D01*
X253141337Y-10399873D01*
X253273784Y-10211069D01*
X253372527Y-10002648D01*
X253434742Y-9780569D01*
X253458649Y-9551183D01*
X253458900Y-9525000D01*
X253439401Y-9295197D01*
X253381461Y-9071965D01*
X253286738Y-8861687D01*
X253270103Y-8836978D01*
X253248653Y-8769299D01*
X253267197Y-8700767D01*
X253319849Y-8653141D01*
X253365140Y-8642781D01*
X253365000Y-8641000D01*
X253624055Y-8620612D01*
X253628862Y-8619458D01*
X253628868Y-8619457D01*
X253789632Y-8580861D01*
X253876732Y-8559950D01*
X253881305Y-8558056D01*
X254112234Y-8462402D01*
X254112238Y-8462400D01*
X254116808Y-8460507D01*
X254338372Y-8324732D01*
X254535969Y-8155969D01*
X254704732Y-7958372D01*
X254840507Y-7736808D01*
X254939950Y-7496732D01*
X255000612Y-7244055D01*
X255021000Y-6985000D01*
X255000612Y-6725945D01*
X254939950Y-6473268D01*
X254840507Y-6233192D01*
X254704732Y-6011628D01*
X254535969Y-5814031D01*
X254338372Y-5645268D01*
X254116808Y-5509493D01*
X254112238Y-5507600D01*
X254112234Y-5507598D01*
X253881305Y-5411944D01*
X253881303Y-5411943D01*
X253876732Y-5410050D01*
X253789632Y-5389139D01*
X253628868Y-5350543D01*
X253628862Y-5350542D01*
X253624055Y-5349388D01*
X253365000Y-5329000D01*
X253105945Y-5349388D01*
X253101138Y-5350542D01*
X253101132Y-5350543D01*
X252940368Y-5389139D01*
X252853268Y-5410050D01*
X252848697Y-5411943D01*
X252848695Y-5411944D01*
X252697484Y-5474578D01*
X252626894Y-5482167D01*
X252563407Y-5450388D01*
X252523266Y-5358169D01*
X252523266Y-4761560D01*
X252543268Y-4693439D01*
X252596924Y-4646946D01*
X252649266Y-4635560D01*
X256957882Y-4635560D01*
X257026003Y-4655562D01*
G37*
G04 #@! TD.AperFunction*
G04 #@! TA.AperFunction,NonConductor*
G36*
X32535722Y-61544312D02*
G01*
X32602212Y-61576741D01*
X32602217Y-61576743D01*
X32606176Y-61578674D01*
X32876455Y-61666492D01*
X33002995Y-61688805D01*
X33151997Y-61715078D01*
X33152002Y-61715078D01*
X33156326Y-61715841D01*
X33160717Y-61715994D01*
X33160723Y-61715995D01*
X33435946Y-61725606D01*
X33435952Y-61725606D01*
X33440340Y-61725759D01*
X33444706Y-61725300D01*
X33444709Y-61725300D01*
X33718597Y-61696513D01*
X33718601Y-61696512D01*
X33722971Y-61696053D01*
X33992698Y-61628803D01*
X33994447Y-61628367D01*
X33994449Y-61628366D01*
X33998718Y-61627302D01*
X34002797Y-61625654D01*
X34002800Y-61625653D01*
X34057769Y-61603444D01*
X34128422Y-61596471D01*
X34191629Y-61628803D01*
X34230581Y-61710383D01*
X34241888Y-61854055D01*
X34302550Y-62106732D01*
X34401993Y-62346808D01*
X34537768Y-62568372D01*
X34706531Y-62765969D01*
X34904128Y-62934732D01*
X35125692Y-63070507D01*
X35130262Y-63072400D01*
X35130266Y-63072402D01*
X35361195Y-63168056D01*
X35365768Y-63169950D01*
X35460067Y-63192589D01*
X35608384Y-63228197D01*
X35669953Y-63263549D01*
X35704970Y-63350716D01*
X35704970Y-65302510D01*
X35684968Y-65370631D01*
X35631312Y-65417124D01*
X35561038Y-65427228D01*
X35496458Y-65397734D01*
X35472588Y-65370029D01*
X35365625Y-65201481D01*
X35164951Y-64958909D01*
X34935458Y-64743400D01*
X34680764Y-64558354D01*
X34404886Y-64406689D01*
X34112175Y-64290796D01*
X33807246Y-64212504D01*
X33494910Y-64173047D01*
X33180090Y-64173047D01*
X32867754Y-64212504D01*
X32562825Y-64290796D01*
X32270114Y-64406689D01*
X31994236Y-64558354D01*
X31739542Y-64743400D01*
X31510049Y-64958909D01*
X31309375Y-65201481D01*
X31307257Y-65204819D01*
X31307249Y-65204830D01*
X31257358Y-65283447D01*
X31203969Y-65330246D01*
X31133754Y-65340751D01*
X31069006Y-65311627D01*
X31030282Y-65252121D01*
X31024973Y-65215933D01*
X31024973Y-64858841D01*
X31034564Y-64810623D01*
X31100556Y-64651305D01*
X31100557Y-64651303D01*
X31102450Y-64646732D01*
X31163112Y-64394055D01*
X31183500Y-64135000D01*
X31163112Y-63875945D01*
X31102450Y-63623268D01*
X31034564Y-63459377D01*
X31024973Y-63411159D01*
X31024973Y-61657560D01*
X31044975Y-61589439D01*
X31098631Y-61542946D01*
X31150973Y-61531560D01*
X32480488Y-61531560D01*
X32535722Y-61544312D01*
G37*
G04 #@! TD.AperFunction*
G04 #@! TA.AperFunction,NonConductor*
G36*
X35660937Y-67951796D02*
G01*
X35699661Y-68011301D01*
X35704970Y-68047490D01*
X35704970Y-72327560D01*
X35684968Y-72395681D01*
X35631312Y-72442174D01*
X35578970Y-72453560D01*
X33736541Y-72453560D01*
X33720749Y-72452566D01*
X33715894Y-72451953D01*
X33526660Y-72428047D01*
X33211840Y-72428047D01*
X33022606Y-72451953D01*
X33017751Y-72452566D01*
X33001959Y-72453560D01*
X31150973Y-72453560D01*
X31082852Y-72433558D01*
X31036359Y-72379902D01*
X31024973Y-72327560D01*
X31024973Y-68134067D01*
X31044975Y-68065946D01*
X31098631Y-68019453D01*
X31168905Y-68009349D01*
X31233485Y-68038843D01*
X31257358Y-68066553D01*
X31307249Y-68145170D01*
X31307254Y-68145177D01*
X31309375Y-68148519D01*
X31510049Y-68391091D01*
X31739542Y-68606600D01*
X31994236Y-68791646D01*
X32270114Y-68943311D01*
X32562825Y-69059204D01*
X32867754Y-69137496D01*
X33180090Y-69176953D01*
X33494910Y-69176953D01*
X33807246Y-69137496D01*
X34112175Y-69059204D01*
X34404886Y-68943311D01*
X34680764Y-68791646D01*
X34935458Y-68606600D01*
X35164951Y-68391091D01*
X35365625Y-68148519D01*
X35472587Y-67979974D01*
X35525974Y-67933177D01*
X35596189Y-67922672D01*
X35660937Y-67951796D01*
G37*
G04 #@! TD.AperFunction*
G04 #@! TA.AperFunction,NonConductor*
G36*
X275423222Y-42494312D02*
G01*
X275489712Y-42526741D01*
X275489717Y-42526743D01*
X275493676Y-42528674D01*
X275763955Y-42616492D01*
X275890495Y-42638805D01*
X276039497Y-42665078D01*
X276039502Y-42665078D01*
X276043826Y-42665841D01*
X276048217Y-42665994D01*
X276048223Y-42665995D01*
X276323446Y-42675606D01*
X276323452Y-42675606D01*
X276327840Y-42675759D01*
X276332206Y-42675300D01*
X276332209Y-42675300D01*
X276606097Y-42646513D01*
X276606101Y-42646512D01*
X276610471Y-42646053D01*
X276764859Y-42607560D01*
X276881943Y-42578368D01*
X276881945Y-42578367D01*
X276886218Y-42577302D01*
X277073680Y-42501562D01*
X277100478Y-42490735D01*
X277147679Y-42481560D01*
X278460165Y-42481560D01*
X278528286Y-42501562D01*
X278574779Y-42555218D01*
X278586165Y-42607560D01*
X278586165Y-53277560D01*
X278566163Y-53345681D01*
X278512507Y-53392174D01*
X278460165Y-53403560D01*
X276624041Y-53403560D01*
X276608249Y-53402566D01*
X276603394Y-53401953D01*
X276414160Y-53378047D01*
X276099340Y-53378047D01*
X275910106Y-53401953D01*
X275905251Y-53402566D01*
X275889459Y-53403560D01*
X274091143Y-53403560D01*
X274023022Y-53383558D01*
X273976529Y-53329902D01*
X273965143Y-53277560D01*
X273965143Y-42607560D01*
X273985145Y-42539439D01*
X274038801Y-42492946D01*
X274091143Y-42481560D01*
X275367988Y-42481560D01*
X275423222Y-42494312D01*
G37*
G04 #@! TD.AperFunction*
G04 #@! TA.AperFunction,NonConductor*
G36*
X278555499Y-23451562D02*
G01*
X278601992Y-23505218D01*
X278613378Y-23557560D01*
X278613378Y-28639560D01*
X278593376Y-28707681D01*
X278539720Y-28754174D01*
X278487378Y-28765560D01*
X278028831Y-28765560D01*
X277960710Y-28745558D01*
X277914217Y-28691902D01*
X277903511Y-28626499D01*
X277906149Y-28601183D01*
X277906400Y-28575000D01*
X277886901Y-28345197D01*
X277828961Y-28121965D01*
X277734238Y-27911687D01*
X277605439Y-27720375D01*
X277446247Y-27553499D01*
X277261215Y-27415831D01*
X277055632Y-27311308D01*
X276988910Y-27290590D01*
X276840481Y-27244501D01*
X276840475Y-27244500D01*
X276835378Y-27242917D01*
X276712411Y-27226619D01*
X276612032Y-27213314D01*
X276612028Y-27213314D01*
X276606748Y-27212614D01*
X276601419Y-27212814D01*
X276601417Y-27212814D01*
X276491515Y-27216940D01*
X276376282Y-27221266D01*
X276150569Y-27268626D01*
X276145613Y-27270583D01*
X276145607Y-27270585D01*
X276046502Y-27309724D01*
X275936062Y-27353339D01*
X275896548Y-27377317D01*
X275743456Y-27470215D01*
X275743453Y-27470217D01*
X275738895Y-27472983D01*
X275734867Y-27476478D01*
X275734866Y-27476479D01*
X275695653Y-27510507D01*
X275564706Y-27624137D01*
X275538644Y-27655922D01*
X275421858Y-27798351D01*
X275421854Y-27798357D01*
X275418474Y-27802479D01*
X275304382Y-28002909D01*
X275225692Y-28219698D01*
X275224743Y-28224947D01*
X275224742Y-28224950D01*
X275202998Y-28345197D01*
X275184653Y-28446646D01*
X275184602Y-28451985D01*
X275182789Y-28640770D01*
X275162134Y-28708695D01*
X275108034Y-28754671D01*
X275056795Y-28765560D01*
X274762000Y-28765560D01*
X274693879Y-28745558D01*
X274647386Y-28691902D01*
X274636000Y-28639560D01*
X274636000Y-25103702D01*
X274656002Y-25035581D01*
X274713783Y-24987293D01*
X274749730Y-24972404D01*
X274749738Y-24972400D01*
X274754308Y-24970507D01*
X274975872Y-24834732D01*
X275173469Y-24665969D01*
X275342232Y-24468372D01*
X275478007Y-24246808D01*
X275525586Y-24131944D01*
X275575556Y-24011305D01*
X275575557Y-24011303D01*
X275577450Y-24006732D01*
X275638112Y-23754055D01*
X275654355Y-23547672D01*
X275679639Y-23481333D01*
X275736777Y-23439193D01*
X275779966Y-23431560D01*
X278487378Y-23431560D01*
X278555499Y-23451562D01*
G37*
G04 #@! TD.AperFunction*
G04 #@! TA.AperFunction,NonConductor*
G36*
X271463615Y-23468465D02*
G01*
X271882663Y-23887513D01*
X271890023Y-23895601D01*
X271894081Y-23901995D01*
X271899858Y-23907420D01*
X271942932Y-23947869D01*
X271945774Y-23950624D01*
X271966087Y-23970937D01*
X271969498Y-23973582D01*
X271978518Y-23981286D01*
X272010753Y-24011557D01*
X272017698Y-24015375D01*
X272017701Y-24015377D01*
X272028506Y-24021317D01*
X272045033Y-24032173D01*
X272061030Y-24044582D01*
X272101609Y-24062143D01*
X272112241Y-24067351D01*
X272151006Y-24088662D01*
X272158683Y-24090633D01*
X272158688Y-24090635D01*
X272170620Y-24093698D01*
X272189328Y-24100103D01*
X272193667Y-24101980D01*
X272200646Y-24105001D01*
X272200650Y-24105002D01*
X272207917Y-24108147D01*
X272215741Y-24109386D01*
X272215744Y-24109387D01*
X272236555Y-24112683D01*
X272251591Y-24115064D01*
X272263199Y-24117468D01*
X272306029Y-24128465D01*
X272306585Y-24128500D01*
X272326507Y-24128500D01*
X272346216Y-24130051D01*
X272365998Y-24133184D01*
X272373891Y-24132438D01*
X272373894Y-24132438D01*
X272382980Y-24131579D01*
X272452681Y-24145079D01*
X272511250Y-24208801D01*
X272526993Y-24246808D01*
X272662768Y-24468372D01*
X272831531Y-24665969D01*
X273029128Y-24834732D01*
X273250692Y-24970507D01*
X273255262Y-24972400D01*
X273255270Y-24972404D01*
X273291217Y-24987293D01*
X273346498Y-25031840D01*
X273369000Y-25103702D01*
X273369000Y-26641972D01*
X273348998Y-26710093D01*
X273295342Y-26756586D01*
X273225068Y-26766690D01*
X273156747Y-26733822D01*
X273131479Y-26710093D01*
X273060458Y-26643400D01*
X272805764Y-26458354D01*
X272529886Y-26306689D01*
X272237175Y-26190796D01*
X271932246Y-26112504D01*
X271619910Y-26073047D01*
X271305090Y-26073047D01*
X270992754Y-26112504D01*
X270687825Y-26190796D01*
X270395114Y-26306689D01*
X270119236Y-26458354D01*
X269864542Y-26643400D01*
X269635049Y-26858909D01*
X269434375Y-27101481D01*
X269432254Y-27104823D01*
X269432249Y-27104830D01*
X269275785Y-27351380D01*
X269265687Y-27367292D01*
X269264003Y-27370871D01*
X269263999Y-27370878D01*
X269133332Y-27648559D01*
X269131643Y-27652149D01*
X269034359Y-27951559D01*
X268975368Y-28260802D01*
X268955600Y-28575000D01*
X268955849Y-28578958D01*
X268959164Y-28631648D01*
X268943479Y-28700891D01*
X268892849Y-28750661D01*
X268833413Y-28765560D01*
X268680115Y-28765560D01*
X268611994Y-28745558D01*
X268565501Y-28691902D01*
X268554115Y-28639560D01*
X268554115Y-27489268D01*
X268574117Y-27421147D01*
X268614276Y-27381838D01*
X268625872Y-27374732D01*
X268630385Y-27370878D01*
X268819707Y-27209182D01*
X268823469Y-27205969D01*
X268992232Y-27008372D01*
X269128007Y-26786808D01*
X269136341Y-26766690D01*
X269225556Y-26551305D01*
X269225557Y-26551303D01*
X269227450Y-26546732D01*
X269288112Y-26294055D01*
X269308500Y-26035000D01*
X269288112Y-25775945D01*
X269227450Y-25523268D01*
X269128007Y-25283192D01*
X268992232Y-25061628D01*
X268823469Y-24864031D01*
X268625872Y-24695268D01*
X268614276Y-24688162D01*
X268566647Y-24635514D01*
X268554115Y-24580732D01*
X268554115Y-23557560D01*
X268574117Y-23489439D01*
X268627773Y-23442946D01*
X268680115Y-23431560D01*
X271374520Y-23431560D01*
X271463615Y-23468465D01*
G37*
G04 #@! TD.AperFunction*
G04 #@! TA.AperFunction,NonConductor*
G36*
X199162058Y-79806686D02*
G01*
X199190230Y-79817840D01*
X199282075Y-79854204D01*
X199587004Y-79932496D01*
X199899340Y-79971953D01*
X200214160Y-79971953D01*
X200526496Y-79932496D01*
X200831425Y-79854204D01*
X200923270Y-79817840D01*
X200951442Y-79806686D01*
X200997826Y-79797838D01*
X202758367Y-79797838D01*
X202826488Y-79817840D01*
X202872981Y-79871496D01*
X202884367Y-79923838D01*
X202884367Y-83120643D01*
X202864365Y-83188764D01*
X202810709Y-83235257D01*
X202742575Y-83245649D01*
X202708024Y-83241284D01*
X202563660Y-83223047D01*
X202248840Y-83223047D01*
X201936504Y-83262504D01*
X201631575Y-83340796D01*
X201338864Y-83456689D01*
X201062986Y-83608354D01*
X200808292Y-83793400D01*
X200578799Y-84008909D01*
X200378125Y-84251481D01*
X200376004Y-84254823D01*
X200375999Y-84254830D01*
X200311815Y-84355969D01*
X200209437Y-84517292D01*
X200207753Y-84520871D01*
X200207749Y-84520878D01*
X200095250Y-84759950D01*
X200075393Y-84802149D01*
X199978109Y-85101559D01*
X199919118Y-85410802D01*
X199899350Y-85725000D01*
X199919118Y-86039198D01*
X199978109Y-86348441D01*
X200075393Y-86647851D01*
X200077080Y-86651437D01*
X200077082Y-86651441D01*
X200207749Y-86929122D01*
X200207753Y-86929129D01*
X200209437Y-86932708D01*
X200211561Y-86936054D01*
X200211561Y-86936055D01*
X200375999Y-87195170D01*
X200376004Y-87195177D01*
X200378125Y-87198519D01*
X200578799Y-87441091D01*
X200808292Y-87656600D01*
X201062986Y-87841646D01*
X201338864Y-87993311D01*
X201631575Y-88109204D01*
X201936504Y-88187496D01*
X202248840Y-88226953D01*
X202563660Y-88226953D01*
X202708024Y-88208716D01*
X202742575Y-88204351D01*
X202812666Y-88215657D01*
X202865517Y-88263063D01*
X202884367Y-88329357D01*
X202884367Y-90361560D01*
X202864365Y-90429681D01*
X202810709Y-90476174D01*
X202758367Y-90487560D01*
X197309454Y-90487560D01*
X197241333Y-90467558D01*
X197194840Y-90413902D01*
X197183454Y-90361560D01*
X197183454Y-87211454D01*
X197203456Y-87143333D01*
X197257112Y-87096840D01*
X197316596Y-87085657D01*
X197364332Y-87088368D01*
X197369639Y-87087768D01*
X197369641Y-87087768D01*
X197484108Y-87074827D01*
X197593501Y-87062460D01*
X197598616Y-87060979D01*
X197598620Y-87060978D01*
X197809905Y-86999794D01*
X197809910Y-86999792D01*
X197815028Y-86998310D01*
X198022579Y-86897753D01*
X198088944Y-86850328D01*
X198205875Y-86766768D01*
X198205877Y-86766766D01*
X198210221Y-86763662D01*
X198372587Y-86599873D01*
X198505034Y-86411069D01*
X198603777Y-86202648D01*
X198665992Y-85980569D01*
X198689899Y-85751183D01*
X198690150Y-85725000D01*
X198670651Y-85495197D01*
X198612711Y-85271965D01*
X198517988Y-85061687D01*
X198501353Y-85036978D01*
X198479903Y-84969299D01*
X198498447Y-84900767D01*
X198551099Y-84853141D01*
X198596390Y-84842781D01*
X198596250Y-84841000D01*
X198855305Y-84820612D01*
X198860112Y-84819458D01*
X198860118Y-84819457D01*
X199020882Y-84780861D01*
X199107982Y-84759950D01*
X199112555Y-84758056D01*
X199343484Y-84662402D01*
X199343488Y-84662400D01*
X199348058Y-84660507D01*
X199569622Y-84524732D01*
X199767219Y-84355969D01*
X199935982Y-84158372D01*
X200071757Y-83936808D01*
X200171200Y-83696732D01*
X200231862Y-83444055D01*
X200252250Y-83185000D01*
X200231862Y-82925945D01*
X200171200Y-82673268D01*
X200071757Y-82433192D01*
X199935982Y-82211628D01*
X199767219Y-82014031D01*
X199569622Y-81845268D01*
X199348058Y-81709493D01*
X199343488Y-81707600D01*
X199343484Y-81707598D01*
X199112555Y-81611944D01*
X199112553Y-81611943D01*
X199107982Y-81610050D01*
X199020882Y-81589139D01*
X198860118Y-81550543D01*
X198860112Y-81550542D01*
X198855305Y-81549388D01*
X198596250Y-81529000D01*
X198337195Y-81549388D01*
X198332388Y-81550542D01*
X198332382Y-81550543D01*
X198171618Y-81589139D01*
X198084518Y-81610050D01*
X198079951Y-81611942D01*
X198079944Y-81611944D01*
X198043990Y-81626837D01*
X197973400Y-81634426D01*
X197906677Y-81599523D01*
X197853859Y-81546705D01*
X197816954Y-81457610D01*
X197816954Y-79923838D01*
X197836956Y-79855717D01*
X197890612Y-79809224D01*
X197942954Y-79797838D01*
X199115674Y-79797838D01*
X199162058Y-79806686D01*
G37*
G04 #@! TD.AperFunction*
M02*
