G04 #@! TF.GenerationSoftware,KiCad,Pcbnew,(5.99.0-4079-gfad0916f0)*
G04 #@! TF.CreationDate,2020-10-31T22:05:35-04:00*
G04 #@! TF.ProjectId,plain60-c,706c6169-6e36-4302-9d63-2e6b69636164,rev?*
G04 #@! TF.SameCoordinates,Original*
G04 #@! TF.FileFunction,AssemblyDrawing,Bot*
%FSLAX46Y46*%
G04 Gerber Fmt 4.6, Leading zero omitted, Abs format (unit mm)*
G04 Created by KiCad (PCBNEW (5.99.0-4079-gfad0916f0)) date 2020-10-31 22:05:35*
%MOMM*%
%LPD*%
G01*
G04 APERTURE LIST*
%ADD10C,0.125000*%
%ADD11C,0.150000*%
%ADD12C,0.030000*%
%ADD13C,0.080000*%
%ADD14C,0.075000*%
%ADD15C,0.100000*%
G04 APERTURE END LIST*
D10*
X240137329Y-86308555D02*
X239637329Y-86308555D01*
X239637329Y-86427602D01*
X239661139Y-86499031D01*
X239708758Y-86546650D01*
X239756377Y-86570459D01*
X239851615Y-86594269D01*
X239923043Y-86594269D01*
X240018281Y-86570459D01*
X240065900Y-86546650D01*
X240113519Y-86499031D01*
X240137329Y-86427602D01*
X240137329Y-86308555D01*
X239637329Y-86760936D02*
X239637329Y-87094269D01*
X240137329Y-86879983D01*
X239637329Y-87237126D02*
X239637329Y-87546650D01*
X239827805Y-87379983D01*
X239827805Y-87451412D01*
X239851615Y-87499031D01*
X239875424Y-87522840D01*
X239923043Y-87546650D01*
X240042091Y-87546650D01*
X240089710Y-87522840D01*
X240113519Y-87499031D01*
X240137329Y-87451412D01*
X240137329Y-87308555D01*
X240113519Y-87260936D01*
X240089710Y-87237126D01*
X216324809Y-86308555D02*
X215824809Y-86308555D01*
X215824809Y-86427602D01*
X215848619Y-86499031D01*
X215896238Y-86546650D01*
X215943857Y-86570459D01*
X216039095Y-86594269D01*
X216110523Y-86594269D01*
X216205761Y-86570459D01*
X216253380Y-86546650D01*
X216300999Y-86499031D01*
X216324809Y-86427602D01*
X216324809Y-86308555D01*
X215824809Y-86760936D02*
X215824809Y-87094269D01*
X216324809Y-86879983D01*
X215872428Y-87260936D02*
X215848619Y-87284745D01*
X215824809Y-87332364D01*
X215824809Y-87451412D01*
X215848619Y-87499031D01*
X215872428Y-87522840D01*
X215920047Y-87546650D01*
X215967666Y-87546650D01*
X216039095Y-87522840D01*
X216324809Y-87237126D01*
X216324809Y-87546650D01*
X210371679Y-86308555D02*
X209871679Y-86308555D01*
X209871679Y-86427602D01*
X209895489Y-86499031D01*
X209943108Y-86546650D01*
X209990727Y-86570459D01*
X210085965Y-86594269D01*
X210157393Y-86594269D01*
X210252631Y-86570459D01*
X210300250Y-86546650D01*
X210347869Y-86499031D01*
X210371679Y-86427602D01*
X210371679Y-86308555D01*
X209871679Y-86760936D02*
X209871679Y-87094269D01*
X210371679Y-86879983D01*
X210371679Y-87546650D02*
X210371679Y-87260936D01*
X210371679Y-87403793D02*
X209871679Y-87403793D01*
X209943108Y-87356174D01*
X209990727Y-87308555D01*
X210014536Y-87260936D01*
X150840379Y-86308555D02*
X150340379Y-86308555D01*
X150340379Y-86427602D01*
X150364189Y-86499031D01*
X150411808Y-86546650D01*
X150459427Y-86570459D01*
X150554665Y-86594269D01*
X150626093Y-86594269D01*
X150721331Y-86570459D01*
X150768950Y-86546650D01*
X150816569Y-86499031D01*
X150840379Y-86427602D01*
X150840379Y-86308555D01*
X150340379Y-87022840D02*
X150340379Y-86927602D01*
X150364189Y-86879983D01*
X150387998Y-86856174D01*
X150459427Y-86808555D01*
X150554665Y-86784745D01*
X150745141Y-86784745D01*
X150792760Y-86808555D01*
X150816569Y-86832364D01*
X150840379Y-86879983D01*
X150840379Y-86975221D01*
X150816569Y-87022840D01*
X150792760Y-87046650D01*
X150745141Y-87070459D01*
X150626093Y-87070459D01*
X150578474Y-87046650D01*
X150554665Y-87022840D01*
X150530855Y-86975221D01*
X150530855Y-86879983D01*
X150554665Y-86832364D01*
X150578474Y-86808555D01*
X150626093Y-86784745D01*
X150340379Y-87237126D02*
X150340379Y-87570459D01*
X150840379Y-87356174D01*
X69877811Y-86308555D02*
X69377811Y-86308555D01*
X69377811Y-86427602D01*
X69401621Y-86499031D01*
X69449240Y-86546650D01*
X69496859Y-86570459D01*
X69592097Y-86594269D01*
X69663525Y-86594269D01*
X69758763Y-86570459D01*
X69806382Y-86546650D01*
X69854001Y-86499031D01*
X69877811Y-86427602D01*
X69877811Y-86308555D01*
X69377811Y-87022840D02*
X69377811Y-86927602D01*
X69401621Y-86879983D01*
X69425430Y-86856174D01*
X69496859Y-86808555D01*
X69592097Y-86784745D01*
X69782573Y-86784745D01*
X69830192Y-86808555D01*
X69854001Y-86832364D01*
X69877811Y-86879983D01*
X69877811Y-86975221D01*
X69854001Y-87022840D01*
X69830192Y-87046650D01*
X69782573Y-87070459D01*
X69663525Y-87070459D01*
X69615906Y-87046650D01*
X69592097Y-87022840D01*
X69568287Y-86975221D01*
X69568287Y-86879983D01*
X69592097Y-86832364D01*
X69615906Y-86808555D01*
X69663525Y-86784745D01*
X69377811Y-87237126D02*
X69377811Y-87546650D01*
X69568287Y-87379983D01*
X69568287Y-87451412D01*
X69592097Y-87499031D01*
X69615906Y-87522840D01*
X69663525Y-87546650D01*
X69782573Y-87546650D01*
X69830192Y-87522840D01*
X69854001Y-87499031D01*
X69877811Y-87451412D01*
X69877811Y-87308555D01*
X69854001Y-87260936D01*
X69830192Y-87237126D01*
X268712353Y-67258539D02*
X268212353Y-67258539D01*
X268212353Y-67377586D01*
X268236163Y-67449015D01*
X268283782Y-67496634D01*
X268331401Y-67520443D01*
X268426639Y-67544253D01*
X268498067Y-67544253D01*
X268593305Y-67520443D01*
X268640924Y-67496634D01*
X268688543Y-67449015D01*
X268712353Y-67377586D01*
X268712353Y-67258539D01*
X268212353Y-67996634D02*
X268212353Y-67758539D01*
X268450448Y-67734729D01*
X268426639Y-67758539D01*
X268402829Y-67806158D01*
X268402829Y-67925205D01*
X268426639Y-67972824D01*
X268450448Y-67996634D01*
X268498067Y-68020443D01*
X268617115Y-68020443D01*
X268664734Y-67996634D01*
X268688543Y-67972824D01*
X268712353Y-67925205D01*
X268712353Y-67806158D01*
X268688543Y-67758539D01*
X268664734Y-67734729D01*
X268712353Y-68258539D02*
X268712353Y-68353777D01*
X268688543Y-68401396D01*
X268664734Y-68425205D01*
X268593305Y-68472824D01*
X268498067Y-68496634D01*
X268307591Y-68496634D01*
X268259972Y-68472824D01*
X268236163Y-68449015D01*
X268212353Y-68401396D01*
X268212353Y-68306158D01*
X268236163Y-68258539D01*
X268259972Y-68234729D01*
X268307591Y-68210920D01*
X268426639Y-68210920D01*
X268474258Y-68234729D01*
X268498067Y-68258539D01*
X268521877Y-68306158D01*
X268521877Y-68401396D01*
X268498067Y-68449015D01*
X268474258Y-68472824D01*
X268426639Y-68496634D01*
X242518581Y-67258539D02*
X242018581Y-67258539D01*
X242018581Y-67377586D01*
X242042391Y-67449015D01*
X242090010Y-67496634D01*
X242137629Y-67520443D01*
X242232867Y-67544253D01*
X242304295Y-67544253D01*
X242399533Y-67520443D01*
X242447152Y-67496634D01*
X242494771Y-67449015D01*
X242518581Y-67377586D01*
X242518581Y-67258539D01*
X242018581Y-67996634D02*
X242018581Y-67758539D01*
X242256676Y-67734729D01*
X242232867Y-67758539D01*
X242209057Y-67806158D01*
X242209057Y-67925205D01*
X242232867Y-67972824D01*
X242256676Y-67996634D01*
X242304295Y-68020443D01*
X242423343Y-68020443D01*
X242470962Y-67996634D01*
X242494771Y-67972824D01*
X242518581Y-67925205D01*
X242518581Y-67806158D01*
X242494771Y-67758539D01*
X242470962Y-67734729D01*
X242232867Y-68306158D02*
X242209057Y-68258539D01*
X242185248Y-68234729D01*
X242137629Y-68210920D01*
X242113819Y-68210920D01*
X242066200Y-68234729D01*
X242042391Y-68258539D01*
X242018581Y-68306158D01*
X242018581Y-68401396D01*
X242042391Y-68449015D01*
X242066200Y-68472824D01*
X242113819Y-68496634D01*
X242137629Y-68496634D01*
X242185248Y-68472824D01*
X242209057Y-68449015D01*
X242232867Y-68401396D01*
X242232867Y-68306158D01*
X242256676Y-68258539D01*
X242280486Y-68234729D01*
X242328105Y-68210920D01*
X242423343Y-68210920D01*
X242470962Y-68234729D01*
X242494771Y-68258539D01*
X242518581Y-68306158D01*
X242518581Y-68401396D01*
X242494771Y-68449015D01*
X242470962Y-68472824D01*
X242423343Y-68496634D01*
X242328105Y-68496634D01*
X242280486Y-68472824D01*
X242256676Y-68449015D01*
X242232867Y-68401396D01*
X216324809Y-67258539D02*
X215824809Y-67258539D01*
X215824809Y-67377586D01*
X215848619Y-67449015D01*
X215896238Y-67496634D01*
X215943857Y-67520443D01*
X216039095Y-67544253D01*
X216110523Y-67544253D01*
X216205761Y-67520443D01*
X216253380Y-67496634D01*
X216300999Y-67449015D01*
X216324809Y-67377586D01*
X216324809Y-67258539D01*
X215824809Y-67996634D02*
X215824809Y-67758539D01*
X216062904Y-67734729D01*
X216039095Y-67758539D01*
X216015285Y-67806158D01*
X216015285Y-67925205D01*
X216039095Y-67972824D01*
X216062904Y-67996634D01*
X216110523Y-68020443D01*
X216229571Y-68020443D01*
X216277190Y-67996634D01*
X216300999Y-67972824D01*
X216324809Y-67925205D01*
X216324809Y-67806158D01*
X216300999Y-67758539D01*
X216277190Y-67734729D01*
X215824809Y-68187110D02*
X215824809Y-68520443D01*
X216324809Y-68306158D01*
X197274793Y-67258539D02*
X196774793Y-67258539D01*
X196774793Y-67377586D01*
X196798603Y-67449015D01*
X196846222Y-67496634D01*
X196893841Y-67520443D01*
X196989079Y-67544253D01*
X197060507Y-67544253D01*
X197155745Y-67520443D01*
X197203364Y-67496634D01*
X197250983Y-67449015D01*
X197274793Y-67377586D01*
X197274793Y-67258539D01*
X196774793Y-67996634D02*
X196774793Y-67758539D01*
X197012888Y-67734729D01*
X196989079Y-67758539D01*
X196965269Y-67806158D01*
X196965269Y-67925205D01*
X196989079Y-67972824D01*
X197012888Y-67996634D01*
X197060507Y-68020443D01*
X197179555Y-68020443D01*
X197227174Y-67996634D01*
X197250983Y-67972824D01*
X197274793Y-67925205D01*
X197274793Y-67806158D01*
X197250983Y-67758539D01*
X197227174Y-67734729D01*
X196774793Y-68449015D02*
X196774793Y-68353777D01*
X196798603Y-68306158D01*
X196822412Y-68282348D01*
X196893841Y-68234729D01*
X196989079Y-68210920D01*
X197179555Y-68210920D01*
X197227174Y-68234729D01*
X197250983Y-68258539D01*
X197274793Y-68306158D01*
X197274793Y-68401396D01*
X197250983Y-68449015D01*
X197227174Y-68472824D01*
X197179555Y-68496634D01*
X197060507Y-68496634D01*
X197012888Y-68472824D01*
X196989079Y-68449015D01*
X196965269Y-68401396D01*
X196965269Y-68306158D01*
X196989079Y-68258539D01*
X197012888Y-68234729D01*
X197060507Y-68210920D01*
X140124745Y-67258539D02*
X139624745Y-67258539D01*
X139624745Y-67377586D01*
X139648555Y-67449015D01*
X139696174Y-67496634D01*
X139743793Y-67520443D01*
X139839031Y-67544253D01*
X139910459Y-67544253D01*
X140005697Y-67520443D01*
X140053316Y-67496634D01*
X140100935Y-67449015D01*
X140124745Y-67377586D01*
X140124745Y-67258539D01*
X139624745Y-67996634D02*
X139624745Y-67758539D01*
X139862840Y-67734729D01*
X139839031Y-67758539D01*
X139815221Y-67806158D01*
X139815221Y-67925205D01*
X139839031Y-67972824D01*
X139862840Y-67996634D01*
X139910459Y-68020443D01*
X140029507Y-68020443D01*
X140077126Y-67996634D01*
X140100935Y-67972824D01*
X140124745Y-67925205D01*
X140124745Y-67806158D01*
X140100935Y-67758539D01*
X140077126Y-67734729D01*
X139624745Y-68187110D02*
X139624745Y-68496634D01*
X139815221Y-68329967D01*
X139815221Y-68401396D01*
X139839031Y-68449015D01*
X139862840Y-68472824D01*
X139910459Y-68496634D01*
X140029507Y-68496634D01*
X140077126Y-68472824D01*
X140100935Y-68449015D01*
X140124745Y-68401396D01*
X140124745Y-68258539D01*
X140100935Y-68210920D01*
X140077126Y-68187110D01*
X102024713Y-67258539D02*
X101524713Y-67258539D01*
X101524713Y-67377586D01*
X101548523Y-67449015D01*
X101596142Y-67496634D01*
X101643761Y-67520443D01*
X101738999Y-67544253D01*
X101810427Y-67544253D01*
X101905665Y-67520443D01*
X101953284Y-67496634D01*
X102000903Y-67449015D01*
X102024713Y-67377586D01*
X102024713Y-67258539D01*
X101524713Y-67996634D02*
X101524713Y-67758539D01*
X101762808Y-67734729D01*
X101738999Y-67758539D01*
X101715189Y-67806158D01*
X101715189Y-67925205D01*
X101738999Y-67972824D01*
X101762808Y-67996634D01*
X101810427Y-68020443D01*
X101929475Y-68020443D01*
X101977094Y-67996634D01*
X102000903Y-67972824D01*
X102024713Y-67925205D01*
X102024713Y-67806158D01*
X102000903Y-67758539D01*
X101977094Y-67734729D01*
X102024713Y-68496634D02*
X102024713Y-68210920D01*
X102024713Y-68353777D02*
X101524713Y-68353777D01*
X101596142Y-68306158D01*
X101643761Y-68258539D01*
X101667570Y-68210920D01*
X82974697Y-67258539D02*
X82474697Y-67258539D01*
X82474697Y-67377586D01*
X82498507Y-67449015D01*
X82546126Y-67496634D01*
X82593745Y-67520443D01*
X82688983Y-67544253D01*
X82760411Y-67544253D01*
X82855649Y-67520443D01*
X82903268Y-67496634D01*
X82950887Y-67449015D01*
X82974697Y-67377586D01*
X82974697Y-67258539D01*
X82474697Y-67996634D02*
X82474697Y-67758539D01*
X82712792Y-67734729D01*
X82688983Y-67758539D01*
X82665173Y-67806158D01*
X82665173Y-67925205D01*
X82688983Y-67972824D01*
X82712792Y-67996634D01*
X82760411Y-68020443D01*
X82879459Y-68020443D01*
X82927078Y-67996634D01*
X82950887Y-67972824D01*
X82974697Y-67925205D01*
X82974697Y-67806158D01*
X82950887Y-67758539D01*
X82927078Y-67734729D01*
X82474697Y-68329967D02*
X82474697Y-68377586D01*
X82498507Y-68425205D01*
X82522316Y-68449015D01*
X82569935Y-68472824D01*
X82665173Y-68496634D01*
X82784221Y-68496634D01*
X82879459Y-68472824D01*
X82927078Y-68449015D01*
X82950887Y-68425205D01*
X82974697Y-68377586D01*
X82974697Y-68329967D01*
X82950887Y-68282348D01*
X82927078Y-68258539D01*
X82879459Y-68234729D01*
X82784221Y-68210920D01*
X82665173Y-68210920D01*
X82569935Y-68234729D01*
X82522316Y-68258539D01*
X82498507Y-68282348D01*
X82474697Y-68329967D01*
X221087313Y-29158507D02*
X220587313Y-29158507D01*
X220587313Y-29277554D01*
X220611123Y-29348983D01*
X220658742Y-29396602D01*
X220706361Y-29420411D01*
X220801599Y-29444221D01*
X220873027Y-29444221D01*
X220968265Y-29420411D01*
X221015884Y-29396602D01*
X221063503Y-29348983D01*
X221087313Y-29277554D01*
X221087313Y-29158507D01*
X220634932Y-29634697D02*
X220611123Y-29658507D01*
X220587313Y-29706126D01*
X220587313Y-29825173D01*
X220611123Y-29872792D01*
X220634932Y-29896602D01*
X220682551Y-29920411D01*
X220730170Y-29920411D01*
X220801599Y-29896602D01*
X221087313Y-29610888D01*
X221087313Y-29920411D01*
X220587313Y-30087078D02*
X220587313Y-30420411D01*
X221087313Y-30206126D01*
X225849817Y-48208523D02*
X225349817Y-48208523D01*
X225349817Y-48327570D01*
X225373627Y-48398999D01*
X225421246Y-48446618D01*
X225468865Y-48470427D01*
X225564103Y-48494237D01*
X225635531Y-48494237D01*
X225730769Y-48470427D01*
X225778388Y-48446618D01*
X225826007Y-48398999D01*
X225849817Y-48327570D01*
X225849817Y-48208523D01*
X225516484Y-48922808D02*
X225849817Y-48922808D01*
X225326007Y-48803761D02*
X225683150Y-48684713D01*
X225683150Y-48994237D01*
X225397436Y-49160904D02*
X225373627Y-49184713D01*
X225349817Y-49232332D01*
X225349817Y-49351380D01*
X225373627Y-49398999D01*
X225397436Y-49422808D01*
X225445055Y-49446618D01*
X225492674Y-49446618D01*
X225564103Y-49422808D01*
X225849817Y-49137094D01*
X225849817Y-49446618D01*
X49637169Y-29158507D02*
X49137169Y-29158507D01*
X49137169Y-29277554D01*
X49160979Y-29348983D01*
X49208598Y-29396602D01*
X49256217Y-29420411D01*
X49351455Y-29444221D01*
X49422883Y-29444221D01*
X49518121Y-29420411D01*
X49565740Y-29396602D01*
X49613359Y-29348983D01*
X49637169Y-29277554D01*
X49637169Y-29158507D01*
X49637169Y-29920411D02*
X49637169Y-29634697D01*
X49637169Y-29777554D02*
X49137169Y-29777554D01*
X49208598Y-29729935D01*
X49256217Y-29682316D01*
X49280026Y-29634697D01*
X49351455Y-30206126D02*
X49327645Y-30158507D01*
X49303836Y-30134697D01*
X49256217Y-30110888D01*
X49232407Y-30110888D01*
X49184788Y-30134697D01*
X49160979Y-30158507D01*
X49137169Y-30206126D01*
X49137169Y-30301364D01*
X49160979Y-30348983D01*
X49184788Y-30372792D01*
X49232407Y-30396602D01*
X49256217Y-30396602D01*
X49303836Y-30372792D01*
X49327645Y-30348983D01*
X49351455Y-30301364D01*
X49351455Y-30206126D01*
X49375264Y-30158507D01*
X49399074Y-30134697D01*
X49446693Y-30110888D01*
X49541931Y-30110888D01*
X49589550Y-30134697D01*
X49613359Y-30158507D01*
X49637169Y-30206126D01*
X49637169Y-30301364D01*
X49613359Y-30348983D01*
X49589550Y-30372792D01*
X49541931Y-30396602D01*
X49446693Y-30396602D01*
X49399074Y-30372792D01*
X49375264Y-30348983D01*
X49351455Y-30301364D01*
X182987281Y-29158507D02*
X182487281Y-29158507D01*
X182487281Y-29277554D01*
X182511091Y-29348983D01*
X182558710Y-29396602D01*
X182606329Y-29420411D01*
X182701567Y-29444221D01*
X182772995Y-29444221D01*
X182868233Y-29420411D01*
X182915852Y-29396602D01*
X182963471Y-29348983D01*
X182987281Y-29277554D01*
X182987281Y-29158507D01*
X182534900Y-29634697D02*
X182511091Y-29658507D01*
X182487281Y-29706126D01*
X182487281Y-29825173D01*
X182511091Y-29872792D01*
X182534900Y-29896602D01*
X182582519Y-29920411D01*
X182630138Y-29920411D01*
X182701567Y-29896602D01*
X182987281Y-29610888D01*
X182987281Y-29920411D01*
X182487281Y-30372792D02*
X182487281Y-30134697D01*
X182725376Y-30110888D01*
X182701567Y-30134697D01*
X182677757Y-30182316D01*
X182677757Y-30301364D01*
X182701567Y-30348983D01*
X182725376Y-30372792D01*
X182772995Y-30396602D01*
X182892043Y-30396602D01*
X182939662Y-30372792D01*
X182963471Y-30348983D01*
X182987281Y-30301364D01*
X182987281Y-30182316D01*
X182963471Y-30134697D01*
X182939662Y-30110888D01*
X206799801Y-48208523D02*
X206299801Y-48208523D01*
X206299801Y-48327570D01*
X206323611Y-48398999D01*
X206371230Y-48446618D01*
X206418849Y-48470427D01*
X206514087Y-48494237D01*
X206585515Y-48494237D01*
X206680753Y-48470427D01*
X206728372Y-48446618D01*
X206775991Y-48398999D01*
X206799801Y-48327570D01*
X206799801Y-48208523D01*
X206466468Y-48922808D02*
X206799801Y-48922808D01*
X206275991Y-48803761D02*
X206633134Y-48684713D01*
X206633134Y-48994237D01*
X206799801Y-49446618D02*
X206799801Y-49160904D01*
X206799801Y-49303761D02*
X206299801Y-49303761D01*
X206371230Y-49256142D01*
X206418849Y-49208523D01*
X206442658Y-49160904D01*
X111549721Y-48208523D02*
X111049721Y-48208523D01*
X111049721Y-48327570D01*
X111073531Y-48398999D01*
X111121150Y-48446618D01*
X111168769Y-48470427D01*
X111264007Y-48494237D01*
X111335435Y-48494237D01*
X111430673Y-48470427D01*
X111478292Y-48446618D01*
X111525911Y-48398999D01*
X111549721Y-48327570D01*
X111549721Y-48208523D01*
X111049721Y-48660904D02*
X111049721Y-48970427D01*
X111240197Y-48803761D01*
X111240197Y-48875189D01*
X111264007Y-48922808D01*
X111287816Y-48946618D01*
X111335435Y-48970427D01*
X111454483Y-48970427D01*
X111502102Y-48946618D01*
X111525911Y-48922808D01*
X111549721Y-48875189D01*
X111549721Y-48732332D01*
X111525911Y-48684713D01*
X111502102Y-48660904D01*
X111049721Y-49398999D02*
X111049721Y-49303761D01*
X111073531Y-49256142D01*
X111097340Y-49232332D01*
X111168769Y-49184713D01*
X111264007Y-49160904D01*
X111454483Y-49160904D01*
X111502102Y-49184713D01*
X111525911Y-49208523D01*
X111549721Y-49256142D01*
X111549721Y-49351380D01*
X111525911Y-49398999D01*
X111502102Y-49422808D01*
X111454483Y-49446618D01*
X111335435Y-49446618D01*
X111287816Y-49422808D01*
X111264007Y-49398999D01*
X111240197Y-49351380D01*
X111240197Y-49256142D01*
X111264007Y-49208523D01*
X111287816Y-49184713D01*
X111335435Y-49160904D01*
X24634023Y-48208523D02*
X24134023Y-48208523D01*
X24134023Y-48327570D01*
X24157833Y-48398999D01*
X24205452Y-48446618D01*
X24253071Y-48470427D01*
X24348309Y-48494237D01*
X24419737Y-48494237D01*
X24514975Y-48470427D01*
X24562594Y-48446618D01*
X24610213Y-48398999D01*
X24634023Y-48327570D01*
X24634023Y-48208523D01*
X24134023Y-48660904D02*
X24134023Y-48970427D01*
X24324499Y-48803761D01*
X24324499Y-48875189D01*
X24348309Y-48922808D01*
X24372118Y-48946618D01*
X24419737Y-48970427D01*
X24538785Y-48970427D01*
X24586404Y-48946618D01*
X24610213Y-48922808D01*
X24634023Y-48875189D01*
X24634023Y-48732332D01*
X24610213Y-48684713D01*
X24586404Y-48660904D01*
X24634023Y-49446618D02*
X24634023Y-49160904D01*
X24634023Y-49303761D02*
X24134023Y-49303761D01*
X24205452Y-49256142D01*
X24253071Y-49208523D01*
X24276880Y-49160904D01*
X187749785Y-48208523D02*
X187249785Y-48208523D01*
X187249785Y-48327570D01*
X187273595Y-48398999D01*
X187321214Y-48446618D01*
X187368833Y-48470427D01*
X187464071Y-48494237D01*
X187535499Y-48494237D01*
X187630737Y-48470427D01*
X187678356Y-48446618D01*
X187725975Y-48398999D01*
X187749785Y-48327570D01*
X187749785Y-48208523D01*
X187416452Y-48922808D02*
X187749785Y-48922808D01*
X187225975Y-48803761D02*
X187583118Y-48684713D01*
X187583118Y-48994237D01*
X187249785Y-49279951D02*
X187249785Y-49327570D01*
X187273595Y-49375189D01*
X187297404Y-49398999D01*
X187345023Y-49422808D01*
X187440261Y-49446618D01*
X187559309Y-49446618D01*
X187654547Y-49422808D01*
X187702166Y-49398999D01*
X187725975Y-49375189D01*
X187749785Y-49327570D01*
X187749785Y-49279951D01*
X187725975Y-49232332D01*
X187702166Y-49208523D01*
X187654547Y-49184713D01*
X187559309Y-49160904D01*
X187440261Y-49160904D01*
X187345023Y-49184713D01*
X187297404Y-49208523D01*
X187273595Y-49232332D01*
X187249785Y-49279951D01*
X146077875Y-48208523D02*
X145577875Y-48208523D01*
X145577875Y-48327570D01*
X145601685Y-48398999D01*
X145649304Y-48446618D01*
X145696923Y-48470427D01*
X145792161Y-48494237D01*
X145863589Y-48494237D01*
X145958827Y-48470427D01*
X146006446Y-48446618D01*
X146054065Y-48398999D01*
X146077875Y-48327570D01*
X146077875Y-48208523D01*
X145577875Y-48660904D02*
X145577875Y-48970427D01*
X145768351Y-48803761D01*
X145768351Y-48875189D01*
X145792161Y-48922808D01*
X145815970Y-48946618D01*
X145863589Y-48970427D01*
X145982637Y-48970427D01*
X146030256Y-48946618D01*
X146054065Y-48922808D01*
X146077875Y-48875189D01*
X146077875Y-48732332D01*
X146054065Y-48684713D01*
X146030256Y-48660904D01*
X145577875Y-49137094D02*
X145577875Y-49470427D01*
X146077875Y-49256142D01*
X50827795Y-48208523D02*
X50327795Y-48208523D01*
X50327795Y-48327570D01*
X50351605Y-48398999D01*
X50399224Y-48446618D01*
X50446843Y-48470427D01*
X50542081Y-48494237D01*
X50613509Y-48494237D01*
X50708747Y-48470427D01*
X50756366Y-48446618D01*
X50803985Y-48398999D01*
X50827795Y-48327570D01*
X50827795Y-48208523D01*
X50327795Y-48660904D02*
X50327795Y-48970427D01*
X50518271Y-48803761D01*
X50518271Y-48875189D01*
X50542081Y-48922808D01*
X50565890Y-48946618D01*
X50613509Y-48970427D01*
X50732557Y-48970427D01*
X50780176Y-48946618D01*
X50803985Y-48922808D01*
X50827795Y-48875189D01*
X50827795Y-48732332D01*
X50803985Y-48684713D01*
X50780176Y-48660904D01*
X50375414Y-49160904D02*
X50351605Y-49184713D01*
X50327795Y-49232332D01*
X50327795Y-49351380D01*
X50351605Y-49398999D01*
X50375414Y-49422808D01*
X50423033Y-49446618D01*
X50470652Y-49446618D01*
X50542081Y-49422808D01*
X50827795Y-49137094D01*
X50827795Y-49446618D01*
X73449689Y-48208523D02*
X72949689Y-48208523D01*
X72949689Y-48327570D01*
X72973499Y-48398999D01*
X73021118Y-48446618D01*
X73068737Y-48470427D01*
X73163975Y-48494237D01*
X73235403Y-48494237D01*
X73330641Y-48470427D01*
X73378260Y-48446618D01*
X73425879Y-48398999D01*
X73449689Y-48327570D01*
X73449689Y-48208523D01*
X72949689Y-48660904D02*
X72949689Y-48970427D01*
X73140165Y-48803761D01*
X73140165Y-48875189D01*
X73163975Y-48922808D01*
X73187784Y-48946618D01*
X73235403Y-48970427D01*
X73354451Y-48970427D01*
X73402070Y-48946618D01*
X73425879Y-48922808D01*
X73449689Y-48875189D01*
X73449689Y-48732332D01*
X73425879Y-48684713D01*
X73402070Y-48660904D01*
X73116356Y-49398999D02*
X73449689Y-49398999D01*
X72925879Y-49279951D02*
X73283022Y-49160904D01*
X73283022Y-49470427D01*
X106787217Y-29158507D02*
X106287217Y-29158507D01*
X106287217Y-29277554D01*
X106311027Y-29348983D01*
X106358646Y-29396602D01*
X106406265Y-29420411D01*
X106501503Y-29444221D01*
X106572931Y-29444221D01*
X106668169Y-29420411D01*
X106715788Y-29396602D01*
X106763407Y-29348983D01*
X106787217Y-29277554D01*
X106787217Y-29158507D01*
X106334836Y-29634697D02*
X106311027Y-29658507D01*
X106287217Y-29706126D01*
X106287217Y-29825173D01*
X106311027Y-29872792D01*
X106334836Y-29896602D01*
X106382455Y-29920411D01*
X106430074Y-29920411D01*
X106501503Y-29896602D01*
X106787217Y-29610888D01*
X106787217Y-29920411D01*
X106787217Y-30396602D02*
X106787217Y-30110888D01*
X106787217Y-30253745D02*
X106287217Y-30253745D01*
X106358646Y-30206126D01*
X106406265Y-30158507D01*
X106430074Y-30110888D01*
X202037297Y-29158507D02*
X201537297Y-29158507D01*
X201537297Y-29277554D01*
X201561107Y-29348983D01*
X201608726Y-29396602D01*
X201656345Y-29420411D01*
X201751583Y-29444221D01*
X201823011Y-29444221D01*
X201918249Y-29420411D01*
X201965868Y-29396602D01*
X202013487Y-29348983D01*
X202037297Y-29277554D01*
X202037297Y-29158507D01*
X201584916Y-29634697D02*
X201561107Y-29658507D01*
X201537297Y-29706126D01*
X201537297Y-29825173D01*
X201561107Y-29872792D01*
X201584916Y-29896602D01*
X201632535Y-29920411D01*
X201680154Y-29920411D01*
X201751583Y-29896602D01*
X202037297Y-29610888D01*
X202037297Y-29920411D01*
X201537297Y-30348983D02*
X201537297Y-30253745D01*
X201561107Y-30206126D01*
X201584916Y-30182316D01*
X201656345Y-30134697D01*
X201751583Y-30110888D01*
X201942059Y-30110888D01*
X201989678Y-30134697D01*
X202013487Y-30158507D01*
X202037297Y-30206126D01*
X202037297Y-30301364D01*
X202013487Y-30348983D01*
X201989678Y-30372792D01*
X201942059Y-30396602D01*
X201823011Y-30396602D01*
X201775392Y-30372792D01*
X201751583Y-30348983D01*
X201727773Y-30301364D01*
X201727773Y-30206126D01*
X201751583Y-30158507D01*
X201775392Y-30134697D01*
X201823011Y-30110888D01*
X125837233Y-29158507D02*
X125337233Y-29158507D01*
X125337233Y-29277554D01*
X125361043Y-29348983D01*
X125408662Y-29396602D01*
X125456281Y-29420411D01*
X125551519Y-29444221D01*
X125622947Y-29444221D01*
X125718185Y-29420411D01*
X125765804Y-29396602D01*
X125813423Y-29348983D01*
X125837233Y-29277554D01*
X125837233Y-29158507D01*
X125384852Y-29634697D02*
X125361043Y-29658507D01*
X125337233Y-29706126D01*
X125337233Y-29825173D01*
X125361043Y-29872792D01*
X125384852Y-29896602D01*
X125432471Y-29920411D01*
X125480090Y-29920411D01*
X125551519Y-29896602D01*
X125837233Y-29610888D01*
X125837233Y-29920411D01*
X125384852Y-30110888D02*
X125361043Y-30134697D01*
X125337233Y-30182316D01*
X125337233Y-30301364D01*
X125361043Y-30348983D01*
X125384852Y-30372792D01*
X125432471Y-30396602D01*
X125480090Y-30396602D01*
X125551519Y-30372792D01*
X125837233Y-30087078D01*
X125837233Y-30396602D01*
X163937265Y-29158507D02*
X163437265Y-29158507D01*
X163437265Y-29277554D01*
X163461075Y-29348983D01*
X163508694Y-29396602D01*
X163556313Y-29420411D01*
X163651551Y-29444221D01*
X163722979Y-29444221D01*
X163818217Y-29420411D01*
X163865836Y-29396602D01*
X163913455Y-29348983D01*
X163937265Y-29277554D01*
X163937265Y-29158507D01*
X163484884Y-29634697D02*
X163461075Y-29658507D01*
X163437265Y-29706126D01*
X163437265Y-29825173D01*
X163461075Y-29872792D01*
X163484884Y-29896602D01*
X163532503Y-29920411D01*
X163580122Y-29920411D01*
X163651551Y-29896602D01*
X163937265Y-29610888D01*
X163937265Y-29920411D01*
X163603932Y-30348983D02*
X163937265Y-30348983D01*
X163413455Y-30229935D02*
X163770598Y-30110888D01*
X163770598Y-30420411D01*
X244899833Y-48208523D02*
X244399833Y-48208523D01*
X244399833Y-48327570D01*
X244423643Y-48398999D01*
X244471262Y-48446618D01*
X244518881Y-48470427D01*
X244614119Y-48494237D01*
X244685547Y-48494237D01*
X244780785Y-48470427D01*
X244828404Y-48446618D01*
X244876023Y-48398999D01*
X244899833Y-48327570D01*
X244899833Y-48208523D01*
X244566500Y-48922808D02*
X244899833Y-48922808D01*
X244376023Y-48803761D02*
X244733166Y-48684713D01*
X244733166Y-48994237D01*
X244399833Y-49137094D02*
X244399833Y-49446618D01*
X244590309Y-49279951D01*
X244590309Y-49351380D01*
X244614119Y-49398999D01*
X244637928Y-49422808D01*
X244685547Y-49446618D01*
X244804595Y-49446618D01*
X244852214Y-49422808D01*
X244876023Y-49398999D01*
X244899833Y-49351380D01*
X244899833Y-49208523D01*
X244876023Y-49160904D01*
X244852214Y-49137094D01*
X149649753Y-48208523D02*
X149149753Y-48208523D01*
X149149753Y-48327570D01*
X149173563Y-48398999D01*
X149221182Y-48446618D01*
X149268801Y-48470427D01*
X149364039Y-48494237D01*
X149435467Y-48494237D01*
X149530705Y-48470427D01*
X149578324Y-48446618D01*
X149625943Y-48398999D01*
X149649753Y-48327570D01*
X149649753Y-48208523D01*
X149149753Y-48660904D02*
X149149753Y-48970427D01*
X149340229Y-48803761D01*
X149340229Y-48875189D01*
X149364039Y-48922808D01*
X149387848Y-48946618D01*
X149435467Y-48970427D01*
X149554515Y-48970427D01*
X149602134Y-48946618D01*
X149625943Y-48922808D01*
X149649753Y-48875189D01*
X149649753Y-48732332D01*
X149625943Y-48684713D01*
X149602134Y-48660904D01*
X149364039Y-49256142D02*
X149340229Y-49208523D01*
X149316420Y-49184713D01*
X149268801Y-49160904D01*
X149244991Y-49160904D01*
X149197372Y-49184713D01*
X149173563Y-49208523D01*
X149149753Y-49256142D01*
X149149753Y-49351380D01*
X149173563Y-49398999D01*
X149197372Y-49422808D01*
X149244991Y-49446618D01*
X149268801Y-49446618D01*
X149316420Y-49422808D01*
X149340229Y-49398999D01*
X149364039Y-49351380D01*
X149364039Y-49256142D01*
X149387848Y-49208523D01*
X149411658Y-49184713D01*
X149459277Y-49160904D01*
X149554515Y-49160904D01*
X149602134Y-49184713D01*
X149625943Y-49208523D01*
X149649753Y-49256142D01*
X149649753Y-49351380D01*
X149625943Y-49398999D01*
X149602134Y-49422808D01*
X149554515Y-49446618D01*
X149459277Y-49446618D01*
X149411658Y-49422808D01*
X149387848Y-49398999D01*
X149364039Y-49351380D01*
X92499705Y-48208523D02*
X91999705Y-48208523D01*
X91999705Y-48327570D01*
X92023515Y-48398999D01*
X92071134Y-48446618D01*
X92118753Y-48470427D01*
X92213991Y-48494237D01*
X92285419Y-48494237D01*
X92380657Y-48470427D01*
X92428276Y-48446618D01*
X92475895Y-48398999D01*
X92499705Y-48327570D01*
X92499705Y-48208523D01*
X91999705Y-48660904D02*
X91999705Y-48970427D01*
X92190181Y-48803761D01*
X92190181Y-48875189D01*
X92213991Y-48922808D01*
X92237800Y-48946618D01*
X92285419Y-48970427D01*
X92404467Y-48970427D01*
X92452086Y-48946618D01*
X92475895Y-48922808D01*
X92499705Y-48875189D01*
X92499705Y-48732332D01*
X92475895Y-48684713D01*
X92452086Y-48660904D01*
X91999705Y-49422808D02*
X91999705Y-49184713D01*
X92237800Y-49160904D01*
X92213991Y-49184713D01*
X92190181Y-49232332D01*
X92190181Y-49351380D01*
X92213991Y-49398999D01*
X92237800Y-49422808D01*
X92285419Y-49446618D01*
X92404467Y-49446618D01*
X92452086Y-49422808D01*
X92475895Y-49398999D01*
X92499705Y-49351380D01*
X92499705Y-49232332D01*
X92475895Y-49184713D01*
X92452086Y-49160904D01*
X60352803Y-67258539D02*
X59852803Y-67258539D01*
X59852803Y-67377586D01*
X59876613Y-67449015D01*
X59924232Y-67496634D01*
X59971851Y-67520443D01*
X60067089Y-67544253D01*
X60138517Y-67544253D01*
X60233755Y-67520443D01*
X60281374Y-67496634D01*
X60328993Y-67449015D01*
X60352803Y-67377586D01*
X60352803Y-67258539D01*
X60019470Y-67972824D02*
X60352803Y-67972824D01*
X59828993Y-67853777D02*
X60186136Y-67734729D01*
X60186136Y-68044253D01*
X60067089Y-68306158D02*
X60043279Y-68258539D01*
X60019470Y-68234729D01*
X59971851Y-68210920D01*
X59948041Y-68210920D01*
X59900422Y-68234729D01*
X59876613Y-68258539D01*
X59852803Y-68306158D01*
X59852803Y-68401396D01*
X59876613Y-68449015D01*
X59900422Y-68472824D01*
X59948041Y-68496634D01*
X59971851Y-68496634D01*
X60019470Y-68472824D01*
X60043279Y-68449015D01*
X60067089Y-68401396D01*
X60067089Y-68306158D01*
X60090898Y-68258539D01*
X60114708Y-68234729D01*
X60162327Y-68210920D01*
X60257565Y-68210920D01*
X60305184Y-68234729D01*
X60328993Y-68258539D01*
X60352803Y-68306158D01*
X60352803Y-68401396D01*
X60328993Y-68449015D01*
X60305184Y-68472824D01*
X60257565Y-68496634D01*
X60162327Y-68496634D01*
X60114708Y-68472824D01*
X60090898Y-68449015D01*
X60067089Y-68401396D01*
X159174761Y-67258539D02*
X158674761Y-67258539D01*
X158674761Y-67377586D01*
X158698571Y-67449015D01*
X158746190Y-67496634D01*
X158793809Y-67520443D01*
X158889047Y-67544253D01*
X158960475Y-67544253D01*
X159055713Y-67520443D01*
X159103332Y-67496634D01*
X159150951Y-67449015D01*
X159174761Y-67377586D01*
X159174761Y-67258539D01*
X158674761Y-67996634D02*
X158674761Y-67758539D01*
X158912856Y-67734729D01*
X158889047Y-67758539D01*
X158865237Y-67806158D01*
X158865237Y-67925205D01*
X158889047Y-67972824D01*
X158912856Y-67996634D01*
X158960475Y-68020443D01*
X159079523Y-68020443D01*
X159127142Y-67996634D01*
X159150951Y-67972824D01*
X159174761Y-67925205D01*
X159174761Y-67806158D01*
X159150951Y-67758539D01*
X159127142Y-67734729D01*
X158841428Y-68449015D02*
X159174761Y-68449015D01*
X158650951Y-68329967D02*
X159008094Y-68210920D01*
X159008094Y-68520443D01*
X272284231Y-48208523D02*
X271784231Y-48208523D01*
X271784231Y-48327570D01*
X271808041Y-48398999D01*
X271855660Y-48446618D01*
X271903279Y-48470427D01*
X271998517Y-48494237D01*
X272069945Y-48494237D01*
X272165183Y-48470427D01*
X272212802Y-48446618D01*
X272260421Y-48398999D01*
X272284231Y-48327570D01*
X272284231Y-48208523D01*
X271950898Y-48922808D02*
X272284231Y-48922808D01*
X271760421Y-48803761D02*
X272117564Y-48684713D01*
X272117564Y-48994237D01*
X271950898Y-49398999D02*
X272284231Y-49398999D01*
X271760421Y-49279951D02*
X272117564Y-49160904D01*
X272117564Y-49470427D01*
X52018421Y-86308555D02*
X51518421Y-86308555D01*
X51518421Y-86427602D01*
X51542231Y-86499031D01*
X51589850Y-86546650D01*
X51637469Y-86570459D01*
X51732707Y-86594269D01*
X51804135Y-86594269D01*
X51899373Y-86570459D01*
X51946992Y-86546650D01*
X51994611Y-86499031D01*
X52018421Y-86427602D01*
X52018421Y-86308555D01*
X51518421Y-87022840D02*
X51518421Y-86927602D01*
X51542231Y-86879983D01*
X51566040Y-86856174D01*
X51637469Y-86808555D01*
X51732707Y-86784745D01*
X51923183Y-86784745D01*
X51970802Y-86808555D01*
X51994611Y-86832364D01*
X52018421Y-86879983D01*
X52018421Y-86975221D01*
X51994611Y-87022840D01*
X51970802Y-87046650D01*
X51923183Y-87070459D01*
X51804135Y-87070459D01*
X51756516Y-87046650D01*
X51732707Y-87022840D01*
X51708897Y-86975221D01*
X51708897Y-86879983D01*
X51732707Y-86832364D01*
X51756516Y-86808555D01*
X51804135Y-86784745D01*
X51566040Y-87260936D02*
X51542231Y-87284745D01*
X51518421Y-87332364D01*
X51518421Y-87451412D01*
X51542231Y-87499031D01*
X51566040Y-87522840D01*
X51613659Y-87546650D01*
X51661278Y-87546650D01*
X51732707Y-87522840D01*
X52018421Y-87237126D01*
X52018421Y-87546650D01*
X168699769Y-48208523D02*
X168199769Y-48208523D01*
X168199769Y-48327570D01*
X168223579Y-48398999D01*
X168271198Y-48446618D01*
X168318817Y-48470427D01*
X168414055Y-48494237D01*
X168485483Y-48494237D01*
X168580721Y-48470427D01*
X168628340Y-48446618D01*
X168675959Y-48398999D01*
X168699769Y-48327570D01*
X168699769Y-48208523D01*
X168199769Y-48660904D02*
X168199769Y-48970427D01*
X168390245Y-48803761D01*
X168390245Y-48875189D01*
X168414055Y-48922808D01*
X168437864Y-48946618D01*
X168485483Y-48970427D01*
X168604531Y-48970427D01*
X168652150Y-48946618D01*
X168675959Y-48922808D01*
X168699769Y-48875189D01*
X168699769Y-48732332D01*
X168675959Y-48684713D01*
X168652150Y-48660904D01*
X168699769Y-49208523D02*
X168699769Y-49303761D01*
X168675959Y-49351380D01*
X168652150Y-49375189D01*
X168580721Y-49422808D01*
X168485483Y-49446618D01*
X168295007Y-49446618D01*
X168247388Y-49422808D01*
X168223579Y-49398999D01*
X168199769Y-49351380D01*
X168199769Y-49256142D01*
X168223579Y-49208523D01*
X168247388Y-49184713D01*
X168295007Y-49160904D01*
X168414055Y-49160904D01*
X168461674Y-49184713D01*
X168485483Y-49208523D01*
X168509293Y-49256142D01*
X168509293Y-49351380D01*
X168485483Y-49398999D01*
X168461674Y-49422808D01*
X168414055Y-49446618D01*
X87737201Y-29158507D02*
X87237201Y-29158507D01*
X87237201Y-29277554D01*
X87261011Y-29348983D01*
X87308630Y-29396602D01*
X87356249Y-29420411D01*
X87451487Y-29444221D01*
X87522915Y-29444221D01*
X87618153Y-29420411D01*
X87665772Y-29396602D01*
X87713391Y-29348983D01*
X87737201Y-29277554D01*
X87737201Y-29158507D01*
X87284820Y-29634697D02*
X87261011Y-29658507D01*
X87237201Y-29706126D01*
X87237201Y-29825173D01*
X87261011Y-29872792D01*
X87284820Y-29896602D01*
X87332439Y-29920411D01*
X87380058Y-29920411D01*
X87451487Y-29896602D01*
X87737201Y-29610888D01*
X87737201Y-29920411D01*
X87237201Y-30229935D02*
X87237201Y-30277554D01*
X87261011Y-30325173D01*
X87284820Y-30348983D01*
X87332439Y-30372792D01*
X87427677Y-30396602D01*
X87546725Y-30396602D01*
X87641963Y-30372792D01*
X87689582Y-30348983D01*
X87713391Y-30325173D01*
X87737201Y-30277554D01*
X87737201Y-30229935D01*
X87713391Y-30182316D01*
X87689582Y-30158507D01*
X87641963Y-30134697D01*
X87546725Y-30110888D01*
X87427677Y-30110888D01*
X87332439Y-30134697D01*
X87284820Y-30158507D01*
X87261011Y-30182316D01*
X87237201Y-30229935D01*
X240137329Y-29158507D02*
X239637329Y-29158507D01*
X239637329Y-29277554D01*
X239661139Y-29348983D01*
X239708758Y-29396602D01*
X239756377Y-29420411D01*
X239851615Y-29444221D01*
X239923043Y-29444221D01*
X240018281Y-29420411D01*
X240065900Y-29396602D01*
X240113519Y-29348983D01*
X240137329Y-29277554D01*
X240137329Y-29158507D01*
X239684948Y-29634697D02*
X239661139Y-29658507D01*
X239637329Y-29706126D01*
X239637329Y-29825173D01*
X239661139Y-29872792D01*
X239684948Y-29896602D01*
X239732567Y-29920411D01*
X239780186Y-29920411D01*
X239851615Y-29896602D01*
X240137329Y-29610888D01*
X240137329Y-29920411D01*
X239851615Y-30206126D02*
X239827805Y-30158507D01*
X239803996Y-30134697D01*
X239756377Y-30110888D01*
X239732567Y-30110888D01*
X239684948Y-30134697D01*
X239661139Y-30158507D01*
X239637329Y-30206126D01*
X239637329Y-30301364D01*
X239661139Y-30348983D01*
X239684948Y-30372792D01*
X239732567Y-30396602D01*
X239756377Y-30396602D01*
X239803996Y-30372792D01*
X239827805Y-30348983D01*
X239851615Y-30301364D01*
X239851615Y-30206126D01*
X239875424Y-30158507D01*
X239899234Y-30134697D01*
X239946853Y-30110888D01*
X240042091Y-30110888D01*
X240089710Y-30134697D01*
X240113519Y-30158507D01*
X240137329Y-30206126D01*
X240137329Y-30301364D01*
X240113519Y-30348983D01*
X240089710Y-30372792D01*
X240042091Y-30396602D01*
X239946853Y-30396602D01*
X239899234Y-30372792D01*
X239875424Y-30348983D01*
X239851615Y-30301364D01*
X54399673Y-48208523D02*
X53899673Y-48208523D01*
X53899673Y-48327570D01*
X53923483Y-48398999D01*
X53971102Y-48446618D01*
X54018721Y-48470427D01*
X54113959Y-48494237D01*
X54185387Y-48494237D01*
X54280625Y-48470427D01*
X54328244Y-48446618D01*
X54375863Y-48398999D01*
X54399673Y-48327570D01*
X54399673Y-48208523D01*
X53899673Y-48660904D02*
X53899673Y-48970427D01*
X54090149Y-48803761D01*
X54090149Y-48875189D01*
X54113959Y-48922808D01*
X54137768Y-48946618D01*
X54185387Y-48970427D01*
X54304435Y-48970427D01*
X54352054Y-48946618D01*
X54375863Y-48922808D01*
X54399673Y-48875189D01*
X54399673Y-48732332D01*
X54375863Y-48684713D01*
X54352054Y-48660904D01*
X53899673Y-49137094D02*
X53899673Y-49446618D01*
X54090149Y-49279951D01*
X54090149Y-49351380D01*
X54113959Y-49398999D01*
X54137768Y-49422808D01*
X54185387Y-49446618D01*
X54304435Y-49446618D01*
X54352054Y-49422808D01*
X54375863Y-49398999D01*
X54399673Y-49351380D01*
X54399673Y-49208523D01*
X54375863Y-49160904D01*
X54352054Y-49137094D01*
X144887249Y-29158507D02*
X144387249Y-29158507D01*
X144387249Y-29277554D01*
X144411059Y-29348983D01*
X144458678Y-29396602D01*
X144506297Y-29420411D01*
X144601535Y-29444221D01*
X144672963Y-29444221D01*
X144768201Y-29420411D01*
X144815820Y-29396602D01*
X144863439Y-29348983D01*
X144887249Y-29277554D01*
X144887249Y-29158507D01*
X144434868Y-29634697D02*
X144411059Y-29658507D01*
X144387249Y-29706126D01*
X144387249Y-29825173D01*
X144411059Y-29872792D01*
X144434868Y-29896602D01*
X144482487Y-29920411D01*
X144530106Y-29920411D01*
X144601535Y-29896602D01*
X144887249Y-29610888D01*
X144887249Y-29920411D01*
X144387249Y-30087078D02*
X144387249Y-30396602D01*
X144577725Y-30229935D01*
X144577725Y-30301364D01*
X144601535Y-30348983D01*
X144625344Y-30372792D01*
X144672963Y-30396602D01*
X144792011Y-30396602D01*
X144839630Y-30372792D01*
X144863439Y-30348983D01*
X144887249Y-30301364D01*
X144887249Y-30158507D01*
X144863439Y-30110888D01*
X144839630Y-30087078D01*
X178224777Y-67258539D02*
X177724777Y-67258539D01*
X177724777Y-67377586D01*
X177748587Y-67449015D01*
X177796206Y-67496634D01*
X177843825Y-67520443D01*
X177939063Y-67544253D01*
X178010491Y-67544253D01*
X178105729Y-67520443D01*
X178153348Y-67496634D01*
X178200967Y-67449015D01*
X178224777Y-67377586D01*
X178224777Y-67258539D01*
X177724777Y-67996634D02*
X177724777Y-67758539D01*
X177962872Y-67734729D01*
X177939063Y-67758539D01*
X177915253Y-67806158D01*
X177915253Y-67925205D01*
X177939063Y-67972824D01*
X177962872Y-67996634D01*
X178010491Y-68020443D01*
X178129539Y-68020443D01*
X178177158Y-67996634D01*
X178200967Y-67972824D01*
X178224777Y-67925205D01*
X178224777Y-67806158D01*
X178200967Y-67758539D01*
X178177158Y-67734729D01*
X177724777Y-68472824D02*
X177724777Y-68234729D01*
X177962872Y-68210920D01*
X177939063Y-68234729D01*
X177915253Y-68282348D01*
X177915253Y-68401396D01*
X177939063Y-68449015D01*
X177962872Y-68472824D01*
X178010491Y-68496634D01*
X178129539Y-68496634D01*
X178177158Y-68472824D01*
X178200967Y-68449015D01*
X178224777Y-68401396D01*
X178224777Y-68282348D01*
X178200967Y-68234729D01*
X178177158Y-68210920D01*
X121074729Y-67258539D02*
X120574729Y-67258539D01*
X120574729Y-67377586D01*
X120598539Y-67449015D01*
X120646158Y-67496634D01*
X120693777Y-67520443D01*
X120789015Y-67544253D01*
X120860443Y-67544253D01*
X120955681Y-67520443D01*
X121003300Y-67496634D01*
X121050919Y-67449015D01*
X121074729Y-67377586D01*
X121074729Y-67258539D01*
X120574729Y-67996634D02*
X120574729Y-67758539D01*
X120812824Y-67734729D01*
X120789015Y-67758539D01*
X120765205Y-67806158D01*
X120765205Y-67925205D01*
X120789015Y-67972824D01*
X120812824Y-67996634D01*
X120860443Y-68020443D01*
X120979491Y-68020443D01*
X121027110Y-67996634D01*
X121050919Y-67972824D01*
X121074729Y-67925205D01*
X121074729Y-67806158D01*
X121050919Y-67758539D01*
X121027110Y-67734729D01*
X120622348Y-68210920D02*
X120598539Y-68234729D01*
X120574729Y-68282348D01*
X120574729Y-68401396D01*
X120598539Y-68449015D01*
X120622348Y-68472824D01*
X120669967Y-68496634D01*
X120717586Y-68496634D01*
X120789015Y-68472824D01*
X121074729Y-68187110D01*
X121074729Y-68496634D01*
X68687185Y-29158507D02*
X68187185Y-29158507D01*
X68187185Y-29277554D01*
X68210995Y-29348983D01*
X68258614Y-29396602D01*
X68306233Y-29420411D01*
X68401471Y-29444221D01*
X68472899Y-29444221D01*
X68568137Y-29420411D01*
X68615756Y-29396602D01*
X68663375Y-29348983D01*
X68687185Y-29277554D01*
X68687185Y-29158507D01*
X68687185Y-29920411D02*
X68687185Y-29634697D01*
X68687185Y-29777554D02*
X68187185Y-29777554D01*
X68258614Y-29729935D01*
X68306233Y-29682316D01*
X68330042Y-29634697D01*
X68687185Y-30158507D02*
X68687185Y-30253745D01*
X68663375Y-30301364D01*
X68639566Y-30325173D01*
X68568137Y-30372792D01*
X68472899Y-30396602D01*
X68282423Y-30396602D01*
X68234804Y-30372792D01*
X68210995Y-30348983D01*
X68187185Y-30301364D01*
X68187185Y-30206126D01*
X68210995Y-30158507D01*
X68234804Y-30134697D01*
X68282423Y-30110888D01*
X68401471Y-30110888D01*
X68449090Y-30134697D01*
X68472899Y-30158507D01*
X68496709Y-30206126D01*
X68496709Y-30301364D01*
X68472899Y-30348983D01*
X68449090Y-30372792D01*
X68401471Y-30396602D01*
D11*
X105418094Y-79010037D02*
X106227618Y-79010037D01*
X106322856Y-79057656D01*
X106370475Y-79105275D01*
X106418094Y-79200513D01*
X106418094Y-79390989D01*
X106370475Y-79486227D01*
X106322856Y-79533846D01*
X106227618Y-79581465D01*
X105418094Y-79581465D01*
X106418094Y-80581465D02*
X106418094Y-80010037D01*
X106418094Y-80295751D02*
X105418094Y-80295751D01*
X105560952Y-80200513D01*
X105656190Y-80105275D01*
X105703809Y-80010037D01*
X98682379Y-75200513D02*
X98682379Y-75676703D01*
X98968093Y-75105275D02*
X97968093Y-75438608D01*
X98968093Y-75771942D01*
X97968093Y-75962418D02*
X97968093Y-76533846D01*
X98968093Y-76248132D02*
X97968093Y-76248132D01*
X98968093Y-76867180D02*
X98301427Y-76867180D01*
X98396665Y-76867180D02*
X98349046Y-76914799D01*
X98301427Y-77010037D01*
X98301427Y-77152894D01*
X98349046Y-77248132D01*
X98444284Y-77295751D01*
X98968093Y-77295751D01*
X98444284Y-77295751D02*
X98349046Y-77343370D01*
X98301427Y-77438608D01*
X98301427Y-77581465D01*
X98349046Y-77676703D01*
X98444284Y-77724322D01*
X98968093Y-77724322D01*
X98920474Y-78581465D02*
X98968093Y-78486227D01*
X98968093Y-78295751D01*
X98920474Y-78200513D01*
X98825236Y-78152894D01*
X98444284Y-78152894D01*
X98349046Y-78200513D01*
X98301427Y-78295751D01*
X98301427Y-78486227D01*
X98349046Y-78581465D01*
X98444284Y-78629084D01*
X98539522Y-78629084D01*
X98634760Y-78152894D01*
X98301427Y-79486227D02*
X99110951Y-79486227D01*
X99206189Y-79438608D01*
X99253808Y-79390989D01*
X99301427Y-79295751D01*
X99301427Y-79152894D01*
X99253808Y-79057656D01*
X98920474Y-79486227D02*
X98968093Y-79390989D01*
X98968093Y-79200513D01*
X98920474Y-79105275D01*
X98872855Y-79057656D01*
X98777617Y-79010037D01*
X98491903Y-79010037D01*
X98396665Y-79057656D01*
X98349046Y-79105275D01*
X98301427Y-79200513D01*
X98301427Y-79390989D01*
X98349046Y-79486227D01*
X98968093Y-80390989D02*
X98444284Y-80390989D01*
X98349046Y-80343370D01*
X98301427Y-80248132D01*
X98301427Y-80057656D01*
X98349046Y-79962418D01*
X98920474Y-80390989D02*
X98968093Y-80295751D01*
X98968093Y-80057656D01*
X98920474Y-79962418D01*
X98825236Y-79914799D01*
X98729998Y-79914799D01*
X98634760Y-79962418D01*
X98587141Y-80057656D01*
X98587141Y-80295751D01*
X98539522Y-80390989D01*
X97968093Y-80771942D02*
X97968093Y-81390989D01*
X98349046Y-81057656D01*
X98349046Y-81200513D01*
X98396665Y-81295751D01*
X98444284Y-81343370D01*
X98539522Y-81390989D01*
X98777617Y-81390989D01*
X98872855Y-81343370D01*
X98920474Y-81295751D01*
X98968093Y-81200513D01*
X98968093Y-80914799D01*
X98920474Y-80819561D01*
X98872855Y-80771942D01*
X98063332Y-81771942D02*
X98015713Y-81819561D01*
X97968093Y-81914799D01*
X97968093Y-82152894D01*
X98015713Y-82248132D01*
X98063332Y-82295751D01*
X98158570Y-82343370D01*
X98253808Y-82343370D01*
X98396665Y-82295751D01*
X98968093Y-81724322D01*
X98968093Y-82343370D01*
X97968093Y-82771942D02*
X98777617Y-82771942D01*
X98872855Y-82819561D01*
X98920474Y-82867180D01*
X98968093Y-82962418D01*
X98968093Y-83152894D01*
X98920474Y-83248132D01*
X98872855Y-83295751D01*
X98777617Y-83343370D01*
X97968093Y-83343370D01*
X98301427Y-84248132D02*
X98968093Y-84248132D01*
X97920474Y-84010037D02*
X98634760Y-83771942D01*
X98634760Y-84390989D01*
D12*
X95749930Y-78486152D02*
X95949930Y-78619486D01*
X95749930Y-78619486D02*
X95949930Y-78486152D01*
X95749930Y-78667105D02*
X95749930Y-78781390D01*
X95949930Y-78724248D02*
X95749930Y-78724248D01*
X95892787Y-78838533D02*
X95892787Y-78933771D01*
X95949930Y-78819486D02*
X95749930Y-78886152D01*
X95949930Y-78952819D01*
X95949930Y-79114724D02*
X95949930Y-79019486D01*
X95749930Y-79019486D01*
X95968977Y-79133771D02*
X95968977Y-79286152D01*
X95759454Y-79438533D02*
X95749930Y-79419486D01*
X95749930Y-79390914D01*
X95759454Y-79362343D01*
X95778501Y-79343295D01*
X95797549Y-79333771D01*
X95835644Y-79324248D01*
X95864215Y-79324248D01*
X95902311Y-79333771D01*
X95921358Y-79343295D01*
X95940406Y-79362343D01*
X95949930Y-79390914D01*
X95949930Y-79409962D01*
X95940406Y-79438533D01*
X95930882Y-79448057D01*
X95864215Y-79448057D01*
X95864215Y-79409962D01*
X95949930Y-79533771D02*
X95749930Y-79533771D01*
X95949930Y-79648057D01*
X95749930Y-79648057D01*
X95949930Y-79743295D02*
X95749930Y-79743295D01*
X95749930Y-79790914D01*
X95759454Y-79819486D01*
X95778501Y-79838533D01*
X95797549Y-79848057D01*
X95835644Y-79857581D01*
X95864215Y-79857581D01*
X95902311Y-79848057D01*
X95921358Y-79838533D01*
X95940406Y-79819486D01*
X95949930Y-79790914D01*
X95949930Y-79743295D01*
D13*
X93680882Y-78790914D02*
X94280882Y-79190914D01*
X93680882Y-79190914D02*
X94280882Y-78790914D01*
X94280882Y-79733771D02*
X94280882Y-79390914D01*
X94280882Y-79562343D02*
X93680882Y-79562343D01*
X93766596Y-79505200D01*
X93823739Y-79448057D01*
X93852311Y-79390914D01*
D11*
X32289609Y-44279801D02*
X32146752Y-44327420D01*
X31908656Y-44327420D01*
X31813418Y-44279801D01*
X31765799Y-44232182D01*
X31718180Y-44136944D01*
X31718180Y-44041706D01*
X31765799Y-43946468D01*
X31813418Y-43898849D01*
X31908656Y-43851230D01*
X32099133Y-43803611D01*
X32194371Y-43755992D01*
X32241990Y-43708373D01*
X32289609Y-43613135D01*
X32289609Y-43517897D01*
X32241990Y-43422659D01*
X32194371Y-43375040D01*
X32099133Y-43327420D01*
X31861037Y-43327420D01*
X31718180Y-43375040D01*
X31384847Y-43327420D02*
X31146752Y-44327420D01*
X30956276Y-43613135D01*
X30765799Y-44327420D01*
X30527704Y-43327420D01*
X29622942Y-44327420D02*
X30194371Y-44327420D01*
X29908656Y-44327420D02*
X29908656Y-43327420D01*
X30003895Y-43470278D01*
X30099133Y-43565516D01*
X30194371Y-43613135D01*
D14*
X117359994Y-73449689D02*
X117526661Y-73211594D01*
X117645708Y-73449689D02*
X117645708Y-72949689D01*
X117455232Y-72949689D01*
X117407613Y-72973499D01*
X117383803Y-72997308D01*
X117359994Y-73044927D01*
X117359994Y-73116356D01*
X117383803Y-73163975D01*
X117407613Y-73187784D01*
X117455232Y-73211594D01*
X117645708Y-73211594D01*
X116931422Y-72949689D02*
X117026661Y-72949689D01*
X117074280Y-72973499D01*
X117098089Y-72997308D01*
X117145708Y-73068737D01*
X117169518Y-73163975D01*
X117169518Y-73354451D01*
X117145708Y-73402070D01*
X117121899Y-73425879D01*
X117074280Y-73449689D01*
X116979041Y-73449689D01*
X116931422Y-73425879D01*
X116907613Y-73402070D01*
X116883803Y-73354451D01*
X116883803Y-73235403D01*
X116907613Y-73187784D01*
X116931422Y-73163975D01*
X116979041Y-73140165D01*
X117074280Y-73140165D01*
X117121899Y-73163975D01*
X117145708Y-73187784D01*
X117169518Y-73235403D01*
D10*
X173462273Y-10108491D02*
X172962273Y-10108491D01*
X172962273Y-10227538D01*
X172986083Y-10298967D01*
X173033702Y-10346586D01*
X173081321Y-10370395D01*
X173176559Y-10394205D01*
X173247987Y-10394205D01*
X173343225Y-10370395D01*
X173390844Y-10346586D01*
X173438463Y-10298967D01*
X173462273Y-10227538D01*
X173462273Y-10108491D01*
X173462273Y-10870395D02*
X173462273Y-10584681D01*
X173462273Y-10727538D02*
X172962273Y-10727538D01*
X173033702Y-10679919D01*
X173081321Y-10632300D01*
X173105130Y-10584681D01*
X172962273Y-11179919D02*
X172962273Y-11227538D01*
X172986083Y-11275157D01*
X173009892Y-11298967D01*
X173057511Y-11322776D01*
X173152749Y-11346586D01*
X173271797Y-11346586D01*
X173367035Y-11322776D01*
X173414654Y-11298967D01*
X173438463Y-11275157D01*
X173462273Y-11227538D01*
X173462273Y-11179919D01*
X173438463Y-11132300D01*
X173414654Y-11108491D01*
X173367035Y-11084681D01*
X173271797Y-11060872D01*
X173152749Y-11060872D01*
X173057511Y-11084681D01*
X173009892Y-11108491D01*
X172986083Y-11132300D01*
X172962273Y-11179919D01*
X249662337Y-10108491D02*
X249162337Y-10108491D01*
X249162337Y-10227538D01*
X249186147Y-10298967D01*
X249233766Y-10346586D01*
X249281385Y-10370395D01*
X249376623Y-10394205D01*
X249448051Y-10394205D01*
X249543289Y-10370395D01*
X249590908Y-10346586D01*
X249638527Y-10298967D01*
X249662337Y-10227538D01*
X249662337Y-10108491D01*
X249662337Y-10870395D02*
X249662337Y-10584681D01*
X249662337Y-10727538D02*
X249162337Y-10727538D01*
X249233766Y-10679919D01*
X249281385Y-10632300D01*
X249305194Y-10584681D01*
X249329004Y-11298967D02*
X249662337Y-11298967D01*
X249138527Y-11179919D02*
X249495670Y-11060872D01*
X249495670Y-11370395D01*
X154412257Y-10346586D02*
X153912257Y-10346586D01*
X153912257Y-10465634D01*
X153936067Y-10537062D01*
X153983686Y-10584681D01*
X154031305Y-10608491D01*
X154126543Y-10632300D01*
X154197971Y-10632300D01*
X154293209Y-10608491D01*
X154340828Y-10584681D01*
X154388447Y-10537062D01*
X154412257Y-10465634D01*
X154412257Y-10346586D01*
X154412257Y-10870395D02*
X154412257Y-10965634D01*
X154388447Y-11013253D01*
X154364638Y-11037062D01*
X154293209Y-11084681D01*
X154197971Y-11108491D01*
X154007495Y-11108491D01*
X153959876Y-11084681D01*
X153936067Y-11060872D01*
X153912257Y-11013253D01*
X153912257Y-10918014D01*
X153936067Y-10870395D01*
X153959876Y-10846586D01*
X154007495Y-10822776D01*
X154126543Y-10822776D01*
X154174162Y-10846586D01*
X154197971Y-10870395D01*
X154221781Y-10918014D01*
X154221781Y-11013253D01*
X154197971Y-11060872D01*
X154174162Y-11084681D01*
X154126543Y-11108491D01*
X230612321Y-10108491D02*
X230112321Y-10108491D01*
X230112321Y-10227538D01*
X230136131Y-10298967D01*
X230183750Y-10346586D01*
X230231369Y-10370395D01*
X230326607Y-10394205D01*
X230398035Y-10394205D01*
X230493273Y-10370395D01*
X230540892Y-10346586D01*
X230588511Y-10298967D01*
X230612321Y-10227538D01*
X230612321Y-10108491D01*
X230612321Y-10870395D02*
X230612321Y-10584681D01*
X230612321Y-10727538D02*
X230112321Y-10727538D01*
X230183750Y-10679919D01*
X230231369Y-10632300D01*
X230255178Y-10584681D01*
X230112321Y-11037062D02*
X230112321Y-11346586D01*
X230302797Y-11179919D01*
X230302797Y-11251348D01*
X230326607Y-11298967D01*
X230350416Y-11322776D01*
X230398035Y-11346586D01*
X230517083Y-11346586D01*
X230564702Y-11322776D01*
X230588511Y-11298967D01*
X230612321Y-11251348D01*
X230612321Y-11108491D01*
X230588511Y-11060872D01*
X230564702Y-11037062D01*
X192512289Y-10108491D02*
X192012289Y-10108491D01*
X192012289Y-10227538D01*
X192036099Y-10298967D01*
X192083718Y-10346586D01*
X192131337Y-10370395D01*
X192226575Y-10394205D01*
X192298003Y-10394205D01*
X192393241Y-10370395D01*
X192440860Y-10346586D01*
X192488479Y-10298967D01*
X192512289Y-10227538D01*
X192512289Y-10108491D01*
X192512289Y-10870395D02*
X192512289Y-10584681D01*
X192512289Y-10727538D02*
X192012289Y-10727538D01*
X192083718Y-10679919D01*
X192131337Y-10632300D01*
X192155146Y-10584681D01*
X192512289Y-11346586D02*
X192512289Y-11060872D01*
X192512289Y-11203729D02*
X192012289Y-11203729D01*
X192083718Y-11156110D01*
X192131337Y-11108491D01*
X192155146Y-11060872D01*
X246090459Y-10108491D02*
X245590459Y-10108491D01*
X245590459Y-10227538D01*
X245614269Y-10298967D01*
X245661888Y-10346586D01*
X245709507Y-10370395D01*
X245804745Y-10394205D01*
X245876173Y-10394205D01*
X245971411Y-10370395D01*
X246019030Y-10346586D01*
X246066649Y-10298967D01*
X246090459Y-10227538D01*
X246090459Y-10108491D01*
X246090459Y-10870395D02*
X246090459Y-10584681D01*
X246090459Y-10727538D02*
X245590459Y-10727538D01*
X245661888Y-10679919D01*
X245709507Y-10632300D01*
X245733316Y-10584681D01*
X245590459Y-11322776D02*
X245590459Y-11084681D01*
X245828554Y-11060872D01*
X245804745Y-11084681D01*
X245780935Y-11132300D01*
X245780935Y-11251348D01*
X245804745Y-11298967D01*
X245828554Y-11322776D01*
X245876173Y-11346586D01*
X245995221Y-11346586D01*
X246042840Y-11322776D01*
X246066649Y-11298967D01*
X246090459Y-11251348D01*
X246090459Y-11132300D01*
X246066649Y-11084681D01*
X246042840Y-11060872D01*
X46065291Y-29158507D02*
X45565291Y-29158507D01*
X45565291Y-29277554D01*
X45589101Y-29348983D01*
X45636720Y-29396602D01*
X45684339Y-29420411D01*
X45779577Y-29444221D01*
X45851005Y-29444221D01*
X45946243Y-29420411D01*
X45993862Y-29396602D01*
X46041481Y-29348983D01*
X46065291Y-29277554D01*
X46065291Y-29158507D01*
X46065291Y-29920411D02*
X46065291Y-29634697D01*
X46065291Y-29777554D02*
X45565291Y-29777554D01*
X45636720Y-29729935D01*
X45684339Y-29682316D01*
X45708148Y-29634697D01*
X45565291Y-30087078D02*
X45565291Y-30420411D01*
X46065291Y-30206126D01*
X6774633Y-29158507D02*
X6274633Y-29158507D01*
X6274633Y-29277554D01*
X6298443Y-29348983D01*
X6346062Y-29396602D01*
X6393681Y-29420411D01*
X6488919Y-29444221D01*
X6560347Y-29444221D01*
X6655585Y-29420411D01*
X6703204Y-29396602D01*
X6750823Y-29348983D01*
X6774633Y-29277554D01*
X6774633Y-29158507D01*
X6774633Y-29920411D02*
X6774633Y-29634697D01*
X6774633Y-29777554D02*
X6274633Y-29777554D01*
X6346062Y-29729935D01*
X6393681Y-29682316D01*
X6417490Y-29634697D01*
X6274633Y-30348983D02*
X6274633Y-30253745D01*
X6298443Y-30206126D01*
X6322252Y-30182316D01*
X6393681Y-30134697D01*
X6488919Y-30110888D01*
X6679395Y-30110888D01*
X6727014Y-30134697D01*
X6750823Y-30158507D01*
X6774633Y-30206126D01*
X6774633Y-30301364D01*
X6750823Y-30348983D01*
X6727014Y-30372792D01*
X6679395Y-30396602D01*
X6560347Y-30396602D01*
X6512728Y-30372792D01*
X6488919Y-30348983D01*
X6465109Y-30301364D01*
X6465109Y-30206126D01*
X6488919Y-30158507D01*
X6512728Y-30134697D01*
X6560347Y-30110888D01*
X211562305Y-10108491D02*
X211062305Y-10108491D01*
X211062305Y-10227538D01*
X211086115Y-10298967D01*
X211133734Y-10346586D01*
X211181353Y-10370395D01*
X211276591Y-10394205D01*
X211348019Y-10394205D01*
X211443257Y-10370395D01*
X211490876Y-10346586D01*
X211538495Y-10298967D01*
X211562305Y-10227538D01*
X211562305Y-10108491D01*
X211562305Y-10870395D02*
X211562305Y-10584681D01*
X211562305Y-10727538D02*
X211062305Y-10727538D01*
X211133734Y-10679919D01*
X211181353Y-10632300D01*
X211205162Y-10584681D01*
X211109924Y-11060872D02*
X211086115Y-11084681D01*
X211062305Y-11132300D01*
X211062305Y-11251348D01*
X211086115Y-11298967D01*
X211109924Y-11322776D01*
X211157543Y-11346586D01*
X211205162Y-11346586D01*
X211276591Y-11322776D01*
X211562305Y-11037062D01*
X211562305Y-11346586D01*
X116312225Y-10346586D02*
X115812225Y-10346586D01*
X115812225Y-10465634D01*
X115836035Y-10537062D01*
X115883654Y-10584681D01*
X115931273Y-10608491D01*
X116026511Y-10632300D01*
X116097939Y-10632300D01*
X116193177Y-10608491D01*
X116240796Y-10584681D01*
X116288415Y-10537062D01*
X116312225Y-10465634D01*
X116312225Y-10346586D01*
X115812225Y-10798967D02*
X115812225Y-11132300D01*
X116312225Y-10918014D01*
X55590299Y-10346586D02*
X55090299Y-10346586D01*
X55090299Y-10465634D01*
X55114109Y-10537062D01*
X55161728Y-10584681D01*
X55209347Y-10608491D01*
X55304585Y-10632300D01*
X55376013Y-10632300D01*
X55471251Y-10608491D01*
X55518870Y-10584681D01*
X55566489Y-10537062D01*
X55590299Y-10465634D01*
X55590299Y-10346586D01*
X55090299Y-10798967D02*
X55090299Y-11108491D01*
X55280775Y-10941824D01*
X55280775Y-11013253D01*
X55304585Y-11060872D01*
X55328394Y-11084681D01*
X55376013Y-11108491D01*
X55495061Y-11108491D01*
X55542680Y-11084681D01*
X55566489Y-11060872D01*
X55590299Y-11013253D01*
X55590299Y-10870395D01*
X55566489Y-10822776D01*
X55542680Y-10798967D01*
X78212193Y-10346586D02*
X77712193Y-10346586D01*
X77712193Y-10465634D01*
X77736003Y-10537062D01*
X77783622Y-10584681D01*
X77831241Y-10608491D01*
X77926479Y-10632300D01*
X77997907Y-10632300D01*
X78093145Y-10608491D01*
X78140764Y-10584681D01*
X78188383Y-10537062D01*
X78212193Y-10465634D01*
X78212193Y-10346586D01*
X77712193Y-11084681D02*
X77712193Y-10846586D01*
X77950288Y-10822776D01*
X77926479Y-10846586D01*
X77902669Y-10894205D01*
X77902669Y-11013253D01*
X77926479Y-11060872D01*
X77950288Y-11084681D01*
X77997907Y-11108491D01*
X78116955Y-11108491D01*
X78164574Y-11084681D01*
X78188383Y-11060872D01*
X78212193Y-11013253D01*
X78212193Y-10894205D01*
X78188383Y-10846586D01*
X78164574Y-10822776D01*
X135362241Y-10346586D02*
X134862241Y-10346586D01*
X134862241Y-10465634D01*
X134886051Y-10537062D01*
X134933670Y-10584681D01*
X134981289Y-10608491D01*
X135076527Y-10632300D01*
X135147955Y-10632300D01*
X135243193Y-10608491D01*
X135290812Y-10584681D01*
X135338431Y-10537062D01*
X135362241Y-10465634D01*
X135362241Y-10346586D01*
X135076527Y-10918014D02*
X135052717Y-10870395D01*
X135028908Y-10846586D01*
X134981289Y-10822776D01*
X134957479Y-10822776D01*
X134909860Y-10846586D01*
X134886051Y-10870395D01*
X134862241Y-10918014D01*
X134862241Y-11013253D01*
X134886051Y-11060872D01*
X134909860Y-11084681D01*
X134957479Y-11108491D01*
X134981289Y-11108491D01*
X135028908Y-11084681D01*
X135052717Y-11060872D01*
X135076527Y-11013253D01*
X135076527Y-10918014D01*
X135100336Y-10870395D01*
X135124146Y-10846586D01*
X135171765Y-10822776D01*
X135267003Y-10822776D01*
X135314622Y-10846586D01*
X135338431Y-10870395D01*
X135362241Y-10918014D01*
X135362241Y-11013253D01*
X135338431Y-11060872D01*
X135314622Y-11084681D01*
X135267003Y-11108491D01*
X135171765Y-11108491D01*
X135124146Y-11084681D01*
X135100336Y-11060872D01*
X135076527Y-11013253D01*
X97262209Y-10346586D02*
X96762209Y-10346586D01*
X96762209Y-10465634D01*
X96786019Y-10537062D01*
X96833638Y-10584681D01*
X96881257Y-10608491D01*
X96976495Y-10632300D01*
X97047923Y-10632300D01*
X97143161Y-10608491D01*
X97190780Y-10584681D01*
X97238399Y-10537062D01*
X97262209Y-10465634D01*
X97262209Y-10346586D01*
X96762209Y-11060872D02*
X96762209Y-10965634D01*
X96786019Y-10918014D01*
X96809828Y-10894205D01*
X96881257Y-10846586D01*
X96976495Y-10822776D01*
X97166971Y-10822776D01*
X97214590Y-10846586D01*
X97238399Y-10870395D01*
X97262209Y-10918014D01*
X97262209Y-11013253D01*
X97238399Y-11060872D01*
X97214590Y-11084681D01*
X97166971Y-11108491D01*
X97047923Y-11108491D01*
X97000304Y-11084681D01*
X96976495Y-11060872D01*
X96952685Y-11013253D01*
X96952685Y-10918014D01*
X96976495Y-10870395D01*
X97000304Y-10846586D01*
X97047923Y-10822776D01*
X59162177Y-10346586D02*
X58662177Y-10346586D01*
X58662177Y-10465634D01*
X58685987Y-10537062D01*
X58733606Y-10584681D01*
X58781225Y-10608491D01*
X58876463Y-10632300D01*
X58947891Y-10632300D01*
X59043129Y-10608491D01*
X59090748Y-10584681D01*
X59138367Y-10537062D01*
X59162177Y-10465634D01*
X59162177Y-10346586D01*
X58828844Y-11060872D02*
X59162177Y-11060872D01*
X58638367Y-10941824D02*
X58995510Y-10822776D01*
X58995510Y-11132300D01*
X234184199Y-86308555D02*
X233684199Y-86308555D01*
X233684199Y-86427602D01*
X233708009Y-86499031D01*
X233755628Y-86546650D01*
X233803247Y-86570459D01*
X233898485Y-86594269D01*
X233969913Y-86594269D01*
X234065151Y-86570459D01*
X234112770Y-86546650D01*
X234160389Y-86499031D01*
X234184199Y-86427602D01*
X234184199Y-86308555D01*
X233684199Y-86760936D02*
X233684199Y-87094269D01*
X234184199Y-86879983D01*
X233850866Y-87499031D02*
X234184199Y-87499031D01*
X233660389Y-87379983D02*
X234017532Y-87260936D01*
X234017532Y-87570459D01*
D14*
X18085580Y-16585430D02*
X17847485Y-16418764D01*
X18085580Y-16299716D02*
X17585580Y-16299716D01*
X17585580Y-16490192D01*
X17609390Y-16537811D01*
X17633199Y-16561621D01*
X17680818Y-16585430D01*
X17752247Y-16585430D01*
X17799866Y-16561621D01*
X17823675Y-16537811D01*
X17847485Y-16490192D01*
X17847485Y-16299716D01*
X18085580Y-17061621D02*
X18085580Y-16775906D01*
X18085580Y-16918764D02*
X17585580Y-16918764D01*
X17657009Y-16871144D01*
X17704628Y-16823525D01*
X17728437Y-16775906D01*
D11*
X18901333Y-2428945D02*
X18901333Y-3143231D01*
X18948952Y-3286088D01*
X19044190Y-3381326D01*
X19187047Y-3428945D01*
X19282285Y-3428945D01*
X17901333Y-3428945D02*
X18472761Y-3428945D01*
X18187047Y-3428945D02*
X18187047Y-2428945D01*
X18282285Y-2571803D01*
X18377523Y-2667041D01*
X18472761Y-2714660D01*
D10*
X63924681Y-67258539D02*
X63424681Y-67258539D01*
X63424681Y-67377586D01*
X63448491Y-67449015D01*
X63496110Y-67496634D01*
X63543729Y-67520443D01*
X63638967Y-67544253D01*
X63710395Y-67544253D01*
X63805633Y-67520443D01*
X63853252Y-67496634D01*
X63900871Y-67449015D01*
X63924681Y-67377586D01*
X63924681Y-67258539D01*
X63591348Y-67972824D02*
X63924681Y-67972824D01*
X63400871Y-67853777D02*
X63758014Y-67734729D01*
X63758014Y-68044253D01*
X63924681Y-68258539D02*
X63924681Y-68353777D01*
X63900871Y-68401396D01*
X63877062Y-68425205D01*
X63805633Y-68472824D01*
X63710395Y-68496634D01*
X63519919Y-68496634D01*
X63472300Y-68472824D01*
X63448491Y-68449015D01*
X63424681Y-68401396D01*
X63424681Y-68306158D01*
X63448491Y-68258539D01*
X63472300Y-68234729D01*
X63519919Y-68210920D01*
X63638967Y-68210920D01*
X63686586Y-68234729D01*
X63710395Y-68258539D01*
X63734205Y-68306158D01*
X63734205Y-68401396D01*
X63710395Y-68449015D01*
X63686586Y-68472824D01*
X63638967Y-68496634D01*
X117359994Y-82927078D02*
X117383803Y-82950887D01*
X117455232Y-82974697D01*
X117502851Y-82974697D01*
X117574280Y-82950887D01*
X117621899Y-82903268D01*
X117645708Y-82855649D01*
X117669518Y-82760411D01*
X117669518Y-82688983D01*
X117645708Y-82593745D01*
X117621899Y-82546126D01*
X117574280Y-82498507D01*
X117502851Y-82474697D01*
X117455232Y-82474697D01*
X117383803Y-82498507D01*
X117359994Y-82522316D01*
X116931422Y-82641364D02*
X116931422Y-82974697D01*
X117050470Y-82450887D02*
X117169518Y-82808030D01*
X116859994Y-82808030D01*
X117359994Y-75783322D02*
X117383803Y-75807131D01*
X117455232Y-75830941D01*
X117502851Y-75830941D01*
X117574280Y-75807131D01*
X117621899Y-75759512D01*
X117645708Y-75711893D01*
X117669518Y-75616655D01*
X117669518Y-75545227D01*
X117645708Y-75449989D01*
X117621899Y-75402370D01*
X117574280Y-75354751D01*
X117502851Y-75330941D01*
X117455232Y-75330941D01*
X117383803Y-75354751D01*
X117359994Y-75378560D01*
X116907613Y-75330941D02*
X117145708Y-75330941D01*
X117169518Y-75569036D01*
X117145708Y-75545227D01*
X117098089Y-75521417D01*
X116979041Y-75521417D01*
X116931422Y-75545227D01*
X116907613Y-75569036D01*
X116883803Y-75616655D01*
X116883803Y-75735703D01*
X116907613Y-75783322D01*
X116931422Y-75807131D01*
X116979041Y-75830941D01*
X117098089Y-75830941D01*
X117145708Y-75807131D01*
X117169518Y-75783322D01*
X41302787Y-67258539D02*
X40802787Y-67258539D01*
X40802787Y-67377586D01*
X40826597Y-67449015D01*
X40874216Y-67496634D01*
X40921835Y-67520443D01*
X41017073Y-67544253D01*
X41088501Y-67544253D01*
X41183739Y-67520443D01*
X41231358Y-67496634D01*
X41278977Y-67449015D01*
X41302787Y-67377586D01*
X41302787Y-67258539D01*
X40969454Y-67972824D02*
X41302787Y-67972824D01*
X40778977Y-67853777D02*
X41136120Y-67734729D01*
X41136120Y-68044253D01*
X40802787Y-68449015D02*
X40802787Y-68353777D01*
X40826597Y-68306158D01*
X40850406Y-68282348D01*
X40921835Y-68234729D01*
X41017073Y-68210920D01*
X41207549Y-68210920D01*
X41255168Y-68234729D01*
X41278977Y-68258539D01*
X41302787Y-68306158D01*
X41302787Y-68401396D01*
X41278977Y-68449015D01*
X41255168Y-68472824D01*
X41207549Y-68496634D01*
X41088501Y-68496634D01*
X41040882Y-68472824D01*
X41017073Y-68449015D01*
X40993263Y-68401396D01*
X40993263Y-68306158D01*
X41017073Y-68258539D01*
X41040882Y-68234729D01*
X41088501Y-68210920D01*
X236565451Y-29158507D02*
X236065451Y-29158507D01*
X236065451Y-29277554D01*
X236089261Y-29348983D01*
X236136880Y-29396602D01*
X236184499Y-29420411D01*
X236279737Y-29444221D01*
X236351165Y-29444221D01*
X236446403Y-29420411D01*
X236494022Y-29396602D01*
X236541641Y-29348983D01*
X236565451Y-29277554D01*
X236565451Y-29158507D01*
X236113070Y-29634697D02*
X236089261Y-29658507D01*
X236065451Y-29706126D01*
X236065451Y-29825173D01*
X236089261Y-29872792D01*
X236113070Y-29896602D01*
X236160689Y-29920411D01*
X236208308Y-29920411D01*
X236279737Y-29896602D01*
X236565451Y-29610888D01*
X236565451Y-29920411D01*
X236565451Y-30158507D02*
X236565451Y-30253745D01*
X236541641Y-30301364D01*
X236517832Y-30325173D01*
X236446403Y-30372792D01*
X236351165Y-30396602D01*
X236160689Y-30396602D01*
X236113070Y-30372792D01*
X236089261Y-30348983D01*
X236065451Y-30301364D01*
X236065451Y-30206126D01*
X236089261Y-30158507D01*
X236113070Y-30134697D01*
X236160689Y-30110888D01*
X236279737Y-30110888D01*
X236327356Y-30134697D01*
X236351165Y-30158507D01*
X236374975Y-30206126D01*
X236374975Y-30301364D01*
X236351165Y-30348983D01*
X236327356Y-30372792D01*
X236279737Y-30396602D01*
D14*
X15442423Y-17692723D02*
X15442423Y-17526056D01*
X15704328Y-17526056D02*
X15204328Y-17526056D01*
X15204328Y-17764151D01*
X15704328Y-18216532D02*
X15704328Y-17930818D01*
X15704328Y-18073675D02*
X15204328Y-18073675D01*
X15275757Y-18026056D01*
X15323376Y-17978437D01*
X15347185Y-17930818D01*
D10*
X36540283Y-10346586D02*
X36040283Y-10346586D01*
X36040283Y-10465634D01*
X36064093Y-10537062D01*
X36111712Y-10584681D01*
X36159331Y-10608491D01*
X36254569Y-10632300D01*
X36325997Y-10632300D01*
X36421235Y-10608491D01*
X36468854Y-10584681D01*
X36516473Y-10537062D01*
X36540283Y-10465634D01*
X36540283Y-10346586D01*
X36540283Y-11108491D02*
X36540283Y-10822776D01*
X36540283Y-10965634D02*
X36040283Y-10965634D01*
X36111712Y-10918014D01*
X36159331Y-10870395D01*
X36183140Y-10822776D01*
X44874665Y-67258539D02*
X44374665Y-67258539D01*
X44374665Y-67377586D01*
X44398475Y-67449015D01*
X44446094Y-67496634D01*
X44493713Y-67520443D01*
X44588951Y-67544253D01*
X44660379Y-67544253D01*
X44755617Y-67520443D01*
X44803236Y-67496634D01*
X44850855Y-67449015D01*
X44874665Y-67377586D01*
X44874665Y-67258539D01*
X44541332Y-67972824D02*
X44874665Y-67972824D01*
X44350855Y-67853777D02*
X44707998Y-67734729D01*
X44707998Y-68044253D01*
X44374665Y-68187110D02*
X44374665Y-68520443D01*
X44874665Y-68306158D01*
D14*
X20014451Y-16752097D02*
X20252546Y-16918764D01*
X20014451Y-17037811D02*
X20514451Y-17037811D01*
X20514451Y-16847335D01*
X20490642Y-16799716D01*
X20466832Y-16775906D01*
X20419213Y-16752097D01*
X20347784Y-16752097D01*
X20300165Y-16775906D01*
X20276356Y-16799716D01*
X20252546Y-16847335D01*
X20252546Y-17037811D01*
X20466832Y-16561621D02*
X20490642Y-16537811D01*
X20514451Y-16490192D01*
X20514451Y-16371144D01*
X20490642Y-16323525D01*
X20466832Y-16299716D01*
X20419213Y-16275906D01*
X20371594Y-16275906D01*
X20300165Y-16299716D01*
X20014451Y-16585430D01*
X20014451Y-16275906D01*
D10*
X94142787Y-87094269D02*
X94166596Y-87118078D01*
X94238025Y-87141888D01*
X94285644Y-87141888D01*
X94357073Y-87118078D01*
X94404692Y-87070459D01*
X94428501Y-87022840D01*
X94452311Y-86927602D01*
X94452311Y-86856174D01*
X94428501Y-86760936D01*
X94404692Y-86713317D01*
X94357073Y-86665698D01*
X94285644Y-86641888D01*
X94238025Y-86641888D01*
X94166596Y-86665698D01*
X94142787Y-86689507D01*
X93666596Y-87141888D02*
X93952311Y-87141888D01*
X93809454Y-87141888D02*
X93809454Y-86641888D01*
X93857073Y-86713317D01*
X93904692Y-86760936D01*
X93952311Y-86784745D01*
X94142787Y-84713017D02*
X94166596Y-84736826D01*
X94238025Y-84760636D01*
X94285644Y-84760636D01*
X94357073Y-84736826D01*
X94404692Y-84689207D01*
X94428501Y-84641588D01*
X94452311Y-84546350D01*
X94452311Y-84474922D01*
X94428501Y-84379684D01*
X94404692Y-84332065D01*
X94357073Y-84284446D01*
X94285644Y-84260636D01*
X94238025Y-84260636D01*
X94166596Y-84284446D01*
X94142787Y-84308255D01*
X93952311Y-84308255D02*
X93928501Y-84284446D01*
X93880882Y-84260636D01*
X93761834Y-84260636D01*
X93714215Y-84284446D01*
X93690406Y-84308255D01*
X93666596Y-84355874D01*
X93666596Y-84403493D01*
X93690406Y-84474922D01*
X93976120Y-84760636D01*
X93666596Y-84760636D01*
D14*
X117359994Y-85355949D02*
X117526661Y-85117854D01*
X117645708Y-85355949D02*
X117645708Y-84855949D01*
X117455232Y-84855949D01*
X117407613Y-84879759D01*
X117383803Y-84903568D01*
X117359994Y-84951187D01*
X117359994Y-85022616D01*
X117383803Y-85070235D01*
X117407613Y-85094044D01*
X117455232Y-85117854D01*
X117645708Y-85117854D01*
X116907613Y-84855949D02*
X117145708Y-84855949D01*
X117169518Y-85094044D01*
X117145708Y-85070235D01*
X117098089Y-85046425D01*
X116979041Y-85046425D01*
X116931422Y-85070235D01*
X116907613Y-85094044D01*
X116883803Y-85141663D01*
X116883803Y-85260711D01*
X116907613Y-85308330D01*
X116931422Y-85332139D01*
X116979041Y-85355949D01*
X117098089Y-85355949D01*
X117145708Y-85332139D01*
X117169518Y-85308330D01*
X22395703Y-13180219D02*
X22633798Y-13346886D01*
X22395703Y-13465933D02*
X22895703Y-13465933D01*
X22895703Y-13275457D01*
X22871894Y-13227838D01*
X22848084Y-13204028D01*
X22800465Y-13180219D01*
X22729036Y-13180219D01*
X22681417Y-13204028D01*
X22657608Y-13227838D01*
X22633798Y-13275457D01*
X22633798Y-13465933D01*
X22729036Y-12751647D02*
X22395703Y-12751647D01*
X22919513Y-12870695D02*
X22562370Y-12989743D01*
X22562370Y-12680219D01*
D10*
X40112161Y-10346586D02*
X39612161Y-10346586D01*
X39612161Y-10465634D01*
X39635971Y-10537062D01*
X39683590Y-10584681D01*
X39731209Y-10608491D01*
X39826447Y-10632300D01*
X39897875Y-10632300D01*
X39993113Y-10608491D01*
X40040732Y-10584681D01*
X40088351Y-10537062D01*
X40112161Y-10465634D01*
X40112161Y-10346586D01*
X39659780Y-10822776D02*
X39635971Y-10846586D01*
X39612161Y-10894205D01*
X39612161Y-11013253D01*
X39635971Y-11060872D01*
X39659780Y-11084681D01*
X39707399Y-11108491D01*
X39755018Y-11108491D01*
X39826447Y-11084681D01*
X40112161Y-10798967D01*
X40112161Y-11108491D01*
X46065291Y-86308555D02*
X45565291Y-86308555D01*
X45565291Y-86427602D01*
X45589101Y-86499031D01*
X45636720Y-86546650D01*
X45684339Y-86570459D01*
X45779577Y-86594269D01*
X45851005Y-86594269D01*
X45946243Y-86570459D01*
X45993862Y-86546650D01*
X46041481Y-86499031D01*
X46065291Y-86427602D01*
X46065291Y-86308555D01*
X45565291Y-87022840D02*
X45565291Y-86927602D01*
X45589101Y-86879983D01*
X45612910Y-86856174D01*
X45684339Y-86808555D01*
X45779577Y-86784745D01*
X45970053Y-86784745D01*
X46017672Y-86808555D01*
X46041481Y-86832364D01*
X46065291Y-86879983D01*
X46065291Y-86975221D01*
X46041481Y-87022840D01*
X46017672Y-87046650D01*
X45970053Y-87070459D01*
X45851005Y-87070459D01*
X45803386Y-87046650D01*
X45779577Y-87022840D01*
X45755767Y-86975221D01*
X45755767Y-86879983D01*
X45779577Y-86832364D01*
X45803386Y-86808555D01*
X45851005Y-86784745D01*
X46065291Y-87546650D02*
X46065291Y-87260936D01*
X46065291Y-87403793D02*
X45565291Y-87403793D01*
X45636720Y-87356174D01*
X45684339Y-87308555D01*
X45708148Y-87260936D01*
D11*
X24240492Y-9053953D02*
X24240492Y-9863477D01*
X24192873Y-9958715D01*
X24145254Y-10006334D01*
X24050016Y-10053953D01*
X23859539Y-10053953D01*
X23764301Y-10006334D01*
X23716682Y-9958715D01*
X23669063Y-9863477D01*
X23669063Y-9053953D01*
X23240492Y-10006334D02*
X23097635Y-10053953D01*
X22859539Y-10053953D01*
X22764301Y-10006334D01*
X22716682Y-9958715D01*
X22669063Y-9863477D01*
X22669063Y-9768239D01*
X22716682Y-9673001D01*
X22764301Y-9625382D01*
X22859539Y-9577763D01*
X23050016Y-9530144D01*
X23145254Y-9482525D01*
X23192873Y-9434906D01*
X23240492Y-9339668D01*
X23240492Y-9244430D01*
X23192873Y-9149192D01*
X23145254Y-9101573D01*
X23050016Y-9053953D01*
X22811920Y-9053953D01*
X22669063Y-9101573D01*
X21907158Y-9530144D02*
X21764301Y-9577763D01*
X21716682Y-9625382D01*
X21669063Y-9720620D01*
X21669063Y-9863477D01*
X21716682Y-9958715D01*
X21764301Y-10006334D01*
X21859539Y-10053953D01*
X22240492Y-10053953D01*
X22240492Y-9053953D01*
X21907158Y-9053953D01*
X21811920Y-9101573D01*
X21764301Y-9149192D01*
X21716682Y-9244430D01*
X21716682Y-9339668D01*
X21764301Y-9434906D01*
X21811920Y-9482525D01*
X21907158Y-9530144D01*
X22240492Y-9530144D01*
X20764301Y-10053953D02*
X21240492Y-10053953D01*
X21240492Y-9053953D01*
X19859539Y-9958715D02*
X19907158Y-10006334D01*
X20050016Y-10053953D01*
X20145254Y-10053953D01*
X20288111Y-10006334D01*
X20383349Y-9911096D01*
X20430968Y-9815858D01*
X20478587Y-9625382D01*
X20478587Y-9482525D01*
X20430968Y-9292049D01*
X20383349Y-9196811D01*
X20288111Y-9101573D01*
X20145254Y-9053953D01*
X20050016Y-9053953D01*
X19907158Y-9101573D01*
X19859539Y-9149192D01*
X19002396Y-9053953D02*
X19192873Y-9053953D01*
X19288111Y-9101573D01*
X19335730Y-9149192D01*
X19430968Y-9292049D01*
X19478587Y-9482525D01*
X19478587Y-9863477D01*
X19430968Y-9958715D01*
X19383349Y-10006334D01*
X19288111Y-10053953D01*
X19097635Y-10053953D01*
X19002396Y-10006334D01*
X18954777Y-9958715D01*
X18907158Y-9863477D01*
X18907158Y-9625382D01*
X18954777Y-9530144D01*
X19002396Y-9482525D01*
X19097635Y-9434906D01*
X19288111Y-9434906D01*
X19383349Y-9482525D01*
X19430968Y-9530144D01*
X19478587Y-9625382D01*
X18478587Y-9673001D02*
X17716682Y-9673001D01*
X17288111Y-9149192D02*
X17240492Y-9101573D01*
X17145254Y-9053953D01*
X16907158Y-9053953D01*
X16811920Y-9101573D01*
X16764301Y-9149192D01*
X16716682Y-9244430D01*
X16716682Y-9339668D01*
X16764301Y-9482525D01*
X17335730Y-10053953D01*
X16716682Y-10053953D01*
X16335730Y-10006334D02*
X16192873Y-10053953D01*
X15954777Y-10053953D01*
X15859539Y-10006334D01*
X15811920Y-9958715D01*
X15764301Y-9863477D01*
X15764301Y-9768239D01*
X15811920Y-9673001D01*
X15859539Y-9625382D01*
X15954777Y-9577763D01*
X16145254Y-9530144D01*
X16240492Y-9482525D01*
X16288111Y-9434906D01*
X16335730Y-9339668D01*
X16335730Y-9244430D01*
X16288111Y-9149192D01*
X16240492Y-9101573D01*
X16145254Y-9053953D01*
X15907158Y-9053953D01*
X15764301Y-9101573D01*
X14764301Y-9958715D02*
X14811920Y-10006334D01*
X14954777Y-10053953D01*
X15050016Y-10053953D01*
X15192873Y-10006334D01*
X15288111Y-9911096D01*
X15335730Y-9815858D01*
X15383349Y-9625382D01*
X15383349Y-9482525D01*
X15335730Y-9292049D01*
X15288111Y-9196811D01*
X15192873Y-9101573D01*
X15050016Y-9053953D01*
X14954777Y-9053953D01*
X14811920Y-9101573D01*
X14764301Y-9149192D01*
X13907158Y-9053953D02*
X14097635Y-9053953D01*
X14192873Y-9101573D01*
X14240492Y-9149192D01*
X14335730Y-9292049D01*
X14383349Y-9482525D01*
X14383349Y-9863477D01*
X14335730Y-9958715D01*
X14288111Y-10006334D01*
X14192873Y-10053953D01*
X14002396Y-10053953D01*
X13907158Y-10006334D01*
X13859539Y-9958715D01*
X13811920Y-9863477D01*
X13811920Y-9625382D01*
X13859539Y-9530144D01*
X13907158Y-9482525D01*
X14002396Y-9434906D01*
X14192873Y-9434906D01*
X14288111Y-9482525D01*
X14335730Y-9530144D01*
X14383349Y-9625382D01*
D14*
X19430968Y-12227763D02*
X19430968Y-12632525D01*
X19407158Y-12680144D01*
X19383349Y-12703953D01*
X19335730Y-12727763D01*
X19240492Y-12727763D01*
X19192873Y-12703953D01*
X19169063Y-12680144D01*
X19145254Y-12632525D01*
X19145254Y-12227763D01*
X18930968Y-12275382D02*
X18907158Y-12251573D01*
X18859539Y-12227763D01*
X18740492Y-12227763D01*
X18692873Y-12251573D01*
X18669063Y-12275382D01*
X18645254Y-12323001D01*
X18645254Y-12370620D01*
X18669063Y-12442049D01*
X18954777Y-12727763D01*
X18645254Y-12727763D01*
D11*
X117609994Y-89344643D02*
X117609994Y-90058929D01*
X117657613Y-90201786D01*
X117752851Y-90297024D01*
X117895708Y-90344643D01*
X117990946Y-90344643D01*
X117181422Y-89439882D02*
X117133803Y-89392263D01*
X117038565Y-89344643D01*
X116800470Y-89344643D01*
X116705232Y-89392263D01*
X116657613Y-89439882D01*
X116609994Y-89535120D01*
X116609994Y-89630358D01*
X116657613Y-89773215D01*
X117229041Y-90344643D01*
X116609994Y-90344643D01*
D14*
X15704328Y-13013552D02*
X15466233Y-12846886D01*
X15704328Y-12727838D02*
X15204328Y-12727838D01*
X15204328Y-12918314D01*
X15228138Y-12965933D01*
X15251947Y-12989743D01*
X15299566Y-13013552D01*
X15370995Y-13013552D01*
X15418614Y-12989743D01*
X15442423Y-12965933D01*
X15466233Y-12918314D01*
X15466233Y-12727838D01*
X15204328Y-13180219D02*
X15204328Y-13489743D01*
X15394804Y-13323076D01*
X15394804Y-13394505D01*
X15418614Y-13442124D01*
X15442423Y-13465933D01*
X15490042Y-13489743D01*
X15609090Y-13489743D01*
X15656709Y-13465933D01*
X15680518Y-13442124D01*
X15704328Y-13394505D01*
X15704328Y-13251647D01*
X15680518Y-13204028D01*
X15656709Y-13180219D01*
D11*
X5413333Y-37552380D02*
X5413333Y-38266666D01*
X5460952Y-38409523D01*
X5556190Y-38504761D01*
X5699047Y-38552380D01*
X5794285Y-38552380D01*
X5032380Y-37552380D02*
X4413333Y-37552380D01*
X4746666Y-37933333D01*
X4603809Y-37933333D01*
X4508571Y-37980952D01*
X4460952Y-38028571D01*
X4413333Y-38123809D01*
X4413333Y-38361904D01*
X4460952Y-38457142D01*
X4508571Y-38504761D01*
X4603809Y-38552380D01*
X4889523Y-38552380D01*
X4984761Y-38504761D01*
X5032380Y-38457142D01*
X166472979Y-86629833D02*
X166330122Y-86677452D01*
X166092027Y-86677452D01*
X165996789Y-86629833D01*
X165949170Y-86582214D01*
X165901551Y-86486976D01*
X165901551Y-86391738D01*
X165949170Y-86296500D01*
X165996789Y-86248881D01*
X166092027Y-86201262D01*
X166282503Y-86153643D01*
X166377741Y-86106024D01*
X166425360Y-86058405D01*
X166472979Y-85963167D01*
X166472979Y-85867929D01*
X166425360Y-85772691D01*
X166377741Y-85725072D01*
X166282503Y-85677452D01*
X166044408Y-85677452D01*
X165901551Y-85725072D01*
X165472979Y-86010786D02*
X165472979Y-87010786D01*
X165472979Y-86058405D02*
X165377741Y-86010786D01*
X165187265Y-86010786D01*
X165092027Y-86058405D01*
X165044408Y-86106024D01*
X164996789Y-86201262D01*
X164996789Y-86486976D01*
X165044408Y-86582214D01*
X165092027Y-86629833D01*
X165187265Y-86677452D01*
X165377741Y-86677452D01*
X165472979Y-86629833D01*
X164187265Y-86629833D02*
X164282503Y-86677452D01*
X164472979Y-86677452D01*
X164568217Y-86629833D01*
X164615836Y-86534595D01*
X164615836Y-86153643D01*
X164568217Y-86058405D01*
X164472979Y-86010786D01*
X164282503Y-86010786D01*
X164187265Y-86058405D01*
X164139646Y-86153643D01*
X164139646Y-86248881D01*
X164615836Y-86344119D01*
X163282503Y-86677452D02*
X163282503Y-86153643D01*
X163330122Y-86058405D01*
X163425360Y-86010786D01*
X163615836Y-86010786D01*
X163711075Y-86058405D01*
X163282503Y-86629833D02*
X163377741Y-86677452D01*
X163615836Y-86677452D01*
X163711075Y-86629833D01*
X163758694Y-86534595D01*
X163758694Y-86439357D01*
X163711075Y-86344119D01*
X163615836Y-86296500D01*
X163377741Y-86296500D01*
X163282503Y-86248881D01*
X162806313Y-86677452D02*
X162806313Y-85677452D01*
X162711075Y-86296500D02*
X162425360Y-86677452D01*
X162425360Y-86010786D02*
X162806313Y-86391738D01*
X161615836Y-86629833D02*
X161711075Y-86677452D01*
X161901551Y-86677452D01*
X161996789Y-86629833D01*
X162044408Y-86534595D01*
X162044408Y-86153643D01*
X161996789Y-86058405D01*
X161901551Y-86010786D01*
X161711075Y-86010786D01*
X161615836Y-86058405D01*
X161568217Y-86153643D01*
X161568217Y-86248881D01*
X162044408Y-86344119D01*
X161139646Y-86677452D02*
X161139646Y-86010786D01*
X161139646Y-86201262D02*
X161092027Y-86106024D01*
X161044408Y-86058405D01*
X160949170Y-86010786D01*
X160853932Y-86010786D01*
D10*
X109620925Y-89475521D02*
X109644734Y-89499330D01*
X109716163Y-89523140D01*
X109763782Y-89523140D01*
X109835211Y-89499330D01*
X109882830Y-89451711D01*
X109906639Y-89404092D01*
X109930449Y-89308854D01*
X109930449Y-89237426D01*
X109906639Y-89142188D01*
X109882830Y-89094569D01*
X109835211Y-89046950D01*
X109763782Y-89023140D01*
X109716163Y-89023140D01*
X109644734Y-89046950D01*
X109620925Y-89070759D01*
X109192353Y-89023140D02*
X109287592Y-89023140D01*
X109335211Y-89046950D01*
X109359020Y-89070759D01*
X109406639Y-89142188D01*
X109430449Y-89237426D01*
X109430449Y-89427902D01*
X109406639Y-89475521D01*
X109382830Y-89499330D01*
X109335211Y-89523140D01*
X109239972Y-89523140D01*
X109192353Y-89499330D01*
X109168544Y-89475521D01*
X109144734Y-89427902D01*
X109144734Y-89308854D01*
X109168544Y-89261235D01*
X109192353Y-89237426D01*
X109239972Y-89213616D01*
X109335211Y-89213616D01*
X109382830Y-89237426D01*
X109406639Y-89261235D01*
X109430449Y-89308854D01*
X94142787Y-71616131D02*
X94166596Y-71639940D01*
X94238025Y-71663750D01*
X94285644Y-71663750D01*
X94357073Y-71639940D01*
X94404692Y-71592321D01*
X94428501Y-71544702D01*
X94452311Y-71449464D01*
X94452311Y-71378036D01*
X94428501Y-71282798D01*
X94404692Y-71235179D01*
X94357073Y-71187560D01*
X94285644Y-71163750D01*
X94238025Y-71163750D01*
X94166596Y-71187560D01*
X94142787Y-71211369D01*
X93976120Y-71163750D02*
X93666596Y-71163750D01*
X93833263Y-71354226D01*
X93761834Y-71354226D01*
X93714215Y-71378036D01*
X93690406Y-71401845D01*
X93666596Y-71449464D01*
X93666596Y-71568512D01*
X93690406Y-71616131D01*
X93714215Y-71639940D01*
X93761834Y-71663750D01*
X93904692Y-71663750D01*
X93952311Y-71639940D01*
X93976120Y-71616131D01*
D11*
X240611139Y-88115698D02*
X239211139Y-88115698D01*
X239211139Y-85715698D02*
X240611139Y-85715698D01*
X240611139Y-88115698D02*
X240611139Y-85715698D01*
X239211139Y-85715698D02*
X239211139Y-88115698D01*
X216798619Y-88115698D02*
X216798619Y-85715698D01*
X215398619Y-85715698D02*
X216798619Y-85715698D01*
X215398619Y-85715698D02*
X215398619Y-88115698D01*
X216798619Y-88115698D02*
X215398619Y-88115698D01*
X209445489Y-85715698D02*
X209445489Y-88115698D01*
X210845489Y-88115698D02*
X210845489Y-85715698D01*
X209445489Y-85715698D02*
X210845489Y-85715698D01*
X210845489Y-88115698D02*
X209445489Y-88115698D01*
X151314189Y-88115698D02*
X149914189Y-88115698D01*
X151314189Y-88115698D02*
X151314189Y-85715698D01*
X149914189Y-85715698D02*
X149914189Y-88115698D01*
X149914189Y-85715698D02*
X151314189Y-85715698D01*
X70351621Y-88115698D02*
X68951621Y-88115698D01*
X68951621Y-85715698D02*
X70351621Y-85715698D01*
X68951621Y-85715698D02*
X68951621Y-88115698D01*
X70351621Y-88115698D02*
X70351621Y-85715698D01*
X269186163Y-69065682D02*
X269186163Y-66665682D01*
X267786163Y-66665682D02*
X269186163Y-66665682D01*
X269186163Y-69065682D02*
X267786163Y-69065682D01*
X267786163Y-66665682D02*
X267786163Y-69065682D01*
X242992391Y-69065682D02*
X241592391Y-69065682D01*
X242992391Y-69065682D02*
X242992391Y-66665682D01*
X241592391Y-66665682D02*
X241592391Y-69065682D01*
X241592391Y-66665682D02*
X242992391Y-66665682D01*
X215398619Y-66665682D02*
X216798619Y-66665682D01*
X216798619Y-69065682D02*
X216798619Y-66665682D01*
X215398619Y-66665682D02*
X215398619Y-69065682D01*
X216798619Y-69065682D02*
X215398619Y-69065682D01*
X197748603Y-69065682D02*
X197748603Y-66665682D01*
X196348603Y-66665682D02*
X196348603Y-69065682D01*
X196348603Y-66665682D02*
X197748603Y-66665682D01*
X197748603Y-69065682D02*
X196348603Y-69065682D01*
X140598555Y-69065682D02*
X140598555Y-66665682D01*
X139198555Y-66665682D02*
X139198555Y-69065682D01*
X139198555Y-66665682D02*
X140598555Y-66665682D01*
X140598555Y-69065682D02*
X139198555Y-69065682D01*
X101098523Y-66665682D02*
X101098523Y-69065682D01*
X101098523Y-66665682D02*
X102498523Y-66665682D01*
X102498523Y-69065682D02*
X101098523Y-69065682D01*
X102498523Y-69065682D02*
X102498523Y-66665682D01*
X82048507Y-66665682D02*
X82048507Y-69065682D01*
X82048507Y-66665682D02*
X83448507Y-66665682D01*
X83448507Y-69065682D02*
X83448507Y-66665682D01*
X83448507Y-69065682D02*
X82048507Y-69065682D01*
X220161123Y-28565650D02*
X221561123Y-28565650D01*
X221561123Y-30965650D02*
X221561123Y-28565650D01*
X220161123Y-28565650D02*
X220161123Y-30965650D01*
X221561123Y-30965650D02*
X220161123Y-30965650D01*
X224923627Y-47615666D02*
X224923627Y-50015666D01*
X224923627Y-47615666D02*
X226323627Y-47615666D01*
X226323627Y-50015666D02*
X224923627Y-50015666D01*
X226323627Y-50015666D02*
X226323627Y-47615666D01*
X48710979Y-28565650D02*
X50110979Y-28565650D01*
X48710979Y-28565650D02*
X48710979Y-30965650D01*
X50110979Y-30965650D02*
X48710979Y-30965650D01*
X50110979Y-30965650D02*
X50110979Y-28565650D01*
X183461091Y-30965650D02*
X182061091Y-30965650D01*
X182061091Y-28565650D02*
X182061091Y-30965650D01*
X182061091Y-28565650D02*
X183461091Y-28565650D01*
X183461091Y-30965650D02*
X183461091Y-28565650D01*
X205873611Y-47615666D02*
X207273611Y-47615666D01*
X207273611Y-50015666D02*
X205873611Y-50015666D01*
X207273611Y-50015666D02*
X207273611Y-47615666D01*
X205873611Y-47615666D02*
X205873611Y-50015666D01*
X112023531Y-50015666D02*
X110623531Y-50015666D01*
X110623531Y-47615666D02*
X110623531Y-50015666D01*
X110623531Y-47615666D02*
X112023531Y-47615666D01*
X112023531Y-50015666D02*
X112023531Y-47615666D01*
X25107833Y-50015666D02*
X23707833Y-50015666D01*
X23707833Y-47615666D02*
X23707833Y-50015666D01*
X25107833Y-50015666D02*
X25107833Y-47615666D01*
X23707833Y-47615666D02*
X25107833Y-47615666D01*
X186823595Y-47615666D02*
X186823595Y-50015666D01*
X188223595Y-50015666D02*
X186823595Y-50015666D01*
X188223595Y-50015666D02*
X188223595Y-47615666D01*
X186823595Y-47615666D02*
X188223595Y-47615666D01*
X145151685Y-47615666D02*
X145151685Y-50015666D01*
X146551685Y-50015666D02*
X145151685Y-50015666D01*
X145151685Y-47615666D02*
X146551685Y-47615666D01*
X146551685Y-50015666D02*
X146551685Y-47615666D01*
X51301605Y-50015666D02*
X51301605Y-47615666D01*
X49901605Y-47615666D02*
X51301605Y-47615666D01*
X51301605Y-50015666D02*
X49901605Y-50015666D01*
X49901605Y-47615666D02*
X49901605Y-50015666D01*
X72523499Y-47615666D02*
X72523499Y-50015666D01*
X72523499Y-47615666D02*
X73923499Y-47615666D01*
X73923499Y-50015666D02*
X73923499Y-47615666D01*
X73923499Y-50015666D02*
X72523499Y-50015666D01*
X105861027Y-28565650D02*
X107261027Y-28565650D01*
X107261027Y-30965650D02*
X105861027Y-30965650D01*
X107261027Y-30965650D02*
X107261027Y-28565650D01*
X105861027Y-28565650D02*
X105861027Y-30965650D01*
X201111107Y-28565650D02*
X201111107Y-30965650D01*
X202511107Y-30965650D02*
X201111107Y-30965650D01*
X202511107Y-30965650D02*
X202511107Y-28565650D01*
X201111107Y-28565650D02*
X202511107Y-28565650D01*
X124911043Y-28565650D02*
X126311043Y-28565650D01*
X126311043Y-30965650D02*
X124911043Y-30965650D01*
X124911043Y-28565650D02*
X124911043Y-30965650D01*
X126311043Y-30965650D02*
X126311043Y-28565650D01*
X164411075Y-30965650D02*
X163011075Y-30965650D01*
X163011075Y-28565650D02*
X163011075Y-30965650D01*
X163011075Y-28565650D02*
X164411075Y-28565650D01*
X164411075Y-30965650D02*
X164411075Y-28565650D01*
X243973643Y-47615666D02*
X243973643Y-50015666D01*
X245373643Y-50015666D02*
X245373643Y-47615666D01*
X243973643Y-47615666D02*
X245373643Y-47615666D01*
X245373643Y-50015666D02*
X243973643Y-50015666D01*
X150123563Y-50015666D02*
X148723563Y-50015666D01*
X148723563Y-47615666D02*
X148723563Y-50015666D01*
X150123563Y-50015666D02*
X150123563Y-47615666D01*
X148723563Y-47615666D02*
X150123563Y-47615666D01*
X92973515Y-50015666D02*
X91573515Y-50015666D01*
X91573515Y-47615666D02*
X92973515Y-47615666D01*
X92973515Y-50015666D02*
X92973515Y-47615666D01*
X91573515Y-47615666D02*
X91573515Y-50015666D01*
X59426613Y-66665682D02*
X60826613Y-66665682D01*
X59426613Y-66665682D02*
X59426613Y-69065682D01*
X60826613Y-69065682D02*
X60826613Y-66665682D01*
X60826613Y-69065682D02*
X59426613Y-69065682D01*
X159648571Y-69065682D02*
X158248571Y-69065682D01*
X158248571Y-66665682D02*
X159648571Y-66665682D01*
X158248571Y-66665682D02*
X158248571Y-69065682D01*
X159648571Y-69065682D02*
X159648571Y-66665682D01*
X272758041Y-50015666D02*
X271358041Y-50015666D01*
X271358041Y-47615666D02*
X272758041Y-47615666D01*
X271358041Y-47615666D02*
X271358041Y-50015666D01*
X272758041Y-50015666D02*
X272758041Y-47615666D01*
X51092231Y-85715698D02*
X52492231Y-85715698D01*
X52492231Y-88115698D02*
X52492231Y-85715698D01*
X51092231Y-85715698D02*
X51092231Y-88115698D01*
X52492231Y-88115698D02*
X51092231Y-88115698D01*
X169173579Y-50015666D02*
X167773579Y-50015666D01*
X169173579Y-50015666D02*
X169173579Y-47615666D01*
X167773579Y-47615666D02*
X169173579Y-47615666D01*
X167773579Y-47615666D02*
X167773579Y-50015666D01*
X88211011Y-30965650D02*
X88211011Y-28565650D01*
X88211011Y-30965650D02*
X86811011Y-30965650D01*
X86811011Y-28565650D02*
X86811011Y-30965650D01*
X86811011Y-28565650D02*
X88211011Y-28565650D01*
X240611139Y-30965650D02*
X239211139Y-30965650D01*
X239211139Y-28565650D02*
X240611139Y-28565650D01*
X240611139Y-30965650D02*
X240611139Y-28565650D01*
X239211139Y-28565650D02*
X239211139Y-30965650D01*
X53473483Y-47615666D02*
X53473483Y-50015666D01*
X54873483Y-50015666D02*
X53473483Y-50015666D01*
X54873483Y-50015666D02*
X54873483Y-47615666D01*
X53473483Y-47615666D02*
X54873483Y-47615666D01*
X143961059Y-28565650D02*
X145361059Y-28565650D01*
X145361059Y-30965650D02*
X145361059Y-28565650D01*
X145361059Y-30965650D02*
X143961059Y-30965650D01*
X143961059Y-28565650D02*
X143961059Y-30965650D01*
X178698587Y-69065682D02*
X178698587Y-66665682D01*
X178698587Y-69065682D02*
X177298587Y-69065682D01*
X177298587Y-66665682D02*
X178698587Y-66665682D01*
X177298587Y-66665682D02*
X177298587Y-69065682D01*
X121548539Y-69065682D02*
X121548539Y-66665682D01*
X121548539Y-69065682D02*
X120148539Y-69065682D01*
X120148539Y-66665682D02*
X121548539Y-66665682D01*
X120148539Y-66665682D02*
X120148539Y-69065682D01*
X69160995Y-30965650D02*
X69160995Y-28565650D01*
X69160995Y-30965650D02*
X67760995Y-30965650D01*
X67760995Y-28565650D02*
X69160995Y-28565650D01*
X67760995Y-28565650D02*
X67760995Y-30965650D01*
X110965714Y-83771942D02*
X110965714Y-74771942D01*
X100965714Y-84771942D02*
X109965714Y-84771942D01*
X109965714Y-84771942D02*
X110965714Y-83771942D01*
X110965714Y-74771942D02*
X100965714Y-74771942D01*
X100965714Y-74771942D02*
X100965714Y-84771942D01*
D15*
X94859454Y-77926629D02*
X94359454Y-77426629D01*
X94859454Y-77926629D02*
X94859454Y-80926629D01*
X94859454Y-80926629D02*
X93259454Y-80926629D01*
X93259454Y-80926629D02*
X93259454Y-77426629D01*
X94359454Y-77426629D02*
X93259454Y-77426629D01*
X32956276Y-48625040D02*
X32956276Y-46625040D01*
X34156276Y-49225040D02*
X33156276Y-49225040D01*
X27756276Y-46025040D02*
X28756276Y-46025040D01*
X33656276Y-45525040D02*
X33656276Y-46025040D01*
X28256276Y-49725040D02*
X28256276Y-49225040D01*
X32656276Y-49725040D02*
X34156276Y-49725040D01*
X27756276Y-49225040D02*
X28756276Y-49225040D01*
X28956276Y-48625040D02*
X29956276Y-49625040D01*
X31956276Y-49625040D02*
X32956276Y-48625040D01*
X28356276Y-46425040D02*
X29756276Y-45025040D01*
X34156276Y-49725040D02*
X34156276Y-49225040D01*
X34156276Y-45525040D02*
X34156276Y-46025040D01*
X29256276Y-49725040D02*
X27756276Y-49725040D01*
X29956276Y-49625040D02*
X31956276Y-49625040D01*
X32156276Y-50225040D02*
X29756276Y-50225040D01*
X29756276Y-50225040D02*
X28356276Y-48825040D01*
X29956276Y-45625040D02*
X28956276Y-46625040D01*
X27756276Y-45525040D02*
X27756276Y-46025040D01*
X31956276Y-45625040D02*
X29956276Y-45625040D01*
X32956276Y-46625040D02*
X31956276Y-45625040D01*
X33656276Y-49725040D02*
X33656276Y-49225040D01*
X32656276Y-45525040D02*
X34156276Y-45525040D01*
X28256276Y-45525040D02*
X28256276Y-46025040D01*
X33556276Y-48825040D02*
X32156276Y-50225040D01*
X33556276Y-46425040D02*
X33556276Y-48825040D01*
X29256276Y-45525040D02*
X27756276Y-45525040D01*
X34156276Y-46025040D02*
X33156276Y-46025040D01*
X27756276Y-49725040D02*
X27756276Y-49225040D01*
X28956276Y-46625040D02*
X28956276Y-48625040D01*
X29756276Y-45025040D02*
X32156276Y-45025040D01*
X32156276Y-45025040D02*
X33556276Y-46425040D01*
X28356276Y-48825040D02*
X28356276Y-46425040D01*
X31956276Y-47625040D02*
G75*
G03*
X31956276Y-47625040I-1000000J0D01*
G01*
X118276661Y-72603499D02*
X116276661Y-72603499D01*
X116276661Y-73843499D02*
X118276661Y-73843499D01*
X118276661Y-73843499D02*
X118276661Y-72603499D01*
X116276661Y-72603499D02*
X116276661Y-73843499D01*
D11*
X173936083Y-11915634D02*
X172536083Y-11915634D01*
X172536083Y-9515634D02*
X172536083Y-11915634D01*
X173936083Y-11915634D02*
X173936083Y-9515634D01*
X172536083Y-9515634D02*
X173936083Y-9515634D01*
X250136147Y-11915634D02*
X250136147Y-9515634D01*
X248736147Y-9515634D02*
X248736147Y-11915634D01*
X250136147Y-11915634D02*
X248736147Y-11915634D01*
X248736147Y-9515634D02*
X250136147Y-9515634D01*
X153486067Y-9515634D02*
X153486067Y-11915634D01*
X154886067Y-11915634D02*
X154886067Y-9515634D01*
X153486067Y-9515634D02*
X154886067Y-9515634D01*
X154886067Y-11915634D02*
X153486067Y-11915634D01*
X229686131Y-9515634D02*
X231086131Y-9515634D01*
X229686131Y-9515634D02*
X229686131Y-11915634D01*
X231086131Y-11915634D02*
X229686131Y-11915634D01*
X231086131Y-11915634D02*
X231086131Y-9515634D01*
X191586099Y-9515634D02*
X191586099Y-11915634D01*
X192986099Y-11915634D02*
X192986099Y-9515634D01*
X191586099Y-9515634D02*
X192986099Y-9515634D01*
X192986099Y-11915634D02*
X191586099Y-11915634D01*
X245164269Y-9515634D02*
X246564269Y-9515634D01*
X245164269Y-9515634D02*
X245164269Y-11915634D01*
X246564269Y-11915634D02*
X245164269Y-11915634D01*
X246564269Y-11915634D02*
X246564269Y-9515634D01*
X46539101Y-30965650D02*
X46539101Y-28565650D01*
X46539101Y-30965650D02*
X45139101Y-30965650D01*
X45139101Y-28565650D02*
X45139101Y-30965650D01*
X45139101Y-28565650D02*
X46539101Y-28565650D01*
X7248443Y-30965650D02*
X7248443Y-28565650D01*
X7248443Y-30965650D02*
X5848443Y-30965650D01*
X5848443Y-28565650D02*
X5848443Y-30965650D01*
X5848443Y-28565650D02*
X7248443Y-28565650D01*
X212036115Y-11915634D02*
X212036115Y-9515634D01*
X212036115Y-11915634D02*
X210636115Y-11915634D01*
X210636115Y-9515634D02*
X212036115Y-9515634D01*
X210636115Y-9515634D02*
X210636115Y-11915634D01*
X115386035Y-9515634D02*
X116786035Y-9515634D01*
X116786035Y-11915634D02*
X116786035Y-9515634D01*
X115386035Y-9515634D02*
X115386035Y-11915634D01*
X116786035Y-11915634D02*
X115386035Y-11915634D01*
X56064109Y-11915634D02*
X54664109Y-11915634D01*
X56064109Y-11915634D02*
X56064109Y-9515634D01*
X54664109Y-9515634D02*
X56064109Y-9515634D01*
X54664109Y-9515634D02*
X54664109Y-11915634D01*
X77286003Y-9515634D02*
X78686003Y-9515634D01*
X78686003Y-11915634D02*
X78686003Y-9515634D01*
X78686003Y-11915634D02*
X77286003Y-11915634D01*
X77286003Y-9515634D02*
X77286003Y-11915634D01*
X134436051Y-9515634D02*
X134436051Y-11915634D01*
X135836051Y-11915634D02*
X134436051Y-11915634D01*
X134436051Y-9515634D02*
X135836051Y-9515634D01*
X135836051Y-11915634D02*
X135836051Y-9515634D01*
X97736019Y-11915634D02*
X97736019Y-9515634D01*
X96336019Y-9515634D02*
X97736019Y-9515634D01*
X97736019Y-11915634D02*
X96336019Y-11915634D01*
X96336019Y-9515634D02*
X96336019Y-11915634D01*
X58235987Y-9515634D02*
X58235987Y-11915634D01*
X58235987Y-9515634D02*
X59635987Y-9515634D01*
X59635987Y-11915634D02*
X59635987Y-9515634D01*
X59635987Y-11915634D02*
X58235987Y-11915634D01*
X234658009Y-88115698D02*
X233258009Y-88115698D01*
X234658009Y-88115698D02*
X234658009Y-85715698D01*
X233258009Y-85715698D02*
X233258009Y-88115698D01*
X233258009Y-85715698D02*
X234658009Y-85715698D01*
D15*
X18479390Y-15668764D02*
X17239390Y-15668764D01*
X18479390Y-17668764D02*
X18479390Y-15668764D01*
X17239390Y-15668764D02*
X17239390Y-17668764D01*
X17239390Y-17668764D02*
X18479390Y-17668764D01*
D11*
X62998491Y-66665682D02*
X62998491Y-69065682D01*
X64398491Y-69065682D02*
X62998491Y-69065682D01*
X62998491Y-66665682D02*
X64398491Y-66665682D01*
X64398491Y-69065682D02*
X64398491Y-66665682D01*
D15*
X118276661Y-82128507D02*
X116276661Y-82128507D01*
X116276661Y-83368507D02*
X118276661Y-83368507D01*
X116276661Y-82128507D02*
X116276661Y-83368507D01*
X118276661Y-83368507D02*
X118276661Y-82128507D01*
X116276661Y-74984751D02*
X116276661Y-76224751D01*
X118276661Y-76224751D02*
X118276661Y-74984751D01*
X116276661Y-76224751D02*
X118276661Y-76224751D01*
X118276661Y-74984751D02*
X116276661Y-74984751D01*
D11*
X41776597Y-69065682D02*
X40376597Y-69065682D01*
X40376597Y-66665682D02*
X40376597Y-69065682D01*
X40376597Y-66665682D02*
X41776597Y-66665682D01*
X41776597Y-69065682D02*
X41776597Y-66665682D01*
X235639261Y-28565650D02*
X237039261Y-28565650D01*
X235639261Y-28565650D02*
X235639261Y-30965650D01*
X237039261Y-30965650D02*
X235639261Y-30965650D01*
X237039261Y-30965650D02*
X237039261Y-28565650D01*
D15*
X16098138Y-16859390D02*
X14858138Y-16859390D01*
X14858138Y-16859390D02*
X14858138Y-18859390D01*
X16098138Y-18859390D02*
X16098138Y-16859390D01*
X14858138Y-18859390D02*
X16098138Y-18859390D01*
D11*
X35614093Y-9515634D02*
X35614093Y-11915634D01*
X35614093Y-9515634D02*
X37014093Y-9515634D01*
X37014093Y-11915634D02*
X35614093Y-11915634D01*
X37014093Y-11915634D02*
X37014093Y-9515634D01*
X45348475Y-69065682D02*
X45348475Y-66665682D01*
X45348475Y-69065682D02*
X43948475Y-69065682D01*
X43948475Y-66665682D02*
X45348475Y-66665682D01*
X43948475Y-66665682D02*
X43948475Y-69065682D01*
D15*
X19620642Y-15668764D02*
X19620642Y-17668764D01*
X20860642Y-15668764D02*
X19620642Y-15668764D01*
X20860642Y-17668764D02*
X20860642Y-15668764D01*
X19620642Y-17668764D02*
X20860642Y-17668764D01*
X93059454Y-86295698D02*
X93059454Y-87535698D01*
X95059454Y-87535698D02*
X95059454Y-86295698D01*
X93059454Y-87535698D02*
X95059454Y-87535698D01*
X95059454Y-86295698D02*
X93059454Y-86295698D01*
X95059454Y-85154446D02*
X95059454Y-83914446D01*
X93059454Y-85154446D02*
X95059454Y-85154446D01*
X93059454Y-83914446D02*
X93059454Y-85154446D01*
X95059454Y-83914446D02*
X93059454Y-83914446D01*
X118276661Y-84509759D02*
X116276661Y-84509759D01*
X116276661Y-84509759D02*
X116276661Y-85749759D01*
X116276661Y-85749759D02*
X118276661Y-85749759D01*
X118276661Y-85749759D02*
X118276661Y-84509759D01*
X22001894Y-14096886D02*
X23241894Y-14096886D01*
X23241894Y-14096886D02*
X23241894Y-12096886D01*
X23241894Y-12096886D02*
X22001894Y-12096886D01*
X22001894Y-12096886D02*
X22001894Y-14096886D01*
D11*
X40585971Y-11915634D02*
X40585971Y-9515634D01*
X39185971Y-9515634D02*
X39185971Y-11915634D01*
X39185971Y-9515634D02*
X40585971Y-9515634D01*
X40585971Y-11915634D02*
X39185971Y-11915634D01*
X45139101Y-85715698D02*
X45139101Y-88115698D01*
X45139101Y-85715698D02*
X46539101Y-85715698D01*
X46539101Y-88115698D02*
X46539101Y-85715698D01*
X46539101Y-88115698D02*
X45139101Y-88115698D01*
D15*
X18150016Y-11601573D02*
X17500016Y-12251573D01*
X17500016Y-13401573D02*
X20600016Y-13401573D01*
X17500016Y-13401573D02*
X17500016Y-12251573D01*
X18150016Y-11601573D02*
X20600016Y-11601573D01*
X20600016Y-13401573D02*
X20600016Y-11601573D01*
X113466661Y-88622263D02*
X113466661Y-92432263D01*
X113466661Y-92432263D02*
X121086661Y-92432263D01*
X114736661Y-87352263D02*
X113466661Y-88622263D01*
X121086661Y-87352263D02*
X114736661Y-87352263D01*
X121086661Y-92432263D02*
X121086661Y-87352263D01*
X16098138Y-12096886D02*
X14858138Y-12096886D01*
X14858138Y-14096886D02*
X16098138Y-14096886D01*
X16098138Y-14096886D02*
X16098138Y-12096886D01*
X14858138Y-12096886D02*
X14858138Y-14096886D01*
X2080000Y-39775000D02*
X2080000Y-35525000D01*
X3580000Y-39067893D02*
X4080000Y-39775000D01*
X8080000Y-39775000D02*
X8080000Y-35525000D01*
X2080000Y-35525000D02*
X8080000Y-35525000D01*
X3080000Y-39775000D02*
X3580000Y-39067893D01*
X2080000Y-39775000D02*
X8080000Y-39775000D01*
X108537592Y-88676950D02*
X108537592Y-89916950D01*
X110537592Y-89916950D02*
X110537592Y-88676950D01*
X108537592Y-89916950D02*
X110537592Y-89916950D01*
X110537592Y-88676950D02*
X108537592Y-88676950D01*
X95059454Y-72057560D02*
X95059454Y-70817560D01*
X93059454Y-72057560D02*
X95059454Y-72057560D01*
X93059454Y-70817560D02*
X93059454Y-72057560D01*
X95059454Y-70817560D02*
X93059454Y-70817560D01*
M02*
