G04 #@! TF.GenerationSoftware,KiCad,Pcbnew,(5.99.0-4079-gfad0916f0)*
G04 #@! TF.CreationDate,2020-11-08T20:09:34-05:00*
G04 #@! TF.ProjectId,plain60-c,706c6169-6e36-4302-9d63-2e6b69636164,rev?*
G04 #@! TF.SameCoordinates,Original*
G04 #@! TF.FileFunction,Soldermask,Bot*
G04 #@! TF.FilePolarity,Negative*
%FSLAX46Y46*%
G04 Gerber Fmt 4.6, Leading zero omitted, Abs format (unit mm)*
G04 Created by KiCad (PCBNEW (5.99.0-4079-gfad0916f0)) date 2020-11-08 20:09:34*
%MOMM*%
%LPD*%
G01*
G04 APERTURE LIST*
G04 Aperture macros list*
%AMRoundRect*
0 Rectangle with rounded corners*
0 $1 Rounding radius*
0 $2 $3 $4 $5 $6 $7 $8 $9 X,Y pos of 4 corners*
0 Add a 4 corners polygon primitive as box body*
4,1,4,$2,$3,$4,$5,$6,$7,$8,$9,$2,$3,0*
0 Add four circle primitives for the rounded corners*
1,1,$1+$1,$2,$3,0*
1,1,$1+$1,$4,$5,0*
1,1,$1+$1,$6,$7,0*
1,1,$1+$1,$8,$9,0*
0 Add four rect primitives between the rounded corners*
20,1,$1+$1,$2,$3,$4,$5,0*
20,1,$1+$1,$4,$5,$6,$7,0*
20,1,$1+$1,$6,$7,$8,$9,0*
20,1,$1+$1,$8,$9,$2,$3,0*%
G04 Aperture macros list end*
%ADD10C,4.089800*%
%ADD11C,1.803800*%
%ADD12C,2.388000*%
%ADD13C,3.150000*%
%ADD14RoundRect,0.051000X0.700000X-0.600000X0.700000X0.600000X-0.700000X0.600000X-0.700000X-0.600000X0*%
%ADD15RoundRect,0.051000X-0.750000X-0.275000X0.750000X-0.275000X0.750000X0.275000X-0.750000X0.275000X0*%
%ADD16RoundRect,0.051000X0.275000X-0.750000X0.275000X0.750000X-0.275000X0.750000X-0.275000X-0.750000X0*%
%ADD17RoundRect,0.051000X-1.000000X0.200000X-1.000000X-0.200000X1.000000X-0.200000X1.000000X0.200000X0*%
%ADD18RoundRect,0.051000X0.850000X0.500000X-0.850000X0.500000X-0.850000X-0.500000X0.850000X-0.500000X0*%
%ADD19RoundRect,0.051000X0.500000X0.650000X-0.500000X0.650000X-0.500000X-0.650000X0.500000X-0.650000X0*%
%ADD20C,2.102000*%
%ADD21RoundRect,0.051000X0.650000X-0.500000X0.650000X0.500000X-0.650000X0.500000X-0.650000X-0.500000X0*%
%ADD22RoundRect,0.051000X0.500000X0.625000X-0.500000X0.625000X-0.500000X-0.625000X0.500000X-0.625000X0*%
%ADD23RoundRect,0.051000X-0.650000X0.500000X-0.650000X-0.500000X0.650000X-0.500000X0.650000X0.500000X0*%
%ADD24RoundRect,0.051000X-0.500000X-0.625000X0.500000X-0.625000X0.500000X0.625000X-0.500000X0.625000X0*%
%ADD25RoundRect,0.051000X-0.500000X-0.650000X0.500000X-0.650000X0.500000X0.650000X-0.500000X0.650000X0*%
%ADD26RoundRect,0.051000X0.300000X0.600000X-0.300000X0.600000X-0.300000X-0.600000X0.300000X-0.600000X0*%
%ADD27O,1.802000X1.802000*%
%ADD28RoundRect,0.051000X-0.850000X0.850000X-0.850000X-0.850000X0.850000X-0.850000X0.850000X0.850000X0*%
%ADD29RoundRect,0.354016X-0.496984X-0.596984X0.496984X-0.596984X0.496984X0.596984X-0.496984X0.596984X0*%
%ADD30RoundRect,0.175500X-0.175500X-0.800500X0.175500X-0.800500X0.175500X0.800500X-0.175500X0.800500X0*%
G04 APERTURE END LIST*
D10*
X76200000Y-28575000D03*
D11*
X81280000Y-28575000D03*
X71120000Y-28575000D03*
D12*
X72390000Y-26035000D03*
X78740000Y-23495000D03*
D10*
X95250000Y-28575000D03*
D11*
X100330000Y-28575000D03*
X90170000Y-28575000D03*
D12*
X91440000Y-26035000D03*
X97790000Y-23495000D03*
D10*
X152400000Y-28575000D03*
D11*
X147320000Y-28575000D03*
X157480000Y-28575000D03*
D12*
X148590000Y-26035000D03*
X154940000Y-23495000D03*
D11*
X166370000Y-28575000D03*
X176530000Y-28575000D03*
D10*
X171450000Y-28575000D03*
D12*
X167640000Y-26035000D03*
X173990000Y-23495000D03*
D11*
X43180000Y-28575000D03*
X33020000Y-28575000D03*
D10*
X38100000Y-28575000D03*
D12*
X34290000Y-26035000D03*
X40640000Y-23495000D03*
D10*
X133350000Y-28575000D03*
D11*
X138430000Y-28575000D03*
X128270000Y-28575000D03*
D12*
X129540000Y-26035000D03*
X135890000Y-23495000D03*
D11*
X119380000Y-28575000D03*
X109220000Y-28575000D03*
D10*
X114300000Y-28575000D03*
D12*
X110490000Y-26035000D03*
X116840000Y-23495000D03*
D10*
X57150000Y-28575000D03*
D11*
X62230000Y-28575000D03*
X52070000Y-28575000D03*
D12*
X53340000Y-26035000D03*
X59690000Y-23495000D03*
D11*
X19367500Y-28575000D03*
X9207500Y-28575000D03*
D10*
X14287500Y-28575000D03*
D12*
X10477500Y-26035000D03*
X16827500Y-23495000D03*
X262890000Y-6985000D03*
X269240000Y-4445000D03*
D11*
X271780000Y-9525000D03*
D10*
X254762000Y-17780000D03*
X278638000Y-17780000D03*
D11*
X261620000Y-9525000D03*
D13*
X278638000Y-2540000D03*
D10*
X266700000Y-9525000D03*
D13*
X254762000Y-2540000D03*
D10*
X142875000Y-9525000D03*
D11*
X137795000Y-9525000D03*
X147955000Y-9525000D03*
D12*
X139065000Y-6985000D03*
X145415000Y-4445000D03*
D10*
X180975000Y-9525000D03*
D11*
X175895000Y-9525000D03*
X186055000Y-9525000D03*
D12*
X177165000Y-6985000D03*
X183515000Y-4445000D03*
D11*
X262255000Y-9525000D03*
X252095000Y-9525000D03*
D10*
X257175000Y-9525000D03*
D12*
X253365000Y-6985000D03*
X259715000Y-4445000D03*
D11*
X90805000Y-9525000D03*
D10*
X85725000Y-9525000D03*
D11*
X80645000Y-9525000D03*
D12*
X81915000Y-6985000D03*
X88265000Y-4445000D03*
D11*
X243205000Y-9525000D03*
D10*
X238125000Y-9525000D03*
D11*
X233045000Y-9525000D03*
D12*
X234315000Y-6985000D03*
X240665000Y-4445000D03*
D11*
X213995000Y-9525000D03*
X224155000Y-9525000D03*
D10*
X219075000Y-9525000D03*
D12*
X215265000Y-6985000D03*
X221615000Y-4445000D03*
D11*
X194945000Y-9525000D03*
D10*
X200025000Y-9525000D03*
D11*
X205105000Y-9525000D03*
D12*
X196215000Y-6985000D03*
X202565000Y-4445000D03*
D10*
X161925000Y-9525000D03*
D11*
X156845000Y-9525000D03*
X167005000Y-9525000D03*
D12*
X158115000Y-6985000D03*
X164465000Y-4445000D03*
D11*
X118745000Y-9525000D03*
D10*
X123825000Y-9525000D03*
D11*
X128905000Y-9525000D03*
D12*
X120015000Y-6985000D03*
X126365000Y-4445000D03*
D11*
X109855000Y-9525000D03*
X99695000Y-9525000D03*
D10*
X104775000Y-9525000D03*
D12*
X100965000Y-6985000D03*
X107315000Y-4445000D03*
D11*
X61595000Y-9525000D03*
D10*
X66675000Y-9525000D03*
D11*
X71755000Y-9525000D03*
D12*
X62865000Y-6985000D03*
X69215000Y-4445000D03*
D10*
X28575000Y-9525000D03*
D11*
X23495000Y-9525000D03*
X33655000Y-9525000D03*
D12*
X24765000Y-6985000D03*
X31115000Y-4445000D03*
D11*
X14605000Y-9525000D03*
X4445000Y-9525000D03*
D10*
X9525000Y-9525000D03*
D12*
X5715000Y-6985000D03*
X12065000Y-4445000D03*
D11*
X52705000Y-9525000D03*
X42545000Y-9525000D03*
D10*
X47625000Y-9525000D03*
D12*
X43815000Y-6985000D03*
X50165000Y-4445000D03*
D11*
X33020000Y-85725000D03*
D10*
X38100000Y-85725000D03*
D11*
X43180000Y-85725000D03*
D12*
X34290000Y-83185000D03*
X40640000Y-80645000D03*
D11*
X207486250Y-85725000D03*
D10*
X202406250Y-85725000D03*
D11*
X197326250Y-85725000D03*
D12*
X198596250Y-83185000D03*
X204946250Y-80645000D03*
D10*
X147637500Y-66675000D03*
D11*
X142557500Y-66675000D03*
X152717500Y-66675000D03*
D12*
X143827500Y-64135000D03*
X150177500Y-61595000D03*
D10*
X250031460Y-66675056D03*
D11*
X255111460Y-66675056D03*
X244951460Y-66675056D03*
D12*
X246221460Y-64135056D03*
X252571460Y-61595056D03*
D10*
X11906250Y-47625000D03*
D11*
X6826250Y-47625000D03*
X16986250Y-47625000D03*
D12*
X8096250Y-45085000D03*
X14446250Y-42545000D03*
D11*
X218757500Y-66675000D03*
X228917500Y-66675000D03*
D10*
X223837500Y-66675000D03*
D12*
X220027500Y-64135000D03*
X226377500Y-61595000D03*
D11*
X161607500Y-66675000D03*
D10*
X166687500Y-66675000D03*
D11*
X171767500Y-66675000D03*
D12*
X162877500Y-64135000D03*
X169227500Y-61595000D03*
D11*
X199707500Y-66675000D03*
D10*
X204787500Y-66675000D03*
D11*
X209867500Y-66675000D03*
D12*
X200977500Y-64135000D03*
X207327500Y-61595000D03*
D11*
X133667500Y-66675000D03*
D10*
X128587500Y-66675000D03*
D11*
X123507500Y-66675000D03*
D12*
X124777500Y-64135000D03*
X131127500Y-61595000D03*
D11*
X180657500Y-66675000D03*
D10*
X185737500Y-66675000D03*
D11*
X190817500Y-66675000D03*
D12*
X181927500Y-64135000D03*
X188277500Y-61595000D03*
D10*
X14287500Y-85725000D03*
D11*
X9207500Y-85725000D03*
X19367500Y-85725000D03*
D12*
X10477500Y-83185000D03*
X16827500Y-80645000D03*
D10*
X11906250Y-66675000D03*
D11*
X16986250Y-66675000D03*
X6826250Y-66675000D03*
D12*
X8096250Y-64135000D03*
X14446250Y-61595000D03*
D11*
X281305000Y-9525000D03*
X271145000Y-9525000D03*
D10*
X276225000Y-9525000D03*
D12*
X272415000Y-6985000D03*
X278765000Y-4445000D03*
D10*
X273843750Y-85725072D03*
D11*
X278923750Y-85725072D03*
X268763750Y-85725072D03*
D12*
X270033750Y-83185072D03*
X276383750Y-80645072D03*
D11*
X244951250Y-85725000D03*
D10*
X250031250Y-85725000D03*
D11*
X255111250Y-85725000D03*
D12*
X246221250Y-83185000D03*
X252571250Y-80645000D03*
D10*
X247650000Y-28575000D03*
D11*
X242570000Y-28575000D03*
X252730000Y-28575000D03*
D12*
X243840000Y-26035000D03*
X250190000Y-23495000D03*
D11*
X57467500Y-66675000D03*
D10*
X52387500Y-66675000D03*
D11*
X47307500Y-66675000D03*
D12*
X48577500Y-64135000D03*
X54927500Y-61595000D03*
D11*
X185420000Y-28575000D03*
D10*
X190500000Y-28575000D03*
D11*
X195580000Y-28575000D03*
D12*
X186690000Y-26035000D03*
X193040000Y-23495000D03*
D11*
X113982500Y-47625000D03*
D10*
X119062500Y-47625000D03*
D11*
X124142500Y-47625000D03*
D12*
X115252500Y-45085000D03*
X121602500Y-42545000D03*
D10*
X61912500Y-47625000D03*
D11*
X56832500Y-47625000D03*
X66992500Y-47625000D03*
D12*
X58102500Y-45085000D03*
X64452500Y-42545000D03*
D10*
X59531250Y-85725000D03*
D11*
X64611250Y-85725000D03*
X54451250Y-85725000D03*
D12*
X55721250Y-83185000D03*
X62071250Y-80645000D03*
D13*
X276256750Y-40640000D03*
X252380750Y-40640000D03*
D10*
X276256750Y-55880000D03*
X252380750Y-55880000D03*
D11*
X269398750Y-47625000D03*
D10*
X264318750Y-47625000D03*
D11*
X259238750Y-47625000D03*
D12*
X260508750Y-45085000D03*
X266858750Y-42545000D03*
D10*
X226218750Y-85725000D03*
D11*
X221138750Y-85725000D03*
X231298750Y-85725000D03*
D12*
X222408750Y-83185000D03*
X228758750Y-80645000D03*
D11*
X281305000Y-66675000D03*
D10*
X276225000Y-66675000D03*
D11*
X271145000Y-66675000D03*
D12*
X272415000Y-64135000D03*
X278765000Y-61595000D03*
D10*
X176212500Y-47625000D03*
D11*
X181292500Y-47625000D03*
X171132500Y-47625000D03*
D12*
X172402500Y-45085000D03*
X178752500Y-42545000D03*
D11*
X6826250Y-85725000D03*
D10*
X11906250Y-85725000D03*
D11*
X16986250Y-85725000D03*
D12*
X8096250Y-83185000D03*
X14446250Y-80645000D03*
D11*
X276542500Y-28575000D03*
X266382500Y-28575000D03*
D10*
X271462500Y-28575000D03*
D12*
X267652500Y-26035000D03*
X274002500Y-23495000D03*
D10*
X228600000Y-28575000D03*
D11*
X233680000Y-28575000D03*
X223520000Y-28575000D03*
D12*
X224790000Y-26035000D03*
X231140000Y-23495000D03*
D11*
X66992500Y-85725000D03*
D10*
X61912500Y-85725000D03*
D11*
X56832500Y-85725000D03*
D12*
X58102500Y-83185000D03*
X64452500Y-80645000D03*
D10*
X90487500Y-66675000D03*
D11*
X95567500Y-66675000D03*
X85407500Y-66675000D03*
D12*
X86677500Y-64135000D03*
X93027500Y-61595000D03*
D10*
X80962500Y-47625000D03*
D11*
X75882500Y-47625000D03*
X86042500Y-47625000D03*
D12*
X77152500Y-45085000D03*
X83502500Y-42545000D03*
D11*
X28257500Y-66675000D03*
X38417500Y-66675000D03*
D10*
X33337500Y-66675000D03*
D12*
X29527500Y-64135000D03*
X35877500Y-61595000D03*
D11*
X247332500Y-47625000D03*
X257492500Y-47625000D03*
D10*
X252412500Y-47625000D03*
D12*
X248602500Y-45085000D03*
X254952500Y-42545000D03*
D11*
X152082500Y-47625000D03*
X162242500Y-47625000D03*
D10*
X157162500Y-47625000D03*
D12*
X153352500Y-45085000D03*
X159702500Y-42545000D03*
D11*
X105092500Y-47625000D03*
D10*
X100012500Y-47625000D03*
D11*
X94932500Y-47625000D03*
D12*
X96202500Y-45085000D03*
X102552500Y-42545000D03*
D11*
X37782500Y-47625000D03*
D10*
X42862500Y-47625000D03*
D11*
X47942500Y-47625000D03*
D12*
X39052500Y-45085000D03*
X45402500Y-42545000D03*
D11*
X200342500Y-47625000D03*
D10*
X195262500Y-47625000D03*
D11*
X190182500Y-47625000D03*
D12*
X191452500Y-45085000D03*
X197802500Y-42545000D03*
D10*
X9493250Y-74930000D03*
D11*
X26511250Y-66675000D03*
D10*
X21431250Y-66675000D03*
D11*
X16351250Y-66675000D03*
D13*
X9493250Y-59690000D03*
D10*
X33369250Y-74930000D03*
D13*
X33369250Y-59690000D03*
D12*
X17621250Y-64135000D03*
X23971250Y-61595000D03*
D10*
X233362500Y-47625000D03*
D11*
X238442500Y-47625000D03*
X228282500Y-47625000D03*
D12*
X229552500Y-45085000D03*
X235902500Y-42545000D03*
D11*
X219392500Y-47625000D03*
X209232500Y-47625000D03*
D10*
X214312500Y-47625000D03*
D12*
X210502500Y-45085000D03*
X216852500Y-42545000D03*
D11*
X214630000Y-28575000D03*
D10*
X209550000Y-28575000D03*
D11*
X204470000Y-28575000D03*
D12*
X205740000Y-26035000D03*
X212090000Y-23495000D03*
D10*
X138112500Y-47625000D03*
D11*
X133032500Y-47625000D03*
X143192500Y-47625000D03*
D12*
X134302500Y-45085000D03*
X140652500Y-42545000D03*
D11*
X21748750Y-47625000D03*
X11588750Y-47625000D03*
D10*
X16668750Y-47625000D03*
D12*
X12858750Y-45085000D03*
X19208750Y-42545000D03*
D11*
X104457500Y-66675000D03*
X114617500Y-66675000D03*
D10*
X109537500Y-66675000D03*
D12*
X105727500Y-64135000D03*
X112077500Y-61595000D03*
D10*
X247650000Y-85725000D03*
D11*
X252730000Y-85725000D03*
X242570000Y-85725000D03*
D12*
X243840000Y-83185000D03*
X250190000Y-80645000D03*
D11*
X30638750Y-85725000D03*
X40798750Y-85725000D03*
D10*
X35718750Y-85725000D03*
D12*
X31908750Y-83185000D03*
X38258750Y-80645000D03*
D11*
X76517500Y-66675000D03*
D10*
X71437500Y-66675000D03*
D11*
X66357500Y-66675000D03*
D12*
X67627500Y-64135000D03*
X73977500Y-61595000D03*
D10*
X223837500Y-85725000D03*
D11*
X228917500Y-85725000D03*
X218757500Y-85725000D03*
D12*
X220027500Y-83185000D03*
X226377500Y-80645000D03*
D11*
X266382728Y-85725072D03*
D10*
X271462728Y-85725072D03*
D11*
X276542728Y-85725072D03*
D12*
X267652728Y-83185072D03*
X274002728Y-80645072D03*
D13*
X247618468Y-59690000D03*
D10*
X247618468Y-74930000D03*
D11*
X264636468Y-66675000D03*
D10*
X259556468Y-66675000D03*
D13*
X271494468Y-59690000D03*
D11*
X254476468Y-66675000D03*
D10*
X271494468Y-74930000D03*
D12*
X255746468Y-64135000D03*
X262096468Y-61595000D03*
D10*
X130968750Y-85725000D03*
D11*
X125888750Y-85725000D03*
X136048750Y-85725000D03*
D12*
X127158750Y-83185000D03*
X133508750Y-80645000D03*
D10*
X80930750Y-77470000D03*
X181006750Y-77470000D03*
D13*
X80930750Y-92710000D03*
X181006750Y-92710000D03*
D11*
X137795000Y-85725000D03*
D10*
X142875000Y-85725000D03*
D11*
X147955000Y-85725000D03*
D12*
X139065000Y-83185000D03*
X145415000Y-80645000D03*
D10*
X200056750Y-77470000D03*
D13*
X200056750Y-92710000D03*
X85693250Y-92710000D03*
D10*
X85693250Y-77470000D03*
D13*
X280828980Y-50038000D03*
D10*
X265588980Y-50038000D03*
X265588980Y-26162000D03*
D11*
X278923980Y-38100000D03*
D13*
X280828980Y-26162000D03*
D10*
X273843980Y-38100000D03*
D11*
X268763980Y-38100000D03*
D12*
X270033980Y-35560000D03*
X276383980Y-33020000D03*
D14*
X239911139Y-85715698D03*
X239911139Y-88115698D03*
X216098619Y-85715698D03*
X216098619Y-88115698D03*
X210145489Y-85715698D03*
X210145489Y-88115698D03*
X150614189Y-85715698D03*
X150614189Y-88115698D03*
X69651621Y-85715698D03*
X69651621Y-88115698D03*
X268486163Y-66665682D03*
X268486163Y-69065682D03*
X242292391Y-66665682D03*
X242292391Y-69065682D03*
X216098619Y-66665682D03*
X216098619Y-69065682D03*
X197048603Y-66665682D03*
X197048603Y-69065682D03*
X139898555Y-66665682D03*
X139898555Y-69065682D03*
X101798523Y-66665682D03*
X101798523Y-69065682D03*
X82748507Y-66665682D03*
X82748507Y-69065682D03*
X220861123Y-28565650D03*
X220861123Y-30965650D03*
X225623627Y-47615666D03*
X225623627Y-50015666D03*
X49410979Y-28565650D03*
X49410979Y-30965650D03*
X182761091Y-28565650D03*
X182761091Y-30965650D03*
X206573611Y-47615666D03*
X206573611Y-50015666D03*
X111323531Y-47615666D03*
X111323531Y-50015666D03*
X24407833Y-47615666D03*
X24407833Y-50015666D03*
X187523595Y-47615666D03*
X187523595Y-50015666D03*
X145851685Y-47615666D03*
X145851685Y-50015666D03*
X50601605Y-47615666D03*
X50601605Y-50015666D03*
X73223499Y-47615666D03*
X73223499Y-50015666D03*
X106561027Y-28565650D03*
X106561027Y-30965650D03*
X201811107Y-28565650D03*
X201811107Y-30965650D03*
X125611043Y-28565650D03*
X125611043Y-30965650D03*
X163711075Y-28565650D03*
X163711075Y-30965650D03*
X244673643Y-47615666D03*
X244673643Y-50015666D03*
X149423563Y-47615666D03*
X149423563Y-50015666D03*
X92273515Y-47615666D03*
X92273515Y-50015666D03*
X60126613Y-66665682D03*
X60126613Y-69065682D03*
X158948571Y-66665682D03*
X158948571Y-69065682D03*
X272058041Y-47615666D03*
X272058041Y-50015666D03*
X51792231Y-85715698D03*
X51792231Y-88115698D03*
X168473579Y-47615666D03*
X168473579Y-50015666D03*
X87511011Y-28565650D03*
X87511011Y-30965650D03*
X239911139Y-28565650D03*
X239911139Y-30965650D03*
X54173483Y-47615666D03*
X54173483Y-50015666D03*
X144661059Y-28565650D03*
X144661059Y-30965650D03*
X177998587Y-66665682D03*
X177998587Y-69065682D03*
X120848539Y-66665682D03*
X120848539Y-69065682D03*
X68460995Y-28565650D03*
X68460995Y-30965650D03*
D15*
X111665714Y-83771942D03*
X111665714Y-82971942D03*
X111665714Y-82171942D03*
X111665714Y-81371942D03*
X111665714Y-80571942D03*
X111665714Y-79771942D03*
X111665714Y-78971942D03*
X111665714Y-78171942D03*
X111665714Y-77371942D03*
X111665714Y-76571942D03*
X111665714Y-75771942D03*
D16*
X109965714Y-74071942D03*
X109165714Y-74071942D03*
X108365714Y-74071942D03*
X107565714Y-74071942D03*
X106765714Y-74071942D03*
X105965714Y-74071942D03*
X105165714Y-74071942D03*
X104365714Y-74071942D03*
X103565714Y-74071942D03*
X102765714Y-74071942D03*
X101965714Y-74071942D03*
D15*
X100265714Y-75771942D03*
X100265714Y-76571942D03*
X100265714Y-77371942D03*
X100265714Y-78171942D03*
X100265714Y-78971942D03*
X100265714Y-79771942D03*
X100265714Y-80571942D03*
X100265714Y-81371942D03*
X100265714Y-82171942D03*
X100265714Y-82971942D03*
X100265714Y-83771942D03*
D16*
X101965714Y-85471942D03*
X102765714Y-85471942D03*
X103565714Y-85471942D03*
X104365714Y-85471942D03*
X105165714Y-85471942D03*
X105965714Y-85471942D03*
X106765714Y-85471942D03*
X107565714Y-85471942D03*
X108365714Y-85471942D03*
X109165714Y-85471942D03*
X109965714Y-85471942D03*
D17*
X94059454Y-79176629D03*
X94059454Y-80376629D03*
X94059454Y-77976629D03*
D18*
X27806276Y-49525040D03*
X34106276Y-49525040D03*
X34106276Y-45725040D03*
X27806276Y-45725040D03*
D19*
X116176661Y-73223499D03*
X118376661Y-73223499D03*
D14*
X173236083Y-9515634D03*
X173236083Y-11915634D03*
X249436147Y-9515634D03*
X249436147Y-11915634D03*
X154186067Y-9515634D03*
X154186067Y-11915634D03*
X230386131Y-9515634D03*
X230386131Y-11915634D03*
X192286099Y-9515634D03*
X192286099Y-11915634D03*
X245864269Y-9515634D03*
X245864269Y-11915634D03*
X45839101Y-28565650D03*
X45839101Y-30965650D03*
X6548443Y-28565650D03*
X6548443Y-30965650D03*
X211336115Y-9515634D03*
X211336115Y-11915634D03*
X116086035Y-9515634D03*
X116086035Y-11915634D03*
X55364109Y-9515634D03*
X55364109Y-11915634D03*
X77986003Y-9515634D03*
X77986003Y-11915634D03*
X135136051Y-9515634D03*
X135136051Y-11915634D03*
X97036019Y-9515634D03*
X97036019Y-11915634D03*
X58935987Y-9515634D03*
X58935987Y-11915634D03*
D20*
X98821958Y-92868828D03*
X101798523Y-92868828D03*
D14*
X233958009Y-85715698D03*
X233958009Y-88115698D03*
D21*
X12700000Y-16510000D03*
X12700000Y-18710000D03*
D14*
X63698491Y-66665682D03*
X63698491Y-69065682D03*
D22*
X116276661Y-82748507D03*
X118276661Y-82748507D03*
X116276661Y-75604751D03*
X118276661Y-75604751D03*
D14*
X41076597Y-66665682D03*
X41076597Y-69065682D03*
X236339261Y-28565650D03*
X236339261Y-30965650D03*
D21*
X8128000Y-16510000D03*
X8128000Y-18710000D03*
D14*
X36314093Y-9515634D03*
X36314093Y-11915634D03*
X44648475Y-66665682D03*
X44648475Y-69065682D03*
D23*
X10414000Y-18710000D03*
X10414000Y-16510000D03*
D22*
X93059454Y-86915698D03*
X95059454Y-86915698D03*
D24*
X95059454Y-84534446D03*
X93059454Y-84534446D03*
D25*
X118376661Y-85129759D03*
X116176661Y-85129759D03*
D14*
X39885971Y-9515634D03*
X39885971Y-11915634D03*
X45839101Y-85715698D03*
X45839101Y-88115698D03*
D26*
X4572000Y-16510000D03*
X3622000Y-16510000D03*
X2672000Y-16510000D03*
X2672000Y-18810000D03*
X3622000Y-18810000D03*
X4572000Y-18810000D03*
D20*
X95845393Y-92868828D03*
D27*
X119816661Y-91162263D03*
X119816661Y-88622263D03*
X117276661Y-91162263D03*
X117276661Y-88622263D03*
X114736661Y-91162263D03*
D28*
X114736661Y-88622263D03*
D29*
X2080000Y-36225000D03*
X8080000Y-36225000D03*
D30*
X6580000Y-40250000D03*
X5580000Y-40250000D03*
X4580000Y-40250000D03*
X3580000Y-40250000D03*
D22*
X108537592Y-89296950D03*
X110537592Y-89296950D03*
D24*
X95059454Y-71437560D03*
X93059454Y-71437560D03*
G36*
X16261087Y-86257122D02*
G01*
X16381278Y-86390606D01*
X16381694Y-86392562D01*
X16380208Y-86393900D01*
X16378977Y-86393771D01*
X16328033Y-86371051D01*
X16259680Y-86381500D01*
X16196563Y-86449607D01*
X16194652Y-86450198D01*
X16193185Y-86448839D01*
X16193217Y-86447564D01*
X16251257Y-86288099D01*
X16257645Y-86258044D01*
X16258983Y-86256558D01*
X16261087Y-86257122D01*
G37*
G36*
X228192337Y-86257122D02*
G01*
X228312528Y-86390606D01*
X228312944Y-86392562D01*
X228311458Y-86393900D01*
X228310227Y-86393771D01*
X228259283Y-86371051D01*
X228190930Y-86381500D01*
X228127813Y-86449607D01*
X228125902Y-86450198D01*
X228124435Y-86448839D01*
X228124467Y-86447564D01*
X228182507Y-86288099D01*
X228188895Y-86258044D01*
X228190233Y-86256558D01*
X228192337Y-86257122D01*
G37*
G36*
X40073587Y-86257122D02*
G01*
X40193778Y-86390606D01*
X40194194Y-86392562D01*
X40192708Y-86393900D01*
X40191477Y-86393771D01*
X40140533Y-86371051D01*
X40072180Y-86381500D01*
X40009063Y-86449607D01*
X40007152Y-86450198D01*
X40005685Y-86448839D01*
X40005717Y-86447564D01*
X40063757Y-86288099D01*
X40070145Y-86258044D01*
X40071483Y-86256558D01*
X40073587Y-86257122D01*
G37*
G36*
X63886087Y-86257122D02*
G01*
X64006278Y-86390606D01*
X64006694Y-86392562D01*
X64005208Y-86393900D01*
X64003977Y-86393771D01*
X63953033Y-86371051D01*
X63884680Y-86381500D01*
X63821563Y-86449607D01*
X63819652Y-86450198D01*
X63818185Y-86448839D01*
X63818217Y-86447564D01*
X63876257Y-86288099D01*
X63882645Y-86258044D01*
X63883983Y-86256558D01*
X63886087Y-86257122D01*
G37*
G36*
X252004837Y-86257122D02*
G01*
X252125028Y-86390606D01*
X252125444Y-86392562D01*
X252123958Y-86393900D01*
X252122727Y-86393771D01*
X252071783Y-86371051D01*
X252003430Y-86381500D01*
X251940313Y-86449607D01*
X251938402Y-86450198D01*
X251936935Y-86448839D01*
X251936967Y-86447564D01*
X251995007Y-86288099D01*
X252001395Y-86258044D01*
X252002733Y-86256558D01*
X252004837Y-86257122D01*
G37*
G36*
X275817381Y-86256989D02*
G01*
X275937650Y-86390561D01*
X275938066Y-86392517D01*
X275936580Y-86393855D01*
X275935349Y-86393726D01*
X275884338Y-86370976D01*
X275815985Y-86381425D01*
X275752866Y-86449533D01*
X275750955Y-86450124D01*
X275749488Y-86448765D01*
X275749520Y-86447490D01*
X275807507Y-86288171D01*
X275813939Y-86257911D01*
X275815277Y-86256425D01*
X275817381Y-86256989D01*
G37*
G36*
X9938303Y-86255430D02*
G01*
X9986559Y-86423716D01*
X9996939Y-86447030D01*
X9996730Y-86449019D01*
X9994903Y-86449832D01*
X9993479Y-86448998D01*
X9958003Y-86398826D01*
X9893891Y-86372911D01*
X9811990Y-86396670D01*
X9810048Y-86396192D01*
X9809947Y-86393411D01*
X9934894Y-86254643D01*
X9936796Y-86254025D01*
X9938303Y-86255430D01*
G37*
G36*
X245682053Y-86255430D02*
G01*
X245730309Y-86423716D01*
X245740689Y-86447030D01*
X245740480Y-86449019D01*
X245738653Y-86449832D01*
X245737229Y-86448998D01*
X245701753Y-86398826D01*
X245637641Y-86372911D01*
X245555740Y-86396670D01*
X245553798Y-86396192D01*
X245553697Y-86393411D01*
X245678644Y-86254643D01*
X245680546Y-86254025D01*
X245682053Y-86255430D01*
G37*
G36*
X33750803Y-86255430D02*
G01*
X33799059Y-86423716D01*
X33809439Y-86447030D01*
X33809230Y-86449019D01*
X33807403Y-86449832D01*
X33805979Y-86448998D01*
X33770503Y-86398826D01*
X33706391Y-86372911D01*
X33624490Y-86396670D01*
X33622548Y-86396192D01*
X33622447Y-86393411D01*
X33747394Y-86254643D01*
X33749296Y-86254025D01*
X33750803Y-86255430D01*
G37*
G36*
X57563303Y-86255430D02*
G01*
X57611559Y-86423716D01*
X57621939Y-86447030D01*
X57621730Y-86449019D01*
X57619903Y-86449832D01*
X57618479Y-86448998D01*
X57583003Y-86398826D01*
X57518891Y-86372911D01*
X57436990Y-86396670D01*
X57435048Y-86396192D01*
X57434947Y-86393411D01*
X57559894Y-86254643D01*
X57561796Y-86254025D01*
X57563303Y-86255430D01*
G37*
G36*
X221869553Y-86255430D02*
G01*
X221917809Y-86423716D01*
X221928189Y-86447030D01*
X221927980Y-86449019D01*
X221926153Y-86449832D01*
X221924729Y-86448998D01*
X221889253Y-86398826D01*
X221825141Y-86372911D01*
X221743240Y-86396670D01*
X221741298Y-86396192D01*
X221741197Y-86393411D01*
X221866144Y-86254643D01*
X221868046Y-86254025D01*
X221869553Y-86255430D01*
G37*
G36*
X269494726Y-86255310D02*
G01*
X269543037Y-86423788D01*
X269553330Y-86446907D01*
X269553121Y-86448896D01*
X269551294Y-86449709D01*
X269549870Y-86448875D01*
X269514433Y-86398758D01*
X269450321Y-86372843D01*
X269368346Y-86396624D01*
X269366404Y-86396146D01*
X269366303Y-86393365D01*
X269491317Y-86254523D01*
X269493219Y-86253905D01*
X269494726Y-86255310D01*
G37*
G36*
X107881374Y-84689435D02*
G01*
X107895166Y-84698651D01*
X107896329Y-84696911D01*
X107898123Y-84696026D01*
X107899274Y-84696487D01*
X107916666Y-84711020D01*
X107985246Y-84719629D01*
X108029090Y-84691452D01*
X108031834Y-84692024D01*
X108036262Y-84698651D01*
X108050054Y-84689435D01*
X108052050Y-84689304D01*
X108053161Y-84690967D01*
X108052828Y-84692209D01*
X108045481Y-84703204D01*
X108041714Y-84722141D01*
X108041714Y-86221743D01*
X108045481Y-86240680D01*
X108052828Y-86251675D01*
X108052959Y-86253671D01*
X108051296Y-86254782D01*
X108050054Y-86254449D01*
X108036262Y-86245233D01*
X108035099Y-86246973D01*
X108033305Y-86247858D01*
X108032154Y-86247397D01*
X108014762Y-86232864D01*
X107946182Y-86224255D01*
X107902338Y-86252432D01*
X107899594Y-86251860D01*
X107895166Y-86245233D01*
X107881374Y-86254449D01*
X107879378Y-86254580D01*
X107878267Y-86252917D01*
X107878600Y-86251675D01*
X107885947Y-86240680D01*
X107889714Y-86221743D01*
X107889714Y-84722141D01*
X107885947Y-84703204D01*
X107878600Y-84692209D01*
X107878469Y-84690213D01*
X107880132Y-84689102D01*
X107881374Y-84689435D01*
G37*
G36*
X103081374Y-84689435D02*
G01*
X103095166Y-84698651D01*
X103096329Y-84696911D01*
X103098123Y-84696026D01*
X103099274Y-84696487D01*
X103116666Y-84711020D01*
X103185246Y-84719629D01*
X103229090Y-84691452D01*
X103231834Y-84692024D01*
X103236262Y-84698651D01*
X103250054Y-84689435D01*
X103252050Y-84689304D01*
X103253161Y-84690967D01*
X103252828Y-84692209D01*
X103245481Y-84703204D01*
X103241714Y-84722141D01*
X103241714Y-86221743D01*
X103245481Y-86240680D01*
X103252828Y-86251675D01*
X103252959Y-86253671D01*
X103251296Y-86254782D01*
X103250054Y-86254449D01*
X103236262Y-86245233D01*
X103235099Y-86246973D01*
X103233305Y-86247858D01*
X103232154Y-86247397D01*
X103214762Y-86232864D01*
X103146182Y-86224255D01*
X103102338Y-86252432D01*
X103099594Y-86251860D01*
X103095166Y-86245233D01*
X103081374Y-86254449D01*
X103079378Y-86254580D01*
X103078267Y-86252917D01*
X103078600Y-86251675D01*
X103085947Y-86240680D01*
X103089714Y-86221743D01*
X103089714Y-84722141D01*
X103085947Y-84703204D01*
X103078600Y-84692209D01*
X103078469Y-84690213D01*
X103080132Y-84689102D01*
X103081374Y-84689435D01*
G37*
G36*
X103881374Y-84689435D02*
G01*
X103895166Y-84698651D01*
X103896329Y-84696911D01*
X103898123Y-84696026D01*
X103899274Y-84696487D01*
X103916666Y-84711020D01*
X103985246Y-84719629D01*
X104029090Y-84691452D01*
X104031834Y-84692024D01*
X104036262Y-84698651D01*
X104050054Y-84689435D01*
X104052050Y-84689304D01*
X104053161Y-84690967D01*
X104052828Y-84692209D01*
X104045481Y-84703204D01*
X104041714Y-84722141D01*
X104041714Y-86221743D01*
X104045481Y-86240680D01*
X104052828Y-86251675D01*
X104052959Y-86253671D01*
X104051296Y-86254782D01*
X104050054Y-86254449D01*
X104036262Y-86245233D01*
X104035099Y-86246973D01*
X104033305Y-86247858D01*
X104032154Y-86247397D01*
X104014762Y-86232864D01*
X103946182Y-86224255D01*
X103902338Y-86252432D01*
X103899594Y-86251860D01*
X103895166Y-86245233D01*
X103881374Y-86254449D01*
X103879378Y-86254580D01*
X103878267Y-86252917D01*
X103878600Y-86251675D01*
X103885947Y-86240680D01*
X103889714Y-86221743D01*
X103889714Y-84722141D01*
X103885947Y-84703204D01*
X103878600Y-84692209D01*
X103878469Y-84690213D01*
X103880132Y-84689102D01*
X103881374Y-84689435D01*
G37*
G36*
X107081374Y-84689435D02*
G01*
X107095166Y-84698651D01*
X107096329Y-84696911D01*
X107098123Y-84696026D01*
X107099274Y-84696487D01*
X107116666Y-84711020D01*
X107185246Y-84719629D01*
X107229090Y-84691452D01*
X107231834Y-84692024D01*
X107236262Y-84698651D01*
X107250054Y-84689435D01*
X107252050Y-84689304D01*
X107253161Y-84690967D01*
X107252828Y-84692209D01*
X107245481Y-84703204D01*
X107241714Y-84722141D01*
X107241714Y-86221743D01*
X107245481Y-86240680D01*
X107252828Y-86251675D01*
X107252959Y-86253671D01*
X107251296Y-86254782D01*
X107250054Y-86254449D01*
X107236262Y-86245233D01*
X107235099Y-86246973D01*
X107233305Y-86247858D01*
X107232154Y-86247397D01*
X107214762Y-86232864D01*
X107146182Y-86224255D01*
X107102338Y-86252432D01*
X107099594Y-86251860D01*
X107095166Y-86245233D01*
X107081374Y-86254449D01*
X107079378Y-86254580D01*
X107078267Y-86252917D01*
X107078600Y-86251675D01*
X107085947Y-86240680D01*
X107089714Y-86221743D01*
X107089714Y-84722141D01*
X107085947Y-84703204D01*
X107078600Y-84692209D01*
X107078469Y-84690213D01*
X107080132Y-84689102D01*
X107081374Y-84689435D01*
G37*
G36*
X102281374Y-84689435D02*
G01*
X102295166Y-84698651D01*
X102296329Y-84696911D01*
X102298123Y-84696026D01*
X102299274Y-84696487D01*
X102316666Y-84711020D01*
X102385246Y-84719629D01*
X102429090Y-84691452D01*
X102431834Y-84692024D01*
X102436262Y-84698651D01*
X102450054Y-84689435D01*
X102452050Y-84689304D01*
X102453161Y-84690967D01*
X102452828Y-84692209D01*
X102445481Y-84703204D01*
X102441714Y-84722141D01*
X102441714Y-86221743D01*
X102445481Y-86240680D01*
X102452828Y-86251675D01*
X102452959Y-86253671D01*
X102451296Y-86254782D01*
X102450054Y-86254449D01*
X102436262Y-86245233D01*
X102435099Y-86246973D01*
X102433305Y-86247858D01*
X102432154Y-86247397D01*
X102414762Y-86232864D01*
X102346182Y-86224255D01*
X102302338Y-86252432D01*
X102299594Y-86251860D01*
X102295166Y-86245233D01*
X102281374Y-86254449D01*
X102279378Y-86254580D01*
X102278267Y-86252917D01*
X102278600Y-86251675D01*
X102285947Y-86240680D01*
X102289714Y-86221743D01*
X102289714Y-84722141D01*
X102285947Y-84703204D01*
X102278600Y-84692209D01*
X102278469Y-84690213D01*
X102280132Y-84689102D01*
X102281374Y-84689435D01*
G37*
G36*
X106281374Y-84689435D02*
G01*
X106295166Y-84698651D01*
X106296329Y-84696911D01*
X106298123Y-84696026D01*
X106299274Y-84696487D01*
X106316666Y-84711020D01*
X106385246Y-84719629D01*
X106429090Y-84691452D01*
X106431834Y-84692024D01*
X106436262Y-84698651D01*
X106450054Y-84689435D01*
X106452050Y-84689304D01*
X106453161Y-84690967D01*
X106452828Y-84692209D01*
X106445481Y-84703204D01*
X106441714Y-84722141D01*
X106441714Y-86221743D01*
X106445481Y-86240680D01*
X106452828Y-86251675D01*
X106452959Y-86253671D01*
X106451296Y-86254782D01*
X106450054Y-86254449D01*
X106436262Y-86245233D01*
X106435099Y-86246973D01*
X106433305Y-86247858D01*
X106432154Y-86247397D01*
X106414762Y-86232864D01*
X106346182Y-86224255D01*
X106302338Y-86252432D01*
X106299594Y-86251860D01*
X106295166Y-86245233D01*
X106281374Y-86254449D01*
X106279378Y-86254580D01*
X106278267Y-86252917D01*
X106278600Y-86251675D01*
X106285947Y-86240680D01*
X106289714Y-86221743D01*
X106289714Y-84722141D01*
X106285947Y-84703204D01*
X106278600Y-84692209D01*
X106278469Y-84690213D01*
X106280132Y-84689102D01*
X106281374Y-84689435D01*
G37*
G36*
X108681374Y-84689435D02*
G01*
X108695166Y-84698651D01*
X108696329Y-84696911D01*
X108698123Y-84696026D01*
X108699274Y-84696487D01*
X108716666Y-84711020D01*
X108785246Y-84719629D01*
X108829090Y-84691452D01*
X108831834Y-84692024D01*
X108836262Y-84698651D01*
X108850054Y-84689435D01*
X108852050Y-84689304D01*
X108853161Y-84690967D01*
X108852828Y-84692209D01*
X108845481Y-84703204D01*
X108841714Y-84722141D01*
X108841714Y-86221743D01*
X108845481Y-86240680D01*
X108852828Y-86251675D01*
X108852959Y-86253671D01*
X108851296Y-86254782D01*
X108850054Y-86254449D01*
X108836262Y-86245233D01*
X108835099Y-86246973D01*
X108833305Y-86247858D01*
X108832154Y-86247397D01*
X108814762Y-86232864D01*
X108746182Y-86224255D01*
X108702338Y-86252432D01*
X108699594Y-86251860D01*
X108695166Y-86245233D01*
X108681374Y-86254449D01*
X108679378Y-86254580D01*
X108678267Y-86252917D01*
X108678600Y-86251675D01*
X108685947Y-86240680D01*
X108689714Y-86221743D01*
X108689714Y-84722141D01*
X108685947Y-84703204D01*
X108678600Y-84692209D01*
X108678469Y-84690213D01*
X108680132Y-84689102D01*
X108681374Y-84689435D01*
G37*
G36*
X109481374Y-84689435D02*
G01*
X109495166Y-84698651D01*
X109496329Y-84696911D01*
X109498123Y-84696026D01*
X109499274Y-84696487D01*
X109516666Y-84711020D01*
X109585246Y-84719629D01*
X109629090Y-84691452D01*
X109631834Y-84692024D01*
X109636262Y-84698651D01*
X109650054Y-84689435D01*
X109652050Y-84689304D01*
X109653161Y-84690967D01*
X109652828Y-84692209D01*
X109645481Y-84703204D01*
X109641714Y-84722141D01*
X109641714Y-86221743D01*
X109645481Y-86240680D01*
X109652828Y-86251675D01*
X109652959Y-86253671D01*
X109651296Y-86254782D01*
X109650054Y-86254449D01*
X109636262Y-86245233D01*
X109635099Y-86246973D01*
X109633305Y-86247858D01*
X109632154Y-86247397D01*
X109614762Y-86232864D01*
X109546182Y-86224255D01*
X109502338Y-86252432D01*
X109499594Y-86251860D01*
X109495166Y-86245233D01*
X109481374Y-86254449D01*
X109479378Y-86254580D01*
X109478267Y-86252917D01*
X109478600Y-86251675D01*
X109485947Y-86240680D01*
X109489714Y-86221743D01*
X109489714Y-84722141D01*
X109485947Y-84703204D01*
X109478600Y-84692209D01*
X109478469Y-84690213D01*
X109480132Y-84689102D01*
X109481374Y-84689435D01*
G37*
G36*
X104681374Y-84689435D02*
G01*
X104695166Y-84698651D01*
X104696329Y-84696911D01*
X104698123Y-84696026D01*
X104699274Y-84696487D01*
X104716666Y-84711020D01*
X104785246Y-84719629D01*
X104829090Y-84691452D01*
X104831834Y-84692024D01*
X104836262Y-84698651D01*
X104850054Y-84689435D01*
X104852050Y-84689304D01*
X104853161Y-84690967D01*
X104852828Y-84692209D01*
X104845481Y-84703204D01*
X104841714Y-84722141D01*
X104841714Y-86221743D01*
X104845481Y-86240680D01*
X104852828Y-86251675D01*
X104852959Y-86253671D01*
X104851296Y-86254782D01*
X104850054Y-86254449D01*
X104836262Y-86245233D01*
X104835099Y-86246973D01*
X104833305Y-86247858D01*
X104832154Y-86247397D01*
X104814762Y-86232864D01*
X104746182Y-86224255D01*
X104702338Y-86252432D01*
X104699594Y-86251860D01*
X104695166Y-86245233D01*
X104681374Y-86254449D01*
X104679378Y-86254580D01*
X104678267Y-86252917D01*
X104678600Y-86251675D01*
X104685947Y-86240680D01*
X104689714Y-86221743D01*
X104689714Y-84722141D01*
X104685947Y-84703204D01*
X104678600Y-84692209D01*
X104678469Y-84690213D01*
X104680132Y-84689102D01*
X104681374Y-84689435D01*
G37*
G36*
X105481374Y-84689435D02*
G01*
X105495166Y-84698651D01*
X105496329Y-84696911D01*
X105498123Y-84696026D01*
X105499274Y-84696487D01*
X105516666Y-84711020D01*
X105585246Y-84719629D01*
X105629090Y-84691452D01*
X105631834Y-84692024D01*
X105636262Y-84698651D01*
X105650054Y-84689435D01*
X105652050Y-84689304D01*
X105653161Y-84690967D01*
X105652828Y-84692209D01*
X105645481Y-84703204D01*
X105641714Y-84722141D01*
X105641714Y-86221743D01*
X105645481Y-86240680D01*
X105652828Y-86251675D01*
X105652959Y-86253671D01*
X105651296Y-86254782D01*
X105650054Y-86254449D01*
X105636262Y-86245233D01*
X105635099Y-86246973D01*
X105633305Y-86247858D01*
X105632154Y-86247397D01*
X105614762Y-86232864D01*
X105546182Y-86224255D01*
X105502338Y-86252432D01*
X105499594Y-86251860D01*
X105495166Y-86245233D01*
X105481374Y-86254449D01*
X105479378Y-86254580D01*
X105478267Y-86252917D01*
X105478600Y-86251675D01*
X105485947Y-86240680D01*
X105489714Y-86221743D01*
X105489714Y-84722141D01*
X105485947Y-84703204D01*
X105478600Y-84692209D01*
X105478469Y-84690213D01*
X105480132Y-84689102D01*
X105481374Y-84689435D01*
G37*
G36*
X136923777Y-85939801D02*
G01*
X136972910Y-86091018D01*
X137053013Y-86229760D01*
X137053013Y-86231760D01*
X137051281Y-86232760D01*
X137049714Y-86232002D01*
X137035829Y-86214483D01*
X137035617Y-86214155D01*
X137030098Y-86203416D01*
X136982163Y-86153015D01*
X136914878Y-86136601D01*
X136849331Y-86159194D01*
X136813515Y-86198821D01*
X136786983Y-86245525D01*
X136786758Y-86245844D01*
X136784555Y-86248396D01*
X136782666Y-86249054D01*
X136781152Y-86247747D01*
X136781309Y-86246089D01*
X136870840Y-86091018D01*
X136919973Y-85939801D01*
X136921459Y-85938463D01*
X136923777Y-85939801D01*
G37*
G36*
X137059441Y-85207678D02*
G01*
X137059294Y-85209362D01*
X136972910Y-85358982D01*
X136923777Y-85510199D01*
X136922291Y-85511537D01*
X136919973Y-85510199D01*
X136870840Y-85358982D01*
X136787599Y-85214805D01*
X136787599Y-85212805D01*
X136789331Y-85211805D01*
X136790881Y-85212541D01*
X136801011Y-85224962D01*
X136801227Y-85225287D01*
X136813570Y-85248502D01*
X136862205Y-85298230D01*
X136929711Y-85313702D01*
X136994939Y-85290196D01*
X137030196Y-85250076D01*
X137049570Y-85214834D01*
X137049791Y-85214511D01*
X137056030Y-85207076D01*
X137057909Y-85206392D01*
X137059441Y-85207678D01*
G37*
G36*
X269551333Y-85006467D02*
G01*
X269551257Y-85007895D01*
X269543036Y-85026359D01*
X269494726Y-85194834D01*
X269493287Y-85196224D01*
X269491317Y-85195621D01*
X269368695Y-85059436D01*
X269368279Y-85057480D01*
X269369765Y-85056142D01*
X269370970Y-85056260D01*
X269423841Y-85078960D01*
X269492045Y-85067558D01*
X269547947Y-85005740D01*
X269549850Y-85005126D01*
X269551333Y-85006467D01*
G37*
G36*
X9994930Y-85006225D02*
G01*
X9994854Y-85007652D01*
X9986559Y-85026284D01*
X9938303Y-85194570D01*
X9936864Y-85195960D01*
X9934894Y-85195357D01*
X9812342Y-85059249D01*
X9811926Y-85057293D01*
X9813412Y-85055955D01*
X9814617Y-85056073D01*
X9867416Y-85078743D01*
X9935620Y-85067341D01*
X9991544Y-85005498D01*
X9993447Y-85004884D01*
X9994930Y-85006225D01*
G37*
G36*
X33807430Y-85006225D02*
G01*
X33807354Y-85007652D01*
X33799059Y-85026284D01*
X33750803Y-85194570D01*
X33749364Y-85195960D01*
X33747394Y-85195357D01*
X33624842Y-85059249D01*
X33624426Y-85057293D01*
X33625912Y-85055955D01*
X33627117Y-85056073D01*
X33679916Y-85078743D01*
X33748120Y-85067341D01*
X33804044Y-85005498D01*
X33805947Y-85004884D01*
X33807430Y-85006225D01*
G37*
G36*
X57619930Y-85006225D02*
G01*
X57619854Y-85007652D01*
X57611559Y-85026284D01*
X57563303Y-85194570D01*
X57561864Y-85195960D01*
X57559894Y-85195357D01*
X57437342Y-85059249D01*
X57436926Y-85057293D01*
X57438412Y-85055955D01*
X57439617Y-85056073D01*
X57492416Y-85078743D01*
X57560620Y-85067341D01*
X57616544Y-85005498D01*
X57618447Y-85004884D01*
X57619930Y-85006225D01*
G37*
G36*
X221926180Y-85006225D02*
G01*
X221926104Y-85007652D01*
X221917809Y-85026284D01*
X221869553Y-85194570D01*
X221868114Y-85195960D01*
X221866144Y-85195357D01*
X221743592Y-85059249D01*
X221743176Y-85057293D01*
X221744662Y-85055955D01*
X221745867Y-85056073D01*
X221798666Y-85078743D01*
X221866870Y-85067341D01*
X221922794Y-85005498D01*
X221924697Y-85004884D01*
X221926180Y-85006225D01*
G37*
G36*
X245738680Y-85006225D02*
G01*
X245738604Y-85007652D01*
X245730309Y-85026284D01*
X245682053Y-85194570D01*
X245680614Y-85195960D01*
X245678644Y-85195357D01*
X245556092Y-85059249D01*
X245555676Y-85057293D01*
X245557162Y-85055955D01*
X245558367Y-85056073D01*
X245611166Y-85078743D01*
X245679370Y-85067341D01*
X245735294Y-85005498D01*
X245737197Y-85004884D01*
X245738680Y-85006225D01*
G37*
G36*
X275718034Y-84904503D02*
G01*
X275721978Y-84912144D01*
X275722086Y-84912393D01*
X275752024Y-84996934D01*
X275792775Y-85053307D01*
X275857154Y-85078548D01*
X275937537Y-85054161D01*
X275939485Y-85054615D01*
X275939604Y-85057413D01*
X275817381Y-85193155D01*
X275815479Y-85193773D01*
X275813939Y-85192233D01*
X275807507Y-85161973D01*
X275714378Y-84906104D01*
X275714725Y-84904134D01*
X275716604Y-84903450D01*
X275718034Y-84904503D01*
G37*
G36*
X228093034Y-84904431D02*
G01*
X228096978Y-84912072D01*
X228097086Y-84912321D01*
X228126973Y-84996719D01*
X228167724Y-85053092D01*
X228232102Y-85078333D01*
X228312420Y-85053966D01*
X228314368Y-85054420D01*
X228314487Y-85057218D01*
X228192337Y-85192878D01*
X228190435Y-85193496D01*
X228188895Y-85191956D01*
X228182507Y-85161901D01*
X228089378Y-84906032D01*
X228089725Y-84904062D01*
X228091604Y-84903378D01*
X228093034Y-84904431D01*
G37*
G36*
X39974284Y-84904431D02*
G01*
X39978228Y-84912072D01*
X39978336Y-84912321D01*
X40008223Y-84996719D01*
X40048974Y-85053092D01*
X40113352Y-85078333D01*
X40193670Y-85053966D01*
X40195618Y-85054420D01*
X40195737Y-85057218D01*
X40073587Y-85192878D01*
X40071685Y-85193496D01*
X40070145Y-85191956D01*
X40063757Y-85161901D01*
X39970628Y-84906032D01*
X39970975Y-84904062D01*
X39972854Y-84903378D01*
X39974284Y-84904431D01*
G37*
G36*
X251905534Y-84904431D02*
G01*
X251909478Y-84912072D01*
X251909586Y-84912321D01*
X251939473Y-84996719D01*
X251980224Y-85053092D01*
X252044602Y-85078333D01*
X252124920Y-85053966D01*
X252126868Y-85054420D01*
X252126987Y-85057218D01*
X252004837Y-85192878D01*
X252002935Y-85193496D01*
X252001395Y-85191956D01*
X251995007Y-85161901D01*
X251901878Y-84906032D01*
X251902225Y-84904062D01*
X251904104Y-84903378D01*
X251905534Y-84904431D01*
G37*
G36*
X63786784Y-84904431D02*
G01*
X63790728Y-84912072D01*
X63790836Y-84912321D01*
X63820723Y-84996719D01*
X63861474Y-85053092D01*
X63925852Y-85078333D01*
X64006170Y-85053966D01*
X64008118Y-85054420D01*
X64008237Y-85057218D01*
X63886087Y-85192878D01*
X63884185Y-85193496D01*
X63882645Y-85191956D01*
X63876257Y-85161901D01*
X63783128Y-84906032D01*
X63783475Y-84904062D01*
X63785354Y-84903378D01*
X63786784Y-84904431D01*
G37*
G36*
X16161784Y-84904431D02*
G01*
X16165728Y-84912072D01*
X16165836Y-84912321D01*
X16195723Y-84996719D01*
X16236474Y-85053092D01*
X16300852Y-85078333D01*
X16381170Y-85053966D01*
X16383118Y-85054420D01*
X16383237Y-85057218D01*
X16261087Y-85192878D01*
X16259185Y-85193496D01*
X16257645Y-85191956D01*
X16251257Y-85161901D01*
X16158128Y-84906032D01*
X16158475Y-84904062D01*
X16160354Y-84903378D01*
X16161784Y-84904431D01*
G37*
G36*
X269878168Y-84366866D02*
G01*
X269935970Y-84369138D01*
X269937661Y-84370205D01*
X269937423Y-84372422D01*
X269815552Y-84517661D01*
X269813673Y-84518345D01*
X269812141Y-84517059D01*
X269812133Y-84515713D01*
X269830161Y-84464337D01*
X269814149Y-84397079D01*
X269739236Y-84339340D01*
X269738475Y-84337491D01*
X269739696Y-84335907D01*
X269740898Y-84335805D01*
X269878168Y-84366866D01*
G37*
G36*
X246065668Y-84366794D02*
G01*
X246123249Y-84369057D01*
X246124940Y-84370124D01*
X246124702Y-84372341D01*
X246002857Y-84517550D01*
X246000978Y-84518234D01*
X245999446Y-84516948D01*
X245999438Y-84515602D01*
X246017470Y-84464215D01*
X246001458Y-84396956D01*
X245926559Y-84339228D01*
X245925798Y-84337379D01*
X245927019Y-84335795D01*
X245928221Y-84335693D01*
X246065668Y-84366794D01*
G37*
G36*
X34134418Y-84366794D02*
G01*
X34191999Y-84369057D01*
X34193690Y-84370124D01*
X34193452Y-84372341D01*
X34071607Y-84517550D01*
X34069728Y-84518234D01*
X34068196Y-84516948D01*
X34068188Y-84515602D01*
X34086220Y-84464215D01*
X34070208Y-84396956D01*
X33995309Y-84339228D01*
X33994548Y-84337379D01*
X33995769Y-84335795D01*
X33996971Y-84335693D01*
X34134418Y-84366794D01*
G37*
G36*
X57946918Y-84366794D02*
G01*
X58004499Y-84369057D01*
X58006190Y-84370124D01*
X58005952Y-84372341D01*
X57884107Y-84517550D01*
X57882228Y-84518234D01*
X57880696Y-84516948D01*
X57880688Y-84515602D01*
X57898720Y-84464215D01*
X57882708Y-84396956D01*
X57807809Y-84339228D01*
X57807048Y-84337379D01*
X57808269Y-84335795D01*
X57809471Y-84335693D01*
X57946918Y-84366794D01*
G37*
G36*
X10321918Y-84366794D02*
G01*
X10379499Y-84369057D01*
X10381190Y-84370124D01*
X10380952Y-84372341D01*
X10259107Y-84517550D01*
X10257228Y-84518234D01*
X10255696Y-84516948D01*
X10255688Y-84515602D01*
X10273720Y-84464215D01*
X10257708Y-84396956D01*
X10182809Y-84339228D01*
X10182048Y-84337379D01*
X10183269Y-84335795D01*
X10184471Y-84335693D01*
X10321918Y-84366794D01*
G37*
G36*
X222253168Y-84366794D02*
G01*
X222310749Y-84369057D01*
X222312440Y-84370124D01*
X222312202Y-84372341D01*
X222190357Y-84517550D01*
X222188478Y-84518234D01*
X222186946Y-84516948D01*
X222186938Y-84515602D01*
X222204970Y-84464215D01*
X222188958Y-84396956D01*
X222114059Y-84339228D01*
X222113298Y-84337379D01*
X222114519Y-84335795D01*
X222115721Y-84335693D01*
X222253168Y-84366794D01*
G37*
G36*
X271173604Y-83529242D02*
G01*
X271174032Y-83531079D01*
X271173836Y-83531810D01*
X271175491Y-83601345D01*
X271214233Y-83658586D01*
X271309036Y-83685812D01*
X271334089Y-83682514D01*
X271334360Y-83682497D01*
X271431392Y-83683005D01*
X271433119Y-83684014D01*
X271433109Y-83686014D01*
X271431452Y-83687004D01*
X271249188Y-83693368D01*
X271098397Y-83719957D01*
X271096518Y-83719273D01*
X271096305Y-83717010D01*
X271122688Y-83669900D01*
X271170206Y-83529918D01*
X271171710Y-83528599D01*
X271173604Y-83529242D01*
G37*
G36*
X35429857Y-83529160D02*
G01*
X35430285Y-83530997D01*
X35430095Y-83531706D01*
X35431751Y-83601242D01*
X35470493Y-83658484D01*
X35565296Y-83685709D01*
X35590112Y-83682442D01*
X35590383Y-83682425D01*
X35687414Y-83682933D01*
X35689141Y-83683942D01*
X35689131Y-83685942D01*
X35687474Y-83686932D01*
X35505210Y-83693296D01*
X35354672Y-83719840D01*
X35352793Y-83719156D01*
X35352580Y-83716893D01*
X35378938Y-83669828D01*
X35426459Y-83529836D01*
X35427963Y-83528517D01*
X35429857Y-83529160D01*
G37*
G36*
X59242357Y-83529160D02*
G01*
X59242785Y-83530997D01*
X59242595Y-83531706D01*
X59244251Y-83601242D01*
X59282993Y-83658484D01*
X59377796Y-83685709D01*
X59402612Y-83682442D01*
X59402883Y-83682425D01*
X59499914Y-83682933D01*
X59501641Y-83683942D01*
X59501631Y-83685942D01*
X59499974Y-83686932D01*
X59317710Y-83693296D01*
X59167172Y-83719840D01*
X59165293Y-83719156D01*
X59165080Y-83716893D01*
X59191438Y-83669828D01*
X59238959Y-83529836D01*
X59240463Y-83528517D01*
X59242357Y-83529160D01*
G37*
G36*
X247361107Y-83529160D02*
G01*
X247361535Y-83530997D01*
X247361345Y-83531706D01*
X247363001Y-83601242D01*
X247401743Y-83658484D01*
X247496546Y-83685709D01*
X247521362Y-83682442D01*
X247521633Y-83682425D01*
X247618664Y-83682933D01*
X247620391Y-83683942D01*
X247620381Y-83685942D01*
X247618724Y-83686932D01*
X247436460Y-83693296D01*
X247285922Y-83719840D01*
X247284043Y-83719156D01*
X247283830Y-83716893D01*
X247310188Y-83669828D01*
X247357709Y-83529836D01*
X247359213Y-83528517D01*
X247361107Y-83529160D01*
G37*
G36*
X223548607Y-83529160D02*
G01*
X223549035Y-83530997D01*
X223548845Y-83531706D01*
X223550501Y-83601242D01*
X223589243Y-83658484D01*
X223684046Y-83685709D01*
X223708862Y-83682442D01*
X223709133Y-83682425D01*
X223806164Y-83682933D01*
X223807891Y-83683942D01*
X223807881Y-83685942D01*
X223806224Y-83686932D01*
X223623960Y-83693296D01*
X223473422Y-83719840D01*
X223471543Y-83719156D01*
X223471330Y-83716893D01*
X223497688Y-83669828D01*
X223545209Y-83529836D01*
X223546713Y-83528517D01*
X223548607Y-83529160D01*
G37*
G36*
X11617357Y-83529160D02*
G01*
X11617785Y-83530997D01*
X11617595Y-83531706D01*
X11619251Y-83601242D01*
X11657993Y-83658484D01*
X11752796Y-83685709D01*
X11777612Y-83682442D01*
X11777883Y-83682425D01*
X11874914Y-83682933D01*
X11876641Y-83683942D01*
X11876631Y-83685942D01*
X11874974Y-83686932D01*
X11692710Y-83693296D01*
X11542172Y-83719840D01*
X11540293Y-83719156D01*
X11540080Y-83716893D01*
X11566438Y-83669828D01*
X11613959Y-83529836D01*
X11615463Y-83528517D01*
X11617357Y-83529160D01*
G37*
G36*
X268846483Y-83232650D02*
G01*
X268847434Y-83234224D01*
X268856434Y-83371545D01*
X268910129Y-83582966D01*
X268958284Y-83687423D01*
X268958101Y-83689414D01*
X268956285Y-83690252D01*
X268954967Y-83689582D01*
X268908868Y-83637227D01*
X268842264Y-83618243D01*
X268775960Y-83638285D01*
X268741887Y-83677606D01*
X268739997Y-83678260D01*
X268738486Y-83676950D01*
X268738631Y-83675319D01*
X268741666Y-83669900D01*
X268811786Y-83463335D01*
X268843096Y-83247391D01*
X268843439Y-83234303D01*
X268844484Y-83232597D01*
X268846483Y-83232650D01*
G37*
G36*
X9290070Y-83230092D02*
G01*
X9291021Y-83231666D01*
X9300184Y-83371473D01*
X9353879Y-83582894D01*
X9401923Y-83687111D01*
X9401740Y-83689102D01*
X9399924Y-83689940D01*
X9398606Y-83689270D01*
X9352504Y-83636911D01*
X9285900Y-83617927D01*
X9219596Y-83637969D01*
X9185587Y-83677216D01*
X9183697Y-83677870D01*
X9182186Y-83676560D01*
X9182331Y-83674929D01*
X9185188Y-83669828D01*
X9255308Y-83463263D01*
X9286618Y-83247319D01*
X9287026Y-83231745D01*
X9288071Y-83230039D01*
X9290070Y-83230092D01*
G37*
G36*
X221221320Y-83230092D02*
G01*
X221222271Y-83231666D01*
X221231434Y-83371473D01*
X221285129Y-83582894D01*
X221333173Y-83687111D01*
X221332990Y-83689102D01*
X221331174Y-83689940D01*
X221329856Y-83689270D01*
X221283754Y-83636911D01*
X221217150Y-83617927D01*
X221150846Y-83637969D01*
X221116837Y-83677216D01*
X221114947Y-83677870D01*
X221113436Y-83676560D01*
X221113581Y-83674929D01*
X221116438Y-83669828D01*
X221186558Y-83463263D01*
X221217868Y-83247319D01*
X221218276Y-83231745D01*
X221219321Y-83230039D01*
X221221320Y-83230092D01*
G37*
G36*
X245033820Y-83230092D02*
G01*
X245034771Y-83231666D01*
X245043934Y-83371473D01*
X245097629Y-83582894D01*
X245145673Y-83687111D01*
X245145490Y-83689102D01*
X245143674Y-83689940D01*
X245142356Y-83689270D01*
X245096254Y-83636911D01*
X245029650Y-83617927D01*
X244963346Y-83637969D01*
X244929337Y-83677216D01*
X244927447Y-83677870D01*
X244925936Y-83676560D01*
X244926081Y-83674929D01*
X244928938Y-83669828D01*
X244999058Y-83463263D01*
X245030368Y-83247319D01*
X245030776Y-83231745D01*
X245031821Y-83230039D01*
X245033820Y-83230092D01*
G37*
G36*
X33102570Y-83230092D02*
G01*
X33103521Y-83231666D01*
X33112684Y-83371473D01*
X33166379Y-83582894D01*
X33214423Y-83687111D01*
X33214240Y-83689102D01*
X33212424Y-83689940D01*
X33211106Y-83689270D01*
X33165004Y-83636911D01*
X33098400Y-83617927D01*
X33032096Y-83637969D01*
X32998087Y-83677216D01*
X32996197Y-83677870D01*
X32994686Y-83676560D01*
X32994831Y-83674929D01*
X32997688Y-83669828D01*
X33067808Y-83463263D01*
X33099118Y-83247319D01*
X33099526Y-83231745D01*
X33100571Y-83230039D01*
X33102570Y-83230092D01*
G37*
G36*
X56915070Y-83230092D02*
G01*
X56916021Y-83231666D01*
X56925184Y-83371473D01*
X56978879Y-83582894D01*
X57026923Y-83687111D01*
X57026740Y-83689102D01*
X57024924Y-83689940D01*
X57023606Y-83689270D01*
X56977504Y-83636911D01*
X56910900Y-83617927D01*
X56844596Y-83637969D01*
X56810587Y-83677216D01*
X56808697Y-83677870D01*
X56807186Y-83676560D01*
X56807331Y-83674929D01*
X56810188Y-83669828D01*
X56880308Y-83463263D01*
X56911618Y-83247319D01*
X56912026Y-83231745D01*
X56913071Y-83230039D01*
X56915070Y-83230092D01*
G37*
G36*
X110885981Y-83284828D02*
G01*
X110896976Y-83292175D01*
X110915913Y-83295942D01*
X112415515Y-83295942D01*
X112434452Y-83292175D01*
X112445447Y-83284828D01*
X112447443Y-83284697D01*
X112448554Y-83286360D01*
X112448221Y-83287602D01*
X112439005Y-83301394D01*
X112440745Y-83302557D01*
X112441630Y-83304351D01*
X112441169Y-83305502D01*
X112426636Y-83322894D01*
X112418027Y-83391474D01*
X112446204Y-83435318D01*
X112445632Y-83438062D01*
X112439005Y-83442490D01*
X112448221Y-83456282D01*
X112448352Y-83458278D01*
X112446689Y-83459389D01*
X112445447Y-83459056D01*
X112434452Y-83451709D01*
X112415515Y-83447942D01*
X110915913Y-83447942D01*
X110896976Y-83451709D01*
X110885981Y-83459056D01*
X110883985Y-83459187D01*
X110882874Y-83457524D01*
X110883207Y-83456282D01*
X110892423Y-83442490D01*
X110890683Y-83441327D01*
X110889798Y-83439533D01*
X110890259Y-83438382D01*
X110904792Y-83420990D01*
X110913401Y-83352410D01*
X110885224Y-83308566D01*
X110885796Y-83305822D01*
X110892423Y-83301394D01*
X110883207Y-83287602D01*
X110883076Y-83285606D01*
X110884739Y-83284495D01*
X110885981Y-83284828D01*
G37*
G36*
X99485981Y-83284828D02*
G01*
X99496976Y-83292175D01*
X99515913Y-83295942D01*
X101015515Y-83295942D01*
X101034452Y-83292175D01*
X101045447Y-83284828D01*
X101047443Y-83284697D01*
X101048554Y-83286360D01*
X101048221Y-83287602D01*
X101039005Y-83301394D01*
X101040745Y-83302557D01*
X101041630Y-83304351D01*
X101041169Y-83305502D01*
X101026636Y-83322894D01*
X101018027Y-83391474D01*
X101046204Y-83435318D01*
X101045632Y-83438062D01*
X101039005Y-83442490D01*
X101048221Y-83456282D01*
X101048352Y-83458278D01*
X101046689Y-83459389D01*
X101045447Y-83459056D01*
X101034452Y-83451709D01*
X101015515Y-83447942D01*
X99515913Y-83447942D01*
X99496976Y-83451709D01*
X99485981Y-83459056D01*
X99483985Y-83459187D01*
X99482874Y-83457524D01*
X99483207Y-83456282D01*
X99492423Y-83442490D01*
X99490683Y-83441327D01*
X99489798Y-83439533D01*
X99490259Y-83438382D01*
X99504792Y-83420990D01*
X99513401Y-83352410D01*
X99485224Y-83308566D01*
X99485796Y-83305822D01*
X99492423Y-83301394D01*
X99483207Y-83287602D01*
X99483076Y-83285606D01*
X99484739Y-83284495D01*
X99485981Y-83284828D01*
G37*
G36*
X32988299Y-82681475D02*
G01*
X33033746Y-82733089D01*
X33100350Y-82752073D01*
X33166654Y-82732031D01*
X33207263Y-82685167D01*
X33209153Y-82684513D01*
X33210664Y-82685823D01*
X33210544Y-82687408D01*
X33188744Y-82728844D01*
X33124056Y-82937171D01*
X33100348Y-83137480D01*
X33099151Y-83139083D01*
X33097165Y-83138848D01*
X33096370Y-83137428D01*
X33080781Y-82967776D01*
X33021570Y-82757830D01*
X32985004Y-82683682D01*
X32985135Y-82681686D01*
X32986929Y-82680801D01*
X32988299Y-82681475D01*
G37*
G36*
X244919549Y-82681475D02*
G01*
X244964996Y-82733089D01*
X245031600Y-82752073D01*
X245097904Y-82732031D01*
X245138513Y-82685167D01*
X245140403Y-82684513D01*
X245141914Y-82685823D01*
X245141794Y-82687408D01*
X245119994Y-82728844D01*
X245055306Y-82937171D01*
X245031598Y-83137480D01*
X245030401Y-83139083D01*
X245028415Y-83138848D01*
X245027620Y-83137428D01*
X245012031Y-82967776D01*
X244952820Y-82757830D01*
X244916254Y-82683682D01*
X244916385Y-82681686D01*
X244918179Y-82680801D01*
X244919549Y-82681475D01*
G37*
G36*
X221107049Y-82681475D02*
G01*
X221152496Y-82733089D01*
X221219100Y-82752073D01*
X221285404Y-82732031D01*
X221326013Y-82685167D01*
X221327903Y-82684513D01*
X221329414Y-82685823D01*
X221329294Y-82687408D01*
X221307494Y-82728844D01*
X221242806Y-82937171D01*
X221219098Y-83137480D01*
X221217901Y-83139083D01*
X221215915Y-83138848D01*
X221215120Y-83137428D01*
X221199531Y-82967776D01*
X221140320Y-82757830D01*
X221103754Y-82683682D01*
X221103885Y-82681686D01*
X221105679Y-82680801D01*
X221107049Y-82681475D01*
G37*
G36*
X56800799Y-82681475D02*
G01*
X56846246Y-82733089D01*
X56912850Y-82752073D01*
X56979154Y-82732031D01*
X57019763Y-82685167D01*
X57021653Y-82684513D01*
X57023164Y-82685823D01*
X57023044Y-82687408D01*
X57001244Y-82728844D01*
X56936556Y-82937171D01*
X56912848Y-83137480D01*
X56911651Y-83139083D01*
X56909665Y-83138848D01*
X56908870Y-83137428D01*
X56893281Y-82967776D01*
X56834070Y-82757830D01*
X56797504Y-82683682D01*
X56797635Y-82681686D01*
X56799429Y-82680801D01*
X56800799Y-82681475D01*
G37*
G36*
X9175799Y-82681475D02*
G01*
X9221246Y-82733089D01*
X9287850Y-82752073D01*
X9354154Y-82732031D01*
X9394763Y-82685167D01*
X9396653Y-82684513D01*
X9398164Y-82685823D01*
X9398044Y-82687408D01*
X9376244Y-82728844D01*
X9311556Y-82937171D01*
X9287848Y-83137480D01*
X9286651Y-83139083D01*
X9284665Y-83138848D01*
X9283870Y-83137428D01*
X9268281Y-82967776D01*
X9209070Y-82757830D01*
X9172504Y-82683682D01*
X9172635Y-82681686D01*
X9174429Y-82680801D01*
X9175799Y-82681475D01*
G37*
G36*
X268732149Y-82681286D02*
G01*
X268777610Y-82732917D01*
X268844214Y-82751901D01*
X268910518Y-82731859D01*
X268951164Y-82684952D01*
X268953054Y-82684298D01*
X268954565Y-82685608D01*
X268954445Y-82687193D01*
X268932494Y-82728916D01*
X268867806Y-82937243D01*
X268844226Y-83136468D01*
X268843029Y-83138071D01*
X268841043Y-83137836D01*
X268840248Y-83136416D01*
X268824759Y-82967848D01*
X268765548Y-82757902D01*
X268728854Y-82683493D01*
X268728985Y-82681497D01*
X268730779Y-82680612D01*
X268732149Y-82681286D01*
G37*
G36*
X110885981Y-82484828D02*
G01*
X110896976Y-82492175D01*
X110915913Y-82495942D01*
X112415515Y-82495942D01*
X112434452Y-82492175D01*
X112445447Y-82484828D01*
X112447443Y-82484697D01*
X112448554Y-82486360D01*
X112448221Y-82487602D01*
X112439005Y-82501394D01*
X112440745Y-82502557D01*
X112441630Y-82504351D01*
X112441169Y-82505502D01*
X112426636Y-82522894D01*
X112418027Y-82591474D01*
X112446204Y-82635318D01*
X112445632Y-82638062D01*
X112439005Y-82642490D01*
X112448221Y-82656282D01*
X112448352Y-82658278D01*
X112446689Y-82659389D01*
X112445447Y-82659056D01*
X112434452Y-82651709D01*
X112415515Y-82647942D01*
X110915913Y-82647942D01*
X110896976Y-82651709D01*
X110885981Y-82659056D01*
X110883985Y-82659187D01*
X110882874Y-82657524D01*
X110883207Y-82656282D01*
X110892423Y-82642490D01*
X110890683Y-82641327D01*
X110889798Y-82639533D01*
X110890259Y-82638382D01*
X110904792Y-82620990D01*
X110913401Y-82552410D01*
X110885224Y-82508566D01*
X110885796Y-82505822D01*
X110892423Y-82501394D01*
X110883207Y-82487602D01*
X110883076Y-82485606D01*
X110884739Y-82484495D01*
X110885981Y-82484828D01*
G37*
G36*
X99485981Y-82484828D02*
G01*
X99496976Y-82492175D01*
X99515913Y-82495942D01*
X101015515Y-82495942D01*
X101034452Y-82492175D01*
X101045447Y-82484828D01*
X101047443Y-82484697D01*
X101048554Y-82486360D01*
X101048221Y-82487602D01*
X101039005Y-82501394D01*
X101040745Y-82502557D01*
X101041630Y-82504351D01*
X101041169Y-82505502D01*
X101026636Y-82522894D01*
X101018027Y-82591474D01*
X101046204Y-82635318D01*
X101045632Y-82638062D01*
X101039005Y-82642490D01*
X101048221Y-82656282D01*
X101048352Y-82658278D01*
X101046689Y-82659389D01*
X101045447Y-82659056D01*
X101034452Y-82651709D01*
X101015515Y-82647942D01*
X99515913Y-82647942D01*
X99496976Y-82651709D01*
X99485981Y-82659056D01*
X99483985Y-82659187D01*
X99482874Y-82657524D01*
X99483207Y-82656282D01*
X99492423Y-82642490D01*
X99490683Y-82641327D01*
X99489798Y-82639533D01*
X99490259Y-82638382D01*
X99504792Y-82620990D01*
X99513401Y-82552410D01*
X99485224Y-82508566D01*
X99485796Y-82505822D01*
X99492423Y-82501394D01*
X99483207Y-82487602D01*
X99483076Y-82485606D01*
X99484739Y-82484495D01*
X99485981Y-82484828D01*
G37*
G36*
X110885981Y-81684828D02*
G01*
X110896976Y-81692175D01*
X110915913Y-81695942D01*
X112415515Y-81695942D01*
X112434452Y-81692175D01*
X112445447Y-81684828D01*
X112447443Y-81684697D01*
X112448554Y-81686360D01*
X112448221Y-81687602D01*
X112439005Y-81701394D01*
X112440745Y-81702557D01*
X112441630Y-81704351D01*
X112441169Y-81705502D01*
X112426636Y-81722894D01*
X112418027Y-81791474D01*
X112446204Y-81835318D01*
X112445632Y-81838062D01*
X112439005Y-81842490D01*
X112448221Y-81856282D01*
X112448352Y-81858278D01*
X112446689Y-81859389D01*
X112445447Y-81859056D01*
X112434452Y-81851709D01*
X112415515Y-81847942D01*
X110915913Y-81847942D01*
X110896976Y-81851709D01*
X110885981Y-81859056D01*
X110883985Y-81859187D01*
X110882874Y-81857524D01*
X110883207Y-81856282D01*
X110892423Y-81842490D01*
X110890683Y-81841327D01*
X110889798Y-81839533D01*
X110890259Y-81838382D01*
X110904792Y-81820990D01*
X110913401Y-81752410D01*
X110885224Y-81708566D01*
X110885796Y-81705822D01*
X110892423Y-81701394D01*
X110883207Y-81687602D01*
X110883076Y-81685606D01*
X110884739Y-81684495D01*
X110885981Y-81684828D01*
G37*
G36*
X99485981Y-81684828D02*
G01*
X99496976Y-81692175D01*
X99515913Y-81695942D01*
X101015515Y-81695942D01*
X101034452Y-81692175D01*
X101045447Y-81684828D01*
X101047443Y-81684697D01*
X101048554Y-81686360D01*
X101048221Y-81687602D01*
X101039005Y-81701394D01*
X101040745Y-81702557D01*
X101041630Y-81704351D01*
X101041169Y-81705502D01*
X101026636Y-81722894D01*
X101018027Y-81791474D01*
X101046204Y-81835318D01*
X101045632Y-81838062D01*
X101039005Y-81842490D01*
X101048221Y-81856282D01*
X101048352Y-81858278D01*
X101046689Y-81859389D01*
X101045447Y-81859056D01*
X101034452Y-81851709D01*
X101015515Y-81847942D01*
X99515913Y-81847942D01*
X99496976Y-81851709D01*
X99485981Y-81859056D01*
X99483985Y-81859187D01*
X99482874Y-81857524D01*
X99483207Y-81856282D01*
X99492423Y-81842490D01*
X99490683Y-81841327D01*
X99489798Y-81839533D01*
X99490259Y-81838382D01*
X99504792Y-81820990D01*
X99513401Y-81752410D01*
X99485224Y-81708566D01*
X99485796Y-81705822D01*
X99492423Y-81701394D01*
X99483207Y-81687602D01*
X99483076Y-81685606D01*
X99484739Y-81684495D01*
X99485981Y-81684828D01*
G37*
G36*
X275196483Y-80692650D02*
G01*
X275197434Y-80694224D01*
X275206434Y-80831545D01*
X275260129Y-81042966D01*
X275308284Y-81147423D01*
X275308101Y-81149414D01*
X275306285Y-81150252D01*
X275304967Y-81149582D01*
X275258868Y-81097227D01*
X275192264Y-81078243D01*
X275125960Y-81098285D01*
X275091887Y-81137606D01*
X275089997Y-81138260D01*
X275088486Y-81136950D01*
X275088631Y-81135319D01*
X275091666Y-81129900D01*
X275161786Y-80923335D01*
X275193096Y-80707391D01*
X275193439Y-80694303D01*
X275194484Y-80692597D01*
X275196483Y-80692650D01*
G37*
G36*
X39452570Y-80690092D02*
G01*
X39453521Y-80691666D01*
X39462684Y-80831473D01*
X39516379Y-81042894D01*
X39564423Y-81147111D01*
X39564240Y-81149102D01*
X39562424Y-81149940D01*
X39561106Y-81149270D01*
X39515004Y-81096911D01*
X39448400Y-81077927D01*
X39382096Y-81097969D01*
X39348087Y-81137216D01*
X39346197Y-81137870D01*
X39344686Y-81136560D01*
X39344831Y-81134929D01*
X39347688Y-81129828D01*
X39417808Y-80923263D01*
X39449118Y-80707319D01*
X39449526Y-80691745D01*
X39450571Y-80690039D01*
X39452570Y-80690092D01*
G37*
G36*
X63265070Y-80690092D02*
G01*
X63266021Y-80691666D01*
X63275184Y-80831473D01*
X63328879Y-81042894D01*
X63376923Y-81147111D01*
X63376740Y-81149102D01*
X63374924Y-81149940D01*
X63373606Y-81149270D01*
X63327504Y-81096911D01*
X63260900Y-81077927D01*
X63194596Y-81097969D01*
X63160587Y-81137216D01*
X63158697Y-81137870D01*
X63157186Y-81136560D01*
X63157331Y-81134929D01*
X63160188Y-81129828D01*
X63230308Y-80923263D01*
X63261618Y-80707319D01*
X63262026Y-80691745D01*
X63263071Y-80690039D01*
X63265070Y-80690092D01*
G37*
G36*
X227571320Y-80690092D02*
G01*
X227572271Y-80691666D01*
X227581434Y-80831473D01*
X227635129Y-81042894D01*
X227683173Y-81147111D01*
X227682990Y-81149102D01*
X227681174Y-81149940D01*
X227679856Y-81149270D01*
X227633754Y-81096911D01*
X227567150Y-81077927D01*
X227500846Y-81097969D01*
X227466837Y-81137216D01*
X227464947Y-81137870D01*
X227463436Y-81136560D01*
X227463581Y-81134929D01*
X227466438Y-81129828D01*
X227536558Y-80923263D01*
X227567868Y-80707319D01*
X227568276Y-80691745D01*
X227569321Y-80690039D01*
X227571320Y-80690092D01*
G37*
G36*
X15640070Y-80690092D02*
G01*
X15641021Y-80691666D01*
X15650184Y-80831473D01*
X15703879Y-81042894D01*
X15751923Y-81147111D01*
X15751740Y-81149102D01*
X15749924Y-81149940D01*
X15748606Y-81149270D01*
X15702504Y-81096911D01*
X15635900Y-81077927D01*
X15569596Y-81097969D01*
X15535587Y-81137216D01*
X15533697Y-81137870D01*
X15532186Y-81136560D01*
X15532331Y-81134929D01*
X15535188Y-81129828D01*
X15605308Y-80923263D01*
X15636618Y-80707319D01*
X15637026Y-80691745D01*
X15638071Y-80690039D01*
X15640070Y-80690092D01*
G37*
G36*
X251383820Y-80690092D02*
G01*
X251384771Y-80691666D01*
X251393934Y-80831473D01*
X251447629Y-81042894D01*
X251495673Y-81147111D01*
X251495490Y-81149102D01*
X251493674Y-81149940D01*
X251492356Y-81149270D01*
X251446254Y-81096911D01*
X251379650Y-81077927D01*
X251313346Y-81097969D01*
X251279337Y-81137216D01*
X251277447Y-81137870D01*
X251275936Y-81136560D01*
X251276081Y-81134929D01*
X251278938Y-81129828D01*
X251349058Y-80923263D01*
X251380368Y-80707319D01*
X251380776Y-80691745D01*
X251381821Y-80690039D01*
X251383820Y-80690092D01*
G37*
G36*
X99485981Y-80884828D02*
G01*
X99496976Y-80892175D01*
X99515913Y-80895942D01*
X101015515Y-80895942D01*
X101034452Y-80892175D01*
X101045447Y-80884828D01*
X101047443Y-80884697D01*
X101048554Y-80886360D01*
X101048221Y-80887602D01*
X101039005Y-80901394D01*
X101040745Y-80902557D01*
X101041630Y-80904351D01*
X101041169Y-80905502D01*
X101026636Y-80922894D01*
X101018027Y-80991474D01*
X101046204Y-81035318D01*
X101045632Y-81038062D01*
X101039005Y-81042490D01*
X101048221Y-81056282D01*
X101048352Y-81058278D01*
X101046689Y-81059389D01*
X101045447Y-81059056D01*
X101034452Y-81051709D01*
X101015515Y-81047942D01*
X99515913Y-81047942D01*
X99496976Y-81051709D01*
X99485981Y-81059056D01*
X99483985Y-81059187D01*
X99482874Y-81057524D01*
X99483207Y-81056282D01*
X99492423Y-81042490D01*
X99490683Y-81041327D01*
X99489798Y-81039533D01*
X99490259Y-81038382D01*
X99504792Y-81020990D01*
X99513401Y-80952410D01*
X99485224Y-80908566D01*
X99485796Y-80905822D01*
X99492423Y-80901394D01*
X99483207Y-80887602D01*
X99483076Y-80885606D01*
X99484739Y-80884495D01*
X99485981Y-80884828D01*
G37*
G36*
X110885981Y-80884828D02*
G01*
X110896976Y-80892175D01*
X110915913Y-80895942D01*
X112415515Y-80895942D01*
X112434452Y-80892175D01*
X112445447Y-80884828D01*
X112447443Y-80884697D01*
X112448554Y-80886360D01*
X112448221Y-80887602D01*
X112439005Y-80901394D01*
X112440745Y-80902557D01*
X112441630Y-80904351D01*
X112441169Y-80905502D01*
X112426636Y-80922894D01*
X112418027Y-80991474D01*
X112446204Y-81035318D01*
X112445632Y-81038062D01*
X112439005Y-81042490D01*
X112448221Y-81056282D01*
X112448352Y-81058278D01*
X112446689Y-81059389D01*
X112445447Y-81059056D01*
X112434452Y-81051709D01*
X112415515Y-81047942D01*
X110915913Y-81047942D01*
X110896976Y-81051709D01*
X110885981Y-81059056D01*
X110883985Y-81059187D01*
X110882874Y-81057524D01*
X110883207Y-81056282D01*
X110892423Y-81042490D01*
X110890683Y-81041327D01*
X110889798Y-81039533D01*
X110890259Y-81038382D01*
X110904792Y-81020990D01*
X110913401Y-80952410D01*
X110885224Y-80908566D01*
X110885796Y-80905822D01*
X110892423Y-80901394D01*
X110883207Y-80887602D01*
X110883076Y-80885606D01*
X110884739Y-80884495D01*
X110885981Y-80884828D01*
G37*
G36*
X63150799Y-80141475D02*
G01*
X63196246Y-80193089D01*
X63262850Y-80212073D01*
X63329154Y-80192031D01*
X63369763Y-80145167D01*
X63371653Y-80144513D01*
X63373164Y-80145823D01*
X63373044Y-80147408D01*
X63351244Y-80188844D01*
X63286556Y-80397171D01*
X63262848Y-80597480D01*
X63261651Y-80599083D01*
X63259665Y-80598848D01*
X63258870Y-80597428D01*
X63243281Y-80427776D01*
X63184070Y-80217830D01*
X63147504Y-80143682D01*
X63147635Y-80141686D01*
X63149429Y-80140801D01*
X63150799Y-80141475D01*
G37*
G36*
X15525799Y-80141475D02*
G01*
X15571246Y-80193089D01*
X15637850Y-80212073D01*
X15704154Y-80192031D01*
X15744763Y-80145167D01*
X15746653Y-80144513D01*
X15748164Y-80145823D01*
X15748044Y-80147408D01*
X15726244Y-80188844D01*
X15661556Y-80397171D01*
X15637848Y-80597480D01*
X15636651Y-80599083D01*
X15634665Y-80598848D01*
X15633870Y-80597428D01*
X15618281Y-80427776D01*
X15559070Y-80217830D01*
X15522504Y-80143682D01*
X15522635Y-80141686D01*
X15524429Y-80140801D01*
X15525799Y-80141475D01*
G37*
G36*
X39338299Y-80141475D02*
G01*
X39383746Y-80193089D01*
X39450350Y-80212073D01*
X39516654Y-80192031D01*
X39557263Y-80145167D01*
X39559153Y-80144513D01*
X39560664Y-80145823D01*
X39560544Y-80147408D01*
X39538744Y-80188844D01*
X39474056Y-80397171D01*
X39450348Y-80597480D01*
X39449151Y-80599083D01*
X39447165Y-80598848D01*
X39446370Y-80597428D01*
X39430781Y-80427776D01*
X39371570Y-80217830D01*
X39335004Y-80143682D01*
X39335135Y-80141686D01*
X39336929Y-80140801D01*
X39338299Y-80141475D01*
G37*
G36*
X251269549Y-80141475D02*
G01*
X251314996Y-80193089D01*
X251381600Y-80212073D01*
X251447904Y-80192031D01*
X251488513Y-80145167D01*
X251490403Y-80144513D01*
X251491914Y-80145823D01*
X251491794Y-80147408D01*
X251469994Y-80188844D01*
X251405306Y-80397171D01*
X251381598Y-80597480D01*
X251380401Y-80599083D01*
X251378415Y-80598848D01*
X251377620Y-80597428D01*
X251362031Y-80427776D01*
X251302820Y-80217830D01*
X251266254Y-80143682D01*
X251266385Y-80141686D01*
X251268179Y-80140801D01*
X251269549Y-80141475D01*
G37*
G36*
X227457049Y-80141475D02*
G01*
X227502496Y-80193089D01*
X227569100Y-80212073D01*
X227635404Y-80192031D01*
X227676013Y-80145167D01*
X227677903Y-80144513D01*
X227679414Y-80145823D01*
X227679294Y-80147408D01*
X227657494Y-80188844D01*
X227592806Y-80397171D01*
X227569098Y-80597480D01*
X227567901Y-80599083D01*
X227565915Y-80598848D01*
X227565120Y-80597428D01*
X227549531Y-80427776D01*
X227490320Y-80217830D01*
X227453754Y-80143682D01*
X227453885Y-80141686D01*
X227455679Y-80140801D01*
X227457049Y-80141475D01*
G37*
G36*
X275082149Y-80141286D02*
G01*
X275127610Y-80192917D01*
X275194214Y-80211901D01*
X275260518Y-80191859D01*
X275301164Y-80144952D01*
X275303054Y-80144298D01*
X275304565Y-80145608D01*
X275304445Y-80147193D01*
X275282494Y-80188916D01*
X275217806Y-80397243D01*
X275194226Y-80596468D01*
X275193029Y-80598071D01*
X275191043Y-80597836D01*
X275190248Y-80596416D01*
X275174759Y-80427848D01*
X275115548Y-80217902D01*
X275078854Y-80143493D01*
X275078985Y-80141497D01*
X275080779Y-80140612D01*
X275082149Y-80141286D01*
G37*
G36*
X110885981Y-80084828D02*
G01*
X110896976Y-80092175D01*
X110915913Y-80095942D01*
X112415515Y-80095942D01*
X112434452Y-80092175D01*
X112445447Y-80084828D01*
X112447443Y-80084697D01*
X112448554Y-80086360D01*
X112448221Y-80087602D01*
X112439005Y-80101394D01*
X112440745Y-80102557D01*
X112441630Y-80104351D01*
X112441169Y-80105502D01*
X112426636Y-80122894D01*
X112418027Y-80191474D01*
X112446204Y-80235318D01*
X112445632Y-80238062D01*
X112439005Y-80242490D01*
X112448221Y-80256282D01*
X112448352Y-80258278D01*
X112446689Y-80259389D01*
X112445447Y-80259056D01*
X112434452Y-80251709D01*
X112415515Y-80247942D01*
X110915913Y-80247942D01*
X110896976Y-80251709D01*
X110885981Y-80259056D01*
X110883985Y-80259187D01*
X110882874Y-80257524D01*
X110883207Y-80256282D01*
X110892423Y-80242490D01*
X110890683Y-80241327D01*
X110889798Y-80239533D01*
X110890259Y-80238382D01*
X110904792Y-80220990D01*
X110913401Y-80152410D01*
X110885224Y-80108566D01*
X110885796Y-80105822D01*
X110892423Y-80101394D01*
X110883207Y-80087602D01*
X110883076Y-80085606D01*
X110884739Y-80084495D01*
X110885981Y-80084828D01*
G37*
G36*
X99485981Y-80084828D02*
G01*
X99496976Y-80092175D01*
X99515913Y-80095942D01*
X101015515Y-80095942D01*
X101034452Y-80092175D01*
X101045447Y-80084828D01*
X101047443Y-80084697D01*
X101048554Y-80086360D01*
X101048221Y-80087602D01*
X101039005Y-80101394D01*
X101040745Y-80102557D01*
X101041630Y-80104351D01*
X101041169Y-80105502D01*
X101026636Y-80122894D01*
X101018027Y-80191474D01*
X101046204Y-80235318D01*
X101045632Y-80238062D01*
X101039005Y-80242490D01*
X101048221Y-80256282D01*
X101048352Y-80258278D01*
X101046689Y-80259389D01*
X101045447Y-80259056D01*
X101034452Y-80251709D01*
X101015515Y-80247942D01*
X99515913Y-80247942D01*
X99496976Y-80251709D01*
X99485981Y-80259056D01*
X99483985Y-80259187D01*
X99482874Y-80257524D01*
X99483207Y-80256282D01*
X99492423Y-80242490D01*
X99490683Y-80241327D01*
X99489798Y-80239533D01*
X99490259Y-80238382D01*
X99504792Y-80220990D01*
X99513401Y-80152410D01*
X99485224Y-80108566D01*
X99485796Y-80105822D01*
X99492423Y-80101394D01*
X99483207Y-80087602D01*
X99483076Y-80085606D01*
X99484739Y-80084495D01*
X99485981Y-80084828D01*
G37*
G36*
X99485981Y-79284828D02*
G01*
X99496976Y-79292175D01*
X99515913Y-79295942D01*
X101015515Y-79295942D01*
X101034452Y-79292175D01*
X101045447Y-79284828D01*
X101047443Y-79284697D01*
X101048554Y-79286360D01*
X101048221Y-79287602D01*
X101039005Y-79301394D01*
X101040745Y-79302557D01*
X101041630Y-79304351D01*
X101041169Y-79305502D01*
X101026636Y-79322894D01*
X101018027Y-79391474D01*
X101046204Y-79435318D01*
X101045632Y-79438062D01*
X101039005Y-79442490D01*
X101048221Y-79456282D01*
X101048352Y-79458278D01*
X101046689Y-79459389D01*
X101045447Y-79459056D01*
X101034452Y-79451709D01*
X101015515Y-79447942D01*
X99515913Y-79447942D01*
X99496976Y-79451709D01*
X99485981Y-79459056D01*
X99483985Y-79459187D01*
X99482874Y-79457524D01*
X99483207Y-79456282D01*
X99492423Y-79442490D01*
X99490683Y-79441327D01*
X99489798Y-79439533D01*
X99490259Y-79438382D01*
X99504792Y-79420990D01*
X99513401Y-79352410D01*
X99485224Y-79308566D01*
X99485796Y-79305822D01*
X99492423Y-79301394D01*
X99483207Y-79287602D01*
X99483076Y-79285606D01*
X99484739Y-79284495D01*
X99485981Y-79284828D01*
G37*
G36*
X110885981Y-79284828D02*
G01*
X110896976Y-79292175D01*
X110915913Y-79295942D01*
X112415515Y-79295942D01*
X112434452Y-79292175D01*
X112445447Y-79284828D01*
X112447443Y-79284697D01*
X112448554Y-79286360D01*
X112448221Y-79287602D01*
X112439005Y-79301394D01*
X112440745Y-79302557D01*
X112441630Y-79304351D01*
X112441169Y-79305502D01*
X112426636Y-79322894D01*
X112418027Y-79391474D01*
X112446204Y-79435318D01*
X112445632Y-79438062D01*
X112439005Y-79442490D01*
X112448221Y-79456282D01*
X112448352Y-79458278D01*
X112446689Y-79459389D01*
X112445447Y-79459056D01*
X112434452Y-79451709D01*
X112415515Y-79447942D01*
X110915913Y-79447942D01*
X110896976Y-79451709D01*
X110885981Y-79459056D01*
X110883985Y-79459187D01*
X110882874Y-79457524D01*
X110883207Y-79456282D01*
X110892423Y-79442490D01*
X110890683Y-79441327D01*
X110889798Y-79439533D01*
X110890259Y-79438382D01*
X110904792Y-79420990D01*
X110913401Y-79352410D01*
X110885224Y-79308566D01*
X110885796Y-79305822D01*
X110892423Y-79301394D01*
X110883207Y-79287602D01*
X110883076Y-79285606D01*
X110884739Y-79284495D01*
X110885981Y-79284828D01*
G37*
G36*
X110885981Y-78484828D02*
G01*
X110896976Y-78492175D01*
X110915913Y-78495942D01*
X112415515Y-78495942D01*
X112434452Y-78492175D01*
X112445447Y-78484828D01*
X112447443Y-78484697D01*
X112448554Y-78486360D01*
X112448221Y-78487602D01*
X112439005Y-78501394D01*
X112440745Y-78502557D01*
X112441630Y-78504351D01*
X112441169Y-78505502D01*
X112426636Y-78522894D01*
X112418027Y-78591474D01*
X112446204Y-78635318D01*
X112445632Y-78638062D01*
X112439005Y-78642490D01*
X112448221Y-78656282D01*
X112448352Y-78658278D01*
X112446689Y-78659389D01*
X112445447Y-78659056D01*
X112434452Y-78651709D01*
X112415515Y-78647942D01*
X110915913Y-78647942D01*
X110896976Y-78651709D01*
X110885981Y-78659056D01*
X110883985Y-78659187D01*
X110882874Y-78657524D01*
X110883207Y-78656282D01*
X110892423Y-78642490D01*
X110890683Y-78641327D01*
X110889798Y-78639533D01*
X110890259Y-78638382D01*
X110904792Y-78620990D01*
X110913401Y-78552410D01*
X110885224Y-78508566D01*
X110885796Y-78505822D01*
X110892423Y-78501394D01*
X110883207Y-78487602D01*
X110883076Y-78485606D01*
X110884739Y-78484495D01*
X110885981Y-78484828D01*
G37*
G36*
X99485981Y-78484828D02*
G01*
X99496976Y-78492175D01*
X99515913Y-78495942D01*
X101015515Y-78495942D01*
X101034452Y-78492175D01*
X101045447Y-78484828D01*
X101047443Y-78484697D01*
X101048554Y-78486360D01*
X101048221Y-78487602D01*
X101039005Y-78501394D01*
X101040745Y-78502557D01*
X101041630Y-78504351D01*
X101041169Y-78505502D01*
X101026636Y-78522894D01*
X101018027Y-78591474D01*
X101046204Y-78635318D01*
X101045632Y-78638062D01*
X101039005Y-78642490D01*
X101048221Y-78656282D01*
X101048352Y-78658278D01*
X101046689Y-78659389D01*
X101045447Y-78659056D01*
X101034452Y-78651709D01*
X101015515Y-78647942D01*
X99515913Y-78647942D01*
X99496976Y-78651709D01*
X99485981Y-78659056D01*
X99483985Y-78659187D01*
X99482874Y-78657524D01*
X99483207Y-78656282D01*
X99492423Y-78642490D01*
X99490683Y-78641327D01*
X99489798Y-78639533D01*
X99490259Y-78638382D01*
X99504792Y-78620990D01*
X99513401Y-78552410D01*
X99485224Y-78508566D01*
X99485796Y-78505822D01*
X99492423Y-78501394D01*
X99483207Y-78487602D01*
X99483076Y-78485606D01*
X99484739Y-78484495D01*
X99485981Y-78484828D01*
G37*
G36*
X110885981Y-77684828D02*
G01*
X110896976Y-77692175D01*
X110915913Y-77695942D01*
X112415515Y-77695942D01*
X112434452Y-77692175D01*
X112445447Y-77684828D01*
X112447443Y-77684697D01*
X112448554Y-77686360D01*
X112448221Y-77687602D01*
X112439005Y-77701394D01*
X112440745Y-77702557D01*
X112441630Y-77704351D01*
X112441169Y-77705502D01*
X112426636Y-77722894D01*
X112418027Y-77791474D01*
X112446204Y-77835318D01*
X112445632Y-77838062D01*
X112439005Y-77842490D01*
X112448221Y-77856282D01*
X112448352Y-77858278D01*
X112446689Y-77859389D01*
X112445447Y-77859056D01*
X112434452Y-77851709D01*
X112415515Y-77847942D01*
X110915913Y-77847942D01*
X110896976Y-77851709D01*
X110885981Y-77859056D01*
X110883985Y-77859187D01*
X110882874Y-77857524D01*
X110883207Y-77856282D01*
X110892423Y-77842490D01*
X110890683Y-77841327D01*
X110889798Y-77839533D01*
X110890259Y-77838382D01*
X110904792Y-77820990D01*
X110913401Y-77752410D01*
X110885224Y-77708566D01*
X110885796Y-77705822D01*
X110892423Y-77701394D01*
X110883207Y-77687602D01*
X110883076Y-77685606D01*
X110884739Y-77684495D01*
X110885981Y-77684828D01*
G37*
G36*
X99485981Y-77684828D02*
G01*
X99496976Y-77692175D01*
X99515913Y-77695942D01*
X101015515Y-77695942D01*
X101034452Y-77692175D01*
X101045447Y-77684828D01*
X101047443Y-77684697D01*
X101048554Y-77686360D01*
X101048221Y-77687602D01*
X101039005Y-77701394D01*
X101040745Y-77702557D01*
X101041630Y-77704351D01*
X101041169Y-77705502D01*
X101026636Y-77722894D01*
X101018027Y-77791474D01*
X101046204Y-77835318D01*
X101045632Y-77838062D01*
X101039005Y-77842490D01*
X101048221Y-77856282D01*
X101048352Y-77858278D01*
X101046689Y-77859389D01*
X101045447Y-77859056D01*
X101034452Y-77851709D01*
X101015515Y-77847942D01*
X99515913Y-77847942D01*
X99496976Y-77851709D01*
X99485981Y-77859056D01*
X99483985Y-77859187D01*
X99482874Y-77857524D01*
X99483207Y-77856282D01*
X99492423Y-77842490D01*
X99490683Y-77841327D01*
X99489798Y-77839533D01*
X99490259Y-77838382D01*
X99504792Y-77820990D01*
X99513401Y-77752410D01*
X99485224Y-77708566D01*
X99485796Y-77705822D01*
X99492423Y-77701394D01*
X99483207Y-77687602D01*
X99483076Y-77685606D01*
X99484739Y-77684495D01*
X99485981Y-77684828D01*
G37*
G36*
X110885981Y-76884828D02*
G01*
X110896976Y-76892175D01*
X110915913Y-76895942D01*
X112415515Y-76895942D01*
X112434452Y-76892175D01*
X112445447Y-76884828D01*
X112447443Y-76884697D01*
X112448554Y-76886360D01*
X112448221Y-76887602D01*
X112439005Y-76901394D01*
X112440745Y-76902557D01*
X112441630Y-76904351D01*
X112441169Y-76905502D01*
X112426636Y-76922894D01*
X112418027Y-76991474D01*
X112446204Y-77035318D01*
X112445632Y-77038062D01*
X112439005Y-77042490D01*
X112448221Y-77056282D01*
X112448352Y-77058278D01*
X112446689Y-77059389D01*
X112445447Y-77059056D01*
X112434452Y-77051709D01*
X112415515Y-77047942D01*
X110915913Y-77047942D01*
X110896976Y-77051709D01*
X110885981Y-77059056D01*
X110883985Y-77059187D01*
X110882874Y-77057524D01*
X110883207Y-77056282D01*
X110892423Y-77042490D01*
X110890683Y-77041327D01*
X110889798Y-77039533D01*
X110890259Y-77038382D01*
X110904792Y-77020990D01*
X110913401Y-76952410D01*
X110885224Y-76908566D01*
X110885796Y-76905822D01*
X110892423Y-76901394D01*
X110883207Y-76887602D01*
X110883076Y-76885606D01*
X110884739Y-76884495D01*
X110885981Y-76884828D01*
G37*
G36*
X99485981Y-76884828D02*
G01*
X99496976Y-76892175D01*
X99515913Y-76895942D01*
X101015515Y-76895942D01*
X101034452Y-76892175D01*
X101045447Y-76884828D01*
X101047443Y-76884697D01*
X101048554Y-76886360D01*
X101048221Y-76887602D01*
X101039005Y-76901394D01*
X101040745Y-76902557D01*
X101041630Y-76904351D01*
X101041169Y-76905502D01*
X101026636Y-76922894D01*
X101018027Y-76991474D01*
X101046204Y-77035318D01*
X101045632Y-77038062D01*
X101039005Y-77042490D01*
X101048221Y-77056282D01*
X101048352Y-77058278D01*
X101046689Y-77059389D01*
X101045447Y-77059056D01*
X101034452Y-77051709D01*
X101015515Y-77047942D01*
X99515913Y-77047942D01*
X99496976Y-77051709D01*
X99485981Y-77059056D01*
X99483985Y-77059187D01*
X99482874Y-77057524D01*
X99483207Y-77056282D01*
X99492423Y-77042490D01*
X99490683Y-77041327D01*
X99489798Y-77039533D01*
X99490259Y-77038382D01*
X99504792Y-77020990D01*
X99513401Y-76952410D01*
X99485224Y-76908566D01*
X99485796Y-76905822D01*
X99492423Y-76901394D01*
X99483207Y-76887602D01*
X99483076Y-76885606D01*
X99484739Y-76884495D01*
X99485981Y-76884828D01*
G37*
G36*
X99485981Y-76084828D02*
G01*
X99496976Y-76092175D01*
X99515913Y-76095942D01*
X101015515Y-76095942D01*
X101034452Y-76092175D01*
X101045447Y-76084828D01*
X101047443Y-76084697D01*
X101048554Y-76086360D01*
X101048221Y-76087602D01*
X101039005Y-76101394D01*
X101040745Y-76102557D01*
X101041630Y-76104351D01*
X101041169Y-76105502D01*
X101026636Y-76122894D01*
X101018027Y-76191474D01*
X101046204Y-76235318D01*
X101045632Y-76238062D01*
X101039005Y-76242490D01*
X101048221Y-76256282D01*
X101048352Y-76258278D01*
X101046689Y-76259389D01*
X101045447Y-76259056D01*
X101034452Y-76251709D01*
X101015515Y-76247942D01*
X99515913Y-76247942D01*
X99496976Y-76251709D01*
X99485981Y-76259056D01*
X99483985Y-76259187D01*
X99482874Y-76257524D01*
X99483207Y-76256282D01*
X99492423Y-76242490D01*
X99490683Y-76241327D01*
X99489798Y-76239533D01*
X99490259Y-76238382D01*
X99504792Y-76220990D01*
X99513401Y-76152410D01*
X99485224Y-76108566D01*
X99485796Y-76105822D01*
X99492423Y-76101394D01*
X99483207Y-76087602D01*
X99483076Y-76085606D01*
X99484739Y-76084495D01*
X99485981Y-76084828D01*
G37*
G36*
X110885981Y-76084828D02*
G01*
X110896976Y-76092175D01*
X110915913Y-76095942D01*
X112415515Y-76095942D01*
X112434452Y-76092175D01*
X112445447Y-76084828D01*
X112447443Y-76084697D01*
X112448554Y-76086360D01*
X112448221Y-76087602D01*
X112439005Y-76101394D01*
X112440745Y-76102557D01*
X112441630Y-76104351D01*
X112441169Y-76105502D01*
X112426636Y-76122894D01*
X112418027Y-76191474D01*
X112446204Y-76235318D01*
X112445632Y-76238062D01*
X112439005Y-76242490D01*
X112448221Y-76256282D01*
X112448352Y-76258278D01*
X112446689Y-76259389D01*
X112445447Y-76259056D01*
X112434452Y-76251709D01*
X112415515Y-76247942D01*
X110915913Y-76247942D01*
X110896976Y-76251709D01*
X110885981Y-76259056D01*
X110883985Y-76259187D01*
X110882874Y-76257524D01*
X110883207Y-76256282D01*
X110892423Y-76242490D01*
X110890683Y-76241327D01*
X110889798Y-76239533D01*
X110890259Y-76238382D01*
X110904792Y-76220990D01*
X110913401Y-76152410D01*
X110885224Y-76108566D01*
X110885796Y-76105822D01*
X110892423Y-76101394D01*
X110883207Y-76087602D01*
X110883076Y-76085606D01*
X110884739Y-76084495D01*
X110885981Y-76084828D01*
G37*
G36*
X105481374Y-73289435D02*
G01*
X105495166Y-73298651D01*
X105496329Y-73296911D01*
X105498123Y-73296026D01*
X105499274Y-73296487D01*
X105516666Y-73311020D01*
X105585246Y-73319629D01*
X105629090Y-73291452D01*
X105631834Y-73292024D01*
X105636262Y-73298651D01*
X105650054Y-73289435D01*
X105652050Y-73289304D01*
X105653161Y-73290967D01*
X105652828Y-73292209D01*
X105645481Y-73303204D01*
X105641714Y-73322141D01*
X105641714Y-74821743D01*
X105645481Y-74840680D01*
X105652828Y-74851675D01*
X105652959Y-74853671D01*
X105651296Y-74854782D01*
X105650054Y-74854449D01*
X105636262Y-74845233D01*
X105635099Y-74846973D01*
X105633305Y-74847858D01*
X105632154Y-74847397D01*
X105614762Y-74832864D01*
X105546182Y-74824255D01*
X105502338Y-74852432D01*
X105499594Y-74851860D01*
X105495166Y-74845233D01*
X105481374Y-74854449D01*
X105479378Y-74854580D01*
X105478267Y-74852917D01*
X105478600Y-74851675D01*
X105485947Y-74840680D01*
X105489714Y-74821743D01*
X105489714Y-73322141D01*
X105485947Y-73303204D01*
X105478600Y-73292209D01*
X105478469Y-73290213D01*
X105480132Y-73289102D01*
X105481374Y-73289435D01*
G37*
G36*
X102281374Y-73289435D02*
G01*
X102295166Y-73298651D01*
X102296329Y-73296911D01*
X102298123Y-73296026D01*
X102299274Y-73296487D01*
X102316666Y-73311020D01*
X102385246Y-73319629D01*
X102429090Y-73291452D01*
X102431834Y-73292024D01*
X102436262Y-73298651D01*
X102450054Y-73289435D01*
X102452050Y-73289304D01*
X102453161Y-73290967D01*
X102452828Y-73292209D01*
X102445481Y-73303204D01*
X102441714Y-73322141D01*
X102441714Y-74821743D01*
X102445481Y-74840680D01*
X102452828Y-74851675D01*
X102452959Y-74853671D01*
X102451296Y-74854782D01*
X102450054Y-74854449D01*
X102436262Y-74845233D01*
X102435099Y-74846973D01*
X102433305Y-74847858D01*
X102432154Y-74847397D01*
X102414762Y-74832864D01*
X102346182Y-74824255D01*
X102302338Y-74852432D01*
X102299594Y-74851860D01*
X102295166Y-74845233D01*
X102281374Y-74854449D01*
X102279378Y-74854580D01*
X102278267Y-74852917D01*
X102278600Y-74851675D01*
X102285947Y-74840680D01*
X102289714Y-74821743D01*
X102289714Y-73322141D01*
X102285947Y-73303204D01*
X102278600Y-73292209D01*
X102278469Y-73290213D01*
X102280132Y-73289102D01*
X102281374Y-73289435D01*
G37*
G36*
X103881374Y-73289435D02*
G01*
X103895166Y-73298651D01*
X103896329Y-73296911D01*
X103898123Y-73296026D01*
X103899274Y-73296487D01*
X103916666Y-73311020D01*
X103985246Y-73319629D01*
X104029090Y-73291452D01*
X104031834Y-73292024D01*
X104036262Y-73298651D01*
X104050054Y-73289435D01*
X104052050Y-73289304D01*
X104053161Y-73290967D01*
X104052828Y-73292209D01*
X104045481Y-73303204D01*
X104041714Y-73322141D01*
X104041714Y-74821743D01*
X104045481Y-74840680D01*
X104052828Y-74851675D01*
X104052959Y-74853671D01*
X104051296Y-74854782D01*
X104050054Y-74854449D01*
X104036262Y-74845233D01*
X104035099Y-74846973D01*
X104033305Y-74847858D01*
X104032154Y-74847397D01*
X104014762Y-74832864D01*
X103946182Y-74824255D01*
X103902338Y-74852432D01*
X103899594Y-74851860D01*
X103895166Y-74845233D01*
X103881374Y-74854449D01*
X103879378Y-74854580D01*
X103878267Y-74852917D01*
X103878600Y-74851675D01*
X103885947Y-74840680D01*
X103889714Y-74821743D01*
X103889714Y-73322141D01*
X103885947Y-73303204D01*
X103878600Y-73292209D01*
X103878469Y-73290213D01*
X103880132Y-73289102D01*
X103881374Y-73289435D01*
G37*
G36*
X108681374Y-73289435D02*
G01*
X108695166Y-73298651D01*
X108696329Y-73296911D01*
X108698123Y-73296026D01*
X108699274Y-73296487D01*
X108716666Y-73311020D01*
X108785246Y-73319629D01*
X108829090Y-73291452D01*
X108831834Y-73292024D01*
X108836262Y-73298651D01*
X108850054Y-73289435D01*
X108852050Y-73289304D01*
X108853161Y-73290967D01*
X108852828Y-73292209D01*
X108845481Y-73303204D01*
X108841714Y-73322141D01*
X108841714Y-74821743D01*
X108845481Y-74840680D01*
X108852828Y-74851675D01*
X108852959Y-74853671D01*
X108851296Y-74854782D01*
X108850054Y-74854449D01*
X108836262Y-74845233D01*
X108835099Y-74846973D01*
X108833305Y-74847858D01*
X108832154Y-74847397D01*
X108814762Y-74832864D01*
X108746182Y-74824255D01*
X108702338Y-74852432D01*
X108699594Y-74851860D01*
X108695166Y-74845233D01*
X108681374Y-74854449D01*
X108679378Y-74854580D01*
X108678267Y-74852917D01*
X108678600Y-74851675D01*
X108685947Y-74840680D01*
X108689714Y-74821743D01*
X108689714Y-73322141D01*
X108685947Y-73303204D01*
X108678600Y-73292209D01*
X108678469Y-73290213D01*
X108680132Y-73289102D01*
X108681374Y-73289435D01*
G37*
G36*
X104681374Y-73289435D02*
G01*
X104695166Y-73298651D01*
X104696329Y-73296911D01*
X104698123Y-73296026D01*
X104699274Y-73296487D01*
X104716666Y-73311020D01*
X104785246Y-73319629D01*
X104829090Y-73291452D01*
X104831834Y-73292024D01*
X104836262Y-73298651D01*
X104850054Y-73289435D01*
X104852050Y-73289304D01*
X104853161Y-73290967D01*
X104852828Y-73292209D01*
X104845481Y-73303204D01*
X104841714Y-73322141D01*
X104841714Y-74821743D01*
X104845481Y-74840680D01*
X104852828Y-74851675D01*
X104852959Y-74853671D01*
X104851296Y-74854782D01*
X104850054Y-74854449D01*
X104836262Y-74845233D01*
X104835099Y-74846973D01*
X104833305Y-74847858D01*
X104832154Y-74847397D01*
X104814762Y-74832864D01*
X104746182Y-74824255D01*
X104702338Y-74852432D01*
X104699594Y-74851860D01*
X104695166Y-74845233D01*
X104681374Y-74854449D01*
X104679378Y-74854580D01*
X104678267Y-74852917D01*
X104678600Y-74851675D01*
X104685947Y-74840680D01*
X104689714Y-74821743D01*
X104689714Y-73322141D01*
X104685947Y-73303204D01*
X104678600Y-73292209D01*
X104678469Y-73290213D01*
X104680132Y-73289102D01*
X104681374Y-73289435D01*
G37*
G36*
X107081374Y-73289435D02*
G01*
X107095166Y-73298651D01*
X107096329Y-73296911D01*
X107098123Y-73296026D01*
X107099274Y-73296487D01*
X107116666Y-73311020D01*
X107185246Y-73319629D01*
X107229090Y-73291452D01*
X107231834Y-73292024D01*
X107236262Y-73298651D01*
X107250054Y-73289435D01*
X107252050Y-73289304D01*
X107253161Y-73290967D01*
X107252828Y-73292209D01*
X107245481Y-73303204D01*
X107241714Y-73322141D01*
X107241714Y-74821743D01*
X107245481Y-74840680D01*
X107252828Y-74851675D01*
X107252959Y-74853671D01*
X107251296Y-74854782D01*
X107250054Y-74854449D01*
X107236262Y-74845233D01*
X107235099Y-74846973D01*
X107233305Y-74847858D01*
X107232154Y-74847397D01*
X107214762Y-74832864D01*
X107146182Y-74824255D01*
X107102338Y-74852432D01*
X107099594Y-74851860D01*
X107095166Y-74845233D01*
X107081374Y-74854449D01*
X107079378Y-74854580D01*
X107078267Y-74852917D01*
X107078600Y-74851675D01*
X107085947Y-74840680D01*
X107089714Y-74821743D01*
X107089714Y-73322141D01*
X107085947Y-73303204D01*
X107078600Y-73292209D01*
X107078469Y-73290213D01*
X107080132Y-73289102D01*
X107081374Y-73289435D01*
G37*
G36*
X103081374Y-73289435D02*
G01*
X103095166Y-73298651D01*
X103096329Y-73296911D01*
X103098123Y-73296026D01*
X103099274Y-73296487D01*
X103116666Y-73311020D01*
X103185246Y-73319629D01*
X103229090Y-73291452D01*
X103231834Y-73292024D01*
X103236262Y-73298651D01*
X103250054Y-73289435D01*
X103252050Y-73289304D01*
X103253161Y-73290967D01*
X103252828Y-73292209D01*
X103245481Y-73303204D01*
X103241714Y-73322141D01*
X103241714Y-74821743D01*
X103245481Y-74840680D01*
X103252828Y-74851675D01*
X103252959Y-74853671D01*
X103251296Y-74854782D01*
X103250054Y-74854449D01*
X103236262Y-74845233D01*
X103235099Y-74846973D01*
X103233305Y-74847858D01*
X103232154Y-74847397D01*
X103214762Y-74832864D01*
X103146182Y-74824255D01*
X103102338Y-74852432D01*
X103099594Y-74851860D01*
X103095166Y-74845233D01*
X103081374Y-74854449D01*
X103079378Y-74854580D01*
X103078267Y-74852917D01*
X103078600Y-74851675D01*
X103085947Y-74840680D01*
X103089714Y-74821743D01*
X103089714Y-73322141D01*
X103085947Y-73303204D01*
X103078600Y-73292209D01*
X103078469Y-73290213D01*
X103080132Y-73289102D01*
X103081374Y-73289435D01*
G37*
G36*
X106281374Y-73289435D02*
G01*
X106295166Y-73298651D01*
X106296329Y-73296911D01*
X106298123Y-73296026D01*
X106299274Y-73296487D01*
X106316666Y-73311020D01*
X106385246Y-73319629D01*
X106429090Y-73291452D01*
X106431834Y-73292024D01*
X106436262Y-73298651D01*
X106450054Y-73289435D01*
X106452050Y-73289304D01*
X106453161Y-73290967D01*
X106452828Y-73292209D01*
X106445481Y-73303204D01*
X106441714Y-73322141D01*
X106441714Y-74821743D01*
X106445481Y-74840680D01*
X106452828Y-74851675D01*
X106452959Y-74853671D01*
X106451296Y-74854782D01*
X106450054Y-74854449D01*
X106436262Y-74845233D01*
X106435099Y-74846973D01*
X106433305Y-74847858D01*
X106432154Y-74847397D01*
X106414762Y-74832864D01*
X106346182Y-74824255D01*
X106302338Y-74852432D01*
X106299594Y-74851860D01*
X106295166Y-74845233D01*
X106281374Y-74854449D01*
X106279378Y-74854580D01*
X106278267Y-74852917D01*
X106278600Y-74851675D01*
X106285947Y-74840680D01*
X106289714Y-74821743D01*
X106289714Y-73322141D01*
X106285947Y-73303204D01*
X106278600Y-73292209D01*
X106278469Y-73290213D01*
X106280132Y-73289102D01*
X106281374Y-73289435D01*
G37*
G36*
X109481374Y-73289435D02*
G01*
X109495166Y-73298651D01*
X109496329Y-73296911D01*
X109498123Y-73296026D01*
X109499274Y-73296487D01*
X109516666Y-73311020D01*
X109585246Y-73319629D01*
X109629090Y-73291452D01*
X109631834Y-73292024D01*
X109636262Y-73298651D01*
X109650054Y-73289435D01*
X109652050Y-73289304D01*
X109653161Y-73290967D01*
X109652828Y-73292209D01*
X109645481Y-73303204D01*
X109641714Y-73322141D01*
X109641714Y-74821743D01*
X109645481Y-74840680D01*
X109652828Y-74851675D01*
X109652959Y-74853671D01*
X109651296Y-74854782D01*
X109650054Y-74854449D01*
X109636262Y-74845233D01*
X109635099Y-74846973D01*
X109633305Y-74847858D01*
X109632154Y-74847397D01*
X109614762Y-74832864D01*
X109546182Y-74824255D01*
X109502338Y-74852432D01*
X109499594Y-74851860D01*
X109495166Y-74845233D01*
X109481374Y-74854449D01*
X109479378Y-74854580D01*
X109478267Y-74852917D01*
X109478600Y-74851675D01*
X109485947Y-74840680D01*
X109489714Y-74821743D01*
X109489714Y-73322141D01*
X109485947Y-73303204D01*
X109478600Y-73292209D01*
X109478469Y-73290213D01*
X109480132Y-73289102D01*
X109481374Y-73289435D01*
G37*
G36*
X107881374Y-73289435D02*
G01*
X107895166Y-73298651D01*
X107896329Y-73296911D01*
X107898123Y-73296026D01*
X107899274Y-73296487D01*
X107916666Y-73311020D01*
X107985246Y-73319629D01*
X108029090Y-73291452D01*
X108031834Y-73292024D01*
X108036262Y-73298651D01*
X108050054Y-73289435D01*
X108052050Y-73289304D01*
X108053161Y-73290967D01*
X108052828Y-73292209D01*
X108045481Y-73303204D01*
X108041714Y-73322141D01*
X108041714Y-74821743D01*
X108045481Y-74840680D01*
X108052828Y-74851675D01*
X108052959Y-74853671D01*
X108051296Y-74854782D01*
X108050054Y-74854449D01*
X108036262Y-74845233D01*
X108035099Y-74846973D01*
X108033305Y-74847858D01*
X108032154Y-74847397D01*
X108014762Y-74832864D01*
X107946182Y-74824255D01*
X107902338Y-74852432D01*
X107899594Y-74851860D01*
X107895166Y-74845233D01*
X107881374Y-74854449D01*
X107879378Y-74854580D01*
X107878267Y-74852917D01*
X107878600Y-74851675D01*
X107885947Y-74840680D01*
X107889714Y-74821743D01*
X107889714Y-73322141D01*
X107885947Y-73303204D01*
X107878600Y-73292209D01*
X107878469Y-73290213D01*
X107880132Y-73289102D01*
X107881374Y-73289435D01*
G37*
G36*
X27386277Y-66889801D02*
G01*
X27435410Y-67041018D01*
X27515513Y-67179760D01*
X27515513Y-67181760D01*
X27513781Y-67182760D01*
X27512214Y-67182002D01*
X27498329Y-67164483D01*
X27498117Y-67164155D01*
X27492598Y-67153416D01*
X27444663Y-67103015D01*
X27377378Y-67086601D01*
X27311831Y-67109194D01*
X27276015Y-67148821D01*
X27249483Y-67195525D01*
X27249258Y-67195844D01*
X27247055Y-67198396D01*
X27245166Y-67199054D01*
X27243652Y-67197747D01*
X27243809Y-67196089D01*
X27333340Y-67041018D01*
X27382473Y-66889801D01*
X27383959Y-66888463D01*
X27386277Y-66889801D01*
G37*
G36*
X27521941Y-66157678D02*
G01*
X27521794Y-66159362D01*
X27435410Y-66308982D01*
X27386277Y-66460199D01*
X27384791Y-66461537D01*
X27382473Y-66460199D01*
X27333340Y-66308982D01*
X27250099Y-66164805D01*
X27250099Y-66162805D01*
X27251831Y-66161805D01*
X27253381Y-66162541D01*
X27263511Y-66174962D01*
X27263727Y-66175287D01*
X27276070Y-66198502D01*
X27324705Y-66248230D01*
X27392211Y-66263702D01*
X27457439Y-66240196D01*
X27492696Y-66200076D01*
X27512070Y-66164834D01*
X27512291Y-66164511D01*
X27518530Y-66157076D01*
X27520409Y-66156392D01*
X27521941Y-66157678D01*
G37*
G36*
X258367527Y-47839801D02*
G01*
X258416660Y-47991018D01*
X258496763Y-48129760D01*
X258496763Y-48131760D01*
X258495031Y-48132760D01*
X258493464Y-48132002D01*
X258479579Y-48114483D01*
X258479367Y-48114155D01*
X258473848Y-48103416D01*
X258425913Y-48053015D01*
X258358628Y-48036601D01*
X258293081Y-48059194D01*
X258257265Y-48098821D01*
X258230733Y-48145525D01*
X258230508Y-48145844D01*
X258228305Y-48148396D01*
X258226416Y-48149054D01*
X258224902Y-48147747D01*
X258225059Y-48146089D01*
X258314590Y-47991018D01*
X258363723Y-47839801D01*
X258365209Y-47838463D01*
X258367527Y-47839801D01*
G37*
G36*
X258503191Y-47107678D02*
G01*
X258503044Y-47109362D01*
X258416660Y-47258982D01*
X258367527Y-47410199D01*
X258366041Y-47411537D01*
X258363723Y-47410199D01*
X258314590Y-47258982D01*
X258231349Y-47114805D01*
X258231349Y-47112805D01*
X258233081Y-47111805D01*
X258234631Y-47112541D01*
X258244761Y-47124962D01*
X258244977Y-47125287D01*
X258257320Y-47148502D01*
X258305955Y-47198230D01*
X258373461Y-47213702D01*
X258438689Y-47190196D01*
X258473946Y-47150076D01*
X258493320Y-47114834D01*
X258493541Y-47114511D01*
X258499780Y-47107076D01*
X258501659Y-47106392D01*
X258503191Y-47107678D01*
G37*
G36*
X274903540Y-39845721D02*
G01*
X274815317Y-40010255D01*
X274735209Y-40242906D01*
X274733700Y-40244218D01*
X274731809Y-40243567D01*
X274731351Y-40241896D01*
X274731685Y-40240067D01*
X274731762Y-40239773D01*
X274762273Y-40151411D01*
X274765533Y-40081927D01*
X274730861Y-40021973D01*
X274669286Y-39990285D01*
X274598763Y-39997468D01*
X274496894Y-40039664D01*
X274496636Y-40039751D01*
X274488318Y-40041933D01*
X274486389Y-40041405D01*
X274485882Y-40039470D01*
X274487062Y-40038144D01*
X274739524Y-39936143D01*
X274900777Y-39843044D01*
X274902777Y-39843044D01*
X274903540Y-39845721D01*
G37*
G36*
X275707746Y-38942033D02*
G01*
X275707921Y-38943800D01*
X275703746Y-38954849D01*
X275698487Y-39024207D01*
X275731418Y-39085134D01*
X275792074Y-39118593D01*
X275858497Y-39114978D01*
X275864505Y-39112939D01*
X275864799Y-39112864D01*
X275906492Y-39105475D01*
X275908372Y-39106157D01*
X275908721Y-39108126D01*
X275907386Y-39109368D01*
X275708452Y-39165660D01*
X275534409Y-39246818D01*
X275532417Y-39246643D01*
X275531572Y-39244831D01*
X275531946Y-39243829D01*
X275576454Y-39182569D01*
X275704284Y-38942154D01*
X275705980Y-38941094D01*
X275707746Y-38942033D01*
G37*
G36*
X4222319Y-18220806D02*
G01*
X4223000Y-18222310D01*
X4223000Y-19397690D01*
X4222000Y-19399422D01*
X4220000Y-19399422D01*
X4219038Y-19398080D01*
X4217691Y-19391306D01*
X4185451Y-19329674D01*
X4125267Y-19295401D01*
X4056109Y-19299109D01*
X3999885Y-19339651D01*
X3976320Y-19391253D01*
X3974962Y-19398080D01*
X3973643Y-19399584D01*
X3971681Y-19399194D01*
X3971000Y-19397690D01*
X3971000Y-18222310D01*
X3972000Y-18220578D01*
X3974000Y-18220578D01*
X3974962Y-18221920D01*
X3976309Y-18228694D01*
X4008549Y-18290326D01*
X4068733Y-18324599D01*
X4137891Y-18320891D01*
X4194115Y-18280349D01*
X4217680Y-18228747D01*
X4219038Y-18221920D01*
X4220357Y-18220416D01*
X4222319Y-18220806D01*
G37*
G36*
X3272319Y-18220806D02*
G01*
X3273000Y-18222310D01*
X3273000Y-19397690D01*
X3272000Y-19399422D01*
X3270000Y-19399422D01*
X3269038Y-19398080D01*
X3267691Y-19391306D01*
X3235451Y-19329674D01*
X3175267Y-19295401D01*
X3106109Y-19299109D01*
X3049885Y-19339651D01*
X3026320Y-19391253D01*
X3024962Y-19398080D01*
X3023643Y-19399584D01*
X3021681Y-19399194D01*
X3021000Y-19397690D01*
X3021000Y-18222310D01*
X3022000Y-18220578D01*
X3024000Y-18220578D01*
X3024962Y-18221920D01*
X3026309Y-18228694D01*
X3058549Y-18290326D01*
X3118733Y-18324599D01*
X3187891Y-18320891D01*
X3244115Y-18280349D01*
X3267680Y-18228747D01*
X3269038Y-18221920D01*
X3270357Y-18220416D01*
X3272319Y-18220806D01*
G37*
G36*
X3272319Y-15920806D02*
G01*
X3273000Y-15922310D01*
X3273000Y-17097690D01*
X3272000Y-17099422D01*
X3270000Y-17099422D01*
X3269038Y-17098080D01*
X3267691Y-17091306D01*
X3235451Y-17029674D01*
X3175267Y-16995401D01*
X3106109Y-16999109D01*
X3049885Y-17039651D01*
X3026320Y-17091253D01*
X3024962Y-17098080D01*
X3023643Y-17099584D01*
X3021681Y-17099194D01*
X3021000Y-17097690D01*
X3021000Y-15922310D01*
X3022000Y-15920578D01*
X3024000Y-15920578D01*
X3024962Y-15921920D01*
X3026309Y-15928694D01*
X3058549Y-15990326D01*
X3118733Y-16024599D01*
X3187891Y-16020891D01*
X3244115Y-15980349D01*
X3267680Y-15928747D01*
X3269038Y-15921920D01*
X3270357Y-15920416D01*
X3272319Y-15920806D01*
G37*
G36*
X4222319Y-15920806D02*
G01*
X4223000Y-15922310D01*
X4223000Y-17097690D01*
X4222000Y-17099422D01*
X4220000Y-17099422D01*
X4219038Y-17098080D01*
X4217691Y-17091306D01*
X4185451Y-17029674D01*
X4125267Y-16995401D01*
X4056109Y-16999109D01*
X3999885Y-17039651D01*
X3976320Y-17091253D01*
X3974962Y-17098080D01*
X3973643Y-17099584D01*
X3971681Y-17099194D01*
X3971000Y-17097690D01*
X3971000Y-15922310D01*
X3972000Y-15920578D01*
X3974000Y-15920578D01*
X3974962Y-15921920D01*
X3976309Y-15928694D01*
X4008549Y-15990326D01*
X4068733Y-16024599D01*
X4137891Y-16020891D01*
X4194115Y-15980349D01*
X4217680Y-15928747D01*
X4219038Y-15921920D01*
X4220357Y-15920416D01*
X4222319Y-15920806D01*
G37*
M02*
