G04 #@! TF.GenerationSoftware,KiCad,Pcbnew,(5.99.0-4079-gfad0916f0)*
G04 #@! TF.CreationDate,2020-11-08T20:09:33-05:00*
G04 #@! TF.ProjectId,plain60-c,706c6169-6e36-4302-9d63-2e6b69636164,rev?*
G04 #@! TF.SameCoordinates,Original*
G04 #@! TF.FileFunction,Copper,L2,Bot*
G04 #@! TF.FilePolarity,Positive*
%FSLAX46Y46*%
G04 Gerber Fmt 4.6, Leading zero omitted, Abs format (unit mm)*
G04 Created by KiCad (PCBNEW (5.99.0-4079-gfad0916f0)) date 2020-11-08 20:09:33*
%MOMM*%
%LPD*%
G01*
G04 APERTURE LIST*
G04 Aperture macros list*
%AMRoundRect*
0 Rectangle with rounded corners*
0 $1 Rounding radius*
0 $2 $3 $4 $5 $6 $7 $8 $9 X,Y pos of 4 corners*
0 Add a 4 corners polygon primitive as box body*
4,1,4,$2,$3,$4,$5,$6,$7,$8,$9,$2,$3,0*
0 Add four circle primitives for the rounded corners*
1,1,$1+$1,$2,$3,0*
1,1,$1+$1,$4,$5,0*
1,1,$1+$1,$6,$7,0*
1,1,$1+$1,$8,$9,0*
0 Add four rect primitives between the rounded corners*
20,1,$1+$1,$2,$3,$4,$5,0*
20,1,$1+$1,$4,$5,$6,$7,0*
20,1,$1+$1,$6,$7,$8,$9,0*
20,1,$1+$1,$8,$9,$2,$3,0*%
G04 Aperture macros list end*
G04 #@! TA.AperFunction,ComponentPad*
%ADD10C,2.286000*%
G04 #@! TD*
G04 #@! TA.AperFunction,SMDPad,CuDef*
%ADD11R,1.400000X1.200000*%
G04 #@! TD*
G04 #@! TA.AperFunction,SMDPad,CuDef*
%ADD12R,1.500000X0.550000*%
G04 #@! TD*
G04 #@! TA.AperFunction,SMDPad,CuDef*
%ADD13R,0.550000X1.500000*%
G04 #@! TD*
G04 #@! TA.AperFunction,SMDPad,CuDef*
%ADD14R,2.000000X0.400000*%
G04 #@! TD*
G04 #@! TA.AperFunction,SMDPad,CuDef*
%ADD15R,1.700000X1.000000*%
G04 #@! TD*
G04 #@! TA.AperFunction,SMDPad,CuDef*
%ADD16R,1.000000X1.300000*%
G04 #@! TD*
G04 #@! TA.AperFunction,ComponentPad*
%ADD17C,2.000000*%
G04 #@! TD*
G04 #@! TA.AperFunction,SMDPad,CuDef*
%ADD18R,1.300000X1.000000*%
G04 #@! TD*
G04 #@! TA.AperFunction,SMDPad,CuDef*
%ADD19R,1.000000X1.250000*%
G04 #@! TD*
G04 #@! TA.AperFunction,SMDPad,CuDef*
%ADD20R,0.600000X1.200000*%
G04 #@! TD*
G04 #@! TA.AperFunction,ComponentPad*
%ADD21O,1.700000X1.700000*%
G04 #@! TD*
G04 #@! TA.AperFunction,ComponentPad*
%ADD22R,1.700000X1.700000*%
G04 #@! TD*
G04 #@! TA.AperFunction,SMDPad,CuDef*
%ADD23RoundRect,0.332800X-0.467200X-0.567200X0.467200X-0.567200X0.467200X0.567200X-0.467200X0.567200X0*%
G04 #@! TD*
G04 #@! TA.AperFunction,SMDPad,CuDef*
%ADD24RoundRect,0.150000X-0.150000X-0.775000X0.150000X-0.775000X0.150000X0.775000X-0.150000X0.775000X0*%
G04 #@! TD*
G04 #@! TA.AperFunction,ViaPad*
%ADD25C,0.600000*%
G04 #@! TD*
G04 #@! TA.AperFunction,Conductor*
%ADD26C,0.250000*%
G04 #@! TD*
G04 #@! TA.AperFunction,Conductor*
%ADD27C,0.500000*%
G04 #@! TD*
G04 #@! TA.AperFunction,Conductor*
%ADD28C,0.200000*%
G04 #@! TD*
G04 APERTURE END LIST*
G36*
X75170667Y-37160936D02*
G01*
X75169089Y-37225405D01*
X75163458Y-37286822D01*
X75153820Y-37344989D01*
X75140217Y-37399708D01*
X75122692Y-37450782D01*
X75101288Y-37498011D01*
X75076049Y-37541199D01*
X75064335Y-37558104D01*
X75033783Y-37595525D01*
X74999896Y-37628339D01*
X74962676Y-37656543D01*
X74922125Y-37680138D01*
X74878245Y-37699122D01*
X74831037Y-37713494D01*
X74780505Y-37723252D01*
X74761731Y-37725201D01*
X74737624Y-37726371D01*
X74711138Y-37726605D01*
X74683878Y-37725943D01*
X74657447Y-37724427D01*
X74633449Y-37722098D01*
X74613489Y-37718995D01*
X74576767Y-37710240D01*
X74525323Y-37693249D01*
X74474184Y-37670919D01*
X74423706Y-37643450D01*
X74374245Y-37611042D01*
X74326157Y-37573893D01*
X74279797Y-37532202D01*
X74274929Y-37527553D01*
X74264271Y-37517800D01*
X74255076Y-37509951D01*
X74248194Y-37504716D01*
X74244476Y-37502802D01*
X74244005Y-37502824D01*
X74242746Y-37503392D01*
X74241745Y-37505152D01*
X74240973Y-37508664D01*
X74240400Y-37514491D01*
X74239998Y-37523196D01*
X74239735Y-37535340D01*
X74239585Y-37551485D01*
X74239516Y-37572194D01*
X74239499Y-37598029D01*
X74239499Y-37693304D01*
X73864196Y-37693304D01*
X73862657Y-37686905D01*
X73862378Y-37685575D01*
X73861047Y-37679034D01*
X73858678Y-37667292D01*
X73855317Y-37650585D01*
X73851011Y-37629148D01*
X73845807Y-37603218D01*
X73839754Y-37573031D01*
X73832897Y-37538821D01*
X73825284Y-37500826D01*
X73816963Y-37459280D01*
X73807981Y-37414420D01*
X73798385Y-37366482D01*
X73788221Y-37315701D01*
X73777538Y-37262313D01*
X73766383Y-37206553D01*
X73754802Y-37148659D01*
X73742844Y-37088865D01*
X73730555Y-37027407D01*
X73717982Y-36964522D01*
X73665096Y-36699975D01*
X74122012Y-36699975D01*
X74169479Y-36924324D01*
X74176418Y-36957064D01*
X74184626Y-36995591D01*
X74191826Y-37029110D01*
X74198093Y-37057946D01*
X74203501Y-37082420D01*
X74208125Y-37102854D01*
X74212038Y-37119570D01*
X74215316Y-37132892D01*
X74218032Y-37143140D01*
X74220261Y-37150637D01*
X74222077Y-37155707D01*
X74223555Y-37158669D01*
X74231130Y-37169367D01*
X74243240Y-37184887D01*
X74257347Y-37201736D01*
X74272265Y-37218504D01*
X74286806Y-37233783D01*
X74312474Y-37257965D01*
X74349644Y-37287440D01*
X74388010Y-37311636D01*
X74427364Y-37330424D01*
X74467500Y-37343680D01*
X74469699Y-37344231D01*
X74489540Y-37348004D01*
X74511011Y-37350308D01*
X74532352Y-37351072D01*
X74551803Y-37350225D01*
X74567603Y-37347697D01*
X74591338Y-37339295D01*
X74614752Y-37325430D01*
X74635286Y-37306947D01*
X74652682Y-37284135D01*
X74666680Y-37257279D01*
X74677023Y-37226665D01*
X74680152Y-37213612D01*
X74683599Y-37197338D01*
X74686312Y-37182582D01*
X74686753Y-37179593D01*
X74688132Y-37165328D01*
X74689106Y-37147030D01*
X74689675Y-37125993D01*
X74689839Y-37103509D01*
X74689595Y-37080871D01*
X74688944Y-37059371D01*
X74687884Y-37040302D01*
X74686415Y-37024958D01*
X74685737Y-37019799D01*
X74675447Y-36960605D01*
X74661014Y-36904807D01*
X74642506Y-36852554D01*
X74619992Y-36803996D01*
X74593541Y-36759282D01*
X74563221Y-36718561D01*
X74529101Y-36681985D01*
X74504251Y-36660168D01*
X74468337Y-36634871D01*
X74429927Y-36614634D01*
X74388811Y-36599332D01*
X74379497Y-36596630D01*
X74370129Y-36594380D01*
X74360854Y-36592902D01*
X74350226Y-36592034D01*
X74336800Y-36591612D01*
X74319132Y-36591474D01*
X74309925Y-36591460D01*
X74295249Y-36591570D01*
X74284170Y-36592011D01*
X74275298Y-36592963D01*
X74267244Y-36594606D01*
X74258619Y-36597120D01*
X74248031Y-36600686D01*
X74224671Y-36609681D01*
X74199231Y-36622488D01*
X74176689Y-36637841D01*
X74155533Y-36656656D01*
X74147948Y-36664461D01*
X74138791Y-36674604D01*
X74131548Y-36683448D01*
X74127332Y-36689692D01*
X74122012Y-36699975D01*
X73665096Y-36699975D01*
X73574846Y-36248538D01*
X73945732Y-36248538D01*
X73977799Y-36321199D01*
X73982688Y-36332235D01*
X73991911Y-36352725D01*
X73999283Y-36368535D01*
X74005006Y-36380066D01*
X74009287Y-36387719D01*
X74012328Y-36391896D01*
X74014335Y-36392999D01*
X74014505Y-36392956D01*
X74018387Y-36390020D01*
X74024047Y-36383649D01*
X74030322Y-36375144D01*
X74042378Y-36358666D01*
X74069546Y-36328541D01*
X74101201Y-36301308D01*
X74136908Y-36277280D01*
X74176229Y-36256769D01*
X74218728Y-36240088D01*
X74226220Y-36237672D01*
X74268254Y-36226764D01*
X74313522Y-36219021D01*
X74360712Y-36214531D01*
X74408513Y-36213380D01*
X74455613Y-36215655D01*
X74500701Y-36221442D01*
X74527872Y-36226806D01*
X74584253Y-36242130D01*
X74639442Y-36262762D01*
X74693208Y-36288489D01*
X74745319Y-36319097D01*
X74795547Y-36354372D01*
X74843660Y-36394101D01*
X74889428Y-36438069D01*
X74932620Y-36486064D01*
X74973007Y-36537871D01*
X75010357Y-36593277D01*
X75044441Y-36652067D01*
X75075027Y-36714030D01*
X75101885Y-36778949D01*
X75118794Y-36827435D01*
X75138271Y-36895913D01*
X75153089Y-36966024D01*
X75163396Y-37038494D01*
X75168508Y-37103509D01*
X75169336Y-37114051D01*
X75170667Y-37160936D01*
G37*
G36*
X71395747Y-36248539D02*
G01*
X71433955Y-36248552D01*
X71467026Y-36248584D01*
X71495323Y-36248644D01*
X71519215Y-36248740D01*
X71539066Y-36248881D01*
X71555243Y-36249075D01*
X71568112Y-36249331D01*
X71578039Y-36249655D01*
X71585391Y-36250057D01*
X71590533Y-36250544D01*
X71593833Y-36251125D01*
X71595655Y-36251809D01*
X71596366Y-36252603D01*
X71596332Y-36253515D01*
X71595577Y-36256724D01*
X71593661Y-36265227D01*
X71590656Y-36278708D01*
X71586625Y-36296885D01*
X71581628Y-36319471D01*
X71575730Y-36346183D01*
X71568992Y-36376735D01*
X71561478Y-36410843D01*
X71553249Y-36448222D01*
X71544367Y-36488587D01*
X71534896Y-36531653D01*
X71524898Y-36577137D01*
X71514435Y-36624753D01*
X71503569Y-36674216D01*
X71492364Y-36725242D01*
X71480881Y-36777546D01*
X71469183Y-36830843D01*
X71457333Y-36884848D01*
X71445393Y-36939278D01*
X71433425Y-36993846D01*
X71421491Y-37048269D01*
X71409655Y-37102261D01*
X71397979Y-37155538D01*
X71386524Y-37207816D01*
X71375354Y-37258809D01*
X71364532Y-37308233D01*
X71354118Y-37355802D01*
X71344177Y-37401233D01*
X71334770Y-37444241D01*
X71325960Y-37484540D01*
X71317808Y-37521846D01*
X71310379Y-37555875D01*
X71303734Y-37586342D01*
X71297935Y-37612961D01*
X71293046Y-37635449D01*
X71289127Y-37653520D01*
X71286243Y-37666890D01*
X71284455Y-37675274D01*
X71283826Y-37678387D01*
X71284960Y-37682031D01*
X71288620Y-37689794D01*
X71294358Y-37700713D01*
X71301715Y-37713917D01*
X71310233Y-37728532D01*
X71330672Y-37760370D01*
X71355475Y-37792489D01*
X71381850Y-37819602D01*
X71410322Y-37842059D01*
X71441414Y-37860208D01*
X71475651Y-37874401D01*
X71513556Y-37884986D01*
X71555655Y-37892314D01*
X71573811Y-37894145D01*
X71613813Y-37894830D01*
X71655530Y-37891430D01*
X71697664Y-37884141D01*
X71738918Y-37873158D01*
X71777994Y-37858679D01*
X71779943Y-37857853D01*
X71789396Y-37854247D01*
X71796519Y-37852171D01*
X71799895Y-37852053D01*
X71800167Y-37852554D01*
X71802258Y-37857269D01*
X71806169Y-37866467D01*
X71811668Y-37879582D01*
X71818523Y-37896047D01*
X71826500Y-37915298D01*
X71835368Y-37936767D01*
X71844893Y-37959890D01*
X71854844Y-37984099D01*
X71864987Y-38008828D01*
X71875091Y-38033513D01*
X71884923Y-38057586D01*
X71894249Y-38080481D01*
X71902839Y-38101633D01*
X71910458Y-38120476D01*
X71916876Y-38136443D01*
X71921858Y-38148968D01*
X71927151Y-38162386D01*
X71909675Y-38172629D01*
X71888792Y-38183673D01*
X71857796Y-38196963D01*
X71823137Y-38208935D01*
X71785929Y-38219253D01*
X71747284Y-38227579D01*
X71708316Y-38233577D01*
X71699862Y-38234324D01*
X71684156Y-38235015D01*
X71664711Y-38235339D01*
X71642643Y-38235322D01*
X71619070Y-38234989D01*
X71595111Y-38234363D01*
X71571883Y-38233468D01*
X71550505Y-38232330D01*
X71532093Y-38230973D01*
X71517766Y-38229421D01*
X71492382Y-38225567D01*
X71430069Y-38212876D01*
X71370270Y-38195864D01*
X71312820Y-38174409D01*
X71257555Y-38148391D01*
X71204308Y-38117691D01*
X71152914Y-38082188D01*
X71103207Y-38041761D01*
X71055023Y-37996290D01*
X71008194Y-37945654D01*
X70962557Y-37889735D01*
X70917945Y-37828410D01*
X70874192Y-37761560D01*
X70871228Y-37756618D01*
X70865403Y-37746658D01*
X70856996Y-37732144D01*
X70846126Y-37713282D01*
X70832908Y-37690277D01*
X70817461Y-37663335D01*
X70799902Y-37632663D01*
X70780349Y-37598464D01*
X70758918Y-37560946D01*
X70735727Y-37520314D01*
X70710894Y-37476774D01*
X70684535Y-37430531D01*
X70656769Y-37381792D01*
X70627712Y-37330761D01*
X70597483Y-37277645D01*
X70566197Y-37222649D01*
X70533973Y-37165980D01*
X70500929Y-37107842D01*
X70467180Y-37048442D01*
X70432846Y-36987985D01*
X70431950Y-36986406D01*
X70397900Y-36926439D01*
X70364578Y-36867754D01*
X70332095Y-36810546D01*
X70300559Y-36755006D01*
X70270080Y-36701328D01*
X70240768Y-36649705D01*
X70212731Y-36600328D01*
X70186079Y-36553392D01*
X70160923Y-36509089D01*
X70137370Y-36467611D01*
X70115531Y-36429151D01*
X70095516Y-36393903D01*
X70077433Y-36362059D01*
X70061393Y-36333811D01*
X70047504Y-36309353D01*
X70035876Y-36288878D01*
X70026619Y-36272577D01*
X70019841Y-36260645D01*
X70015654Y-36253273D01*
X70014165Y-36250655D01*
X70014953Y-36250470D01*
X70020568Y-36250167D01*
X70031219Y-36249897D01*
X70046491Y-36249662D01*
X70065967Y-36249466D01*
X70089232Y-36249311D01*
X70115870Y-36249199D01*
X70145464Y-36249132D01*
X70177599Y-36249114D01*
X70211858Y-36249147D01*
X70247827Y-36249233D01*
X70482733Y-36249960D01*
X70626562Y-36528675D01*
X70649905Y-36573936D01*
X70680596Y-36633541D01*
X70708925Y-36688693D01*
X70735062Y-36739732D01*
X70759172Y-36786999D01*
X70781425Y-36830831D01*
X70801988Y-36871570D01*
X70821030Y-36909555D01*
X70838717Y-36945125D01*
X70855219Y-36978621D01*
X70870703Y-37010382D01*
X70885336Y-37040748D01*
X70899288Y-37070058D01*
X70912726Y-37098652D01*
X70925817Y-37126870D01*
X70938730Y-37155051D01*
X70951632Y-37183536D01*
X70964692Y-37212663D01*
X70967337Y-37218573D01*
X70975650Y-37236867D01*
X70982165Y-37250605D01*
X70987175Y-37260335D01*
X70990979Y-37266607D01*
X70993870Y-37269967D01*
X70996145Y-37270966D01*
X70996552Y-37270957D01*
X71000626Y-37268889D01*
X71002365Y-37262434D01*
X71002697Y-37258910D01*
X71004322Y-37242626D01*
X71006492Y-37221937D01*
X71009098Y-37197818D01*
X71012028Y-37171246D01*
X71015173Y-37143199D01*
X71018422Y-37114652D01*
X71021666Y-37086583D01*
X71024794Y-37059967D01*
X71027697Y-37035782D01*
X71030264Y-37015003D01*
X71032809Y-36994926D01*
X71035491Y-36974125D01*
X71038141Y-36954045D01*
X71040829Y-36934234D01*
X71043622Y-36914239D01*
X71046592Y-36893608D01*
X71049807Y-36871889D01*
X71053337Y-36848630D01*
X71057251Y-36823379D01*
X71061619Y-36795683D01*
X71066511Y-36765090D01*
X71071995Y-36731148D01*
X71078141Y-36693406D01*
X71085019Y-36651410D01*
X71092698Y-36604708D01*
X71101247Y-36552849D01*
X71102661Y-36544282D01*
X71108991Y-36505918D01*
X71115093Y-36468927D01*
X71120899Y-36433734D01*
X71126338Y-36400760D01*
X71131340Y-36370431D01*
X71135835Y-36343171D01*
X71139754Y-36319403D01*
X71143026Y-36299552D01*
X71145581Y-36284041D01*
X71147351Y-36273294D01*
X71148263Y-36267736D01*
X71151400Y-36248538D01*
X71374591Y-36248538D01*
X71395747Y-36248539D01*
G37*
G36*
X74893166Y-38202905D02*
G01*
X74922777Y-38203062D01*
X75034405Y-38203806D01*
X75130192Y-38680181D01*
X75131801Y-38688180D01*
X75142065Y-38739229D01*
X75152031Y-38788803D01*
X75161640Y-38836611D01*
X75170835Y-38882358D01*
X75179555Y-38925751D01*
X75187742Y-38966499D01*
X75195337Y-39004307D01*
X75202282Y-39038883D01*
X75208517Y-39069934D01*
X75213983Y-39097166D01*
X75218622Y-39120287D01*
X75222375Y-39139004D01*
X75225183Y-39153024D01*
X75226988Y-39162053D01*
X75227729Y-39165798D01*
X75229478Y-39175042D01*
X75005359Y-39175042D01*
X74994655Y-39118872D01*
X74991151Y-39100532D01*
X74987524Y-39081647D01*
X74984167Y-39064257D01*
X74981343Y-39049727D01*
X74979316Y-39039421D01*
X74974680Y-39016139D01*
X74909380Y-38960180D01*
X74907563Y-38958623D01*
X74889418Y-38943104D01*
X74875064Y-38930932D01*
X74864029Y-38921764D01*
X74855842Y-38915259D01*
X74850032Y-38911075D01*
X74846126Y-38908871D01*
X74843654Y-38908304D01*
X74842143Y-38909033D01*
X74841124Y-38910717D01*
X74841067Y-38910842D01*
X74839226Y-38915102D01*
X74835420Y-38924023D01*
X74829875Y-38937069D01*
X74822819Y-38953704D01*
X74814479Y-38973392D01*
X74805082Y-38995598D01*
X74794856Y-39019785D01*
X74784027Y-39045417D01*
X74729887Y-39173620D01*
X74616600Y-39174363D01*
X74607094Y-39174425D01*
X74580405Y-39174579D01*
X74558734Y-39174655D01*
X74541570Y-39174632D01*
X74528402Y-39174492D01*
X74518722Y-39174216D01*
X74512018Y-39173782D01*
X74507781Y-39173174D01*
X74505500Y-39172369D01*
X74504665Y-39171351D01*
X74504767Y-39170097D01*
X74504812Y-39169964D01*
X74506490Y-39166051D01*
X74510357Y-39157439D01*
X74516225Y-39144535D01*
X74523906Y-39127750D01*
X74533213Y-39107491D01*
X74543956Y-39084167D01*
X74555948Y-39058188D01*
X74569001Y-39029962D01*
X74582927Y-38999898D01*
X74597538Y-38968404D01*
X74599490Y-38964198D01*
X74613980Y-38932941D01*
X74627728Y-38903212D01*
X74640549Y-38875413D01*
X74652259Y-38849948D01*
X74662673Y-38827221D01*
X74671607Y-38807633D01*
X74678876Y-38791589D01*
X74684297Y-38779492D01*
X74687685Y-38771745D01*
X74688855Y-38768750D01*
X74687357Y-38766934D01*
X74682016Y-38761485D01*
X74673116Y-38752748D01*
X74660988Y-38741037D01*
X74645959Y-38726664D01*
X74628360Y-38709943D01*
X74608519Y-38691187D01*
X74586765Y-38670710D01*
X74563427Y-38648824D01*
X74538833Y-38625844D01*
X74518296Y-38606688D01*
X74494453Y-38584448D01*
X74472015Y-38563517D01*
X74451326Y-38544218D01*
X74432730Y-38526870D01*
X74416571Y-38511796D01*
X74403195Y-38499317D01*
X74392945Y-38489754D01*
X74386166Y-38483428D01*
X74383202Y-38480660D01*
X74382688Y-38480165D01*
X74381807Y-38479012D01*
X74381973Y-38478063D01*
X74383651Y-38477297D01*
X74387305Y-38476694D01*
X74393398Y-38476236D01*
X74402395Y-38475902D01*
X74414760Y-38475673D01*
X74430957Y-38475529D01*
X74451450Y-38475450D01*
X74476703Y-38475418D01*
X74507180Y-38475411D01*
X74636767Y-38475411D01*
X74775781Y-38604592D01*
X74787462Y-38615437D01*
X74810596Y-38636850D01*
X74832345Y-38656899D01*
X74852363Y-38675269D01*
X74870303Y-38691644D01*
X74885819Y-38705710D01*
X74898564Y-38717152D01*
X74908192Y-38725656D01*
X74914356Y-38730907D01*
X74916710Y-38732590D01*
X74917026Y-38732181D01*
X74917332Y-38727843D01*
X74916273Y-38720725D01*
X74915491Y-38717101D01*
X74913366Y-38707032D01*
X74910345Y-38692533D01*
X74906523Y-38674081D01*
X74901998Y-38652152D01*
X74896867Y-38627221D01*
X74891227Y-38599766D01*
X74885176Y-38570262D01*
X74878810Y-38539186D01*
X74872228Y-38507014D01*
X74865526Y-38474222D01*
X74858801Y-38441287D01*
X74852151Y-38408685D01*
X74845673Y-38376892D01*
X74839464Y-38346384D01*
X74833622Y-38317638D01*
X74828243Y-38291129D01*
X74823425Y-38267335D01*
X74819265Y-38246732D01*
X74815860Y-38229795D01*
X74813307Y-38217001D01*
X74811704Y-38208827D01*
X74811148Y-38205747D01*
X74812279Y-38204902D01*
X74816261Y-38204171D01*
X74823503Y-38203612D01*
X74834410Y-38203215D01*
X74849387Y-38202972D01*
X74868837Y-38202872D01*
X74893166Y-38202905D01*
G37*
G36*
X71474709Y-38794933D02*
G01*
X71476409Y-38804729D01*
X71477631Y-38814781D01*
X71478448Y-38826173D01*
X71478933Y-38839993D01*
X71479160Y-38857328D01*
X71479202Y-38879263D01*
X71479153Y-38895190D01*
X71478946Y-38913815D01*
X71478512Y-38928523D01*
X71477781Y-38940356D01*
X71476682Y-38950356D01*
X71475145Y-38959563D01*
X71473098Y-38969019D01*
X71472570Y-38971242D01*
X71460342Y-39011636D01*
X71444057Y-39048049D01*
X71423747Y-39080452D01*
X71399443Y-39108819D01*
X71371178Y-39133122D01*
X71338984Y-39153333D01*
X71302892Y-39169424D01*
X71262934Y-39181368D01*
X71219143Y-39189137D01*
X71206869Y-39190149D01*
X71189318Y-39190738D01*
X71168667Y-39190830D01*
X71146249Y-39190460D01*
X71123398Y-39189664D01*
X71101444Y-39188477D01*
X71081723Y-39186934D01*
X71065566Y-39185071D01*
X71051548Y-39182868D01*
X71009940Y-39174330D01*
X70969154Y-39163108D01*
X70930765Y-39149672D01*
X70896346Y-39134493D01*
X70890951Y-39131741D01*
X70880300Y-39126042D01*
X70869085Y-39119789D01*
X70858421Y-39113630D01*
X70849424Y-39108214D01*
X70843207Y-39104191D01*
X70840888Y-39102209D01*
X70842041Y-39099225D01*
X70845411Y-39092000D01*
X70850602Y-39081333D01*
X70857219Y-39068001D01*
X70864865Y-39052779D01*
X70873144Y-39036443D01*
X70881659Y-39019769D01*
X70890015Y-39003532D01*
X70897816Y-38988507D01*
X70904665Y-38975471D01*
X70910166Y-38965200D01*
X70913923Y-38958468D01*
X70915540Y-38956051D01*
X70917195Y-38956639D01*
X70923048Y-38959509D01*
X70931898Y-38964226D01*
X70942584Y-38970184D01*
X70965322Y-38982338D01*
X71004094Y-38999466D01*
X71041978Y-39011652D01*
X71078683Y-39018848D01*
X71113919Y-39021004D01*
X71147397Y-39018072D01*
X71178828Y-39010004D01*
X71188894Y-39005847D01*
X71209012Y-38993253D01*
X71226128Y-38976351D01*
X71239807Y-38955732D01*
X71249618Y-38931990D01*
X71255127Y-38905714D01*
X71256899Y-38890639D01*
X70807382Y-38890639D01*
X70801446Y-38868598D01*
X70800671Y-38865680D01*
X70793360Y-38832778D01*
X70788041Y-38798301D01*
X70784804Y-38763593D01*
X70783738Y-38729996D01*
X70783752Y-38729614D01*
X70986513Y-38729614D01*
X70987114Y-38741043D01*
X70989035Y-38751282D01*
X71233980Y-38751282D01*
X71232020Y-38743461D01*
X71227169Y-38731212D01*
X71218375Y-38716576D01*
X71206661Y-38700954D01*
X71192971Y-38685414D01*
X71178247Y-38671022D01*
X71163430Y-38658847D01*
X71149464Y-38649955D01*
X71134841Y-38643062D01*
X71109818Y-38634635D01*
X71085821Y-38630694D01*
X71063358Y-38631152D01*
X71042936Y-38635925D01*
X71025062Y-38644927D01*
X71010244Y-38658073D01*
X70998990Y-38675277D01*
X70995252Y-38684425D01*
X70990946Y-38699291D01*
X70987912Y-38715026D01*
X70986513Y-38729614D01*
X70783752Y-38729614D01*
X70784930Y-38698854D01*
X70788469Y-38671508D01*
X70789551Y-38666093D01*
X70799826Y-38629599D01*
X70814666Y-38595649D01*
X70833756Y-38564764D01*
X70856780Y-38537467D01*
X70883425Y-38514278D01*
X70904419Y-38500457D01*
X70937285Y-38484218D01*
X70973128Y-38471998D01*
X71011308Y-38463819D01*
X71051188Y-38459704D01*
X71092128Y-38459676D01*
X71133490Y-38463759D01*
X71174635Y-38471975D01*
X71214924Y-38484348D01*
X71253718Y-38500901D01*
X71287320Y-38519312D01*
X71326582Y-38546353D01*
X71361731Y-38577279D01*
X71392686Y-38611988D01*
X71419366Y-38650373D01*
X71441691Y-38692329D01*
X71459580Y-38737752D01*
X71463289Y-38751282D01*
X71472953Y-38786536D01*
X71474709Y-38794933D01*
G37*
G36*
X72607833Y-38460888D02*
G01*
X72649241Y-38466434D01*
X72688325Y-38475672D01*
X72724687Y-38488432D01*
X72757929Y-38504544D01*
X72787654Y-38523839D01*
X72813465Y-38546147D01*
X72834964Y-38571299D01*
X72851754Y-38599126D01*
X72861889Y-38623236D01*
X72870433Y-38654940D01*
X72873953Y-38686858D01*
X72872441Y-38718288D01*
X72865886Y-38748528D01*
X72854278Y-38776878D01*
X72850404Y-38783967D01*
X72837206Y-38803906D01*
X72821185Y-38822330D01*
X72801934Y-38839510D01*
X72779046Y-38855713D01*
X72752112Y-38871207D01*
X72720725Y-38886263D01*
X72684478Y-38901147D01*
X72642962Y-38916130D01*
X72620799Y-38923822D01*
X72597231Y-38932456D01*
X72578275Y-38940114D01*
X72563441Y-38947092D01*
X72552243Y-38953686D01*
X72544190Y-38960192D01*
X72538795Y-38966906D01*
X72535569Y-38974124D01*
X72534024Y-38982143D01*
X72533953Y-38989820D01*
X72537614Y-39001716D01*
X72546210Y-39011241D01*
X72559824Y-39018446D01*
X72578536Y-39023384D01*
X72602427Y-39026107D01*
X72624206Y-39026446D01*
X72661020Y-39022864D01*
X72698355Y-39014401D01*
X72735384Y-39001368D01*
X72771283Y-38984077D01*
X72805226Y-38962838D01*
X72836390Y-38937962D01*
X72836629Y-38937747D01*
X72844237Y-38931229D01*
X72850275Y-38926643D01*
X72853454Y-38924970D01*
X72854146Y-38925455D01*
X72858069Y-38929377D01*
X72864869Y-38936711D01*
X72873997Y-38946825D01*
X72884905Y-38959088D01*
X72897044Y-38972869D01*
X72909864Y-38987538D01*
X72922819Y-39002463D01*
X72935358Y-39017013D01*
X72946934Y-39030557D01*
X72956998Y-39042465D01*
X72965001Y-39052104D01*
X72970395Y-39058845D01*
X72972630Y-39062055D01*
X72972504Y-39063822D01*
X72968903Y-39069140D01*
X72961487Y-39076580D01*
X72950954Y-39085621D01*
X72938006Y-39095745D01*
X72923344Y-39106432D01*
X72907668Y-39117161D01*
X72891680Y-39127414D01*
X72876080Y-39136670D01*
X72861568Y-39144411D01*
X72834107Y-39156691D01*
X72797850Y-39169657D01*
X72760733Y-39179744D01*
X72725055Y-39186246D01*
X72723148Y-39186496D01*
X72711186Y-39188078D01*
X72700700Y-39189487D01*
X72693771Y-39190442D01*
X72693363Y-39190496D01*
X72685543Y-39190976D01*
X72673342Y-39191135D01*
X72657956Y-39191013D01*
X72640583Y-39190646D01*
X72622418Y-39190071D01*
X72604659Y-39189327D01*
X72588503Y-39188450D01*
X72575148Y-39187478D01*
X72565790Y-39186447D01*
X72545429Y-39182976D01*
X72503072Y-39172788D01*
X72464895Y-39159296D01*
X72431011Y-39142614D01*
X72401536Y-39122857D01*
X72376584Y-39100137D01*
X72356270Y-39074570D01*
X72340708Y-39046268D01*
X72330015Y-39015346D01*
X72324303Y-38981918D01*
X72323689Y-38946097D01*
X72324252Y-38937929D01*
X72328187Y-38911005D01*
X72335393Y-38886307D01*
X72346140Y-38863584D01*
X72360695Y-38842579D01*
X72379327Y-38823040D01*
X72402304Y-38804712D01*
X72429896Y-38787340D01*
X72462369Y-38770671D01*
X72499994Y-38754451D01*
X72543037Y-38738425D01*
X72568597Y-38729216D01*
X72594522Y-38719174D01*
X72616506Y-38709837D01*
X72634159Y-38701383D01*
X72647087Y-38693990D01*
X72654899Y-38687833D01*
X72657726Y-38684225D01*
X72662402Y-38672942D01*
X72663092Y-38660604D01*
X72659523Y-38649459D01*
X72656944Y-38645744D01*
X72646188Y-38636509D01*
X72631106Y-38629735D01*
X72612374Y-38625594D01*
X72590664Y-38624256D01*
X72566653Y-38625893D01*
X72556511Y-38627477D01*
X72533447Y-38632643D01*
X72508915Y-38639848D01*
X72485137Y-38648404D01*
X72464339Y-38657621D01*
X72457766Y-38661143D01*
X72445629Y-38668210D01*
X72431635Y-38676795D01*
X72417420Y-38685867D01*
X72404619Y-38694398D01*
X72394869Y-38701356D01*
X72394666Y-38701486D01*
X72391517Y-38700941D01*
X72385950Y-38696922D01*
X72377583Y-38689109D01*
X72366036Y-38677182D01*
X72356531Y-38667077D01*
X72335015Y-38644127D01*
X72317125Y-38624907D01*
X72302627Y-38609159D01*
X72291287Y-38596624D01*
X72282873Y-38587040D01*
X72277152Y-38580150D01*
X72273890Y-38575693D01*
X72272855Y-38573409D01*
X72274648Y-38569476D01*
X72280669Y-38562816D01*
X72290181Y-38554400D01*
X72302406Y-38544787D01*
X72316565Y-38534538D01*
X72331880Y-38524214D01*
X72347572Y-38514376D01*
X72362864Y-38505584D01*
X72376978Y-38498399D01*
X72403142Y-38487121D01*
X72431289Y-38477378D01*
X72460359Y-38470008D01*
X72491897Y-38464627D01*
X72527447Y-38460848D01*
X72564497Y-38459202D01*
X72607833Y-38460888D01*
G37*
G36*
X71901709Y-38848793D02*
G01*
X71907626Y-38849209D01*
X71940399Y-38854603D01*
X71970622Y-38864947D01*
X71997985Y-38880041D01*
X72022177Y-38899680D01*
X72042887Y-38923662D01*
X72059803Y-38951785D01*
X72064804Y-38962487D01*
X72073995Y-38988001D01*
X72079176Y-39014105D01*
X72080834Y-39042908D01*
X72080780Y-39048426D01*
X72077946Y-39077888D01*
X72070662Y-39104188D01*
X72058720Y-39127895D01*
X72041914Y-39149573D01*
X72031812Y-39159138D01*
X72013296Y-39172347D01*
X71992931Y-39182766D01*
X71972810Y-39189198D01*
X71963744Y-39190374D01*
X71949229Y-39190908D01*
X71932502Y-39190563D01*
X71915407Y-39189429D01*
X71899788Y-39187592D01*
X71887489Y-39185140D01*
X71876376Y-39181687D01*
X71848485Y-39169100D01*
X71822816Y-39151894D01*
X71800015Y-39130729D01*
X71780726Y-39106263D01*
X71765595Y-39079155D01*
X71755267Y-39050066D01*
X71750622Y-39026763D01*
X71748644Y-38996958D01*
X71751090Y-38968350D01*
X71757746Y-38941531D01*
X71768401Y-38917090D01*
X71782842Y-38895616D01*
X71800858Y-38877699D01*
X71822235Y-38863929D01*
X71839184Y-38856448D01*
X71858158Y-38850967D01*
X71878332Y-38848543D01*
X71901709Y-38848793D01*
G37*
G36*
X72354683Y-36216484D02*
G01*
X72396006Y-36222973D01*
X72437915Y-36233417D01*
X72490081Y-36250861D01*
X72543155Y-36273279D01*
X72596696Y-36300427D01*
X72650259Y-36332057D01*
X72703404Y-36367925D01*
X72755688Y-36407783D01*
X72806668Y-36451386D01*
X72810925Y-36455198D01*
X72821742Y-36464534D01*
X72831028Y-36472057D01*
X72837908Y-36477077D01*
X72841507Y-36478904D01*
X72841612Y-36478905D01*
X72842821Y-36478991D01*
X72843809Y-36478867D01*
X72844576Y-36478035D01*
X72845123Y-36475999D01*
X72845451Y-36472260D01*
X72845561Y-36466321D01*
X72845452Y-36457684D01*
X72845126Y-36445852D01*
X72844583Y-36430326D01*
X72843824Y-36410609D01*
X72842850Y-36386203D01*
X72841660Y-36356611D01*
X72841654Y-36356459D01*
X72840703Y-36332704D01*
X72839825Y-36310751D01*
X72839048Y-36291246D01*
X72838395Y-36274836D01*
X72837894Y-36262169D01*
X72837569Y-36253892D01*
X72837447Y-36250651D01*
X72837942Y-36250495D01*
X72842955Y-36250154D01*
X72852989Y-36249854D01*
X72867574Y-36249600D01*
X72886241Y-36249395D01*
X72908521Y-36249242D01*
X72933944Y-36249146D01*
X72962040Y-36249109D01*
X72992341Y-36249135D01*
X73024376Y-36249229D01*
X73211358Y-36249960D01*
X73352769Y-36970921D01*
X73361118Y-37013487D01*
X73373296Y-37075576D01*
X73385154Y-37136040D01*
X73396649Y-37194647D01*
X73407733Y-37251164D01*
X73418361Y-37305358D01*
X73428487Y-37356997D01*
X73438067Y-37405847D01*
X73447053Y-37451676D01*
X73455401Y-37494251D01*
X73463065Y-37533340D01*
X73469999Y-37568709D01*
X73476158Y-37600125D01*
X73481496Y-37627357D01*
X73485967Y-37650171D01*
X73489526Y-37668334D01*
X73492127Y-37681614D01*
X73493724Y-37689778D01*
X73494272Y-37692593D01*
X73493605Y-37692647D01*
X73488214Y-37692754D01*
X73477763Y-37692856D01*
X73462673Y-37692950D01*
X73443366Y-37693036D01*
X73420264Y-37693113D01*
X73393788Y-37693178D01*
X73364360Y-37693231D01*
X73332401Y-37693271D01*
X73298332Y-37693295D01*
X73262576Y-37693304D01*
X73244896Y-37693302D01*
X73209909Y-37693284D01*
X73176815Y-37693250D01*
X73146034Y-37693200D01*
X73117989Y-37693137D01*
X73093102Y-37693062D01*
X73071793Y-37692975D01*
X73054486Y-37692879D01*
X73041602Y-37692775D01*
X73033562Y-37692663D01*
X73030788Y-37692546D01*
X73030691Y-37692012D01*
X73029714Y-37686909D01*
X73027734Y-37676652D01*
X73024808Y-37661544D01*
X73020997Y-37641885D01*
X73016357Y-37617978D01*
X73010948Y-37590124D01*
X73004829Y-37558624D01*
X72998058Y-37523782D01*
X72990693Y-37485898D01*
X72982794Y-37445274D01*
X72974419Y-37402211D01*
X72965626Y-37357012D01*
X72956475Y-37309979D01*
X72947023Y-37261412D01*
X72863259Y-36831035D01*
X72842051Y-36804936D01*
X72832181Y-36793051D01*
X72797239Y-36754731D01*
X72760379Y-36719700D01*
X72722298Y-36688542D01*
X72683692Y-36661841D01*
X72645256Y-36640177D01*
X72621507Y-36629336D01*
X72589420Y-36617817D01*
X72558716Y-36610376D01*
X72529760Y-36606968D01*
X72502918Y-36607549D01*
X72478554Y-36612074D01*
X72457034Y-36620497D01*
X72438722Y-36632774D01*
X72423984Y-36648860D01*
X72413185Y-36668710D01*
X72410723Y-36675325D01*
X72408905Y-36681933D01*
X72407730Y-36689420D01*
X72407072Y-36698989D01*
X72406803Y-36711842D01*
X72406796Y-36729179D01*
X72406978Y-36773261D01*
X72499493Y-37233282D01*
X72592008Y-37693304D01*
X72360811Y-37693304D01*
X72331995Y-37693302D01*
X72293910Y-37693286D01*
X72260902Y-37693250D01*
X72232607Y-37693185D01*
X72208660Y-37693083D01*
X72188697Y-37692936D01*
X72172353Y-37692737D01*
X72159264Y-37692478D01*
X72149065Y-37692151D01*
X72141393Y-37691749D01*
X72135881Y-37691262D01*
X72132167Y-37690685D01*
X72129885Y-37690008D01*
X72128671Y-37689225D01*
X72128161Y-37688327D01*
X72128035Y-37687848D01*
X72126839Y-37682454D01*
X72124633Y-37671916D01*
X72121485Y-37656591D01*
X72117468Y-37636834D01*
X72112651Y-37612999D01*
X72107105Y-37585443D01*
X72100901Y-37554520D01*
X72094108Y-37520586D01*
X72086797Y-37483996D01*
X72079039Y-37445106D01*
X72070903Y-37404270D01*
X72062461Y-37361845D01*
X72053783Y-37318186D01*
X72044940Y-37273647D01*
X72036001Y-37228585D01*
X72027037Y-37183355D01*
X72018119Y-37138311D01*
X72009316Y-37093810D01*
X72000700Y-37050207D01*
X71992342Y-37007857D01*
X71984310Y-36967115D01*
X71976676Y-36928337D01*
X71969510Y-36891878D01*
X71962883Y-36858093D01*
X71956865Y-36827338D01*
X71951527Y-36799969D01*
X71946938Y-36776339D01*
X71943170Y-36756806D01*
X71940292Y-36741724D01*
X71938376Y-36731448D01*
X71937491Y-36726335D01*
X71932062Y-36682222D01*
X71927908Y-36624309D01*
X71927654Y-36570158D01*
X71931293Y-36519849D01*
X71938818Y-36473467D01*
X71950223Y-36431092D01*
X71965500Y-36392807D01*
X71982488Y-36361721D01*
X72006235Y-36328935D01*
X72034096Y-36300044D01*
X72065984Y-36275124D01*
X72101812Y-36254251D01*
X72141494Y-36237503D01*
X72144029Y-36236621D01*
X72182278Y-36225835D01*
X72223794Y-36218353D01*
X72267251Y-36214250D01*
X72311323Y-36213602D01*
X72354683Y-36216484D01*
G37*
G36*
X74438185Y-38794933D02*
G01*
X74439885Y-38804729D01*
X74441107Y-38814781D01*
X74441924Y-38826173D01*
X74442409Y-38839993D01*
X74442636Y-38857328D01*
X74442678Y-38879263D01*
X74442629Y-38895190D01*
X74442421Y-38913815D01*
X74441988Y-38928523D01*
X74441257Y-38940356D01*
X74440158Y-38950356D01*
X74438620Y-38959563D01*
X74436573Y-38969019D01*
X74436045Y-38971242D01*
X74423818Y-39011636D01*
X74407533Y-39048049D01*
X74387222Y-39080452D01*
X74362919Y-39108819D01*
X74334654Y-39133122D01*
X74302459Y-39153333D01*
X74266367Y-39169424D01*
X74226410Y-39181368D01*
X74182619Y-39189137D01*
X74170345Y-39190149D01*
X74152794Y-39190738D01*
X74132143Y-39190830D01*
X74109725Y-39190460D01*
X74086873Y-39189664D01*
X74064920Y-39188477D01*
X74045198Y-39186934D01*
X74029041Y-39185071D01*
X74015023Y-39182868D01*
X73973415Y-39174330D01*
X73932630Y-39163108D01*
X73894241Y-39149672D01*
X73859822Y-39134493D01*
X73854427Y-39131741D01*
X73843776Y-39126042D01*
X73832561Y-39119789D01*
X73821897Y-39113630D01*
X73812899Y-39108214D01*
X73806683Y-39104191D01*
X73804363Y-39102209D01*
X73805517Y-39099225D01*
X73808886Y-39092000D01*
X73814078Y-39081333D01*
X73820694Y-39068001D01*
X73828340Y-39052779D01*
X73836619Y-39036443D01*
X73845135Y-39019769D01*
X73853491Y-39003532D01*
X73861292Y-38988507D01*
X73868141Y-38975471D01*
X73873642Y-38965200D01*
X73877399Y-38958468D01*
X73879015Y-38956051D01*
X73880670Y-38956639D01*
X73886523Y-38959509D01*
X73895373Y-38964226D01*
X73906059Y-38970184D01*
X73928797Y-38982338D01*
X73967570Y-38999466D01*
X74005453Y-39011652D01*
X74042158Y-39018848D01*
X74077395Y-39021004D01*
X74110873Y-39018072D01*
X74142304Y-39010004D01*
X74152370Y-39005847D01*
X74172488Y-38993253D01*
X74189603Y-38976351D01*
X74203283Y-38955732D01*
X74213093Y-38931990D01*
X74218602Y-38905714D01*
X74220374Y-38890639D01*
X73770858Y-38890639D01*
X73764921Y-38868598D01*
X73764147Y-38865680D01*
X73756835Y-38832778D01*
X73751516Y-38798301D01*
X73748280Y-38763593D01*
X73747213Y-38729996D01*
X73747227Y-38729614D01*
X73949989Y-38729614D01*
X73950590Y-38741043D01*
X73952510Y-38751282D01*
X74197455Y-38751282D01*
X74195495Y-38743461D01*
X74190645Y-38731212D01*
X74181850Y-38716576D01*
X74170137Y-38700954D01*
X74156447Y-38685414D01*
X74141722Y-38671022D01*
X74126906Y-38658847D01*
X74112940Y-38649955D01*
X74098316Y-38643062D01*
X74073293Y-38634635D01*
X74049297Y-38630694D01*
X74026834Y-38631152D01*
X74006412Y-38635925D01*
X73988538Y-38644927D01*
X73973720Y-38658073D01*
X73962465Y-38675277D01*
X73958727Y-38684425D01*
X73954421Y-38699291D01*
X73951387Y-38715026D01*
X73949989Y-38729614D01*
X73747227Y-38729614D01*
X73748405Y-38698854D01*
X73751944Y-38671508D01*
X73753026Y-38666093D01*
X73763302Y-38629599D01*
X73778142Y-38595649D01*
X73797231Y-38564764D01*
X73820256Y-38537467D01*
X73846901Y-38514278D01*
X73867895Y-38500457D01*
X73900761Y-38484218D01*
X73936603Y-38471998D01*
X73974784Y-38463819D01*
X74014663Y-38459704D01*
X74055604Y-38459676D01*
X74096965Y-38463759D01*
X74138110Y-38471975D01*
X74178399Y-38484348D01*
X74217194Y-38500901D01*
X74250796Y-38519312D01*
X74290058Y-38546353D01*
X74325206Y-38577279D01*
X74356161Y-38611988D01*
X74382841Y-38650373D01*
X74405166Y-38692329D01*
X74423056Y-38737752D01*
X74426765Y-38751282D01*
X74436429Y-38786536D01*
X74438185Y-38794933D01*
G37*
G36*
X73217952Y-38641076D02*
G01*
X73219132Y-38643366D01*
X73241474Y-38686846D01*
X73261410Y-38725851D01*
X73279195Y-38760899D01*
X73295084Y-38792509D01*
X73309335Y-38821198D01*
X73322202Y-38847486D01*
X73333941Y-38871890D01*
X73344809Y-38894929D01*
X73355060Y-38917122D01*
X73364952Y-38938987D01*
X73369930Y-38950008D01*
X73374570Y-38960080D01*
X73377917Y-38967116D01*
X73379465Y-38970035D01*
X73380711Y-38970531D01*
X73381936Y-38968862D01*
X73383203Y-38964410D01*
X73384615Y-38956598D01*
X73386276Y-38944851D01*
X73388289Y-38928595D01*
X73390758Y-38907253D01*
X73392964Y-38888304D01*
X73395945Y-38863783D01*
X73399100Y-38838749D01*
X73402170Y-38815257D01*
X73404896Y-38795364D01*
X73405456Y-38791454D01*
X73407723Y-38776213D01*
X73410591Y-38757578D01*
X73413959Y-38736152D01*
X73417729Y-38712534D01*
X73421799Y-38687325D01*
X73426071Y-38661126D01*
X73430445Y-38634538D01*
X73434819Y-38608161D01*
X73439096Y-38582595D01*
X73443174Y-38558442D01*
X73446953Y-38536302D01*
X73450334Y-38516776D01*
X73453218Y-38500464D01*
X73455503Y-38487966D01*
X73457090Y-38479885D01*
X73457880Y-38476819D01*
X73457941Y-38476785D01*
X73461549Y-38476477D01*
X73470149Y-38476232D01*
X73483106Y-38476053D01*
X73499787Y-38475944D01*
X73519559Y-38475911D01*
X73541786Y-38475957D01*
X73565836Y-38476087D01*
X73672315Y-38476833D01*
X73596248Y-38822908D01*
X73520182Y-39168983D01*
X73532081Y-39189787D01*
X73539342Y-39201254D01*
X73552638Y-39218356D01*
X73567558Y-39233953D01*
X73582856Y-39246788D01*
X73597284Y-39255601D01*
X73618329Y-39263672D01*
X73647708Y-39269977D01*
X73678720Y-39271632D01*
X73710390Y-39268602D01*
X73741741Y-39260851D01*
X73749454Y-39258435D01*
X73759843Y-39255588D01*
X73767372Y-39254042D01*
X73770786Y-39254088D01*
X73770855Y-39254174D01*
X73772634Y-39257763D01*
X73776214Y-39265860D01*
X73781301Y-39277769D01*
X73787600Y-39292795D01*
X73794818Y-39310242D01*
X73802658Y-39329413D01*
X73832451Y-39402659D01*
X73816274Y-39410748D01*
X73802224Y-39417218D01*
X73778472Y-39425703D01*
X73751371Y-39432455D01*
X73750365Y-39432656D01*
X73736597Y-39434444D01*
X73718670Y-39435509D01*
X73697938Y-39435885D01*
X73675755Y-39435607D01*
X73653475Y-39434709D01*
X73632452Y-39433225D01*
X73614040Y-39431188D01*
X73599593Y-39428633D01*
X73576942Y-39422706D01*
X73536953Y-39408694D01*
X73499414Y-39390564D01*
X73463985Y-39368058D01*
X73430321Y-39340916D01*
X73398082Y-39308878D01*
X73366925Y-39271685D01*
X73336508Y-39229078D01*
X73333391Y-39224156D01*
X73327100Y-39213767D01*
X73318335Y-39198989D01*
X73307276Y-39180137D01*
X73294105Y-39157525D01*
X73279002Y-39131466D01*
X73262149Y-39102275D01*
X73243726Y-39070266D01*
X73223914Y-39035752D01*
X73202894Y-38999047D01*
X73180847Y-38960466D01*
X73157954Y-38920323D01*
X73134396Y-38878930D01*
X73110353Y-38836602D01*
X73087939Y-38797103D01*
X73065030Y-38756733D01*
X73043036Y-38717976D01*
X73022114Y-38681109D01*
X73002422Y-38646410D01*
X72984118Y-38614158D01*
X72967359Y-38584629D01*
X72952303Y-38558102D01*
X72939108Y-38534855D01*
X72927931Y-38515166D01*
X72918931Y-38499313D01*
X72912265Y-38487572D01*
X72908090Y-38480224D01*
X72906565Y-38477544D01*
X72906818Y-38477376D01*
X72911155Y-38476922D01*
X72920375Y-38476507D01*
X72933887Y-38476143D01*
X72951096Y-38475840D01*
X72971409Y-38475609D01*
X72994232Y-38475462D01*
X73018972Y-38475411D01*
X73132630Y-38475411D01*
X73217952Y-38641076D01*
G37*
G36*
X70261819Y-38679470D02*
G01*
X70267543Y-38708911D01*
X70273884Y-38741193D01*
X70279927Y-38771621D01*
X70285576Y-38799727D01*
X70290736Y-38825045D01*
X70295311Y-38847108D01*
X70299204Y-38865450D01*
X70302320Y-38879604D01*
X70304563Y-38889104D01*
X70305837Y-38893483D01*
X70306232Y-38894283D01*
X70311070Y-38901359D01*
X70319205Y-38911075D01*
X70329735Y-38922528D01*
X70341757Y-38934817D01*
X70354371Y-38947042D01*
X70366673Y-38958301D01*
X70377763Y-38967693D01*
X70386738Y-38974316D01*
X70392965Y-38978206D01*
X70415358Y-38989770D01*
X70436831Y-38997223D01*
X70456899Y-39000624D01*
X70475079Y-39000027D01*
X70490887Y-38995492D01*
X70503838Y-38987073D01*
X70513449Y-38974827D01*
X70519235Y-38958812D01*
X70519782Y-38955826D01*
X70520139Y-38952593D01*
X70520236Y-38948745D01*
X70520007Y-38943900D01*
X70519384Y-38937677D01*
X70518303Y-38929694D01*
X70516696Y-38919570D01*
X70514497Y-38906922D01*
X70511640Y-38891369D01*
X70508059Y-38872530D01*
X70503686Y-38850023D01*
X70498457Y-38823466D01*
X70492304Y-38792478D01*
X70485161Y-38756677D01*
X70476961Y-38715682D01*
X70473678Y-38699278D01*
X70466744Y-38664660D01*
X70460149Y-38631758D01*
X70453978Y-38601001D01*
X70448318Y-38572818D01*
X70443254Y-38547639D01*
X70438875Y-38525892D01*
X70435265Y-38508007D01*
X70432511Y-38494412D01*
X70430699Y-38485537D01*
X70429916Y-38481810D01*
X70428395Y-38475411D01*
X70540789Y-38475411D01*
X70548449Y-38475413D01*
X70572601Y-38475440D01*
X70594700Y-38475499D01*
X70614139Y-38475584D01*
X70630312Y-38475693D01*
X70642615Y-38475822D01*
X70650441Y-38475966D01*
X70653185Y-38476122D01*
X70653422Y-38477370D01*
X70654657Y-38483630D01*
X70656876Y-38494790D01*
X70659999Y-38510442D01*
X70663942Y-38530178D01*
X70668624Y-38553589D01*
X70673963Y-38580266D01*
X70679879Y-38609801D01*
X70686288Y-38641785D01*
X70693109Y-38675809D01*
X70700261Y-38711465D01*
X70704463Y-38732413D01*
X70712305Y-38771551D01*
X70719133Y-38805740D01*
X70725020Y-38835401D01*
X70730040Y-38860956D01*
X70734266Y-38882826D01*
X70737772Y-38901433D01*
X70740631Y-38917198D01*
X70742916Y-38930544D01*
X70744700Y-38941891D01*
X70746057Y-38951662D01*
X70747061Y-38960277D01*
X70747784Y-38968159D01*
X70748300Y-38975729D01*
X70748682Y-38983409D01*
X70749004Y-38991620D01*
X70749262Y-38999872D01*
X70749261Y-39026598D01*
X70747658Y-39049326D01*
X70744268Y-39069249D01*
X70738908Y-39087562D01*
X70731391Y-39105459D01*
X70728338Y-39111484D01*
X70712662Y-39134914D01*
X70692853Y-39154581D01*
X70669170Y-39170304D01*
X70641871Y-39181905D01*
X70611215Y-39189203D01*
X70609230Y-39189496D01*
X70591143Y-39190938D01*
X70569995Y-39190955D01*
X70547924Y-39189664D01*
X70527066Y-39187183D01*
X70509559Y-39183629D01*
X70506038Y-39182657D01*
X70473214Y-39171023D01*
X70438947Y-39154499D01*
X70403834Y-39133439D01*
X70368471Y-39108197D01*
X70333455Y-39079127D01*
X70331407Y-39077319D01*
X70323422Y-39070606D01*
X70317211Y-39065899D01*
X70313977Y-39064124D01*
X70313931Y-39064129D01*
X70313001Y-39067100D01*
X70312631Y-39075327D01*
X70312811Y-39088420D01*
X70313530Y-39105989D01*
X70314776Y-39127646D01*
X70316538Y-39153000D01*
X70318179Y-39175042D01*
X70226062Y-39175042D01*
X70201010Y-39175021D01*
X70181040Y-39174941D01*
X70165568Y-39174769D01*
X70154010Y-39174475D01*
X70145782Y-39174027D01*
X70140298Y-39173393D01*
X70136974Y-39172542D01*
X70135226Y-39171443D01*
X70134469Y-39170064D01*
X70133722Y-39166625D01*
X70131972Y-39158038D01*
X70129302Y-39144720D01*
X70125793Y-39127084D01*
X70121525Y-39105542D01*
X70116579Y-39080507D01*
X70111035Y-39052390D01*
X70104975Y-39021605D01*
X70098479Y-38988563D01*
X70091627Y-38953678D01*
X70084502Y-38917362D01*
X70077182Y-38880027D01*
X70069750Y-38842086D01*
X70062286Y-38803952D01*
X70054870Y-38766036D01*
X70047583Y-38728751D01*
X70040507Y-38692510D01*
X70033721Y-38657725D01*
X70027307Y-38624809D01*
X70021345Y-38594175D01*
X70015916Y-38566234D01*
X70011101Y-38541399D01*
X70006980Y-38520082D01*
X70003634Y-38502697D01*
X70001144Y-38489655D01*
X69999591Y-38481370D01*
X69999056Y-38478253D01*
X69999577Y-38477895D01*
X70004795Y-38477150D01*
X70015511Y-38476533D01*
X70031592Y-38476047D01*
X70052904Y-38475696D01*
X70079316Y-38475483D01*
X70110694Y-38475411D01*
X70222332Y-38475411D01*
X70261819Y-38679470D01*
G37*
G36*
X76642858Y-38217287D02*
G01*
X76642854Y-38343467D01*
X76642846Y-38469398D01*
X76642835Y-38594952D01*
X76642820Y-38719998D01*
X76642803Y-38844407D01*
X76642782Y-38968050D01*
X76642758Y-39090797D01*
X76642730Y-39212518D01*
X76642701Y-39333085D01*
X76642667Y-39452367D01*
X76642630Y-39570235D01*
X76642589Y-39686559D01*
X76642546Y-39801211D01*
X76642499Y-39914060D01*
X76642448Y-40024977D01*
X76642395Y-40133832D01*
X76642338Y-40240496D01*
X76642278Y-40344840D01*
X76642215Y-40446733D01*
X76642149Y-40546047D01*
X76642079Y-40642652D01*
X76642006Y-40736418D01*
X76641930Y-40827216D01*
X76641850Y-40914916D01*
X76641768Y-40999389D01*
X76641682Y-41080505D01*
X76641592Y-41158135D01*
X76641500Y-41232149D01*
X76641404Y-41302418D01*
X76641305Y-41368812D01*
X76641203Y-41431202D01*
X76641097Y-41489457D01*
X76640989Y-41543450D01*
X76640877Y-41593050D01*
X76640761Y-41638127D01*
X76640643Y-41678552D01*
X76640521Y-41714196D01*
X76640396Y-41744929D01*
X76640268Y-41770621D01*
X76640136Y-41791144D01*
X76640001Y-41806366D01*
X76639893Y-41814021D01*
X76639863Y-41816160D01*
X76639722Y-41820396D01*
X76638148Y-41834234D01*
X76629082Y-41886514D01*
X76615440Y-41936954D01*
X76614441Y-41939974D01*
X76606179Y-41961789D01*
X76595428Y-41986274D01*
X76583006Y-42011811D01*
X76569730Y-42036784D01*
X76556418Y-42059574D01*
X76555465Y-42061017D01*
X76543886Y-42078565D01*
X76536718Y-42088153D01*
X76520861Y-42107558D01*
X76502709Y-42127999D01*
X76483616Y-42148028D01*
X76464937Y-42166199D01*
X76448025Y-42181062D01*
X76429366Y-42195602D01*
X76385406Y-42225005D01*
X76338633Y-42250120D01*
X76289830Y-42270599D01*
X76239777Y-42286093D01*
X76189255Y-42296256D01*
X76188897Y-42296302D01*
X76186477Y-42296487D01*
X76182475Y-42296666D01*
X76176806Y-42296839D01*
X76169384Y-42297005D01*
X76160123Y-42297166D01*
X76148939Y-42297321D01*
X76135745Y-42297471D01*
X76120457Y-42297614D01*
X76102987Y-42297752D01*
X76083252Y-42297885D01*
X76061165Y-42298012D01*
X76036640Y-42298134D01*
X76009593Y-42298250D01*
X75979938Y-42298361D01*
X75947588Y-42298467D01*
X75912460Y-42298569D01*
X75874466Y-42298665D01*
X75833522Y-42298756D01*
X75789541Y-42298843D01*
X75742439Y-42298924D01*
X75692130Y-42299002D01*
X75638529Y-42299074D01*
X75581549Y-42299142D01*
X75521105Y-42299206D01*
X75457112Y-42299266D01*
X75389484Y-42299321D01*
X75318135Y-42299372D01*
X75242981Y-42299419D01*
X75163935Y-42299462D01*
X75080911Y-42299502D01*
X74993826Y-42299537D01*
X74902592Y-42299569D01*
X74807124Y-42299597D01*
X74707337Y-42299621D01*
X74603145Y-42299642D01*
X74494463Y-42299660D01*
X74381205Y-42299674D01*
X74263286Y-42299685D01*
X74140619Y-42299693D01*
X74013120Y-42299697D01*
X73880703Y-42299699D01*
X73743282Y-42299698D01*
X73600771Y-42299694D01*
X73453087Y-42299687D01*
X73300141Y-42299677D01*
X73141850Y-42299665D01*
X72978128Y-42299651D01*
X72808888Y-42299633D01*
X72634046Y-42299614D01*
X69104609Y-42299205D01*
X69073481Y-42292596D01*
X69029526Y-42281441D01*
X68977229Y-42263081D01*
X68927710Y-42239924D01*
X68881214Y-42212174D01*
X68837987Y-42180039D01*
X68798272Y-42143725D01*
X68762315Y-42103438D01*
X68733085Y-42063139D01*
X69396122Y-42063139D01*
X69396324Y-42063155D01*
X69400647Y-42063215D01*
X69410515Y-42063274D01*
X69425815Y-42063333D01*
X69446436Y-42063390D01*
X69472264Y-42063447D01*
X69503187Y-42063504D01*
X69539091Y-42063559D01*
X69579865Y-42063613D01*
X69625396Y-42063667D01*
X69675571Y-42063719D01*
X69730277Y-42063770D01*
X69789402Y-42063821D01*
X69852833Y-42063870D01*
X69920457Y-42063918D01*
X69992162Y-42063964D01*
X70067834Y-42064009D01*
X70147363Y-42064053D01*
X70230634Y-42064096D01*
X70317534Y-42064137D01*
X70407953Y-42064176D01*
X70501776Y-42064214D01*
X70598891Y-42064250D01*
X70699185Y-42064285D01*
X70802546Y-42064318D01*
X70908861Y-42064349D01*
X71018017Y-42064379D01*
X71129902Y-42064406D01*
X71244403Y-42064432D01*
X71361408Y-42064455D01*
X71480803Y-42064477D01*
X71602476Y-42064496D01*
X71726314Y-42064514D01*
X71852205Y-42064529D01*
X71980036Y-42064542D01*
X72109695Y-42064553D01*
X72241068Y-42064561D01*
X72374043Y-42064567D01*
X72508507Y-42064571D01*
X72644349Y-42064572D01*
X72702172Y-42064572D01*
X72869356Y-42064570D01*
X73030965Y-42064566D01*
X73187080Y-42064560D01*
X73337786Y-42064552D01*
X73483166Y-42064540D01*
X73623304Y-42064527D01*
X73758283Y-42064510D01*
X73888187Y-42064491D01*
X74013099Y-42064469D01*
X74133102Y-42064445D01*
X74248281Y-42064417D01*
X74358719Y-42064386D01*
X74464498Y-42064351D01*
X74565704Y-42064314D01*
X74662418Y-42064273D01*
X74754725Y-42064229D01*
X74842709Y-42064181D01*
X74926452Y-42064129D01*
X75006038Y-42064074D01*
X75081551Y-42064015D01*
X75153074Y-42063951D01*
X75220691Y-42063884D01*
X75284485Y-42063813D01*
X75344540Y-42063738D01*
X75400938Y-42063658D01*
X75453765Y-42063574D01*
X75503103Y-42063485D01*
X75549035Y-42063392D01*
X75591645Y-42063294D01*
X75631018Y-42063191D01*
X75667235Y-42063083D01*
X75700381Y-42062971D01*
X75730539Y-42062853D01*
X75757793Y-42062731D01*
X75782226Y-42062603D01*
X75803922Y-42062470D01*
X75822963Y-42062331D01*
X75839435Y-42062187D01*
X75853420Y-42062038D01*
X75865001Y-42061882D01*
X75874263Y-42061721D01*
X75881288Y-42061554D01*
X75886160Y-42061381D01*
X75888963Y-42061202D01*
X75889780Y-42061017D01*
X75889768Y-42061001D01*
X75887671Y-42058223D01*
X75882347Y-42051139D01*
X75873975Y-42039989D01*
X75862733Y-42025010D01*
X75848800Y-42006440D01*
X75832354Y-41984518D01*
X75813575Y-41959481D01*
X75792641Y-41931569D01*
X75769730Y-41901018D01*
X75745020Y-41868068D01*
X75718692Y-41832955D01*
X75690922Y-41795919D01*
X75661891Y-41757198D01*
X75631775Y-41717030D01*
X75600755Y-41675652D01*
X75314525Y-41293841D01*
X72644703Y-41293885D01*
X72571331Y-41293887D01*
X72449027Y-41293894D01*
X72328180Y-41293905D01*
X72208913Y-41293920D01*
X72091352Y-41293939D01*
X71975620Y-41293963D01*
X71861842Y-41293990D01*
X71750143Y-41294021D01*
X71640646Y-41294055D01*
X71533478Y-41294094D01*
X71428761Y-41294135D01*
X71326621Y-41294180D01*
X71227181Y-41294229D01*
X71130567Y-41294280D01*
X71036903Y-41294335D01*
X70946313Y-41294392D01*
X70858921Y-41294453D01*
X70774853Y-41294516D01*
X70694233Y-41294582D01*
X70617184Y-41294651D01*
X70543833Y-41294722D01*
X70474302Y-41294795D01*
X70408717Y-41294871D01*
X70347202Y-41294949D01*
X70289881Y-41295029D01*
X70236880Y-41295111D01*
X70188321Y-41295194D01*
X70144331Y-41295280D01*
X70105033Y-41295367D01*
X70070552Y-41295456D01*
X70041012Y-41295547D01*
X70016537Y-41295639D01*
X69997253Y-41295732D01*
X69983284Y-41295826D01*
X69974753Y-41295921D01*
X69971787Y-41296018D01*
X69970786Y-41297208D01*
X69966601Y-41302586D01*
X69959379Y-41312026D01*
X69949333Y-41325240D01*
X69936681Y-41341943D01*
X69921636Y-41361847D01*
X69904415Y-41384665D01*
X69885232Y-41410110D01*
X69864303Y-41437896D01*
X69841842Y-41467736D01*
X69818067Y-41499343D01*
X69793190Y-41532429D01*
X69767429Y-41566709D01*
X69740998Y-41601894D01*
X69714112Y-41637699D01*
X69686987Y-41673836D01*
X69659839Y-41710019D01*
X69632881Y-41745961D01*
X69606330Y-41781374D01*
X69580401Y-41815972D01*
X69555309Y-41849468D01*
X69531270Y-41881575D01*
X69508498Y-41912006D01*
X69487209Y-41940474D01*
X69467619Y-41966693D01*
X69449942Y-41990376D01*
X69434394Y-42011235D01*
X69421190Y-42028984D01*
X69410546Y-42043335D01*
X69402676Y-42054003D01*
X69397797Y-42060700D01*
X69396122Y-42063139D01*
X68733085Y-42063139D01*
X68730361Y-42059384D01*
X68702655Y-42011769D01*
X68679441Y-41960799D01*
X68677501Y-41955709D01*
X68671589Y-41938182D01*
X68665445Y-41917464D01*
X68659554Y-41895351D01*
X68654405Y-41873636D01*
X68650484Y-41854114D01*
X68650367Y-41853131D01*
X68650189Y-41850329D01*
X68650017Y-41845904D01*
X68649851Y-41839773D01*
X68649689Y-41831852D01*
X68649534Y-41822060D01*
X68649383Y-41810312D01*
X68649291Y-41801500D01*
X68885619Y-41801500D01*
X68886062Y-41817142D01*
X68886168Y-41819165D01*
X68887681Y-41830297D01*
X68890534Y-41843718D01*
X68894220Y-41856958D01*
X68908777Y-41893975D01*
X68928353Y-41929229D01*
X68952240Y-41961349D01*
X68980032Y-41989920D01*
X69011324Y-42014527D01*
X69045713Y-42034754D01*
X69082794Y-42050189D01*
X69091344Y-42052973D01*
X69098769Y-42055190D01*
X69102502Y-42056040D01*
X69102514Y-42056035D01*
X69104517Y-42053591D01*
X69109713Y-42046883D01*
X69117895Y-42036186D01*
X69128856Y-42021776D01*
X69142391Y-42003926D01*
X69158291Y-41982913D01*
X69176350Y-41959012D01*
X69196361Y-41932497D01*
X69218118Y-41903645D01*
X69241414Y-41872729D01*
X69266041Y-41840026D01*
X69291793Y-41805810D01*
X69318463Y-41770357D01*
X69345845Y-41733941D01*
X69373731Y-41696838D01*
X69401915Y-41659324D01*
X69430190Y-41621672D01*
X69458349Y-41584159D01*
X69486186Y-41547060D01*
X69513493Y-41510649D01*
X69540063Y-41475202D01*
X69565691Y-41440994D01*
X69590169Y-41408300D01*
X69613289Y-41377395D01*
X69634847Y-41348555D01*
X69654634Y-41322054D01*
X69672443Y-41298169D01*
X69688069Y-41277173D01*
X69701304Y-41259342D01*
X69709194Y-41248693D01*
X75579036Y-41248693D01*
X75579368Y-41249246D01*
X75582502Y-41253675D01*
X75588799Y-41262322D01*
X75598089Y-41274956D01*
X75610199Y-41291346D01*
X75624958Y-41311261D01*
X75642193Y-41334472D01*
X75661733Y-41360746D01*
X75683406Y-41389853D01*
X75707040Y-41421562D01*
X75732464Y-41455643D01*
X75759505Y-41491864D01*
X75787991Y-41529994D01*
X75817751Y-41569803D01*
X75848613Y-41611060D01*
X75880405Y-41653534D01*
X75894573Y-41672451D01*
X75926014Y-41714392D01*
X75956488Y-41754987D01*
X75985820Y-41794008D01*
X76013836Y-41831224D01*
X76040362Y-41866407D01*
X76065225Y-41899326D01*
X76088250Y-41929753D01*
X76109264Y-41957458D01*
X76128092Y-41982212D01*
X76144561Y-42003785D01*
X76158497Y-42021947D01*
X76169725Y-42036469D01*
X76178072Y-42047122D01*
X76183364Y-42053676D01*
X76185427Y-42055902D01*
X76186111Y-42055828D01*
X76192030Y-42054263D01*
X76201404Y-42051091D01*
X76212786Y-42046862D01*
X76224733Y-42042129D01*
X76235799Y-42037443D01*
X76244538Y-42033355D01*
X76255119Y-42027505D01*
X76277463Y-42012565D01*
X76300166Y-41994376D01*
X76321832Y-41974194D01*
X76341062Y-41953273D01*
X76356458Y-41932870D01*
X76363892Y-41920800D01*
X76375111Y-41899456D01*
X76385045Y-41876826D01*
X76393140Y-41854350D01*
X76398841Y-41833471D01*
X76401592Y-41815630D01*
X76401595Y-41815575D01*
X76401618Y-41814021D01*
X76401383Y-41812265D01*
X76400740Y-41810098D01*
X76399539Y-41807314D01*
X76397630Y-41803705D01*
X76394862Y-41799066D01*
X76391086Y-41793188D01*
X76386150Y-41785865D01*
X76379905Y-41776890D01*
X76372199Y-41766057D01*
X76362884Y-41753157D01*
X76351808Y-41737984D01*
X76338821Y-41720331D01*
X76323774Y-41699991D01*
X76306514Y-41676757D01*
X76286894Y-41650422D01*
X76264761Y-41620780D01*
X76239966Y-41587622D01*
X76212358Y-41550743D01*
X76181787Y-41509935D01*
X76148103Y-41464991D01*
X76111156Y-41415705D01*
X75819930Y-41027247D01*
X75800895Y-41056026D01*
X75799936Y-41057474D01*
X75789472Y-41072964D01*
X75780148Y-41085941D01*
X75770908Y-41097688D01*
X75760695Y-41109487D01*
X75748455Y-41122622D01*
X75733132Y-41138376D01*
X75724278Y-41147110D01*
X75699124Y-41169670D01*
X75671919Y-41191277D01*
X75643966Y-41210987D01*
X75616572Y-41227858D01*
X75591042Y-41240948D01*
X75587369Y-41242715D01*
X75581394Y-41246244D01*
X75579154Y-41248570D01*
X75579036Y-41248693D01*
X69709194Y-41248693D01*
X69709286Y-41248570D01*
X69688645Y-41238175D01*
X69679577Y-41233496D01*
X69633098Y-41205754D01*
X69589584Y-41173353D01*
X69549489Y-41136699D01*
X69513270Y-41096203D01*
X69481382Y-41052273D01*
X69479405Y-41049248D01*
X69472736Y-41039513D01*
X69468150Y-41033939D01*
X69465051Y-41031895D01*
X69462842Y-41032756D01*
X69462820Y-41032780D01*
X69460607Y-41035634D01*
X69455169Y-41042789D01*
X69446687Y-41054008D01*
X69435338Y-41069053D01*
X69421302Y-41087686D01*
X69404757Y-41109669D01*
X69385883Y-41134763D01*
X69364859Y-41162731D01*
X69341862Y-41193335D01*
X69317074Y-41226337D01*
X69290671Y-41261498D01*
X69262834Y-41298581D01*
X69233741Y-41337347D01*
X69203571Y-41377559D01*
X69172504Y-41418978D01*
X68885619Y-41801500D01*
X68649291Y-41801500D01*
X68649238Y-41796526D01*
X68649098Y-41780619D01*
X68648963Y-41762507D01*
X68648833Y-41742109D01*
X68648707Y-41719342D01*
X68648587Y-41694121D01*
X68648471Y-41666364D01*
X68648360Y-41635989D01*
X68648253Y-41602912D01*
X68648151Y-41567050D01*
X68648053Y-41528320D01*
X68647959Y-41486640D01*
X68647870Y-41441927D01*
X68647784Y-41394097D01*
X68647703Y-41343067D01*
X68647626Y-41288755D01*
X68647552Y-41231078D01*
X68647482Y-41169953D01*
X68647416Y-41105296D01*
X68647354Y-41037025D01*
X68647295Y-40965057D01*
X68647239Y-40889308D01*
X68647187Y-40809697D01*
X68647138Y-40726140D01*
X68647093Y-40638553D01*
X68647050Y-40546855D01*
X68647011Y-40450962D01*
X68646974Y-40350791D01*
X68646940Y-40246259D01*
X68646909Y-40137283D01*
X68646881Y-40023781D01*
X68646855Y-39905669D01*
X68646832Y-39782865D01*
X68646812Y-39655284D01*
X68646793Y-39522846D01*
X68646777Y-39385466D01*
X68646763Y-39243061D01*
X68646752Y-39095549D01*
X68646742Y-38942847D01*
X68646734Y-38784871D01*
X68646728Y-38621540D01*
X68646724Y-38452769D01*
X68646722Y-38278476D01*
X68646721Y-38098578D01*
X68646721Y-35672463D01*
X68881793Y-35672463D01*
X68881794Y-35770543D01*
X68881795Y-35871861D01*
X68881799Y-35976307D01*
X68881803Y-36083771D01*
X68881810Y-36194143D01*
X68881818Y-36307314D01*
X68881827Y-36423174D01*
X68881838Y-36541613D01*
X68881851Y-36662521D01*
X68881865Y-36785790D01*
X68881881Y-36911308D01*
X68881898Y-37038967D01*
X68881917Y-37168657D01*
X68881937Y-37300268D01*
X68881959Y-37433690D01*
X68881983Y-37568813D01*
X68882008Y-37705529D01*
X68882035Y-37843726D01*
X68882063Y-37983296D01*
X68882775Y-41411196D01*
X69139449Y-41068439D01*
X69396122Y-40725682D01*
X69396122Y-37605776D01*
X69632176Y-37605776D01*
X69632176Y-40790977D01*
X69638059Y-40819842D01*
X69640080Y-40829044D01*
X69652087Y-40868031D01*
X69668958Y-40904377D01*
X69690408Y-40937782D01*
X69716152Y-40967943D01*
X69745904Y-40994561D01*
X69779379Y-41017333D01*
X69816291Y-41035958D01*
X69856356Y-41050137D01*
X69878185Y-41056365D01*
X72635468Y-41056880D01*
X72773107Y-41056906D01*
X72918704Y-41056932D01*
X73058815Y-41056957D01*
X73193548Y-41056979D01*
X73323008Y-41057000D01*
X73447301Y-41057018D01*
X73566535Y-41057033D01*
X73680814Y-41057046D01*
X73790246Y-41057056D01*
X73894936Y-41057063D01*
X73994991Y-41057067D01*
X74090517Y-41057067D01*
X74181620Y-41057063D01*
X74268406Y-41057056D01*
X74350981Y-41057045D01*
X74429452Y-41057029D01*
X74503926Y-41057010D01*
X74574507Y-41056986D01*
X74641303Y-41056957D01*
X74704419Y-41056923D01*
X74763962Y-41056885D01*
X74820038Y-41056841D01*
X74872753Y-41056791D01*
X74922213Y-41056737D01*
X74968525Y-41056676D01*
X75011795Y-41056609D01*
X75052129Y-41056537D01*
X75089633Y-41056458D01*
X75124413Y-41056373D01*
X75156576Y-41056281D01*
X75186228Y-41056182D01*
X75213475Y-41056076D01*
X75238423Y-41055963D01*
X75261178Y-41055843D01*
X75281847Y-41055715D01*
X75300536Y-41055580D01*
X75317351Y-41055437D01*
X75332399Y-41055285D01*
X75345784Y-41055126D01*
X75357615Y-41054958D01*
X75367996Y-41054781D01*
X75377035Y-41054596D01*
X75384837Y-41054401D01*
X75391508Y-41054198D01*
X75397155Y-41053985D01*
X75401884Y-41053763D01*
X75405801Y-41053531D01*
X75409013Y-41053289D01*
X75411625Y-41053038D01*
X75413743Y-41052776D01*
X75415475Y-41052504D01*
X75416926Y-41052221D01*
X75432852Y-41048434D01*
X75466008Y-41037593D01*
X75497059Y-41022864D01*
X75527816Y-41003451D01*
X75534172Y-40998834D01*
X75564502Y-40972656D01*
X75591073Y-40942432D01*
X75613598Y-40908582D01*
X75631789Y-40871527D01*
X75645359Y-40831687D01*
X75651540Y-40808935D01*
X75652279Y-37615093D01*
X75652309Y-37484070D01*
X75652344Y-37324732D01*
X75652376Y-37170911D01*
X75652406Y-37022509D01*
X75652433Y-36879432D01*
X75652457Y-36741584D01*
X75652478Y-36608868D01*
X75652496Y-36481189D01*
X75652510Y-36358451D01*
X75652521Y-36240559D01*
X75652529Y-36127416D01*
X75652533Y-36018927D01*
X75652533Y-35914996D01*
X75652530Y-35815527D01*
X75652522Y-35720424D01*
X75652511Y-35629592D01*
X75652495Y-35542935D01*
X75652476Y-35460356D01*
X75652452Y-35381761D01*
X75652423Y-35307053D01*
X75652390Y-35236137D01*
X75652352Y-35168916D01*
X75652310Y-35105296D01*
X75652263Y-35045180D01*
X75652210Y-34988472D01*
X75652153Y-34935076D01*
X75652091Y-34884898D01*
X75652023Y-34837841D01*
X75651950Y-34793808D01*
X75651871Y-34752706D01*
X75651787Y-34714436D01*
X75651697Y-34678905D01*
X75651602Y-34646016D01*
X75651500Y-34615673D01*
X75651393Y-34587780D01*
X75651279Y-34562242D01*
X75651278Y-34562031D01*
X75889034Y-34562031D01*
X75889034Y-40723793D01*
X76146663Y-41067830D01*
X76154895Y-41078823D01*
X76184026Y-41117722D01*
X76212177Y-41155305D01*
X76239159Y-41191324D01*
X76264786Y-41225530D01*
X76288873Y-41257673D01*
X76311231Y-41287505D01*
X76331674Y-41314776D01*
X76350015Y-41339238D01*
X76366068Y-41360641D01*
X76379645Y-41378735D01*
X76390561Y-41393273D01*
X76398628Y-41404005D01*
X76403660Y-41410681D01*
X76405469Y-41413053D01*
X76405486Y-41412713D01*
X76405534Y-41407942D01*
X76405581Y-41397632D01*
X76405628Y-41381892D01*
X76405674Y-41360831D01*
X76405720Y-41334560D01*
X76405765Y-41303188D01*
X76405809Y-41266823D01*
X76405853Y-41225577D01*
X76405896Y-41179558D01*
X76405938Y-41128877D01*
X76405979Y-41073642D01*
X76406019Y-41013963D01*
X76406059Y-40949950D01*
X76406097Y-40881712D01*
X76406135Y-40809360D01*
X76406171Y-40733002D01*
X76406207Y-40652748D01*
X76406241Y-40568708D01*
X76406275Y-40480991D01*
X76406307Y-40389708D01*
X76406338Y-40294966D01*
X76406367Y-40196877D01*
X76406396Y-40095549D01*
X76406423Y-39991093D01*
X76406449Y-39883617D01*
X76406473Y-39773232D01*
X76406496Y-39660047D01*
X76406518Y-39544172D01*
X76406537Y-39425715D01*
X76406556Y-39304787D01*
X76406573Y-39181498D01*
X76406588Y-39055956D01*
X76406602Y-38928272D01*
X76406614Y-38798555D01*
X76406624Y-38666915D01*
X76406632Y-38533461D01*
X76406639Y-38398302D01*
X76406643Y-38261549D01*
X76406646Y-38123311D01*
X76406647Y-37983698D01*
X76406647Y-34553157D01*
X76330570Y-34554867D01*
X76319046Y-34555115D01*
X76300781Y-34555483D01*
X76278798Y-34555904D01*
X76253683Y-34556369D01*
X76226026Y-34556869D01*
X76196413Y-34557394D01*
X76165433Y-34557933D01*
X76133674Y-34558477D01*
X76101723Y-34559016D01*
X76070169Y-34559541D01*
X76039598Y-34560040D01*
X76010600Y-34560506D01*
X75983762Y-34560927D01*
X75959671Y-34561293D01*
X75938916Y-34561596D01*
X75922084Y-34561826D01*
X75909764Y-34561971D01*
X75902544Y-34562024D01*
X75889034Y-34562031D01*
X75651278Y-34562031D01*
X75651159Y-34538963D01*
X75651033Y-34517847D01*
X75650901Y-34498799D01*
X75650762Y-34481721D01*
X75650616Y-34466520D01*
X75650463Y-34453098D01*
X75650304Y-34441360D01*
X75650138Y-34431211D01*
X75649965Y-34422554D01*
X75649785Y-34415294D01*
X75649597Y-34409335D01*
X75649402Y-34404581D01*
X75649200Y-34400936D01*
X75648990Y-34398305D01*
X75648772Y-34396592D01*
X75645619Y-34381288D01*
X75636830Y-34351091D01*
X75625103Y-34321217D01*
X75611381Y-34294244D01*
X75607989Y-34288756D01*
X75595419Y-34271467D01*
X75579691Y-34253026D01*
X75562012Y-34234644D01*
X75543592Y-34217531D01*
X75525637Y-34202900D01*
X75509357Y-34191960D01*
X75491195Y-34182166D01*
X75460290Y-34168609D01*
X75425989Y-34157306D01*
X75404128Y-34151069D01*
X72653954Y-34150339D01*
X72637986Y-34150334D01*
X72486743Y-34150295D01*
X72341074Y-34150259D01*
X72200876Y-34150225D01*
X72066044Y-34150196D01*
X71936477Y-34150169D01*
X71812071Y-34150146D01*
X71692721Y-34150127D01*
X71578326Y-34150111D01*
X71468781Y-34150100D01*
X71363983Y-34150092D01*
X71263829Y-34150089D01*
X71168215Y-34150089D01*
X71077038Y-34150095D01*
X70990196Y-34150105D01*
X70907583Y-34150119D01*
X70829097Y-34150139D01*
X70754636Y-34150163D01*
X70684094Y-34150193D01*
X70617369Y-34150227D01*
X70554358Y-34150268D01*
X70494957Y-34150313D01*
X70439063Y-34150364D01*
X70386573Y-34150421D01*
X70337382Y-34150484D01*
X70291389Y-34150553D01*
X70248489Y-34150628D01*
X70208579Y-34150709D01*
X70171555Y-34150797D01*
X70137315Y-34150891D01*
X70105755Y-34150992D01*
X70076772Y-34151100D01*
X70050262Y-34151214D01*
X70026121Y-34151336D01*
X70004248Y-34151465D01*
X69984537Y-34151601D01*
X69966887Y-34151745D01*
X69951193Y-34151896D01*
X69937352Y-34152055D01*
X69925261Y-34152222D01*
X69914816Y-34152397D01*
X69905914Y-34152579D01*
X69898453Y-34152771D01*
X69892327Y-34152970D01*
X69887434Y-34153178D01*
X69883672Y-34153395D01*
X69880935Y-34153620D01*
X69879121Y-34153854D01*
X69844075Y-34161803D01*
X69810492Y-34173891D01*
X69779255Y-34190282D01*
X69749495Y-34211436D01*
X69720341Y-34237812D01*
X69695173Y-34265476D01*
X69673805Y-34295118D01*
X69657204Y-34326193D01*
X69644902Y-34359584D01*
X69636431Y-34396175D01*
X69636267Y-34397367D01*
X69636054Y-34399745D01*
X69635848Y-34403109D01*
X69635650Y-34407557D01*
X69635459Y-34413183D01*
X69635275Y-34420084D01*
X69635098Y-34428356D01*
X69634927Y-34438095D01*
X69634763Y-34449396D01*
X69634606Y-34462356D01*
X69634455Y-34477071D01*
X69634310Y-34493636D01*
X69634172Y-34512148D01*
X69634039Y-34532702D01*
X69633912Y-34555394D01*
X69633879Y-34562031D01*
X69633791Y-34580321D01*
X69633676Y-34607577D01*
X69633566Y-34637260D01*
X69633461Y-34669465D01*
X69633362Y-34704288D01*
X69633267Y-34741825D01*
X69633178Y-34782172D01*
X69633094Y-34825424D01*
X69633014Y-34871679D01*
X69632939Y-34921031D01*
X69632868Y-34973577D01*
X69632801Y-35029412D01*
X69632739Y-35088633D01*
X69632681Y-35151335D01*
X69632627Y-35217615D01*
X69632576Y-35287568D01*
X69632530Y-35361290D01*
X69632487Y-35438878D01*
X69632447Y-35520426D01*
X69632411Y-35606032D01*
X69632378Y-35695791D01*
X69632347Y-35789799D01*
X69632320Y-35888152D01*
X69632296Y-35990945D01*
X69632274Y-36098275D01*
X69632255Y-36210239D01*
X69632238Y-36326930D01*
X69632224Y-36448447D01*
X69632212Y-36574884D01*
X69632202Y-36706337D01*
X69632193Y-36842903D01*
X69632187Y-36984677D01*
X69632182Y-37131755D01*
X69632179Y-37284234D01*
X69632177Y-37442209D01*
X69632176Y-37605776D01*
X69396122Y-37605776D01*
X69396122Y-34562031D01*
X69379769Y-34561965D01*
X69377244Y-34561942D01*
X69368743Y-34561829D01*
X69355279Y-34561632D01*
X69337303Y-34561356D01*
X69315269Y-34561010D01*
X69289629Y-34560600D01*
X69260836Y-34560133D01*
X69229342Y-34559618D01*
X69195600Y-34559060D01*
X69160063Y-34558468D01*
X69123183Y-34557849D01*
X69098406Y-34557435D01*
X69063045Y-34556861D01*
X69029627Y-34556336D01*
X68998568Y-34555866D01*
X68970283Y-34555457D01*
X68945190Y-34555115D01*
X68923704Y-34554845D01*
X68906241Y-34554653D01*
X68893217Y-34554544D01*
X68885048Y-34554523D01*
X68882150Y-34554598D01*
X68882139Y-34554931D01*
X68882108Y-34559681D01*
X68882078Y-34569973D01*
X68882049Y-34585696D01*
X68882022Y-34606741D01*
X68881997Y-34632999D01*
X68881973Y-34664359D01*
X68881950Y-34700712D01*
X68881929Y-34741948D01*
X68881910Y-34787957D01*
X68881892Y-34838630D01*
X68881875Y-34893857D01*
X68881860Y-34953529D01*
X68881847Y-35017535D01*
X68881835Y-35085766D01*
X68881824Y-35158112D01*
X68881815Y-35234463D01*
X68881808Y-35314710D01*
X68881802Y-35398744D01*
X68881797Y-35486453D01*
X68881795Y-35577730D01*
X68881793Y-35672463D01*
X68646721Y-35672463D01*
X68646721Y-34364371D01*
X68654441Y-34328820D01*
X68657186Y-34316842D01*
X68904029Y-34316842D01*
X68947438Y-34318505D01*
X68949753Y-34318590D01*
X68963495Y-34319007D01*
X68981815Y-34319460D01*
X69003806Y-34319933D01*
X69028558Y-34320407D01*
X69055164Y-34320865D01*
X69082713Y-34321290D01*
X69110298Y-34321663D01*
X69136552Y-34322006D01*
X69168858Y-34322459D01*
X69202243Y-34322957D01*
X69235353Y-34323478D01*
X69266835Y-34324001D01*
X69295336Y-34324504D01*
X69319503Y-34324966D01*
X69409259Y-34326774D01*
X69412992Y-34310022D01*
X69417748Y-34291976D01*
X69426555Y-34265785D01*
X69437697Y-34237944D01*
X69450487Y-34210034D01*
X69464236Y-34183630D01*
X69478258Y-34160312D01*
X69492704Y-34138271D01*
X69318565Y-34138308D01*
X69310381Y-34138310D01*
X69275263Y-34138335D01*
X69245244Y-34138393D01*
X69219841Y-34138497D01*
X69198566Y-34138660D01*
X69180937Y-34138896D01*
X69166466Y-34139216D01*
X69154670Y-34139635D01*
X69145064Y-34140165D01*
X69137161Y-34140819D01*
X69130478Y-34141610D01*
X69124529Y-34142552D01*
X69118830Y-34143656D01*
X69098655Y-34148579D01*
X69060647Y-34162075D01*
X69025007Y-34180372D01*
X68992235Y-34203097D01*
X68962831Y-34229882D01*
X68937293Y-34260355D01*
X68916121Y-34294146D01*
X68904029Y-34316842D01*
X68657186Y-34316842D01*
X68658807Y-34309772D01*
X68666663Y-34280698D01*
X68675797Y-34253563D01*
X68686959Y-34226233D01*
X68700898Y-34196573D01*
X68709225Y-34180370D01*
X68734665Y-34138002D01*
X75792554Y-34138002D01*
X75792724Y-34138271D01*
X75808325Y-34163021D01*
X75815870Y-34175465D01*
X75830500Y-34202274D01*
X75844076Y-34230563D01*
X75855958Y-34258863D01*
X75865508Y-34285707D01*
X75872086Y-34309623D01*
X75875720Y-34325976D01*
X75925748Y-34325535D01*
X75930893Y-34325488D01*
X75955535Y-34325230D01*
X75982828Y-34324894D01*
X76012282Y-34324492D01*
X76043405Y-34324031D01*
X76075708Y-34323523D01*
X76108699Y-34322976D01*
X76141889Y-34322399D01*
X76174786Y-34321802D01*
X76206901Y-34321195D01*
X76237743Y-34320587D01*
X76266822Y-34319987D01*
X76293646Y-34319404D01*
X76317726Y-34318849D01*
X76338570Y-34318331D01*
X76355689Y-34317858D01*
X76368593Y-34317441D01*
X76376789Y-34317088D01*
X76379789Y-34316810D01*
X76379701Y-34314433D01*
X76377564Y-34308264D01*
X76373739Y-34299952D01*
X76364273Y-34282933D01*
X76343025Y-34252524D01*
X76317654Y-34224175D01*
X76289165Y-34198950D01*
X76258561Y-34177912D01*
X76254514Y-34175580D01*
X76232714Y-34164710D01*
X76207849Y-34154611D01*
X76182075Y-34146178D01*
X76179934Y-34145573D01*
X76175537Y-34144425D01*
X76170944Y-34143442D01*
X76165697Y-34142610D01*
X76159339Y-34141911D01*
X76151413Y-34141331D01*
X76141459Y-34140852D01*
X76129022Y-34140460D01*
X76113642Y-34140138D01*
X76094863Y-34139870D01*
X76072226Y-34139640D01*
X76045275Y-34139433D01*
X76013551Y-34139232D01*
X75976596Y-34139022D01*
X75792554Y-34138002D01*
X68734665Y-34138002D01*
X68737472Y-34133328D01*
X68769825Y-34090221D01*
X68806251Y-34051081D01*
X68846719Y-34015939D01*
X68891198Y-33984827D01*
X68939656Y-33957775D01*
X68954740Y-33950469D01*
X68982971Y-33937990D01*
X69010181Y-33927845D01*
X69038605Y-33919242D01*
X69070481Y-33911388D01*
X69104609Y-33903692D01*
X72625514Y-33902819D01*
X72797535Y-33902778D01*
X72975235Y-33902738D01*
X73147367Y-33902703D01*
X73313992Y-33902672D01*
X73475171Y-33902645D01*
X73630967Y-33902623D01*
X73781440Y-33902605D01*
X73926652Y-33902592D01*
X74066666Y-33902583D01*
X74201541Y-33902580D01*
X74331341Y-33902580D01*
X74456126Y-33902586D01*
X74575959Y-33902596D01*
X74690900Y-33902611D01*
X74801012Y-33902631D01*
X74906356Y-33902656D01*
X75006993Y-33902686D01*
X75102985Y-33902721D01*
X75194394Y-33902761D01*
X75281281Y-33902805D01*
X75363708Y-33902855D01*
X75441736Y-33902910D01*
X75515428Y-33902971D01*
X75584844Y-33903036D01*
X75650046Y-33903107D01*
X75711096Y-33903183D01*
X75768055Y-33903264D01*
X75820985Y-33903350D01*
X75869947Y-33903443D01*
X75915004Y-33903540D01*
X75956216Y-33903643D01*
X75993646Y-33903752D01*
X76027354Y-33903866D01*
X76057403Y-33903985D01*
X76083854Y-33904111D01*
X76106768Y-33904242D01*
X76126207Y-33904379D01*
X76142234Y-33904521D01*
X76154908Y-33904670D01*
X76164292Y-33904824D01*
X76170448Y-33904984D01*
X76173437Y-33905150D01*
X76225212Y-33913902D01*
X76277122Y-33928150D01*
X76326943Y-33947441D01*
X76374352Y-33971543D01*
X76419025Y-34000221D01*
X76460638Y-34033245D01*
X76498867Y-34070382D01*
X76533387Y-34111398D01*
X76563875Y-34156062D01*
X76590007Y-34204140D01*
X76601633Y-34230033D01*
X76619289Y-34278957D01*
X76628742Y-34316810D01*
X76631898Y-34329448D01*
X76639722Y-34382447D01*
X76639840Y-34385596D01*
X76639979Y-34394481D01*
X76640114Y-34408816D01*
X76640246Y-34428472D01*
X76640375Y-34453319D01*
X76640501Y-34483228D01*
X76640623Y-34518070D01*
X76640742Y-34557714D01*
X76640858Y-34602032D01*
X76640970Y-34650893D01*
X76641080Y-34704169D01*
X76641186Y-34761730D01*
X76641289Y-34823445D01*
X76641388Y-34889187D01*
X76641484Y-34958825D01*
X76641577Y-35032229D01*
X76641667Y-35109270D01*
X76641754Y-35189820D01*
X76641837Y-35273747D01*
X76641917Y-35360923D01*
X76641994Y-35451218D01*
X76642067Y-35544503D01*
X76642137Y-35640647D01*
X76642204Y-35739523D01*
X76642268Y-35840999D01*
X76642329Y-35944947D01*
X76642386Y-36051237D01*
X76642440Y-36159739D01*
X76642491Y-36270324D01*
X76642538Y-36382863D01*
X76642582Y-36497226D01*
X76642623Y-36613283D01*
X76642661Y-36730905D01*
X76642695Y-36849962D01*
X76642725Y-36970325D01*
X76642753Y-37091865D01*
X76642778Y-37214452D01*
X76642799Y-37337955D01*
X76642818Y-37462247D01*
X76642833Y-37587197D01*
X76642844Y-37712675D01*
X76642853Y-37838553D01*
X76642858Y-37964701D01*
X76642859Y-37983698D01*
X76642860Y-38090989D01*
X76642858Y-38217287D01*
G37*
D10*
X72390000Y-26035000D03*
X78740000Y-23495000D03*
X91440000Y-26035000D03*
X97790000Y-23495000D03*
X148590000Y-26035000D03*
X154940000Y-23495000D03*
X167640000Y-26035000D03*
X173990000Y-23495000D03*
X34290000Y-26035000D03*
X40640000Y-23495000D03*
X129540000Y-26035000D03*
X135890000Y-23495000D03*
X110490000Y-26035000D03*
X116840000Y-23495000D03*
X53340000Y-26035000D03*
X59690000Y-23495000D03*
X10477500Y-26035000D03*
X16827500Y-23495000D03*
X262890000Y-6985000D03*
X269240000Y-4445000D03*
X139065000Y-6985000D03*
X145415000Y-4445000D03*
X177165000Y-6985000D03*
X183515000Y-4445000D03*
X253365000Y-6985000D03*
X259715000Y-4445000D03*
X81915000Y-6985000D03*
X88265000Y-4445000D03*
X234315000Y-6985000D03*
X240665000Y-4445000D03*
X215265000Y-6985000D03*
X221615000Y-4445000D03*
X196215000Y-6985000D03*
X202565000Y-4445000D03*
X158115000Y-6985000D03*
X164465000Y-4445000D03*
X120015000Y-6985000D03*
X126365000Y-4445000D03*
X100965000Y-6985000D03*
X107315000Y-4445000D03*
X62865000Y-6985000D03*
X69215000Y-4445000D03*
X24765000Y-6985000D03*
X31115000Y-4445000D03*
X5715000Y-6985000D03*
X12065000Y-4445000D03*
X43815000Y-6985000D03*
X50165000Y-4445000D03*
X34290000Y-83185000D03*
X40640000Y-80645000D03*
X198596250Y-83185000D03*
X204946250Y-80645000D03*
X143827500Y-64135000D03*
X150177500Y-61595000D03*
X246221460Y-64135056D03*
X252571460Y-61595056D03*
X8096250Y-45085000D03*
X14446250Y-42545000D03*
X220027500Y-64135000D03*
X226377500Y-61595000D03*
X162877500Y-64135000D03*
X169227500Y-61595000D03*
X200977500Y-64135000D03*
X207327500Y-61595000D03*
X124777500Y-64135000D03*
X131127500Y-61595000D03*
X181927500Y-64135000D03*
X188277500Y-61595000D03*
X10477500Y-83185000D03*
X16827500Y-80645000D03*
X8096250Y-64135000D03*
X14446250Y-61595000D03*
X272415000Y-6985000D03*
X278765000Y-4445000D03*
X270033750Y-83185072D03*
X276383750Y-80645072D03*
X246221250Y-83185000D03*
X252571250Y-80645000D03*
X243840000Y-26035000D03*
X250190000Y-23495000D03*
X48577500Y-64135000D03*
X54927500Y-61595000D03*
X186690000Y-26035000D03*
X193040000Y-23495000D03*
X115252500Y-45085000D03*
X121602500Y-42545000D03*
X58102500Y-45085000D03*
X64452500Y-42545000D03*
X55721250Y-83185000D03*
X62071250Y-80645000D03*
X260508750Y-45085000D03*
X266858750Y-42545000D03*
X222408750Y-83185000D03*
X228758750Y-80645000D03*
X272415000Y-64135000D03*
X278765000Y-61595000D03*
X172402500Y-45085000D03*
X178752500Y-42545000D03*
X8096250Y-83185000D03*
X14446250Y-80645000D03*
X267652500Y-26035000D03*
X274002500Y-23495000D03*
X224790000Y-26035000D03*
X231140000Y-23495000D03*
X58102500Y-83185000D03*
X64452500Y-80645000D03*
X86677500Y-64135000D03*
X93027500Y-61595000D03*
X77152500Y-45085000D03*
X83502500Y-42545000D03*
X29527500Y-64135000D03*
X35877500Y-61595000D03*
X248602500Y-45085000D03*
X254952500Y-42545000D03*
X153352500Y-45085000D03*
X159702500Y-42545000D03*
X96202500Y-45085000D03*
X102552500Y-42545000D03*
X39052500Y-45085000D03*
X45402500Y-42545000D03*
X191452500Y-45085000D03*
X197802500Y-42545000D03*
X17621250Y-64135000D03*
X23971250Y-61595000D03*
X229552500Y-45085000D03*
X235902500Y-42545000D03*
X210502500Y-45085000D03*
X216852500Y-42545000D03*
X205740000Y-26035000D03*
X212090000Y-23495000D03*
X134302500Y-45085000D03*
X140652500Y-42545000D03*
X12858750Y-45085000D03*
X19208750Y-42545000D03*
X105727500Y-64135000D03*
X112077500Y-61595000D03*
X243840000Y-83185000D03*
X250190000Y-80645000D03*
X31908750Y-83185000D03*
X38258750Y-80645000D03*
X67627500Y-64135000D03*
X73977500Y-61595000D03*
X220027500Y-83185000D03*
X226377500Y-80645000D03*
X267652728Y-83185072D03*
X274002728Y-80645072D03*
X255746468Y-64135000D03*
X262096468Y-61595000D03*
X127158750Y-83185000D03*
X133508750Y-80645000D03*
X139065000Y-83185000D03*
X145415000Y-80645000D03*
X270033980Y-35560000D03*
X276383980Y-33020000D03*
D11*
X239911139Y-85715698D03*
X239911139Y-88115698D03*
X216098619Y-85715698D03*
X216098619Y-88115698D03*
X210145489Y-85715698D03*
X210145489Y-88115698D03*
X150614189Y-85715698D03*
X150614189Y-88115698D03*
X69651621Y-85715698D03*
X69651621Y-88115698D03*
X268486163Y-66665682D03*
X268486163Y-69065682D03*
X242292391Y-66665682D03*
X242292391Y-69065682D03*
X216098619Y-66665682D03*
X216098619Y-69065682D03*
X197048603Y-66665682D03*
X197048603Y-69065682D03*
X139898555Y-66665682D03*
X139898555Y-69065682D03*
X101798523Y-66665682D03*
X101798523Y-69065682D03*
X82748507Y-66665682D03*
X82748507Y-69065682D03*
X220861123Y-28565650D03*
X220861123Y-30965650D03*
X225623627Y-47615666D03*
X225623627Y-50015666D03*
X49410979Y-28565650D03*
X49410979Y-30965650D03*
X182761091Y-28565650D03*
X182761091Y-30965650D03*
X206573611Y-47615666D03*
X206573611Y-50015666D03*
X111323531Y-47615666D03*
X111323531Y-50015666D03*
X24407833Y-47615666D03*
X24407833Y-50015666D03*
X187523595Y-47615666D03*
X187523595Y-50015666D03*
X145851685Y-47615666D03*
X145851685Y-50015666D03*
X50601605Y-47615666D03*
X50601605Y-50015666D03*
X73223499Y-47615666D03*
X73223499Y-50015666D03*
X106561027Y-28565650D03*
X106561027Y-30965650D03*
X201811107Y-28565650D03*
X201811107Y-30965650D03*
X125611043Y-28565650D03*
X125611043Y-30965650D03*
X163711075Y-28565650D03*
X163711075Y-30965650D03*
X244673643Y-47615666D03*
X244673643Y-50015666D03*
X149423563Y-47615666D03*
X149423563Y-50015666D03*
X92273515Y-47615666D03*
X92273515Y-50015666D03*
X60126613Y-66665682D03*
X60126613Y-69065682D03*
X158948571Y-66665682D03*
X158948571Y-69065682D03*
X272058041Y-47615666D03*
X272058041Y-50015666D03*
X51792231Y-85715698D03*
X51792231Y-88115698D03*
X168473579Y-47615666D03*
X168473579Y-50015666D03*
X87511011Y-28565650D03*
X87511011Y-30965650D03*
X239911139Y-28565650D03*
X239911139Y-30965650D03*
X54173483Y-47615666D03*
X54173483Y-50015666D03*
X144661059Y-28565650D03*
X144661059Y-30965650D03*
X177998587Y-66665682D03*
X177998587Y-69065682D03*
X120848539Y-66665682D03*
X120848539Y-69065682D03*
X68460995Y-28565650D03*
X68460995Y-30965650D03*
D12*
X111665714Y-83771942D03*
X111665714Y-82971942D03*
X111665714Y-82171942D03*
X111665714Y-81371942D03*
X111665714Y-80571942D03*
X111665714Y-79771942D03*
X111665714Y-78971942D03*
X111665714Y-78171942D03*
X111665714Y-77371942D03*
X111665714Y-76571942D03*
X111665714Y-75771942D03*
D13*
X109965714Y-74071942D03*
X109165714Y-74071942D03*
X108365714Y-74071942D03*
X107565714Y-74071942D03*
X106765714Y-74071942D03*
X105965714Y-74071942D03*
X105165714Y-74071942D03*
X104365714Y-74071942D03*
X103565714Y-74071942D03*
X102765714Y-74071942D03*
X101965714Y-74071942D03*
D12*
X100265714Y-75771942D03*
X100265714Y-76571942D03*
X100265714Y-77371942D03*
X100265714Y-78171942D03*
X100265714Y-78971942D03*
X100265714Y-79771942D03*
X100265714Y-80571942D03*
X100265714Y-81371942D03*
X100265714Y-82171942D03*
X100265714Y-82971942D03*
X100265714Y-83771942D03*
D13*
X101965714Y-85471942D03*
X102765714Y-85471942D03*
X103565714Y-85471942D03*
X104365714Y-85471942D03*
X105165714Y-85471942D03*
X105965714Y-85471942D03*
X106765714Y-85471942D03*
X107565714Y-85471942D03*
X108365714Y-85471942D03*
X109165714Y-85471942D03*
X109965714Y-85471942D03*
D14*
X94059454Y-79176629D03*
X94059454Y-80376629D03*
X94059454Y-77976629D03*
D15*
X27806276Y-49525040D03*
X34106276Y-49525040D03*
X34106276Y-45725040D03*
X27806276Y-45725040D03*
D16*
X116176661Y-73223499D03*
X118376661Y-73223499D03*
D11*
X173236083Y-9515634D03*
X173236083Y-11915634D03*
X249436147Y-9515634D03*
X249436147Y-11915634D03*
X154186067Y-9515634D03*
X154186067Y-11915634D03*
X230386131Y-9515634D03*
X230386131Y-11915634D03*
X192286099Y-9515634D03*
X192286099Y-11915634D03*
X245864269Y-9515634D03*
X245864269Y-11915634D03*
X45839101Y-28565650D03*
X45839101Y-30965650D03*
X6548443Y-28565650D03*
X6548443Y-30965650D03*
X211336115Y-9515634D03*
X211336115Y-11915634D03*
X116086035Y-9515634D03*
X116086035Y-11915634D03*
X55364109Y-9515634D03*
X55364109Y-11915634D03*
X77986003Y-9515634D03*
X77986003Y-11915634D03*
X135136051Y-9515634D03*
X135136051Y-11915634D03*
X97036019Y-9515634D03*
X97036019Y-11915634D03*
X58935987Y-9515634D03*
X58935987Y-11915634D03*
D17*
X98821958Y-92868828D03*
X101798523Y-92868828D03*
D11*
X233958009Y-85715698D03*
X233958009Y-88115698D03*
D18*
X12700000Y-16510000D03*
X12700000Y-18710000D03*
D11*
X63698491Y-66665682D03*
X63698491Y-69065682D03*
D19*
X116276661Y-82748507D03*
X118276661Y-82748507D03*
X116276661Y-75604751D03*
X118276661Y-75604751D03*
D11*
X41076597Y-66665682D03*
X41076597Y-69065682D03*
X236339261Y-28565650D03*
X236339261Y-30965650D03*
D18*
X8128000Y-16510000D03*
X8128000Y-18710000D03*
D11*
X36314093Y-9515634D03*
X36314093Y-11915634D03*
X44648475Y-66665682D03*
X44648475Y-69065682D03*
D18*
X10414000Y-18710000D03*
X10414000Y-16510000D03*
D19*
X93059454Y-86915698D03*
X95059454Y-86915698D03*
X95059454Y-84534446D03*
X93059454Y-84534446D03*
D16*
X118376661Y-85129759D03*
X116176661Y-85129759D03*
D11*
X39885971Y-9515634D03*
X39885971Y-11915634D03*
X45839101Y-85715698D03*
X45839101Y-88115698D03*
D20*
X4572000Y-16510000D03*
X3622000Y-16510000D03*
X2672000Y-16510000D03*
X2672000Y-18810000D03*
X3622000Y-18810000D03*
X4572000Y-18810000D03*
D17*
X95845393Y-92868828D03*
D21*
X119816661Y-91162263D03*
X119816661Y-88622263D03*
X117276661Y-91162263D03*
X117276661Y-88622263D03*
X114736661Y-91162263D03*
D22*
X114736661Y-88622263D03*
D23*
X2080000Y-36225000D03*
X8080000Y-36225000D03*
D24*
X6580000Y-40250000D03*
X5580000Y-40250000D03*
X4580000Y-40250000D03*
X3580000Y-40250000D03*
D19*
X108537592Y-89296950D03*
X110537592Y-89296950D03*
X95059454Y-71437560D03*
X93059454Y-71437560D03*
D25*
X113704783Y-82153194D03*
X97631332Y-81557881D03*
X112514157Y-89892263D03*
X122634478Y-72628186D03*
X105965714Y-83343820D03*
X117276661Y-75604751D03*
X94059454Y-71437560D03*
X117371974Y-83819943D03*
X63586696Y-20947750D03*
X94059454Y-84534446D03*
X72032873Y-83939133D03*
X105781339Y-82564132D03*
X109537592Y-83343820D03*
X105759599Y-70842247D03*
X98821958Y-13692199D03*
X104370398Y-70842247D03*
X106561027Y-32742215D03*
X102989149Y-70842247D03*
X110728218Y-53578170D03*
X110728218Y-85694944D03*
X147637624Y-88115698D03*
X72032873Y-88106324D03*
X75604751Y-73223499D03*
X93464141Y-73034408D03*
X109751596Y-70086060D03*
X148232937Y-70246934D03*
X167282953Y-70842247D03*
X185737656Y-71436090D03*
X265381381Y-72161090D03*
X263731454Y-15811560D03*
X94059454Y-86915698D03*
X113617287Y-85069944D03*
X70842247Y-51196918D03*
X102989149Y-88106324D03*
X104179775Y-86915698D03*
X103584462Y-87511011D03*
X102147205Y-88148265D03*
X65000912Y-19533534D03*
X74414125Y-83939133D03*
X73223499Y-83939133D03*
X64293804Y-20240642D03*
D26*
X111665714Y-82971942D02*
X112886035Y-82971942D01*
X110132905Y-81780109D02*
X110132905Y-82439133D01*
X34106276Y-45725040D02*
X27806276Y-45725040D01*
X122039165Y-73223499D02*
X122634478Y-72628186D01*
X112514157Y-89892263D02*
X118546661Y-89892263D01*
X101965714Y-74071942D02*
X101965714Y-80795377D01*
X4137376Y-17884990D02*
X5184990Y-17884990D01*
X92734444Y-84336550D02*
X93059454Y-84661560D01*
X3635454Y-18386912D02*
X4137376Y-17884990D01*
X101389149Y-81371942D02*
X101798523Y-80962568D01*
X94059454Y-79176629D02*
X93599818Y-79176629D01*
X112886035Y-82971942D02*
X113704783Y-82153194D01*
X65625913Y-19233533D02*
X60420371Y-14027991D01*
X100265714Y-81371942D02*
X101389149Y-81371942D01*
X3635454Y-19113560D02*
X3635454Y-18386912D01*
X2954990Y-39278242D02*
X2954990Y-41221758D01*
X6254990Y-41500010D02*
X6580000Y-41175000D01*
X5905560Y-18605560D02*
X8872751Y-21572751D01*
X110132905Y-82439133D02*
X110665714Y-82971942D01*
X63886697Y-21572751D02*
X65625913Y-19833535D01*
X100265714Y-81371942D02*
X97817271Y-81371942D01*
X101965714Y-80795377D02*
X101798523Y-80962568D01*
X3794375Y-14027991D02*
X1596981Y-16225385D01*
X8872751Y-21572751D02*
X63886697Y-21572751D01*
X118376661Y-73223499D02*
X122039165Y-73223499D01*
X60420371Y-14027991D02*
X3794375Y-14027991D01*
X2954990Y-41221758D02*
X3233242Y-41500010D01*
X3129990Y-39103242D02*
X2954990Y-39278242D01*
X3129990Y-21264036D02*
X3129990Y-39103242D01*
X110537592Y-89296950D02*
X111918844Y-89296950D01*
X1596981Y-19731027D02*
X3129990Y-21264036D01*
X93599818Y-79176629D02*
X92734444Y-80042003D01*
X110132905Y-77104751D02*
X110132905Y-81780109D01*
X22331236Y-40250000D02*
X27806276Y-45725040D01*
X118276661Y-75729751D02*
X118276661Y-75604751D01*
X111665714Y-76571942D02*
X110665714Y-76571942D01*
X118546661Y-89892263D02*
X119816661Y-91162263D01*
X92734444Y-80042003D02*
X92734444Y-84336550D01*
X6580000Y-40250000D02*
X22331236Y-40250000D01*
X65625913Y-19833535D02*
X65625913Y-19233533D01*
X5905560Y-18605560D02*
X5921454Y-18605560D01*
X97817271Y-81371942D02*
X97631332Y-81557881D01*
X109148173Y-80795377D02*
X110132905Y-81780109D01*
X111918844Y-89296950D02*
X112514157Y-89892263D01*
X111665714Y-76571942D02*
X117434470Y-76571942D01*
X5184990Y-17884990D02*
X5905560Y-18605560D01*
X106765714Y-85471942D02*
X106765714Y-84143820D01*
X110665714Y-76571942D02*
X110132905Y-77104751D01*
X93059454Y-84661560D02*
X93059454Y-86915698D01*
X110665714Y-82971942D02*
X111665714Y-82971942D01*
X1596981Y-16225385D02*
X1596981Y-19731027D01*
X92789454Y-71691560D02*
X93297454Y-71691560D01*
X3233242Y-41500010D02*
X6254990Y-41500010D01*
X117434470Y-76571942D02*
X118276661Y-75729751D01*
X101965714Y-80795377D02*
X109148173Y-80795377D01*
X6580000Y-41175000D02*
X6580000Y-40250000D01*
X106765714Y-84143820D02*
X105965714Y-83343820D01*
D27*
X81774518Y-90270818D02*
X81257058Y-90206996D01*
X81257058Y-90206996D02*
X80743354Y-90117859D01*
X80234642Y-90003624D02*
X79732148Y-89864565D01*
X118376661Y-84848507D02*
X116276661Y-82748507D01*
X118376661Y-85129759D02*
X118376661Y-84848507D01*
X113534580Y-91162263D02*
X114736661Y-91162263D01*
X108537592Y-90421950D02*
X109277905Y-91162263D01*
X109165714Y-85471942D02*
X109165714Y-84436940D01*
X82815709Y-90321969D02*
X95845393Y-90321969D01*
X77808278Y-89067672D02*
X77354632Y-88810685D01*
X109165714Y-86915698D02*
X109165714Y-85471942D01*
X115276661Y-82748507D02*
X114253226Y-83771942D01*
X108537592Y-88171950D02*
X109165714Y-87543828D01*
X108537592Y-89296950D02*
X108537592Y-88171950D01*
X79237083Y-89701018D02*
X78750638Y-89513376D01*
X102989149Y-90321969D02*
X95845393Y-90321969D01*
X76076840Y-87910763D02*
X75682047Y-87570211D01*
X75682047Y-87570211D02*
X75304439Y-87210699D01*
X116109470Y-75771942D02*
X116276661Y-75604751D01*
X112915714Y-83771942D02*
X111665714Y-83771942D01*
X105635400Y-82564132D02*
X105781339Y-82564132D01*
X109277905Y-91162263D02*
X113534580Y-91162263D01*
X109165714Y-87543828D02*
X109165714Y-86915698D01*
X106512573Y-90321969D02*
X107537592Y-89296950D01*
X82294485Y-90309173D02*
X81774518Y-90270818D01*
X82815709Y-90321969D02*
X82294485Y-90309173D01*
X95059454Y-71437560D02*
X94059454Y-71437560D01*
X109165714Y-84221942D02*
X109165714Y-85471942D01*
X77354632Y-88810685D02*
X76914141Y-88531748D01*
X98821958Y-92868828D02*
X98821958Y-90321969D01*
X105165714Y-83033818D02*
X105635400Y-82564132D01*
X75304439Y-87210699D02*
X72032873Y-83939133D01*
X105165714Y-85471942D02*
X105165714Y-83033818D01*
X78750638Y-89513376D02*
X78273987Y-89302091D01*
X100265714Y-82171942D02*
X99015714Y-82171942D01*
X10279750Y-20947750D02*
X8128000Y-18796000D01*
X111665714Y-75771942D02*
X116109470Y-75771942D01*
X109165714Y-85471942D02*
X109165714Y-83715698D01*
X114253226Y-83771942D02*
X112915714Y-83771942D01*
X102765714Y-72821942D02*
X101381332Y-71437560D01*
X79732148Y-89864565D02*
X79237083Y-89701018D01*
X95059454Y-84534446D02*
X94059454Y-84534446D01*
X96059454Y-84534446D02*
X98421958Y-82171942D01*
X95059454Y-84534446D02*
X96059454Y-84534446D01*
X78273987Y-89302091D02*
X77808278Y-89067672D01*
X98421958Y-82171942D02*
X99015714Y-82171942D01*
X102765714Y-74071942D02*
X102765714Y-72821942D01*
X117276661Y-75604751D02*
X116276661Y-75604751D01*
X63586696Y-20947750D02*
X10279750Y-20947750D01*
X102989149Y-90321969D02*
X106512573Y-90321969D01*
X116276661Y-82748507D02*
X115276661Y-82748507D01*
X109165714Y-83715698D02*
X109537592Y-83343820D01*
X108537592Y-89296950D02*
X108537592Y-90421950D01*
X95059454Y-71437560D02*
X101381332Y-71437560D01*
X95059454Y-71437560D02*
X94841163Y-71437560D01*
X80743354Y-90117859D02*
X80234642Y-90003624D01*
X107537592Y-89296950D02*
X108537592Y-89296950D01*
X76487869Y-88231533D02*
X76076840Y-87910763D01*
X76914141Y-88531748D02*
X76487869Y-88231533D01*
D26*
X136086051Y-11915634D02*
X154186067Y-11915634D01*
X39885971Y-11915634D02*
X58935987Y-11915634D01*
X182016340Y-11915634D02*
X192286099Y-11915634D01*
X192286099Y-11915634D02*
X211336115Y-11915634D01*
X97045393Y-11915634D02*
X97036019Y-11915634D01*
X59904735Y-11915634D02*
X77986003Y-11915634D01*
X245864269Y-11915634D02*
X249436147Y-11915634D01*
X36314093Y-11915634D02*
X39885971Y-11915634D01*
X105965714Y-74071942D02*
X105965714Y-71048362D01*
X239166340Y-11915634D02*
X245864269Y-11915634D01*
X116086035Y-11915634D02*
X135136051Y-11915634D01*
X154186067Y-11915634D02*
X173236083Y-11915634D01*
X173236083Y-11915634D02*
X182016340Y-11915634D01*
X211336115Y-11915634D02*
X230386131Y-11915634D01*
X58935987Y-11915634D02*
X59885987Y-11915634D01*
X98821958Y-13692199D02*
X97045393Y-11915634D01*
X105965714Y-71048362D02*
X105759599Y-70842247D01*
X77986003Y-11915634D02*
X97036019Y-11915634D01*
X230386131Y-11915634D02*
X239166340Y-11915634D01*
X59895361Y-11906260D02*
X59904735Y-11915634D01*
X135136051Y-11915634D02*
X136086051Y-11915634D01*
X59885987Y-11915634D02*
X59895361Y-11906260D01*
X97036019Y-11915634D02*
X116086035Y-11915634D01*
X27066894Y-4445000D02*
X28575024Y-5953130D01*
X36314093Y-8665634D02*
X33601589Y-5953130D01*
X12065000Y-4445000D02*
X27066894Y-4445000D01*
X36314093Y-9515634D02*
X36314093Y-8665634D01*
X33601589Y-5953130D02*
X28575024Y-5953130D01*
X39885971Y-8665634D02*
X39885971Y-9515634D01*
X35665337Y-4445000D02*
X39885971Y-8665634D01*
X31115000Y-4445000D02*
X35665337Y-4445000D01*
X51781446Y-4445000D02*
X55364109Y-8027663D01*
X50165000Y-4445000D02*
X51781446Y-4445000D01*
X55364109Y-8027663D02*
X55364109Y-9515634D01*
X61248554Y-6985000D02*
X58935987Y-9297567D01*
X58935987Y-9297567D02*
X58935987Y-9515634D01*
X62865000Y-6985000D02*
X61248554Y-6985000D01*
X80298554Y-6985000D02*
X77986003Y-9297551D01*
X81915000Y-6985000D02*
X80298554Y-6985000D01*
X77986003Y-9297551D02*
X77986003Y-9515634D01*
X100965000Y-6985000D02*
X99348554Y-6985000D01*
X99348554Y-6985000D02*
X97036019Y-9297535D01*
X97036019Y-9297535D02*
X97036019Y-9515634D01*
X120015000Y-6985000D02*
X118398554Y-6985000D01*
X118398554Y-6985000D02*
X116086035Y-9297519D01*
X116086035Y-9297519D02*
X116086035Y-9515634D01*
X139065000Y-6985000D02*
X137448554Y-6985000D01*
X135136051Y-9297503D02*
X135136051Y-9515634D01*
X137448554Y-6985000D02*
X135136051Y-9297503D01*
X154186067Y-9297487D02*
X154186067Y-9515634D01*
X158115000Y-6985000D02*
X156498554Y-6985000D01*
X156498554Y-6985000D02*
X154186067Y-9297487D01*
X177165000Y-6985000D02*
X175548554Y-6985000D01*
X175548554Y-6985000D02*
X173236083Y-9297471D01*
X173236083Y-9297471D02*
X173236083Y-9515634D01*
X192286099Y-9297455D02*
X192286099Y-9515634D01*
X196215000Y-6985000D02*
X194598554Y-6985000D01*
X194598554Y-6985000D02*
X192286099Y-9297455D01*
X213648554Y-6985000D02*
X211336115Y-9297439D01*
X211336115Y-9297439D02*
X211336115Y-9515634D01*
X215265000Y-6985000D02*
X213648554Y-6985000D01*
X232698554Y-6985000D02*
X230386131Y-9297423D01*
X234315000Y-6985000D02*
X232698554Y-6985000D01*
X230386131Y-9297423D02*
X230386131Y-9515634D01*
X251748554Y-6985000D02*
X249436147Y-9297407D01*
X249436147Y-9297407D02*
X249436147Y-9515634D01*
X253365000Y-6985000D02*
X251748554Y-6985000D01*
X245864269Y-9515634D02*
X246814269Y-9515634D01*
X262890000Y-6985000D02*
X272415000Y-6985000D01*
X260082358Y-6985000D02*
X261273554Y-6985000D01*
X258614357Y-5516999D02*
X260082358Y-6985000D01*
X250812904Y-5516999D02*
X258614357Y-5516999D01*
X261273554Y-6985000D02*
X262890000Y-6985000D01*
X246814269Y-9515634D02*
X250812904Y-5516999D01*
X6548443Y-28347611D02*
X6548443Y-28565650D01*
X8861054Y-26035000D02*
X6548443Y-28347611D01*
X10477500Y-26035000D02*
X8861054Y-26035000D01*
X28575024Y-30965650D02*
X22631268Y-30965650D01*
X105165714Y-71637563D02*
X104370398Y-70842247D01*
X45839101Y-30965650D02*
X49410979Y-30965650D01*
X106561027Y-30965650D02*
X115341324Y-30965650D01*
X153441324Y-30965650D02*
X163711075Y-30965650D01*
X182761091Y-30965650D02*
X201811107Y-30965650D01*
X115341324Y-30965650D02*
X125611043Y-30965650D01*
X220861123Y-30965650D02*
X239911139Y-30965650D01*
X106561027Y-32742215D02*
X106561027Y-30965650D01*
X144661059Y-30965650D02*
X153441324Y-30965650D01*
X202761107Y-30965650D02*
X220861123Y-30965650D01*
X105165714Y-74071942D02*
X105165714Y-71637563D01*
X125611043Y-30965650D02*
X144661059Y-30965650D01*
X201811107Y-30965650D02*
X202761107Y-30965650D01*
X87511011Y-30965650D02*
X106561027Y-30965650D01*
X49410979Y-30965650D02*
X68460995Y-30965650D01*
X28575024Y-30965650D02*
X45839101Y-30965650D01*
X68460995Y-30965650D02*
X87511011Y-30965650D01*
X163711075Y-30965650D02*
X182761091Y-30965650D01*
X6548443Y-30965650D02*
X22631268Y-30965650D01*
X40640000Y-23495000D02*
X42256446Y-23495000D01*
X45839101Y-27077655D02*
X45839101Y-28565650D01*
X42256446Y-23495000D02*
X45839101Y-27077655D01*
X53340000Y-26035000D02*
X51723554Y-26035000D01*
X49410979Y-28347575D02*
X49410979Y-28565650D01*
X51723554Y-26035000D02*
X49410979Y-28347575D01*
X68460995Y-28347559D02*
X68460995Y-28565650D01*
X70773554Y-26035000D02*
X68460995Y-28347559D01*
X72390000Y-26035000D02*
X70773554Y-26035000D01*
X91440000Y-26035000D02*
X89823554Y-26035000D01*
X89823554Y-26035000D02*
X87511011Y-28347543D01*
X87511011Y-28347543D02*
X87511011Y-28565650D01*
X110490000Y-26035000D02*
X108873554Y-26035000D01*
X108873554Y-26035000D02*
X106561027Y-28347527D01*
X106561027Y-28347527D02*
X106561027Y-28565650D01*
X125611043Y-28347511D02*
X125611043Y-28565650D01*
X129540000Y-26035000D02*
X127923554Y-26035000D01*
X127923554Y-26035000D02*
X125611043Y-28347511D01*
X146973554Y-26035000D02*
X144661059Y-28347495D01*
X148590000Y-26035000D02*
X146973554Y-26035000D01*
X144661059Y-28347495D02*
X144661059Y-28565650D01*
X167640000Y-26035000D02*
X166023554Y-26035000D01*
X163711075Y-28347479D02*
X163711075Y-28565650D01*
X166023554Y-26035000D02*
X163711075Y-28347479D01*
X182761091Y-28347463D02*
X182761091Y-28565650D01*
X186690000Y-26035000D02*
X185073554Y-26035000D01*
X185073554Y-26035000D02*
X182761091Y-28347463D01*
X205740000Y-26035000D02*
X204123554Y-26035000D01*
X204123554Y-26035000D02*
X201811107Y-28347447D01*
X201811107Y-28347447D02*
X201811107Y-28565650D01*
X223173554Y-26035000D02*
X220861123Y-28347431D01*
X220861123Y-28347431D02*
X220861123Y-28565650D01*
X224790000Y-26035000D02*
X223173554Y-26035000D01*
X242223554Y-26035000D02*
X239911139Y-28347415D01*
X243840000Y-26035000D02*
X242223554Y-26035000D01*
X239911139Y-28347415D02*
X239911139Y-28565650D01*
X240596141Y-29765650D02*
X242382080Y-31551589D01*
X236339261Y-28565650D02*
X237289261Y-28565650D01*
X238489261Y-29765650D02*
X240596141Y-29765650D01*
X267652500Y-29045334D02*
X267652500Y-26035000D01*
X242382080Y-31551589D02*
X265146245Y-31551589D01*
X237289261Y-28565650D02*
X238489261Y-29765650D01*
X265146245Y-31551589D02*
X267652500Y-29045334D01*
X27153146Y-48220353D02*
X34736591Y-48220353D01*
X92273515Y-50015666D02*
X111323531Y-50015666D01*
X150373563Y-50015666D02*
X168473579Y-50015666D01*
X270262728Y-50015666D02*
X267295537Y-52982857D01*
X260756468Y-50015666D02*
X244673643Y-50015666D01*
X104365714Y-72218812D02*
X102989149Y-70842247D01*
X111323531Y-50015666D02*
X125620417Y-50015666D01*
X40481284Y-50015666D02*
X50601605Y-50015666D01*
X131554799Y-50015666D02*
X125620417Y-50015666D01*
X24407833Y-50015666D02*
X25357833Y-50015666D01*
X267295537Y-52982857D02*
X263723659Y-52982857D01*
X169423579Y-50015666D02*
X187523595Y-50015666D01*
X131554799Y-50015666D02*
X145851685Y-50015666D01*
X225623627Y-50015666D02*
X226573627Y-50015666D01*
X168473579Y-50015666D02*
X169423579Y-50015666D01*
X54173483Y-50015666D02*
X73223499Y-50015666D01*
X25357833Y-50015666D02*
X27153146Y-48220353D01*
X111323531Y-52982857D02*
X110728218Y-53578170D01*
X111323531Y-50015666D02*
X111323531Y-52982857D01*
X34736591Y-48220353D02*
X36531904Y-50015666D01*
X187523595Y-50015666D02*
X206573611Y-50015666D01*
X145851685Y-50015666D02*
X149423563Y-50015666D01*
X149423563Y-50015666D02*
X150373563Y-50015666D01*
X206573611Y-50015666D02*
X207523611Y-50015666D01*
X272058041Y-50015666D02*
X270262728Y-50015666D01*
X104365714Y-74071942D02*
X104365714Y-72218812D01*
X263723659Y-52982857D02*
X260756468Y-50015666D01*
X50601605Y-50015666D02*
X54173483Y-50015666D01*
X73223499Y-50015666D02*
X92273515Y-50015666D01*
X226573627Y-50015666D02*
X244673643Y-50015666D01*
X36531904Y-50015666D02*
X40481284Y-50015666D01*
X207523611Y-50015666D02*
X225623627Y-50015666D01*
X14446250Y-42545000D02*
X16062696Y-42545000D01*
X24407833Y-45839101D02*
X24407833Y-47615666D01*
X19208750Y-42545000D02*
X21113732Y-42545000D01*
X16062696Y-42545000D02*
X19208750Y-42545000D01*
X21113732Y-42545000D02*
X24407833Y-45839101D01*
X47018946Y-42545000D02*
X50601605Y-46127659D01*
X45402500Y-42545000D02*
X47018946Y-42545000D01*
X50601605Y-46127659D02*
X50601605Y-47615666D01*
X56486054Y-45085000D02*
X54173483Y-47397571D01*
X54173483Y-47397571D02*
X54173483Y-47615666D01*
X58102500Y-45085000D02*
X56486054Y-45085000D01*
X73223499Y-47397555D02*
X73223499Y-47615666D01*
X77152500Y-45085000D02*
X75536054Y-45085000D01*
X75536054Y-45085000D02*
X73223499Y-47397555D01*
X96202500Y-45085000D02*
X94586054Y-45085000D01*
X92273515Y-47397539D02*
X92273515Y-47615666D01*
X94586054Y-45085000D02*
X92273515Y-47397539D01*
X115252500Y-45085000D02*
X113636054Y-45085000D01*
X111323531Y-47397523D02*
X111323531Y-47615666D01*
X113636054Y-45085000D02*
X111323531Y-47397523D01*
X142268946Y-42545000D02*
X145851685Y-46127739D01*
X140652500Y-42545000D02*
X142268946Y-42545000D01*
X145851685Y-46127739D02*
X145851685Y-47615666D01*
X153352500Y-45085000D02*
X151736054Y-45085000D01*
X151736054Y-45085000D02*
X149423563Y-47397491D01*
X149423563Y-47397491D02*
X149423563Y-47615666D01*
X170786054Y-45085000D02*
X168473579Y-47397475D01*
X168473579Y-47397475D02*
X168473579Y-47615666D01*
X172402500Y-45085000D02*
X170786054Y-45085000D01*
X187523595Y-47397459D02*
X187523595Y-47615666D01*
X191452500Y-45085000D02*
X189836054Y-45085000D01*
X189836054Y-45085000D02*
X187523595Y-47397459D01*
X206573611Y-47397443D02*
X206573611Y-47615666D01*
X208886054Y-45085000D02*
X206573611Y-47397443D01*
X210502500Y-45085000D02*
X208886054Y-45085000D01*
X229552500Y-45085000D02*
X227936054Y-45085000D01*
X227936054Y-45085000D02*
X225623627Y-47397427D01*
X225623627Y-47397427D02*
X225623627Y-47615666D01*
X244673643Y-47397411D02*
X244673643Y-47615666D01*
X248602500Y-45085000D02*
X246986054Y-45085000D01*
X246986054Y-45085000D02*
X244673643Y-47397411D01*
X266858750Y-37118784D02*
X266858750Y-40928554D01*
X270033980Y-35560000D02*
X268417534Y-35560000D01*
X266858750Y-40928554D02*
X266858750Y-42545000D01*
X268001749Y-43687999D02*
X266858750Y-42545000D01*
X272058041Y-47615666D02*
X271929416Y-47615666D01*
X271929416Y-47615666D02*
X268001749Y-43687999D01*
X268417534Y-35560000D02*
X266858750Y-37118784D01*
X110578792Y-69065682D02*
X120848539Y-69065682D01*
X242292391Y-69065682D02*
X260597760Y-69065682D01*
X217048619Y-69065682D02*
X242292391Y-69065682D01*
X101798523Y-70860995D02*
X103565714Y-72628186D01*
X121798539Y-69065682D02*
X139898555Y-69065682D01*
X41076597Y-69065682D02*
X44648475Y-69065682D01*
X83698507Y-69065682D02*
X101798523Y-69065682D01*
X139898555Y-69065682D02*
X148678792Y-69065682D01*
X64648491Y-69065682D02*
X82748507Y-69065682D01*
X148678792Y-69065682D02*
X158948571Y-69065682D01*
X44648475Y-69065682D02*
X60126613Y-69065682D01*
X158948571Y-69065682D02*
X159898571Y-69065682D01*
X103565714Y-74071942D02*
X103565714Y-72628186D01*
X216098619Y-69065682D02*
X197048603Y-69065682D01*
X260597760Y-69065682D02*
X268486163Y-69065682D01*
X61076613Y-69065682D02*
X63698491Y-69065682D01*
X101798523Y-69065682D02*
X110578792Y-69065682D01*
X63698491Y-69065682D02*
X64648491Y-69065682D01*
X101798523Y-69065682D02*
X101798523Y-70860995D01*
X177998587Y-69065682D02*
X197048603Y-69065682D01*
X120848539Y-69065682D02*
X121798539Y-69065682D01*
X159898571Y-69065682D02*
X177998587Y-69065682D01*
X82748507Y-69065682D02*
X83698507Y-69065682D01*
X60126613Y-69065682D02*
X61076613Y-69065682D01*
X216098619Y-69065682D02*
X217048619Y-69065682D01*
X31551589Y-61595000D02*
X23971250Y-61595000D01*
X33655080Y-63698491D02*
X31551589Y-61595000D01*
X16062696Y-61595000D02*
X23971250Y-61595000D01*
X41076597Y-66665682D02*
X41076597Y-65815682D01*
X41076597Y-65815682D02*
X38959406Y-63698491D01*
X38959406Y-63698491D02*
X33655080Y-63698491D01*
X14446250Y-61595000D02*
X16062696Y-61595000D01*
X44648475Y-66665682D02*
X43698475Y-66665682D01*
X38627793Y-61595000D02*
X37493946Y-61595000D01*
X37493946Y-61595000D02*
X35877500Y-61595000D01*
X43698475Y-66665682D02*
X38627793Y-61595000D01*
X60126613Y-65177667D02*
X60126613Y-66665682D01*
X56543946Y-61595000D02*
X60126613Y-65177667D01*
X54927500Y-61595000D02*
X56543946Y-61595000D01*
X67627500Y-64135000D02*
X66011054Y-64135000D01*
X63698491Y-66447563D02*
X63698491Y-66665682D01*
X66011054Y-64135000D02*
X63698491Y-66447563D01*
X86677500Y-64135000D02*
X85061054Y-64135000D01*
X85061054Y-64135000D02*
X82748507Y-66447547D01*
X82748507Y-66447547D02*
X82748507Y-66665682D01*
X101798523Y-66447531D02*
X101798523Y-66665682D01*
X104111054Y-64135000D02*
X101798523Y-66447531D01*
X105727500Y-64135000D02*
X104111054Y-64135000D01*
X123161054Y-64135000D02*
X120848539Y-66447515D01*
X120848539Y-66447515D02*
X120848539Y-66665682D01*
X124777500Y-64135000D02*
X123161054Y-64135000D01*
X142211054Y-64135000D02*
X139898555Y-66447499D01*
X143827500Y-64135000D02*
X142211054Y-64135000D01*
X139898555Y-66447499D02*
X139898555Y-66665682D01*
X158948571Y-66447483D02*
X158948571Y-66665682D01*
X162877500Y-64135000D02*
X161261054Y-64135000D01*
X161261054Y-64135000D02*
X158948571Y-66447483D01*
X177998587Y-66447467D02*
X177998587Y-66665682D01*
X181927500Y-64135000D02*
X180311054Y-64135000D01*
X180311054Y-64135000D02*
X177998587Y-66447467D01*
X197048603Y-66447451D02*
X197048603Y-66665682D01*
X199361054Y-64135000D02*
X197048603Y-66447451D01*
X200977500Y-64135000D02*
X199361054Y-64135000D01*
X220027500Y-64135000D02*
X218411054Y-64135000D01*
X218411054Y-64135000D02*
X216098619Y-66447435D01*
X216098619Y-66447435D02*
X216098619Y-66665682D01*
X244605014Y-64135056D02*
X242292391Y-66447679D01*
X242292391Y-66447679D02*
X242292391Y-66665682D01*
X246221460Y-64135056D02*
X255746412Y-64135056D01*
X246221460Y-64135056D02*
X244605014Y-64135056D01*
X255746412Y-64135056D02*
X255746468Y-64135000D01*
X268486163Y-66447391D02*
X268486163Y-66665682D01*
X272415000Y-64135000D02*
X270798554Y-64135000D01*
X270798554Y-64135000D02*
X268486163Y-66447391D01*
X27066480Y-89157784D02*
X26719631Y-89079897D01*
X41597821Y-88873574D02*
X41260276Y-88985083D01*
X39867751Y-89262074D02*
X39513228Y-89288225D01*
X42254476Y-88601578D02*
X41929487Y-88745636D01*
X44279169Y-87175629D02*
X45739101Y-85715698D01*
X41929487Y-88745636D02*
X41597821Y-88873574D01*
X26039477Y-88873574D02*
X25707810Y-88745636D01*
X25382821Y-88601578D02*
X25065292Y-88441747D01*
X44279169Y-87175629D02*
X44021708Y-87420751D01*
X43181644Y-88076344D02*
X42881310Y-88266528D01*
X40220565Y-89218558D02*
X39867751Y-89262074D01*
X26719631Y-89079897D02*
X26377022Y-88985084D01*
X23615588Y-87420751D02*
X23358129Y-87175629D01*
X28479450Y-89296950D02*
X28124070Y-89288225D01*
X40570818Y-89157784D02*
X40220565Y-89218558D01*
X40917667Y-89079896D02*
X40570818Y-89157784D01*
X39157849Y-89296950D02*
X28479450Y-89296950D01*
X24755987Y-88266529D02*
X24455653Y-88076344D01*
X23358129Y-87175629D02*
X16827500Y-80645000D01*
X41260276Y-88985083D02*
X40917667Y-89079896D01*
X39513228Y-89288225D02*
X39157849Y-89296950D01*
X43752531Y-87652945D02*
X43472284Y-87871652D01*
X42881310Y-88266528D02*
X42572005Y-88441747D01*
X26377022Y-88985084D02*
X26039477Y-88873574D01*
X44021708Y-87420751D02*
X43752531Y-87652945D01*
X14446250Y-80645000D02*
X16827500Y-80645000D01*
X27416733Y-89218559D02*
X27066480Y-89157784D01*
X45839101Y-85715698D02*
X45739101Y-85715698D01*
X24165013Y-87871652D02*
X23884766Y-87652945D01*
X25065292Y-88441747D02*
X24755987Y-88266529D01*
X28124070Y-89288225D02*
X27769546Y-89262074D01*
X23884766Y-87652945D02*
X23615588Y-87420751D01*
X43472284Y-87871652D02*
X43181644Y-88076344D01*
X24455653Y-88076344D02*
X24165013Y-87871652D01*
X25707810Y-88745636D02*
X25382821Y-88601578D01*
X27769546Y-89262074D02*
X27416733Y-89218559D01*
X42572005Y-88441747D02*
X42254476Y-88601578D01*
X110728218Y-85694944D02*
X110188716Y-85694944D01*
X193467351Y-88115698D02*
X210145489Y-88115698D01*
X48815666Y-88115698D02*
X51792231Y-88115698D01*
X210145489Y-88115698D02*
X216098619Y-88115698D01*
X216098619Y-88115698D02*
X239911139Y-88115698D01*
X51792231Y-88115698D02*
X69651621Y-88115698D01*
X187532969Y-88115698D02*
X193467351Y-88115698D01*
X72023499Y-88115698D02*
X72032873Y-88106324D01*
X110188716Y-85694944D02*
X109965714Y-85471942D01*
X147637624Y-88115698D02*
X187532969Y-88115698D01*
X45839101Y-88115698D02*
X48815666Y-88115698D01*
X69651621Y-88115698D02*
X72023499Y-88115698D01*
X50111533Y-83185000D02*
X51792231Y-84865698D01*
X51792231Y-84865698D02*
X51792231Y-85715698D01*
X34290000Y-83185000D02*
X50111533Y-83185000D01*
X32673554Y-83185000D02*
X34290000Y-83185000D01*
X69651621Y-84227675D02*
X69651621Y-85715698D01*
X66068946Y-80645000D02*
X69651621Y-84227675D01*
X64452500Y-80645000D02*
X66068946Y-80645000D01*
X147031446Y-80645000D02*
X150614189Y-84227743D01*
X145415000Y-80645000D02*
X147031446Y-80645000D01*
X133508750Y-80645000D02*
X135125196Y-80645000D01*
X135125196Y-80645000D02*
X145415000Y-80645000D01*
X150614189Y-84227743D02*
X150614189Y-85715698D01*
X206562696Y-80645000D02*
X210145489Y-84227793D01*
X210145489Y-84227793D02*
X210145489Y-85715698D01*
X204946250Y-80645000D02*
X206562696Y-80645000D01*
X218411054Y-83185000D02*
X216098619Y-85497435D01*
X222408750Y-83185000D02*
X220027500Y-83185000D01*
X216098619Y-85497435D02*
X216098619Y-85715698D01*
X220027500Y-83185000D02*
X218411054Y-83185000D01*
X239911139Y-85497415D02*
X239911139Y-85715698D01*
X243840000Y-83185000D02*
X246221250Y-83185000D01*
X243840000Y-83185000D02*
X242223554Y-83185000D01*
X242223554Y-83185000D02*
X239911139Y-85497415D01*
X233958009Y-85715698D02*
X233958009Y-84865698D01*
X267652728Y-83185072D02*
X270033750Y-83185072D01*
X265501281Y-82650071D02*
X266036282Y-83185072D01*
X237106708Y-81716999D02*
X249089357Y-81716999D01*
X250022429Y-82650071D02*
X265501281Y-82650071D01*
X249089357Y-81716999D02*
X250022429Y-82650071D01*
X233958009Y-84865698D02*
X237106708Y-81716999D01*
X266036282Y-83185072D02*
X267652728Y-83185072D01*
X35073910Y-78364262D02*
X34727061Y-78442150D01*
X33314093Y-78581316D02*
X19645329Y-78581316D01*
X34727061Y-78442150D02*
X34376808Y-78502924D01*
X40371833Y-74964619D02*
X40062528Y-75139838D01*
X10477500Y-81568554D02*
X10477500Y-83185000D01*
X37628527Y-77156017D02*
X37337887Y-77360710D01*
X42026172Y-74326470D02*
X41683563Y-74421283D01*
X34376808Y-78502924D02*
X34023995Y-78546440D01*
X35416520Y-78269449D02*
X35073910Y-78364262D01*
X38177951Y-76705117D02*
X37908774Y-76937311D01*
X42373021Y-74248582D02*
X42026172Y-74326470D01*
X40689362Y-74804788D02*
X40371833Y-74964619D01*
X39762194Y-75330022D02*
X39471554Y-75534714D01*
X40062528Y-75139838D02*
X39762194Y-75330022D01*
X38435412Y-76459995D02*
X38664670Y-76230738D01*
X43785991Y-74109418D02*
X43430611Y-74118141D01*
X36085730Y-78030002D02*
X35754064Y-78157939D01*
X37337887Y-77360710D02*
X37037553Y-77550894D01*
X39191307Y-75753421D02*
X38922129Y-75985615D01*
X37037553Y-77550894D02*
X36728249Y-77726113D01*
X38435412Y-76459995D02*
X38177951Y-76705117D01*
X39471554Y-75534714D02*
X39191307Y-75753421D01*
X33669472Y-78572591D02*
X33314093Y-78581316D01*
X34023995Y-78546440D02*
X33669472Y-78572591D01*
X42723274Y-74187808D02*
X42373021Y-74248582D01*
X100265714Y-77371942D02*
X98618841Y-77371942D01*
X43430611Y-74118141D02*
X43076087Y-74144292D01*
X41683563Y-74421283D02*
X41346018Y-74532792D01*
X41014352Y-74660730D02*
X40689362Y-74804788D01*
X38922129Y-75985615D02*
X38664670Y-76230738D01*
X36728249Y-77726113D02*
X36410720Y-77885944D01*
X13464738Y-78581316D02*
X10477500Y-81568554D01*
X43785991Y-74109418D02*
X95356317Y-74109418D01*
X43076087Y-74144292D02*
X42723274Y-74187808D01*
X41346018Y-74532792D02*
X41014352Y-74660730D01*
X19645329Y-78581316D02*
X13464738Y-78581316D01*
X37908774Y-76937311D02*
X37628527Y-77156017D01*
X98618841Y-77371942D02*
X95356317Y-74109418D01*
X35754064Y-78157939D02*
X35416520Y-78269449D01*
X36410720Y-77885944D02*
X36085730Y-78030002D01*
X47623144Y-74871293D02*
X47965753Y-74776480D01*
X45701775Y-75780032D02*
X46002110Y-75589848D01*
X100265714Y-78171942D02*
X98782431Y-78171942D01*
X47285599Y-74982802D02*
X47623144Y-74871293D01*
X49725572Y-74559428D02*
X54768796Y-74559428D01*
X95169917Y-74559428D02*
X54768796Y-74559428D01*
X49370192Y-74568151D02*
X49725572Y-74559428D01*
X45411135Y-75984724D02*
X45701775Y-75780032D01*
X98782431Y-78171942D02*
X95169917Y-74559428D01*
X45130888Y-76203431D02*
X45411135Y-75984724D01*
X44604251Y-76680748D02*
X44861711Y-76435625D01*
X46953933Y-75110740D02*
X47285599Y-74982802D01*
X46002110Y-75589848D02*
X46311414Y-75414629D01*
X48662855Y-74637818D02*
X49015668Y-74594302D01*
X46311414Y-75414629D02*
X46628943Y-75254798D01*
X47965753Y-74776480D02*
X48312602Y-74698592D01*
X44861711Y-76435625D02*
X45130888Y-76203431D01*
X49015668Y-74594302D02*
X49370192Y-74568151D01*
X44604251Y-76680748D02*
X41090010Y-80194990D01*
X48312602Y-74698592D02*
X48662855Y-74637818D01*
X46628943Y-75254798D02*
X46953933Y-75110740D01*
X58102500Y-83185000D02*
X58102500Y-81568554D01*
X58102500Y-83185000D02*
X55721250Y-83185000D01*
X63938153Y-76039858D02*
X63637819Y-76230042D01*
X98946021Y-78971942D02*
X94983517Y-75009438D01*
X65221643Y-75432812D02*
X64889977Y-75560750D01*
X66248646Y-75148602D02*
X65901797Y-75226490D01*
X64247458Y-75864639D02*
X63938153Y-76039858D01*
X67306236Y-75018161D02*
X66951712Y-75044312D01*
X62797754Y-76885635D02*
X62540295Y-77130758D01*
X65901797Y-75226490D02*
X65559188Y-75321303D01*
X67661616Y-75009438D02*
X94983517Y-75009438D01*
X64564987Y-75704808D02*
X64247458Y-75864639D01*
X63347179Y-76434734D02*
X63066932Y-76653441D01*
X63066932Y-76653441D02*
X62797754Y-76885635D01*
X100265714Y-78971942D02*
X98946021Y-78971942D01*
X63637819Y-76230042D02*
X63347179Y-76434734D01*
X65559188Y-75321303D02*
X65221643Y-75432812D01*
X67661616Y-75009438D02*
X67306236Y-75018161D01*
X66598899Y-75087828D02*
X66248646Y-75148602D01*
X64889977Y-75560750D02*
X64564987Y-75704808D01*
X62540295Y-77130758D02*
X58102500Y-81568554D01*
X66951712Y-75044312D02*
X66598899Y-75087828D01*
X76040660Y-73659408D02*
X75604751Y-73223499D01*
X95542717Y-73659408D02*
X91678202Y-73659408D01*
X98455251Y-76571942D02*
X95542717Y-73659408D01*
X91678202Y-73659408D02*
X76040660Y-73659408D01*
X100265714Y-76571942D02*
X98455251Y-76571942D01*
X95729117Y-73209398D02*
X93639131Y-73209398D01*
X100265714Y-75771942D02*
X98291661Y-75771942D01*
X96687275Y-74167556D02*
X95729117Y-73209398D01*
X98291661Y-75771942D02*
X96687275Y-74167556D01*
X93639131Y-73209398D02*
X93464141Y-73034408D01*
X106765714Y-73071942D02*
X109751596Y-70086060D01*
X106765714Y-74071942D02*
X106765714Y-73071942D01*
X111665714Y-81371942D02*
X125345692Y-81371942D01*
X125345692Y-81371942D02*
X127158750Y-83185000D01*
X109826596Y-70811060D02*
X147668811Y-70811060D01*
X147668811Y-70811060D02*
X148232937Y-70246934D01*
X107565714Y-73071942D02*
X109826596Y-70811060D01*
X107565714Y-74071942D02*
X107565714Y-73071942D01*
X108365714Y-74071942D02*
X108365714Y-73071942D01*
X108365714Y-73071942D02*
X110176586Y-71261070D01*
X166864130Y-71261070D02*
X167282953Y-70842247D01*
X110176586Y-71261070D02*
X164306388Y-71261070D01*
X164306388Y-71261070D02*
X166864130Y-71261070D01*
X109165714Y-73071942D02*
X110526576Y-71711080D01*
X109165714Y-74071942D02*
X109165714Y-73071942D01*
X110526576Y-71711080D02*
X185462666Y-71711080D01*
X185462666Y-71711080D02*
X185737656Y-71436090D01*
X188624401Y-74221016D02*
X188905688Y-74313941D01*
X127899531Y-74178181D02*
X127556922Y-74272994D01*
X125635553Y-75181733D02*
X125344913Y-75386425D01*
X128596633Y-74039519D02*
X128246380Y-74100293D01*
X116248539Y-80571942D02*
X116698686Y-80560890D01*
X121713490Y-78766564D02*
X122068469Y-78489535D01*
X125935887Y-74991549D02*
X125635553Y-75181733D01*
X119339170Y-80035665D02*
X119759280Y-79873610D01*
X129659350Y-73961129D02*
X129303970Y-73969852D01*
X191140145Y-75728895D02*
X198596250Y-83185000D01*
X124538029Y-76082449D02*
X123994163Y-76626316D01*
X126562721Y-74656499D02*
X126245192Y-74816330D01*
X187463964Y-73990191D02*
X187757975Y-74026454D01*
X122760898Y-77853142D02*
X122767336Y-77853142D01*
X124795488Y-75837326D02*
X124538029Y-76082449D01*
X126887711Y-74512441D02*
X126562721Y-74656499D01*
X116698686Y-80560890D02*
X117147749Y-80527765D01*
X120964922Y-79266741D02*
X121345345Y-79025840D01*
X122409427Y-78195423D02*
X122569153Y-78035697D01*
X189182077Y-74420556D02*
X189452901Y-74540604D01*
X125064666Y-75605132D02*
X124795488Y-75837326D01*
X118477641Y-80297007D02*
X118911613Y-80176911D01*
X127219377Y-74384503D02*
X126887711Y-74512441D01*
X190701279Y-75331131D02*
X190925594Y-75524626D01*
X128949446Y-73996003D02*
X128596633Y-74039519D01*
X188905688Y-74313941D02*
X189182077Y-74420556D01*
X125344913Y-75386425D02*
X125064666Y-75605132D01*
X129303970Y-73969852D02*
X128949446Y-73996003D01*
X120573137Y-79488685D02*
X120964922Y-79266741D01*
X189717509Y-74673796D02*
X189975262Y-74819812D01*
X117594645Y-80472646D02*
X118038299Y-80395664D01*
X187757975Y-74026454D02*
X188049852Y-74077100D01*
X118038299Y-80395664D02*
X118477641Y-80297007D01*
X188049852Y-74077100D02*
X188338893Y-74142006D01*
X122767336Y-77853142D02*
X123994163Y-76626316D01*
X129659350Y-73961129D02*
X130428459Y-73961129D01*
X126245192Y-74816330D02*
X125935887Y-74991549D01*
X186872379Y-73961129D02*
X187168528Y-73968399D01*
X188338893Y-74142006D02*
X188624401Y-74221016D01*
X187168528Y-73968399D02*
X187463964Y-73990191D01*
X121345345Y-79025840D02*
X121713490Y-78766564D01*
X122569153Y-78035697D02*
X122760898Y-77853142D01*
X111665714Y-80571942D02*
X116248539Y-80571942D01*
X190467741Y-75148876D02*
X190701279Y-75331131D01*
X190225540Y-74978299D02*
X190467741Y-75148876D01*
X117147749Y-80527765D02*
X117594645Y-80472646D01*
X118911613Y-80176911D02*
X119339170Y-80035665D01*
X130428459Y-73961129D02*
X186872379Y-73961129D01*
X122068469Y-78489535D02*
X122409427Y-78195423D01*
X189975262Y-74819812D02*
X190225540Y-74978299D01*
X128246380Y-74100293D02*
X127899531Y-74178181D01*
X120170933Y-79691137D02*
X120573137Y-79488685D01*
X119759280Y-79873610D02*
X120170933Y-79691137D01*
X190925594Y-75524626D02*
X191140145Y-75728895D01*
X189452901Y-74540604D02*
X189717509Y-74673796D01*
X127556922Y-74272994D02*
X127219377Y-74384503D01*
X124718799Y-75319522D02*
X125027070Y-75078945D01*
X219588749Y-74223786D02*
X219324141Y-74090594D01*
X126724148Y-74117563D02*
X127088981Y-73976831D01*
X221011385Y-75278885D02*
X226377500Y-80645000D01*
X121019993Y-78621303D02*
X120674603Y-78816964D01*
X118439944Y-79616539D02*
X118048828Y-79684404D01*
X121355366Y-78408931D02*
X121019993Y-78621303D01*
X117654853Y-79732996D02*
X117258969Y-79762199D01*
X119957124Y-79156307D02*
X119586764Y-79299171D01*
X129772951Y-73511119D02*
X131922952Y-73511119D01*
X218495641Y-73771006D02*
X218210133Y-73691995D01*
X220338981Y-74698865D02*
X220096781Y-74528289D01*
X129382033Y-73520715D02*
X129772951Y-73511119D01*
X220096781Y-74528289D02*
X219846502Y-74369802D01*
X121679914Y-78180358D02*
X121355366Y-78408931D01*
X127088981Y-73976831D02*
X127460280Y-73854170D01*
X124422704Y-75574936D02*
X124718799Y-75319522D01*
X126017377Y-74451840D02*
X126366659Y-74276026D01*
X120674603Y-78816964D02*
X120320029Y-78995442D01*
X122293438Y-77676852D02*
X121992856Y-77936135D01*
X127460280Y-73854170D02*
X127837150Y-73749876D01*
X217921092Y-73627089D02*
X217629215Y-73576443D01*
X127837150Y-73749876D02*
X128218684Y-73664200D01*
X118048828Y-79684404D02*
X117654853Y-79732996D01*
X218776928Y-73863931D02*
X218495641Y-73771006D01*
X218210133Y-73691995D02*
X217921092Y-73627089D01*
X119209839Y-79423690D02*
X118827258Y-79529565D01*
X128603963Y-73597348D02*
X128992057Y-73549481D01*
X128218684Y-73664200D02*
X128603963Y-73597348D01*
X122580936Y-77403133D02*
X122293438Y-77676852D01*
X219846502Y-74369802D02*
X219588749Y-74223786D01*
X216743619Y-73511119D02*
X131922952Y-73511119D01*
X121992856Y-77936135D02*
X121679914Y-78180358D01*
X118827258Y-79529565D02*
X118439944Y-79616539D01*
X122580936Y-77403133D02*
X123679880Y-76304190D01*
X119586764Y-79299171D02*
X119209839Y-79423690D01*
X117258969Y-79762199D02*
X116862129Y-79771942D01*
X120320029Y-78995442D02*
X119957124Y-79156307D01*
X125027070Y-75078945D02*
X125346775Y-74853784D01*
X220796834Y-75074616D02*
X220572520Y-74881121D01*
X124139498Y-75844571D02*
X124422704Y-75574936D01*
X217335204Y-73540181D02*
X217039768Y-73518388D01*
X217629215Y-73576443D02*
X217335204Y-73540181D01*
X217039768Y-73518388D02*
X216743619Y-73511119D01*
X221011385Y-75278885D02*
X220796834Y-75074616D01*
X125346775Y-74853784D02*
X125677142Y-74644581D01*
X220572520Y-74881121D02*
X220338981Y-74698865D01*
X116862129Y-79771942D02*
X111665714Y-79771942D01*
X219053317Y-73970546D02*
X218776928Y-73863931D01*
X128992057Y-73549481D02*
X129382033Y-73520715D01*
X126366659Y-74276026D02*
X126724148Y-74117563D01*
X219324141Y-74090594D02*
X219053317Y-73970546D01*
X124139498Y-75844571D02*
X123679880Y-76304190D01*
X125677142Y-74644581D02*
X126017377Y-74451840D01*
X129886551Y-73061109D02*
X129460095Y-73071577D01*
X124372931Y-75033912D02*
X124049917Y-75312545D01*
X128611291Y-73155177D02*
X128190987Y-73228106D01*
X239034365Y-73126434D02*
X239326242Y-73177080D01*
X118503011Y-78896163D02*
X118161958Y-78938228D01*
X126170597Y-73895553D02*
X125789561Y-74087350D01*
X118161958Y-78938228D02*
X117819252Y-78963507D01*
X238148769Y-73061109D02*
X238444918Y-73068379D01*
X123740966Y-75606693D02*
X123175282Y-76172378D01*
X120776070Y-78145245D02*
X120469125Y-78299748D01*
X120154969Y-78439004D02*
X119834358Y-78562677D01*
X122426328Y-76921331D02*
X123175282Y-76172378D01*
X239615283Y-73241986D02*
X239900791Y-73320996D01*
X122426328Y-76921331D02*
X122177449Y-77158282D01*
X241251652Y-73919792D02*
X241501930Y-74078279D01*
X119508065Y-78670470D02*
X119176876Y-78762123D01*
X121646339Y-77594153D02*
X121365387Y-77792022D01*
X238444918Y-73068379D02*
X238740354Y-73090171D01*
X118841588Y-78837414D02*
X118503011Y-78896163D01*
X119834358Y-78562677D02*
X119508065Y-78670470D01*
X125418396Y-74297613D02*
X125057995Y-74525834D01*
X241977669Y-74431111D02*
X242201984Y-74624606D01*
X129034667Y-73102958D02*
X128611291Y-73155177D01*
X125789561Y-74087350D02*
X125418396Y-74297613D01*
X240993899Y-73773776D02*
X241251652Y-73919792D01*
X127363637Y-73435347D02*
X126958584Y-73569158D01*
X126958584Y-73569158D02*
X126560584Y-73722684D01*
X238740354Y-73090171D02*
X239034365Y-73126434D01*
X121075064Y-77975867D02*
X120776070Y-78145245D01*
X128190987Y-73228106D02*
X127774769Y-73321571D01*
X240182078Y-73413921D02*
X240458467Y-73520536D01*
X120469125Y-78299748D02*
X120154969Y-78439004D01*
X124049917Y-75312545D02*
X123740966Y-75606693D01*
X241744131Y-74248856D02*
X241977669Y-74431111D01*
X129886551Y-73061109D02*
X132186552Y-73061109D01*
X122177449Y-77158282D02*
X121917244Y-77382736D01*
X240458467Y-73520536D02*
X240729291Y-73640584D01*
X240729291Y-73640584D02*
X240993899Y-73773776D01*
X129460095Y-73071577D02*
X129034667Y-73102958D01*
X242201984Y-74624606D02*
X242416535Y-74828875D01*
X239326242Y-73177080D02*
X239615283Y-73241986D01*
X124709227Y-74771464D02*
X124372931Y-75033912D01*
X117475719Y-78971942D02*
X111665714Y-78971942D01*
X121365387Y-77792022D02*
X121075064Y-77975867D01*
X241501930Y-74078279D02*
X241744131Y-74248856D01*
X238148769Y-73061109D02*
X132186552Y-73061109D01*
X121917244Y-77382736D02*
X121646339Y-77594153D01*
X117819252Y-78963507D02*
X117475719Y-78971942D01*
X119176876Y-78762123D02*
X118841588Y-78837414D01*
X125057995Y-74525834D02*
X124709227Y-74771464D01*
X248232660Y-80645000D02*
X250190000Y-80645000D01*
X127774769Y-73321571D02*
X127363637Y-73435347D01*
X126560584Y-73722684D02*
X126170597Y-73895553D01*
X242416535Y-74828875D02*
X248232660Y-80645000D01*
X239900791Y-73320996D02*
X240182078Y-73413921D01*
X123677132Y-75050155D02*
X123342434Y-75368815D01*
X119526493Y-77994680D02*
X119243233Y-78058289D01*
X265905524Y-74174596D02*
X265681209Y-73981101D01*
X120081952Y-77826183D02*
X119806291Y-77917250D01*
X119243233Y-78058289D02*
X118957193Y-78107921D01*
X118089309Y-78171942D02*
X116681348Y-78171942D01*
X262737905Y-72676424D02*
X262443894Y-72640161D01*
X120352813Y-77721701D02*
X120081952Y-77826183D01*
X264162007Y-73070526D02*
X263885618Y-72963911D01*
X119806291Y-77917250D02*
X119526493Y-77994680D01*
X125561746Y-73722860D02*
X125159650Y-73950645D01*
X130000151Y-72611099D02*
X130950152Y-72611099D01*
X124027062Y-74748303D02*
X123677132Y-75050155D01*
X263029782Y-72727069D02*
X262737905Y-72676424D01*
X121130135Y-77330430D02*
X120877536Y-77473525D01*
X264697439Y-73323766D02*
X264432831Y-73190574D01*
X266120075Y-74378865D02*
X265905524Y-74174596D01*
X264955192Y-73469782D02*
X264697439Y-73323766D01*
X122061460Y-76639711D02*
X121841631Y-76829336D01*
X118957193Y-78107921D02*
X118669062Y-78143459D01*
X125159650Y-73950645D02*
X124769216Y-74197884D01*
X128163291Y-72792013D02*
X127712387Y-72893267D01*
X263604331Y-72870986D02*
X263318823Y-72791976D01*
X122271720Y-76439529D02*
X122670684Y-76040566D01*
X120618221Y-77604053D02*
X120352813Y-77721701D01*
X121612763Y-77007947D02*
X121375407Y-77175112D01*
X266120075Y-74378865D02*
X272386282Y-80645072D01*
X122271720Y-76439529D02*
X122061460Y-76639711D01*
X121841631Y-76829336D02*
X121612763Y-77007947D01*
X263885618Y-72963911D02*
X263604331Y-72870986D01*
X125974534Y-73515080D02*
X125561746Y-73722860D01*
X129077277Y-72656436D02*
X128618619Y-72713006D01*
X128618619Y-72713006D02*
X128163291Y-72792013D01*
X118379535Y-78164816D02*
X118089309Y-78171942D01*
X118669062Y-78143459D02*
X118379535Y-78164816D01*
X124391383Y-74463984D02*
X124027062Y-74748303D01*
X127266994Y-73016523D02*
X126828186Y-73161486D01*
X262443894Y-72640161D02*
X262148458Y-72618368D01*
X129538157Y-72622439D02*
X129077277Y-72656436D01*
X127712387Y-72893267D02*
X127266994Y-73016523D01*
X120877536Y-77473525D02*
X120618221Y-77604053D01*
X121375407Y-77175112D02*
X121130135Y-77330430D01*
X116681348Y-78171942D02*
X111665714Y-78171942D01*
X126828186Y-73161486D02*
X126397020Y-73327805D01*
X130000151Y-72611099D02*
X129538157Y-72622439D01*
X264432831Y-73190574D02*
X264162007Y-73070526D01*
X263318823Y-72791976D02*
X263029782Y-72727069D01*
X124769216Y-74197884D02*
X124391383Y-74463984D01*
X265447671Y-73798846D02*
X265205470Y-73628269D01*
X274002728Y-80645072D02*
X272386282Y-80645072D01*
X262148458Y-72618368D02*
X261852309Y-72611099D01*
X126397020Y-73327805D02*
X125974534Y-73515080D01*
X261852309Y-72611099D02*
X130950152Y-72611099D01*
X265205470Y-73628269D02*
X264955192Y-73469782D01*
X265681209Y-73981101D02*
X265447671Y-73798846D01*
X123342434Y-75368815D02*
X122670684Y-76040566D01*
X275489775Y-13692199D02*
X278765000Y-10416974D01*
X278765000Y-6061446D02*
X278765000Y-4445000D01*
X278765000Y-10416974D02*
X278765000Y-6061446D01*
X263731454Y-15811560D02*
X273370414Y-15811560D01*
X123681193Y-74462694D02*
X123304345Y-74787766D01*
X120329546Y-77089690D02*
X120104517Y-77164030D01*
X123304345Y-74787766D02*
X122943901Y-75130938D01*
X118702899Y-77371942D02*
X116681348Y-77371942D01*
X126233455Y-72932927D02*
X125778470Y-73134608D01*
X130113750Y-72161090D02*
X131213751Y-72161090D01*
X122117112Y-75957727D02*
X121945471Y-76121141D01*
X116681348Y-77371942D02*
X111665714Y-77371942D01*
X127650004Y-72464963D02*
X127170351Y-72597701D01*
X120979003Y-76801806D02*
X120767317Y-76908359D01*
X119644878Y-77279163D02*
X119411376Y-77319680D01*
X125333929Y-73358372D02*
X124900903Y-73603678D01*
X121579189Y-76421742D02*
X121385428Y-76558203D01*
X129119885Y-72209914D02*
X128625947Y-72270836D01*
X121766019Y-76275937D02*
X121579189Y-76421742D01*
X124073539Y-74156505D02*
X123681193Y-74462694D01*
X119876110Y-77227238D02*
X119644878Y-77279163D01*
X120104517Y-77164030D02*
X119876110Y-77227238D01*
X121185206Y-76684993D02*
X120979003Y-76801806D01*
X264447189Y-72161090D02*
X265381381Y-72161090D01*
X124900903Y-73603678D02*
X124480435Y-73869936D01*
X128625947Y-72270836D02*
X128135593Y-72355920D01*
X121385428Y-76558203D02*
X121185206Y-76684993D01*
X125778470Y-73134608D02*
X125333929Y-73358372D01*
X122117112Y-75957727D02*
X122166085Y-75908755D01*
X126697788Y-72753814D02*
X126233455Y-72932927D01*
X120550657Y-77004398D02*
X120329546Y-77089690D01*
X119176167Y-77348690D02*
X118939818Y-77366124D01*
X120767317Y-76908359D02*
X120550657Y-77004398D01*
X121945471Y-76121141D02*
X121766019Y-76275937D01*
X118939818Y-77366124D02*
X118702899Y-77371942D01*
X129616218Y-72173303D02*
X129119885Y-72209914D01*
X122943901Y-75130938D02*
X122166085Y-75908755D01*
X127170351Y-72597701D02*
X126697788Y-72753814D01*
X131213751Y-72161090D02*
X264447189Y-72161090D01*
X124480435Y-73869936D02*
X124073539Y-74156505D01*
X273370414Y-15811560D02*
X275489775Y-13692199D01*
X119411376Y-77319680D02*
X119176167Y-77348690D01*
X128135593Y-72355920D02*
X127650004Y-72464963D01*
X130113750Y-72161090D02*
X129616218Y-72173303D01*
D28*
X2672000Y-18810000D02*
X2672000Y-19184280D01*
X4580000Y-21092280D02*
X4580000Y-40250000D01*
X2672000Y-19184280D02*
X4580000Y-21092280D01*
X5548433Y-40218433D02*
X5580000Y-40250000D01*
X5548433Y-19786433D02*
X5548433Y-40218433D01*
X4572000Y-18810000D02*
X5548433Y-19786433D01*
D26*
X70842247Y-51196918D02*
X50601605Y-51196918D01*
X100265714Y-82971942D02*
X98598523Y-82971942D01*
X98598523Y-82971942D02*
X95845393Y-85725072D01*
X95845393Y-85725072D02*
X94540078Y-85725072D01*
X119519165Y-88622263D02*
X119816661Y-88622263D01*
X116176661Y-85279759D02*
X119519165Y-88622263D01*
X94540078Y-85725072D02*
X94059454Y-86205696D01*
X27806276Y-49525040D02*
X34106276Y-49525040D01*
X36878154Y-51196918D02*
X50601605Y-51196918D01*
X116176661Y-85129759D02*
X116176661Y-85279759D01*
X34106276Y-49525040D02*
X35206276Y-49525040D01*
X35206276Y-49525040D02*
X36878154Y-51196918D01*
X94059454Y-86205696D02*
X94059454Y-86915698D01*
X113677102Y-85129759D02*
X113617287Y-85069944D01*
X116176661Y-85129759D02*
X113677102Y-85129759D01*
X110728218Y-73223499D02*
X109965714Y-73986003D01*
X116176661Y-73223499D02*
X110728218Y-73223499D01*
X109965714Y-73986003D02*
X109965714Y-74071942D01*
X101965714Y-85471942D02*
X101965714Y-87082889D01*
X101965714Y-87082889D02*
X102989149Y-88106324D01*
X103565714Y-86301637D02*
X103565714Y-85471942D01*
X104179775Y-86915698D02*
X103565714Y-86301637D01*
X102765714Y-86692263D02*
X103584462Y-87511011D01*
X102765714Y-85471942D02*
X102765714Y-86692263D01*
X101203210Y-84534446D02*
X101203210Y-87204270D01*
X101798523Y-83939133D02*
X101203210Y-84534446D01*
X104365714Y-84471942D02*
X103832905Y-83939133D01*
X103832905Y-83939133D02*
X101798523Y-83939133D01*
X101203210Y-87204270D02*
X102147205Y-88148265D01*
X104365714Y-85471942D02*
X104365714Y-84471942D01*
X2046990Y-18075376D02*
X2046990Y-19544626D01*
X3622000Y-16510000D02*
X3622000Y-16919634D01*
X2656644Y-17884990D02*
X2237376Y-17884990D01*
X4482366Y-15240000D02*
X3622000Y-16100366D01*
X2046990Y-19544626D02*
X3580000Y-21077636D01*
X8128000Y-16510000D02*
X6858000Y-15240000D01*
X3580000Y-21077636D02*
X3580000Y-40250000D01*
X2237376Y-17884990D02*
X2046990Y-18075376D01*
X3622000Y-16100366D02*
X3622000Y-16510000D01*
X6858000Y-15240000D02*
X4482366Y-15240000D01*
X3622000Y-16919634D02*
X2656644Y-17884990D01*
X80819109Y-88933106D02*
X80425307Y-88803012D01*
X78927903Y-88094792D02*
X78577513Y-87872910D01*
X107565714Y-86471942D02*
X104740706Y-89296950D01*
X82857332Y-89286771D02*
X82443721Y-89256262D01*
X83271942Y-89296950D02*
X82857332Y-89286771D01*
X82443721Y-89256262D02*
X82032106Y-89205494D01*
X77597438Y-87108052D02*
X77297068Y-86822076D01*
X77297068Y-86822076D02*
X74414125Y-83939133D01*
X78238432Y-87634103D02*
X77911478Y-87378945D01*
X79288758Y-88299214D02*
X78927903Y-88094792D01*
X77911478Y-87378945D02*
X77597438Y-87108052D01*
X80425307Y-88803012D02*
X80038363Y-88653751D01*
X65000912Y-19533534D02*
X64976446Y-19558000D01*
X82032106Y-89205494D02*
X81623477Y-89134590D01*
X107565714Y-85471942D02*
X107565714Y-86471942D01*
X79659209Y-88485683D02*
X79288758Y-88299214D01*
X64976446Y-19558000D02*
X13462000Y-19558000D01*
X83271942Y-89296950D02*
X104740706Y-89296950D01*
X81623477Y-89134590D02*
X81218820Y-89043721D01*
X81218820Y-89043721D02*
X80819109Y-88933106D01*
X13462000Y-19558000D02*
X12700000Y-18796000D01*
X80038363Y-88653751D02*
X79659209Y-88485683D01*
X78577513Y-87872910D02*
X78238432Y-87634103D01*
X12700000Y-16510000D02*
X11684000Y-17526000D01*
X11684000Y-17526000D02*
X5588000Y-17526000D01*
X5588000Y-17526000D02*
X4572000Y-16510000D01*
X80213128Y-89336335D02*
X80664231Y-89461172D01*
X10414000Y-18542000D02*
X12112642Y-20240642D01*
X76577242Y-87276631D02*
X76931659Y-87582353D01*
X105090697Y-89746959D02*
X108365714Y-86471942D01*
X78486017Y-88620943D02*
X78904098Y-88831386D01*
X12112642Y-20240642D02*
X64293804Y-20240642D01*
X76931659Y-87582353D02*
X77300650Y-87870317D01*
X77300650Y-87870317D02*
X77683327Y-88139828D01*
X80664231Y-89461172D02*
X81120915Y-89563724D01*
X77683327Y-88139828D02*
X78078767Y-88390238D01*
X79332000Y-89021063D02*
X79768694Y-89189514D01*
X82046619Y-89701039D02*
X82513408Y-89735472D01*
X73789124Y-84504758D02*
X73223499Y-83939133D01*
X76238253Y-86953887D02*
X76577242Y-87276631D01*
X81582082Y-89643744D02*
X82046619Y-89701039D01*
X76238253Y-86953887D02*
X73789124Y-84504758D01*
X82981325Y-89746959D02*
X105090697Y-89746959D01*
X82513408Y-89735472D02*
X82981325Y-89746959D01*
X81120915Y-89563724D02*
X81582082Y-89643744D01*
X78904098Y-88831386D02*
X79332000Y-89021063D01*
X108365714Y-86471942D02*
X108365714Y-85471942D01*
X79768694Y-89189514D02*
X80213128Y-89336335D01*
X78078767Y-88390238D02*
X78486017Y-88620943D01*
X2672000Y-15870000D02*
X2672000Y-16510000D01*
X8382000Y-14478000D02*
X4064000Y-14478000D01*
X4064000Y-14478000D02*
X2672000Y-15870000D01*
X10414000Y-16510000D02*
X8382000Y-14478000D01*
X97013629Y-80376629D02*
X97208942Y-80571942D01*
X94059454Y-80376629D02*
X97013629Y-80376629D01*
X97208942Y-80571942D02*
X100265714Y-80571942D01*
X96440706Y-78581316D02*
X97631332Y-79771942D01*
X97631332Y-79771942D02*
X100265714Y-79771942D01*
X96086019Y-78226629D02*
X96440706Y-78581316D01*
X95836019Y-77976629D02*
X96440706Y-78581316D01*
X94059454Y-77976629D02*
X95836019Y-77976629D01*
X100012584Y-86915698D02*
X101943826Y-88846940D01*
X105965714Y-85471942D02*
X105965714Y-87435532D01*
X104554306Y-88846940D02*
X101943826Y-88846940D01*
X95059454Y-86915698D02*
X100012584Y-86915698D01*
X105965714Y-87435532D02*
X104554306Y-88846940D01*
M02*
