G04 #@! TF.GenerationSoftware,KiCad,Pcbnew,(5.99.0-4079-gfad0916f0)*
G04 #@! TF.CreationDate,2020-11-08T20:09:33-05:00*
G04 #@! TF.ProjectId,plain60-c,706c6169-6e36-4302-9d63-2e6b69636164,rev?*
G04 #@! TF.SameCoordinates,Original*
G04 #@! TF.FileFunction,Legend,Top*
G04 #@! TF.FilePolarity,Positive*
%FSLAX46Y46*%
G04 Gerber Fmt 4.6, Leading zero omitted, Abs format (unit mm)*
G04 Created by KiCad (PCBNEW (5.99.0-4079-gfad0916f0)) date 2020-11-08 20:09:33*
%MOMM*%
%LPD*%
G01*
G04 APERTURE LIST*
%ADD10C,0.150000*%
G04 APERTURE END LIST*
D10*
X33496428Y-89352380D02*
X32925000Y-89352380D01*
X33210714Y-89352380D02*
X33210714Y-88352380D01*
X33115476Y-88495238D01*
X33020238Y-88590476D01*
X32925000Y-88638095D01*
X33925000Y-89257142D02*
X33972619Y-89304761D01*
X33925000Y-89352380D01*
X33877380Y-89304761D01*
X33925000Y-89257142D01*
X33925000Y-89352380D01*
X34353571Y-88447619D02*
X34401190Y-88400000D01*
X34496428Y-88352380D01*
X34734523Y-88352380D01*
X34829761Y-88400000D01*
X34877380Y-88447619D01*
X34925000Y-88542857D01*
X34925000Y-88638095D01*
X34877380Y-88780952D01*
X34305952Y-89352380D01*
X34925000Y-89352380D01*
X35829761Y-88352380D02*
X35353571Y-88352380D01*
X35305952Y-88828571D01*
X35353571Y-88780952D01*
X35448809Y-88733333D01*
X35686904Y-88733333D01*
X35782142Y-88780952D01*
X35829761Y-88828571D01*
X35877380Y-88923809D01*
X35877380Y-89161904D01*
X35829761Y-89257142D01*
X35782142Y-89304761D01*
X35686904Y-89352380D01*
X35448809Y-89352380D01*
X35353571Y-89304761D01*
X35305952Y-89257142D01*
X36305952Y-88352380D02*
X36305952Y-89161904D01*
X36353571Y-89257142D01*
X36401190Y-89304761D01*
X36496428Y-89352380D01*
X36686904Y-89352380D01*
X36782142Y-89304761D01*
X36829761Y-89257142D01*
X36877380Y-89161904D01*
X36877380Y-88352380D01*
X7342571Y-51204761D02*
X7485428Y-51252380D01*
X7723523Y-51252380D01*
X7818761Y-51204761D01*
X7866380Y-51157142D01*
X7914000Y-51061904D01*
X7914000Y-50966666D01*
X7866380Y-50871428D01*
X7818761Y-50823809D01*
X7723523Y-50776190D01*
X7533047Y-50728571D01*
X7437809Y-50680952D01*
X7390190Y-50633333D01*
X7342571Y-50538095D01*
X7342571Y-50442857D01*
X7390190Y-50347619D01*
X7437809Y-50300000D01*
X7533047Y-50252380D01*
X7771142Y-50252380D01*
X7914000Y-50300000D01*
X8199714Y-50252380D02*
X8771142Y-50252380D01*
X8485428Y-51252380D02*
X8485428Y-50252380D01*
X9104476Y-50728571D02*
X9437809Y-50728571D01*
X9580666Y-51252380D02*
X9104476Y-51252380D01*
X9104476Y-50252380D01*
X9580666Y-50252380D01*
X10009238Y-51252380D02*
X10009238Y-50252380D01*
X10390190Y-50252380D01*
X10485428Y-50300000D01*
X10533047Y-50347619D01*
X10580666Y-50442857D01*
X10580666Y-50585714D01*
X10533047Y-50680952D01*
X10485428Y-50728571D01*
X10390190Y-50776190D01*
X10009238Y-50776190D01*
X11009238Y-51252380D02*
X11009238Y-50252380D01*
X11390190Y-50252380D01*
X11485428Y-50300000D01*
X11533047Y-50347619D01*
X11580666Y-50442857D01*
X11580666Y-50585714D01*
X11533047Y-50680952D01*
X11485428Y-50728571D01*
X11390190Y-50776190D01*
X11009238Y-50776190D01*
X12009238Y-50728571D02*
X12342571Y-50728571D01*
X12485428Y-51252380D02*
X12009238Y-51252380D01*
X12009238Y-50252380D01*
X12485428Y-50252380D01*
X12914000Y-51252380D02*
X12914000Y-50252380D01*
X13152095Y-50252380D01*
X13294952Y-50300000D01*
X13390190Y-50395238D01*
X13437809Y-50490476D01*
X13485428Y-50680952D01*
X13485428Y-50823809D01*
X13437809Y-51014285D01*
X13390190Y-51109523D01*
X13294952Y-51204761D01*
X13152095Y-51252380D01*
X12914000Y-51252380D01*
X9366428Y-89352380D02*
X8795000Y-89352380D01*
X9080714Y-89352380D02*
X9080714Y-88352380D01*
X8985476Y-88495238D01*
X8890238Y-88590476D01*
X8795000Y-88638095D01*
X9795000Y-89257142D02*
X9842619Y-89304761D01*
X9795000Y-89352380D01*
X9747380Y-89304761D01*
X9795000Y-89257142D01*
X9795000Y-89352380D01*
X10223571Y-88447619D02*
X10271190Y-88400000D01*
X10366428Y-88352380D01*
X10604523Y-88352380D01*
X10699761Y-88400000D01*
X10747380Y-88447619D01*
X10795000Y-88542857D01*
X10795000Y-88638095D01*
X10747380Y-88780952D01*
X10175952Y-89352380D01*
X10795000Y-89352380D01*
X11699761Y-88352380D02*
X11223571Y-88352380D01*
X11175952Y-88828571D01*
X11223571Y-88780952D01*
X11318809Y-88733333D01*
X11556904Y-88733333D01*
X11652142Y-88780952D01*
X11699761Y-88828571D01*
X11747380Y-88923809D01*
X11747380Y-89161904D01*
X11699761Y-89257142D01*
X11652142Y-89304761D01*
X11556904Y-89352380D01*
X11318809Y-89352380D01*
X11223571Y-89304761D01*
X11175952Y-89257142D01*
X12175952Y-88352380D02*
X12175952Y-89161904D01*
X12223571Y-89257142D01*
X12271190Y-89304761D01*
X12366428Y-89352380D01*
X12556904Y-89352380D01*
X12652142Y-89304761D01*
X12699761Y-89257142D01*
X12747380Y-89161904D01*
X12747380Y-88352380D01*
X199040857Y-80224380D02*
X199707523Y-80224380D01*
X199278952Y-81224380D01*
X200088476Y-80224380D02*
X200088476Y-81033904D01*
X200136095Y-81129142D01*
X200183714Y-81176761D01*
X200278952Y-81224380D01*
X200469428Y-81224380D01*
X200564666Y-81176761D01*
X200612285Y-81129142D01*
X200659904Y-81033904D01*
X200659904Y-80224380D01*
X273526428Y-89352380D02*
X272955000Y-89352380D01*
X273240714Y-89352380D02*
X273240714Y-88352380D01*
X273145476Y-88495238D01*
X273050238Y-88590476D01*
X272955000Y-88638095D01*
X273955000Y-89257142D02*
X274002619Y-89304761D01*
X273955000Y-89352380D01*
X273907380Y-89304761D01*
X273955000Y-89257142D01*
X273955000Y-89352380D01*
X274383571Y-88447619D02*
X274431190Y-88400000D01*
X274526428Y-88352380D01*
X274764523Y-88352380D01*
X274859761Y-88400000D01*
X274907380Y-88447619D01*
X274955000Y-88542857D01*
X274955000Y-88638095D01*
X274907380Y-88780952D01*
X274335952Y-89352380D01*
X274955000Y-89352380D01*
X275859761Y-88352380D02*
X275383571Y-88352380D01*
X275335952Y-88828571D01*
X275383571Y-88780952D01*
X275478809Y-88733333D01*
X275716904Y-88733333D01*
X275812142Y-88780952D01*
X275859761Y-88828571D01*
X275907380Y-88923809D01*
X275907380Y-89161904D01*
X275859761Y-89257142D01*
X275812142Y-89304761D01*
X275716904Y-89352380D01*
X275478809Y-89352380D01*
X275383571Y-89304761D01*
X275335952Y-89257142D01*
X276335952Y-88352380D02*
X276335952Y-89161904D01*
X276383571Y-89257142D01*
X276431190Y-89304761D01*
X276526428Y-89352380D01*
X276716904Y-89352380D01*
X276812142Y-89304761D01*
X276859761Y-89257142D01*
X276907380Y-89161904D01*
X276907380Y-88352380D01*
X251856904Y-44902380D02*
X251285476Y-44902380D01*
X251571190Y-44902380D02*
X251571190Y-43902380D01*
X251475952Y-44045238D01*
X251380714Y-44140476D01*
X251285476Y-44188095D01*
X252285476Y-43902380D02*
X252285476Y-44711904D01*
X252333095Y-44807142D01*
X252380714Y-44854761D01*
X252475952Y-44902380D01*
X252666428Y-44902380D01*
X252761666Y-44854761D01*
X252809285Y-44807142D01*
X252856904Y-44711904D01*
X252856904Y-43902380D01*
X248761428Y-70302380D02*
X248190000Y-70302380D01*
X248475714Y-70302380D02*
X248475714Y-69302380D01*
X248380476Y-69445238D01*
X248285238Y-69540476D01*
X248190000Y-69588095D01*
X249190000Y-70207142D02*
X249237619Y-70254761D01*
X249190000Y-70302380D01*
X249142380Y-70254761D01*
X249190000Y-70207142D01*
X249190000Y-70302380D01*
X249570952Y-69302380D02*
X250237619Y-69302380D01*
X249809047Y-70302380D01*
X251094761Y-69302380D02*
X250618571Y-69302380D01*
X250570952Y-69778571D01*
X250618571Y-69730952D01*
X250713809Y-69683333D01*
X250951904Y-69683333D01*
X251047142Y-69730952D01*
X251094761Y-69778571D01*
X251142380Y-69873809D01*
X251142380Y-70111904D01*
X251094761Y-70207142D01*
X251047142Y-70254761D01*
X250951904Y-70302380D01*
X250713809Y-70302380D01*
X250618571Y-70254761D01*
X250570952Y-70207142D01*
X251570952Y-69302380D02*
X251570952Y-70111904D01*
X251618571Y-70207142D01*
X251666190Y-70254761D01*
X251761428Y-70302380D01*
X251951904Y-70302380D01*
X252047142Y-70254761D01*
X252094761Y-70207142D01*
X252142380Y-70111904D01*
X252142380Y-69302380D01*
X275986904Y-70302380D02*
X275415476Y-70302380D01*
X275701190Y-70302380D02*
X275701190Y-69302380D01*
X275605952Y-69445238D01*
X275510714Y-69540476D01*
X275415476Y-69588095D01*
X276415476Y-69302380D02*
X276415476Y-70111904D01*
X276463095Y-70207142D01*
X276510714Y-70254761D01*
X276605952Y-70302380D01*
X276796428Y-70302380D01*
X276891666Y-70254761D01*
X276939285Y-70207142D01*
X276986904Y-70111904D01*
X276986904Y-69302380D01*
X14740380Y-51204761D02*
X14883238Y-51252380D01*
X15121333Y-51252380D01*
X15216571Y-51204761D01*
X15264190Y-51157142D01*
X15311809Y-51061904D01*
X15311809Y-50966666D01*
X15264190Y-50871428D01*
X15216571Y-50823809D01*
X15121333Y-50776190D01*
X14930857Y-50728571D01*
X14835619Y-50680952D01*
X14788000Y-50633333D01*
X14740380Y-50538095D01*
X14740380Y-50442857D01*
X14788000Y-50347619D01*
X14835619Y-50300000D01*
X14930857Y-50252380D01*
X15168952Y-50252380D01*
X15311809Y-50300000D01*
X15597523Y-50252380D02*
X16168952Y-50252380D01*
X15883238Y-51252380D02*
X15883238Y-50252380D01*
X16454666Y-50966666D02*
X16930857Y-50966666D01*
X16359428Y-51252380D02*
X16692761Y-50252380D01*
X17026095Y-51252380D01*
X17359428Y-51252380D02*
X17359428Y-50252380D01*
X17930857Y-51252380D01*
X17930857Y-50252380D01*
X18407047Y-51252380D02*
X18407047Y-50252380D01*
X18645142Y-50252380D01*
X18788000Y-50300000D01*
X18883238Y-50395238D01*
X18930857Y-50490476D01*
X18978476Y-50680952D01*
X18978476Y-50823809D01*
X18930857Y-51014285D01*
X18883238Y-51109523D01*
X18788000Y-51204761D01*
X18645142Y-51252380D01*
X18407047Y-51252380D01*
X19359428Y-50966666D02*
X19835619Y-50966666D01*
X19264190Y-51252380D02*
X19597523Y-50252380D01*
X19930857Y-51252380D01*
X20835619Y-51252380D02*
X20502285Y-50776190D01*
X20264190Y-51252380D02*
X20264190Y-50252380D01*
X20645142Y-50252380D01*
X20740380Y-50300000D01*
X20788000Y-50347619D01*
X20835619Y-50442857D01*
X20835619Y-50585714D01*
X20788000Y-50680952D01*
X20740380Y-50728571D01*
X20645142Y-50776190D01*
X20264190Y-50776190D01*
X21264190Y-51252380D02*
X21264190Y-50252380D01*
X21502285Y-50252380D01*
X21645142Y-50300000D01*
X21740380Y-50395238D01*
X21788000Y-50490476D01*
X21835619Y-50680952D01*
X21835619Y-50823809D01*
X21788000Y-51014285D01*
X21740380Y-51109523D01*
X21645142Y-51204761D01*
X21502285Y-51252380D01*
X21264190Y-51252380D01*
X142017857Y-88352380D02*
X142684523Y-88352380D01*
X142255952Y-89352380D01*
X143065476Y-88352380D02*
X143065476Y-89161904D01*
X143113095Y-89257142D01*
X143160714Y-89304761D01*
X143255952Y-89352380D01*
X143446428Y-89352380D01*
X143541666Y-89304761D01*
X143589285Y-89257142D01*
X143636904Y-89161904D01*
X143636904Y-88352380D01*
X129286190Y-88352380D02*
X129095714Y-88352380D01*
X129000476Y-88400000D01*
X128952857Y-88447619D01*
X128857619Y-88590476D01*
X128810000Y-88780952D01*
X128810000Y-89161904D01*
X128857619Y-89257142D01*
X128905238Y-89304761D01*
X129000476Y-89352380D01*
X129190952Y-89352380D01*
X129286190Y-89304761D01*
X129333809Y-89257142D01*
X129381428Y-89161904D01*
X129381428Y-88923809D01*
X129333809Y-88828571D01*
X129286190Y-88780952D01*
X129190952Y-88733333D01*
X129000476Y-88733333D01*
X128905238Y-88780952D01*
X128857619Y-88828571D01*
X128810000Y-88923809D01*
X129810000Y-89257142D02*
X129857619Y-89304761D01*
X129810000Y-89352380D01*
X129762380Y-89304761D01*
X129810000Y-89257142D01*
X129810000Y-89352380D01*
X130238571Y-88447619D02*
X130286190Y-88400000D01*
X130381428Y-88352380D01*
X130619523Y-88352380D01*
X130714761Y-88400000D01*
X130762380Y-88447619D01*
X130810000Y-88542857D01*
X130810000Y-88638095D01*
X130762380Y-88780952D01*
X130190952Y-89352380D01*
X130810000Y-89352380D01*
X131714761Y-88352380D02*
X131238571Y-88352380D01*
X131190952Y-88828571D01*
X131238571Y-88780952D01*
X131333809Y-88733333D01*
X131571904Y-88733333D01*
X131667142Y-88780952D01*
X131714761Y-88828571D01*
X131762380Y-88923809D01*
X131762380Y-89161904D01*
X131714761Y-89257142D01*
X131667142Y-89304761D01*
X131571904Y-89352380D01*
X131333809Y-89352380D01*
X131238571Y-89304761D01*
X131190952Y-89257142D01*
X132190952Y-88352380D02*
X132190952Y-89161904D01*
X132238571Y-89257142D01*
X132286190Y-89304761D01*
X132381428Y-89352380D01*
X132571904Y-89352380D01*
X132667142Y-89304761D01*
X132714761Y-89257142D01*
X132762380Y-89161904D01*
X132762380Y-88352380D01*
X265890476Y-12247619D02*
X265938095Y-12200000D01*
X266033333Y-12152380D01*
X266271428Y-12152380D01*
X266366666Y-12200000D01*
X266414285Y-12247619D01*
X266461904Y-12342857D01*
X266461904Y-12438095D01*
X266414285Y-12580952D01*
X265842857Y-13152380D01*
X266461904Y-13152380D01*
X266890476Y-12152380D02*
X266890476Y-12961904D01*
X266938095Y-13057142D01*
X266985714Y-13104761D01*
X267080952Y-13152380D01*
X267271428Y-13152380D01*
X267366666Y-13104761D01*
X267414285Y-13057142D01*
X267461904Y-12961904D01*
X267461904Y-12152380D01*
X84994857Y-80224380D02*
X85661523Y-80224380D01*
X85232952Y-81224380D01*
X86042476Y-80224380D02*
X86042476Y-81033904D01*
X86090095Y-81129142D01*
X86137714Y-81176761D01*
X86232952Y-81224380D01*
X86423428Y-81224380D01*
X86518666Y-81176761D01*
X86566285Y-81129142D01*
X86613904Y-81033904D01*
X86613904Y-80224380D01*
X270827619Y-25852380D02*
X270256190Y-25852380D01*
X270541904Y-25852380D02*
X270541904Y-24852380D01*
X270446666Y-24995238D01*
X270351428Y-25090476D01*
X270256190Y-25138095D01*
X271256190Y-25757142D02*
X271303809Y-25804761D01*
X271256190Y-25852380D01*
X271208571Y-25804761D01*
X271256190Y-25757142D01*
X271256190Y-25852380D01*
X272208571Y-24852380D02*
X271732380Y-24852380D01*
X271684761Y-25328571D01*
X271732380Y-25280952D01*
X271827619Y-25233333D01*
X272065714Y-25233333D01*
X272160952Y-25280952D01*
X272208571Y-25328571D01*
X272256190Y-25423809D01*
X272256190Y-25661904D01*
X272208571Y-25757142D01*
X272160952Y-25804761D01*
X272065714Y-25852380D01*
X271827619Y-25852380D01*
X271732380Y-25804761D01*
X271684761Y-25757142D01*
X272684761Y-24852380D02*
X272684761Y-25661904D01*
X272732380Y-25757142D01*
X272780000Y-25804761D01*
X272875238Y-25852380D01*
X273065714Y-25852380D01*
X273160952Y-25804761D01*
X273208571Y-25757142D01*
X273256190Y-25661904D01*
X273256190Y-24852380D01*
X14287619Y-89352380D02*
X13716190Y-89352380D01*
X14001904Y-89352380D02*
X14001904Y-88352380D01*
X13906666Y-88495238D01*
X13811428Y-88590476D01*
X13716190Y-88638095D01*
X14716190Y-89257142D02*
X14763809Y-89304761D01*
X14716190Y-89352380D01*
X14668571Y-89304761D01*
X14716190Y-89257142D01*
X14716190Y-89352380D01*
X15668571Y-88352380D02*
X15192380Y-88352380D01*
X15144761Y-88828571D01*
X15192380Y-88780952D01*
X15287619Y-88733333D01*
X15525714Y-88733333D01*
X15620952Y-88780952D01*
X15668571Y-88828571D01*
X15716190Y-88923809D01*
X15716190Y-89161904D01*
X15668571Y-89257142D01*
X15620952Y-89304761D01*
X15525714Y-89352380D01*
X15287619Y-89352380D01*
X15192380Y-89304761D01*
X15144761Y-89257142D01*
X16144761Y-88352380D02*
X16144761Y-89161904D01*
X16192380Y-89257142D01*
X16240000Y-89304761D01*
X16335238Y-89352380D01*
X16525714Y-89352380D01*
X16620952Y-89304761D01*
X16668571Y-89257142D01*
X16716190Y-89161904D01*
X16716190Y-88352380D01*
X38496904Y-89352380D02*
X37925476Y-89352380D01*
X38211190Y-89352380D02*
X38211190Y-88352380D01*
X38115952Y-88495238D01*
X38020714Y-88590476D01*
X37925476Y-88638095D01*
X38925476Y-88352380D02*
X38925476Y-89161904D01*
X38973095Y-89257142D01*
X39020714Y-89304761D01*
X39115952Y-89352380D01*
X39306428Y-89352380D01*
X39401666Y-89304761D01*
X39449285Y-89257142D01*
X39496904Y-89161904D01*
X39496904Y-88352380D01*
X19336000Y-69651619D02*
X19383619Y-69604000D01*
X19478857Y-69556380D01*
X19716952Y-69556380D01*
X19812190Y-69604000D01*
X19859809Y-69651619D01*
X19907428Y-69746857D01*
X19907428Y-69842095D01*
X19859809Y-69984952D01*
X19288380Y-70556380D01*
X19907428Y-70556380D01*
X20336000Y-70461142D02*
X20383619Y-70508761D01*
X20336000Y-70556380D01*
X20288380Y-70508761D01*
X20336000Y-70461142D01*
X20336000Y-70556380D01*
X20764571Y-69651619D02*
X20812190Y-69604000D01*
X20907428Y-69556380D01*
X21145523Y-69556380D01*
X21240761Y-69604000D01*
X21288380Y-69651619D01*
X21336000Y-69746857D01*
X21336000Y-69842095D01*
X21288380Y-69984952D01*
X20716952Y-70556380D01*
X21336000Y-70556380D01*
X22240761Y-69556380D02*
X21764571Y-69556380D01*
X21716952Y-70032571D01*
X21764571Y-69984952D01*
X21859809Y-69937333D01*
X22097904Y-69937333D01*
X22193142Y-69984952D01*
X22240761Y-70032571D01*
X22288380Y-70127809D01*
X22288380Y-70365904D01*
X22240761Y-70461142D01*
X22193142Y-70508761D01*
X22097904Y-70556380D01*
X21859809Y-70556380D01*
X21764571Y-70508761D01*
X21716952Y-70461142D01*
X22716952Y-69556380D02*
X22716952Y-70365904D01*
X22764571Y-70461142D01*
X22812190Y-70508761D01*
X22907428Y-70556380D01*
X23097904Y-70556380D01*
X23193142Y-70508761D01*
X23240761Y-70461142D01*
X23288380Y-70365904D01*
X23288380Y-69556380D01*
X272050000Y-41727380D02*
X272050000Y-40727380D01*
X272478571Y-41679761D02*
X272621428Y-41727380D01*
X272859523Y-41727380D01*
X272954761Y-41679761D01*
X273002380Y-41632142D01*
X273050000Y-41536904D01*
X273050000Y-41441666D01*
X273002380Y-41346428D01*
X272954761Y-41298809D01*
X272859523Y-41251190D01*
X272669047Y-41203571D01*
X272573809Y-41155952D01*
X272526190Y-41108333D01*
X272478571Y-41013095D01*
X272478571Y-40917857D01*
X272526190Y-40822619D01*
X272573809Y-40775000D01*
X272669047Y-40727380D01*
X272907142Y-40727380D01*
X273050000Y-40775000D01*
X273669047Y-40727380D02*
X273859523Y-40727380D01*
X273954761Y-40775000D01*
X274050000Y-40870238D01*
X274097619Y-41060714D01*
X274097619Y-41394047D01*
X274050000Y-41584523D01*
X273954761Y-41679761D01*
X273859523Y-41727380D01*
X273669047Y-41727380D01*
X273573809Y-41679761D01*
X273478571Y-41584523D01*
X273430952Y-41394047D01*
X273430952Y-41060714D01*
X273478571Y-40870238D01*
X273573809Y-40775000D01*
X273669047Y-40727380D01*
X13017619Y-32202380D02*
X12446190Y-32202380D01*
X12731904Y-32202380D02*
X12731904Y-31202380D01*
X12636666Y-31345238D01*
X12541428Y-31440476D01*
X12446190Y-31488095D01*
X13446190Y-32107142D02*
X13493809Y-32154761D01*
X13446190Y-32202380D01*
X13398571Y-32154761D01*
X13446190Y-32107142D01*
X13446190Y-32202380D01*
X14398571Y-31202380D02*
X13922380Y-31202380D01*
X13874761Y-31678571D01*
X13922380Y-31630952D01*
X14017619Y-31583333D01*
X14255714Y-31583333D01*
X14350952Y-31630952D01*
X14398571Y-31678571D01*
X14446190Y-31773809D01*
X14446190Y-32011904D01*
X14398571Y-32107142D01*
X14350952Y-32154761D01*
X14255714Y-32202380D01*
X14017619Y-32202380D01*
X13922380Y-32154761D01*
X13874761Y-32107142D01*
X14874761Y-31202380D02*
X14874761Y-32011904D01*
X14922380Y-32107142D01*
X14970000Y-32154761D01*
X15065238Y-32202380D01*
X15255714Y-32202380D01*
X15350952Y-32154761D01*
X15398571Y-32107142D01*
X15446190Y-32011904D01*
X15446190Y-31202380D01*
X246776904Y-89352380D02*
X246205476Y-89352380D01*
X246491190Y-89352380D02*
X246491190Y-88352380D01*
X246395952Y-88495238D01*
X246300714Y-88590476D01*
X246205476Y-88638095D01*
X247205476Y-88352380D02*
X247205476Y-89161904D01*
X247253095Y-89257142D01*
X247300714Y-89304761D01*
X247395952Y-89352380D01*
X247586428Y-89352380D01*
X247681666Y-89304761D01*
X247729285Y-89257142D01*
X247776904Y-89161904D01*
X247776904Y-88352380D01*
X56991428Y-89352380D02*
X56420000Y-89352380D01*
X56705714Y-89352380D02*
X56705714Y-88352380D01*
X56610476Y-88495238D01*
X56515238Y-88590476D01*
X56420000Y-88638095D01*
X57420000Y-89257142D02*
X57467619Y-89304761D01*
X57420000Y-89352380D01*
X57372380Y-89304761D01*
X57420000Y-89257142D01*
X57420000Y-89352380D01*
X57848571Y-88447619D02*
X57896190Y-88400000D01*
X57991428Y-88352380D01*
X58229523Y-88352380D01*
X58324761Y-88400000D01*
X58372380Y-88447619D01*
X58420000Y-88542857D01*
X58420000Y-88638095D01*
X58372380Y-88780952D01*
X57800952Y-89352380D01*
X58420000Y-89352380D01*
X59324761Y-88352380D02*
X58848571Y-88352380D01*
X58800952Y-88828571D01*
X58848571Y-88780952D01*
X58943809Y-88733333D01*
X59181904Y-88733333D01*
X59277142Y-88780952D01*
X59324761Y-88828571D01*
X59372380Y-88923809D01*
X59372380Y-89161904D01*
X59324761Y-89257142D01*
X59277142Y-89304761D01*
X59181904Y-89352380D01*
X58943809Y-89352380D01*
X58848571Y-89304761D01*
X58800952Y-89257142D01*
X59800952Y-88352380D02*
X59800952Y-89161904D01*
X59848571Y-89257142D01*
X59896190Y-89304761D01*
X59991428Y-89352380D01*
X60181904Y-89352380D01*
X60277142Y-89304761D01*
X60324761Y-89257142D01*
X60372380Y-89161904D01*
X60372380Y-88352380D01*
X275986904Y-13152380D02*
X275415476Y-13152380D01*
X275701190Y-13152380D02*
X275701190Y-12152380D01*
X275605952Y-12295238D01*
X275510714Y-12390476D01*
X275415476Y-12438095D01*
X276415476Y-12152380D02*
X276415476Y-12961904D01*
X276463095Y-13057142D01*
X276510714Y-13104761D01*
X276605952Y-13152380D01*
X276796428Y-13152380D01*
X276891666Y-13104761D01*
X276939285Y-13057142D01*
X276986904Y-12961904D01*
X276986904Y-12152380D01*
X79502190Y-80224380D02*
X79311714Y-80224380D01*
X79216476Y-80272000D01*
X79168857Y-80319619D01*
X79073619Y-80462476D01*
X79026000Y-80652952D01*
X79026000Y-81033904D01*
X79073619Y-81129142D01*
X79121238Y-81176761D01*
X79216476Y-81224380D01*
X79406952Y-81224380D01*
X79502190Y-81176761D01*
X79549809Y-81129142D01*
X79597428Y-81033904D01*
X79597428Y-80795809D01*
X79549809Y-80700571D01*
X79502190Y-80652952D01*
X79406952Y-80605333D01*
X79216476Y-80605333D01*
X79121238Y-80652952D01*
X79073619Y-80700571D01*
X79026000Y-80795809D01*
X80026000Y-81129142D02*
X80073619Y-81176761D01*
X80026000Y-81224380D01*
X79978380Y-81176761D01*
X80026000Y-81129142D01*
X80026000Y-81224380D01*
X80454571Y-80319619D02*
X80502190Y-80272000D01*
X80597428Y-80224380D01*
X80835523Y-80224380D01*
X80930761Y-80272000D01*
X80978380Y-80319619D01*
X81026000Y-80414857D01*
X81026000Y-80510095D01*
X80978380Y-80652952D01*
X80406952Y-81224380D01*
X81026000Y-81224380D01*
X81930761Y-80224380D02*
X81454571Y-80224380D01*
X81406952Y-80700571D01*
X81454571Y-80652952D01*
X81549809Y-80605333D01*
X81787904Y-80605333D01*
X81883142Y-80652952D01*
X81930761Y-80700571D01*
X81978380Y-80795809D01*
X81978380Y-81033904D01*
X81930761Y-81129142D01*
X81883142Y-81176761D01*
X81787904Y-81224380D01*
X81549809Y-81224380D01*
X81454571Y-81176761D01*
X81406952Y-81129142D01*
X82406952Y-80224380D02*
X82406952Y-81033904D01*
X82454571Y-81129142D01*
X82502190Y-81176761D01*
X82597428Y-81224380D01*
X82787904Y-81224380D01*
X82883142Y-81176761D01*
X82930761Y-81129142D01*
X82978380Y-81033904D01*
X82978380Y-80224380D01*
X33162904Y-70302380D02*
X32591476Y-70302380D01*
X32877190Y-70302380D02*
X32877190Y-69302380D01*
X32781952Y-69445238D01*
X32686714Y-69540476D01*
X32591476Y-69588095D01*
X33591476Y-69302380D02*
X33591476Y-70111904D01*
X33639095Y-70207142D01*
X33686714Y-70254761D01*
X33781952Y-70302380D01*
X33972428Y-70302380D01*
X34067666Y-70254761D01*
X34115285Y-70207142D01*
X34162904Y-70111904D01*
X34162904Y-69302380D01*
X61912619Y-89352380D02*
X61341190Y-89352380D01*
X61626904Y-89352380D02*
X61626904Y-88352380D01*
X61531666Y-88495238D01*
X61436428Y-88590476D01*
X61341190Y-88638095D01*
X62341190Y-89257142D02*
X62388809Y-89304761D01*
X62341190Y-89352380D01*
X62293571Y-89304761D01*
X62341190Y-89257142D01*
X62341190Y-89352380D01*
X63293571Y-88352380D02*
X62817380Y-88352380D01*
X62769761Y-88828571D01*
X62817380Y-88780952D01*
X62912619Y-88733333D01*
X63150714Y-88733333D01*
X63245952Y-88780952D01*
X63293571Y-88828571D01*
X63341190Y-88923809D01*
X63341190Y-89161904D01*
X63293571Y-89257142D01*
X63245952Y-89304761D01*
X63150714Y-89352380D01*
X62912619Y-89352380D01*
X62817380Y-89304761D01*
X62769761Y-89257142D01*
X63769761Y-88352380D02*
X63769761Y-89161904D01*
X63817380Y-89257142D01*
X63865000Y-89304761D01*
X63960238Y-89352380D01*
X64150714Y-89352380D01*
X64245952Y-89304761D01*
X64293571Y-89257142D01*
X64341190Y-89161904D01*
X64341190Y-88352380D01*
X257715000Y-69397619D02*
X257762619Y-69350000D01*
X257857857Y-69302380D01*
X258095952Y-69302380D01*
X258191190Y-69350000D01*
X258238809Y-69397619D01*
X258286428Y-69492857D01*
X258286428Y-69588095D01*
X258238809Y-69730952D01*
X257667380Y-70302380D01*
X258286428Y-70302380D01*
X258715000Y-70207142D02*
X258762619Y-70254761D01*
X258715000Y-70302380D01*
X258667380Y-70254761D01*
X258715000Y-70207142D01*
X258715000Y-70302380D01*
X259095952Y-69302380D02*
X259762619Y-69302380D01*
X259334047Y-70302380D01*
X260619761Y-69302380D02*
X260143571Y-69302380D01*
X260095952Y-69778571D01*
X260143571Y-69730952D01*
X260238809Y-69683333D01*
X260476904Y-69683333D01*
X260572142Y-69730952D01*
X260619761Y-69778571D01*
X260667380Y-69873809D01*
X260667380Y-70111904D01*
X260619761Y-70207142D01*
X260572142Y-70254761D01*
X260476904Y-70302380D01*
X260238809Y-70302380D01*
X260143571Y-70254761D01*
X260095952Y-70207142D01*
X261095952Y-69302380D02*
X261095952Y-70111904D01*
X261143571Y-70207142D01*
X261191190Y-70254761D01*
X261286428Y-70302380D01*
X261476904Y-70302380D01*
X261572142Y-70254761D01*
X261619761Y-70207142D01*
X261667380Y-70111904D01*
X261667380Y-69302380D01*
X256936904Y-13152380D02*
X256365476Y-13152380D01*
X256651190Y-13152380D02*
X256651190Y-12152380D01*
X256555952Y-12295238D01*
X256460714Y-12390476D01*
X256365476Y-12438095D01*
X257365476Y-12152380D02*
X257365476Y-12961904D01*
X257413095Y-13057142D01*
X257460714Y-13104761D01*
X257555952Y-13152380D01*
X257746428Y-13152380D01*
X257841666Y-13104761D01*
X257889285Y-13057142D01*
X257936904Y-12961904D01*
X257936904Y-12152380D01*
X10509428Y-70556380D02*
X9938000Y-70556380D01*
X10223714Y-70556380D02*
X10223714Y-69556380D01*
X10128476Y-69699238D01*
X10033238Y-69794476D01*
X9938000Y-69842095D01*
X10938000Y-70461142D02*
X10985619Y-70508761D01*
X10938000Y-70556380D01*
X10890380Y-70508761D01*
X10938000Y-70461142D01*
X10938000Y-70556380D01*
X11366571Y-69651619D02*
X11414190Y-69604000D01*
X11509428Y-69556380D01*
X11747523Y-69556380D01*
X11842761Y-69604000D01*
X11890380Y-69651619D01*
X11938000Y-69746857D01*
X11938000Y-69842095D01*
X11890380Y-69984952D01*
X11318952Y-70556380D01*
X11938000Y-70556380D01*
X12842761Y-69556380D02*
X12366571Y-69556380D01*
X12318952Y-70032571D01*
X12366571Y-69984952D01*
X12461809Y-69937333D01*
X12699904Y-69937333D01*
X12795142Y-69984952D01*
X12842761Y-70032571D01*
X12890380Y-70127809D01*
X12890380Y-70365904D01*
X12842761Y-70461142D01*
X12795142Y-70508761D01*
X12699904Y-70556380D01*
X12461809Y-70556380D01*
X12366571Y-70508761D01*
X12318952Y-70461142D01*
X13318952Y-69556380D02*
X13318952Y-70365904D01*
X13366571Y-70461142D01*
X13414190Y-70508761D01*
X13509428Y-70556380D01*
X13699904Y-70556380D01*
X13795142Y-70508761D01*
X13842761Y-70461142D01*
X13890380Y-70365904D01*
X13890380Y-69556380D01*
X201136428Y-89352380D02*
X200565000Y-89352380D01*
X200850714Y-89352380D02*
X200850714Y-88352380D01*
X200755476Y-88495238D01*
X200660238Y-88590476D01*
X200565000Y-88638095D01*
X201565000Y-89257142D02*
X201612619Y-89304761D01*
X201565000Y-89352380D01*
X201517380Y-89304761D01*
X201565000Y-89257142D01*
X201565000Y-89352380D01*
X201993571Y-88447619D02*
X202041190Y-88400000D01*
X202136428Y-88352380D01*
X202374523Y-88352380D01*
X202469761Y-88400000D01*
X202517380Y-88447619D01*
X202565000Y-88542857D01*
X202565000Y-88638095D01*
X202517380Y-88780952D01*
X201945952Y-89352380D01*
X202565000Y-89352380D01*
X203469761Y-88352380D02*
X202993571Y-88352380D01*
X202945952Y-88828571D01*
X202993571Y-88780952D01*
X203088809Y-88733333D01*
X203326904Y-88733333D01*
X203422142Y-88780952D01*
X203469761Y-88828571D01*
X203517380Y-88923809D01*
X203517380Y-89161904D01*
X203469761Y-89257142D01*
X203422142Y-89304761D01*
X203326904Y-89352380D01*
X203088809Y-89352380D01*
X202993571Y-89304761D01*
X202945952Y-89257142D01*
X203945952Y-88352380D02*
X203945952Y-89161904D01*
X203993571Y-89257142D01*
X204041190Y-89304761D01*
X204136428Y-89352380D01*
X204326904Y-89352380D01*
X204422142Y-89304761D01*
X204469761Y-89257142D01*
X204517380Y-89161904D01*
X204517380Y-88352380D01*
X221932619Y-89352380D02*
X221361190Y-89352380D01*
X221646904Y-89352380D02*
X221646904Y-88352380D01*
X221551666Y-88495238D01*
X221456428Y-88590476D01*
X221361190Y-88638095D01*
X222361190Y-89257142D02*
X222408809Y-89304761D01*
X222361190Y-89352380D01*
X222313571Y-89304761D01*
X222361190Y-89257142D01*
X222361190Y-89352380D01*
X223313571Y-88352380D02*
X222837380Y-88352380D01*
X222789761Y-88828571D01*
X222837380Y-88780952D01*
X222932619Y-88733333D01*
X223170714Y-88733333D01*
X223265952Y-88780952D01*
X223313571Y-88828571D01*
X223361190Y-88923809D01*
X223361190Y-89161904D01*
X223313571Y-89257142D01*
X223265952Y-89304761D01*
X223170714Y-89352380D01*
X222932619Y-89352380D01*
X222837380Y-89304761D01*
X222789761Y-89257142D01*
X223789761Y-88352380D02*
X223789761Y-89161904D01*
X223837380Y-89257142D01*
X223885000Y-89304761D01*
X223980238Y-89352380D01*
X224170714Y-89352380D01*
X224265952Y-89304761D01*
X224313571Y-89257142D01*
X224361190Y-89161904D01*
X224361190Y-88352380D01*
X225901428Y-89352380D02*
X225330000Y-89352380D01*
X225615714Y-89352380D02*
X225615714Y-88352380D01*
X225520476Y-88495238D01*
X225425238Y-88590476D01*
X225330000Y-88638095D01*
X226330000Y-89257142D02*
X226377619Y-89304761D01*
X226330000Y-89352380D01*
X226282380Y-89304761D01*
X226330000Y-89257142D01*
X226330000Y-89352380D01*
X226758571Y-88447619D02*
X226806190Y-88400000D01*
X226901428Y-88352380D01*
X227139523Y-88352380D01*
X227234761Y-88400000D01*
X227282380Y-88447619D01*
X227330000Y-88542857D01*
X227330000Y-88638095D01*
X227282380Y-88780952D01*
X226710952Y-89352380D01*
X227330000Y-89352380D01*
X228234761Y-88352380D02*
X227758571Y-88352380D01*
X227710952Y-88828571D01*
X227758571Y-88780952D01*
X227853809Y-88733333D01*
X228091904Y-88733333D01*
X228187142Y-88780952D01*
X228234761Y-88828571D01*
X228282380Y-88923809D01*
X228282380Y-89161904D01*
X228234761Y-89257142D01*
X228187142Y-89304761D01*
X228091904Y-89352380D01*
X227853809Y-89352380D01*
X227758571Y-89304761D01*
X227710952Y-89257142D01*
X228710952Y-88352380D02*
X228710952Y-89161904D01*
X228758571Y-89257142D01*
X228806190Y-89304761D01*
X228901428Y-89352380D01*
X229091904Y-89352380D01*
X229187142Y-89304761D01*
X229234761Y-89257142D01*
X229282380Y-89161904D01*
X229282380Y-88352380D01*
X249396428Y-89352380D02*
X248825000Y-89352380D01*
X249110714Y-89352380D02*
X249110714Y-88352380D01*
X249015476Y-88495238D01*
X248920238Y-88590476D01*
X248825000Y-88638095D01*
X249825000Y-89257142D02*
X249872619Y-89304761D01*
X249825000Y-89352380D01*
X249777380Y-89304761D01*
X249825000Y-89257142D01*
X249825000Y-89352380D01*
X250253571Y-88447619D02*
X250301190Y-88400000D01*
X250396428Y-88352380D01*
X250634523Y-88352380D01*
X250729761Y-88400000D01*
X250777380Y-88447619D01*
X250825000Y-88542857D01*
X250825000Y-88638095D01*
X250777380Y-88780952D01*
X250205952Y-89352380D01*
X250825000Y-89352380D01*
X251729761Y-88352380D02*
X251253571Y-88352380D01*
X251205952Y-88828571D01*
X251253571Y-88780952D01*
X251348809Y-88733333D01*
X251586904Y-88733333D01*
X251682142Y-88780952D01*
X251729761Y-88828571D01*
X251777380Y-88923809D01*
X251777380Y-89161904D01*
X251729761Y-89257142D01*
X251682142Y-89304761D01*
X251586904Y-89352380D01*
X251348809Y-89352380D01*
X251253571Y-89304761D01*
X251205952Y-89257142D01*
X252205952Y-88352380D02*
X252205952Y-89161904D01*
X252253571Y-89257142D01*
X252301190Y-89304761D01*
X252396428Y-89352380D01*
X252586904Y-89352380D01*
X252682142Y-89304761D01*
X252729761Y-89257142D01*
X252777380Y-89161904D01*
X252777380Y-88352380D01*
X262160000Y-43997619D02*
X262207619Y-43950000D01*
X262302857Y-43902380D01*
X262540952Y-43902380D01*
X262636190Y-43950000D01*
X262683809Y-43997619D01*
X262731428Y-44092857D01*
X262731428Y-44188095D01*
X262683809Y-44330952D01*
X262112380Y-44902380D01*
X262731428Y-44902380D01*
X263160000Y-44807142D02*
X263207619Y-44854761D01*
X263160000Y-44902380D01*
X263112380Y-44854761D01*
X263160000Y-44807142D01*
X263160000Y-44902380D01*
X263588571Y-43997619D02*
X263636190Y-43950000D01*
X263731428Y-43902380D01*
X263969523Y-43902380D01*
X264064761Y-43950000D01*
X264112380Y-43997619D01*
X264160000Y-44092857D01*
X264160000Y-44188095D01*
X264112380Y-44330952D01*
X263540952Y-44902380D01*
X264160000Y-44902380D01*
X265064761Y-43902380D02*
X264588571Y-43902380D01*
X264540952Y-44378571D01*
X264588571Y-44330952D01*
X264683809Y-44283333D01*
X264921904Y-44283333D01*
X265017142Y-44330952D01*
X265064761Y-44378571D01*
X265112380Y-44473809D01*
X265112380Y-44711904D01*
X265064761Y-44807142D01*
X265017142Y-44854761D01*
X264921904Y-44902380D01*
X264683809Y-44902380D01*
X264588571Y-44854761D01*
X264540952Y-44807142D01*
X265540952Y-43902380D02*
X265540952Y-44711904D01*
X265588571Y-44807142D01*
X265636190Y-44854761D01*
X265731428Y-44902380D01*
X265921904Y-44902380D01*
X266017142Y-44854761D01*
X266064761Y-44807142D01*
X266112380Y-44711904D01*
X266112380Y-43902380D01*
X269557619Y-89352380D02*
X268986190Y-89352380D01*
X269271904Y-89352380D02*
X269271904Y-88352380D01*
X269176666Y-88495238D01*
X269081428Y-88590476D01*
X268986190Y-88638095D01*
X269986190Y-89257142D02*
X270033809Y-89304761D01*
X269986190Y-89352380D01*
X269938571Y-89304761D01*
X269986190Y-89257142D01*
X269986190Y-89352380D01*
X270938571Y-88352380D02*
X270462380Y-88352380D01*
X270414761Y-88828571D01*
X270462380Y-88780952D01*
X270557619Y-88733333D01*
X270795714Y-88733333D01*
X270890952Y-88780952D01*
X270938571Y-88828571D01*
X270986190Y-88923809D01*
X270986190Y-89161904D01*
X270938571Y-89257142D01*
X270890952Y-89304761D01*
X270795714Y-89352380D01*
X270557619Y-89352380D01*
X270462380Y-89304761D01*
X270414761Y-89257142D01*
X271414761Y-88352380D02*
X271414761Y-89161904D01*
X271462380Y-89257142D01*
X271510000Y-89304761D01*
X271605238Y-89352380D01*
X271795714Y-89352380D01*
X271890952Y-89304761D01*
X271938571Y-89257142D01*
X271986190Y-89161904D01*
X271986190Y-88352380D01*
M02*
