M48
; DRILL file {KiCad (5.99.0-4079-gfad0916f0)} date 11/18/20 01:00:18
; FORMAT={-:-/ absolute / inch / decimal}
; #@! TF.CreationDate,2020-11-18T01:00:18-05:00
; #@! TF.GenerationSoftware,Kicad,Pcbnew,(5.99.0-4079-gfad0916f0)
; #@! TF.FileFunction,Plated,1,2,PTH
FMAT,2
INCH
T1C0.0157
T2C0.0335
T3C0.0394
T4C0.0590
%
G90
G05
T1
X0.2431Y-1.0525
X0.2431Y-1.3125
X2.5034Y-0.8247
X2.5313Y-0.7969
X2.5591Y-0.769
X2.7891Y-2.0156
X2.8359Y-3.3047
X2.8359Y-3.4688
X2.8828Y-3.3047
X2.9297Y-3.3047
X2.9766Y-2.8828
X3.6797Y-2.8754
X3.7031Y-2.8125
X3.7031Y-3.3281
X3.7031Y-3.4219
X3.8438Y-3.2109
X3.8906Y-0.5391
X4.0215Y-3.4704
X4.0547Y-2.7891
X4.0547Y-3.4688
X4.0781Y-3.4453
X4.1016Y-3.4219
X4.1091Y-2.7891
X4.1638Y-2.7891
X4.1646Y-3.2506
X4.1719Y-3.2813
X4.1953Y-1.2891
X4.3125Y-3.2813
X4.3209Y-2.7593
X4.3594Y-2.1094
X4.3594Y-3.3738
X4.4297Y-3.5391
X4.4731Y-3.3492
X4.4766Y-3.2344
X4.6172Y-2.9766
X4.6209Y-3.3
X4.8281Y-2.8594
X5.8125Y-3.4691
X5.8359Y-2.7656
X6.5859Y-2.7891
X7.3125Y-2.8124
X10.3831Y-0.6225
X10.4481Y-2.841
T2
X4.5172Y-3.4891
X4.5172Y-3.5891
X4.6172Y-3.4891
X4.6172Y-3.5891
X4.7172Y-3.4891
X4.7172Y-3.5891
T3
X3.7734Y-3.6563
X4.0078Y-3.6563
X3.8906Y-3.6563
T4
X3.225Y-0.275
X3.475Y-0.175
X6.4125Y-2.525
X6.6625Y-2.425
X6.7875Y-1.775
X7.0375Y-1.675
X4.9125Y-2.525
X5.1625Y-2.425
X5.2875Y-1.775
X5.5375Y-1.675
X1.2562Y-3.275
X1.5062Y-3.175
X8.85Y-1.025
X9.1Y-0.925
X1.35Y-3.275
X1.6Y-3.175
X6.6Y-1.025
X6.85Y-0.925
X10.6313Y-1.4
X10.8813Y-1.3
X9.7875Y-1.775
X10.0375Y-1.675
X7.1625Y-2.525
X7.4125Y-2.425
X4.725Y-0.275
X4.975Y-0.175
X2.1Y-1.025
X2.35Y-0.925
X5.475Y-0.275
X5.725Y-0.175
X7.8187Y-3.275
X8.0687Y-3.175
X10.5375Y-3.275
X10.7875Y-3.175
X9.6Y-3.275
X9.85Y-3.175
X2.475Y-0.275
X2.725Y-0.175
X8.1Y-1.025
X8.35Y-0.925
X6.975Y-0.275
X7.225Y-0.175
X9.6Y-1.025
X9.85Y-0.925
X8.6625Y-3.275
X8.9125Y-3.175
X10.725Y-2.525
X10.975Y-2.425
X7.9125Y-2.525
X8.1625Y-2.425
X0.6937Y-2.525
X0.9437Y-2.425
X4.35Y-1.025
X4.6Y-0.925
X10.2562Y-1.775
X10.5062Y-1.675
X4.5375Y-1.775
X4.7875Y-1.675
X5.475Y-3.275
X5.725Y-3.175
X1.1625Y-2.525
X1.4125Y-2.425
X9.6938Y-2.525
X9.9438Y-2.425
X8.475Y-0.275
X8.725Y-0.175
X3.975Y-0.275
X4.225Y-0.175
X7.725Y-0.275
X7.975Y-0.175
X3.4125Y-2.525
X3.6625Y-2.425
X0.3187Y-1.775
X0.5687Y-1.675
X8.7562Y-3.275
X9.0062Y-3.175
X9.6937Y-3.275
X9.9437Y-3.175
X5.85Y-1.025
X6.1Y-0.925
X2.1938Y-3.275
X2.4438Y-3.175
X7.35Y-1.025
X7.6Y-0.925
X10.5375Y-1.025
X10.7875Y-0.925
X0.4125Y-1.025
X0.6625Y-0.925
X2.2875Y-1.775
X2.5375Y-1.675
X1.5375Y-1.775
X1.7875Y-1.675
X2.85Y-1.025
X3.1Y-0.925
X5.0062Y-3.275
X5.2562Y-3.175
X3.0375Y-1.775
X3.2875Y-1.675
X5.6625Y-2.525
X5.9125Y-2.425
X9.975Y-0.275
X10.225Y-0.175
X0.5062Y-1.775
X0.7562Y-1.675
X0.225Y-0.275
X0.475Y-0.175
X8.6625Y-2.525
X8.9125Y-2.425
X9.225Y-0.275
X9.475Y-0.175
X9.0375Y-1.775
X9.2875Y-1.675
X3.6Y-1.025
X3.85Y-0.925
X10.725Y-0.275
X10.975Y-0.175
X8.2875Y-1.775
X8.5375Y-1.675
X0.3187Y-2.525
X0.5687Y-2.425
X7.5375Y-1.775
X7.7875Y-1.675
X10.35Y-0.275
X10.6Y-0.175
X10.6312Y-3.275
X10.8812Y-3.175
X10.0688Y-2.525
X10.3188Y-2.425
X6.0375Y-1.775
X6.2875Y-1.675
X2.6625Y-2.525
X2.9125Y-2.425
X2.2875Y-3.275
X2.5375Y-3.175
X1.725Y-0.275
X1.975Y-0.175
X3.7875Y-1.775
X4.0375Y-1.675
X0.4125Y-3.275
X0.6625Y-3.175
X6.225Y-0.275
X6.475Y-0.175
X1.9125Y-2.525
X2.1625Y-2.425
X5.1Y-1.025
X5.35Y-0.925
X0.3187Y-3.275
X0.5687Y-3.175
X1.35Y-1.025
X1.6Y-0.925
X0.975Y-0.275
X1.225Y-0.175
X4.1625Y-2.525
X4.4125Y-2.425
T0
M30
